<svg id="Layer_1" data-name="Layer 1" xmlns="http://www.w3.org/2000/svg" viewBox="0 0 244.34 161.6"><defs><style>.cls-1{fill:#082a35;}.cls-2{fill:#fff;}.cls-3{fill:#7bbdd9;}.cls-4{fill:#fefefe;}</style></defs><title>chris_1_ta</title><path class="cls-1" d="M111,25.54c-0.28.07-.5,0.47-0.85,0.14,0.41-1.27,1.25-2.43.82-3.91-0.11-.38.52-0.47,0.74-0.83A30.38,30.38,0,0,1,126.41,8.69a55.87,55.87,0,0,1,9.65-2.59c2.41-.54,4.82-0.26,7.22-0.46s4.69-.2,7-0.3c2.78-.12,5.59-0.64,8.36-0.09,2.53,0.51,5.09.27,7.61,0.51a24.64,24.64,0,0,1,5.59,1.59,34.8,34.8,0,0,1,5.92,2.51,7.36,7.36,0,0,1,2.14-3.77c0.89-.76,1.73-1.33,2.88-0.8a3.06,3.06,0,0,1,1.55,3.11c-0.13.69-.63,1.75-0.38,2,0.56,0.49,1.07-.49,1.72-0.63A7.46,7.46,0,0,1,189,9.39c1.45,0.33,2.46,1.54,1.29,3s-2,3-3.69,3.8a1,1,0,0,0-.44,1.5c1.68,3.18,1.57,6.8,2.5,10.14,0.85,3,.81,6.13,1.26,9.18a22.71,22.71,0,0,1-.2,6.32A26.45,26.45,0,0,0,189.3,48c0,0.93,1,1.67,1.24,2.65,0.61,2.09,1.72,4,2.19,6.18a8.58,8.58,0,0,1-.41,5,22.94,22.94,0,0,1-3.92,7c-1.17,1.37-2.65,2.39-3.89,3.7a2.41,2.41,0,0,1-2.77.68,2.17,2.17,0,0,0-1.29-.16,1.43,1.43,0,0,1-1.85-.61,0.69,0.69,0,1,0-1.2.65c0.56,1.7-.25,3.36-0.1,5.06,0.09,1-1.18,1.51-2.36,1-0.33-.13-0.63-0.32-1-0.49-0.57,1.14.38,2.06,0.35,3.08s-0.82,1.83-1.35,2.72a59.23,59.23,0,0,1,14.76,1.74,30.1,30.1,0,0,1,7.67,3.29c2.45,1.39,5.07,1.41,7.66,1.63,1.63,0.14,3.11.76,4.72,1a35.81,35.81,0,0,0,5.6-.06c3.45-.11,6.88-0.67,10.35-0.38a7,7,0,0,1,6.36,4.42,36.67,36.67,0,0,1,3.14,14.65c0,1.67.17,3.33,0.22,5a34,34,0,0,1-4.46,18c-2,3.54-4.88,6.17-9.11,6.8-1,.15-1,0.58-0.62,1.26,2.3,3.74,2.86,8.06,4.09,12.16a7.29,7.29,0,0,1-.09,3.66,1.59,1.59,0,0,1-.37.74c-2.36,2.41-5,4.44-8.4,5a32.11,32.11,0,0,1-5.94.17,82.08,82.08,0,0,0-8.42.19,24.1,24.1,0,0,1-4.85-.13c-1.74-.21-3.46,0-5.2-0.12-2.78-.15-5.5-0.72-8.28-0.86a11.68,11.68,0,0,1-4.28-1,1.59,1.59,0,0,0-1.5.21,10.87,10.87,0,0,1-3.81,1.22,45,45,0,0,0-5.85,1.08,33.42,33.42,0,0,1-10,.77,33.15,33.15,0,0,0-6.2.18,59.84,59.84,0,0,1-10,.36c-2.89-.23-5.77-0.42-8.66-0.43-2.66,0-5.3.2-8,.39-2,.14-4,0.74-6,1a25.81,25.81,0,0,1-7-.09,34.93,34.93,0,0,0-7.44-.7c-2.66.19-5.32,0.28-8,.31-3.71,0-7.41-.25-11.12-0.23s-7.14.39-10.72,0.45a25.89,25.89,0,0,1-6.25-.71,4.88,4.88,0,0,0-1.88-.21c-3.07.57-6.19,0.35-9.27,0.55a36.21,36.21,0,0,1-9-.29c-3.07-.58-6.22-0.74-9.33-1.17-2.76-.39-5.5-0.94-8.25-1.35a27.11,27.11,0,0,1-5.19-1.23,3.93,3.93,0,0,1-2.21-1.68,5,5,0,0,0-.81-1c-0.4-.38-0.85-0.69-0.22-1.24a0.46,0.46,0,0,0,.06-0.56A41.49,41.49,0,0,1,19.53,152c-0.69-2.36-1.19-4.78-1.95-7.13a20.56,20.56,0,0,1-1-4.54,11.46,11.46,0,0,0-1.65-4.2,19.85,19.85,0,0,1-2.11-6.65,62.34,62.34,0,0,0-2.55-9.66A115.41,115.41,0,0,1,6.6,105.28C5.89,101.21,5.47,97.1,5.07,93A10.79,10.79,0,0,1,6.8,85.52c1.26-1.81,1.64-4.1,3-5.92a23.54,23.54,0,0,1,11-8.16c3.33-1.19,6.7-.75,10.05-1.12s6.72-.2,10.07-0.48a16.22,16.22,0,0,1,5.68.36c1.86,0.53,3.71.4,5.55,0.72,2.15,0.38,4.34.45,6.48,0.86s4.34-.08,6.37.56c3.66,1.16,7.4.18,11.09,0.7a42,42,0,0,0,10.21.13,18.91,18.91,0,0,1,8.31,1.41A39.83,39.83,0,0,0,99.28,76a5.56,5.56,0,0,1,4.06,3.39,4.32,4.32,0,0,0,2.3,1.94c1.47,0.7,1.87,2,2.44,3.17a35.46,35.46,0,0,1,3,10.09c0.16,1,0,2,.1,2.95,0.14,1.3.71,2.42,1,3.89a12.76,12.76,0,0,1,5.14-5,22.81,22.81,0,0,1,5.41-2,10.09,10.09,0,0,0,3-1.38,6.61,6.61,0,0,1,2.1-1c0.36-.1.83-0.15,0.53-0.65s-0.21-1.24-1.06-.88a25.42,25.42,0,0,1-2.54.54c-1.15.35-1.58-.84-1.85-1.63a11.25,11.25,0,0,1-.93-3.87c0-1.26-.93-0.83-1.51-0.72-1.66.31-2.07,0.11-2.48-1.55a7.05,7.05,0,0,1-.31-3.62,0.62,0.62,0,0,0-.33-0.81,1,1,0,0,0-.91,0c-1.76,1-2.57.52-2.61-1.5a4.11,4.11,0,0,1,.82-2.79,1.09,1.09,0,0,0-.31-1.71,8.34,8.34,0,0,1-2.74-8.25c0.08-.47.22-0.7-0.42-0.76a12.39,12.39,0,0,1-5.1-1.87,5.84,5.84,0,0,1-2.33-5.89,24,24,0,0,0,.55-4.33,1.22,1.22,0,0,1,.6-1.19c1.35-.62,2.3-1.81,3.63-2.44a0.48,0.48,0,0,0,.28-0.58c-0.3-2.3.15-4.6,0.1-6.88-0.08-3.29.79-6.52,0.39-9.81a3.65,3.65,0,0,1,.74-2,9.85,9.85,0,0,0,1-3A3.07,3.07,0,0,0,111,25.54Z" transform="translate(-5 -5)"/><path class="cls-2" d="M120.3,152.19c-0.43-1.78-1.54-3.36-1.76-5.19-0.26-2.17-.72-4.3-1-6.46a52.35,52.35,0,0,0-2.35-8.86c-1.42-4.31-2.1-8.83-3.67-13.11A82.37,82.37,0,0,1,108,105c-0.68-3.73-2.51-7.12-3.8-10.68-0.6-1.67-1.62-3.21-2.08-4.91A22,22,0,0,0,98.56,82c-0.55-.75-1-1.72-2-1.93-2.21-.48-4.47-0.74-6.68-1.23-4.59-1-9.29-.48-13.9-1.16-4.86-.72-9.78-0.44-14.67-0.92-3.74-.37-7.52-0.61-11.31-0.6s-7.54-.53-11.33-0.64c-3-.09-6,0.31-9,0.31a66.67,66.67,0,0,0-7.71.77,4.16,4.16,0,0,0-1.41.13,19.42,19.42,0,0,0-9.67,8.83,2.57,2.57,0,0,0-.3,2.06,4.93,4.93,0,0,1-.12,3.28A5.78,5.78,0,0,0,10,93.69c0.36,2.67.33,5.36,0.45,8.87,0.28,2,.82,4.89,1.43,7.72,0.58,2.68,1.44,5.29,1.75,8a12.88,12.88,0,0,0,1.23,4.46,11.33,11.33,0,0,1,.9,2.56,53.73,53.73,0,0,0,1.95,7.38c1.79,4.43,3.09,9,4.52,13.55a36.67,36.67,0,0,0,2.37,6.33,3.16,3.16,0,0,1,.39,1c0.27,1.93,1.51,3.15,2.92,4.33,1.69,1.42,3.79,1.4,5.73,1.6,4.57,0.47,9.11,1.26,13.68,1.68a17.7,17.7,0,0,1,2.93.44,8,8,0,0,0,2.82.36c2.46-.28,4.93-0.09,7.38-0.34,2.21-.22,4.47.21,6.63-0.51a6.94,6.94,0,0,1,3.88,0c2.56,0.63,5.14.3,7.7,0.43,1.62,0.08,3.27-.3,4.89-0.19,3.88,0.25,7.75-.13,11.65.09,4.66,0.26,9.35-.13,14-0.2,2,0,4,.08,6.07.1,2.21,0,4.46.75,6.57-.79a0.94,0.94,0,0,0,.55-1.07C122.3,156.88,120.89,154.66,120.3,152.19Zm98.06,2c-0.52-1.57-1-3.19-1.36-4.79a34.38,34.38,0,0,0-3.56-8.7c-1.76-3.25-3.73-6.38-5.32-9.73s-2.94-7-4.45-10.55c-0.93-2.15-1.81-4.33-2.81-6.45s-2.09-4.3-3.29-6.37c-1.68-2.9-3.42-5.8-6.18-7.85a31,31,0,0,0-5.21-2.91c-3.92-1.88-7.95-3-12.34-2.13a4.66,4.66,0,0,0-.6,0c-4.43.25-7,3.45-9.78,6.25a2.17,2.17,0,0,0-.32.77,36.77,36.77,0,0,1-2,4.57c-1.29,2.37-2,4.91-3.07,7.33-0.53,1.22-.8,2.8-2.86,3.16,3.8,1.31,5.77,4.26,8.1,7a6,6,0,0,0,0-.83,75.57,75.57,0,0,1-.92-10.41c0-.3-0.3-0.86.27-0.85s1.23-.69,1.67-0.06c0.94,1.38,2.09,2.68,1.74,4.62a3.1,3.1,0,0,0-.16,1.69c1.2,3.78,2.32,7.59,3.42,11.41a1.74,1.74,0,0,0,.68,1.18c2.77,1.75,5.71,3.17,8.91,4.83a29.14,29.14,0,0,0-1.27-3.26,59.36,59.36,0,0,1-4.36-12,1.32,1.32,0,0,1,.78-1.57c0.62-.38,1,0.29,1.17.7a27,27,0,0,1,1.17,2.74c1.62,4.16,3.19,8.33,4.86,12.47A5.79,5.79,0,0,0,184.1,138a55.13,55.13,0,0,1,8.72,5h0a17.45,17.45,0,0,0,3.06,2.06,1.37,1.37,0,0,1,.83,1.6,1.87,1.87,0,0,1-1.6,1.53,7.59,7.59,0,0,1-5.45-1.28,141.15,141.15,0,0,0-13.23-8.13,69.53,69.53,0,0,1-10-6,4,4,0,0,0-2-1.1,19.83,19.83,0,0,0-4.51,2.3,6.54,6.54,0,0,1-4.17,3.21,7.88,7.88,0,0,1-2.24,0h0a3.77,3.77,0,0,0-.45-0.28v-0.11h0c0-.35,0-0.32-1,0h0a6.56,6.56,0,0,1-4.59,3.53c-0.63.12-.57,0.39-0.13,0.74,1.95,1.59,3.44,3.68,5.23,5.42,0.89,0.86,2.18,1.34,2.66,2.62a0.54,0.54,0,0,0,.62.26c1.51-.19,3,0.06,4.54,0,2.62-.18,5.25-0.19,7.87-0.28,2.14,0.23,4.34,0,6.42.74,1.17,0.39,2.79.25,3.21,1.76,0.46,1.69,1.29,3.34,1,5.19,0,0.32.07,0.81,0.43,0.7,0.93-.28,1.59.39,2.38,0.54a26.6,26.6,0,0,0,4.58.63c2.14,0.05,4.25.62,6.4,0.53s4.06,0.11,6.09.22a35.87,35.87,0,0,0,6.08-.09,86.2,86.2,0,0,1,9.43-.22c1.45,0,2.57-.72,3.88-1a0.42,0.42,0,0,0,.34-0.44C218.37,156.44,218.74,155.34,218.36,154.2Zm-104-106.54c5.72,0.1,11.44.18,17.13,0.81a5.09,5.09,0,0,1,3.3,3.09c0.18,1.1.69,1.44,1.7,1a7.8,7.8,0,0,1,4.62-.64,9.17,9.17,0,0,0,2.8.2C145.8,51.92,145.78,52,146,50s0.56-3,2.68-3.24a3.45,3.45,0,0,0,1.42-.61A9.55,9.55,0,0,1,153.8,45c2.18-.38,4.37,0,6.56,0a0.77,0.77,0,0,0,.94,0h0a15.15,15.15,0,0,0,3.48-.21,59.94,59.94,0,0,1,9,.26,4.82,4.82,0,0,1,4.41,4.07,0.78,0.78,0,0,0,.16.76c0.21,0.12.36-.09,0.5-0.22a0.63,0.63,0,0,0,0-.95,3,3,0,0,1-.64-1.78,37.86,37.86,0,0,0-.19-5.68c-0.26-2.24.11-4.51-.48-6.75s-1.57-4.1-1.88-6.28A2.54,2.54,0,0,0,174,26a1.48,1.48,0,0,1-1.26-1.37c0.08-.67-0.1-0.77-0.71-0.88A3.44,3.44,0,0,1,169,21.11c-0.14-.59-0.39-0.63-0.93-0.51a4.57,4.57,0,0,1-5.16-1.82,0.54,0.54,0,0,0-.77-0.28,12.43,12.43,0,0,1-5.29.63h0c-1.19-1-2.42-1.59-3.85-.45a0.81,0.81,0,0,1-.32.15c-1.92.42-3.86,0.82-5.59-.49a1,1,0,0,0-1.25,0c-2.56,1.26-5.12,2.63-8.1,1.29a0.89,0.89,0,0,0-.89.21,14.46,14.46,0,0,1-3.73,1.8c-1.57.5-3.25,1.26-4.91,0.1a0.55,0.55,0,0,0-.64.06,16.21,16.21,0,0,1-2.08.9,5.24,5.24,0,0,1-3.85,0,0.93,0.93,0,0,0-1.29.2A7.2,7.2,0,0,1,117,25.16a1.48,1.48,0,0,0-.69.79c-0.86,1.3-.52,2.92-1.23,4.29-0.58,1.11-.22,2.44-0.43,3.63a52.61,52.61,0,0,0-1.06,8.24,18.89,18.89,0,0,1-.51,3.87C112.74,47.6,112.72,47.63,114.37,47.66Zm116.17,70.56c0.09-1.51-.12-3.06.09-4.55A24.6,24.6,0,0,0,229.29,102c-0.8-2.26-1.25-4.94-4.52-5.07a2.22,2.22,0,0,1-.85-0.43,6,6,0,0,0-2.37-.74c-3.07-.34-6.15-0.07-9.22-0.23-1.43-.07-2.86,0-4.57,0a3.52,3.52,0,0,0,1.61,1c2.29,1.14,4.39,2.75,7,3.18a32.61,32.61,0,0,0,7.93.85,0.61,0.61,0,0,1,.71.32,0.7,0.7,0,0,1-.28.6c-0.46.79-1.29,0.4-1.92,0.65a14.74,14.74,0,0,1-8,.64,23.47,23.47,0,0,1-8.94-3.13c-2.31-1.46-5.25-1.72-7.58-3.2-5.13-3.25-10.84-5.23-16.44-7.4-3.62-1.4-7.56-1.49-11.39-2-0.92-.13-1.07.07-1.16,1-0.13,1.28-.06,2.82-1.29,3.61-2,1.27-3.78,1.74-6,.08-0.56-.42-0.8-0.41-1,0.22-0.38,1.18-.69,2.4-2,3a0.54,0.54,0,0,0-.2.65c0.25,1.25.44,2.52,0.8,3.74,0.26,0.87.9,0.93,1.53,0.28,1.34-1.37,2.7-2.72,4-4.11a17.71,17.71,0,0,1,5.45-3.41c1.44-.69,3.22-0.7,4.86-1s3.39,0.25,5.1.16a10,10,0,0,1,4,.55,37.1,37.1,0,0,1,11.48,6.49,25.25,25.25,0,0,1,5.3,6A113.33,113.33,0,0,1,208,116.34c1.41,3.12,2.69,6.3,4,9.43,1.6,3.73,3.57,7.31,4.92,11.16,0.09,0.24.11,0.67,0.63,0.39a12.25,12.25,0,0,1,3.55-.83,7.24,7.24,0,0,0,2.75-1c2-1.32,2.81-3.32,3.76-5.37A33,33,0,0,0,230.54,118.22ZM117.43,19c0.87-.06.91,0.49,0.75,1.09a5.06,5.06,0,0,1-.59,1.43,2.37,2.37,0,0,0-.33,1.59c0.06,0.75.26,1,.93,0.45s1.59-1.2,2.41-1.78a0.89,0.89,0,0,0,.54-0.85,2.65,2.65,0,0,1,2-3.19c0.67-.21,1.05-0.11,1.2.66s-0.27,1.49-.18,2.26c0,0.44-.48,1.36.63,1a4.55,4.55,0,0,0,2.68-1.81,6.92,6.92,0,0,1,2.65-2.5,0.75,0.75,0,0,1,1,0,0.72,0.72,0,0,1,.15,1,8.9,8.9,0,0,1-.63,1.15,1.21,1.21,0,0,0,.15,1.35,0.78,0.78,0,0,0,1,.06c2.34-.72,4.58-1.56,6.24-3.55a9.46,9.46,0,0,1,1.49-1.53,1.38,1.38,0,0,1,1.56-.21,1,1,0,0,1,0,1.31,6.54,6.54,0,0,0-.34.89c-0.17.69,0,1.15,0.83,0.89a9.63,9.63,0,0,0,4.8-2.75c0.83-1,1.85-1.78,2.7-2.75a1.46,1.46,0,0,1,1.71-.49,1.3,1.3,0,0,1,.47,1.69c-0.21.81-.38,1.64-0.66,2.42-0.34,1,.21,1.09.89,1a6.21,6.21,0,0,0,2.73-1.17c1-.69,1.95-1.38,3-2a1.34,1.34,0,0,1,2.11,1.61c-0.28,1.33,0,1.63,1.39,1.24,0.5-.14,1-0.4,1.44-0.54,1.37-.4,2.21-1.73,3.69-1.93,1.19-.16,1.74.34,1.52,1.5-0.15.79-.27,1.64,0.6,2.12a2,2,0,0,0,2.49-.41,5.26,5.26,0,0,1,2.9-1.6A1,1,0,0,1,174.51,18a6,6,0,0,1-.71,1.24,2.38,2.38,0,0,0-.27,1.85c0.11,0.62.6,0.88,1,.44,0.58-.61,1.36-0.36,2-0.69a0.8,0.8,0,0,1,1.08.22,1.33,1.33,0,0,1,.18,1.35c-0.6,1.31-.55,1.41.86,1.93a1.41,1.41,0,0,1,1.05,1.4,21.86,21.86,0,0,0,.36,3.31,53.88,53.88,0,0,0,2.22,8.55,1.3,1.3,0,0,1,.11.81,7,7,0,0,0-.05,3.07c0.2,2.54,1.09,5.08,0,7.63a0.3,0.3,0,0,0,.14.4,0.3,0.3,0,0,0,.4-0.16c0.59-.87,1.49-1.44,1.82-2.6a42.28,42.28,0,0,0,1.38-8.22c0.16-1.87-.82-3.55-0.77-5.43a24.13,24.13,0,0,0-1.07-6.95c-0.68-2.48-1.37-5-1.88-7.48a2.13,2.13,0,0,1,.62-2.38,11.26,11.26,0,0,0,2.46-3.47c0.24-.42.53-0.91,0-1.28s-0.72.16-1,.37A13.78,13.78,0,0,0,183,13.11a0.94,0.94,0,0,1-1.44.18,0.87,0.87,0,0,0-1.1-.08,5.47,5.47,0,0,1-4.69.57c-2.81-.89-5.35-2.42-8.19-3.27-2.3-.68-4.55-1.53-7-1.4-1.2.06-2.39,0-3.58-.06-1.6,0-3.15-.48-4.76-0.37C149.1,8.89,146,9,142.81,9.24a56.88,56.88,0,0,0-8.32.71c-4,.86-8,1.72-11.55,3.79a27.77,27.77,0,0,0-5.81,4.39,0.68,0.68,0,0,0-.33.71C116.92,19.14,117.21,19,117.43,19Zm67.69,31.8a1.2,1.2,0,0,0-1.1.8A5.06,5.06,0,0,1,181.17,54a0.78,0.78,0,0,1,.2-0.78,0.91,0.91,0,0,0,.09-0.94,6,6,0,0,1-.89.2c-2,.16-1.88.2-2.32,2.21C178,56,178,57.47,176.63,58.2a20.21,20.21,0,0,1-5.16,2.26,23.8,23.8,0,0,1-7.21.87h0a7.88,7.88,0,0,0-3.63,0c-1.72.21-3.37-.55-5.16-0.15A9.62,9.62,0,0,1,148,59.89c-0.76-1.12-2.2-1.78-2.24-3.38-0.06-.67.11-1.62-0.26-1.92s-1.3-.05-2,0.11a4.32,4.32,0,0,0-1-.08,6.33,6.33,0,0,0-2.68.22h-0.68a5.31,5.31,0,0,0-2.74.21h0a6.58,6.58,0,0,1-.95,0,0.53,0.53,0,0,0-.68.66c0,0.63.41,0.5,0.83,0.43,0.81-.15,1.63-0.24,2.45-0.35a1.16,1.16,0,0,0,.42.18A9.89,9.89,0,0,1,143,57.38c1.07,0.52.45,1.33,0.37,2s-0.6.65-1.27,0.52a10.84,10.84,0,0,1-2.92-1,5.65,5.65,0,0,0-2.51-.67h0c-0.42-.18-0.74.24-1.14,0.2a1.52,1.52,0,0,0-1.82,1c-0.19,1.11-1.11,2.3.08,3.43a15.08,15.08,0,0,1,1.5,1.84,1,1,0,0,1,0,1.33c-0.33.47-.68,0.31-1.13,0.14A5.41,5.41,0,0,1,131,63c-0.14-.33-0.19-0.37-0.63-0.33-2.54.19-5,.72-7.56,1-2.23.22-4.5-.25-6.78,0.2-1,.19-1,0.54-0.9,1.21a8.16,8.16,0,0,1,.42,1.57c-0.1,1.94.63,3.77,0.57,5.8a2.18,2.18,0,0,0,1-1,2.41,2.41,0,0,1,1.22-1.26c0.43-.2.84-0.61,1.28-0.13a1,1,0,0,1,0,1.4,0.62,0.62,0,0,0-.1.91c1.32-1.1,3-1.7,3.74-3.53a3.91,3.91,0,0,1,1.73-1.4c0.49-.29.86,0,0.92,0.56a2.75,2.75,0,0,1-.15,1.29c-0.26.71-.44,1.44-0.69,2.15a0.74,0.74,0,0,0,.1.88c0.39,0.36.57-.11,0.78-0.27a10,10,0,0,0,1.49-1.52c0.95-1.08,1.51-2.57,3.06-3.07a1,1,0,0,1,1.41.89,2.57,2.57,0,0,1-.3,1.5,5.34,5.34,0,0,0-.85,2,0.56,0.56,0,0,0,.71-0.19q1.83-1.73,3.63-3.49a0.93,0.93,0,0,1,1.15-.35,1.08,1.08,0,0,1,.71,1.12,5.42,5.42,0,0,1-.28,1.39,1,1,0,0,0,.07,1.21c0.42,0.28.69-.26,1-0.39a2.23,2.23,0,0,0,.47-0.35,14.72,14.72,0,0,0,2.08-2.41,0.9,0.9,0,0,1,1.12-.45,1.09,1.09,0,0,1,.66,1.05c0,0.45,0,.91-0.06,1.37a0.56,0.56,0,0,0,.55-0.45,4.16,4.16,0,0,1,1.2-1.89c0.6-.83,1.23-0.75,1.7.18,0.3,0.6.49,1.25,0.76,1.86,0.11,0.24.25,0.62,0.57,0.47a0.49,0.49,0,0,0,.07-0.74c-0.16-.22-0.43-0.29-0.07-0.63a18.3,18.3,0,0,0,1.62-1.83c0.48-.58,1-0.84,1.61-0.25,0.29,0.27.55,0.31,0.76-.09,1-1.94,2.81-2.27,4.68-2.12,2.24,0.18,4.45.62,5.4,3.13a1.78,1.78,0,0,0,1.71,1.49h0a0.86,0.86,0,0,0,1.06.15c0.12-.54-0.93-0.64-0.55-1,0.81-.77.79-2,1.63-2.69a1.42,1.42,0,0,1,2,.46,21.43,21.43,0,0,0,2.39,2.47,1,1,0,0,1,.1,1.31,0.87,0.87,0,0,1-1.12.45c-0.61-.17-1.21-0.47-1.83-0.6a6,6,0,0,0-1.24.08h0c-0.24,1-.64.7-1.16,0.75-1.94.19-1.94,0.24-2.15,2.13,0,0.08,0,.18,0,0.25a1.52,1.52,0,0,1-2,1.36c-0.42-.06-0.88.07-1.31,0-2-.14-3.93.62-5.92,0.62a44.58,44.58,0,0,1-5.45.15c-1.84-.22-3.64.41-5.49,0.28-2.27-.16-4.53.12-6.79,0.09a25.71,25.71,0,0,0-5.89.42,0.61,0.61,0,0,1,.51-0.62,18.28,18.28,0,0,1,6-1.32c2-.24,4-0.74,6-0.85,2.21-.13,4.44,0,6.64-0.36,0.63-.1,1.46.59,1.83-0.16a4.55,4.55,0,0,0,0-2c0-.27.22-0.7-0.3-0.75a0.62,0.62,0,0,0-.63.61,1.66,1.66,0,0,1-1.42,1.56c-1,.11-2.22.45-2.82,0a3.33,3.33,0,0,0-3-.48c-1,.22-2.09-0.33-3,0.3a5.17,5.17,0,0,1-4.94.49,1.51,1.51,0,0,0-1.35.06c-1.67.95-3.36,1.38-5.15,0.33a0.4,0.4,0,0,0-.53.12c-0.87.89-2,.7-3,0.6a0.76,0.76,0,0,0-.87.44c-0.61.81-.48,1.88-1,2.64-1.32,2-1.33,4.11-1.19,6.31,0,0.19-.06.42,0.19,0.51a0.41,0.41,0,0,0,.47-0.28,1.78,1.78,0,0,0,.25-1.8,1.44,1.44,0,0,1,0-1.49,22.66,22.66,0,0,1,3-3.33,1.08,1.08,0,0,1,1.42-.23,1.06,1.06,0,0,1,.26,1.3,18.69,18.69,0,0,0-.82,6.26c0.11,1.4-.28,2.89.59,4.19,0.3,0.44.5,0.62,0.78,0A3.13,3.13,0,0,0,127,86a3.27,3.27,0,0,1,1.1-3,5.32,5.32,0,0,0,1.87-2c0.34-.64.76-1.18,1.46-0.78a1.3,1.3,0,0,1,.52,1.93,3.21,3.21,0,0,0-.55,1.44,15.32,15.32,0,0,0,2.28,9.56c0.63,1,.88.93,1.41-0.09,1-1.85-.79-3.16-1-4.79a1.47,1.47,0,0,1,.09-1.21c0.85-1.34,2.24-2.25,2.88-3.76a0.78,0.78,0,0,1,1.1-.42,1.12,1.12,0,0,1,.59,1.4c-1,3.62.31,6.74,2.2,9.72,0.25,0.39.67,0.52,0.75,0,0.27-1.69,1.15-3.3.59-5.11a2,2,0,0,1,.38-2.26,6.88,6.88,0,0,0,1.17-1.92,1.57,1.57,0,0,1,1.65-1.11c0.7,0.15.84,0.94,0.88,1.66a24.55,24.55,0,0,0,.72,5.67,9.82,9.82,0,0,0,2.37,4.37c0.32,0.32.75,0.68,1,0,0.45-1,1-2,.47-3.26-0.77-1.73-1.8-3.54-.3-5.36A34.85,34.85,0,0,0,153,83.07c0.15-.24.25-0.67,0.67-0.56a1,1,0,0,1,.54.74,10.1,10.1,0,0,1,.51,4.22,6.94,6.94,0,0,0,2.18,4.88c0.82,0.91,1.69.59,1.89-.67,0.16-1,.14-2.07.24-3.1A1.44,1.44,0,0,0,158,86.84c-0.32-.09-0.53-0.21-0.39-0.57a12.77,12.77,0,0,1,2.9-5.12c0.32-.3.64-0.66,0.93-0.11a5.64,5.64,0,0,1,.87,2.3c0,2.87,2,4.55,3.64,6.48,0.44,0.53.85,0.22,1-.39,0-.19,0-0.4,0-0.6,0.37-2.48.25-4.78-1.75-6.71A2.74,2.74,0,0,1,165,79c0.73-1.15,1.41-2.35,2.18-3.48h0c0.49-.17,1-1.3,1.46.07,0.68,2,.87,4.26,2.18,6.08,0.24,0.34.24,0.95,0.85,0.8s0.38-.74.35-1.12c-0.17-2.28-1.1-4.4-1.48-6.64a0.69,0.69,0,0,0-.46-0.52c-0.64-.25-0.6-0.58-0.24-1.09a3.49,3.49,0,0,0,.24-1c0.21-.76.32-1.86,1.11-1.94s1.32,1.09,1.44,1.79c0.39,2.27,2,3.87,2.91,5.84a0.44,0.44,0,0,0,.42.36,0.45,0.45,0,0,0,.4-0.51,13.68,13.68,0,0,0,.08-2.38,24.33,24.33,0,0,0-2.32-6.69,0.88,0.88,0,0,1,.22-1.26c0.53-.34.67,0.27,0.87,0.54,0.74,1,1.22,2.33,2.9,1.55,0.11-.05.32,0.14,0.45,0.11,1.81-.53,4.1,1.46,5.53-1.05a0.15,0.15,0,0,1,.11,0c1.63,0,2-1.35,2.55-2.48,1.11-2.48,2-5,1.62-7.83a17.62,17.62,0,0,0-2.25-6.23A1.25,1.25,0,0,0,185.12,50.82ZM164.67,62.18l0.07-.08s0,0.08,0,.12Zm11.78,92.75a6.53,6.53,0,0,1-1.07-1.29c-0.64-.9-1.23-0.92-1.94,0A8.47,8.47,0,0,1,170,156.1a15.1,15.1,0,0,1-5.69,1.14c-1.53,0-3-.57-4.5-0.49-2.11.11-4.22,0.16-6.32,0.07a86.29,86.29,0,0,0-10.82.49,29.28,29.28,0,0,1-5.26.13c-1.83-.18-3.66.19-5.48-0.19s-3.91-.63-5.86-1c-0.46-.08-0.63-0.09-0.65.45-0.08,2.1-.27,4.17-1.58,6-0.35.48-.15,0.71,0.46,0.63,1.93-.24,3.9-0.29,5.78-0.71,4.05-.89,8.16-0.5,12.23-0.62,2.44-.07,4.88.26,7.32-0.12a32.22,32.22,0,0,1,6.52-.8,44.71,44.71,0,0,0,10.67-.78c2-.38,4-0.19,5.94-0.67,1,0.44,1.76-.36,2.64-0.37,1.3,0,.95-1.27,1.4-1.92A1.55,1.55,0,0,0,176.44,154.93ZM149.85,54.19c0,2.14,1.37,4.1,2.91,4.28a16.57,16.57,0,0,0,3.69.24c2.19-.25,4.36-0.34,6.57-0.37,1.85,0,3.72-.06,5.58-0.18a32.07,32.07,0,0,0,5.87-.87,0.87,0.87,0,0,0,.7-0.72,9.43,9.43,0,0,0,.26-3.18c-0.19-1.44-1-2.66-1.23-4a1.7,1.7,0,0,0-1.83-1.53,32.76,32.76,0,0,0-7.09.18c-4,.8-7.88.12-11.82,0.12H152c-2.07,0-2.07,0-1.94,2.11A5.93,5.93,0,0,1,150,51C150,52,149.84,53.12,149.85,54.19Zm-40.7,3.72a4.89,4.89,0,0,0,4.47,4c1,0,2.06.14,3.09,0.18a9.38,9.38,0,0,0,3.52-.54,5.14,5.14,0,0,1,2.89-.29,5.36,5.36,0,0,0,4.07-.41,2.32,2.32,0,0,1,2.4,0c0.5,0.27,1.16.61,1.56-.16,0.58-1.11,1.74-2.11.62-3.59a4.33,4.33,0,0,1-.34-2.09c-0.25-2-1.51-4.67-4.29-4.66-5.15,0-10.3.36-15.44-.07a6.16,6.16,0,0,0-2.91.51A1,1,0,0,0,108,52C108.44,54,108.75,56,109.15,57.91Zm49,73.23c1.12-.19,2.22.17,3.32,0s1.22-.34.54-1.28a5.94,5.94,0,0,1-.46-1c-1.48-3.15-3.09-6.2-6.4-7.86-0.12-.07-0.24-0.21-0.38-0.07a1.68,1.68,0,0,0-1.53-1c-4.11-.88-8.21-1.81-12.47-1.63-2.07.09-4.8,1.73-5.42,3.61a9.51,9.51,0,0,1-.23,1.66,11.07,11.07,0,0,0-1.48,3.94,17.52,17.52,0,0,1-1,4c-0.84,2.75-2,5.46-1.43,8.47,0.25,1.38.4,1.63,1.88,1.68a3.12,3.12,0,0,0,3-2.54,17.81,17.81,0,0,0,.41-2.09c0.16-1.42.37-2.83,0.65-4.23a2.85,2.85,0,0,0-.36-2.5A0.83,0.83,0,0,1,137,129h0a5,5,0,0,0,1.82-2c0.58-.8,1.26-1.24,2.19-0.47a2,2,0,0,1,0,1.6,5.15,5.15,0,0,0,1.49,4.78,1.35,1.35,0,0,0,1.76,0c0.63-.38-0.12-0.72-0.16-1.1a9.77,9.77,0,0,0-.26-1.16c-0.3-1.23-.4-2.34,1.09-3a1.25,1.25,0,0,0,.8-0.95h0c0.34-.39.66-0.06,1,0a2.73,2.73,0,0,1,1,2.42,5.76,5.76,0,0,0,2.43,5.14,0.51,0.51,0,0,0,.63.16,0.44,0.44,0,0,0,0-.55,7.6,7.6,0,0,1,.3-5.65c0.15-.42.19-1,0.91-0.83a1.13,1.13,0,0,1,1.06,1.09c0,1.19.14,2.39,0.23,3.58,0.14,1.84,1,2.76,2.61,2.82,0.91,0,1.25-.75,1.87-1.13s0.65-.91-0.06-1.3c-0.33-.18-0.88-0.21-0.64-0.78A1.2,1.2,0,0,1,158.13,131.14Zm-2.54-17.86a21.18,21.18,0,0,1,2.86-6.27A6.27,6.27,0,0,0,159,106c-5.35,3.32-10.29,2.87-15-1.2a3.61,3.61,0,0,0-.13,1.78c0.16,2.36,1.11,4.61.95,7,0,0.45-.19,1.44.83,1.43a37.15,37.15,0,0,1,6.22.88c0.72,0.11,1.45,1,2.16.17a12.27,12.27,0,0,0,1.29-2A3.47,3.47,0,0,0,155.6,113.27Zm-29.91,0a36.85,36.85,0,0,1,.7-6.61,0.25,0.25,0,0,0,.21-0.31h0c0.2-.52.36-1,0.61-1.54s0.06-1,.79-1a1.15,1.15,0,0,1,1.12.71c1.34,1.85.73,4,.58,5.93-0.22,2.88-.81,5.73-1.09,8.6-0.3,3.17-.33,6.35-1.11,9.48-0.46,1.84-.16,3.81-0.62,5.69a2.13,2.13,0,0,0-.72,1.7,34,34,0,0,1-1,6,3.28,3.28,0,0,1-1,2,1.19,1.19,0,0,0-.42,1.29c0.28,1.32.6,2.64,0.89,4,0.06,0.29.17,0.68,0.47,0.58,0.92-.31,1.78.31,2.71,0a8.27,8.27,0,0,1,5.82,0,9.21,9.21,0,0,0,4.7.29,39.34,39.34,0,0,1,9.75-.37,2.75,2.75,0,0,0,1.73-.33c-1.12-1.08-2.49-1.72-3.22-3s-2-2.08-2.84-3.21c-1-1.29-2.47-2.22-3.19-3.81a2.19,2.19,0,0,0-1.48-.6c-0.56-.08-0.51.55-0.62,0.87-1.25,3.45-5.26,4.69-8.23,4.54a3.8,3.8,0,0,1-3.63-4.17c0.11-1.85.07-3.74,0.93-5.47h0c0.71-2.47,2.24-4.59,2.85-7.12,0.44-1.81,1.09-3.57,1.65-5.34a24.07,24.07,0,0,0,.73-5.64,41.81,41.81,0,0,1,1.52-7.06c0.16-.67.75-1.59,1.56-1.31,0.52,0.18,1.08.33,1.62,0.51,1.27,0.42,1.54.88,1.47,2.2a30.63,30.63,0,0,0-.27,4.88,4.2,4.2,0,0,1,2.41-1.18c-1.88-6.13-1.83-12,1.05-17.8,0.54,0.19.35,0.9,1,.92-0.13-.49-0.28-0.93-0.36-1.38-0.12-.65-0.23-0.78-1-0.46-1.29.54-2.83,1.1-3.94-.3s-1.73-1.51-3.11-.32-3.31.91-4-.12a1.57,1.57,0,0,0-2.06-.57,27.83,27.83,0,0,0-9.82,5.94,1.86,1.86,0,0,0-.68,1,7.05,7.05,0,0,1-1.44,3.76c-0.55.68-.84,1.56-1.39,2.3-0.8,1.07-1.78,2.26-.84,3.81a3.91,3.91,0,0,1,.27,1.28c0.82,4.41,2.29,8.65,3.33,13,0.44,1.07.34,2.26,0.79,3.34a22.29,22.29,0,0,1,2,6.56,1.16,1.16,0,0,0,.54,1c0.11-1.16-.16-2.24,0-3.36,0.41-3.17,2-6,2.21-9.25a6.44,6.44,0,0,1,.71-2.75C125.8,118.58,125.64,115.89,125.69,113.29Zm30.19-17.18a0.46,0.46,0,0,0-.59-0.42,3.31,3.31,0,0,1-1.91-.59c-0.73-.41-1-0.2-1.44.45a3.41,3.41,0,0,1-5.58.6,21,21,0,0,1-1.61-2c0.67,2.13,1.52,4.2,2.06,6.36,0.37,0.33.06,1,.75,1.23a20.77,20.77,0,0,0,6.08,1.43,6,6,0,0,0,3.44-.69c0.43-.26.93-0.46,0.22-1.12a2.23,2.23,0,0,1-1-1.77,0.5,0.5,0,0,0-.22-0.31V99.13h0.07C156.36,98.13,155.82,97.15,155.88,96.11Zm-10.81,56V152c-1,0-1.65,0-2.36,0a1.73,1.73,0,0,0-1.66,2.32,0.51,0.51,0,0,0,.58.38,25.23,25.23,0,0,0,5.92.08c0.31,0,.73.08,0.71-0.37,0-.75.45-1.47,0.11-2.21,0-.08-0.07-0.09-0.22-0.09h-3.08ZM156.18,67a4.28,4.28,0,0,0-3.45.32,3.14,3.14,0,0,0-.92,3.23,2.72,2.72,0,0,1,.14,1.63,0.62,0.62,0,0,0,.75.88,3.94,3.94,0,0,1,1.07,0c0.58,0.11.76-.17,0.69-0.65-0.16-1.1.17-2.21-.26-3.32A1.3,1.3,0,0,1,155,67.5c0.81-.39.92,0.3,1.18,0.76a9.85,9.85,0,0,1,0,3.92c-0.12.55,0.11,0.75,0.64,0.65h0a9,9,0,0,1,1.06,0c1,0.14,1.14-.28,1.11-1.18,0-1.65-1.29-2.54-2.11-3.71h0A3.59,3.59,0,0,0,156.18,67ZM139.91,152.2a0.57,0.57,0,0,0-.44-0.06,44.81,44.81,0,0,1-5.68.4c-0.19,0-.49-0.07-0.51.15-0.1.78,0.39,1.48,0.35,2.3,0,0.34.7,0.1,1,.21,1.63-.21,3.18-0.33,4.69-0.62,0.84-.16.23-1.12,0.61-1.61A0.55,0.55,0,0,0,139.91,152.2Zm-9,.25c-1.64-.16-3.28-0.33-4.92-0.55-0.84-.11-1,0.19-0.66.89a2.3,2.3,0,0,1-.14,2.55c2-.3,3.8-1,5.8-0.72,0.65,0.08.35-.9,0.42-1.41A0.56,0.56,0,0,0,130.94,152.46Zm20,1.73a15.63,15.63,0,0,1,5.26,0c0.93,0.14,1.36,0,1.25-1.12-0.06-.59,0-0.76-0.56-0.75-1,0-1.85,0-2.85,0v-0.06c-1,0-2,0-3,0-1.26-.07-0.61.9-0.78,1.36S150.42,154.29,151,154.18Zm-3.51-18.67c-1.41-.73-2.79-1.54-4.45-0.61a5.57,5.57,0,0,1-1.17.17c-0.45.12-1.18-.51-1.3,0.18s0.77,0.68,1.25.85a1.79,1.79,0,0,0,1.62,0,0.78,0.78,0,0,1,.68-0.07c1.2,1.07,2.74.48,3.91,0.88a4,4,0,0,0,.53,0c0.38-.07.94,0,1-0.45s-0.53-.29-0.82-0.41S147.86,135.72,147.47,135.52Zm12.84-33.27c-0.28-.36-0.75,0-1,0.3a9,9,0,0,1-7.1,2.45,14.6,14.6,0,0,1-4.93-1.33,0.86,0.86,0,0,0,.64.86,12.06,12.06,0,0,0,4.77,1.29,12.44,12.44,0,0,0,7.09-2.59C160.08,103,160.68,102.71,160.31,102.24ZM160.2,154a6.48,6.48,0,0,1,3.28-.23c0.61,0.16.85-.06,0.9-0.56s-0.35-.59-0.77-0.57a18.13,18.13,0,0,1-3.55-.23c-0.31,0-.81-0.36-0.95.09s0.28,0.89.24,1.42C159.33,154.11,159.91,154,160.2,154ZM181.06,11.73c0.44-1.47.13-2.91-.13-4.7a10.56,10.56,0,0,0-.9,1.83c-0.24,1-.56,2,0.19,3C180.62,12.4,180.87,12.37,181.06,11.73ZM170.91,153.55a0.55,0.55,0,0,0,.6-0.48c0-.47-0.34-0.31-0.59-0.35-0.83-.15-1.66.27-2.29,0l-1.52-.13a0.55,0.55,0,0,0-.61.59c0,0.45.28,0.53,0.62,0.52Zm-5-33.34c-0.37,1.79,0,3.93.73,4.61A9.32,9.32,0,0,0,165.93,120.21ZM144.66,102.1c-0.21-.85-0.37-1.53-0.53-2.21a0.42,0.42,0,0,0-.35-0.42,0.39,0.39,0,0,0-.31.44A1.82,1.82,0,0,0,144.66,102.1ZM122.25,71.74c-0.25-.49-0.4,0-0.59.1a2.18,2.18,0,0,0-1.11,1.08,3.37,3.37,0,0,1,1.41-.57C122.3,72.38,122.39,72,122.25,71.74ZM118.83,74a0.33,0.33,0,0,0,.15.27,1.5,1.5,0,0,0,1.14-.89,1.22,1.22,0,0,0,0-.31A1.5,1.5,0,0,0,118.83,74ZM167,128a0.46,0.46,0,0,0-.24.34,0.88,0.88,0,0,0,1,.83C167.51,128.54,167.58,128,167,128ZM111.26,25.52a0.6,0.6,0,0,0-.31,0l0.2,0.38C111.27,25.81,111.39,25.68,111.26,25.52Z" transform="translate(-5 -5)"/><path class="cls-1" d="M116.61,152.57c-1.61-3.37-4-6.07-5.24-9.36a51.45,51.45,0,0,1-3-10.78,21.57,21.57,0,0,0-2.26-6.33,21.42,21.42,0,0,1-2.08-7.5c-0.3-3.31-.93-6.58-1.52-9.84-0.65-3.6-1.57-7.13-2.54-10.65-0.59-2.13-1.07-4.3-1.69-6.43-0.54-1.85-1.87-3.32-2.46-5.15a2.1,2.1,0,0,1-.13-1,0.73,0.73,0,0,1,.83.29,18.46,18.46,0,0,1,4.37,10.4,39.64,39.64,0,0,0,2.2,9.25c1.09,3.33,2.23,6.65,3.11,10,1.44,5.57,3.47,11,5,16.5,0.87,3.15,2.12,6.15,2.95,9.29s1.73,6.34,2.77,9.46A2.24,2.24,0,0,1,116.61,152.57Z" transform="translate(-5 -5)"/><path class="cls-1" d="M65.71,79.08c3.69,0.15,7.36-.47,11-0.38s7.4-.14,11,0.74c1,0.25,1.95.71,2.93,1,1.47,0.48,2,2,3.12,2.84a0.48,0.48,0,0,1,0,.66c-0.2.24-.32,0-0.48-0.1A23.69,23.69,0,0,0,79.85,80.6c-1.88.07-3.62-.68-5.49-0.7a58.1,58.1,0,0,1-8.92-.32C65.27,79.28,65.55,79.21,65.71,79.08Z" transform="translate(-5 -5)"/><path class="cls-1" d="M52.6,83.25A79.7,79.7,0,0,1,44,82.92a2.69,2.69,0,0,1-2.07-2.41,0.91,0.91,0,0,1,.66-0.89A21.7,21.7,0,0,1,54,79.35c0.71,0.16,1.6.24,1.85,1.27,0.43,1.75-.24,2.67-2.1,2.7C53.32,83.32,52.92,83.27,52.6,83.25Z" transform="translate(-5 -5)"/><path class="cls-1" d="M19.81,78.65c2.81-2,5.85-1.07,8.81-.94a0.86,0.86,0,0,1,.94.75c0,0.57-.62.3-1,0.34-2.82.33-5.63-.06-8.45,0A0.94,0.94,0,0,1,19.81,78.65Z" transform="translate(-5 -5)"/><path class="cls-1" d="M180,63.64a1,1,0,0,1,0-.4C181.42,61,181.14,58,183.13,56a2.14,2.14,0,0,1,1.71-.65,0.85,0.85,0,0,1,.6,1.47,10.57,10.57,0,0,0-2.26,5,5.86,5.86,0,0,1-1.43,2.51,1,1,0,0,1-1.15.43A1.21,1.21,0,0,1,180,63.64Z" transform="translate(-5 -5)"/><path class="cls-1" d="M165.23,53.88a1.69,1.69,0,0,1-1,1.11c-0.39.26-.54-0.16-0.75-0.37s-0.37-.42-0.57-0.61-0.8-.22-0.75-0.67a4.28,4.28,0,0,1,.47-1.69,0.82,0.82,0,0,1,1.26-.17A5.4,5.4,0,0,1,165.23,53.88Z" transform="translate(-5 -5)"/><path class="cls-1" d="M121.09,56.66c0.38-.45-0.16-1.55,1-1.61,0.71,0,1.71,1.19,1.76,2.13a2,2,0,0,1-1.8,1.42C121.23,58.35,121.19,57.5,121.09,56.66Z" transform="translate(-5 -5)"/><path class="cls-3" d="M153.52,136.92c0.76-.25,1.48.29,2.24,0.07a6.39,6.39,0,0,0,4.17-3.1,19.83,19.83,0,0,1,4.51-2.3,4,4,0,0,1,2,1.1,69.52,69.52,0,0,0,10,6,141.15,141.15,0,0,1,13.23,8.13,7.59,7.59,0,0,0,5.45,1.28,1.87,1.87,0,0,0,1.6-1.53,1.37,1.37,0,0,0-.83-1.6,17.45,17.45,0,0,1-3.06-2.06,5.65,5.65,0,0,0,1-2.8,1.29,1.29,0,0,1,.17-0.81c0.82-.8.32-1.71,0.18-2.53-0.78-4.56-2.67-8.76-4.33-13a54.11,54.11,0,0,0-5.76-10c-0.59-.89-1.13-1.82-1.79-2.66a1.29,1.29,0,0,1-.22-0.42,7.4,7.4,0,0,0-1.48-2.64,55.61,55.61,0,0,1-4-5c-0.7-1.14-1.85-2.29-1.09-3.91a0.74,0.74,0,0,0-.29-0.39,11,11,0,0,1-1.26-4c4.39-.91,8.42.25,12.34,2.13a31,31,0,0,1,5.21,2.91c2.76,2,4.5,4.95,6.18,7.85,1.2,2.07,2.27,4.21,3.29,6.37s1.88,4.29,2.81,6.45c1.51,3.5,2.81,7.09,4.45,10.55s3.56,6.49,5.32,9.73a34.38,34.38,0,0,1,3.56,8.7c0.37,1.61.84,3.22,1.36,4.79,0.38,1.14,0,2.25.18,3.36a0.42,0.42,0,0,1-.34.44c-1.3.26-2.42,1-3.88,1a86.22,86.22,0,0,0-9.43.22,35.86,35.86,0,0,1-6.08.09c-2-.11-4.05-0.3-6.09-0.22s-4.26-.48-6.4-0.53a26.59,26.59,0,0,1-4.58-.63c-0.79-.16-1.45-0.83-2.38-0.54-0.36.11-.48-0.38-0.43-0.7,0.27-1.85-.56-3.5-1-5.19-0.41-1.51-2-1.37-3.2-1.76-2.08-.69-4.28-0.51-6.42-0.74,0.12-.17.06-0.26-0.1-0.37a125,125,0,0,1-13-10,9.31,9.31,0,0,0-1.18-.81C153.67,137.62,153.2,137.46,153.52,136.92Z" transform="translate(-5 -5)"/><path class="cls-3" d="M207.76,95.47c1.71,0,3.15-.06,4.57,0,3.07,0.16,6.15-.11,9.22.23a6,6,0,0,1,2.37.74,2.22,2.22,0,0,0,.85.43C228,97,228.5,99.7,229.29,102a24.6,24.6,0,0,1,1.34,11.72c-0.21,1.49,0,3-.09,4.55a33,33,0,0,1-2.92,11.85c-0.94,2.05-1.78,4.06-3.76,5.37a7.24,7.24,0,0,1-2.75,1,12.25,12.25,0,0,0-3.55.83c-0.53.28-.55-0.15-0.63-0.39-1.35-3.85-3.32-7.42-4.92-11.16-1.35-3.14-2.62-6.32-4-9.43a113.33,113.33,0,0,0-6.62-12.24,25.25,25.25,0,0,0-5.3-6,37.1,37.1,0,0,0-11.48-6.49,10,10,0,0,0-4-.55c-1.71.09-3.39-.45-5.1-0.16s-3.42.29-4.86,1a17.71,17.71,0,0,0-5.45,3.41c-1.32,1.39-2.68,2.74-4,4.11-0.63.65-1.28,0.59-1.53-.28-0.36-1.22-.55-2.49-0.8-3.74a0.54,0.54,0,0,1,.2-0.65c1.32-.55,1.63-1.77,2-3,0.2-.63.44-0.65,1-0.22,2.19,1.66,4,1.19,6-.08,1.23-.79,1.16-2.33,1.29-3.61,0.09-.89.24-1.09,1.16-1,3.82,0.53,7.77.61,11.39,2,5.6,2.17,11.31,4.14,16.44,7.4,2.33,1.48,5.27,1.74,7.58,3.2a23.47,23.47,0,0,0,8.94,3.13,14.74,14.74,0,0,0,8-.64c0.63-.25,1.46.14,1.92-0.65a0.7,0.7,0,0,0,.28-0.6,0.61,0.61,0,0,0-.71-0.32,32.61,32.61,0,0,1-7.93-.85c-2.59-.43-4.69-2-7-3.18A3.52,3.52,0,0,1,207.76,95.47Z" transform="translate(-5 -5)"/><path class="cls-3" d="M124.2,20.67c-0.09-.77.33-1.48,0.18-2.26s-0.53-.86-1.2-0.66a2.65,2.65,0,0,0-2,3.19,0.89,0.89,0,0,1-.54.85c-0.82.57-1.62,1.16-2.41,1.78s-0.88.29-.93-0.45a2.37,2.37,0,0,1,.33-1.59,5.06,5.06,0,0,0,.59-1.43c0.17-.6.12-1.15-0.75-1.09-0.22,0-.52.13-0.63-0.17a0.68,0.68,0,0,1,.33-0.71,27.77,27.77,0,0,1,5.81-4.39c3.59-2.08,7.59-2.93,11.55-3.79a56.89,56.89,0,0,1,8.32-.71C146,9,149.1,8.89,152.25,8.68c1.61-.11,3.17.32,4.76,0.37,1.2,0,2.38.12,3.58,0.06,2.43-.13,4.69.72,7,1.4,2.84,0.84,5.38,2.38,8.19,3.27a5.47,5.47,0,0,0,4.69-.57,0.87,0.87,0,0,1,1.1.08,0.94,0.94,0,0,0,1.44-.18,13.77,13.77,0,0,1,1.51-1.17c0.31-.22.63-0.68,1-0.37s0.2,0.86,0,1.28A11.26,11.26,0,0,1,183,16.32a2.13,2.13,0,0,0-.62,2.38c0.51,2.52,1.2,5,1.88,7.48a24.13,24.13,0,0,1,1.07,6.95c0,1.87.93,3.55,0.77,5.43a42.28,42.28,0,0,1-1.38,8.22c-0.33,1.16-1.23,1.73-1.82,2.6a0.3,0.3,0,0,1-.4.16,0.3,0.3,0,0,1-.14-0.4c1.05-2.55.16-5.09,0-7.63a7,7,0,0,1,.05-3.07,1.3,1.3,0,0,0-.11-0.81,53.87,53.87,0,0,1-2.22-8.55,21.86,21.86,0,0,1-.36-3.31,1.41,1.41,0,0,0-1.05-1.4c-1.41-.52-1.46-0.62-0.86-1.93a1.33,1.33,0,0,0-.18-1.35,0.8,0.8,0,0,0-1.08-.22c-0.63.33-1.4,0.08-2,.69-0.42.44-.92,0.17-1-0.44a2.38,2.38,0,0,1,.27-1.85,6,6,0,0,0,.71-1.24,1,1,0,0,0-1.21-1.43,5.26,5.26,0,0,0-2.9,1.6,2,2,0,0,1-2.49.41c-0.87-.48-0.75-1.33-0.6-2.12,0.21-1.16-.33-1.66-1.52-1.5-1.48.19-2.32,1.53-3.69,1.93-0.47.14-.94,0.4-1.44,0.54-1.35.39-1.66,0.09-1.39-1.24a1.34,1.34,0,0,0-2.11-1.61c-1,.64-2,1.34-3,2a6.21,6.21,0,0,1-2.73,1.17c-0.68.09-1.23,0-.89-1,0.28-.79.45-1.61,0.66-2.42a1.3,1.3,0,0,0-.47-1.69,1.46,1.46,0,0,0-1.71.49c-0.84,1-1.87,1.75-2.7,2.75a9.63,9.63,0,0,1-4.8,2.75c-0.84.26-1-.2-0.83-0.89a6.54,6.54,0,0,1,.34-0.89,1,1,0,0,0,0-1.31,1.38,1.38,0,0,0-1.56.21A9.46,9.46,0,0,0,138,17.32c-1.65,2-3.9,2.82-6.24,3.55a0.78,0.78,0,0,1-1-.06,1.21,1.21,0,0,1-.15-1.35,8.9,8.9,0,0,0,.63-1.15,0.72,0.72,0,0,0-.15-1,0.75,0.75,0,0,0-1,0,6.92,6.92,0,0,0-2.65,2.5,4.55,4.55,0,0,1-2.68,1.81C123.71,22,124.24,21.11,124.2,20.67Z" transform="translate(-5 -5)"/><path class="cls-3" d="M161.33,45.06c0.64-.39.06-0.94,0-1.28a8.71,8.71,0,0,1,.18-4.45,1,1,0,0,0,0-.69,31,31,0,0,1-1-5.25c-0.53-4.54-.84-9.07.24-13.58a3.37,3.37,0,0,0,0-.48l0,0c-1.29-.21-2.62.38-3.89-0.2,1.78,0,3.59.14,5.29-.63a0.54,0.54,0,0,1,.77.29A4.57,4.57,0,0,0,168,20.6c0.54-.11.79-0.07,0.93,0.51A3.44,3.44,0,0,0,172,23.75c0.61,0.1.78,0.21,0.71,0.88A1.48,1.48,0,0,0,174,26a2.54,2.54,0,0,1,1.76,2.29c0.32,2.18,1.33,4.16,1.88,6.28s0.22,4.51.48,6.75a37.86,37.86,0,0,1,.19,5.68,3,3,0,0,0,.64,1.78,0.63,0.63,0,0,1,0,.95c-0.14.13-.29,0.34-0.5,0.22a0.78,0.78,0,0,1-.16-0.76,4.82,4.82,0,0,0-4.41-4.07,59.94,59.94,0,0,0-9-.26A15.15,15.15,0,0,1,161.33,45.06Z" transform="translate(-5 -5)"/><path class="cls-3" d="M164.79,65.94a14.75,14.75,0,0,1-.79-3.15c0-.78,0-0.85.77-0.57a1.6,1.6,0,0,0-.52-0.89,23.8,23.8,0,0,0,7.21-.87,20.21,20.21,0,0,0,5.16-2.26c1.32-.73,1.36-2.21,1.62-3.46,0.43-2,.36-2.05,2.32-2.21a6,6,0,0,0,.89-0.2,0.91,0.91,0,0,1-.09.94,0.78,0.78,0,0,0-.2.78A5.06,5.06,0,0,0,184,51.61a1.2,1.2,0,0,1,1.1-.8,1.25,1.25,0,0,1,.95,1A17.62,17.62,0,0,1,188.32,58c0.39,2.82-.51,5.35-1.62,7.83-0.51,1.13-.93,2.46-2.55,2.48a0.15,0.15,0,0,0-.11,0c-1.43,2.51-3.72.52-5.53,1.05-0.13,0-.34-0.16-0.45-0.11-1.67.78-2.16-.58-2.9-1.55-0.2-.27-0.34-0.88-0.87-0.54a0.88,0.88,0,0,0-.22,1.26,24.33,24.33,0,0,1,2.32,6.69,13.68,13.68,0,0,1-.08,2.38,0.45,0.45,0,0,1-.4.51,0.44,0.44,0,0,1-.42-0.36c-0.91-2-2.53-3.57-2.91-5.84-0.12-.71-0.51-1.89-1.44-1.79S170.23,71.25,170,72a3.49,3.49,0,0,1-.24,1c-0.36.51-.4,0.84,0.24,1.09a0.69,0.69,0,0,1,.46.52c0.38,2.24,1.32,4.36,1.48,6.64,0,0.38.26,1-.35,1.12s-0.61-.46-0.85-0.8c-1.31-1.82-1.5-4-2.18-6.08-0.46-1.37-1-.24-1.46-0.07a6.83,6.83,0,0,0-.58-2.11c-0.14-.72-0.53-1.4-0.13-2.15-0.53-.21-0.58-1.09-1.35-1,0.34-.62.84-0.23,1.24-0.15,0.62,0.13,1.22.36,1.83,0.54a0.87,0.87,0,0,0,1.12-.45,1,1,0,0,0-.1-1.31,21.44,21.44,0,0,1-2.39-2.47A1.42,1.42,0,0,0,164.79,65.94Z" transform="translate(-5 -5)"/><path class="cls-3" d="M126.88,134.22a1,1,0,0,0,.68.26c-0.86,1.73-.82,3.62-0.93,5.47a3.81,3.81,0,0,0,3.63,4.17c3,0.15,7-1.08,8.23-4.54,0.12-.32.07-1,0.62-0.87a2.19,2.19,0,0,1,1.48.6c0.72,1.59,2.16,2.52,3.19,3.81,0.89,1.12,2.11,1.93,2.84,3.21s2.1,1.9,3.22,3a2.75,2.75,0,0,1-1.73.33,39.34,39.34,0,0,0-9.75.37,9.21,9.21,0,0,1-4.7-.29,8.27,8.27,0,0,0-5.82,0c-0.92.29-1.79-.33-2.71,0-0.3.1-.41-0.29-0.47-0.58-0.29-1.32-.6-2.64-0.89-4a1.19,1.19,0,0,1,.42-1.29,3.28,3.28,0,0,0,1-2,34,34,0,0,0,1-6A2.13,2.13,0,0,1,126.88,134.22Z" transform="translate(-5 -5)"/><path class="cls-3" d="M146.76,126.83a1.48,1.48,0,0,0,1.73-1.18,9.14,9.14,0,0,1,3.39-4.46,1.36,1.36,0,0,1,1.34-.24c0.07,0,1.12,0,.19.52-0.2.12-.07,0.41,0.28,0.39a1.52,1.52,0,0,0,1.07-.83l0,0c0.12,0.21.26,0.23,0.42,0,3.31,1.66,4.92,4.71,6.4,7.86a6,6,0,0,0,.46,1c0.68,0.94.61,1.14-.54,1.28s-2.2-.22-3.32,0a1.2,1.2,0,0,0-1,.66c-0.24.57,0.31,0.6,0.64,0.78,0.7,0.39.78,0.86,0.06,1.3s-1,1.16-1.87,1.13c-1.56-.06-2.46-1-2.61-2.82-0.09-1.19-.19-2.38-0.23-3.58a1.13,1.13,0,0,0-1.06-1.09c-0.72-.19-0.76.41-0.91,0.83a7.6,7.6,0,0,0-.3,5.65,0.44,0.44,0,0,1,0,.55,0.51,0.51,0,0,1-.63-0.16,5.76,5.76,0,0,1-2.43-5.14A2.73,2.73,0,0,0,146.76,126.83Z" transform="translate(-5 -5)"/><path class="cls-3" d="M118.15,125.43a13,13,0,0,0,1.24-3.31c1.55-4,2.58-8.21,3.89-12.3a4.66,4.66,0,0,1,1.86-2.83,1.83,1.83,0,0,1,1.24-.3,36.86,36.86,0,0,0-.7,6.61c-0.05,2.6.1,5.29-1.32,7.72a6.44,6.44,0,0,0-.71,2.75c-0.22,3.21-1.8,6.08-2.21,9.25-0.15,1.12.12,2.2,0,3.36a1.17,1.17,0,0,1-.54-1,22.3,22.3,0,0,0-2-6.56C118.5,127.69,118.6,126.5,118.15,125.43Z" transform="translate(-5 -5)"/><path class="cls-3" d="M148,59.89c-0.67.64-.35,1.66-0.94,2.37s-0.8,1.38-1.78,1.26a0.31,0.31,0,0,0-.22.07c-0.84.75-1.65,1-2.42-.09-1.11.89-1.82-.38-2.71-0.58a5,5,0,0,1-3.25-2.8c-0.36-.68.16-1.26,0-1.88a5.65,5.65,0,0,1,2.51.67,10.84,10.84,0,0,0,2.92,1c0.67,0.14,1.18.13,1.27-.52s0.7-1.45-.37-2A9.89,9.89,0,0,0,138.49,56a1.16,1.16,0,0,1-.42-0.18,3.77,3.77,0,0,1,4.13-.36,8.21,8.21,0,0,0,3.59,1.05C145.83,58.11,147.28,58.77,148,59.89Z" transform="translate(-5 -5)"/><path class="cls-3" d="M146.82,100.47c-0.54-2.16-1.39-4.23-2.06-6.36a21.06,21.06,0,0,0,1.61,2,3.41,3.41,0,0,0,5.58-.6c0.42-.66.71-0.86,1.44-0.45a3.32,3.32,0,0,0,1.91.61,0.47,0.47,0,0,1,.59.45c-0.06,1,.5,2,0.28,3.07a2,2,0,0,1-2.14,1.53,14.81,14.81,0,0,1-2.62-.09,1.24,1.24,0,0,0-.82,0C149.26,101.51,148.05,100.78,146.82,100.47Z" transform="translate(-5 -5)"/><path class="cls-3" d="M133.06,141.73a87.37,87.37,0,0,1,1.32-10,5.33,5.33,0,0,1,2-2.84,0.62,0.62,0,0,1,.66.13,0.83,0.83,0,0,0-.24,1.37,2.85,2.85,0,0,1,.36,2.5c-0.28,1.4-.49,2.81-0.65,4.23a17.82,17.82,0,0,1-.41,2.09A3.12,3.12,0,0,1,133.06,141.73Z" transform="translate(-5 -5)"/><path class="cls-3" d="M141,126.56l4.76,0.23a1.25,1.25,0,0,1-.8.95c-1.49.62-1.39,1.73-1.09,3a9.76,9.76,0,0,1,.26,1.16c0,0.37.79,0.71,0.16,1.1a1.35,1.35,0,0,1-1.76,0,5.15,5.15,0,0,1-1.49-4.78A2,2,0,0,0,141,126.56Z" transform="translate(-5 -5)"/><path class="cls-3" d="M156.14,68.26a0.65,0.65,0,0,0,.75-0.29C157.71,69.13,159,70,159,71.68c0,0.9-.16,1.32-1.11,1.18a9,9,0,0,0-1.06,0,0.89,0.89,0,0,0-.64-0.65A9.85,9.85,0,0,0,156.14,68.26Z" transform="translate(-5 -5)"/><path class="cls-3" d="M180.93,7c0.26,1.78.57,3.22,0.13,4.7-0.19.64-.44,0.66-0.84,0.15-0.75-1-.44-2-0.19-3A10.56,10.56,0,0,1,180.93,7Z" transform="translate(-5 -5)"/><path class="cls-3" d="M144.66,102.1a1.82,1.82,0,0,1-1.2-2.18,0.39,0.39,0,0,1,.31-0.44,0.42,0.42,0,0,1,.35.42C144.28,100.57,144.45,101.25,144.66,102.1Z" transform="translate(-5 -5)"/><path class="cls-3" d="M160.94,68c1-.05,1.78.26,1.71,1.49A1.78,1.78,0,0,1,160.94,68Z" transform="translate(-5 -5)"/><path class="cls-3" d="M120.54,72.92a2.18,2.18,0,0,1,1.11-1.08c0.19-.08.34-0.58,0.59-0.1,0.14,0.28.06,0.64-.3,0.6A3.37,3.37,0,0,0,120.54,72.92Z" transform="translate(-5 -5)"/><path class="cls-3" d="M120.17,73.08a1.22,1.22,0,0,1,0,.31,1.5,1.5,0,0,1-1.14.89,0.33,0.33,0,0,1-.15-0.27A1.5,1.5,0,0,1,120.17,73.08Z" transform="translate(-5 -5)"/><path class="cls-3" d="M167.73,129.12a0.88,0.88,0,0,1-1-.83A0.46,0.46,0,0,1,167,128C167.58,128,167.51,128.54,167.73,129.12Z" transform="translate(-5 -5)"/><path class="cls-3" d="M142.51,54.63a5.79,5.79,0,0,1-2.69.23A6.28,6.28,0,0,1,142.51,54.63Z" transform="translate(-5 -5)"/><path class="cls-3" d="M139.15,54.86a7.56,7.56,0,0,1-2.74.21A5.31,5.31,0,0,1,139.15,54.86Z" transform="translate(-5 -5)"/><path class="cls-3" d="M160.36,45.05a1.52,1.52,0,0,1,.94,0A0.77,0.77,0,0,1,160.36,45.05Z" transform="translate(-5 -5)"/><path class="cls-3" d="M153.07,136.71h-0.54C152.71,136.4,152.89,136.37,153.07,136.71Z" transform="translate(-5 -5)"/><path class="cls-3" d="M126.39,106.69a0.23,0.23,0,0,1,.21-0.31A0.25,0.25,0,0,1,126.39,106.69Z" transform="translate(-5 -5)"/><path class="cls-3" d="M156.34,99.55a0.22,0.22,0,0,1-.18-0.31C156.36,99.26,156.36,99.4,156.34,99.55Z" transform="translate(-5 -5)"/><path class="cls-3" d="M153.52,136.92a0.24,0.24,0,0,1-.34-0.17A0.22,0.22,0,0,1,153.52,136.92Z" transform="translate(-5 -5)"/><path class="cls-3" d="M65.71,79.08c-0.13.15-.37,0.24-0.27,0.51a23.78,23.78,0,0,1-5.25-.88l0-.34Z" transform="translate(-5 -5)"/><path class="cls-3" d="M249.32,137.34c0.17-.9-0.65-1-1.23-1.17s-0.71.44-.84,0.86a26.66,26.66,0,0,0-.73,7.45,0.84,0.84,0,0,0,.25.77c0.23,0.17.49,0.32,0.24,0.65a0.57,0.57,0,0,1-.36.24c-0.39,0-.34-0.36-0.39-0.63-0.22-1.13-.45-2.26-0.65-3.39a1.39,1.39,0,0,0-1.36-1c-0.55-.15-0.72.38-0.89,0.78-0.29.69-.54,1.39-0.83,2.13-0.56-.85-0.22-2.46-1.85-2.36-1,.06-0.68,1-1,1.64-0.33-.53-0.37-1.37-1.16-1.22s-0.55.94-.61,1.5a10.62,10.62,0,0,1-.22,2.82,8,8,0,0,1-.79-2.7,0.76,0.76,0,0,0-.74-0.65,0.49,0.49,0,0,0-.7.42c-0.12.78-.48,0.47-0.9,0.21-0.9-.54-1.84-1.08-2.84-0.17-0.27.25-.45,0.14-0.7-0.08a5.3,5.3,0,0,0-7.59.47c-0.71.84-.53,1.53,0.53,1.67a0.68,0.68,0,0,1,.72.83,16.91,16.91,0,0,0,.88,4.77c0.48,1.93,2.11,2.43,3.74,1.24a5.89,5.89,0,0,0,2-2.62c0.26-.64.51-0.87,1.22-0.54a1.91,1.91,0,0,0,2.56-.88,2.75,2.75,0,0,1,.78-1.23,2.31,2.31,0,0,0,2.12,2c0.94,0.06,1-.93,1.53-1.5a1.12,1.12,0,0,0,.93,1.3c0.82,0.1.71-.54,0.86-1s0.51-.28.78-0.17c1.09,0.43,1.55-.14,1.78-1.09,0.08-.35.18-0.69,0.34-1.32a10,10,0,0,0,.46,1.26c0.27,0.5,1,.91,1.25.62,0.74-.85,1.43-0.52,2.21-0.24a0.67,0.67,0,0,0,.82-0.35c0.33-.53-0.23-0.46-0.45-0.59a0.47,0.47,0,0,1-.18-0.69C249.35,142.78,248.82,140,249.32,137.34Zm-22.74,8.27a2.55,2.55,0,0,0-1.43-.87,4.74,4.74,0,0,1,3.68-1.26,0.53,0.53,0,0,1,.59.31,0.62,0.62,0,0,1-.24.74c-0.62.43-1.25,0.84-1.89,1.24A0.45,0.45,0,0,1,226.58,145.61Zm2.55,3.57a2.56,2.56,0,0,1-1.2,1.51,13.28,13.28,0,0,0-.44-1.73c-0.27-.66-0.06-1,0.59-1.08a1.37,1.37,0,0,1,1.25.1A1.07,1.07,0,0,1,229.13,149.18Zm1.69-2.45c-1.32-.5-0.57-0.91,0-1.47v1.47Zm2.34,0.93c-0.64,0-.2-0.92-0.31-1.25s0-.57,0-0.76c0-.38-0.09-1,0.32-1,0.57,0,.58.63,0.62,1.1a2.4,2.4,0,0,1,0,.47C233.74,146.77,233.77,147.69,233.16,147.66Z" transform="translate(-5 -5)"/><path class="cls-3" d="M241.36,154c0.28-.71.63-1.48,0.14-2.06s-1.27-.29-1.94-0.2c-0.43.06-.86,0.16-1.3,0.21s-0.59,0-.56-0.43,0.3-.32.54-0.33a5,5,0,0,0,2.23-.35c0.38-.2,1-0.33.83-0.81a1,1,0,0,0-1.34-.36,5.46,5.46,0,0,1-2,.38,2.39,2.39,0,0,0-1.62.17c-0.51.39-.26,1-0.51,1.65-0.34-.69-0.57-1.38-1.39-1.15-0.54.15-.35,0.64-0.36,1a1.69,1.69,0,0,0,1.12,1.79c0.63,0.25.67-.4,0.91-1,0.38,1.34,1.34,1.44,2.4,1.61-1.26.22-2.35,0.4-3.45,0.61-0.77.14-1.24,0.08-1.37-.91-0.11-.83-0.1-1.67-0.25-2.49a1.08,1.08,0,0,0-1.26-.82c-0.52,0-.51.51-0.52,0.91a22.71,22.71,0,0,0,.87,7,1.06,1.06,0,0,0,1.82.54,1.39,1.39,0,0,1,1.06-.38,53.7,53.7,0,0,0,7.1-.91,0.94,0.94,0,0,0,.87-0.69A2.39,2.39,0,0,0,241.36,154Zm-1.54,2.65a42.36,42.36,0,0,1-4.36.69c-0.41.05-1,.34-1.18-0.38s0.42-.87.95-0.93c1.5-.2,3-0.37,4.53-0.55,0.55,0.2,1.53-.4,1.63.42S240.37,156.52,239.82,156.64Z" transform="translate(-5 -5)"/><path class="cls-4" d="M230.82,146.73v-1.47C230.25,145.82,229.49,146.23,230.82,146.73Z" transform="translate(-5 -5)"/></svg>