<svg id="Layer_1" xmlns="http://www.w3.org/2000/svg" viewBox="0 0 261.1 171.7"><style>.st0{fill:#3bc6f1}</style><path class="st0" d="M210.7 164c-3.4 0-6.9.1-10.3 0-4.7-.2-9.3-.5-13.9-.9-2.2-.2-4.4-.8-6.7-1.2-.2 0-.5-.1-.7 0-2.8 1.8-6.2 1.7-9.3 2.4-2.9.6-6 .9-9 1.1-3 .2-6 .1-9 .1-3.5.1-6.9.2-10.4.2-4.6 0-9.2-.2-13.7-.1-2.3.1-4.5.8-6.8 1-2.3.2-4.6.2-6.9.2-1.7 0-3.4-.2-5.1-.5-3.8-.6-7.5.2-11.2 0-3.1-.1-6.1-.3-9.2-.3-4.5.1-9 .3-13.5.4-1.1 0-2.3-.1-3.3-.3-4.4-1-8.7 0-13.1 0-3.7.1-7.5-.2-11.2-.6-5.4-.6-10.7-1.5-16.1-2.4-1.5-.2-2.9-.7-4.4-1-1.2-.3-2-.9-2.6-2-.5-.8-1.8-1.3-1-2.7.2-.3-.4-1.1-.6-1.7-1.2-4.6-2.6-9.2-3.5-13.9-.5-2.5-1.7-4.7-2.5-7-.8-2.2-1.2-4.6-1.8-6.9l-3-10.5c-1.3-4.6-2.7-9.1-3.1-13.9-.4-4.3-1-8.6-1.3-12.9-.1-1.4.7-2.9 1.2-4.3.4-1.2 1.1-2.3 1.6-3.4 1.8-3.7 4.4-6.7 7.9-9 2.3-1.5 4.9-2.3 7.4-3.2.4-.1.8-.2 1.2-.2 2.3-.1 4.6-.1 6.9-.2 3.2-.1 6.4-.3 9.7-.4 1.8 0 3.7.1 5.5.3 1.8.2 3.6.6 5.4.8 4.2.5 8.4.9 12.6 1.4 1.1.1 2.2.6 3.4.7 5.2.2 10.4.4 15.6.5 1.6 0 3.3-.4 4.9-.2 2.6.4 5.2 1.2 7.7 1.8 1.5.4 3 1 4.5 1.4 1.2.3 2 1.2 2.4 2.2.5 1.3 1.6 2 2.7 2.6 1.5.8 2 2.2 2.6 3.5 1.5 3.1 2.3 6.5 2.9 9.9.3 1.8.5 3.6.7 5.4 0 .3.2.5.3.7.2-.2.4-.4.5-.6 1.8-2 3.6-3.8 6.4-4.5 1.8-.5 3.6-1.3 5.3-2 1.1-.5 2.2-1.1 3.3-1.7.2-.1.4-.5.3-.6-.2-.3-.5-.6-.8-.6-.7 0-1.4.2-2.1.4-.8.3-1.5.2-1.8-.6-.6-1.5-1.2-2.9-1.5-4.5-.2-1-.6-1.2-1.5-1-1.6.4-2.2 0-2.5-1.6-.2-1.2-.2-2.4-.3-3.6 0-.3-.1-.6-.3-.7-.2-.1-.6 0-.8.1-1.6.9-2.5.5-2.6-1.3-.1-1 .3-2 .6-3 .2-.7.6-1.3-.1-1.9-2.4-2.1-3.2-4.8-2.8-7.8.1-.8 0-1.1-.9-1.3-2.5-.5-4.9-1.4-6.3-3.9-.7-1.3-1-2.5-.6-4 .4-1.2.5-2.5.5-3.8 0-1.1.5-1.7 1.3-2.2 1-.6 1.9-1.3 2.8-2 .2-.1.3-.5.3-.8.1-2 .1-4 .1-6 0-1 .1-2.1.2-3.1l.3-7.2c0-.4.1-.9.3-1.3.4-1 .9-2 1.3-3.1.1-.2.9-1.3-.5-.9 0 0-.3-.4-.3-.6.2-1.2.5-2.4.8-3.5.1-.4.5-.7.7-1.1 2-3.5 5-6.1 8.1-8.5 3.1-2.3 6.6-3.9 10.3-4.9 4.5-1.3 9.1-1.9 13.8-1.9 4.1 0 8.2-.5 12.3-.5 3.5 0 7.1.2 10.6.7 2.3.3 4.5 1.3 6.7 2.1 1.3.4 2.5 1.1 3.7 1.6.2.1.5-.2.7-.4.7-1 1.3-2 2.1-3 .7-.9 1.7-1.4 2.9-.8 1.1.5 1.9 2 1.7 3.2l-.3 1.8c.6-.2 1.1-.4 1.7-.6 1.4-.5 2.8-.8 4.1.1 1 .6 1.1 1.6.5 2.4-1.1 1.4-2.3 2.7-3.6 3.9-.5.5-1 .9-.7 1.6 1.7 3.3 1.6 7 2.5 10.4.9 3.4 1 6.9 1.2 10.3.1 2.1 0 4.3-.3 6.4-.3 2.1.1 3.9.9 5.8.9 2 1.6 4.2 2.3 6.3.5 1.6.3 3.2-.4 4.8-1 2.6-2 5.2-4 7.2-1.6 1.6-3 3.4-5.1 4.4-.4.2-1 .2-1.4.2-.7 0-1.4 0-2-.1-.5-.1-1-.5-1.5-.7-.2-.1-.5-.2-.7-.3-.1.3-.2.5-.2.8 0 1.7 0 3.4-.1 5.1 0 1.2-1.3 1.8-2.6 1.2-1.1-.5-1.1.2-.8.8.6 1.4.5 2.7-.5 3.9 0 0 .2.4.3.4 1.3.1 2.6.1 3.9.3 3.3.4 6.7.8 9.9 1.5 1.7.4 3.3 1.3 5 2 1.7.7 3.3 1.6 5 2.3.6.2 1.3.2 2 .3 2.3.4 4.7.8 7 1 2.2.2 4.4.2 6.6.2 3.4-.1 6.8-.4 10.2-.4 3.1 0 5.4 1.5 6.7 4.4 2.1 4.8 3.3 9.8 3.2 15.2 0 1.5.1 3.1.2 4.6.3 6.7-1.4 12.9-4.7 18.5-1.9 3.3-4.7 5.7-8.7 6.4-1 .2-1 .6-.6 1.4.8 1.8 1.6 3.6 2.2 5.4.7 2.1 1.3 4.2 1.7 6.4.2 1.3 0 2.7-.1 4 0 .2-.2.5-.4.7-2 1.8-3.9 3.9-6.8 4.5-1.8.4-3.7.5-5.5.7-.8.1-1.7 0-2.5 0 .3.1.3.2.3.3zM13.2 100.4c-.1.8-.2 1.5 0 2.3 1.1 5.5 2.2 11.1 3.4 16.6.4 1.9 1.2 3.7 1.8 5.6.9 3.1 1.7 6.3 2.7 9.4.4 1.3 1 2.5 1.4 3.8 1 3.1 1.7 6.3 2.8 9.4.9 2.7 2 5.3 3.2 7.9.9 2.2 2.8 3.3 5 3.7 2.1.3 4.3.5 6.4.8 4.7.6 9.4 1.4 14.1 1.9 2.4.2 4.9.2 7.3 0 3-.3 6.2.2 9.1-.8.2-.1.6 0 .8 0 1.9.2 3.9.5 5.8.5 3.1 0 6.1-.2 9.2-.2 4 0 8 .2 12 .1 4.6 0 9.1-.2 13.7-.2 3.5 0 6.9.3 10.4.2.8 0 1.7-.6 2.4-1.1.2-.2.1-1 0-1.4-.8-2.7-1.7-5.5-2.6-8.2-.4-1.2-.9-2.3-1.1-3.5-.9-5.1-1.6-10.3-3.4-15.3-1.2-3.3-1.9-6.9-2.8-10.3-1.3-4.6-2.8-9.2-3.9-13.8-.8-3.5-1.8-7-3.2-10.4-1.3-2.9-2.5-5.8-3.5-8.8-1-2.9-2.3-5.6-4.4-7.8-.2-.2-.6-.5-.9-.6-3-.5-6-1.2-9.1-1.5-2.6-.3-5.3-.3-8-.5-3.1-.2-6.3-.6-9.4-.9-2.3-.2-4.5-.1-6.8-.2-4-.2-7.9-.6-11.9-.9-1.6-.1-3.1-.1-4.7-.2-3.5-.2-7.1-.5-10.6-.5s-7 .4-10.5.7c-1.6.1-3.3.1-4.8.7-4.4 1.7-7.6 4.7-9.7 8.9-.2.4-.2 1-.2 1.5-.1 1.2 0 2.4-.1 3.6-.1.9-.4 1.8-.4 2.7.1 2.4.4 4.6.5 6.8zm151.6 13.4c.1-.3.1-.6.1-.8.1-.5.2-1.2.4-1.3.8-.4 1.7-.4 2.2.6.8 1.4 1.6 2.8 1.3 4.6-.1.6.1 1.4.2 2 1 3.6 2 7.1 3.1 10.7.1.4.4.9.8 1.1 2.5 1.4 5 2.8 7.6 4.1.1.1.3.1.5.1 0-.2 0-.3-.1-.5-.4-1.1-1-2.1-1.3-3.2-1.3-3.6-2.6-7.3-3.8-10.9-.1-.5.5-1.2.8-1.8.5.3 1.1.5 1.3.9.5.8.8 1.8 1.2 2.7 1.6 4.1 3.1 8.3 4.8 12.4.5 1.2.9 2.5 2.4 3.2 4.2 2.1 8.3 4.5 12.1 7.2.7.5 1.1 1 .9 1.8-.2.8-.7 1.5-1.7 1.6-2.4.4-4.5-.5-6.4-1.8-1.3-.9-2.5-1.8-3.9-2.6-3.9-2.3-8-4.4-11.9-6.7-2.5-1.5-4.9-3.2-7.3-4.8-.9-.6-1.7-.8-2.6-.1-.7.5-1.6.8-2.4 1.2-.2.1-.4.3-.6.5-1.7 2.6-3.5 3.4-6.7 2.9-.3-.1-.9.2-1.1.5-1.1 1.4-2.4 2.4-4.1 2.9l-.6.3c.1.2.2.5.4.7 1 1 2 2.1 3 3.1 1.3 1.3 2.8 2.5 4 3.9 1.6 1.8 3.5.5 5.2.9h.1c4.9-.2 9.8-.7 14.6.5 1 .3 2.4.6 2.9 1.4.7 1 1 2.5 1.2 3.8.2 1.2-.3 2.5 1.7 2.6 1.4 0 2.8.9 4.3 1 3.2.3 6.3.4 9.5.5 2.4.1 4.7.3 7.1.3 4.3-.1 8.6-.2 12.9-.5 1.2-.1 2.4-.5 3.6-.8.2 0 .4-.3.4-.4.1-.7.2-1.5.1-2.1-.8-3-1.3-6.2-2.6-9.1-2-4.5-4.5-8.7-6.7-13.1-1.1-2.2-2.1-4.4-3.1-6.6-1.4-3.3-2.7-6.7-4.2-10-1.3-2.8-2.8-5.5-4.1-8.2-2.2-4.4-5-8.2-9.6-10.5-4.2-2.1-8.4-3.5-13.3-3.3-4.9.2-8.1 3-11.1 6.2-.3.3-.4.7-.5 1.1-.7 1.6-1.4 3.3-2.1 4.9-.9 2.2-1.8 4.3-2.8 6.5-.5 1.2-1.3 2.2-2 3.4 0 .1 0 .4.1.4 2.7 1.3 4.5 3.6 6.3 5.8l.3.3c0-.1.1-.3.1-.4-.3-3-.6-6.1-.9-9.1zm16-68.4c-.1-2.1-.2-4.4-.3-6.6-.1-1.5-.2-2.9-.5-4.3-.5-2.1-1.2-4.2-1.8-6.3-.2-.8-.6-1.4-1.4-1.8-.6-.3-1.4-.9-1.5-1.4-.1-.8-.4-.9-1-1-1.3-.3-2.3-1-2.7-2.3-.2-.8-.6-.9-1.3-.7-1.6.4-3.2-.1-4.3-1.2-.9-1-1.5-.8-2.6-.5-1.5.4-3.3.9-4.6-.2-1.2-1-2.1-.5-3.2-.1-2 .7-4 1-6-.2-.3-.2-.9-.2-1.2-.1-2.6 1.2-5.2 2.5-8.2 1.3-.3-.1-.7.1-1 .3-1.7.7-3.3 1.6-5.1 2.1-1 .3-2.2-.1-3.4-.2-.3 0-.6 0-.9.1-2 1-4 1.5-6.2.6-.1-.1-.3 0-.4.1-1.3 1-2.7 2-4 3-.1.1-.3.3-.3.5-.3 1-.5 2-.7 3-.3 1.1-.6 2.3-.8 3.4-.2 1.2-.2 2.4-.4 3.5-.2 1.9-.5 3.7-.7 5.6-.2 1.5-.3 3-.6 4.5-.2 1.1.1 1.3 1 1.3 1.6 0 3.1 0 4.7.1 4.2.2 8.4.4 12.5.7 1.4.1 3.2 1.8 3.5 2.9.3 1.2.7 1.4 1.8 1 1.6-.6 3.2-.8 4.9-.5.8.1 1.7 0 2.6.1 1.3.1 1.6-.5 1.6-1.7.1-2.1.5-3.3 2.8-3.6.4-.1.8-.3 1.2-.5 1.8-1 3.7-1.3 5.6-1.3 3.1-.1 6.2-.1 9.3 0 2.8 0 5.6.2 8.3.2 1.3 0 2.5.4 3.5 1.3.5.4.9.8 1.4 1.2.3-.9.3-1.5.4-2.3zm-58 18.7c0-.1 0-.3-.1-.4-1.3.2-2.6.4-3.9.5-1 0-1.1.5-.9 1.3.2 1 .4 1.9.5 2.9.1.7.2 1.3.3 2 .1.6.2 1.1.3 1.7.4-.5.7-1 1.1-1.3.6-.4 1.4-.9 1.9-.7.8.3.8 1.1.3 1.8.1.1.3.2.3.2.9-.8 1.9-1.5 2.8-2.4.5-.5.9-1.2 1.5-1.6.3-.3.9-.3 1.4-.5.1.5.4 1 .3 1.5-.1.9-.5 1.8-.7 2.7 0 .2 0 .4.1.6.2-.1.4 0 .5-.2.5-.4.9-.9 1.3-1.3 1-1.1 2-2.3 3.2-3.2.9-.7 1.8.1 1.7 1.3-.1.7-.5 1.3-.7 2-.1.3-.1.6-.2.8.3-.2.6-.3.8-.5 1-1 2-2.1 3-3 .3-.3 1-.5 1.3-.3.4.2.6.8.7 1.3.1.4-.2.8-.3 1.3 0 .3 0 .5.1.8.3-.1.7 0 .9-.2.8-.8 1.5-1.7 2.3-2.4.4-.4 1-.9 1.3-.7.4.2.7.8.9 1.3.1.2.1.4.1.7l.3-.6c.7-.6 1.3-1.7 2-1.8 1-.1 1.2 1.2 1.4 2 .1.3.3.5.5.7 0-.2-.1-.4-.1-.7 0-.2.1-.4.3-.6.5-.6 1-1.1 1.5-1.7.5-.6 1-.9 1.8-.4.2.1.6 0 .8-.2 2.4-2.9 7.7-2.6 9.7.6.3.4.4.9.7 1.2.6.5 1.3.8 1.9 1.1-.1-.3-.1-.6-.2-1 0-.1.1-.1.1-.2.3-.5.6-1.1.9-1.6.8-1.5 1.7-1.6 2.9-.4.6.7 1.2 1.4 1.9 2 .6.5 1 1.1.5 1.9-.4.8-1.1.6-1.8.4-.8-.2-1.6-.4-2.3-.3-.7.1-1.4.7-2.2.8-1.1 0-1.3.6-1.3 1.4 0 .3 0 .6-.1.8-.3 1.1-.9 1.5-2 1.4-1.2-.1-2.4-.2-3.5.1-3 .6-5.9.7-9 .7-1.4 0-2.9.2-4.3.3-4.5.2-8.9.3-13.4.4-.3 0-.5-.2-.8-.2.2-.2.3-.4.6-.5.4-.2.9-.5 1.3-.5 1.9-.3 3.8-.6 5.6-.9 1.6-.3 3.3-.6 4.9-.8 2.2-.2 4.4-.2 6.5-.3 1.9-.1 1.9-.1 1.8-2 0-.2-.1-.4-.1-.5-.2.1-.4.2-.5.4-.8 1.6-3.2 2.6-4.6 1.6-1.2-.9-2.3-.2-3.5-.3-.8-.1-1.8-.1-2.4.3-1.5.9-3 .8-4.6.6-.7-.1-1.4 0-2 .1-1 .2-2 .6-3 .6-1.2 0-2.3-.7-3.5.2-.3.2-.9.1-1.4 0-.8-.1-1.3.3-1.5.9-.3.7-.4 1.5-.7 2.1-1.1 1.7-1.4 3.6-1.1 5.5 0 .3.1.6.2.9.2-.3.5-.6.6-.9.1-.3-.1-.7-.1-1 0-.5-.1-1.1.2-1.5.8-1.1 1.7-2.1 2.7-3 .4-.4 1.2-.4 1.8-.6.1.6.3 1.2.3 1.7-.2 2.8-.5 5.5-.7 8.3 0 .5.2 1 .4 1.5 0 .1.7 0 .7 0v-2.3c0-.5 0-1 .3-1.4.9-1.2 1.9-2.3 2.8-3.5.4-.6 1-1.1 1.5-.7.5.4.7 1.3.7 1.9 0 .5-.5.9-.6 1.4-.3 3.2.3 6.3 1.9 9.1.2.4.7.6 1.1 1 .2-.5.6-1 .7-1.5.1-.3-.1-.8-.3-1.1-.4-1-.8-2-1.1-3-.1-.3.1-.7.3-1 .8-1.1 1.7-2.2 2.6-3.3.4-.4 1-1 1.4-.9.7.1.9.8.7 1.6-.9 3.4.3 6.4 2.1 9.2.1.1.5.1.7.1.1-1.6.3-3.3.4-4.9 0-.6-.1-1.2.1-1.7.5-1 1-1.9 1.7-2.7.4-.4 1-.9 1.5-.9.4 0 .8.8 1 1.3.2.9.1 1.8.2 2.7.2 2.5.8 5 2.4 7 .3.3.7.5 1.1.8.2-.4.5-.8.7-1.2.4-1.1.1-2.2-.4-3.2s-1-2.1-.5-3.2c.9-1.7 2-3.3 3-4.9.5-.8 1.1-.7 1.3.2.3 1.3.5 2.7.6 4.1 0 2 .8 3.5 2.1 4.9.2.3.8.5 1.1.4.3-.1.6-.7.6-1 .1-.8 0-1.7.2-2.5.2-1 0-1.6-1-2-.2-.1-.5-.5-.4-.7.6-2 1.4-3.9 3-5.3.2-.2.9-.1 1 .1.4.7.9 1.4.9 2.2 0 2.7 1.8 4.3 3.3 6.2.5.7 1 .4 1.1-.4.1-1.1.2-2.2.1-3.2-.1-.7-.4-1.5-.8-2.1-.9-1.2-1.8-2.3-1.4-3.9.2-.7.6-1.3.9-1.9.5-.9 1-1.8 1.7-2.6s1.1-.6 1.4.4c.7 2 1.4 3.9 2.2 5.9.1.2.4.4.7.5.1-.3.4-.6.3-.8-.8-2.5-.5-5.2-2.3-7.4-.1-.1-.1-.4-.1-.6.1-.5.2-1 .4-1.5.4-.7.9-1.4 1.3-2 .5.7 1 1.3 1.6 2v.1l2.7 5.4c.1.1.3.2.5.3.1-.2.3-.3.3-.5-.1-1.4-.2-2.9-.5-4.2-.4-1.6-1.2-3.1-1.8-4.7-.1-.3.2-.8.4-1.3.3.2.7.3.9.5.4.4.6.9 1 1.3.2.2.6.4.9.4.9 0 1.7 0 2.6-.1 1.5-.2 3.2.9 4.3-1 .1-.2.5-.2.8-.3.3-.2.8-.3.9-.6.9-2.2 2.1-4.5 2.5-6.8.6-3.3-.7-6.3-2.4-9.1-.4-.7-1-.7-1.6.1-.7 1-1.3 1.9-2.5 2.3-.2.1-.4.1-.6.2v-.7c0-.3 0-.7-.1-.7-1-.5-2.4.4-2.5 1.5-.3 2.2-.9 4.2-3.5 4.9-.5.1-1 .3-1.4.6-2.5 1.4-5.3 1.5-8 1.8-1.7.2-3.4 0-5.1-.1-1.4-.1-2.8-.2-4.3-.2-1.6 0-3.2.2-4.8.1-3.4-.3-5.5-2.5-5.9-5.9-.1-.7-.3-.8-.9-.7-1.1.1-2.2.1-3.3.2l-5.7.3c-.3 0-.5.4-.7.5.3.1.5.2.8.2.2 0 .4-.1.6-.1 2.5-.5 4.8.2 7 1.5 1 .6.3 1.4.2 2-.1.3-.8.6-1.2.5-1-.2-1.9-.7-2.9-.9-1.3-.3-2.7-.5-4-.5-.5 0-1.4.7-1.5 1.2-.4 1.3-.7 2.6.7 3.7.4.3.8.8.9 1.2.2.4.2 1 0 1.4-.1.2-.9.3-1.2.2-.9-.6-2.1-1.1-2.5-2-.7-1.5-1.8-1.3-3-1.2-2.5.8-5.3 1.2-8.1 1.5zM216.9 96v-.2h-5.4c-.2 0-.3.1-.5.2.1.1.3.2.4.2.8.4 1.7.9 2.5 1.3 1.1.6 2.2 1.4 3.5 1.6 3.1.6 6.3.9 9.4 1.4.3 0 .6.2.7.3.1.2-.1.7-.2.8-.7.3-1.4.5-2.1.7-4.8 1.7-9.5.7-14-1-1.8-.7-3.5-1.7-5.3-2.5-1.8-.8-3.8-1.4-5.5-2.4-5.2-3.2-10.9-5.1-16.5-7.3-.5-.2-1-.4-1.5-.4-3-.5-6.1-.9-9.1-1.4-1-.2-1.3.2-1.4 1.1-.1 1.2-.2 2.7-1.4 3.4-2.2 1.3-3.7 1.6-5.8.2-.7-.5-1-.3-1.1.4-.3 1-.7 1.9-1.7 2.5-.2.1-.3.5-.3.8.2 1.1.3 2.1.6 3.2.2.9.8 1.1 1.5.4 1.1-1 2.1-2.1 3.1-3.2 1.9-2.1 4.3-3.6 6.9-4.4 2.7-.8 5.5-1.2 8.4-.8 1.9.3 3.9.2 5.7.8 5 1.9 9.5 4.6 13.2 8.5 3.3 3.5 5.5 7.7 7.7 11.9 1.9 3.8 3.4 7.8 5.2 11.7 1.9 4.2 3.8 8.4 5.6 12.7.2.5.3.8 1 .5.8-.3 1.7-.5 2.6-.5 2.8-.3 4.8-1.7 6.1-4.3.3-.7.6-1.5.9-2.2 2-4.1 2.9-8.5 3-13 0-1.4-.1-2.8.1-4.2.6-4.3-.5-8.3-1.9-12.2-.7-1.8-1.6-3.3-3.8-3.4-.3 0-.6-.3-1-.4-.9-.3-1.7-.7-2.6-.7-2.3-.2-4.7-.1-7-.1zm-88.6 16.4h-.3c.2-1.6.4-3.2.7-4.8.2-.8.5-1.6.9-2.3.3-.5.7-.9 1-1.4.5.4 1.1.8 1.5 1.3.3.3.4.9.4 1.3-.1 1.7-.2 3.4-.4 5-.4 4.2-.8 8.3-1.2 12.5-.3 2.3-.6 4.6-1 6.9l-.6 3.6c-.2 1.2-.4 2.3-.7 3.5-.5 2.1-.4 4.5-2 6.3-.2.2-.2.7-.2 1 .2 1.2.5 2.4.8 3.6.1.3.4.6.6.6 1 .1 2.1.3 2.9 0 2.1-.8 4-.4 5.9.3.3.1.7.1 1.1.1 2.7-.2 5.5-.4 8.2-.5 1.6-.1 3.3.1 4.9.1.2 0 .4-.1.7-.2-.1-.2-.1-.4-.3-.5-1.1-1.2-2.2-2.3-3.3-3.5-1.7-1.9-3.5-3.8-5.2-5.8-.6-.7-1.4-.6-1.9.2-.4.7-.9 1.6-1.4 2.2-1.6 1.8-3.9 2.2-6.2 2.5-1.9.2-4.4-1.4-4.4-3-.1-2 0-4 .6-5.9 1-3.2 2.4-6.3 3.5-9.5.7-2.1 1.5-4.2 1.7-6.5.3-3.2 1-6.3 1.6-9.4.1-.6.5-1.3.9-1.8.2-.3.8-.5 1.1-.4.6.1 1.1.4 1.7.5 1.2.4 1.6 1 1.5 2.3-.1.9-.2 1.8-.2 2.7-.1 1.6-.1 1.6 1.4 1 .2-.1.6-.5.6-.6-.8-1.7-.9-3.5-1-5.3-.3-4.1.1-8 2.1-11.7.1-.1.3-.2.5-.2s.3.2.4.3c-.1-.2-.1-.4-.2-.6-.1-.7-.5-.7-1-.5-1.7.6-3.3.7-4.5-1-.5-.7-.9-.9-1.7-.2-1.6 1.4-3.6 1.6-4.7.5-.9-1-1.8-.9-2.8-.4-2.6 1.4-5.1 2.8-7.6 4.3-1 .6-1.8 1.4-2.2 2.9-.5 1.9-1.7 3.6-2.8 5.3-.7 1.2-1.4 2.2-.9 3.9 1.1 3.5 1.8 7 2.7 10.5 1 3.8 2.2 7.6 3.3 11.5l.3.6c.1-.2.2-.5.3-.7.9-3.5 1.7-7 2.6-10.4.3-1.2.9-2.3 1.1-3.5.8-2.1 1-4.4 1.2-6.7zM140.1 9.9c-.5.1-1 0-1.4.1-4.6.7-9.2 1.8-13.3 4.1-1.9 1.1-3.6 2.6-5.3 4-.2.2-.9.6 0 .8.9.2.9.8.8 1.4-.2.6-.6 1.2-.8 1.9-.1.4 0 .9.1 1.4.4-.1.7-.2 1-.4.6-.4 1.3-.8 1.8-1.4.3-.3.5-.7.5-1.1.1-1.4.5-2.6 2.2-3 .9-.2 1.4 0 1.4.9 0 .7-.1 1.4-.2 2.1 0 .6.2 1 .9.6.8-.4 1.5-1 2.2-1.5 1-.8 1.9-1.8 2.9-2.6.6-.5 1.3.1 1.2.8-.1.4-.4.7-.5 1.1-.1.4-.1.9-.2 1.3.4 0 .9.2 1.3.1 2.2-.6 4.3-1.5 5.8-3.4.4-.6.9-1.1 1.5-1.5.5-.3 1.1-.2 1.7-.3 0 .5.1 1 .1 1.5 0 .3-.2.5-.3.8-.2.7.1 1.1.7.8 1.6-.8 3.2-1.7 4.7-2.7 1-.7 1.8-1.9 2.8-2.7.4-.3 1.2-.6 1.6-.4.4.2.7 1 .7 1.5 0 .9-.3 1.7-.6 2.6-.3.9.2 1.2.9 1 .9-.3 1.7-.6 2.5-1.1 1.1-.6 2-1.5 3.1-2 .4-.2 1.3-.2 1.7.1.4.2.5 1 .5 1.5-.1 1.4 0 1.5 1.3 1.2.4-.1.8-.4 1.2-.5 1.4-.4 2.2-1.8 3.7-1.9 1.4-.2 2 .4 1.8 1.8-.1.6.2 1.4.6 1.8.7.6 1.4.2 2.1-.3.8-.6 1.6-1.1 2.5-1.5.5-.2 1.4-.1 1.7.2.3.4.1 1.2 0 1.7-.1.6-.6 1.1-.6 1.6-.2 1.1.1 1.2 1.1.8.4-.2.8-.3 1.2-.3.5 0 1.3-.1 1.5.2.3.4.3 1.2.1 1.7-.2.7-.1 1.2.5 1.3 1.3.3 1.5 1.3 1.7 2.4l2.4 11.1c.1.4.1.8.1 1.2 0 .9-.1 1.7 0 2.6.2 2.1.4 4.3.5 6.4 0 .5-.2 1-.3 1.5.5-.5 1.1-.9 1.4-1.5 1.2-3 1.8-6.1 1.8-9.3 0-1.6-.5-3.1-.7-4.7-.4-2.7-.7-5.4-1.2-8.1-.4-2.3-1.1-4.5-1.6-6.7-.3-1.1-.1-2 .8-2.9.9-.9 1.5-2 2.1-3 .2-.3.2-.7.2-1.1-.3.1-.7.2-1 .3-.4.2-.7.5-1 .8-.6.6-1.2 1-2.1.4-.2-.1-.6 0-.9.1-1.5.7-3.1 1-4.6.5-2.8-1-5.6-2.2-8.3-3.2-2.4-.9-4.8-1.6-7.5-1.4-1.3.1-2.7-.1-4.1-.1-1.9-.1-3.8-.2-5.7-.2-4.2.2-8.5.5-12.7.8zm4.5 108.8c-.2 0-.4 0-.6-.1-2-.4-3.5.5-4.9 1.9-1 1-.9 2.4-1.5 3.5-.4.9-.9 1.8-1.2 2.7-.6 1.9-1.1 3.9-1.6 5.9-.5 2.1-1.1 4.3-1.1 6.4-.1 2.8.9 3.3 3.4 2 .5-.2.9-.8 1-1.3.5-2.2.9-4.4 1.2-6.6.1-.9-.1-1.8-.2-2.6 0-.4-.3-.9-.1-1.1.8-1 1.7-2 2.7-2.9.3-.3 1.1-.4 1.5-.2.4.2.5.9.6 1.4.1.5-.3 1.2-.1 1.6.3 1.2.8 2.3 1.4 3.3.1.3.9.2 1.4.2 0-.4.1-.8 0-1.1-.1-.8-.3-1.6-.3-2.4 0-.6 2-2.8 2.6-2.8.2 0 .4.1.5.2 1 .5 1.1 1.4 1.1 2.4 0 2 .6 3.7 2.2 4.9.1.1.4.1.5.2v-.4c-.6-1.8-.4-3.6.3-5.4.2-.5.7-1.1 1.1-1.1.8 0 1.2.6 1.3 1.4 0 1.2.1 2.3.2 3.5.1 1 .3 1.9 1.4 2.3 1.1.4 2-.1 2.8-.9.5-.5.5-.7-.1-1.1-.3-.2-.7-.7-.7-.8.3-.4.6-.8 1-.9.8-.1 1.6 0 2.4 0 .5 0 1 0 1.5-.1.1 0 .3-.5.3-.6-1.1-2-2.1-4.1-3.4-6-1.3-1.9-3.2-3.4-5.3-4-3.5-.8-7.3-1.6-11.3-1.4zm12-69.9v-.3c-1 0-2-.1-3 0-.4 0-.9.6-1 .9-.1 1.5-.2 3-.1 4.5s.2 3.4 1.8 4c1.6.6 3.6 1 5.2.6 2.8-.6 5.6 0 8.4-.5 2.8-.4 5.7-.5 8.5-.8.4 0 .9-.5 1-.8.5-1.6.5-3.2-.2-4.8-.3-.7-.6-1.4-.7-2.1-.2-1-.9-1.4-1.7-1.4-1.7-.1-3.5 0-5.2.1-2 .1-4 .4-6.1.5-2.1.1-4.5.1-6.9.1zm-42 1.8v-.3c-.9.2-1.9.3-2.8.5-.8.2-1.1.6-.9 1.5.3 1.6.5 3.3.8 4.9.4 2.4 1.8 4.2 4.3 4.5 2.3.2 4.7.7 7.1-.3.9-.4 2.1-.1 3.1-.2 1.2-.1 2.4-.3 3.6-.5.8-.1 1.6 0 2.4-.1.5 0 1.3.1 1.5-.2.5-.7.9-1.6.9-2.5 0-.9-.5-1.9-.6-2.9-.2-2.5-1.8-4.3-4.3-4.5-1.2-.1-2.5 0-3.7 0-3.8.1-7.6.1-11.4.1zm60.4 109c2.8 0 3.5-.5 4.3-2.4.4-.8.3-1.4-.3-2-.4-.3-.7-.8-1-1.2-.8-1-1-.9-2-.1-1.3 1.1-2.8 2.2-4.4 2.7-2.6.9-5.4 1.2-8.1.4-.4-.1-1 0-1.4 0-1.5 0-3 .2-4.5.1-3.3-.1-6.6-.2-9.9.2-3.5.4-7.1.4-10.7.3-2.5-.1-5-.7-7.4-1-.8-.1-1.3-.1-1.4.9-.1 1.7-.3 3.5-1.3 5-.4.6-.2.8.5.7 1.9-.2 3.7-.5 5.6-.6 3.9-.3 7.7-.6 11.6-.7 2.3-.1 4.5.2 6.8.1 2.2-.1 4.3-.8 6.5-.8 3.9 0 7.9-.2 11.8-.8 1.8-.5 3.8-.7 5.3-.8zm-27.5-47.1c0 2.1 0 2.2 1.8 2.5 1.6.3 3.3.6 4.9.9 2.4.4 2.5.4 3.6-2 .1-.3.2-.6.4-.9.9-2 1.8-3.9 2.7-5.9.1-.2.2-.5.3-.7-.3.1-.6.2-.8.3-4.6 2.7-9 1.9-12.7-.8-.3-.2-.7-.5-1-.7v1.3c0 .1.1.2.1.3.2 2 .5 4 .7 5.7zm9.2-9.2c1.1-.3 2-.6 2.8-.9.2-.1.4-.6.3-.7-1.3-1.4-1-3.3-1.6-4.9-.1-.3-.3-.6-.6-.7-.6-.3-1.2-.4-1.8-.7-.6-.3-.8 0-1.3.4-.7.7-1.5 1.3-2.4 1.6-2 .6-3.3-.7-4.3-2.2-.1-.1-.2-.2-.3-.2 0 .1 0 .2.1.3.7 1.8 1.3 3.6 2 5.4.2.5.7 1 1.2 1.2 1.9.5 3.9.9 5.9 1.4zm-10.9 48.9c-.5 0-1.1-.1-1.4.2-.4.4-.6 1-.7 1.6 0 .2.6.6.9.6 1.8.1 3.6.1 5.4.1 1.2 0 .7-1 .8-1.6 0-.2-.5-.6-.8-.6-1.4-.2-2.8-.2-4.2-.3zm-6.5.5c-.8 0-1.5 0-2.3.1-.4.1-.7.4-1 .6.4.6-.1 1.9 1.2 1.7 1.5-.2 2.9-.3 4.3-.7.4-.1.5-1 .7-1.6-.3-.1-.7-.3-1-.3-.5 0-1.2.1-1.9.2zm-7.2 1.6v.2h.7c.6.1 1.1.1 1.1-.7 0-.7 0-1.1-.9-1.1-1.1 0-2.2-.3-3.3-.5-1.6-.2-1.6-.2-1.4 1.4 0 .3.1.6 0 .8-.3 1 .2.8.8.6 1-.2 2-.4 3-.7zm23.8-81.4c.9.3 1.1-.1 1-.9-.1-.9-.3-1.9-.2-2.8 0-.5.4-1.1.6-1.6.1-.1.2-.2.3-.4-.2 0-.4-.1-.6-.1-1.7 0-3 1.8-2.5 3.4.1.4.3.9.3 1.4-.2 1 .1 1.4 1.1 1zm2.8 81.2c.1.1.2.2.2.3.3-.3.8-.5.9-.9.2-.9-.5-.9-1.1-.9-1.6 0-3.2 0-4.9-.1-.7 0-.8.3-.8.8-.1.7.3.7.9.7 1.6 0 3.2.1 4.8.1zm-8.6-17.2c0-.1 0-.1.1-.2h1.2c.1 0 .2-.1.3-.1l-.3-.3c-2-.7-3.9-2.3-6.3-1.1-.2.1-.4.1-.6.1-.4 0-.7.1-1.1.1.4.2.8.5 1.2.6.4.1.9 0 1.4 0 .3 0 .6-.1.9 0 1.1.3 2.1.6 3.2.9zm11.3-65.3c-.2-1.8-1.7-2.8-2.5-4.2 0-.1-.2 0-.3-.1v.3c.7 1.3.7 2.6.5 3.9-.1.9.3 1.1 1.1 1.1.7.1 1.3 0 1.2-1zm-7.1 34.1c3.4 0 5.8-1 8-2.6.2-.1.2-.4.3-.5-.2 0-.4 0-.6.1-1.3.7-2.6 1.6-3.9 2.1-2.4.8-4.8.4-7.1-.5-.2-.1-.4-.1-.6-.1.1.1.2.3.4.4 1.4.5 2.8.9 3.5 1.1z"/><path class="st0" d="M231.8 140.9c2.5 0 3.2.9 2.6 2.6-.1.2 0 .5.2.7.9 1.1.9 2.4-.4 3.1-1.2.6-2.6.9-3.9 1.1-.3 0-.9-.7-1.1-1.2-.4-1.2-.6-2.5-.8-3.7-.1-.4.1-1 .4-1.1l3-1.5zM236.3 149.9c0-.5-.1-1 0-1.6 0-.3.3-.6.5-.8.3.2.7.4.8.7.2.5.3 1.2.3 1.8.1 1.2.7 1.6 1.8 1.5 1.7-.1 3.3-.2 5-.3 1.2 0 2 .5 2.4 1.7.2.7 0 1-.6 1.1l-5.7.3c-.8 0-1.7.1-2.5.2-1.4 0-1.7-.3-1.8-1.6-.1-1-.2-2-.2-3-.1 0 0 0 0 0zm6.6 2.5s0-.1 0 0c-1.3 0-2.5.1-3.8.2-.2 0-.4.2-.7.4.2.1.4.4.6.4l6-.3c.1 0 .2-.2.4-.3-.1-.1-.2-.3-.4-.3-.8-.1-1.4-.1-2.1-.1z"/><path class="st0" d="M243.5 142.9c-.1.8-.2 1.5-.3 2.3-.1.8-.4 1.5-1.3 1.6-.9.1-1.5-.4-1.8-1.3-.1-.3-.3-.6-.5-.9-.2.3-.3.5-.5.8-.6.9-1.5.9-2.4.7-.9-.2-1.8-1.7-1.4-2.6.3-.7 1-1.4 1.7-1.7.4-.2 1.3.1 1.8.4.5.5.7 1.4 1.7.6.2.2.4.4.5.7.1.2 0 .6.1.8.1.3.3.5.4.8l.3-.9c.1-.8 0-1.5.2-2.3.1-.4.5-.7.7-1.1.2.4.5.8.6 1.2.2.3.1.6.2.9zM243.7 145.9c.4-1.6.7-3 1.1-4.5.1-.2.5-.5.6-.4.4.2.8.4 1 .7.3.5.3 1.1.5 1.7.3-.5.5-1.1.9-1.6.2-.3.7-.6.9-.5.4.1.8.5 1 .9.4 1.1.6 2.2.8 3.4.1.3-.2.7-.3 1-.4-.1-.8-.2-1.1-.4-.1-.1-.2-.3-.2-.4-.1-.4-.3-.8-.4-1.2-.2.4-.3.8-.5 1.2-.2.4-.5.7-.7 1-.4-.3-.8-.5-1.2-.9-.2-.2-.3-.6-.5-.9l-.6.9c-.2.3-.4.5-.7.7-.3-.3-.5-.5-.6-.7zM253.5 137.8c-.4 2.4-.8 4.5-1.2 6.6-.1.3-.7.8-1 .7-.3-.1-.8-.7-.8-1 .4-2.2.8-4.4 1.3-6.6 0-.2.7-.5.9-.4.4.1.7.5.8.7zM243 149.3c.4-.1.6-.2.8-.1.4.1.8.3 1.2.4-.3.3-.6.6-.9.8-.4.2-.9.2-1.4.3-1.3.2-2.2-.8-2-2.1 0-.2.1-.3.2-.4.4-.6 3.2-.9 3.7-.5.1.1 0 .5 0 .6-.5.1-.9.2-1.4.3-.3.1-.6.3-1 .4.3.1.7.2.8.3zM104.5 106.2c-.3-1.3-.7-2.7-1-4-.7-2.9-1.4-5.9-2.3-8.8-.4-1.5-1.2-2.9-1.8-4.3-.4-.9-.9-1.8-1.2-2.7-.1-.2.1-.6.2-.9.3.1.6.1.7.3.9 1.3 2 2.5 2.7 3.9.8 1.6 1.4 3.4 1.6 5.2.4 3.5 1.1 6.9 2.3 10.2 1.3 3.8 2.5 7.7 3.7 11.6 1.7 5.5 3.2 11 4.9 16.5l2.4 7.5c1 3.3 2 6.7 2.9 10.1.1.3.1.6.1.8-.1.3-.2.6-.4.9-.2-.2-.5-.3-.7-.5-3-4.7-5.7-9.6-7-15.1-.5-2.3-.9-4.6-1.5-6.9-.3-1.2-.9-2.3-1.5-3.4-1.4-2.9-2-6.1-2.4-9.3-.5-3.4-1.3-6.9-1.9-10.3-.1-.3 0-.5-.1-.8h.3zM83.5 81c-1.4-.2-2.7-.5-4.1-.6-1.9-.2-3.8-.1-5.7-.3-3.3-.3-6.7-.7-10-1.1-.3 0-.5-.3-.7-.4h.8c3.4.2 6.8.4 10.1.5 2.7 0 5.5-.3 8.2-.4 1.9 0 3.8 0 5.6.3 2 .3 4 .8 5.9 1.6 1.2.5 2 1.7 2.9 2.7.2.2 0 .6 0 .9-.3-.1-.6-.1-.8-.2-4.1-2.2-7.7-3.2-12.2-3zM54.4 83.3h-6.9c-1.6 0-2.8-.9-2.9-2.3-.1-.5.3-1.3.6-1.4 3.8-1.4 7.6-1.2 11.5-.3 1 .2 1.7.7 2 1.9.3 1.1-.1 1.7-1 1.9-1.1.3-2.2.3-3.3.5v-.3zm-4.9-3.1c-.4 0-.7 0-1 .1-.3.1-.7.2-.7.3 0 .3.1.7.3.8.2.2.6.3 1 .3 1.6.1 3.2.1 4.7.1.4 0 .9-.3 1.3-.5-.4-.3-.7-.7-1.1-.8-1.4 0-3-.1-4.5-.3zM27.5 79H23c-.2 0-.4-.2-.7-.4.2-.1.3-.3.5-.4 2.7-1.6 5.6-.8 8.5-.5.3 0 .6.5.9.8-.3.2-.7.5-1 .5-1.2.1-2.4.2-3.7.3V79zM182.4 63.9c0-.4 0-.6.1-.7 1.4-2.2 1-5.1 3-7 .5-.4 1.1-.7 1.7-.8.3-.1.8.3 1 .6.1.2 0 .8-.2 1-1.2 1.5-1.8 3.2-2.3 5.1-.2.9-.9 1.7-1.5 2.5-.2.3-.9.5-1.2.4-.2-.3-.4-.8-.6-1.1zM164.7 53.5c.1-.7.2-1 .3-1.4.3-.9 1.3-1.1 1.8-.4.4.6.8 1.2 1 1.9.1.4-.3 1.1-.7 1.4-.1.1-.8-.1-1.1-.3-.6-.4-1-.9-1.3-1.2zM124.6 55c.9 0 1.9 1.3 2 2.2.1.7-1 1.7-1.8 1.6-1.1-.1-1.2-1.1-1.2-1.9 0-.8 0-1.7 1-1.9z"/></svg>