<?xml version="1.0" standalone="no"?>
<!DOCTYPE svg PUBLIC "-//W3C//DTD SVG 1.1//EN" "http://www.w3.org/Graphics/SVG/1.1/DTD/svg11.dtd" >
<svg xmlns="http://www.w3.org/2000/svg">
<metadata></metadata>
<defs>
<font id="lunchboxlight" horiz-adv-x="796" >
<font-face units-per-em="2048" ascent="1536" descent="-512" />
<missing-glyph horiz-adv-x="526" />
<glyph horiz-adv-x="0" />
<glyph horiz-adv-x="682" />
<glyph horiz-adv-x="0" />
<glyph horiz-adv-x="0" />
<glyph unicode="&#xd;" horiz-adv-x="729" />
<glyph unicode=" "  horiz-adv-x="526" />
<glyph unicode="&#x09;" horiz-adv-x="526" />
<glyph unicode="&#xa0;" horiz-adv-x="526" />
<glyph unicode="!" horiz-adv-x="380" d="M106 1346v12q5 85 15 115q32 8 80 -7q12 -112 24.5 -503t12.5 -502q0 -6 1 -20.5t1 -20.5q4 -79 -9 -98t-84 -19h-8q-10 0 -14 4q0 48 6 78q6 35 6 68q0 29 -2.5 104.5t-7 192t-6.5 198.5q-15 362 -15 398zM106.5 75.5q-13.5 36.5 4.5 70.5t59 40q-2 -2 -8 -2h6 q56 8 77 -43q18 -44 -4 -84q-26 -48 -83 -30q-38 12 -51.5 48.5z" />
<glyph unicode="&#x22;" horiz-adv-x="245" d="M25 1497q3 6 27.5 2.5t29.5 -8.5l-4 2q6 -9 6 -45q0 -4 4 -32.5t3.5 -49t-9.5 -23.5q-31 -8 -43 -4q-2 21 -5.5 62t-5.5 69t-3 27zM119 1493q0 4 8.5 5t26.5 0t22 -1q-8 -30 -2 -133v-25q-3 -1 -15 2.5t-24 -0.5q-2 -1 -3.5 2.5t-3 10.5t-2.5 16t-2 20t-1.5 22t-1 23.5 t-1 22t-1 20t-0.5 15.5z" />
<glyph unicode="#" horiz-adv-x="1216" d="M88 932v84q6 6 6 5q0 -3 6 -3q2 0 23 1t72 3t118 4q0 15 2 59.5t2 61.5q5 165 5 201v38v95q23 3 49 0h28q21 0 27 2h37q0 -151 -25 -453q70 -4 133 -4q25 0 89.5 -2t87.5 -2q0 210 4 438q8 4 71 4h15q45 0 45 -8t-7 -113.5t-8 -248.5q0 -33 -4 -78q19 -1 89.5 -1.5 t144.5 -2.5v-25l4 -98q-7 0 -71.5 -1t-105.5 0t-73 5l6 -35q-4 -94 -2 -270l223 6q8 -31 8 -84v-16v-25l-223 -4q-1 -13 -1.5 -219t-6.5 -226l-2 -4q-1 -3 -4 -7.5t-8 -9.5t-14 -8.5t-20 -4t-28 3.5t-37 14q-14 41 -7 141t15.5 209.5t2.5 114.5q-151 17 -344 4 q-1 -43 14 -477q0 1 -21 2t-47.5 0.5t-38.5 -2.5q-8 0 -10 2l10 -2q-2 7 -2 26t-2 103t-6 199q0 69 -4 147q-12 7 -99.5 3t-99.5 -3q-12 35 -14 70v14q2 29 204 29h13v125q0 93 4 215q-15 3 -72.5 -3.5t-102.5 -6.5t-48 18zM410 580h139q148 0 207 2v106q0 150 -2 213 q-116 16 -248 23q-27 0 -78 6q-17 -265 -18 -314v-36z" />
<glyph unicode="$" horiz-adv-x="921" d="M84 1161q0 39 12.5 90.5t28.5 85.5q35 54 92 92.5t123 53.5q0 5 1 11l1 7q0 2 -1 13.5t-1 17.5q-5 60 -4 61q28 9 88 9h14q40 0 45 -7l-6 -90l-4 -18q37 -5 88 -27h-2q74 -46 98 -92l19 -33h-2q58 -124 47 -137v2q-9 -9 -42 -17.5t-63 -8.5h-28q-10 12 -10 32 q-3 26 -13 43q-24 53 -57 82q-6 3 -18.5 10.5t-18.5 10.5v-312q0 -60 -8 -174l-6 -80q53 -41 131 -116q128 -128 157 -248q7 -44 7 -64q0 -26 -7 -73q-2 -9 -6.5 -33t-7.5 -36.5t-9 -31.5t-15 -34.5t-21 -30.5h2q-28 -33 -77.5 -64t-94.5 -43h2q-14 -3 -53 -8l-6 -35 q-7 -4 -15.5 -7t-15 -4.5t-19.5 -3t-18 -1.5t-21 -1t-18 -1h-6q-12 14 -12 55l-23 4h2q-43 15 -87.5 48.5t-71.5 70.5q-25 36 -44 86t-12 82q2 11 9 17t14 7.5t20 2.5q1 0 6 1t9 1q52 4 75 -2q2 -58 32.5 -109.5t80.5 -77.5q8 111 12 342v162v96l-43 39l-43 35 q-112 89 -149 170q-37 79 -37 180zM193 1090q11 -69 94 -144l-2 4l18 -22q24 -27 51 -54q-3 150 -14 498q-51 -15 -86 -55q-38 -46 -54.5 -106.5t-6.5 -120.5zM455 637q0 -51 4 -137q6 -159 6 -160q0 -41 -2 -61q-4 -62 -4 -93q0 -12 1 -32.5t1 -30.5v-2q12 2 31 10h-3 q67 25 99.5 76t32.5 115q0 80 -43 155q-49 83 -123 160z" />
<glyph unicode="%" horiz-adv-x="1591" d="M72 1100q0 89 25.5 167.5t75 130t112.5 54.5q18 2 49 2q80 5 148 -66.5t104.5 -180.5t36.5 -222q0 -63 -14 -117.5t-42 -98t-76 -68.5t-110 -25q-43 0 -82 10q-55 11 -97.5 46.5t-67 86.5t-38.5 102.5t-20 108.5q-4 27 -4 70zM160 1030q0 -4 1 -12t1 -12h2q3 -32 12 -64 t24.5 -65.5t43.5 -58.5t63 -34q62 -13 109 10.5t70 70t32.5 98.5t3.5 100q-4 45 -14.5 86.5t-30.5 84.5t-56 72t-83 35q-46 -1 -81 -30.5t-54.5 -75t-29 -92t-11.5 -92.5h-2v-21zM455 -47q-2 60 34 131l12 30t15 38q67 180 253.5 710t191.5 580q0 2 1 5q8 54 27 60 q32 4 68 4q45 0 61 -6l-256 -788l-235 -740q-8 -18 -86 -18q-80 0 -86 -6zM922 424q0 93 21 168t72.5 125.5t127.5 50.5q72 0 149 -35q152 -78 152 -319q0 -64 -17 -189q-10 -107 -78 -176t-159 -69q-74 0 -133 45q-60 39 -97.5 153t-37.5 246zM1018 350q0 -53 21 -110.5 t66.5 -101.5t104.5 -44q48 0 81 39.5t46 93.5t13 115q0 70 -18 138.5t-59.5 119.5t-98.5 51q-55 0 -97.5 -55.5t-50.5 -126.5q-8 -49 -8 -119z" />
<glyph unicode="&#x26;" horiz-adv-x="1157" d="M45 369q0 225 225 530q-4 9 -26 55t-31 68q-27 52 -38.5 76t-24.5 67t-13 82q0 26 6 56q17 87 102 146.5t175 51.5q87 -13 129.5 -72t42.5 -145q0 -98 -49.5 -203.5t-122.5 -169.5l295 -526q39 86 39 207q0 144 -19 252q90 13 109 -6h-2q11 -22 20.5 -94t9.5 -160 q0 -212 -61 -348q8 -12 20 -31t27 -44t23 -38q62 -114 94 -156q1 -1 2 -3l2 -1q7 -9 9.5 -13.5t-1 -10.5t-16.5 -13l-15 -4q-43 -16 -53 -16q-17 0 -39 28l-24 31q-3 4 -12 15.5t-12.5 16t-11.5 15.5t-11.5 18t-10.5 18.5t-11.5 22t-10 25t-10.5 29.5q-73 -34 -107 -59v2 l-47 -27h2q-71 -41 -149 -41q-144 0 -243.5 69.5t-144.5 186.5q-16 56 -16 113zM182 268q26 -91 111.5 -137t175.5 -25h-2q48 11 100.5 50t89.5 84q-9 20 -25 53t-60 119t-81.5 154.5t-79 131t-63.5 76.5q-17 -19 -62.5 -112t-82.5 -214t-21 -180zM250 1231q0 -72 24 -144.5 t74 -101.5q12 4 55 64.5t78.5 142t18.5 125.5q-12 27 -43 49.5t-69 29t-73 -17.5q-65 -51 -65 -147z" />
<glyph unicode="'" horiz-adv-x="30" d="M-78 1489q19 0 47 4q5 0 19.5 1t19.5 1v-33v-24q0 -36 15 -129q0 -2 1 -7t1 -6q-2 -7 -32 -5t-50 7q1 0 -1.5 31t-7.5 64q-2 33 -12 96zM-61 1298h4v-2z" />
<glyph unicode="(" horiz-adv-x="559" d="M90 770q0 86 2 127q11 236 96 547q8 27 17 78q12 72 28 104q2 4 35 4q32 0 78 -8q37 -8 51 -6q-16 -24 -46 -84t-40 -88q-41 -135 -59 -258q-35 -247 -35 -379q0 -126 14 -203q15 -113 25.5 -178t33.5 -160t54 -170v2q9 -25 25 -53q61 -92 49 -111q-9 -13 -105 -8h-16 q-11 1 -21.5 13.5t-22 38.5t-16.5 39t-16 44v-2q-6 24 -12 39l2 -2q-51 121 -82 244q-39 226 -39 430z" />
<glyph unicode=")" horiz-adv-x="546" d="M90 1624q58 9 137 6q17 -47 54 -127l36 -88q32 -77 60 -239q29 -208 29 -392q0 -76 -7 -186q-27 -287 -118 -516l-11 -27v-2q-1 -4 -5 -14t-6 -14.5t-5.5 -13.5t-6.5 -14t-7 -12t-7.5 -11t-8.5 -8.5t-10 -7t-11 -3.5q-39 -3 -92 4q-6 0 0 18q49 162 100 345 q20 72 34 157.5t20 144.5t14 156q4 56 -1.5 121.5t-13 109t-22.5 119.5l-23 113q-15 108 -57 221q-4 12 -29 62q-40 73 -43 98z" />
<glyph unicode="*" horiz-adv-x="690" d="M88 1419v6l8 5l129 106l-121 20h-2v5q7 57 25 92l-2 2q2 0 4 2l-2 -4l16 -4q74 -21 107 -21q5 21 -1.5 56.5t-6.5 41.5q0 2 2.5 4t30 7t79.5 10q1 0 3.5 1t4.5 1q22 -95 39 -127l86 57q9 -11 34 -35t34 -38q2 -2 0 -4q-52 -44 -66.5 -57.5t-21.5 -28.5q73 -60 87 -53l1 1 q-29 -74 -41 -90q-3 -5 -119 53q-2 -46 2 -87l4 -40v-4q-2 0 -7 -1t-7 -1q-8 -1 -23 -3.5l-21 -3.5t-17 -2t-15 -0.5l-12 1.5t-10.5 4.5t-7 8t-6 11t-2.5 15.5t-1 21l11 65q-27 -16 -59.5 -45.5t-59.5 -38.5q-3 -8 -6 2v-2l-37 53zM487 1679v2q5 3 5 2t-5 -4z" />
<glyph unicode="+" d="M94 711q0 18 82 18h21l133 8q-15 111 -15 174v56v-2q31 16 54 16q27 0 41 -14q1 -17 2.5 -40t4 -80.5t-0.5 -62.5l-2 -47q8 -3 17 -3t45.5 2.5t64.5 2.5q22 0 61 1t53 1h9q4 -32 4 -67q0 -45 2 -45q-78 -15 -248 -11q12 -74 12 -141q0 -51 2 -74q0 -13 -6 -20.5t-14 -7.5 q-25 0 -35 -2q-9 0 -21 -4q-22 -4 -22 10q0 17 -2 53t-2 55q0 74 -4 131q-37 -2 -82 -2h-62q-63 0 -90 -2q-4 63 -2 97z" />
<glyph unicode="," horiz-adv-x="358" d="M94 111q5 37 43.5 56t75.5 -1q47 -37 51 -84q4 -76 -43 -107q-2 -1 -14.5 -8t-24.5 -11.5t-20 -2.5q-13 21 -10 33q3 2 12.5 5t19.5 7q27 14 27 45q-38 -26 -80 -0.5t-37 68.5z" />
<glyph unicode="-" d="M102.5 673.5q3.5 30.5 16.5 28.5l51 -8q8 0 30.5 -1t35.5 -1h397q5 -2 2.5 -64.5t-4.5 -64.5q-7 2 -30.5 2t-55 -0.5t-78.5 2.5l-129 8q-190 9 -219 7q-10 -1 -15 30t-1.5 61.5z" />
<glyph unicode="." horiz-adv-x="335" d="M97.5 72q-13.5 37 4.5 71t58 39q-2 -2 -6 -2h4q56 8 77 -43q19 -45 -4 -85q-26 -46 -81 -29q-39 12 -52.5 49z" />
<glyph unicode="/" horiz-adv-x="890" d="M90 8q26 117 281.5 818.5t271.5 709.5q18 8 53 4q33 -2 51 -12t7 -35v-10q-6 -9 -6 -19q-34 -110 -278.5 -777t-256.5 -671q-18 -3 -59 -3.5t-64 -4.5z" />
<glyph unicode="0" horiz-adv-x="954" d="M82 1032q0 123 12 207q3 29 12.5 56t19.5 44t32 52q42 62 190 75q4 0 11.5 2t11.5 2q5 0 36.5 3.5t47.5 3.5q61 0 104 -25l31 -16q43 -19 65 -41q105 -89 129 -283q14 -120 17 -260q2 -69 20 -272q0 -18 1 -49.5t1 -47.5q0 -103 -8 -194q-6 -64 -25 -109t-61 -90 q-33 -34 -96.5 -56.5t-126.5 -29.5q-74 -9 -147.5 8t-133.5 64.5t-80 116.5q-15 59 -22 159q0 3 -2 34t-4 46l-8 60q-17 191 -17 196q0 47 -4 137q-6 105 -6 207zM207 902q1 -41 3 -91.5t3 -77.5q4 -52 8 -151q4 -50 4 -86q1 -13 3 -65t4 -72.5t5.5 -57t10.5 -59.5t16 -39 l33 -23q24 -21 42.5 -31t49.5 -14q51 -14 100 -14q50 0 84 14q117 50 117 227q0 218 -12 324q-6 63 -6 188q0 85 -6 164q-1 21 -7.5 61.5t-7.5 51.5l-10 55q-4 25 -14.5 47t-23 35.5t-24.5 23t-20 13.5l-8 4q-135 6 -268 -37q-76 -76 -76 -313q-1 -36 0 -77z" />
<glyph unicode="1" horiz-adv-x="430" d="M41 1251q10 27 68 111q46 68 65 113q8 4 31 4q45 0 78 -13v-137q-15 -241 -15 -500q0 -147 4 -389q4 -266 4 -432q-24 -4 -45 -4q-26 0 -36 2q-9 301 -9 496q0 39 1 115.5t1 115.5l5 596l-52 -86q-23 -39 -26 -39q-17 6 -74 47z" />
<glyph unicode="2" horiz-adv-x="858" d="M68 1155q0 90 50.5 171t110.5 106h-2q71 30 150 30q144 0 256 -125q67 -78 67 -215q0 -78 -22 -157t-53 -131q-20 -49 -51.5 -99.5t-56 -81.5t-68.5 -84q-6 -7 -29.5 -36t-33.5 -41.5t-27.5 -36t-30.5 -44t-25 -42.5l2 2l-14 -23q-23 -38 -35 -61.5t-21.5 -66t-3.5 -83.5 q71 -18 166 -18q45 0 119 4q56 6 105 6q39 0 77 -6q7 -19 7 -88q0 -39 4 -66q-5 5 -122 10t-227 5q-235 0 -247 18q-1 10 -4 41.5t-3 46.5q0 5 5 55q9 85 30.5 157t61 141t69.5 111.5t88 117.5l97 127q49 66 83.5 142t34.5 142q1 111 -63 194t-143 83q-51 0 -94.5 -42 t-69.5 -130q0 -5 -1 -15t-1 -14q-5 -44 -17 -51q-2 0 -22 -1t-35 -1q-51 0 -55 -2q-6 42 -6 51z" />
<glyph unicode="3" horiz-adv-x="917" d="M81 1408.5q0 13.5 7 39.5q143 -2 430 -2q129 0 195 8l-8 -76q-27 -11 -250 -364q75 -13 134 -50t96 -87.5t60.5 -116.5t33 -132t9.5 -139q0 -86 -38.5 -192.5t-90.5 -173.5q-51 -54 -114 -91t-125 -30q-280 28 -311 340q19 5 55.5 8.5t52.5 7.5l8 -10v-2 q2 -52 19.5 -99.5t56 -82.5t90.5 -35q49 0 90.5 25.5t68.5 65.5t46.5 90t28 98.5t8.5 91.5q0 225 -98 323.5t-322 98.5q5 18 29 34q25 38 79.5 112.5t86.5 130t57 124.5q-71 1 -194.5 -2.5t-180.5 -3.5q-1 11 -5 44.5t-4 47z" />
<glyph unicode="4" horiz-adv-x="960" d="M76 487q145 289 261 536.5t138 313.5q32 93 55 93l101 -3l14 -399q0 -20 1 -51.5t1 -42.5v-336q41 -6 74 -2q6 0 18 1.5t19.5 2t16.5 0.5t14.5 -1t7.5 -3v-86q-1 -7 -11.5 -8t-31.5 1.5t-31 2.5q-7 0 -20.5 0.5t-21 0.5t-16.5 -1t-14.5 -5.5t-7.5 -11.5 q-9 -26 -14.5 -215.5t-3.5 -248.5q0 -6 -1 -9.5t-4.5 -5.5t-5.5 -3t-10 -3h2l-74 -4q1 54 6 136t9 140.5t3 119.5t-11 96q-1 0 -221.5 0.5t-241.5 -5.5zM258 580h51q148 0 230 8q18 68 18 305q0 24 3 129t0.5 172t-13.5 106q-72 -165 -183.5 -440.5t-105.5 -279.5z" />
<glyph unicode="5" horiz-adv-x="864" d="M94 324q0 16 84.5 24.5t106.5 -0.5q-2 -23 2 -76q3 -70 41 -107.5t104 -27.5h-2q34 3 61.5 18t44.5 34.5t29 52t18 57.5t9 65t3.5 60.5t0.5 56.5v11v22q0 93 -25 197.5t-75 160.5q-73 78 -205 78q-62 0 -115 -20q-20 -4 -20 -10q-9 47 -25 401q0 10 -1 23.5t-1 17.5v12 q-2 34 5.5 52t31.5 18q25 -2 108 -2t165.5 1t157 2t75.5 1q-6 -19 -2 -64q3 -21 -6 -31t-19.5 -11t-36.5 -1h-14q-70 0 -107 2q-41 2 -120 2q-52 0 -72 -4q-40 -4 -48.5 -22t-2.5 -49l8 -25l8 -78l14 -98q4 0 27 -1t31 -1q44 -2 63.5 -3t56 -5.5t56.5 -12t49.5 -22 t49.5 -34.5t42.5 -50.5t42.5 -69.5q32 -62 43 -196q0 -5 1 -14.5t1 -14.5q2 -27 2 -90q0 -73 -7 -142.5t-26.5 -146.5t-50.5 -133.5t-84 -93.5t-122 -37q-147 0 -226.5 72t-118.5 213q0 9 -6 18q-5 17 -4 21zM672 1446h4h-4z" />
<glyph unicode="6" horiz-adv-x="858" d="M47 778q0 388 96 553q28 48 78 73.5t109 25.5q30 0 67 -9h-2q69 -19 129 -59t86 -94q21 -47 29 -117q0 -10 4 -14q-49 -7 -98 -7q-43 0 -45 -4q2 63 -27 111t-88 66q-46 16 -82 -12t-55.5 -78t-32 -115t-16 -115.5t-2.5 -87.5q105 90 178 90q50 0 90 -12q43 -14 96 -62 t72 -92q55 -125 55 -280t-60 -301.5t-163 -229.5q-33 -26 -111 -26q-100 0 -159 51l2 -2q-102 89 -117 227q-33 266 -33 520zM183.5 392.5q-0.5 -26.5 2 -53.5t5.5 -54t10.5 -51.5t17.5 -45.5t26 -36.5t36 -24t48 -8t62 11.5q43 14 76 56t51.5 99.5t27.5 117t9 118.5 q0 73 -14 119h2q-23 93 -67 139.5t-95 46.5q-78 0 -139.5 -100.5t-57.5 -232.5v-52q0 -23 -0.5 -49.5z" />
<glyph unicode="7" horiz-adv-x="946" d="M78 1491q160 10 639 10h26q37 0 45 -4q7 -7 7 -27l14 -32l-2 2q4 -14 -33 -41l-213 -240q-37 -58 -45 -82q-33 -67 -56.5 -150.5t-33 -136t-25.5 -155.5q0 -4 -2 -13t-2 -12q-17 -138 -24 -216.5t-7 -183t15 -194.5q-5 0 -25 -4q-30 -5 -51 -14q-8 -4 -45 0q-12 16 -8 37 q-3 163 10 341t29 288q32 175 65 303l27 75q17 44 37 74q81 154 227 289q-411 0 -450 2h-23q-71 0 -80 2q-1 0 -6 21v-3q0 1 -1 4.5t-1 4.5q0 16 -4 28z" />
<glyph unicode="8" horiz-adv-x="935" d="M80 430q0 75 31 207h-2q3 11 11 44t11 45t11.5 39.5t15 40t18 34t24.5 35t31 29t39 28.5q-116 93 -116 217t68.5 209.5t189.5 85.5q47 0 102 -12t92 -33q40 -21 74.5 -87t34.5 -112q0 -60 -36.5 -153t-80.5 -123l35 -15q166 -89 166 -342q0 -131 -36 -275t-110 -216 q-76 -76 -125 -76q-27 0 -68.5 -2t-64.5 -2.5t-55.5 3t-54.5 12.5t-46.5 27.5t-45.5 47.5q-113 118 -113 344zM190 389q0 -57 11 -106.5t35 -93t69 -68.5t107 -25q46 0 83.5 11.5t62.5 28.5t45 47t31 55.5t20 66.5t12.5 67t9 70.5t8.5 65.5q0 57 -20 144t-48 124v-2 q-32 39 -77 62.5t-93 23.5q-54 0 -97.5 -22.5t-70 -62.5t-45 -86t-27.5 -103t-12.5 -102.5t-3.5 -94.5zM256 1190q0 -70 56.5 -130.5t125.5 -60.5q70 0 114 60.5t44 132.5q0 70 -44 120t-114 50t-126 -50.5t-56 -121.5z" />
<glyph unicode="9" horiz-adv-x="839" d="M86 1053q0 137 23 217q15 67 72.5 124t125.5 70q70 17 115 17q103 0 178 -72q54 -65 80.5 -222t26.5 -356q0 -335 -52 -620q-19 -94 -95.5 -154.5t-172.5 -60.5q-59 0 -119 31q-76 45 -102 98q-22 34 -32.5 52.5t-21.5 47.5t-12 56q20 4 97 18l18 4q17 -42 18 -47 q22 -67 39 -94q57 -60 119 -60q38 0 80 27q46 31 73 138t27 204q0 51 -18 109q-50 -9 -90 -27h2q-64 -21 -94 -18q-12 1 -23 4q-166 37 -221 157q-21 55 -33 183q-8 76 -8 174zM193 1030q0 -94 23 -179t63 -130q33 -36 83.5 -49.5t94.5 0.5q49 20 73 59v-2q50 65 50 332 q0 38 -2 67.5t-7 67.5t-17 66t-30.5 54.5t-48.5 41.5t-69 18q-72 0 -122 -51t-70.5 -126.5t-20.5 -168.5z" />
<glyph unicode=":" horiz-adv-x="350" d="M96 662q14 45 70 59q1 0 2 -1t2 -1l-2 2h2q17 3 35 -9t24 -28q10 -22 5.5 -46.5t-21.5 -39.5q-5 -6 -18 -15t-21 -10q-36 -2 -62 26.5t-16 62.5zM111.5 46q-7.5 37 7.5 63q16 26 47 32.5t53 -14.5q13 -13 23.5 -37.5t9.5 -46.5q2 2 4 2q0 -3 -3 -11.5t-5 -10.5 q-12 -24 -46 -33t-57 4q-26 15 -33.5 52zM164 721h6h-6z" />
<glyph unicode=";" horiz-adv-x="342" d="M96 629q-4 15 3.5 38.5t19.5 34.5q13 9 37 11.5t37 -2.5q27 -7 39 -35t1 -53q-3 -12 -13.5 -24.5t-22.5 -18.5q-13 -7 -29.5 -10.5t-30.5 1.5q-12 4 -24.5 18.5t-12.5 20.5v2q0 2 -0.5 4.5t-1.5 6t-2 6.5zM97 52.5q-11 39.5 9 66.5q19 29 51 29.5t58 -21.5t33 -53 q7 -48 -10 -88q-8 -24 -21 -37q-27 -37 -47 -23q-3 21 21.5 50.5t19.5 56.5q-1 -1 -10 -8t-11.5 -8.5t-13 -7t-15.5 -4t-18 0.5q-35 7 -46 46.5z" />
<glyph unicode="&#x3c;" horiz-adv-x="690" d="M88 813q162 222 260 377l-2 -2q13 21 19 29q45 77 75 102l103 -39q-5 -11 -24 -39.5t-53.5 -79t-57.5 -84.5q-181 -261 -179 -297q0 -34 118.5 -230t172.5 -265q-6 -11 -27 -40.5t-24 -33.5q-23 -12 -53 22q-18 20 -45 59t-52.5 79.5t-58 93.5t-53 88t-45 76.5 t-27.5 46.5l-14 20h2q-54 87 -35 117z" />
<glyph unicode="=" horiz-adv-x="1222" d="M95.5 840.5q-0.5 26.5 9.5 58.5t24 33q41 2 113 2q38 0 117.5 -2t115.5 -2q117 -6 248 -6q3 0 52.5 1.5t91 1.5t112 -6.5t135.5 -19.5q24 -5 25 -47t-6 -55q-39 0 -138 1t-157 1q-368 8 -732 8q-10 5 -10.5 31.5zM119 406h2q-2 0 -2 63q0 35 4 47q31 8 295 6.5t307 1.5 q389 0 389 17q8 -37 8 -103v-16q0 -41 2 -43q-744 0 -1005 27z" />
<glyph unicode="&#x3e;" horiz-adv-x="671" d="M92 1284q11 11 39.5 22t46.5 11q6 6 102 -137.5t183 -290.5t72 -152q-30 -45 -89.5 -141.5t-120.5 -198.5t-67 -112q-2 -2 -5.5 -9t-7.5 -16.5t-5 -11.5q-5 -19 -13 -23q-5 -3 -11 -4t-13 1t-12.5 3.5t-14 6.5t-13 7.5t-14 8.5t-12.5 8h2q-2 2 -14 8q4 22 207 352 q55 83 59 105l-2 -2q13 36 -82 209.5t-162 245.5l-22 40q-26 50 -31 70z" />
<glyph unicode="?" horiz-adv-x="851" d="M51 1116q0 47 18.5 105t34.5 88q41 74 107 114.5t141 40.5q117 0 221 -94q46 -42 76 -104t33 -125q2 -80 -12.5 -154t-35.5 -127.5t-54 -105.5t-59.5 -83t-59.5 -65q-3 -3 -24 -23.5t-27 -27t-20 -22.5t-21.5 -28t-12.5 -24l2 2q-12 -19 -12 -69q0 -5 8 -113q0 -2 1 -6.5 t1 -5.5q1 -10 -3 -16.5t-15.5 -9t-20 -3t-26.5 -0.5h-6h-25q-49 0 -49 86q0 63 16 109q45 153 217 313q51 49 81 89.5t42 90.5q8 27 8 74q0 86 -30 160q-14 40 -27 66t-40.5 53.5t-61.5 35.5v-2q-50 15 -103 1t-84 -54v2q-20 -24 -29.5 -54.5t-8.5 -58t2 -57.5q0 -3 1 -11 t1 -11q3 -22 -53 -27.5t-74 4.5q-17 7 -17 47zM214.5 81.5q0.5 25.5 16.5 48t43 28.5h2h-2q1 0 5 1t6 1q-2 -2 -9 -2h7q56 8 77 -43q18 -44 -5 -85q-26 -48 -83 -30q-28 9 -43 32.5t-14.5 49z" />
<glyph unicode="@" horiz-adv-x="1304" d="M33 354v53q-1 44 0 89.5t1.5 89t5 87.5t10 85.5t16.5 82t25.5 77.5t35.5 72.5t47 67t61 60t76 51.5q105 54 240 54q112 0 207 -45v4q101 -51 176 -156t102 -223q31 -138 31 -256q0 -105 -27 -271q-9 -56 -33 -113t-69.5 -104t-99.5 -51q-28 -4 -50.5 -1.5t-36 2t-25 6 t-17 10.5t-12 14.5t-10 18.5t-11 24t-14.5 29q-74 -52 -125 -52q-48 0 -111 39q-77 54 -113.5 169t-36.5 257q0 167 48 295q26 63 83 108t115 42q8 -1 29 -3.5t30.5 -5t24.5 -7t25.5 -13t19.5 -20.5q7 35 13 45q12 12 38 12t46 -5t20 -7l-4 -160q-2 -55 -2 -193 q0 -64 -4.5 -165t-2.5 -163t15 -124q17 -29 40 -37t45.5 2t42 28t32.5 40q31 49 44 208.5t5 231.5q-38 359 -242 461q-93 39 -194 39q-83 0 -157.5 -28t-125.5 -83q-21 -22 -37.5 -45t-29 -49t-22 -46.5t-16 -52t-11 -49.5t-7.5 -55t-4.5 -53.5t-4 -59.5t-3.5 -59 q-6 -67 -6 -184q0 -236 123 -359q50 -48 113.5 -81.5t127.5 -37.5q29 -2 40.5 -3.5t30.5 -6.5t26 -13.5t14 -23.5t8 -37q1 -14 -5 -17t-22 -3h-26q-77 -2 -230 70l-28 10h2q-260 112 -260 487zM399 487q0 -91 38 -183q46 -110 108 -99q44 8 90 78l4 483q-46 65 -117 53 q-57 -9 -90 -104.5t-33 -227.5z" />
<glyph unicode="A" horiz-adv-x="757" d="M10 2v13q0 85 47 227q3 12 18 61t21 74q13 67 60.5 327t84 425t83.5 323q4 12 23 12q3 0 5 1q17 0 35 -3q3 0 14.5 -3t18.5 -3l96 -655q2 -9 50.5 -240.5t77.5 -378.5q28 -142 28 -163q0 -9 -8 -17h-27q-54 0 -70 4q-74 352 -80 395q-6 1 -47 4t-51.5 4t-43.5 2.5 t-50.5 0.5t-42.5 -3.5t-47 -7.5q-27 -87 -49.5 -185t-34.5 -153t-17 -63q-24 -4 -45 -4q-27 0 -49 6zM219 506q24 -2 56.5 -2t73.5 2t70 2t48 -2q-9 102 -51 374q-42 268 -67 267h-1l-35 -162q-74 -369 -94 -479z" />
<glyph unicode="B" horiz-adv-x="768" d="M88 315q0 261 2 392v356q0 252 8 379q47 8 54 10l55 12q8 1 38.5 3.5t45.5 2.5q39 0 59 -4q61 -3 142 -24q32 -13 83 -82q41 -71 41 -154q0 -81 -30.5 -157.5t-83.5 -122.5q52 -53 81.5 -95.5t44 -91.5t18 -91t3.5 -120q0 -125 -24 -276q-34 -161 -164 -203v2 q-58 -41 -205 -52q-25 -2 -39 -2q-17 0 -14 3h-103q-8 20 -8 86v33q-2 33 -2 96q0 17 -1 50t-1 50zM205 485q0 -170 22 -335l76 4q64 4 104 14.5t66 42.5v-2q5 5 12.5 16.5t19 39t20.5 61.5t14 90q3 35 3 73q0 23 -1 46q0 47 -1 72.5t-7 71.5t-23.5 78.5t-44.5 51.5 q-77 25 -131 25q-45 0 -125 -17q0 -129 -2 -178q-2 -53 -2 -154zM207 1370l4 -145q0 -8 8 -230q38 -21 95 -23h16q46 0 76 13q51 25 74 82q19 47 19 94q0 10 -1 21q-5 58 -27 108.5t-53 67.5q-40 22 -86 22q-36 0 -66 -6z" />
<glyph unicode="C" horiz-adv-x="841" d="M72 428q0 67 2 104v41q2 53 2 162q0 298 37 453q20 72 54.5 132.5t92 107t127.5 55.5q97 0 197.5 -69t109.5 -159l-30 -12q-4 -2 -17.5 -8.5t-19.5 -9t-17 -6t-20.5 -5t-18.5 -0.5l-10 29q-17 67 -63 98q-53 29 -90 29q-36 0 -89 -33q-69 -61 -93.5 -148t-28.5 -200 q-11 -338 -11 -368v-123v-40v-49q2 -35 8 -84t24 -88t46 -67q32 -34 76 -50q25 -9 50 -8q19 0 36 5q64 23 115 119q7 14 38 14q12 0 29 -2l31 -6h10q35 -5 41 -11q4 -4 -24 -36q-53 -83 -105.5 -134t-120.5 -59q-17 -2 -35 -2q-50 0 -102 19q-70 26 -123 75 q-64 60 -86 141.5t-22 192.5z" />
<glyph unicode="D" horiz-adv-x="817" d="M86 0l14 1491q35 11 91 11q16 0 34 -1q101 0 172 -10q175 -19 219 -92q50 -72 58 -252q0 -5 1 -17t1 -16q4 -141 4 -247q0 -43 -1 -79q-2 -128 -7.5 -271.5t-5.5 -176.5q0 -71 -13 -111q-17 -51 -73 -127q-27 -33 -69 -53t-74.5 -26.5t-88.5 -12.5q-225 -10 -262 -10z M186 225q0 -7 7 -116q28 -4 58 -4q77 0 169 24h-2q2 0 6 1t6 1q58 12 84.5 51.5t38.5 106.5q10 50 14 198q3 291 15 543q1 16 1 31q0 104 -24 188q-42 131 -219 131q-54 0 -129 -14l-14 -864v-15q0 -47 -5 -127q-6 -94 -6 -135z" />
<glyph unicode="E" horiz-adv-x="768" d="M98 760q0 83 -1 156q0 486 9 526l-2 20q334 18 406 20h25q53 0 81 -7q15 -75 17 -84h-2q3 -10 -8.5 -12.5t-42.5 -2.5q-187 -3 -359 -16q-1 -49 -4.5 -162.5t-5.5 -226.5q-1 -56 -1 -109.5t1 -103.5h14q69 0 137 8q75 10 130 10q26 0 38 -2q25 -117 27 -119 q-101 -9 -194.5 -11.5t-149.5 -6.5l27 -518q15 -6 60 -6q24 -1 54 1q92 4 103 5h112h27h53q5 -11 5 -22v-6q0 -10 -2 -23q-2 -18 -1 -31v-33q-35 -4 -186 -4h-352q-13 124 -15 760z" />
<glyph unicode="F" horiz-adv-x="675" d="M90 590q0 153 4 457v268q0 108 8 149q15 4 199 11t193 10h-2q18 2 28 2q4 -1 8 -1q10 -2 12.5 -9t1 -21.5t1.5 -38.5v-18q2 -8 2 -37q-86 2 -162 2h-49q-96 -1 -133 -10v-379q0 -146 8 -266q19 -7 53 -7q27 0 64 4q47 6 73 6q20 0 27 -3q0 -31 2 -41q3 -29 0 -54 q-27 -2 -47 -2q-15 0 -25 1q-24 3 -62 1t-87 -14q0 -86 0.5 -159t-0.5 -133q-1 -118 -2.5 -178.5t-1.5 -80.5q0 -21 2 -29v5q2 -6 2 -19q-46 -4 -105 -4q-12 507 -12 588z" />
<glyph unicode="G" horiz-adv-x="860" d="M82 983q0 82 10 143q0 2 1 12t1 13q12 74 35 111q43 67 121 104q88 43 162 43q81 0 166 -45q65 -37 104 -82l-2 2q20 -20 27 -45q-55 -50 -78 -63q2 3 0 5t-6 4t-5 3l5 -2l-9 4q-34 18 -61 41q-65 48 -111 61q-19 4 -39 4q-24 0 -51 -6q-47 -11 -82 -39q-67 -53 -67 -171 v-13q1 -6 1 -22q0 -47 -5 -177q-4 -132 -4 -196q0 -94 14 -213l4 -86q0 -59 6 -111q12 -104 78 -141h-2q47 -29 102 -29q79 0 107 14q25 12 43.5 34t28 40.5t17.5 53t10 49.5t7 53q1 4 3 18l3 19q5 38 4.5 55t-7 58.5t-7.5 66.5q-28 0 -71 -3q-29 -2 -51 -2h-21 q-29 2 -64 11q-14 2 -14 59q0 29 -2 39h32q71 0 136 3q79 5 97.5 7t62.5 -3q12 -49 12 -129v-62q0 -12 1 -37t1 -39q0 -55 -8 -104q-28 -207 -148 -266l2 2q-62 -29 -137 -29q-91 0 -158 33q-110 51 -163 278q-21 105 -21 236v180l-6 111q-4 98 -4 145z" />
<glyph unicode="H" horiz-adv-x="856" d="M92 0q39 909 39 1370q-3 26 -3 45q0 35 11 41q23 6 76 6q20 -3 23 -14q-1 -35 -4 -171.5t-5 -251t-2 -144.5q0 -132 2 -185q29 0 113 -4t134 -5h19q38 0 72 3l33 -2l33 653v31q-2 18 -2 80q32 5 62 5q3 -1 6 -1q33 0 34 -6q3 -24 3 -71t-3 -119l-57 -1252q-45 -8 -75 -8 h-11q-12 112 -12 192v7q0 82 7 213q5 112 5 164v16q-17 -1 -36 -1q-48 -1 -112 5q-89 8 -127 8q-16 0 -48 -3t-46 -3q-18 -584 -22 -598q-20 -2 -62 -2t-45 2z" />
<glyph unicode="I" horiz-adv-x="382" d="M61 61q0 16 5 56q0 5 1 12t1 8q0 1186 2 1223q0 2 -1 14t-1 17l-5 59q25 10 89 10h16q39 0 43 -6l-4 -88q-8 -58 -8 -86q0 -234 -9 -362q-1 -11 -2 -70.5t-1 -139v-173.5v-170t0.5 -133t0.5 -58q0 -7 1 -19t1 -18q0 -10 1.5 -31.5t1.5 -31.5q0 -33 -5 -58 q-24 -11 -112 -16q-15 15 -15 61z" />
<glyph unicode="J" horiz-adv-x="872" d="M92 680q2 2 4 0h-4zM96 680q3 0 28 1t45.5 1.5t41.5 -0.5q6 -47 6 -145q0 -65 1.5 -99.5t8.5 -88.5t25 -97t47 -82q43 -49 100 -49q77 0 138 67q41 43 57 121l-4 -6l10 29h-2q14 28 21 112q6 73 6 177v30q-1 124 -4.5 236.5t-8.5 254t-6 204.5q0 58 10 102q3 24 19 31 q18 6 45 6h12q3 0 14 1h10.5h7.5l15 -2.5t14.5 -6t8.5 -11.5q10 -21 11 -51v-11q0 -24 -3 -44q-5 -25 -11 -60t-7 -57q-6 -63 -6 -137v-59q4 -109 4 -244q1 -23 1 -45q0 -110 -3 -210q-2 -121 -22 -230.5t-58 -167.5q-33 -56 -100.5 -103t-127.5 -47q-69 0 -140 33.5 t-103 89.5q-64 108 -82 246v-4l-2 14q0 23 -2 39q-1 23 -2 94t-4 116.5t-9 51.5z" />
<glyph unicode="K" horiz-adv-x="849" d="M90 45v31q-2 385 -2 662q0 648 10 714q27 0 37 2q44 4 59 4h5q2 -33 2 -102q0 -18 -6 -234q-3 -95 -3 -131q0 -18 1 -20l2 -70q10 7 43.5 46t75 91t91 115.5t87.5 113t69 89.5l31 41l16 28v-2q19 27 31 27q40 4 60 4t20 -4q0 -15 -25 -55q-82 -117 -248 -328 q-17 -23 -42 -55t-39 -51t-21 -31q20 -30 41 -86l14 -31l64 -158q159 -385 160 -387q28 -67 53 -139l14 -29h-2q3 -7 9.5 -23t10 -25t7 -22t4.5 -22h-70q-53 0 -55 2v-2q-21 24 -137.5 350.5t-161.5 472.5q-17 -12 -29 -22t-15.5 -14t-8.5 -11l-6 -8q-17 -21 -35 -33 q-1 -62 -7.5 -230.5t-10.5 -308.5q-2 -80 -2 -133q0 -41 1 -67q-11 0 -25 -2q-15 -2 -23 -4q-5 -1 -10 0h-8q-10 1 -14.5 5.5t-8 14.5t-3.5 27z" />
<glyph unicode="L" horiz-adv-x="700" d="M90 550q1 447 2 834q-1 19 -1 34q0 40 9 59l90 4v-172q-1 -59 -2 -205v-44q0 -143 5 -392q6 -291 16 -547q28 -11 59 -12h13q26 0 57 3q39 4 61 3q96 -4 142 -15q4 -15 7 -46q2 -19 2 -31q0 -9 -1 -15h-31h-10q-28 0 -64 -4q-20 -2 -57 -2h-47h-96q-16 -2 -41 -2h-49 q-7 -1 -14 -1q-14 -1 -22 3q-12 4 -18 21q-8 33 -8 79v29q-2 14 -2 243v176z" />
<glyph unicode="M" horiz-adv-x="952" d="M92 311q0 42 2 72v358q0 677 15 738q2 0 10.5 2.5t13.5 3.5q24 9 39 9q4 0 8 -1q8 -7 21 -39l-2 10l4 -16q39 -111 67 -205q6 -19 21 -63t23 -68t22.5 -65.5t23.5 -66.5t21.5 -59.5t21.5 -57t19 -46t18 -39t15 -24.5q7 10 30 60t25 58l-2 -4l203 596q21 2 39 4.5t26 3.5 t16.5 2t10 1h6.5q0 -52 9 -400q17 -737 16 -823q0 -176 -7 -248q-16 -4 -63 -4q-57 0 -57 12q0 22 1 65.5t1 63.5q0 71 -4 181q0 78 -3.5 351t-3.5 335q-126 -461 -186 -539q-10 -15 -27 -17.5t-30 1.5q-12 2 -33 2q-15 33 -54 146.5t-80 213t-77 137.5q1 -27 2 -70t4 -169 t4 -208q1 -81 2 -187v-47q0 -60 -2 -60q-4 -29 -4 -94q0 -78 -8 -113q-10 -2 -33 -2q-48 0 -82 12q-1 3 -1 32v35q1 63 1 66q0 21 -1 71.5t-1 92.5z" />
<glyph unicode="N" horiz-adv-x="901" d="M92 6q6 17 6 57v11q0 21 4 71q0 5 1 19t1 18q7 123 7 221q-1 35 -1 73q0 89 5 192q6 183 6 190q0 104 8 195q1 28 3 81q2 52 3 96q0 22 0.5 43t-0.5 40q0 53 2 82v16q0 27 6 39q16 14 95 14h14l12 -41v2l12 -41v2q186 -691 336 -960q47 505 56 711q6 133 6 262 q0 13 -4 45t-4 49q4 -3 15 -1.5t15 1.5q43 0 74 -10q5 0 5 -11q0 -6 -1 -14v4q-4 -31 -4 -102q0 -4 -1 -17t-1 -20q-5 -75 -18.5 -380t-16.5 -378q1 -15 -11 -261q-11 -226 -11 -282v-8q-6 -16 -56 -16q-12 0 -28 -2t-21.5 -2t-12.5 6t-11 20q-41 173 -85 310t-76.5 214.5 t-75.5 216.5t-83 318l-41 -827q0 -39 -2 -57q-4 -74 -4 -109q0 -55 4 -82q-12 -2 -51 -2h-18q-49 -5 -58 4z" />
<glyph unicode="O" horiz-adv-x="851" d="M84 870v95q0 63 1 98.5t9.5 88.5t24.5 93q38 90 112 154q67 59 203 63h6q90 0 170 -84q19 -24 27 -28q27 -27 35 -45q13 -27 30 -93q0 -18 7 -30v2l2 -4h-2q8 -63 8 -136q0 -15 -1 -60t-1 -62q-2 -47 -2 -144v-106q0 -178 -2 -262v-68q0 -29 0.5 -52.5t-0.5 -41.5 q-1 -36 -14 -81.5t-38 -68.5l-8 -6h2q-77 -69 -125 -84h2q-66 -12 -102 -12q-46 0 -86 12q-31 0 -57 23l-31 18q-15 6 -23 14q-20 14 -35.5 35.5t-22 35t-17.5 40.5l-6 19v-3q-38 101 -54 306q-4 68 -8 200q0 7 -1 21.5t-1 21.5q-3 58 -3 97q0 19 1 34zM215 750 q0 -96 6 -187q2 -20 2 -59v-23q3 -73 7.5 -118.5t27.5 -109.5t64 -101q49 -39 129 -39q42 0 74.5 16t45.5 47q17 43 21 115q0 6 2 19t2 18q12 62 12 104q0 15 4 47l6 27q11 101 11 174q0 3 -6 168q0 4 -1 13t-1 13q-1 12 -1 26q0 29 3 69q2 23 2 73q0 113 -33 185 q-14 38 -49 64t-74 32q-36 5 -65 5h-16q-35 -2 -60.5 -18t-43.5 -36.5t-29.5 -50t-18 -59t-9 -63.5t-3.5 -63.5t-1 -58.5v-33q0 -8 -1 -25t-1 -24q-6 -73 -6 -147z" />
<glyph unicode="P" horiz-adv-x="815" d="M80 51q2 10 2 31q0 69 2 106q0 12 1 53t1 56q2 49 2 154l8 251q13 190 13 353v69q0 58 -3 101q0 15 -1 46t-1 46v33q0 70 5 96q3 3 11 5t21 4t19 3q2 0 5.5 1t4.5 1q14 1 69.5 7t82.5 6h14q191 0 262 -103q54 -77 70 -252q4 -39 4 -110q0 -52 -4 -154q0 -10 -1 -30.5 t-1 -30.5q-2 -73 -29.5 -131t-87.5 -80q-87 -25 -138 -25h-14q-36 2 -79 2q-59 0 -130 -4q-3 -21 -5 -43t-2 -35t0.5 -34t0.5 -29v-52q3 -34 3 -75q0 -24 -1 -51q0 -12 -1 -33t-1 -29q0 -107 -6 -160q0 -8 -2 -10q-54 4 -88 4q-8 0 -8 21q0 10 2 24v-2zM186 1343 q2 -80 2 -247v-426q38 -16 102 -20q27 -2 53 -1q37 1 73 3q62 6 123 16q20 38 29.5 101t10.5 99.5t1 114.5q0 41 -2 64l-7 43q-10 44 -10 71v8v17q0 32 -1.5 48t-12 38.5t-31.5 40.5q-66 55 -194 55q-45 0 -136 -25z" />
<glyph unicode="Q" horiz-adv-x="903" d="M86 504q0 12 1 36t1 38q2 18 2 57q7 246 27 418q7 42 9.5 75t16.5 113q11 68 80 141q52 57 136 86q59 21 114 21q23 0 45 -4q102 -22 174 -158q22 -48 25 -113q0 -4 1 -11.5t1 -10.5q14 -93 14 -160q-1 -23 -1 -49t0.5 -58.5t0.5 -50.5v-153q-2 -73 -18 -201 q-1 -16 -4 -45t-4 -43q0 -5 -2.5 -17.5t-2.5 -17.5q-16 -149 -45 -219l5 -31q23 -24 43.5 -44.5t31 -30.5t18.5 -18t11 -11.5t4 -5.5q-15 -9 -40 -40t-40 -38h-1q-6 0 -28 26q-24 28 -48.5 54.5t-30.5 21.5l-45 -38q-61 -21 -129 -21q-59 0 -117 25q-64 29 -114 95t-64 136 q-4 17 -7 48t-4 38l-12 90q-4 54 -4 70zM199 506q0 -208 55 -301q40 -67 118 -80q19 -3 37 -3q59 0 113 32q-10 6 -58 58.5t-48 55.5q24 24 42 42.5t24 24.5l7 7q0 -6 22 -28t48 -45.5t31 -30.5q7 21 22 191t17 239q4 118 4 186q0 29 -1 91.5t-1 94.5q0 61 -4.5 102.5 t-27 93t-64.5 83.5q-19 15 -48 26.5t-62 14.5h-10q-26 0 -46 -14q-49 -37 -81 -86.5t-46.5 -111t-19 -99t-7.5 -99.5q0 -8 -2 -25t-2 -24q-10 -100 -10 -242q0 -102 -2 -153z" />
<glyph unicode="R" horiz-adv-x="825" d="M90 344q0 1125 29 1145q11 8 24 8q21 0 27 2h-4q86 8 123 8q39 0 59 -2q170 -6 258 -75q27 -26 47 -101t28.5 -164t12.5 -152t4 -98q0 -59 -9 -109.5t-18 -78t-30.5 -58t-28.5 -37t-30 -27.5l-7 -7q74 -118 94.5 -206t20.5 -242v-146q-6 -7 -16.5 -1t-18.5 7h-26 q-37 0 -45 2q-4 36 -4 51q0 9 1 28t1 28v61q0 8 1 37t1 47q0 106 -66 250q-50 47 -147 47q-66 0 -160 -22q2 -21 2 -55q-1 -18 -1 -38q-2 -62 -5.5 -139t-8 -146t-6.5 -115.5t-2 -45.5h-14q-17 3 -39 5.5t-33 4t-12 4.5q-2 8 -2 330zM203 967q0 -172 12 -299h133 q199 0 238 65q14 12 14 96t-5 217.5t-11 178.5q-9 67 -37 98t-107 55h4q-65 19 -122 19q-29 0 -113 -15q0 -95 -4 -227q-2 -61 -2 -188z" />
<glyph unicode="S" horiz-adv-x="884" d="M94 1161q0 39 12.5 90.5t28.5 85.5q51 74 139 118q78 39 156 39q11 0 21 -1q79 -11 120 -33h-2q76 -47 99 -92l18 -33h-2q49 -104 49 -130q0 -5 -2 -7v2q-9 -9 -41.5 -17.5t-62.5 -8.5h-29q-10 12 -10 32q-3 26 -13 43q-24 53 -57 82q-72 47 -135 47q-65 -3 -119 -61 q-38 -47 -54 -107q-10 -38 -11 -75q0 -23 4 -45q11 -69 94 -144l-2 4l18 -22q47 -52 146 -131q106 -93 139 -127q129 -129 158 -248q6 -38 6 -64q0 -32 -6 -73q-1 -7 -6 -33t-8 -36.5t-9.5 -31t-15.5 -35.5t-21 -30h2q-28 -33 -77.5 -64t-94.5 -43h2q-74 -12 -112 -12 q-49 0 -94 10h2q-43 15 -88 49t-72 70q-26 36 -44 86q-13 36 -13 63q0 10 2 19q2 11 9 17t14 7.5t20 2.5q2 0 6 1t8 1q21 2 38 2q25 0 38 -4q3 -80 57 -142.5t133 -62.5q42 0 70 12h-2q67 25 99 76t32 115q0 80 -43 155q-46 80 -108 147t-156 152l-43 35q-114 90 -150 170 q-37 79 -37 180z" />
<glyph unicode="T" horiz-adv-x="768" d="M84 1518q63 9 181 9h25q136 -1 217 -3h22q66 0 108 10q-1 -15 -1.5 -30.5t-1 -24.5t-1 -18.5t-0.5 -14.5t-1 -10t-2 -7t-3.5 -4.5t-5.5 -3.5t-7 -2q-16 -1 -32 -1q-32 0 -66 4q-38 5 -58 6q-8 0 -14 -1q0 -27 -2 -104t-2 -102q-1 -42 -12.5 -408t-11.5 -387 q0 -344 -2 -371v-55h-14q-31 0 -83 6q-3 0 -9 1t-9 1v31q0 14 1 30t2.5 36.5t2.5 31.5q3 64 3 102q0 22 -1 35q-2 18 -2 56q3 58 3 192v131v125q0 122 -1.5 240t-1.5 127v158q0 17 1 62t1 62l-24 -2q1 1 -43.5 -0.5t-94.5 -3.5t-57 -2q3 17 -1 53q-3 29 -3 41v5z" />
<glyph unicode="U" horiz-adv-x="911" d="M86 725v57q0 140 6 269q8 153 10 241v97q0 10 -4 30q-8 38 0 47q24 7 45 7q40 0 70 -9v-41q0 -62 -12 -194v2q-10 -143 -11 -170q-4 -126 -4 -193q0 -135 9 -252q2 -79 18 -217q0 -2 1 -7.5t1 -8.5q13 -118 37 -168q25 -49 72.5 -74.5t105.5 -25.5q67 0 123 32 q102 61 111 256v70q0 31 -5 189q-2 107 -10 306t-10 255q-5 103 -8 139q0 17 -4 37q-8 31 -8 50q0 9 2 15q22 8 65 13q5 0 12 1l7 1l8 2l22 2q13 -41 17 -111q0 -29 2 -41v2q19 -240 22 -454q0 -13 1 -42t1 -44q0 -21 1 -66t1 -68q0 -145 -12 -243q-28 -266 -170 -361 q-72 -47 -156 -55q-14 -1 -28 -1q-70 0 -134 31q-78 37 -120 113v-2q-19 30 -35 113q0 2 -1 7t-1 7q-33 188 -37 457z" />
<glyph unicode="V" horiz-adv-x="882" d="M92 1462q0 13 2 19q38 0 62 6l57 10q15 -165 64 -449t99 -498q46 -194 63 -194q2 0 3 2q29 96 75.5 380.5t82 519t39.5 235.5q43 0 61 2q25 3 42 3q9 0 16 -1q0 -32 -21 -76q-102 -594 -241 -1427l-64 4q-2 4 -63 268l-29 121q-6 31 -15 63.5t-22 76t-18 59.5 q-21 72 -47 178q-145 713 -146 698zM213 1497q0 2 0.5 2t1.5 -2h-2z" />
<glyph unicode="W" horiz-adv-x="1394" d="M92 1462q5 3 15 3.5t32 -2.5t41.5 -6.5t43 -7t36.5 -5.5q4 -20 4 -70q0 -75 2 -112q13 -131 64 -407.5t102 -500.5q2 -26 13 15q14 51 101 505q71 376 89 394q14 13 52.5 7.5t51.5 -18.5q22 -19 47 -150t45 -279t49.5 -282.5t59.5 -160.5q15 12 31 65.5t34.5 162 t29.5 181t32 222.5q66 480 66 481q29 0 41 2q20 1 39 1q56 0 96 -11q-1 0 -19 -76t-48 -221t-56 -289q-29 -163 -71.5 -399t-65.5 -362.5t-21 -123.5q-9 -18 -80 -18q-27 0 -47 4q-7 19 -45.5 227t-83.5 407t-74 226q-12 -19 -30 -88.5t-35.5 -154t-38 -192t-34.5 -185 t-27 -152.5l-13 -74q-4 -4 -16 -10q-12 -3 -44 -3t-46 3q-18 18 -94.5 315.5t-110.5 452.5q-20 101 -65.5 367.5t-51.5 318.5z" />
<glyph unicode="X" horiz-adv-x="890" d="M90 1483q13 7 53 7h5q44 0 53 -17l-2 2q89 -239 135 -372.5t84 -268.5q14 6 32 56t35.5 114.5t18.5 66.5q7 22 33.5 101t40 117.5t33.5 92t34 84.5q33 9 62 9q13 0 26 -2q24 -4 24 -16q0 -3 -1 -5q-57 -158 -139 -388q-109 -302 -129 -364q-17 -51 -18 -72q0 -4 1 -7 q11 -42 57 -152q19 -51 61.5 -165.5t70 -191.5t36.5 -110h-32q-5 0 -17.5 -1t-17.5 -1h-43q-14 35 -92 246l-80 241q-21 -33 -37.5 -72t-36 -98t-29.5 -84q-55 -172 -86 -229q-6 -4 -23.5 -2t-21.5 2h-37q-24 0 -24 -4q15 42 43 115t41 110q113 283 145 393q7 30 -131 451z " />
<glyph unicode="Y" horiz-adv-x="862" d="M88 1483q0 14 54 21q16 1 29 1q28 0 36 -10l26 -78q42 -135 115 -318.5t96 -195.5q11 12 90.5 266.5t92.5 321.5q4 2 35 -2h36q35 0 43 -4q-4 -3 -12 -23.5t-22 -59.5t-17 -48q-1 -4 -5 -12.5t-5 -12.5l2 2q-7 -30 -23.5 -85t-19.5 -68q-22 -76 -56.5 -187t-53 -174 t-19.5 -80l-2 -121q0 -12 1 -103.5t1 -156.5q0 -329 -4 -333q-4 0 -8 2q-3 0 -11.5 1t-11.5 1q-6 0 -61 -11q-4 -2 -13 -2v86v107v86q0 320 -6 375q-6 52 -95.5 258.5t-111.5 277.5q-11 44 -34 99v-5l-48 129l-6 17q-8 8 -12 39z" />
<glyph unicode="Z" horiz-adv-x="858" d="M92 6q6 61 43 131l-2 -2l12 23q27 74 101 301q218 667 321 862q-62 8 -122 8h-13q-66 -1 -156 -6.5t-92 -5.5h-18.5t-11 2.5t-9 7.5t-4.5 14q-7 30 -7 49q0 21 9 27q9 9 128 17t245 8q134 0 203 -15q-8 -43 -25 -94t-47.5 -128.5t-36.5 -92.5q-27 -68 -59 -178 q-39 -119 -51 -150l-31 -82v3q-55 -136 -128 -333t-95 -274q50 -16 226 -17h46q131 0 146 5q2 0 7 1t7 1q50 7 53 -12q-2 -12 -2 -37q0 -31 -16 -35h2q-83 -14 -295 -14q-30 0 -88 1t-82 1h-141q-17 0 -17 14zM719 1427z" />
<glyph unicode="[" horiz-adv-x="671" d="M88 1583h62q66 0 354 -16q4 -12 4 -31q0 -32 6 -59q5 -15 0 -15q-25 -4 -78 0q-14 2 -51 2q-94 -4 -182 -4q18 -38 29.5 -391t11.5 -690q0 -185 -4 -279q66 -10 157 -10q25 0 35 2q59 9 78 -2q22 -13 22 -57q0 -19 -4 -25q-29 4 -116 4q-13 0 -39 -1t-41 -1h-88 q-126 0 -138 2q-2 33 -2 103v69q-10 318 -10 1309q0 21 -4 33q-8 48 -2 57z" />
<glyph unicode="\" horiz-adv-x="921" d="M78 1239q21 5 33 10l22 8q18 3 21 3q18 0 30 2q6 -5 16.5 -27t24.5 -55.5t25 -62.5t24.5 -64t16.5 -43q0 -5 4 -9q20 -52 45 -118q368 -909 434 -1094q-44 0 -94 6h-12q-56 117 -309 723t-263 647l-10 29l2 -4q-10 30 -10 49z" />
<glyph unicode="]" horiz-adv-x="679" d="M94 1464v25q0 72 6 80h-2q30 6 189 -2q82 -6 137 -6q2 0 9 1t11 1q86 10 101 -7l-10 -1548q-66 -5 -107 -2q-19 0 -71.5 -1t-88.5 -1.5t-75.5 2.5t-57.5 10q-4 14 -4 47q-1 27 -4 27q25 10 57 10q81 -5 124 -6t72 3t38.5 13t11.5 27l8 1237q-1 19 -4 33.5t-5 24.5 t-8 16.5t-8.5 10.5t-11.5 5.5t-11.5 2t-14.5 0t-15 -0.5q-8 0 -35.5 -1t-45.5 -1h-121q-11 0 -27.5 -0.5t-25 -0.5t-11.5 1z" />
<glyph unicode="^" horiz-adv-x="598" d="M45 1370q219 164 266 193q182 -142 260 -197l-47 -78q3 3 -35.5 33t-91.5 70q-10 7 -41.5 33t-44.5 32q-75 -42 -122 -76t-74 -59.5t-37 -32.5q3 8 -27 70z" />
<glyph unicode="_" horiz-adv-x="1101" d="M90 16q4 2 33 2h18q158 12 318 15q40 0 106 4q78 4 119 4q26 0 96 -4q5 -1 15.5 -1.5t25 -1t25.5 -1.5q18 -1 64 -2t61 -2l2 -23q1 -9 3 -27.5t3 -33.5t0 -29q-123 -10 -660 -10q-156 0 -172 2q-39 0 -55 6l-2 37q-8 52 0 65z" />
<glyph unicode="`" horiz-adv-x="344" d="M96 1447q-6 13 0 21q23 27 105 33q12 0 20 -9.5t12.5 -25t6.5 -29.5t3.5 -30.5t2.5 -20.5q1 -7 3.5 -25.5t2.5 -25.5t-2 -24q-6 -28 -29.5 -29.5t-38.5 18.5q-13 18 -30.5 54t-22.5 45q-1 3 -14 19t-19 29z" />
<glyph unicode="a" horiz-adv-x="757" d="M90 430q5 92 46 166t120 115q36 20 67.5 28.5t60 5.5t47 -8.5t49 -18.5t46.5 -18q6 12 7 34t-1 51.5t-2 35.5q0 51 -24 94t-68 64q-23 8 -41.5 9.5t-31.5 -5t-22.5 -14.5t-17.5 -23.5t-12 -27.5t-10 -31q-3 -6 -8 -23.5t-8 -23.5q-16 -1 -30 -1q-41 0 -58 9q-4 18 -4 36 q-1 32 13 66q22 52 63 89t95 57q35 12 68 11q19 0 37 -3q52 -20 90.5 -67.5t52.5 -106.5q25 -143 25 -197q-5 -217 -7 -482q-1 -163 -4.5 -207t-17.5 -44h-88l-8 74q-36 -18 -63 -36.5t-35.5 -24t-26.5 -8t-55 -1.5h-6q-58 0 -127 72q-112 132 -112 322q0 16 1 32zM209 367 q0 -57 11.5 -106t34.5 -86t58 -51q17 -7 37 -7q21 0 45 8q68 33 99.5 105.5t31.5 156.5q0 40 -3 71t-13 72t-34.5 71.5t-61.5 45.5q-64 -1 -106 -23t-63 -63.5t-28.5 -86t-7.5 -107.5z" />
<glyph unicode="b" horiz-adv-x="737" d="M102 6q-6 277 -6 641t6 815q18 8 46 9h7q23 0 38 -5q23 -12 25 -54q0 -6 1 -14q1 -45 -7 -142q-7 -93 -7 -181v-41q13 3 62.5 21t68.5 18q153 0 219 -115q55 -90 55 -249q0 -37 -4 -91q-8 -94 -16 -145l-6 -41q-4 -47 -6 -76q-12 -138 -76 -222t-168 -87q-45 0 -121 35 l-4 -82q-9 -7 -33 -7q-8 0 -20 1q-40 4 -54 12zM195 893v-222q-1 -243 1 -315q2 -100 17 -127q21 -34 42 -45.5t67 -21.5q15 -2 28 -2q46 0 76 24q38 31 49 97q31 192 33 317q0 109 2 156v12q0 145 -92 195q-42 20 -76 20q-43 0 -83.5 -23.5t-63.5 -64.5z" />
<glyph unicode="c" horiz-adv-x="698" d="M86 322q0 260 16 393q7 59 23.5 114.5t44.5 110t73.5 91t102.5 42.5q11 1 22 1q55 0 109 -25q103 -42 103 -76q0 -23 -58 -62h2l-32 -26q0 3 -5 8l-13.5 13.5t-12.5 13.5h2q-30 25 -39 28q-27 13 -51.5 13t-43.5 -9t-36.5 -28t-29.5 -40t-23 -50t-18 -52t-13.5 -53 t-9.5 -45.5t-6 -36.5q0 -3 -2.5 -12.5t-2.5 -13.5q-10 -65 -12 -127q-1 -18 0 -38q0 -48 4 -106q6 -82 37 -145t86 -90l-2 2q34 -17 65 -17q66 0 117 78q5 7 12 7q15 0 40 -31q22 -22 22 -43t-27 -48q-69 -63 -168 -63q-76 0 -126 31q-143 77 -150 291z" />
<glyph unicode="d" horiz-adv-x="710" d="M63 463q0 163 7 242q1 6 3.5 30t4 34.5t4.5 32.5t6 35.5t8 31t11 32t14 27.5q57 89 131 112q28 4 49 4q37 0 99 -16t85 -18q-1 37 -1 120.5t0.5 171t0.5 89.5v96q13 1 41 5t40 5q6 0 17 0.5t27 -0.5q1 -1 1 -4q0 -4 -3 -12q1 -72 1 -160q0 -117 -2 -263 q-4 -255 -8.5 -435.5t-5.5 -352.5v-36q0 -136 7 -138v-92q-25 -4 -68 -4q-3 0 -10.5 -1t-11.5 -1q-8 -2 -33 -2v2l-1 2q-2 2 -2.5 4.5t-1 8t1.5 17t5 27.5q-57 -22 -100 -29.5t-60 -6t-40 7.5q-4 2 -18 7t-19 7t-16.5 6.5t-17.5 8t-13.5 8t-12.5 9.5t-8 11 q-107 143 -111 377zM156 410q5 -169 77 -236q62 -51 111 -50q24 0 82.5 19t58.5 33v33q0 73 3 219q4 182 6 282v39q0 75 -5 128q-68 47 -137 47q-1 0 -1 1q-68 0 -124 -55q-71 -102 -71 -411v-49z" />
<glyph unicode="e" horiz-adv-x="776" d="M140 586q4 138 45 264t114 184q62 47 150 47q46 0 108 -28q20 -13 36 -31.5t27 -44.5t18 -45t13 -54t8 -50t7 -52q10 -98 10 -178q0 -37 -2 -55h-1h-1h-1h-1h-1h-1h-1h-1h-1h-1h-1h-1h-1h-1h-1h-1h-1h-1h-1h-1h-1h-1h-1h-1h-1l-1 -1h-1h-1h-1h-1h-1h-1h-1h-1h-1h-1h-1h-1 h-1h-1h-1h-1h-1h-1h-1h-1h-1h-1h-1h-1h-1h-1h-1h-2q-361 -7 -361 -18q0 -19 -1 -37q0 -151 16 -229q17 -86 85 -121q28 -15 60 -15q10 0 20 1q44 6 76 33h-2q23 17 37.5 43.5t20 46.5t10.5 51v16q34 -3 129 -47q-17 -55 -21 -73q-16 -72 -77.5 -120.5t-141.5 -64.5 q-31 -8 -59 -8q-61 0 -112 30.5t-83 88.5q-39 72 -59 201q-17 108 -17 221q0 22 1 45zM252 657q60 -10 127 -10q93 0 199 19q8 30 8 67q0 32 -6 68v-4q-2 2 -2 8q-41 166 -131 166q-32 0 -70 -21q-33 -18 -56 -49.5t-35.5 -72.5t-19 -74.5t-12.5 -79.5q-1 -11 -2 -17z" />
<glyph unicode="f" horiz-adv-x="788" d="M90 967q-2 10 -2 24q0 27 8 68h31q84 0 117 4q2 120 32 228t95 163q62 47 153 47q26 0 54 -4q33 -4 68 -21q27 -12 27 -25q0 -4 -3 -9v2q-37 -63 -74 -88q5 10 0 14v-2q-17 21 -29 23q-22 11 -48 11q-28 0 -60 -13q-33 -14 -56 -40t-35 -63.5t-17 -66.5t-9 -72l-10 -84 q18 2 42 2q15 0 32 -1h28q26 0 41 3q37 -9 42 -15q7 -8 7 -38q0 -45 -8 -56q-30 1 -64.5 4t-52.5 4t-35 1.5t-23.5 -2t-6.5 -7.5q5 -322 18 -569t13 -393l-91 -6q-3 166 -10 365.5t-12.5 331t-5.5 151.5q0 30 -6 129q-28 -5 -65 -5t-85 5z" />
<glyph unicode="g" horiz-adv-x="741" d="M86 565v99q0 69 6 104q23 155 82 225q65 78 154 84q70 0 110 -18q5 -1 41.5 -18.5t44.5 -16.5q-2 10 -2 13t3.5 27t4.5 34q14 5 33 5q10 0 21 -1h26q2 -6 2 -21v-6q-2 -18 -2 -55q10 -147 12 -380v-133q0 -148 -2 -261q-4 -160 -6 -162q-4 -156 -53 -250 q-32 -59 -90.5 -98.5t-122.5 -40.5h-11q-15 0 -35 1q-28 3 -58 9t-47 18.5t-9 28.5l37 41l31 33q2 2 4.5 3.5t5.5 1t5 -1t6 -3t6 -3.5t6 -4.5t6 -4.5l29 -19q19 -9 38 -9q55 0 109 75v-2q27 36 33 103q2 24 2 46q0 36 -6 62q-38 -36 -66 -53t-61 -17h-11q-41 0 -84 26 q-49 30 -90 74q-43 45 -66.5 114.5t-28.5 126t-5 136.5q0 65 -2 88zM172 543q0 -52 2 -72q3 -54 5 -82t11.5 -73.5t24.5 -77.5q19 -43 63 -74t89 -31q36 0 75 27q27 21 41 55t16.5 60t2.5 65v25l12 360q0 33 -0.5 51t-3.5 50.5t-9 51t-18.5 41.5t-30 34.5t-44.5 18.5 q-17 4 -38 4q-11 0 -24 -1q-109 -12 -149 -176q-25 -131 -25 -256z" />
<glyph unicode="h" horiz-adv-x="727" d="M90 551v205q1 41 4.5 217.5t7 325.5t7.5 178h2q46 8 75 8q15 0 25 -2q0 -306 8 -451h56.5h42.5q36 -1 84 -12.5t77 -36.5v2q48 -42 76 -115q21 -48 32 -115.5t13.5 -111.5t3.5 -123q2 -43 2 -125q0 -149 -10 -254q-3 -61 -8 -100q0 -15 -15 -39q0 -2 -41 -2q-24 0 -34 4 q-4 28 -4 53q0 8 1 26.5t1 27.5v45v422q0 90 -4 129q-12 124 -58 174q-20 23 -59.5 41t-71.5 18q-55 0 -90 -43v-88q0 -167 -6 -336l-6 -205q0 -73 -4 -217v-8q0 -19 -2 -23q-11 -12 -35 -12q-14 0 -33 4l-27 8q-10 230 -10 531z" />
<glyph unicode="i" horiz-adv-x="380" d="M33 12l26 1051q-2 1 0 2v-2q2 2 4 2q39 6 84.5 11.5t45.5 4.5q-27 -557 -27 -762q-1 -70 -1 -123q0 -123 5 -153q0 -1 1 -5t1 -5q1 -5 2 -9t1.5 -10t1 -8.5t-0.5 -3.5h2q-36 -1 -63 -1q-82 0 -82 11zM53 1253q0 32 24 55t56 23q30 0 55 -31q8 -19 8 -36q0 -23 -14 -43 q-26 -35 -67 -35q-22 0 -35 8q-27 34 -27 59zM188 1300v3l7 -5q-3 0 -7 2z" />
<glyph unicode="j" horiz-adv-x="339" d="M-197 -217q3 -3 17 12v-2q21 28 26 43q1 3 5.5 9.5t5.5 7.5q9 0 17.5 -6t10.5 -7q32 -16 60 -16q12 0 23 2q39 10 64 43.5t44.5 81.5t27.5 103t12 108q2 23 2 44q0 27 -3 52q0 674 6 856q36 9 78 9q12 0 24 -1q6 0 10 -37t4.5 -96t0.5 -112.5t-1 -105.5t-1 -56 q0 -42 2 -141q3 -61 3 -127q0 -33 -1 -67q-2 -101 -6 -200t-25.5 -187.5t-54.5 -153.5t-94 -99q-46 -27 -106 -27q-18 0 -36 2q-34 5 -66 23t-49 45zM123 1317q0 34 20 43h-2q14 9 31 9q15 0 32 -8q26 -13 26 -33q0 -7 -3 -15l-2 -6q0 -23 -18 -41q-19 -13 -35 -13 q-20 0 -39 19q-10 20 -10 45z" />
<glyph unicode="k" horiz-adv-x="802" d="M109 4q-2 13 -2 34.5t2 51.5q6 343 6 668q0 237 -3 464q-2 77 -2 128q0 52 2 76q3 50 19 49q38 0 78 -5l10 -2h4q-6 -228 -6 -583q0 -187 4 -223q68 78 195.5 214t150.5 162q2 2 25 2h16h60h34q-58 -74 -114.5 -141t-86.5 -101.5t-54 -63t-31 -42.5t-4 -24l88 -219 l178 -420q1 -3 3 -8.5t3.5 -9.5t1.5 -5q-28 -1 -48 -2t-31 -2l-16.5 -1.5t-6.5 -1t0 -1.5q-33 53 -64 147q-101 269 -205 467q-43 -31 -88 -106v-500q-6 -7 -29 -7q-15 0 -38 3q-6 0 -25.5 1t-25.5 1z" />
<glyph unicode="l" horiz-adv-x="372" d="M90 80v8q4 69 8 223q4 258 7 518.5t4.5 359t3.5 126.5v-2q1 44 1.5 77.5t1 50t1 27t0.5 15v6.5l98 10q13 -35 13 -88q0 -25 -3 -55q-12 -26 -16.5 -326t-4.5 -623.5t-1 -345.5v-8q0 -33 -2 -39q-15 -2 -109 -14q-4 9 -4 35q0 18 2 45z" />
<glyph unicode="m" horiz-adv-x="1189" d="M82 1067q1 2 4 2q2 -1 4 -1q6 -2 8 -3q8 -2 41 1t37 1v-12q0 -23 8 -72q48 23 74 39q17 17 35 22q59 25 110 25q58 -3 103 -39l90 -69q20 11 60 46t81 52q31 13 67 13q51 0 111 -28q23 -10 42.5 -28t32.5 -34.5t24.5 -47t17.5 -47t13 -54.5t8.5 -50t6.5 -53.5t5 -45.5 q1 -11 3 -39.5t3 -38.5q16 -118 23 -391l6 -205q-12 2 -44.5 5t-48 7.5t-14.5 14.5q8 109 8 201q1 60 -3 111q-8 131 -40 327q-26 178 -63 248q-27 34 -90 36h-5q-59 0 -93 -36q-4 -6 -26.5 -30t-41.5 -48t-21 -37q-11 -83 -11 -155q0 -20 1 -40l10 -266q10 -135 17 -321 l-117 -7q4 111 4 224q0 71 -2 96q-8 107 -8 238v94q0 54 -1 81.5t-13.5 74t-36.5 75.5q-49 55 -115 55q-40 0 -77 -22t-60 -62q-11 -104 -11 -265q0 -145 9 -337q0 -34 4 -92q0 -8 1 -21.5t1 -21.5q0 -29 2 -43v2q4 -46 4 -92q-20 -4 -108 -4v76q0 6 1 16t1 12l-4 172 q1 10 1 38q0 92 -12 372q-16 368 -16 381z" />
<glyph unicode="n" horiz-adv-x="743" d="M84 84q2 38 11 281.5t17 447t11 242.5q9 6 49 10q23 3 41 10q4 0 7 -4.5t5 -13t3 -17.5t1 -21.5v-21v-18.5v-12l52 37q70 36 122 36q64 0 115 -39q21 -16 37 -35.5t27.5 -39.5t19.5 -48t13 -52t7 -61q4 -37 4 -66v-21q0 -23 -1 -55q-1 -47 -3 -82t-4.5 -92.5t-3.5 -98.5 q2 -77 2 -141q0 -119 -8 -193l-90 7q5 89 21 428v28q0 201 -16 287q-26 142 -97 164q-18 5 -35.5 6t-33 -3t-29.5 -9.5t-29 -14.5t-26 -16.5t-25 -17t-23 -15.5l-14 -88l-33 -575q0 -11 1 -36.5t1 -39.5q0 -80 -2 -121h-22q-52 0 -70 6q-2 27 -2 78z" />
<glyph unicode="o" horiz-adv-x="792" d="M78 508q0 258 104 418h-2q60 88 162 88q32 0 76 -13q121 -46 176 -172q7 -17 13 -35t10 -31t7.5 -33.5t5.5 -29.5t4.5 -33.5t3 -31t3 -36.5t2.5 -36q4 -45 4 -100q0 -37 -2 -78q-11 -91 -36 -185.5t-50 -129.5q-56 -74 -153 -74q-33 0 -94 13.5t-62 25.5 q-136 60 -154 244q-18 137 -18 229zM170 473q2 -23 2 -70q0 -33 6 -63q6 -47 11 -75t22.5 -73t42.5 -67q20 -19 57.5 -31t73.5 -12q55 0 82 27h-2q40 33 63 101t23 128v20q2 51 2 148q0 77 -2 110q0 4 -1 12t-1 11q-4 39 -13 79.5t-26.5 87.5t-49 78.5t-71.5 35.5 q-10 1 -19 1q-55 0 -96 -40q-44 -44 -59 -119l-33 -127q-15 -65 -15 -117q0 -24 3 -45z" />
<glyph unicode="p" horiz-adv-x="780" d="M86 -358q-1 260 -1 472q0 459 5 692q6 340 35 341h74q2 0 7.5 -1t6.5 -1v-2q0 -4 -3 -17.5t-3.5 -22.5t4.5 -26q137 31 176 31q35 0 57 -10q36 -12 70.5 -40.5t54.5 -64.5q72 -136 72 -327q0 -80 -2 -113q-2 -29 -2 -86q0 -109 -10 -160q-20 -111 -78 -184 q-88 -110 -201 -110q-8 0 -16 1q-26 3 -53 15q-4 2 -8.5 5.5t-8.5 5t-20.5 4t-46.5 5.5q0 -6 -1 -17t-1 -16l-9 -374q-16 -2 -59 -2q-25 0 -39 2zM186 326.5q0 -11.5 0.5 -16.5t1.5 -15.5t2 -16t2.5 -15t3.5 -16t5 -14t6 -14.5q83 -87 162 -87q28 0 55 11q79 59 102 199 q19 111 19 256q0 92 -6 172q-14 102 -70 176q-38 55 -98 55q-36 0 -78 -22q-47 -23 -64.5 -64.5t-25.5 -105.5q-15 -99 -15 -287q0 -82 -2 -121v-28v-15v-16.5v-15z" />
<glyph unicode="q" horiz-adv-x="831" d="M92 457q0 308 76 473q36 83 131 112q21 7 43 7q69 0 209 -88q-16 75 -16 106v6q18 4 59 4q43 0 59 -4q2 -25 2 -69q0 -41 -4 -111q-2 -35 -2 -109q-11 -480 -11 -687q0 -103 3 -138q0 -6 1 -18t1 -17q0 -3 0.5 -22.5t1.5 -30t3 -30t6.5 -31.5t11.5 -25t18.5 -19t26.5 -6 h4v-92q-24 0 -61.5 10t-51.5 23q-51 47 -72 139q-13 62 -13 125q0 31 3 62q-101 -30 -147 -33l-35 6l-45 8q-19 8 -59.5 41.5t-45.5 40.5q-14 18 -38.5 57.5t-28.5 63.5q-29 119 -29 246zM201 457q0 -122 26 -226q30 -93 99 -112q31 -7 54.5 -7t43 11t32.5 22t23 26.5 t14.5 24t6.5 15.5q6 27 11 191.5t5 299.5q0 104 -8 136l-2 8q-25 39 -61.5 67.5t-73.5 28.5q-54 0 -88 -59q-17 -32 -35 -105l-4 -18q-31 -110 -37 -189q-6 -59 -6 -114z" />
<glyph unicode="r" horiz-adv-x="653" d="M88 1124v27q2 2 6.5 2t13 -1t13.5 -1h53q2 0 11 2t14 2q0 -50 6 -80q55 41 109 49q22 4 46 3q34 0 72 -7q75 -11 154 -129q3 -4 3 -8q0 -13 -22 -35h2q-38 -38 -50 -38q-2 0 -3 1q-1 0 -22 21q-19 22 -48 35q-49 23 -95 23q-10 0 -19 -1q-52 -10 -83 -59t-38 -107 q-8 -63 -8 -297q0 -59 1 -145.5t1 -99.5q2 -27 2 -72q0 -26 -1 -55.5t-2.5 -65t-2.5 -55.5q0 -4 -1 -14.5t-1 -14.5q-4 -3 -8 -3l-4 1q-6 2 -13 2h-47q-12 -2 -20.5 -2t-14.5 2h2q-2 1 2 57q2 6 2 29q2 151 2 299v149q-2 222 -5 382t-5 188q0 2 -1 7.5t-1 8.5z" />
<glyph unicode="s" horiz-adv-x="757" d="M127 182q29 32 45 32q5 0 8 -3q119 -109 201 -109q90 0 117 129q4 19 4 37q0 22 -6 46q-10 42 -28 73t-54.5 68t-63 59t-71.5 57q-95 73 -121 105q-52 76 -52 166q0 47 22 101t58 87q81 70 185 70q29 0 59 -6q54 -15 96 -36t58 -35t14 -17l6 8q-15 -24 -47 -61.5 t-39 -37.5q-27 30 -68 50t-81 20q-39 0 -71.5 -24.5t-47.5 -67.5q-4 -21 -4 -41q0 -37 14 -74q22 -56 56 -93t85 -77l21 -16q9 -8 12 -10q78 -64 127 -124.5t68 -135.5v2q5 -22 6 -49q1 -29 -7 -65q-12 -66 -40 -106q-29 -38 -86 -75q-51 -29 -133 -29q-77 0 -115 20 q-56 18 -109 62q-7 3 -21.5 12.5t-26.5 19.5q-11 9 -11 12q0 11 41 56z" />
<glyph unicode="t" horiz-adv-x="688" d="M86 1022q29 2 135 2l-8 285q15 5 66 5q22 0 51 -1l8 -285q20 -5 89 -5.5t103 -6.5q3 0 8 -6t5 -25.5t-13 -46.5q-32 -1 -68 -2t-50 -1.5t-33 -2.5t-41 -6q-2 -27 -2 -164q0 -23 1 -67.5t1 -65.5q0 -23 1 -67t1 -66q-1 -19 -1 -39q0 -74 9 -168q15 -179 86 -189 q18 0 51 19l9 8q15 -3 49.5 -23.5t34.5 -27.5q0 -11 -25 -41q-19 -22 -55 -30q-22 -5 -42 -5q-13 0 -26 2h2q-15 3 -31.5 9t-36.5 15t-30 13h-2q-82 54 -82 297q0 49 -2 65q-6 123 -6 181q-4 217 -23 348q-15 6 -59 2q-13 -1 -25 -2q-26 0 -41 6q-8 58 -8 86z" />
<glyph unicode="u" horiz-adv-x="856" d="M82 756q0 47 0.5 95t1 79.5t0.5 36.5v22q0 68 2 105q16 2 57 2q42 0 74 -11q-2 0 -0.5 -6t0.5 -8q-2 -22 -14.5 -296t-12.5 -310v-49q-1 -14 -1 -26q0 -87 24 -140q20 -40 31 -53q17 -15 55 -30t86 -15q62 0 107 22q22 11 39.5 33.5t25.5 46.5q25 66 29 152q2 35 2 108 q0 103 -2 148q0 13 -1 39.5t-1 41.5q-4 202 -21 334q0 7 8 13t19 6q27 0 51 4q4 0 10.5 1t10.5 1q33 -4 42 -12t9 -23q0 -13 -1 -46t-1 -50q0 -605 12 -715q3 -43 3 -136t1 -112q-4 -4 -4 -8q2 2 4 2l-6 -8q0 4 2 6q-16 -4 -57 -4h-33q-12 -2 -21 12l-8 64q-24 -6 -108 -42 q-74 -31 -123 -31q-7 0 -13 1q-64 6 -129 41q-44 21 -79 78q-26 32 -41 98q-29 75 -29 539z" />
<glyph unicode="v" horiz-adv-x="681" d="M143 1106q7 2 20 2q33 0 105 -14q8 -74 55.5 -297.5t63.5 -278.5q29 123 68.5 326t46.5 258q12 6 90 6h16q9 -4 9 -18q0 -10 -4 -25q-1 -2 -1 -4q-7 -29 -110 -782l-37 -263l-4 -16h-90q3 17 -67 292.5t-129 539.5q-40 181 -40 243q0 28 8 31z" />
<glyph unicode="w" horiz-adv-x="1128" d="M86 1022q-1 5 3.5 8.5t12.5 5.5q22 2 41.5 5t29 4.5t15.5 1.5q24 0 33 -17v2q17 -78 54 -325.5t67 -378.5q35 136 47 221q81 483 84 483q2 0 16.5 -1t22.5 -1l72 -8q0 -1 1 -5.5t2.5 -11.5t2.5 -12l33 -129q113 -427 149 -528q21 37 70.5 315t62.5 396h41q72 0 90 -9 q1 -1 1 -6q-1 -46 -73 -426q-82 -426 -120 -606q-3 -1 -9 -1q-17 1 -60 5q-59 6 -60 10l-25 103q-95 431 -153 628q-69 -250 -113 -591q-8 -52 -18 -154h-9h-23l-24 2h-49q-2 20 -176 852z" />
<glyph unicode="x" horiz-adv-x="837" d="M76 1094l2 -2q20 8 55.5 4.5t46.5 1.5q24 0 33 -23h-2q33 -84 106 -235t105 -224q120 246 199 449q5 15 27 17.5t45 -1t44 1.5q5 -3 5 -9q0 -3 -1 -7l-235 -598q27 -58 53 -114.5t43.5 -93t35 -73.5t26.5 -56.5t19.5 -42.5t13.5 -31t8 -22t3 -16t-1 -12q-3 -2 -15.5 -3.5 t-31 -1.5h-35.5t-33.5 0.5t-20.5 0.5q-116 238 -163 318q-66 -137 -108 -210.5t-62 -92.5t-39 -19q-8 0 -26.5 -2t-34.5 -2t-29 4q-2 3 -2 8q-1 28 51 125q62 115 130 221l68 105q-30 96 -72.5 192t-105 224.5t-102.5 218.5z" />
<glyph unicode="y" horiz-adv-x="761" d="M84 1061v37h43h49q10 -29 10 -88q0 -30 -4 -84q0 -6 -1 -18t-1 -17v-21q0 -60 8 -188q10 -155 19 -213l4 -37q4 -85 33 -133q15 -33 48 -60.5t68 -27.5q34 0 60.5 14t43 33.5t28.5 53t17.5 59.5t8.5 66t3.5 59.5t0.5 52.5v10v16q0 82 -8 277q-10 214 -16 244q0 5 5 8 t14 4h9h8q9 -1 19 -1.5t14 -0.5q37 0 51 -2q17 -86 17 -186q0 -70 -4 -107q3 -51 3 -131v-42q-1 -108 -5 -259.5t-4 -157.5q0 -47 -4 -121q-3 -92 -52 -211q-16 -40 -38.5 -70.5t-48 -48t-48 -28.5t-47.5 -15t-35.5 -5t-21.5 -1q-12 2 -51 20t-52 28l-14 10l-4 8l4 8 q4 5 7 9.5t5 9t4 8.5q21 42 39 57l6 -4h2q53 -38 97 -38q12 0 24 3q49 16 76 93.5t27 152.5q-86 -53 -133 -53q-81 0 -150 59q-29 25 -49.5 58.5t-33.5 80.5t-18.5 77t-13.5 87q-14 115 -14 244q0 19 1 57.5t1 59.5v28q0 17 -4 127q-2 51 -2 150z" />
<glyph unicode="z" horiz-adv-x="727" d="M55 4q0 34 17 85t44 112t34 82q169 453 196 596q8 39 8 62q0 31 -14 36h2q-18 5 -69 5h-41q-85 -2 -117 -11h2q-51 -11 -51 10v27q0 7 -1 21t-0.5 22.5t3.5 17.5q97 10 319 10q133 0 162 2q-16 -78 -170 -477q-9 -23 -27.5 -72t-28 -75t-26 -70t-26 -69.5t-22 -61 t-20 -58t-14.5 -46t-10.5 -38.5t-3.5 -24h37q18 -5 71 -5q27 0 62 1q70 4 100 4q22 0 39 -1t31.5 -3t21.5 -6t6 -10q2 -26 2.5 -45.5t-2.5 -32.5h-92q-329 0 -405 -2q-17 0 -17 14z" />
<glyph unicode="{" horiz-adv-x="657" d="M92 801q3 42 37 80q16 25 41 43v-2q65 57 82 118q16 46 12 146q0 5 -1 15.5t-1 15.5q-2 27 -2 75q0 80 27 133v-2q12 22 38 43.5t52 30.5q15 6 59 10h13q38 5 40 13q9 -18 9 -74v-31q-55 0 -80 -12q-60 -34 -60 -137q0 -28 9 -84q0 -4 1 -8t1 -5q6 -77 -14 -154t-64 -138 q-9 -5 -15 -13q-57 -57 -51 -82h-2q5 -16 27 -47l14 -14q13 -5 37.5 -41.5t38.5 -62.5t22 -42q23 -52 31 -169q2 -12 2 -80q0 -71 4 -80q16 -45 36.5 -70t62.5 -33l-6 2q20 -2 26 -2t6 2q5 -44 -4 -75q3 0 1 -1q-2 0 -5 -1q-6 -1 -34 -3l-36 -4h3q-89 0 -121 62 q-46 87 -52 199q-2 23 -2 77q1 36 0.5 67.5t-8 65t-22.5 60.5q-4 7 -9.5 14t-10 12.5t-11.5 11.5t-11 10t-12.5 10t-12.5 8.5t-13 9t-12 8.5h2q-24 21 -43 57.5t-19 67.5z" />
<glyph unicode="|" horiz-adv-x="382" d="M80 10q0 22 4 58q0 4 1 11t1 11q12 124 16 389v162q0 447 -16 756q0 86 2 104q0 2 -1 13.5t-1 17.5q-5 60 -4 61q28 9 88 9h16q38 0 43 -7l-4 -90q-8 -58 -8 -90v-375q0 -60 -8 -174q-6 -198 -6 -202q0 -58 4 -164q0 -26 2 -79t2 -81q0 -41 -2 -61q-2 -31 -2 -93v-63 q0 -6 1 -17.5t1 -17.5q0 -12 1 -33t1 -32q0 -14 -4 -54q-7 -4 -16 -7t-16 -4.5t-20 -3t-18 -1.5t-21 -1t-18 -1h-4q-14 14 -14 59z" />
<glyph unicode="}" horiz-adv-x="649" d="M96 1409h2q-18 7 -2 61q5 16 35 13h14q48 0 92 -18.5t66 -55.5q15 -28 25 -63t13 -59t7 -68q4 -53 8.5 -84.5t20 -75t43.5 -80.5l29 -33q67 -84 65 -131q-4 -48 -65 -121q-4 -5 -14.5 -16.5t-16.5 -18t-13.5 -17.5t-13.5 -21q-33 -62 -33 -152q0 -49 7 -96q4 -66 4 -94 q0 -92 -39 -140q-43 -57 -121 -80v2q-50 -12 -64 -12q-4 0 -12 -4q-6 27 -6 57q0 18 4 54q42 5 77.5 27t51.5 61q8 44 8 182q-1 66 0.5 106t13.5 93.5t37 91.5q1 2 25 26q20 21 29 32.5t16 30t-2.5 36t-34.5 37.5q-73 58 -90 190q-6 47 -6 90q0 103 -14 148q-11 42 -37 61.5 t-66 28.5v-2q-4 1 -16 4.5t-27 9.5z" />
<glyph unicode="~" horiz-adv-x="966" d="M82 692q9 13 31 30.5t41 27.5h-2q53 31 95 44.5t88 8t89 -34.5l8 -4q102 -78 178 -78q69 0 107 64q8 16 37 16q50 0 67 -21q29 -21 -45 -90l-14 -18q-55 -55 -150 -55q-54 0 -115.5 20.5t-107.5 50.5q-59 39 -113 39q-64 0 -133 -57q-1 -1 -3.5 -3t-3.5 -3.5t-1 -3.5 t2 -4q-18 16 -36.5 38.5t-18.5 32.5z" />
<glyph unicode="&#xa1;" horiz-adv-x="380" d="M90 930q10 32 68 41q11 0 24 -15.5t13 -35.5q0 -30 -45 -52q-33 -11 -49.5 14.5t-10.5 49.5v-2zM100 549q-4 82 6 100q11 19 87 19h8q10 0 14 -4q0 -9 -6 -78q-6 -30 -6 -68q0 -29 2.5 -104.5t7 -192t6.5 -198.5q14 -338 14 -398v-12q0 -74 -16 -113q-24 -10 -76 4 q-12 104 -25.5 501.5t-13.5 506.5q0 6 -1 18.5t-1 18.5z" />
<glyph unicode="&#xa2;" horiz-adv-x="765" d="M90 575q0 332 41 429l-2 -3q23 37 33.5 52.5t30.5 39t37.5 33.5t45 19t62.5 12q8 30 8 111q0 61 6 88l92 14q6 -27 6 -62.5t-3 -78t-3 -62.5q75 -21 125 -55.5t66 -97.5q-43 -29 -84 -33v-2q-50 74 -111 74q-19 -165 -21 -336.5t3 -259.5t18 -246q28 7 80 80 q14 -4 51 -17.5t56 -17.5v-6q0 -54 -65.5 -105.5t-127.5 -70.5q-2 -13 -6.5 -52t-9.5 -59q-55 3 -121 -4q-2 19 -2 121q-15 14 -65 47.5t-74 65.5q-38 47 -45 75v-2q-21 69 -21 309zM200 571q0 -22 1 -59t4 -65.5t8 -63.5t13.5 -59.5t19.5 -46t28 -32t37 -9.5 q6 44 8.5 104.5t3 97t0 116.5t-0.5 95q0 48 6 144.5t6 144.5q0 16 -6 109q-16 0 -31 -6.5t-22.5 -12.5t-24.5 -22l-12 -13q-37 -63 -37 -336q0 -5 -0.5 -34.5t-0.5 -51.5z" />
<glyph unicode="&#xa3;" horiz-adv-x="993" d="M92 643q0 19 19 19q67 0 125 4q-8 472 -11 462v-10v39q0 181 90 260q29 33 74 58q66 35 186 22q23 -3 84 -20q32 -14 68 -50q3 -2 4 -6.5t-2 -7.5q-22 -22 -76 -72q-10 -10 -22 -6l-35 19q-84 47 -137 4l2 2q-53 -33 -72 -98v2q-31 -91 -31 -156q-4 -216 -4 -373v-16 q0 -3 1 -18.5t1 -18.5l189 -23h33q10 0 10 -8q4 -33 0 -53l-10 -55q0 -4 -11 -4q-1 0 -5 1t-5 1q-46 -1 -92 2t-69 7l-23 3l-6 -68q-1 -10 -3 -106.5t-18 -145.5q-2 -11 -17.5 -49.5t-15.5 -50.5q44 2 83.5 2t84 -1t70.5 -1q40 -2 129 23q35 12 50.5 37t29.5 75l2 2v-2 q22 2 74.5 -7.5t52.5 -16.5q-15 -98 -113.5 -174t-191.5 -70l-445 8q-2 18 2 61.5t4 51.5q72 56 95 133q6 16 8 54t1 73t-3 71t-2 40v8q0 25 -21 53q-45 0 -73.5 -0.5t-39.5 -1t-14 -0.5v2q-2 10 -2 25q-2 20 -2 65z" />
<glyph unicode="&#xa4;" horiz-adv-x="837" d="M82 -8l55 65v-2l17 27q36 40 43 74q-68 265 -9 481q3 12 8 31t8 32.5l5 22.5q3 35 0.5 43t-19.5 43l-18 35q-4 6 -12.5 20t-14 22.5t-12 17.5t-10.5 12.5t-6 1.5q11 17 49 47l18 12q12 -10 43 -59q2 -3 10 -16.5t16 -24t19 -21.5q10 4 31 12t29 10.5t26 6t31.5 1.5t35 -6 t47 -13.5t58.5 -24.5q25 43 58 87t39 56q15 0 55 -20q12 -4 15 -14t-3 -24t-16 -30.5t-22 -34t-22 -33.5t-16.5 -30t-5.5 -23l31 -55q37 -115 37 -255t-41 -263v2q-16 -32 -12 -70q2 -35 43 -92q12 -20 30 -45q0 -1 1 -3t1 -3q9 -13 -12 -22.5t-74 -20.5l-8 16l-11 16.5 t-12 17.5t-13.5 18t-18.5 22q-53 -31 -108.5 -34.5t-96.5 13t-69 45.5q-27 -38 -59 -86l-38 -57l-4 4zM276 518q0 -18 0.5 -50.5t1 -51t3 -45t6.5 -49.5q22 -112 80 -162q29 -23 58 -19t51.5 22.5t37.5 47.5q41 93 43.5 229.5t-29.5 223.5q-25 58 -73 78.5t-105 -15.5 l-18 -18q-25 -26 -38 -62t-15.5 -63t-2.5 -66z" />
<glyph unicode="&#xa5;" horiz-adv-x="868" d="M92 1470q11 16 27.5 21.5t47 9.5t52.5 10l199 -723l190 576q6 33 23.5 79t32.5 64q24 -11 94 -16l-266 -801q32 7 78 7t87.5 -5t42.5 -10q2 -17 2 -51t-2 -37q-36 -1 -119 2.5t-118 1.5q-9 -15 -8 -28t4.5 -37.5t1.5 -38.5q15 -11 118 -12.5t115 -6.5v-74q-1 0 -2 -1 t-2 -1q-20 0 -66 3t-84 1.5t-79 -10.5q1 -22 2 -121.5t4 -183t10 -102.5q-16 -2 -18 -2q-64 -7 -78 -7q-5 9 0 46q-1 19 -2.5 71t-3 91t-4 84t-5.5 73.5t-6 36.5l-20 10q-22 1 -94 -1.5t-84 -0.5q-7 22 -10 88q14 1 84.5 6.5t105.5 5.5q4 12 2.5 43t1.5 70q-169 0 -194 -2 q-5 23 -5 64v22h3q2 0 7.5 -1t8.5 -1q28 -2 76 3t69 5q-99 383 -139 525t-80 255z" />
<glyph unicode="&#xa6;" horiz-adv-x="378" d="M92 1124l2 2zM94 1126h8q38 0 54 2q12 0 47 5q0 -34 2 -48v2q8 -132 8 -202q2 -12 2 -37q0 -22 1 -66t1 -67q0 -96 2 -135v-37h-4l-45 -8h-49q-4 2 -4 4v34q-5 150 -10.5 262.5t-8 154.5t-4 74.5t-0.5 61.5zM111 432h2l8 2q35 2 102 2q8 -117 8 -211v-73q0 -23 -2 -67 t-2 -65v-167l-2 -7l-94 -10l-10 2q-2 0 -2 2v-4q0 -4 -1 -4l-2 5q1 3 3 3q-2 16 -2 49z" />
<glyph unicode="&#xa7;" horiz-adv-x="1132" d="M92 -174q10 20 127 20q5 0 23 -55q18 -63 69.5 -99t118.5 -36q61 2 114.5 34.5t63.5 90.5q9 62 -14.5 129.5t-66 126t-98.5 122.5t-108.5 117.5t-98.5 113t-66 106.5q-33 82 -33 206q0 101 55 181l-2 -2q39 59 148 102h-2q50 12 86 12q1 0 3 -1t3 -1q-31 84 -31 172 q0 41 12.5 92t30.5 84q47 73 135.5 117t179.5 39q79 -11 119 -33h-2q28 -16 57.5 -42t40.5 -50l19 -35h-2q63 -119 47 -135v2q-9 -10 -41.5 -18t-63.5 -8h-26q-12 12 -12 32q-4 26 -11 43q-25 54 -59 82q-27 19 -65.5 33t-69.5 14q-68 -3 -117 -63q-40 -44 -57 -105t-6 -120 q12 -71 94 -146l-2 6l18 -24q2 -2 4 -2l43 -43q47 -43 99 -84q88 -74 141 -129q126 -126 155 -246q9 -37 9 -66q0 -30 -9 -71q-1 -4 -3.5 -19.5t-3 -20t-3.5 -18t-5 -19.5t-5 -18t-6.5 -19.5t-8.5 -17.5t-11 -18.5t-13 -17.5h2q-29 -32 -78.5 -62.5t-93.5 -42.5h2 q-55 -12 -112 -12h-3q58 -107 58 -190q0 -55 -27 -107q-43 -78 -122.5 -132t-161.5 -58q-91 -7 -172.5 45t-129.5 133q-76 100 -55 131zM242 637q14 -68 55.5 -138.5t81 -115t104.5 -109.5v2l31 -36q5 -4 31.5 -30.5t38 -35t36 -25t49.5 -22.5t54 -6q36 0 68 14h-3 q67 25 100.5 76t33.5 115q0 79 -45 155q-66 112 -195 234q-37 25 -70 65l-10 6l-31 29q-12 7 -41 31q-31 24 -49 33h2q-21 14 -48.5 14t-44.5 -6t-46 -19q-59 -30 -86 -96t-16 -135z" />
<glyph unicode="&#xa8;" horiz-adv-x="503" d="M91.5 1360q0.5 24 15 49t36.5 33q32 11 64 -17q19 -26 6 -58t-37 -48q-42 -11 -63.5 3t-21 38zM283 1352q-21 39 13 69q32 28 70 15q26 -10 40 -41q18 -44 -21 -64q-23 -15 -55.5 -9.5t-46.5 30.5z" />
<glyph unicode="&#xa9;" horiz-adv-x="1243" d="M88 956q0 109 22 277.5t58 230.5l35 47v-2q12 11 42 44.5t50 48.5q83 60 182 93.5t193 33.5q84 0 164 -41l-3 2q54 -28 104 -73.5t71 -90.5q91 -189 108 -387q2 -22 3 -78.5t7 -85.5v2q4 -29 4 -84q0 -86 -10 -170.5t-33 -176.5t-70 -168t-112 -118q-143 -90 -295 -90 q-13 0 -37 4l-32 4h2q-167 23 -265 121v-2q-46 52 -79 101.5t-53.5 105.5t-32 99t-16.5 112t-6 111.5t-1 129.5zM190 924q0 -194 9 -217q2 -15 22 -82q55 -151 130.5 -231t209.5 -111l-2 2q22 -11 43 -11q38 0 119 35q55 26 98.5 59t73 67t50.5 79t33 85.5t18 96t8 100.5 t2 109q0 365 -58 477l2 -2q-59 107 -136 164.5t-187 57.5q-135 0 -213 -62q-58 -35 -99 -82q-17 -18 -30.5 -40.5t-24.5 -51t-19 -52t-14 -59.5t-10 -57.5t-7.5 -62t-5 -56.5t-4 -58t-3.5 -50v2q-5 -40 -5 -49zM328 901v36v75t2.5 73.5t8 77t16.5 70.5t27 69.5t40.5 58.5 t56.5 52q59 47 142 47q134 0 213 -119l-76 -53l-19 21l4 -4q-40 53 -108 53q-44 0 -78.5 -26.5t-55 -72.5t-34.5 -96t-20.5 -110t-8.5 -101t-2 -82t11 -88t31.5 -92t57 -74.5t80.5 -29.5q29 0 43 5.5t31.5 22.5t28.5 25q24 -16 56.5 -45.5t39.5 -44.5q-49 -62 -115 -88 q-47 -17 -104 -17q-25 0 -43.5 6t-41.5 19t-34 18l2 -2q-41 20 -86 107q-42 87 -53.5 152t-11.5 157zM834 1341l2 2v-4z" />
<glyph unicode="&#xaa;" horiz-adv-x="503" d="M117 1153q3 111 94 160q21 11 38.5 16t34 3t25.5 -4.5t27 -10.5t24 -10q3 5 4.5 14.5t1.5 18t-0.5 20t-0.5 14.5q0 67 -54 90q-12 4 -22 5t-17.5 -3t-12.5 -8t-9.5 -14t-7 -15.5t-6.5 -17.5q-4 -14 -9 -25q-33 -4 -51 5q-12 57 42.5 106t113.5 37q29 -10 50.5 -37 t29.5 -61q0 -1 7 -46t7 -65q-4 -138 -5 -294q-1 -78 -2.5 -99t-8.5 -21h-52l-2 43q-22 -11 -37 -21t-20 -13.5t-15 -5.5t-30 -1q-37 -2 -76 41q-67 85 -61 199zM184 1118q0 -68 27 -110.5t76 -24.5q38 17 55.5 58.5t17.5 88.5q0 122 -61 148q-67 -1 -91 -43t-24 -117z" />
<glyph unicode="&#xab;" horiz-adv-x="811" d="M92 666q128 187 203 313l27 43h6l59 -45q-148 -223 -169 -264q-26 -51 -13 -80q4 -10 16 -27l199 -258q-23 -33 -58 -51q-6 6 -12 14v4v-6zM356 678l256 346l64 -53q12 -10 -40.5 -91t-106 -158t-46.5 -79q119 -179 185 -289q4 -4 -2 -4l-43 -18h2q-9 -3 -37 -15v5 q-5 2 -11.5 8t-7.5 10l-211 332z" />
<glyph unicode="&#xac;" horiz-adv-x="1150" d="M92 690h6q-2 33 -2 88q0 4 2 4q21 2 161 2q336 -1 745 0q6 0 19 -1t19 -1v-59q-2 -18 -2 -256q0 -9 -1 -23t-1 -20l-2 -2l2 2q-12 -5 -55 -4t-47 8v-6q-2 2 -2 268q0 2 -68 2q-178 0 -477 -6q-237 0 -262 2q-19 0 -29 2h-6zM1038 424l4 4z" />
<glyph unicode="&#xad;" horiz-adv-x="794" d="M100 582v118q9 0 68 -4t72 -4q116 -2 205 -3.5t131.5 -2t69 -1.5t35.5 -1h13v-123q0 -2 -7.5 -3.5t-22 -1.5t-30 0.5t-39 2t-41 2.5t-44 3t-39.5 3l-129 8q-205 10 -242 7z" />
<glyph unicode="&#xae;" horiz-adv-x="1077" d="M84 1026q0 84 16 160l6 31q20 92 56 135q24 27 51 47.5t66.5 37t59.5 23.5t71 23q61 14 118 14q88 0 183 -31q152 -46 200 -227v2q5 -24 8 -49t6 -67t3 -48q4 -64 8 -96v2q18 -214 18 -348q0 -76 -2 -115q0 -7 -1 -20t-1 -19q-1 -44 -2.5 -64t-8 -53.5t-19.5 -56.5 q-43 -73 -66 -96q-21 -21 -49 -35q-54 -20 -195 -29q-25 0 -61 -4q-149 0 -205 19q-68 23 -113 63q-139 115 -143 379q0 46 -1 140t-1 141v69q0 13 -1 37t-1 35zM180 965q0 -56 4 -150q4 -74 4 -104q5 -98 5 -113q0 -62 6 -111l4 -41v3q9 -62 10 -68q32 -117 133 -133 q30 -6 72 -6q14 0 30 1t35.5 2.5t30.5 2.5q8 0 24 1t23 1q4 0 15 1t16 1q26 1 40.5 2t42.5 3.5t45 7.5t41.5 13t39.5 20.5t30.5 29t24 40t10.5 52.5v-2q4 33 4 106q0 99 -16 299q-15 183 -16 207q-7 150 -50 232q-48 98 -110 127v-3q-47 23 -111 23q-57 0 -139 -16 q-143 -27 -195 -121v2q-16 -25 -26.5 -63t-13.5 -64t-9 -84q0 -2 -1 -5t-1 -5q-2 -31 -2 -88zM367 836v82q0 7 1 28.5t1 28.5q1 20 1.5 55.5t1.5 65.5t3 57q3 52 24 61q28 7 39 7q111 15 176 -31q46 -35 74.5 -96t26.5 -121q-3 -118 -12 -171.5t-33 -90.5q19 -11 31 -32 t18 -56t8 -54t4 -59q0 -8 1 -20t1 -17q0 -28 -6 -55q-8 1 -17.5 -1.5t-19.5 -2.5q-44 -11 -55 0q-9 142 -21 186q-15 47 -46 71t-93 9q-5 -26 -7.5 -64.5t-4 -84t-2.5 -64.5q-4 -27 -4 -55l-76 -11q-14 252 -14 435zM473 784q54 0 92 19q47 28 47 135q0 78 -34 136.5 t-103 58.5l2 -39q3 -35 -2 -170q0 -17 -1 -68.5t-1 -71.5z" />
<glyph unicode="&#xaf;" horiz-adv-x="757" d="M66 1477q1 10 4.5 41.5t3.5 56.5l624 -10q0 -3 2 -16.5t3.5 -28.5t2.5 -29.5t-0.5 -24.5t-5.5 -10q-135 2 -233.5 2t-168.5 -1.5t-115 -2.5t-72.5 0t-42.5 6q-3 7 -2 17z" />
<glyph unicode="&#xb0;" horiz-adv-x="575" d="M90 1313q-4 70 23 119q22 35 62.5 54t84.5 21q22 1 55 -13.5t50 -29.5q25 -15 48 -55t23 -78q-4 -44 -22 -76q-27 -43 -83.5 -69.5t-105.5 -14.5q-41 13 -63 31q-26 19 -37 35q-30 43 -35 76zM180 1309q22 -33 74 -33q32 0 66.5 21.5t25.5 56.5h2q-6 31 -31.5 44.5 t-60.5 10.5q-45 -3 -71 -33.5t-3 -66.5h-2z" />
<glyph unicode="&#xb1;" d="M97 135.5q1 10.5 4 44.5t3 62l578 -13q0 -4 1.5 -18t3 -30t2.5 -31.5t0 -26t-5 -10.5q-172 4 -325.5 2t-179.5 -4t-81 6q-2 8 -1 18.5zM106 711q0 18 82 18h21l133 8q-14 111 -14 174v56v-2q31 16 53 16q27 0 41 -14q1 -17 2.5 -40t4 -80.5t-0.5 -62.5l-2 -47q8 -3 17 -3 t45.5 2.5t64.5 2.5q22 0 61.5 1t53.5 1h8q4 -32 4 -67q0 -45 2 -45q-78 -15 -248 -11q12 -74 12 -141q0 -39 3 -74q0 -13 -6.5 -20.5t-14.5 -7.5q-25 0 -35 -2q-8 0 -20 -4q-23 -5 -23 10q0 17 -2 53t-2 55q0 74 -4 131q-37 -2 -82 -2h-61q-63 0 -90 -2q-5 71 -3 97z" />
<glyph unicode="&#xb2;" horiz-adv-x="458" d="M29 672q-2 14 0 48.5t6 45.5q37 60 77.5 123.5t61.5 96.5t43.5 69.5t32.5 54t19.5 37t13.5 31.5t6 26q6 54 6 70q0 53 -21 83t-75 23l-9 -2q-25 -12 -41 -27t-22.5 -34t-8.5 -31.5t-3 -32.5q0 -8 -17 -8.5t-34.5 4.5t-18.5 11q-8 29 14 83q29 55 54 68q54 34 100 31 q70 -3 113 -49q31 -35 43 -76q14 -72 14 -98q-3 -96 -59 -179q-18 -33 -56 -75q-2 -3 -15 -19t-16.5 -21t-14.5 -20.5t-15.5 -23.5t-14 -24.5t-15.5 -30t-13.5 -32t-13.5 -38.5q32 -6 52.5 -8t27.5 -2t15.5 1t14.5 1q58 4 86 -9q0 -49 -2 -67v-10q-45 -2 -176.5 2t-138.5 8z " />
<glyph unicode="&#xb3;" horiz-adv-x="466" d="M18 1141q0 -1 2.5 1.5l7.5 7.5l10.5 10.5l14 14l15.5 15.5q93 97 116 158q-19 1 -43.5 2.5t-37.5 2.5t-30 -0.5t-34 -6.5q-3 61 -12 108q30 -5 85.5 -3t134 6.5t83.5 4.5h6q-13 -23 -72.5 -121.5t-68.5 -119.5q57 -18 90 -46t53 -69q31 -66 31 -197q2 -45 -6.5 -94 t-28 -99.5t-60 -81.5t-96.5 -28q-24 1 -52 18t-46 38q-25 29 -41 98q-2 14 -4 26t-3 19.5t-2 13.5l-1.5 9t-1 5t-0.5 3v2q-3 17 -4 18q3 8 32.5 6t36.5 0q6 -12 10 -43q8 -60 22.5 -89t41.5 -36q11 -3 45 13.5t43 25.5q28 42 36.5 113.5t-13 145.5t-74.5 108q-27 17 -144 26 q-16 2 -34 2q-7 7 -7 13zM27 1454q-4 2 0 6v-6z" />
<glyph unicode="&#xb4;" horiz-adv-x="374" d="M94 1233q-4 32 21.5 109t42.5 102q86 5 121 0q12 -14 -29.5 -121t-52.5 -109q-63 -6 -103 19z" />
<glyph unicode="&#xb5;" horiz-adv-x="776" d="M84 -266q0 8 2 14q23 472 18 664q-4 102 -4 151q0 13 -1 36t-1 36q9 289 11.5 350t7.5 70q11 -3 47.5 -7t54.5 -14q-24 -201 -24 -325v-60q-1 4 -2 -107t2.5 -228t11.5 -130q27 -45 77 -70.5t105 -25.5q65 0 111 41q45 39 45 96v15l14 829q9 1 11.5 0.5t7.5 -2t10 -2.5 q36 -4 53 -2q10 -59 10 -180q3 -84 -9.5 -450t-12.5 -456l-97 -10q-1 0 -1.5 5.5t-2 16.5t-4.5 21q-18 -4 -33 -8.5t-23.5 -7.5t-10.5 -4q-80 -32 -148.5 -19t-124.5 62q0 -113 4 -148q2 -31 2 -90q0 -37 -2 -53l-100 -8h-4z" />
<glyph unicode="&#xb6;" horiz-adv-x="1085" d="M94 967q-4 235 56 346l-3 -6q2 3 9 13t12 19v-2q55 97 223 119l33 4q127 13 133 13q49 -3 102 -3q63 0 183.5 -14t120.5 -24q-2 -13 -2 -33.5t1 -46t1 -35.5v-100q1 -55 -15 -506q-4 -68 -4 -201v-213q4 -53 4 -162v-88q-1 -6 -1.5 -13t-1 -11.5t-1.5 -10t-1.5 -9 t-1.5 -6.5t-2 -5t-3 -2q-15 -6 -57 -2t-48 12q-2 3 3 45v-2l2 682q0 37 2 57q6 83 6 174q0 104 -15 369q-33 10 -68.5 5.5t-39.5 -3.5q-12 0 -19 -5t-10 -19t-3.5 -25.5t-0.5 -36.5l14 -1151q4 -58 -2 -84q-6 -2 -26 -2h-25q-18 0 -26 -2q-39 -4 -41 -2q-7 7 -7 92v8 q0 86 -2 123q-4 98 -4 150q0 34 6 145q-86 -2 -193 20.5t-155 59.5q-64 58 -97.5 163t-35.5 206z" />
<glyph unicode="&#xb7;" horiz-adv-x="471" d="M81.5 778q6.5 39 18.5 68q27 63 68 76q43 17 94 9.5t88 -36.5q27 -19 48 -51.5t28 -69.5q8 -92 -55 -141q-68 -42 -160 -35q-44 1 -82.5 34t-46.5 73q-7 34 -0.5 73z" />
<glyph unicode="&#xb8;" horiz-adv-x="499" d="M82 -221h2v6l53 -8q37 0 47 2q42 13 56 45v-2q16 44 -31 69l-49 17q0 27 -8 61t-7 58q33 -8 73 -9t65 9q0 -23 -2 -31q-7 -68 47 -94q20 -14 34 -33t20 -43t-11 -45q-20 -27 -53.5 -54.5t-63.5 -37.5q-13 -5 -27.5 -8t-32.5 -4t-30.5 -1.5t-36.5 0t-35 0.5q-8 15 -7.5 50 t-2.5 53z" />
<glyph unicode="&#xb9;" horiz-adv-x="303" d="M45 1417q1 1 13 12t30.5 28t28.5 26q22 24 30 27t37 3l60 -6q4 -61 4 -190v-365q0 -63 -4 -96q-2 -43 -2 -125q-22 -7 -45 -14t-23 -4v96q0 62 1 235.5t1 241.5q0 122 -19 142q-6 6 -12 -1q-17 -19 -26.5 -27.5t-23.5 -15t-26 1.5t-24 31z" />
<glyph unicode="&#xba;" horiz-adv-x="575" d="M90 1313q-4 70 23 119q22 35 62.5 54t84.5 21q22 1 55 -13.5t50 -29.5q25 -15 48 -55t23 -78q-4 -44 -22 -76q-27 -43 -83.5 -69.5t-105.5 -14.5q-41 13 -63 31q-26 19 -37 35q-30 43 -35 76zM180 1309q22 -33 74 -33q32 0 66.5 21.5t25.5 56.5h2q-6 31 -31.5 44.5 t-60.5 10.5q-45 -3 -71 -33.5t-3 -66.5h-2z" />
<glyph unicode="&#xbb;" horiz-adv-x="815" d="M90 340l90 147l90 142h-2l37 61q-28 50 -92 120t-111 132q1 1 21 26t38 44.5t21 15.5q62 -82 108 -144t69.5 -94.5t36.5 -51t19 -28t7 -10.5q-82 -153 -126.5 -235t-68 -123.5t-30 -49.5t-9.5 -7q-26 12 -79 39v-2q-8 5 -12.5 8.5t-6 6t-0.5 3.5zM377 993l69 60l222 -310 q14 -22 14 -43q0 -10 -101 -188t-114 -197q-5 -1 -23.5 12t-35 27t-15.5 15l74 125q42 72 90 178q0 4 6 20q-39 63 -91.5 141.5t-73.5 112.5t-21 47z" />
<glyph unicode="&#xbc;" horiz-adv-x="980" d="M76 1417q98 78 114 111q20 -1 46 4t40 4q3 -47 3 -219v-365q0 -55 -5 -96q-2 -43 -2 -125q-65 -22 -65 -18v96q0 62 1 235.5t1 241.5v47.5v46.5v34t-1 25.5t-3 6.5q-1 -1 -25 -15t-42 -26.5t-21 -18.5q-11 11 -41 31zM117 -29q7 25 41 115t89.5 229.5t103.5 259t112 278 t86 212.5l45 113q4 10 4 12q16 44 56.5 140.5t52.5 115.5q10 -4 28 -4q11 0 23 -4h-2l24 -8q3 -1 14.5 -5.5t18.5 -5.5q0 -11 -12 -47q-8 -19 -8 -24h2q-10 -42 -263 -648t-309 -725h-12q-35 -4 -94 -4zM117 1386l2 -4q-6 0 -2 4zM512 248q220 499 260 565q5 2 31 6t33 4 q1 -11 3.5 -208.5t2.5 -274.5q18 -10 66 3q17 4 16 -1v-2q-5 -11 -4 -36.5t3 -41.5t-3 -22q-11 -4 -37 -6.5t-39 -4.5q-3 -19 1.5 -78t10.5 -109.5t8 -51.5q-10 0 -26.5 -3.5t-31 -7.5t-28.5 -6t-22 1t-8 12l4 227q-14 35 -166 35h-74z" />
<glyph unicode="&#xbd;" horiz-adv-x="1015" d="M72 1430q73 58 104 98q6 3 51.5 2.5t51.5 7.5l1 -46q0 -17 -2 -56q-2 -87 -2 -119q0 -187 -1.5 -322t-2.5 -185.5t0 -78.5q-65 -22 -65 -18v96q0 62 1 235.5t1 241.5q0 38 -2.5 79t-6 65t-5.5 24q-8 0 -41 -29t-37 -39q-5 5 -15 16t-17.5 18t-12.5 10zM117 -29 q7 25 41 115t89.5 229.5t103.5 259t112 278t86 212.5l45 113q4 10 4 12q16 44 56.5 140.5t52.5 115.5q10 -4 28 -4q11 0 23 -4h-2l24 -8q3 -1 14.5 -5.5t18.5 -5.5q0 -11 -12 -47q-8 -19 -8 -24h2q-10 -42 -263 -648t-309 -725h-12q-35 -4 -94 -4zM604 6q-2 12 0 47t6 47 q73 126 127 209.5t69 104t27 46.5t29 87q14 53 -9.5 113.5t-76.5 52.5l-8 -2q-21 -9 -33.5 -20.5t-17 -25.5t-6 -23.5t-1 -26.5t0.5 -23q0 -13 -43 -11.5t-45 11.5q-8 33 14 84q20 49 53 69q51 32 98 29q72 -3 113 -47q29 -29 43 -78q17 -66 17 -98q-3 -88 -62 -176 q-21 -35 -60.5 -90t-67.5 -101.5t-44 -95.5q41 -6 61.5 -7.5t32.5 0t17 1.5q68 0 86 -8q0 -48 -2 -68v-12q-48 -2 -179 2.5t-139 9.5z" />
<glyph unicode="&#xbe;" horiz-adv-x="1036" d="M39 1141q43 35 98.5 108.5t77.5 122.5q-31 9 -79.5 9t-76.5 -9q-2 31 -12 88q29 1 145.5 -1t165.5 3q-2 -18 -20 -45q-19 -22 -40 -49t-34 -44.5t-32 -45t-25 -35.5l47 -37q43 -35 49 -39q25 -25 53 -75q35 -81 35 -183q1 -35 -3 -73.5t-17 -81t-34 -76t-56.5 -54 t-81.5 -18.5q-82 4 -116 57.5t-40 184.5q16 10 45 12q17 0 27 2q3 -118 51 -158t108 29q28 45 33 84q11 62 -14 152.5t-68 130.5q-17 28 -51 39.5t-64 10t-71 -8.5zM193 -29q30 107 434 1094v1l1 1v1l1 1v1v1l1 1v1l1 1v1v1l1 1v1l1 2l39 98q2 10 4 12q17 49 55.5 143.5 t50.5 112.5q12 -4 31 -4q9 0 23 -4h-2l22 -8q4 -1 15.5 -5.5t19.5 -5.5q0 -11 -12 -47q-9 -21 -9 -24h2q-12 -44 -264.5 -651.5t-306.5 -721.5h-14q-33 -4 -94 -4zM532 229q2 0 27.5 60.5t57.5 137t42 97.5q125 289 136 289q5 2 30.5 6t32.5 4q2 -16 2 -483q16 -6 42.5 1 t44.5 7.5t22 -20.5q13 -50 9.5 -69t-36.5 -19q-14 0 -74 -11q-3 -19 1 -78t10 -109.5t8 -51.5q-6 -1 -17 -3.5t-21 -4.5t-22 -4.5t-21 -3t-17 -0.5t-12.5 3t-4.5 9v30q0 27 2 58q6 93 6 155q-25 0 -76.5 2t-94 2t-77.5 -4z" />
<glyph unicode="&#xbf;" horiz-adv-x="851" d="M86 -205q-1 99 19 186t57 153.5t69.5 109.5t75.5 86q90 85 107 125l-2 -2q10 20 10 71q0 30 -6 111q0 2 -1 6.5t-1 5.5q-1 10 3 16.5t15.5 9t20 3t26.5 0.5h6h25q49 0 49 -86q0 -42 -16 -109q-45 -153 -217 -313q-36 -34 -55 -54.5t-40.5 -54.5t-29.5 -69q-6 -34 -6 -76 q0 -86 30 -160q14 -40 27 -66t40.5 -53.5t61.5 -35.5v2q48 -14 101.5 -0.5t85.5 53.5v-2q29 34 35 75t2 95q0 3 -1.5 11t-1.5 11q-3 22 52.5 27.5t74.5 -4.5q17 -9 17 -47q0 -83 -53 -193q-40 -73 -106.5 -113t-141.5 -40q-119 0 -221 92q-47 42 -77.5 104.5t-33.5 124.5z M410 821q-18 44 4 85q26 48 82 30q29 -9 44 -34t13 -51.5t-20 -48.5t-48 -26q1 0 3.5 1t3.5 1h-5q-56 -8 -77 43z" />
<glyph unicode="&#xc0;" horiz-adv-x="768" d="M53 2q-4 87 47 240q3 12 18 61t21 74q13 67 60.5 327t84 425t83.5 323q4 12 23 12.5t40 -2.5q2 0 14 -3t19 -3l96 -655q2 -9 50.5 -240.5t77.5 -378.5t28 -164q0 -8 -8 -16h-27q-54 0 -70 4q-74 352 -80 395q-6 1 -47 4t-51.5 4t-43.5 2.5t-50.5 0.5t-42.5 -3.5t-47 -7.5 q-27 -87 -49.5 -185t-34.5 -153t-17 -63q-54 -8 -94 2zM262 506q49 -3 130 0t118 0q-9 102 -51.5 373.5t-67.5 267.5l-35 -162q-74 -369 -94 -479zM283 1741q23 27 104 33q12 1 20 -8t12.5 -25t6.5 -29.5t3.5 -31t2.5 -21.5q1 -8 3.5 -25.5t3 -26t-0.5 -24.5 q-7 -28 -30.5 -29t-38.5 21q-12 17 -30.5 52.5t-23.5 43.5q-2 4 -13.5 19t-18 29t-0.5 22z" />
<glyph unicode="&#xc1;" horiz-adv-x="768" d="M53 2q-4 87 47 240q3 12 18 61t21 74q13 67 60.5 327t84 425t83.5 323q4 12 23 12.5t40 -2.5q2 0 14 -3t19 -3l96 -655q2 -9 50.5 -240.5t77.5 -378.5t28 -164q0 -8 -8 -16h-27q-54 0 -70 4q-74 352 -80 395q-6 1 -47 4t-51.5 4t-43.5 2.5t-50.5 0.5t-42.5 -3.5t-47 -7.5 q-27 -87 -49.5 -185t-34.5 -153t-17 -63q-54 -8 -94 2zM262 506q49 -3 130 0t118 0q-9 102 -51.5 373.5t-67.5 267.5l-35 -162q-74 -369 -94 -479zM352 1575q-3 32 23.5 109.5t42.5 99.5q73 9 119 0q12 -13 -29.5 -120.5t-50.5 -107.5q-69 -7 -105 19z" />
<glyph unicode="&#xc2;" horiz-adv-x="768" d="M53 2q-4 87 47 240q3 12 18 61t21 74q13 67 60.5 327t84 425t83.5 323q4 12 23 12.5t40 -2.5q2 0 14 -3t19 -3l96 -655q2 -9 50.5 -240.5t77.5 -378.5t28 -164q0 -8 -8 -16h-27q-54 0 -70 4q-74 352 -80 395q-6 1 -47 4t-51.5 4t-43.5 2.5t-50.5 0.5t-42.5 -3.5t-47 -7.5 q-27 -87 -49.5 -185t-34.5 -153t-17 -63q-54 -8 -94 2zM160 1626q-2 2 0 4l76 74l159 141q131 -128 250 -213l12 -8l-75 -68l-17 17q-40 37 -73.5 70.5t-47.5 49t-25 25.5t-20 13l-178 -168q-45 39 -61 63zM262 506q49 -3 130 0t118 0q-9 102 -51.5 373.5t-67.5 267.5 l-35 -162q-74 -369 -94 -479zM395 1845q-6 7 1 7q3 -2 1 -5z" />
<glyph unicode="&#xc3;" horiz-adv-x="768" d="M53 2q-4 87 47 240q3 12 18 61t21 74q13 67 60.5 327t84 425t83.5 323q4 12 23 12.5t40 -2.5q2 0 14 -3t19 -3l96 -655q2 -9 50.5 -240.5t77.5 -378.5t28 -164q0 -8 -8 -16h-27q-54 0 -70 4q-74 352 -80 395q-6 1 -47 4t-51.5 4t-43.5 2.5t-50.5 0.5t-42.5 -3.5t-47 -7.5 q-27 -87 -49.5 -185t-34.5 -153t-17 -63q-54 -8 -94 2zM156 1649q-4 8 2 14l22 23l19 14q31 19 55 24q2 0 5 1t5 1t8 2.5t7 2.5q68 -4 108 -27q61 -35 105 -45h-7q13 -6 35 -10q56 -7 88 28v-2l33 29q14 -20 37 -66l-10 -8q-28 -28 -64 -47l2 2q-20 -10 -53 -10 q-46 0 -84 14q-29 15 -43 23l-20 10q-28 11 -37 20q-52 31 -117 11v2q-24 -6 -53 -35q-4 -8 -13 -8l-12 16l-18 23v-2zM262 506q49 -3 130 0t118 0q-9 102 -51.5 373.5t-67.5 267.5l-35 -162q-74 -369 -94 -479zM631 1714l10 -6q2 -2 4 0l2 2l-6 -6zM678 1638q0 2 1 5t1 4 l2 -17q-4 4 -4 8z" />
<glyph unicode="&#xc4;" horiz-adv-x="768" d="M53 2q-4 87 47 240q3 12 18 61t21 74q13 67 60.5 327t84 425t83.5 323q4 12 23 12.5t40 -2.5q2 0 14 -3t19 -3l96 -655q2 -9 50.5 -240.5t77.5 -378.5t28 -164q0 -8 -8 -16h-27q-54 0 -70 4q-74 352 -80 395q-6 1 -47 4t-51.5 4t-43.5 2.5t-50.5 0.5t-42.5 -3.5t-47 -7.5 q-27 -87 -49.5 -185t-34.5 -153t-17 -63q-54 -8 -94 2zM251.5 1604q0.5 24 15 49t36.5 33q30 10 64 -19q19 -24 6 -56t-37 -48q-42 -11 -63.5 3t-21 38zM262 506q49 -3 130 0t118 0q-9 102 -51.5 373.5t-67.5 267.5l-35 -162q-74 -369 -94 -479zM442 1593q-18 34 5.5 63 t61.5 26.5t56 -44.5q18 -43 -20 -63q-22 -15 -56 -11t-47 29z" />
<glyph unicode="&#xc5;" horiz-adv-x="768" d="M53 2q-4 87 47 240q3 12 18 61t21 74q16 84 47 253.5t50.5 273t51.5 247.5t66 262q-66 27 -96 109q-7 28 -6.5 42t4.5 37.5t4 36.5q7 35 32.5 60.5t59.5 36.5h-2q24 6 53 6q90 0 136 -78q16 -29 16 -78q3 -66 -39 -123q-21 -31 -47 -43l90 -618q2 -9 50.5 -240.5 t77.5 -378.5t28 -164q0 -8 -8 -16h-27q-54 0 -70 4q-74 352 -80 395q-6 1 -47 4t-51.5 4t-43.5 2.5t-50.5 0.5t-42.5 -3.5t-47 -7.5q-27 -87 -49.5 -185t-34.5 -153t-17 -63q-54 -8 -94 2zM262 506q49 -3 130 0t118 0q-9 102 -51.5 373.5t-67.5 267.5l-35 -162 q-74 -369 -94 -479zM330 1538q10 -25 26 -34t45 -7q2 0 37 12q26 13 37.5 34.5t5.5 43.5q-4 19 -33.5 43.5t-46.5 24.5q-49 0 -70 -40.5t1 -78.5z" />
<glyph unicode="&#xc6;" horiz-adv-x="1185" d="M51 10v2v-2zM51 12q336 835 543 1397l28 71q-1 -1 -1 -3q7 10 20 12q245 12 463 0h12l4 -27l8 -73q3 -11 0 -11q-21 -6 -43 -6q-113 -4 -192.5 -1.5t-86.5 5.5t-36 -2q-5 -14 -7.5 -30.5t-3.5 -34.5t-1.5 -29.5t0 -31t0.5 -23.5v-277q0 -18 1 -51.5t1 -48.5 q0 -10 -1.5 -61t-0.5 -70q9 -14 22 -17t29.5 0t21.5 2l183 -8q8 -27 8 -55q0 -25 2 -39q0 -4 -8 -4h-172q-19 0 -51 -4h-33q-18 -324 0 -412q4 -32 19 -43.5t48 -11.5h150l153 -4q1 -2 3 -4v7v-1v-64q0 -9 1 -28.5t1 -28.5v-2h-19q-114 -4 -176 -4h-61q-10 0 -31 1t-31 1 q-43 0 -59 -2q-19 -4 -109 2h-20v61q0 16 3.5 106.5t4.5 153t-2 111.5l-293 2l-29 -74q-93 -312 -114 -350zM395 537l187 -7q55 0 55 60l8 579q-170 -396 -208.5 -493.5t-41.5 -138.5z" />
<glyph unicode="&#xc7;" horiz-adv-x="724" d="M51 428q0 67 2 104v41q2 53 2 162q0 298 37 453q31 113 102 197.5t173 97.5q97 0 197.5 -69t109.5 -159l-31 -12q-5 -2 -17.5 -8t-19 -9t-17 -6.5t-20 -5t-18.5 -0.5l-10 29q-17 66 -64 98q-53 29 -90 29q-35 0 -88 -33q-69 -61 -94 -148.5t-29 -199.5q-10 -308 -10 -368 v-123q-1 -54 0.5 -89t7.5 -84t24 -88t46 -67q32 -34 76.5 -49.5t85.5 -3.5q63 23 114 119q10 21 68 12l30 -6h11q35 -5 41 -11q3 -3 -25 -36q-53 -83 -105 -134t-120 -59q-20 -2 -62 -2v-4q-7 -69 45 -94q20 -14 35 -33t21 -43t-10 -45q-22 -29 -55.5 -55.5t-63.5 -36.5 q-12 -5 -26 -8t-32 -4t-30.5 -1.5t-36.5 0t-35 0.5q-8 15 -8 54t-2 49h2v6l53 -8q37 0 47 2q41 13 53 45v-2q19 43 -28 69l-49 17q0 28 -9 62t-8 57q5 -1 26.5 -5.5t35.5 -5.5q-65 23 -123 78q-64 60 -86.5 142t-22.5 192z" />
<glyph unicode="&#xc8;" horiz-adv-x="661" d="M52.5 760.5q-1.5 635.5 8.5 681.5l-2 20q333 18 406.5 20t107.5 -7q7 -56 15 -84h-2q4 -10 -7.5 -12.5t-43.5 -2.5q-188 -3 -359 -16q-1 -44 -4.5 -172.5t-4.5 -206.5t1 -223q75 -1 149 8.5t129 9.5q27 0 39 -2q25 -117 27 -119q-101 -9 -193.5 -11.5t-148.5 -6.5 l25 -518q22 -9 113.5 -4.5t103.5 4.5h112h27h53q4 -11 4.5 -22t-1 -29t-1.5 -31v-33q-35 -4 -186 -4h-352q-14 125 -15.5 760.5zM287 1741q23 27 104 33q12 1 20 -8t12.5 -25t6.5 -29.5t3.5 -31t2.5 -21.5q1 -8 3.5 -25.5t3 -26t-0.5 -24.5q-7 -28 -30.5 -29t-38.5 21 q-12 17 -30.5 52.5t-23.5 43.5q-2 4 -13.5 19t-18 29t-0.5 22z" />
<glyph unicode="&#xc9;" horiz-adv-x="661" d="M52.5 760.5q-1.5 635.5 8.5 681.5l-2 20q333 18 406.5 20t107.5 -7q7 -56 15 -84h-2q4 -10 -7.5 -12.5t-43.5 -2.5q-188 -3 -359 -16q-1 -44 -4.5 -172.5t-4.5 -206.5t1 -223q75 -1 149 8.5t129 9.5q27 0 39 -2q25 -117 27 -119q-101 -9 -193.5 -11.5t-148.5 -6.5 l25 -518q22 -9 113.5 -4.5t103.5 4.5h112h27h53q4 -11 4.5 -22t-1 -29t-1.5 -31v-33q-35 -4 -186 -4h-352q-14 125 -15.5 760.5zM240 1589q-4 32 21.5 109t41.5 100q73 9 121 0q12 -14 -29.5 -119.5t-52.5 -107.5q-66 -7 -102 18z" />
<glyph unicode="&#xca;" horiz-adv-x="661" d="M52.5 760.5q-1.5 635.5 8.5 681.5l-2 20q333 18 406.5 20t107.5 -7q7 -56 15 -84h-2q4 -10 -7.5 -12.5t-43.5 -2.5q-188 -3 -359 -16q-1 -44 -4.5 -172.5t-4.5 -206.5t1 -223q75 -1 149 8.5t129 9.5q27 0 39 -2q24 -119 27 -119q-101 -9 -193.5 -11.5t-148.5 -6.5 l25 -518q22 -9 113.5 -4.5t103.5 4.5h112h27h53q4 -11 4.5 -22t-1 -29t-1.5 -31v-33q-35 -4 -186 -4h-352q-14 125 -15.5 760.5zM92 1686q-2 0 0 4v-2l76 75l160 142q133 -129 247 -213l15 -9l-76 -67l-16 14q-51 47 -90 87.5t-52.5 55t-23.5 17.5l-180 -168q-45 42 -60 64z M328 1905q-6 7 1 7q3 -2 1 -5z" />
<glyph unicode="&#xcb;" horiz-adv-x="661" d="M52.5 760.5q-1.5 635.5 8.5 681.5l-2 20q333 18 406.5 20t107.5 -7q7 -56 15 -84h-2q4 -10 -7.5 -12.5t-43.5 -2.5q-188 -3 -359 -16q-1 -44 -4.5 -172.5t-4.5 -206.5t1 -223q75 -1 149 8.5t129 9.5q27 0 39 -2q25 -117 27 -119q-101 -9 -193.5 -11.5t-148.5 -6.5 l25 -518q22 -9 113.5 -4.5t103.5 4.5h112h27h53q4 -11 4.5 -22t-1 -29t-1.5 -31v-33q-35 -4 -186 -4h-352q-14 125 -15.5 760.5zM154.5 1626q0.5 24 15.5 48.5t37 31.5q28 13 61 -16q15 -15 12 -36t-14.5 -40t-25.5 -29q-42 -11 -64 3t-21.5 38zM344 1616q-21 39 13 70 q32 29 70 16q26 -10 40 -41q19 -42 -21 -66q-23 -15 -55.5 -9.5t-46.5 30.5z" />
<glyph unicode="&#xcc;" horiz-adv-x="313" d="M55 1709.5q-6 13.5 0 21.5q4 4 8.5 8t11 6.5t11.5 4.5t13 4t12.5 3t13.5 1.5t12.5 1t12 1t10.5 0.5q12 1 20 -8t12.5 -24.5t6.5 -29t3.5 -30t2.5 -20.5q1 -7 3.5 -26.5t2.5 -26.5t-2 -23q-6 -28 -29.5 -29t-38.5 19q-13 18 -30.5 53.5t-22.5 44.5q-1 2 -14 18.5t-19 30z M115 61q0 40 2 56q0 5 1 12t1 8q0 1186 2 1223q0 2 -1 14t-1 17q-4 46 -4 59q25 10 90 10h14q41 0 43 -6l-4 -88q-8 -58 -8 -90q0 -187 -6 -358q-2 -11 -3 -70.5t-1 -139v-173.5t0.5 -170t1 -133t0.5 -58q0 -7 1 -19t1 -18v-63q0 -38 -2 -58q-26 -11 -115 -16q-12 12 -12 61 z" />
<glyph unicode="&#xcd;" horiz-adv-x="292" d="M53 1581q-3 33 23 109.5t43 101.5q65 8 119 0q12 -13 -29 -120t-51 -109q-66 -7 -105 18zM55 61q0 24 4 56q0 5 1 12t1 8q0 1186 2 1223q0 2 -1 14t-1 17q-5 58 -4 59q25 10 88 10h17q39 0 43 -6l-4 -88q-8 -58 -8 -86q0 -234 -9 -362q-1 -11 -2 -70.5t-1 -139v-173.5 v-170t0.5 -133t0.5 -58q0 -7 1 -19t1 -18q0 -10 1 -31.5t1 -31.5q0 -38 -4 -58q-24 -11 -112 -16q-15 15 -15 61z" />
<glyph unicode="&#xce;" horiz-adv-x="602" d="M53 1651q-2 2 0 6v-2l76 76l162 139q125 -125 248 -211l12 -10l-76 -66l-16 14q-39 37 -72.5 70.5t-47.5 49.5t-25.5 26.5t-20.5 13.5l-178 -168q-12 10 -24.5 23t-24 25t-13.5 14zM188 61q0 16 5 56q0 5 1 12t1 8q0 1186 2 1223q0 2 -1 14t-1 17l-5 59q25 10 89 10h14 q41 0 45 -6l-6 -88q-6 -44 -6 -90q0 -230 -9 -358q-2 -11 -3 -70.5t-1 -139v-173.5t0.5 -170t1 -133t0.5 -58q0 -7 1 -19t1 -18q0 -10 1 -31.5t1 -31.5q0 -38 -4 -58q-24 -11 -114 -16q-13 16 -13 61zM291 1870q-6 8 1 8q3 -1 -1 -6v-2z" />
<glyph unicode="&#xcf;" horiz-adv-x="423" d="M52.5 1616q0.5 24 15 49t36.5 33q32 11 64 -17q19 -26 6 -58t-37 -48q-42 -11 -63.5 3t-21 38zM125 61q0 24 4 56q0 5 1 12t1 8q0 1186 2 1223q0 2 -1 14t-1 17q-5 58 -4 59q25 10 88 10h14q41 0 45 -6l-6 -88q-6 -44 -6 -86q0 -248 -8 -362q-2 -11 -3 -70.5t-1 -139 v-173.5t0.5 -170t1 -133t0.5 -58q0 -7 1 -19t1 -18q0 -10 1 -31.5t1 -31.5q0 -38 -4 -58q-24 -11 -115 -16q-12 14 -12 61zM244 1608q-21 39 13 69q32 28 70 15q26 -10 40 -41q18 -44 -21 -64q-23 -15 -55.5 -9.5t-46.5 30.5z" />
<glyph unicode="&#xd0;" d="M52 722q1 10 3 40.5t2 54.5l103 -4v-113q-91 -3 -107 5q-2 7 -1 17zM152 0l8 700q13 0 48.5 1t57.5 1l-4 -200q1 -48 -4.5 -141.5t-5.5 -135.5q0 -54 8 -116q96 -13 225 20h-2q2 0 6.5 1t6.5 1q58 12 84 51.5t38 106.5q11 56 15 198q4 374 16 543q0 133 -24 219 q-39 131 -219 131q-55 0 -127 -14l-11 -555l-108 2l8 678q44 14 123 10q103 0 174 -10q172 -19 219 -92q21 -32 33.5 -80.5t16 -79.5t7.5 -92v-33q5 -198 3 -325.5t-7.5 -271.5t-5.5 -177q0 -72 -10 -111q-18 -50 -76 -127q-38 -47 -92 -64.5t-139 -27.5q-225 -10 -262 -10z M266 702l2 109l219 -6q0 -2 2.5 -31.5t2.5 -51.5t-5 -22q-126 5 -221 2z" />
<glyph unicode="&#xd1;" horiz-adv-x="786" d="M51 6q6 17 6 57v11q0 21 4 71q0 5 1 19t1 18q7 122 7 221q-3 118 4 265q6 183 6 190q0 104 8 195q1 28 3 81t3 96.5t0 82.5q0 53 2 82v16q0 27 6 39q16 14 95 14h14l12 -41v2l13 -41v2q187 -695 335 -960q47 505 56 711q6 133 6 262q0 13 -4 45t-4 49q5 -3 15 -1.5 t15 1.5q43 0 74 -10q8 0 4 -25v4q-4 -31 -4 -102q0 -4 -1 -17t-1 -20q-5 -75 -18.5 -380t-16.5 -378q0 -15 -11.5 -260.5t-10.5 -290.5q-6 -16 -56 -16q-12 0 -28 -2t-21.5 -2t-12.5 6t-11 20q-41 173 -85 310t-76.5 214.5t-75.5 216.5t-83 318l-41 -827q0 -39 -2 -57 q-4 -74 -4 -109q0 -55 4 -82q-12 -2 -51 -2h-18q-49 -5 -58 4zM127 1663q-3 7 2 12l23 25l18 12q32 20 55 27q2 0 6 1t5 1q2 0 8 1t8 1q65 -4 108 -27v2q43 -30 103 -47h-6q22 -5 37 -8q49 -9 88 27v-2l30 30q30 -49 37 -67l-8 -9q-17 -17 -66 -47l3 2q-27 -10 -52 -10 q-44 3 -86 15q-29 14 -41 22l-22 10q-31 15 -35 21q-52 29 -119 12q-22 -4 -53 -35q-6 -6 -10 -8l-15 16l-18 25v-2zM604 1726l8 -4q2 -2 4 0h5l-9 -4zM649 1651q0 2 1 4.5t1 3.5l4 -14q-6 3 -6 6z" />
<glyph unicode="&#xd2;" horiz-adv-x="737" d="M53 870v95q0 63 1 98.5t9.5 88.5t24.5 93q38 89 113 154q67 59 202 63q99 3 177 -86v2q18 -24 26 -28q28 -27 35 -45q15 -32 31 -93q0 -20 6 -30v2l2 -4h-2q8 -63 8 -136q0 -15 -1 -60t-1 -62q-2 -47 -2 -144v-106q0 -178 -2 -262v-68q2 -31 0.5 -67.5t-5 -68.5 t-15 -61.5t-31.5 -46.5l-8 -6h2q-77 -69 -125 -84h2q-66 -12 -103 -12q-46 0 -86 12q-31 0 -57 23l-31 18q-13 5 -22 14q-20 14 -35.5 35t-22.5 35.5t-18 40.5l-6 19v-3q-17 46 -28.5 103.5t-15.5 95.5t-9 107q-6 103 -9 200q0 7 -1 21.5t-1 21.5q-4 87 -2 131zM184 750 q0 -96 6 -187q3 -30 3 -59v-23q2 -55 5 -88t12 -83.5t29.5 -90t51.5 -67.5q49 -39 129 -39q42 0 75 16t46 47q16 40 20 115q0 6 2 19t2 18q13 67 13 104q0 15 4 47l6 27q10 92 10 174q0 3 -6 168q0 4 -1 13t-1 13q-2 35 2 95q2 23 2 73q0 113 -33 185q-14 38 -49 64t-74 32 q-46 6 -81 4.5t-60.5 -17.5t-43.5 -36t-29 -50t-17.5 -59t-9.5 -63t-3.5 -63t-0.5 -59v-34q0 -8 -1.5 -25t-1.5 -24q-6 -73 -6 -147zM309 1741q22 28 103 33h2q12 1 20 -8t12.5 -25t6.5 -29.5t3.5 -31t2.5 -21.5q1 -8 3.5 -25.5t3 -26t-0.5 -24.5q-7 -28 -31 -29t-39 21 q-11 17 -29 51.5t-24 44.5q-2 4 -14 19t-18.5 29t-0.5 22z" />
<glyph unicode="&#xd3;" horiz-adv-x="737" d="M53 870v95q0 63 1 98.5t9.5 88.5t24.5 93q38 89 113 154q67 59 202 63q99 3 177 -86v2q18 -24 26 -28q28 -27 35 -45q15 -32 31 -93q0 -20 6 -30v2l2 -4h-2q8 -63 8 -136q0 -15 -1 -60t-1 -62q-2 -47 -2 -144v-106q0 -178 -2 -262v-68q2 -31 0.5 -67.5t-5 -68.5 t-15 -61.5t-31.5 -46.5l-8 -6h2q-77 -69 -125 -84h2q-66 -12 -103 -12q-46 0 -86 12q-31 0 -57 23l-31 18q-13 5 -22 14q-20 14 -35.5 35t-22.5 35.5t-18 40.5l-6 19v-3q-17 46 -28.5 103.5t-15.5 95.5t-9 107q-6 103 -9 200q0 7 -1 21.5t-1 21.5q-4 87 -2 131zM184 750 q0 -96 6 -187q3 -30 3 -59v-23q2 -55 5 -88t12 -83.5t29.5 -90t51.5 -67.5q49 -39 129 -39q42 0 75 16t46 47q16 40 20 115q0 6 2 19t2 18q13 67 13 104q0 15 4 47l6 27q10 92 10 174q0 3 -6 168q0 4 -1 13t-1 13q-2 35 2 95q2 23 2 73q0 113 -33 185q-14 38 -49 64t-74 32 q-46 6 -81 4.5t-60.5 -17.5t-43.5 -36t-29 -50t-17.5 -59t-9.5 -63t-3.5 -63t-0.5 -59v-34q0 -8 -1.5 -25t-1.5 -24q-6 -73 -6 -147zM379 1575q-3 32 23 109.5t42 99.5q73 9 119 0q12 -13 -29.5 -120.5t-50.5 -107.5q-68 -7 -104 19z" />
<glyph unicode="&#xd4;" horiz-adv-x="737" d="M53 870v95q0 63 1 98.5t9.5 88.5t24.5 93q38 89 113 154q67 59 202 63q94 3 177 -84q18 -24 26 -28q28 -27 35 -45q15 -32 31 -93q0 -20 6 -30v2l2 -4h-2q8 -63 8 -136q0 -15 -1 -60t-1 -62q-2 -47 -2 -144v-106q0 -178 -2 -262v-68q2 -31 0.5 -67.5t-5 -68.5t-15 -61.5 t-31.5 -46.5l-8 -6h2q-77 -69 -125 -84h2q-66 -12 -103 -12q-46 0 -86 12q-31 0 -57 23l-31 18q-13 5 -22 14q-20 14 -35.5 35t-22.5 35.5t-18 40.5l-6 19v-3q-17 46 -28.5 103.5t-15.5 95.5t-9 107q-6 103 -9 200q0 7 -1 21.5t-1 21.5q-4 87 -2 131zM166 1620q-2 2 0 6v-2 l76 76l159 139q132 -128 250 -211l13 -10l-76 -66l-17 15q-32 30 -60.5 58.5t-43 44t-27 28.5t-20 18.5t-14.5 7.5l-179 -168q-32 27 -61 64zM184 750q0 -96 6 -187q3 -30 3 -59v-23q2 -55 5 -88t12 -83.5t29.5 -90t51.5 -67.5q49 -39 129 -39q42 0 75 16t46 47 q16 40 20 115q0 6 2 19t2 18q13 67 13 104q0 15 4 47l6 27q10 92 10 174q0 3 -6 168q0 4 -1 13t-1 13q-2 35 2 95q2 23 2 73q0 113 -33 185q-14 38 -49 64t-74 32q-46 6 -81 4.5t-60.5 -17.5t-43.5 -36t-29 -50t-17.5 -59t-9.5 -63t-3.5 -63t-0.5 -59v-34q0 -8 -1.5 -25 t-1.5 -24q-6 -73 -6 -147zM401 1839q-4 9 3 9q3 -2 -1 -7z" />
<glyph unicode="&#xd5;" horiz-adv-x="737" d="M53 870v95q0 63 1 98.5t9.5 88.5t24.5 93q38 89 113 154q67 59 202 63q94 3 177 -84q18 -24 26 -28q28 -27 35 -45q15 -32 31 -93q0 -20 6 -30v2l2 -4h-2q8 -63 8 -136q0 -15 -1 -60t-1 -62q-2 -47 -2 -144v-106q0 -178 -2 -262v-68q2 -31 0.5 -67.5t-5 -68.5t-15 -61.5 t-31.5 -46.5l-8 -6h2q-77 -69 -125 -84h2q-66 -12 -103 -12q-46 0 -86 12q-31 0 -57 23l-31 18q-13 5 -22 14q-20 14 -35.5 35t-22.5 35.5t-18 40.5l-6 19v-3q-17 46 -28.5 103.5t-15.5 95.5t-9 107q-6 103 -9 200q0 7 -1 21.5t-1 21.5q-4 87 -2 131zM147 1671q-4 8 3 15 l22 22l18 14q25 16 56 25q1 0 4.5 1t5.5 1t7 2t7 2q66 -4 109 -29v2q50 -33 104 -45h-6q13 -6 35 -10q55 -7 88 29v-2l33 28q25 -41 37 -65l-11 -10q-18 -18 -63 -45l2 2q-29 -13 -53 -13q-46 3 -84 17q-29 14 -43 20l-23 13q-27 12 -35 20q-52 26 -116 10v2q-26 -7 -54 -35 q-4 -7 -12 -10l-12 17l-19 24v-2zM184 750q0 -96 6 -187q3 -30 3 -59v-23q2 -55 5 -88t12 -83.5t29.5 -90t51.5 -67.5q49 -39 129 -39q42 0 75 16t46 47q16 40 20 115q0 6 2 19t2 18q13 67 13 104q0 15 4 47l6 27q10 92 10 174q0 3 -6 168q0 4 -1 13t-1 13q-2 35 2 95 q2 23 2 73q0 113 -33 185q-14 38 -49 64t-74 32q-46 6 -81 4.5t-60.5 -17.5t-43.5 -36t-29 -50t-17.5 -59t-9.5 -63t-3.5 -63t-0.5 -59v-34q0 -8 -1.5 -25t-1.5 -24q-6 -73 -6 -147zM623 1737l10 -6q2 -2 2 0l4 2l-6 -7zM670 1661l2 6l2 -14q-4 4 -4 8z" />
<glyph unicode="&#xd6;" horiz-adv-x="737" d="M53 870v95q0 63 1 98.5t9.5 88.5t24.5 93q38 89 113 154q67 59 202 63q94 3 177 -84q18 -24 26 -28q28 -27 35 -45q15 -32 31 -93q0 -20 6 -30v2l2 -4h-2q8 -63 8 -136q0 -15 -1 -60t-1 -62q-2 -47 -2 -144v-106q0 -178 -2 -262v-68q2 -31 0.5 -67.5t-5 -68.5t-15 -61.5 t-31.5 -46.5l-8 -6h2q-77 -69 -125 -84h2q-66 -12 -103 -12q-46 0 -86 12q-31 0 -57 23l-31 18q-13 5 -22 14q-20 14 -35.5 35t-22.5 35.5t-18 40.5l-6 19v-3q-17 46 -28.5 103.5t-15.5 95.5t-9 107q-6 103 -9 200q0 7 -1 21.5t-1 21.5q-4 87 -2 131zM184 750q0 -96 6 -187 q3 -30 3 -59v-23q2 -55 5 -88t12 -83.5t29.5 -90t51.5 -67.5q49 -39 129 -39q42 0 75 16t46 47q16 40 20 115q0 6 2 19t2 18q13 67 13 104q0 15 4 47l6 27q10 92 10 174q0 3 -6 168q0 4 -1 13t-1 13q-2 35 2 95q2 23 2 73q0 113 -33 185q-14 38 -49 64t-74 32q-46 6 -81 4.5 t-60.5 -17.5t-43.5 -36t-29 -50t-17.5 -59t-9.5 -63t-3.5 -63t-0.5 -59v-34q0 -8 -1.5 -25t-1.5 -24q-6 -73 -6 -147zM309.5 1600q0.5 24 14.5 48.5t36 32.5q33 11 64 -16q19 -26 6.5 -57.5t-35.5 -48.5q-42 -11 -64 3t-21.5 38zM500 1591q-21 39 13 69q32 28 70 15 q26 -11 40 -41q18 -43 -21 -63q-23 -15 -55.5 -10t-46.5 30z" />
<glyph unicode="&#xd7;" horiz-adv-x="593" d="M51 836q16 18 40.5 45t25.5 28q15 9 73 -49l13 -10l102 -86q125 162 150 166q42 -9 60 -24.5t15 -26.5l-2 -11q-104 -141 -153 -184q0 -5 26 -30.5t75 -69t63 -56.5l4 -4q-12 -24 -38 -53.5t-36 -30.5q-79 59 -186 170q-33 -47 -140 -159q-16 -16 -24.5 -17t-14.5 8h2 l-14 13l-31 20h2q-1 1 -4 3.5t-4 4t-2.5 3.5t-1 4t1.5 4.5t4 5.5l76 80q6 6 18.5 19.5t20.5 22t20.5 23.5t24.5 31q-17 17 -51 48t-49 46q-39 45 -66 66z" />
<glyph unicode="&#xd8;" horiz-adv-x="770" d="M51 -2q20 72 64 203q-16 45 -26.5 103t-13.5 87t-9 105q-6 103 -9 200q0 7 -1 21.5t-1 21.5q-4 87 -2 131v95q0 63 1 98.5t9.5 88.5t24.5 93q38 89 113 154q67 59 202 63q78 3 150 -59q43 117 51 121q17 10 53 6q33 -2 51 -12t7 -35v-10q-6 -12 -6 -21l-58 -168 q3 -12 10.5 -36.5t10.5 -35.5q0 -20 6 -30v2l2 -4h-2q8 -63 8 -136q0 -15 -1 -60t-1 -62q-2 -47 -2 -144v-106q0 -178 -2 -262v-68q2 -31 0.5 -67.5t-5 -68.5t-15 -61.5t-31.5 -46.5l-8 -6h2q-77 -69 -125 -84h2q-66 -12 -103 -12q-46 0 -86 12q-31 0 -57 23l-31 18 q-13 5 -22 14q-22 -57 -27 -57q-18 -3 -59 -3.5t-64 -4.5zM184 750q0 -96 6 -187q3 -30 3 -59v-23q0 -33 2 -49q198 558 313 860q-31 22 -70 31q-46 6 -81 4.5t-60.5 -17.5t-43.5 -36t-29 -50t-17.5 -59t-9.5 -63t-3.5 -63t-0.5 -59v-34q0 -8 -1.5 -25t-1.5 -24 q-6 -73 -6 -147zM252 197q24 -32 39 -45q49 -39 129 -39q42 0 75 16t46 47q16 40 20 115q0 6 2 19t2 18q13 67 13 104q0 15 4 47l6 27q10 92 10 174q0 3 -6 168q0 4 -1 13t-1 13q-2 35 2 95q2 23 2 73q0 49 -4 72q-133 -374 -338 -917z" />
<glyph unicode="&#xd9;" d="M51 725v57q0 140 6 269q10 190 11 241v97q0 5 -5 30q-8 38 0 47q25 7 46 7q39 0 69 -9v-41q0 -62 -12 -194v2q-8 -113 -10 -170q-4 -126 -4 -193q0 -148 8 -252q2 -79 18 -217q0 -2 1 -7.5t1 -8.5q13 -118 37 -168q25 -49 72.5 -74.5t105.5 -25.5q67 0 123 32 q102 61 111 256v70q0 63 -4 189q-2 105 -10.5 300t-10.5 261q-5 103 -8 139q0 17 -4 37q-11 45 -6 65q22 8 65 13q5 0 12 1l7 1l8 2l22 2q13 -41 17 -111q0 -29 2 -41v2q19 -240 22 -454q0 -13 1 -42t1 -44q0 -21 1 -66t1 -68q0 -145 -12 -243q-28 -266 -170 -361 q-71 -47 -155.5 -54.5t-162 29.5t-120.5 113v-2q-19 30 -35 113q0 2 -1 7t-1 7q-33 188 -37 457zM274 1708q22 28 103 33h4q11 0 19 -9.5t12 -25t6 -29.5t3.5 -30.5t2.5 -20.5q1 -8 4 -25.5t3.5 -26t-1.5 -24.5q-7 -28 -30 -29t-38 19q-13 18 -30.5 53.5t-22.5 44.5 q-2 3 -15 19t-19.5 29.5t-0.5 21.5z" />
<glyph unicode="&#xda;" d="M51 725v57q0 140 6 269q10 190 11 241v97q0 5 -5 30q-8 38 0 47q25 7 46 7q39 0 69 -9v-41q0 -62 -12 -194v2q-8 -113 -10 -170q-4 -126 -4 -193q0 -148 8 -252q2 -79 18 -217q0 -2 1 -7.5t1 -8.5q13 -118 37 -168q25 -49 72.5 -74.5t105.5 -25.5q67 0 123 32 q102 61 111 256v70q0 63 -4 189q-2 105 -10.5 300t-10.5 261q-5 103 -8 139q0 17 -4 37q-11 45 -6 65q22 8 65 13q5 0 12 1l7 1l8 2l22 2q13 -41 17 -111q0 -29 2 -41v2q19 -240 22 -454q0 -13 1 -42t1 -44q0 -21 1 -66t1 -68q0 -145 -12 -243q-28 -266 -170 -361 q-71 -47 -155.5 -54.5t-162 29.5t-120.5 113v-2q-19 30 -35 113q0 2 -1 7t-1 7q-33 188 -37 457zM332 1556q-3 32 23 109.5t42 99.5q73 9 119 0q12 -13 -29.5 -120t-50.5 -107q-69 -7 -104 18z" />
<glyph unicode="&#xdb;" d="M51 725v57q0 140 6 269q10 190 11 241v97q0 5 -5 30q-8 38 0 47q25 7 46 7q39 0 69 -9v-41q0 -62 -12 -194v2q-8 -113 -10 -170q-4 -126 -4 -193q0 -148 8 -252q2 -79 18 -217q0 -2 1 -7.5t1 -8.5q13 -118 37 -168q25 -49 72.5 -74.5t105.5 -25.5q67 0 123 32 q102 61 111 256v70q0 63 -4 189q-2 105 -10.5 300t-10.5 261q-5 103 -8 139q0 17 -4 37q-11 45 -6 65q22 8 65 13q5 0 12 1l7 1l8 2l22 2q13 -41 17 -111q0 -29 2 -41v2q19 -240 22 -454q0 -13 1 -42t1 -44q0 -21 1 -66t1 -68q0 -145 -12 -243q-28 -266 -170 -361 q-71 -47 -155.5 -54.5t-162 29.5t-120.5 113v-2q-19 30 -35 113q0 2 -1 7t-1 7q-33 188 -37 457zM162 1589q-2 2 0 4l74 74l161 141q130 -126 248 -213l14 -8l-75 -67l-17 16q-50 46 -89.5 87t-53 54.5t-23.5 16.5l-180 -168q-44 41 -59 63zM397 1808q-6 7 1 7q3 -2 1 -5z " />
<glyph unicode="&#xdc;" horiz-adv-x="755" d="M51 1483q0 14 54.5 20.5t64.5 -8.5l27 -78q42 -135 115 -318.5t96 -195.5q11 12 90 266.5t92 321.5q4 2 35 -2h37q35 0 43 -4q-5 -3 -52 -131q-1 -4 -5 -12.5t-5 -12.5l2 2q-7 -30 -23 -85t-20 -68q-22 -76 -56.5 -187t-53 -174t-19.5 -80l-2 -121q0 -12 1 -103.5 t1 -156.5q0 -329 -4 -333q-4 0 -8 2q-3 0 -11.5 1t-11.5 1q-6 0 -61 -11q-4 -2 -12 -2v86v107v86q0 311 -7 375q-6 52 -95 259t-111 277q-9 38 -35 99v-5l-47 129l-7 17q-8 8 -12 39zM238.5 1589q0.5 24 15.5 48.5t37 31.5q28 13 61 -16q15 -15 12 -36t-14.5 -40t-25.5 -29 q-42 -11 -64 3t-21.5 38zM428 1579q-21 39 13 70q32 29 70 16q26 -11 40 -41q18 -41 -21 -65q-23 -15 -55.5 -10t-46.5 30z" />
<glyph unicode="&#xdd;" horiz-adv-x="755" d="M51 1483q0 14 54.5 20.5t64.5 -8.5l27 -78q42 -135 115 -318.5t96 -195.5q11 12 90 266.5t92 321.5q4 2 35 -2h37q35 0 43 -4q-5 -3 -52 -131q-1 -4 -5 -12.5t-5 -12.5l2 2q-7 -30 -23 -85t-20 -68q-22 -76 -56.5 -187t-53 -174t-19.5 -80l-2 -121q0 -12 1 -103.5 t1 -156.5q0 -329 -4 -333q-4 0 -8 2q-3 0 -11.5 1t-11.5 1q-6 0 -61 -11q-4 -2 -12 -2v86v107v86q0 311 -7 375q-6 52 -95 259t-111 277q-9 38 -35 99v-5l-47 129l-7 17q-8 8 -12 39zM305 1554q-4 32 22 109t42 100q73 9 120 0q12 -14 -29 -119.5t-52 -107.5q-67 -7 -103 18 z" />
<glyph unicode="&#xde;" horiz-adv-x="659" d="M53 -33q-3 823 3.5 1162.5t35.5 340.5h74q2 0 7.5 -1t6.5 -1v-2q0 -4 -3 -17t-3.5 -22t4.5 -26q137 31 176 31q31 0 58 -9q36 -12 70 -41t55 -65q71 -131 71 -328q0 -77 -2 -112q-2 -27 -2 -86q0 -107 -10 -158q-19 -111 -78 -184q-92 -118 -217 -109q-28 0 -53 14 q-5 2 -9 4.5t-8 4.5t-21 5.5t-46 6.5q0 -7 -1 -19t-1 -16l-8 -373q-16 -2 -60 -2q-25 0 -39 2zM154 657q0 -6 0.5 -18.5t1 -20t2 -19t3.5 -19.5t5.5 -18t7.5 -19q110 -115 217 -74q80 58 103 199q18 103 18 256q0 90 -6 172q-15 104 -70 174q-36 55 -98 55q-36 0 -78 -22 q-47 -23 -64.5 -64.5t-25.5 -105.5q-14 -92 -14 -287q0 -82 -2 -119v-31v-19v-20z" />
<glyph unicode="&#xdf;" horiz-adv-x="872" d="M51 1077q0 154 4 226q8 115 25 176q27 125 164 157h-2q45 13 100 13q51 0 94 -11q85 -13 139 -79q65 -72 96.5 -176.5t26.5 -206.5q-4 -83 -41 -134l-61 -61l43 -47l29 -29q53 -53 80 -108q47 -104 55 -181l6 -41q10 -55 10 -90q3 -181 -98 -290q-45 -48 -98 -84 q-33 -25 -58 -31l4 2l-24 -12q-5 -1 -35.5 -9.5t-54.5 -13.5q-31 -8 -64 -8q-40 0 -76 8l-10 16q0 3 2 5q2 19 -2 36.5t-2 36.5v13q36 -7 100 -7q32 0 78 11h-6q1 0 3 1t3 1q38 11 86.5 40.5t69.5 55.5q69 80 76 121q10 39 10 100q3 121 -19.5 199t-66.5 128t-129 107 q-27 16 -57 23v-2q-67 21 -119 18q-11 -2 -16.5 3t-8.5 22q-1 10 3.5 19t6.5 22q0 2 1 7t1 9q11 21 31 21q66 -17 131 18q35 20 70 56t45 65l6 63q3 45 -27 116t-63 104q-15 31 -69.5 53.5t-122.5 13t-107 -66.5q-45 -66 -55 -218l-4 -77q-9 -122 -7 -181l27 -669 q2 -23 2 -64q0 -7 0.5 -42t0.5 -65t-1 -44v-41v-58q0 -8 -2 -12q-4 -4 -2 -4q-15 0 -30.5 -0.5t-24.5 -1.5t-18 -0.5t-13 1.5t-8 5t-5 10.5t-1 16.5z" />
<glyph unicode="&#xe0;" horiz-adv-x="653" d="M53 430q5 92 46 166t120 115q36 20 67.5 28.5t60 5t47 -8.5t49 -18t46.5 -18q6 12 7.5 34t-0.5 52t-2 35q0 51 -24 94t-69 64q-23 8 -41.5 9.5t-31.5 -5t-22.5 -14.5t-17.5 -23.5t-12 -27.5t-10 -31q-3 -6 -8 -23.5t-8 -23.5q-66 -4 -88 8q-12 49 9.5 101.5t62.5 89.5 t95.5 56.5t104.5 8.5q52 -20 91 -67.5t53 -106.5q24 -137 24 -197q-5 -217 -7 -482q-1 -163 -4.5 -207t-17.5 -44h-88l-8 74q-36 -18 -63 -36.5t-35.5 -24t-26.5 -8t-55 -1.5q-61 -4 -133 72q-121 143 -111 354zM172 367q0 -57 11.5 -106t34.5 -86t58 -51t82 1 q68 33 99.5 105.5t31.5 156.5q0 40 -3 71t-13 72t-34.5 71.5t-61.5 45.5q-64 -1 -106 -23t-63 -63.5t-28.5 -86t-7.5 -107.5zM244 1380q21 26 102 31h2q12 1 20 -8t12.5 -24.5t6.5 -29.5t3.5 -30.5t2.5 -20.5q1 -8 3.5 -26t3 -26.5t-0.5 -22.5q-7 -28 -30.5 -29.5 t-38.5 18.5q-11 17 -29 52t-25 47q-2 4 -13.5 19t-18 28.5t-0.5 21.5z" />
<glyph unicode="&#xe1;" horiz-adv-x="653" d="M53 430q5 92 46 166t120 115q36 20 67.5 28.5t60 5t47 -8.5t49 -18t46.5 -18q6 12 7.5 34t-0.5 52t-2 35q0 51 -24 94t-69 64q-23 8 -41.5 9.5t-31.5 -5t-22.5 -14.5t-17.5 -23.5t-12 -27.5t-10 -31q-3 -6 -8 -23.5t-8 -23.5q-66 -4 -88 8q-12 49 9.5 101.5t62.5 89.5 t95.5 56.5t104.5 8.5q52 -20 91 -67.5t53 -106.5q24 -137 24 -197q-5 -217 -7 -482q-1 -163 -4.5 -207t-17.5 -44h-88l-8 74q-36 -18 -63 -36.5t-35.5 -24t-26.5 -8t-55 -1.5q-61 -4 -133 72q-121 143 -111 354zM172 367q0 -57 11.5 -106t34.5 -86t58 -51t82 1 q68 33 99.5 105.5t31.5 156.5q0 40 -3 71t-13 72t-34.5 71.5t-61.5 45.5q-64 -1 -106 -23t-63 -63.5t-28.5 -86t-7.5 -107.5zM293 1212q-4 33 21 109.5t42 101.5q65 8 121 0q12 -13 -30 -120t-52 -109q-66 -7 -102 18z" />
<glyph unicode="&#xe2;" horiz-adv-x="679" d="M53 430q5 92 46 166t120 115q36 20 67.5 28.5t60 5t47 -8.5t49 -18t46.5 -18q6 12 7.5 34t-0.5 52t-2 35q0 51 -24 94t-69 64q-23 8 -41.5 9.5t-31.5 -5t-22.5 -14.5t-17.5 -23.5t-12 -27.5t-10 -31q-3 -6 -8 -23.5t-8 -23.5q-66 -4 -88 8q-12 49 9.5 101.5t62.5 89.5 t95.5 56.5t104.5 8.5q52 -20 91 -67.5t53 -106.5q24 -137 24 -197q-5 -217 -7 -482q-1 -163 -4.5 -207t-17.5 -44h-88l-8 74q-36 -18 -63 -36.5t-35.5 -24t-26.5 -8t-55 -1.5q-61 -4 -133 72q-121 143 -111 354zM131 1292q-2 2 0 6v-2l76 76l160 139q126 -123 249 -213 l13 -8l-76 -65l-16 14q-32 30 -60.5 58.5t-43.5 44.5t-27.5 29t-20 18.5t-14.5 7.5l-178 -168q-34 29 -62 63zM172 367q0 -57 11.5 -106t34.5 -86t58 -51t82 1q68 33 99.5 105.5t31.5 156.5q0 40 -3 71t-13 72t-34.5 71.5t-61.5 45.5q-64 -1 -106 -23t-63 -63.5t-28.5 -86 t-7.5 -107.5zM367 1511q-4 7 3 7q4 0 1 -3l-2 -2z" />
<glyph unicode="&#xe3;" horiz-adv-x="694" d="M53 430q5 92 46 166t120 115q36 20 67.5 28.5t60 5t47 -8.5t49 -18t46.5 -18q6 12 7.5 34t-0.5 52t-2 35q0 51 -24 94t-69 64q-23 8 -41.5 9.5t-31.5 -5t-22.5 -14.5t-17.5 -23.5t-12 -27.5t-10 -31q-3 -6 -8 -23.5t-8 -23.5q-66 -4 -88 8q-12 49 9.5 101.5t62.5 89.5 t95.5 56.5t104.5 8.5q52 -20 91 -67.5t53 -106.5q24 -137 24 -197q-5 -217 -7 -482q-1 -163 -4.5 -207t-17.5 -44h-88l-8 74q-36 -18 -63 -36.5t-35.5 -24t-26.5 -8t-55 -1.5q-61 -4 -133 72q-121 143 -111 354zM117 1272q-3 7 2 12l22 25l19 12q23 18 55 27q2 0 5 1t5 1 t8 2t7 2q64 -4 108 -29v2q46 -30 105 -47h-7q12 -3 35 -8q52 -10 88 26l33 29q10 -17 37 -65l-10 -11q-24 -24 -64 -45h2q-27 -10 -53 -10q-47 3 -84 14q-29 15 -43 23l-20 10q-20 9 -37 21q-50 29 -117 12v2q-24 -6 -53 -35q-3 -7 -13 -10l-12 16l-18 25v-2zM172 367 q0 -57 11.5 -106t34.5 -86t58 -51t82 1q68 33 99.5 105.5t31.5 156.5q0 40 -3 71t-13 72t-34.5 71.5t-61.5 45.5q-64 -1 -106 -23t-63 -63.5t-28.5 -86t-7.5 -107.5zM592 1335l10 -4q2 -2 4 0l2 2l-6 -6zM639 1262q0 1 1 3t1 3l2 -15q-4 4 -4 9z" />
<glyph unicode="&#xe4;" horiz-adv-x="653" d="M53 430q5 92 46 166t120 115q36 20 67.5 28.5t60 5t47 -8.5t49 -18t46.5 -18q6 12 7.5 34t-0.5 52t-2 35q0 51 -24 94t-69 64q-23 8 -41.5 9.5t-31.5 -5t-22.5 -14.5t-17.5 -23.5t-12 -27.5t-10 -31q-3 -6 -8 -23.5t-8 -23.5q-66 -4 -88 8q-12 49 9.5 101.5t62.5 89.5 t95.5 56.5t104.5 8.5q52 -20 91 -67.5t53 -106.5q24 -137 24 -197q-5 -217 -7 -482q-1 -163 -4.5 -207t-17.5 -44h-88l-8 74q-36 -18 -63 -36.5t-35.5 -24t-26.5 -8t-55 -1.5q-61 -4 -133 72q-121 143 -111 354zM172 367q0 -57 11.5 -106t34.5 -86t58 -51t82 1 q68 33 99.5 105.5t31.5 156.5q0 40 -3 71t-13 72t-34.5 71.5t-61.5 45.5q-64 -1 -106 -23t-63 -63.5t-28.5 -86t-7.5 -107.5zM205.5 1251q0.5 24 14.5 49t36 33q30 10 63 -16q19 -26 7 -58t-35 -49q-42 -11 -64 3t-21.5 38zM395 1243q-21 39 13 69q32 28 70 15 q26 -10 40 -41q20 -42 -20 -63q-22 -15 -55.5 -10.5t-47.5 30.5z" />
<glyph unicode="&#xe5;" horiz-adv-x="653" d="M53 430q5 92 46 166t120 115q36 20 67.5 28.5t60 5t47 -8.5t49 -18t46.5 -18q6 12 7.5 34t-0.5 52t-2 35q0 51 -24 94t-69 64q-23 8 -41.5 9.5t-31.5 -5t-22.5 -14.5t-17.5 -23.5t-12 -27.5t-10 -31q-3 -6 -8 -23.5t-8 -23.5q-66 -4 -88 8q-12 49 9.5 101.5t62.5 89.5 t95.5 56.5t104.5 8.5q52 -20 91 -67.5t53 -106.5q24 -137 24 -197q-5 -217 -7 -482q-1 -163 -4.5 -207t-17.5 -44h-88l-8 74q-36 -18 -63 -36.5t-35.5 -24t-26.5 -8t-55 -1.5q-61 -4 -133 72q-121 143 -111 354zM172 367q0 -57 11.5 -106t34.5 -86t58 -51t82 1 q68 33 99.5 105.5t31.5 156.5q0 40 -3 71t-13 72t-34.5 71.5t-61.5 45.5q-64 -1 -106 -23t-63 -63.5t-28.5 -86t-7.5 -107.5zM220 1359q1 14 5 38t4 37q6 34 31.5 59.5t61.5 36.5h-3q28 8 52 8q41 0 77.5 -20.5t59.5 -59.5q16 -33 16 -78q3 -67 -41 -123 q-19 -33 -56.5 -48.5t-78.5 -6.5q-83 20 -123 115q-6 28 -5 42zM297 1333q10 -25 26 -34t46 -7q2 0 37 13q26 14 38.5 34.5t6.5 42.5q-6 19 -35 43.5t-47 24.5q-48 0 -69 -39.5t-1 -79.5z" />
<glyph unicode="&#xe6;" horiz-adv-x="1140" d="M51 377q0 20 4 74q13 174 121 282q63 57 162 70q20 3 63.5 -10t59.5 -13q5 26 6 53t-0.5 60t-1.5 43q0 34 -31 51l2 -2q-24 21 -63 21q-27 0 -53 -15.5t-40.5 -32t-34 -43t-26.5 -34.5l2 -2q-51 14 -78 26l2 2q-1 0 -2 -1t-2 -1q-14 3 24.5 60.5t103.5 113.5t114 54 q100 -3 188 -80q58 36 99 54t79.5 19t62.5 -4.5t73 -21.5q22 -7 55 -43q51 -70 74 -172q11 -58 23 -154t7 -129q-6 -19 -28 -22q-7 0 -35 4h-336q-6 -165 -6.5 -210t6.5 -93q2 -19 25 -60q32 -43 80 -65q48 -21 102 -6l-2 -3q60 13 90 82q17 51 23 113q0 2 1 9t1 9v11 q22 -4 122 -27q2 -17 -11 -42t-15 -34q-35 -118 -68 -164t-82 -67q-58 -16 -110 -19q-39 -3 -82 31q-6 3 -17 14l-86 46q-2 -23 -0.5 -65t-1.5 -44h-6q-5 0 -47.5 2t-48.5 2q-3 0 -7 6.5t-7.5 24t0.5 47.5q-74 -74 -170 -74q-61 0 -123 41v-2q-98 66 -137 197 q-17 58 -17 133zM181 511q-10 -93 5.5 -186.5t44.5 -152.5q16 -33 43 -47t54 -10t52 12.5t40 18.5l16 10v489h-14q-4 4 -12 9t-31 15.5t-45 14t-50.5 -5t-52.5 -33.5q-40 -41 -50 -134zM656 722l1 -30h261q-1 12 -2.5 31t-11 68t-23.5 86.5t-42.5 68.5t-64.5 31t-61 -29.5 t-35.5 -71.5t-16 -83.5t-5.5 -70.5z" />
<glyph unicode="&#xe7;" horiz-adv-x="598" d="M51 322q0 252 17 393q6 46 16.5 90.5t30.5 92t46 83.5t65 61.5t85 30.5q67 6 131 -24q107 -44 103 -78q-3 -23 -58 -60h2l-32 -26q0 3 -5 8l-13.5 13.5t-12.5 13.5h2q-30 25 -39 28q-27 13 -51.5 13t-43.5 -9t-36.5 -28t-29.5 -40t-23 -50t-18 -52t-13.5 -53t-9.5 -45.5 t-6 -36.5q0 -3 -2 -12.5t-2 -13.5q-5 -40 -8.5 -79t-5 -93.5t5 -102t19.5 -94.5t39.5 -82.5t63.5 -54.5l-2 2q108 -54 183 61q15 21 51 -24q22 -22 22 -43q0 -22 -26 -48q-50 -47 -119 -59q0 -60 49 -84q20 -14 34 -33t20 -43t-11 -45q-20 -27 -53.5 -54.5t-63.5 -37.5 q-16 -6 -37.5 -9t-35.5 -3.5t-46 0t-43 0.5q-8 15 -7.5 49.5t-2.5 52.5h2v6l54 -8q37 0 47 2q41 13 55 45v-2q16 44 -31 70l-49 16q0 24 -6 51t-6 33q-27 9 -45 21q-143 77 -150 291z" />
<glyph unicode="&#xe8;" horiz-adv-x="673" d="M54 586.5q4 137.5 45 263.5t114 184q62 47 149 47q47 0 109 -28q20 -13 36 -31.5t27 -44.5t18 -45t13 -54t8 -50t7 -52q10 -98 10 -178q0 -37 -2 -55h-1h-1h-1h-1h-1h-1h-1h-1h-1h-1h-1h-1h-1h-1h-1h-1h-1h-1h-1h-1h-1h-1h-1h-1h-1l-1 -1h-1h-1h-1h-1h-1h-1h-1h-1h-1h-1 h-1h-1h-1h-1h-1h-1h-1h-1h-1h-1h-1h-1h-1h-1h-1h-1h-1h-2q-361 -7 -361 -18q-2 -179 15 -265.5t85 -121.5q36 -20 79.5 -14t76.5 33h-2q23 17 37.5 43.5t20 46.5t10.5 51v16q34 -3 129 -47q-17 -55 -21 -73q-16 -72 -77.5 -120.5t-141.5 -64.5q-31 -8 -59 -8 q-61 0 -112 30.5t-83 88.5q-39 72 -59 201t-16 266.5zM166 657q143 -23 326 9q15 56 2 135v-4q-2 2 -2 8q-55 224 -201 145q-33 -18 -56 -49.5t-35.5 -72.5t-19 -74.5t-12.5 -79.5q-1 -11 -2 -17zM242 1380q21 26 102 31h2q12 1 20 -8t12.5 -24.5t6.5 -29.5t3.5 -30.5 t2.5 -20.5q1 -8 3.5 -26t3 -26.5t-0.5 -22.5q-7 -28 -30.5 -29.5t-38.5 18.5q-11 17 -29 52t-25 47q-2 4 -13.5 19t-18 28.5t-0.5 21.5z" />
<glyph unicode="&#xe9;" horiz-adv-x="673" d="M54 586.5q4 137.5 45 263.5t114 184q62 47 149 47q47 0 109 -28q20 -13 36 -31.5t27 -44.5t18 -45t13 -54t8 -50t7 -52q10 -98 10 -178q0 -37 -2 -55h-1h-1h-1h-1h-1h-1h-1h-1h-1h-1h-1h-1h-1h-1h-1h-1h-1h-1h-1h-1h-1h-1h-1h-1h-1l-1 -1h-1h-1h-1h-1h-1h-1h-1h-1h-1h-1 h-1h-1h-1h-1h-1h-1h-1h-1h-1h-1h-1h-1h-1h-1h-1h-1h-1h-2q-361 -7 -361 -18q-2 -179 15 -265.5t85 -121.5q36 -20 79.5 -14t76.5 33h-2q23 17 37.5 43.5t20 46.5t10.5 51v16q34 -3 129 -47q-17 -55 -21 -73q-16 -72 -77.5 -120.5t-141.5 -64.5q-31 -8 -59 -8 q-61 0 -112 30.5t-83 88.5q-39 72 -59 201t-16 266.5zM166 657q143 -23 326 9q15 56 2 135v-6l-1 3q-1 3 -1 7q-55 224 -201 145q-33 -18 -56 -49.5t-35.5 -72.5t-19 -74.5t-12.5 -79.5q-1 -11 -2 -17zM291 1212q-4 33 21 109.5t42 101.5q65 8 121 0q12 -13 -30 -120 t-52 -109q-66 -7 -102 18z" />
<glyph unicode="&#xea;" horiz-adv-x="677" d="M54 586.5q4 137.5 45 263.5t114 184q62 47 149 47q47 0 109 -28q20 -13 36 -31.5t27 -44.5t18 -45t13 -54t8 -50t7 -52q10 -98 10 -178q0 -37 -2 -55h-1h-1h-1h-1h-1h-1h-1h-1h-1h-1h-1h-1h-1h-1h-1h-1h-1h-1h-1h-1h-1h-1h-1h-1h-1l-1 -1h-1h-1h-1h-1h-1h-1h-1h-1h-1h-1 h-1h-1h-1h-1h-1h-1h-1h-1h-1h-1h-1h-1h-1h-1h-1h-1h-1h-2q-361 -7 -361 -18q-2 -179 15 -265.5t85 -121.5q36 -20 79.5 -14t76.5 33h-2q23 17 37.5 43.5t20 46.5t10.5 51v16q34 -3 129 -47q-17 -55 -21 -73q-16 -72 -77.5 -120.5t-141.5 -64.5q-31 -8 -59 -8 q-61 0 -112 30.5t-83 88.5q-39 72 -59 201t-16 266.5zM129 1292q-2 2 0 6v-2l76 76l160 139q126 -123 249 -213l13 -8l-76 -65l-16 14q-32 30 -60.5 58.5t-43.5 44.5t-27.5 29t-20 18.5t-14.5 7.5l-179 -168q-30 26 -61 63zM166 657q143 -23 326 9q15 56 2 135v-6l-1 3 q-1 3 -1 7q-55 224 -201 145q-33 -18 -56 -49.5t-35.5 -72.5t-19 -74.5t-12.5 -79.5q-1 -11 -2 -17zM365 1511q-4 7 3 7q4 0 1 -3l-2 -2z" />
<glyph unicode="&#xeb;" horiz-adv-x="673" d="M54 586.5q4 137.5 45 263.5t114 184q62 47 149 47q47 0 109 -28q20 -13 36 -31.5t27 -44.5t18 -45t13 -54t8 -50t7 -52q10 -98 10 -178q0 -37 -2 -55h-1h-1h-1h-1h-1h-1h-1h-1h-1h-1h-1h-1h-1h-1h-1h-1h-1h-1h-1h-1h-1h-1h-1h-1h-1l-1 -1h-1h-1h-1h-1h-1h-1h-1h-1h-1h-1 h-1h-1h-1h-1h-1h-1h-1h-1h-1h-1h-1h-1h-1h-1h-1h-1h-1h-2q-361 -7 -361 -18q-2 -179 15 -265.5t85 -121.5q36 -20 79.5 -14t76.5 33h-2q23 17 37.5 43.5t20 46.5t10.5 51v16q34 -3 129 -47q-17 -55 -21 -73q-16 -72 -77.5 -120.5t-141.5 -64.5q-31 -8 -59 -8 q-61 0 -112 30.5t-83 88.5q-39 72 -59 201t-16 266.5zM166 657q143 -23 326 9q15 56 2 135v-6l-1 3q-1 3 -1 7q-55 224 -201 145q-33 -18 -56 -49.5t-35.5 -72.5t-19 -74.5t-12.5 -79.5q-1 -11 -2 -17zM199.5 1249q0.5 24 15.5 49t37 33q31 10 61 -16q16 -16 13 -37.5 t-15 -40.5t-26 -29q-42 -11 -64 3t-21.5 38zM389 1241q-21 39 14 69q32 28 69 15q27 -9 40 -41q20 -40 -18 -63q-24 -15 -57.5 -10t-47.5 30z" />
<glyph unicode="&#xec;" horiz-adv-x="280" d="M52.5 1333.5q-4.5 11.5 2.5 16.5q20 24 105 30q8 0 15 -4.5t11 -13.5t7 -18t5 -22.5t3 -21.5t1.5 -20t0.5 -14q1 -7 4 -24.5t3.5 -26.5t-1.5 -25q-6 -28 -29.5 -29t-38.5 21q-10 13 -19 29.5t-18.5 37t-15.5 31.5q-2 3 -11 14t-14.5 19.5t-10 20zM98 1006q-4 28 0 57 q-2 1 0 2v-2q2 2 4 2q127 18 127 16q-13 -466 -18.5 -684t-5 -275t3.5 -79q0 -1 1 -5t1 -5q1 -5 2 -9t1.5 -10t1 -8.5t-0.5 -3.5l-102 6l-13 965q0 6 -1 16.5t-1 16.5z" />
<glyph unicode="&#xed;" horiz-adv-x="292" d="M53 1194q-3 33 23 109.5t43 101.5q65 8 119 0q12 -13 -29 -120t-51 -109q-66 -7 -105 18zM55 1006q-4 28 0 57q-2 1 0 2v-2q2 2 4 2q127 18 127 16q-13 -466 -18.5 -684t-5 -275t3.5 -79q0 -1 1 -5t1 -5q1 -5 2 -9t1.5 -10t1 -8.5t-0.5 -3.5l-102 6l-13 965q0 6 -1 16.5 t-1 16.5z" />
<glyph unicode="&#xee;" horiz-adv-x="602" d="M53 1255q-2 2 0 7v-2l76 75l160 140q123 -120 250 -213l12 -9l-76 -65l-16 14q-32 30 -60.5 58.5t-43.5 44.5t-27.5 29t-20 18.5t-14.5 7.5l-178 -168q-47 41 -62 63zM215 1006q-4 28 0 57q-2 1 0 2v-2q2 2 4 2q127 18 127 16q-13 -466 -18.5 -684t-5 -275t3.5 -79 q0 -1 1 -5t1 -5q1 -5 2 -9t1.5 -10t1 -8.5t-0.5 -3.5l-103 6l-12 965q0 6 -1 16.5t-1 16.5zM289 1475q-4 7 3 7q4 0 1 -3l-2 -2z" />
<glyph unicode="&#xef;" horiz-adv-x="423" d="M52.5 1203q0.5 24 15 48.5t36.5 32.5q30 13 64 -16q19 -24 6 -56.5t-37 -48.5q-42 -11 -63.5 2.5t-21 37.5zM158 1006q-4 28 0 57q-2 1 0 2v-2q2 2 4 2q127 18 127 16q-19 -682 -22.5 -859t1.5 -179q0 -1 1 -5t1 -5q1 -5 2 -9t1.5 -10t1 -8.5t-0.5 -3.5l-102 6l-12 965 q0 6 -1 16.5t-1 16.5zM244 1194q-21 39 13 70q32 29 70 16q26 -10 40 -41q16 -42 -21 -65q-23 -15 -56 -10t-46 30z" />
<glyph unicode="&#xf0;" horiz-adv-x="706" d="M51 1169h6h-6zM55 469q0 328 131 442q20 20 58 37h-2q99 29 153 29q35 0 123 -31q1 20 4.5 59.5t3.5 49.5q0 117 -20 172t-88 123q0 -83 6 -131v2q4 -58 -2 -78q-33 -10 -62 -10q-33 0 -63 6q1 31 -2.5 107t0.5 112q-98 -74 -98 -166q0 -21 -2 -23t-2 -4l-136 4 q12 119 73.5 200t168.5 110q-11 100 0 168l4 2q86 9 103 -13q4 -15 6 -52t3.5 -67t4.5 -32q54 -36 85 -58.5t58.5 -53.5t40 -55t23.5 -69.5t15 -89.5t9 -123q0 -8 1 -23.5t1 -23.5q-1 -60 1 -149t-4.5 -205t-18 -222t-40 -199.5t-69.5 -137.5q-56 -64 -112 -78 q-27 -8 -66 -8q-106 0 -190 94q-99 135 -99 385zM152 520q0 -98 26 -211q26 -106 88 -168q30 -28 61.5 -31.5t58 15.5t46 42.5t37.5 53.5q50 94 66 262q4 50 4 80q0 115 -37 193q-12 24 -39.5 45.5t-52.5 32.5q-56 18 -121.5 -2.5t-89.5 -69.5q-23 -53 -29 -84 q-18 -97 -18 -158z" />
<glyph unicode="&#xf1;" horiz-adv-x="645" d="M51 84q2 38 11 281.5t17 447t11 242.5q9 6 49 10q23 3 41 10q17 2 17 -108l51 37q70 36 123 36q63 0 114 -39q21 -16 37 -35.5t27.5 -39t20 -48t13.5 -52.5t7 -61.5t3 -66t-0.5 -76t-3 -81.5t-4 -92t-3.5 -99q7 -214 -7 -334l-90 7q5 89 21 428v28q0 201 -16 287 q-26 142 -97 164q-18 5 -35 6t-33 -3t-30 -9.5t-28.5 -14.5t-25.5 -16.5t-25 -17t-23 -15.5l-15 -88l-33 -575q0 -11 1 -36.5t1 -39.5q0 -80 -2 -121h-22q-52 0 -70 6q-2 27 -2 78zM53 1237q-3 6 0 12l23 25l18 12q23 17 56 27q2 0 6 1t6 1q1 0 6.5 1t7.5 1q62 0 109 -27v2 q43 -30 102 -47h-4q18 -5 35 -8q49 -9 88 27v-2l31 30l-9 8l9 -4q2 -2 4 0l4 2l-8 -6q27 -44 36 -67l-8 -8q-22 -22 -65 -48l2 2q-27 -10 -51 -10q-47 3 -84 15q-31 14 -43 22l-23 10q-13 6 -35 21q-52 29 -119 12v2q-27 -8 -53 -37q-7 -7 -10 -8l-12 16l-19 25v-2z M573 1225q0 2 1 4.5t1 3.5l5 -14z" />
<glyph unicode="&#xf2;" horiz-adv-x="673" d="M51 508q0 257 105 418h-2q60 88 161 88q32 0 76 -13q121 -46 176 -172q7 -17 13 -35t10 -31t7.5 -33.5t5.5 -29.5t4.5 -33.5t3 -31t3 -36.5t2.5 -36q6 -75 2 -178q-11 -91 -36 -185.5t-50 -129.5q-56 -74 -153 -74q-33 0 -94 13.5t-62 25.5q-70 31 -107.5 95.5 t-45.5 148.5q-19 144 -19 229zM143 473q2 -23 2 -70q0 -28 7 -63q5 -37 8 -55t11.5 -54.5t22.5 -62.5t33 -43q20 -19 57.5 -31t73.5 -12q55 0 82 27h-2q40 33 63 101t23 128v20q2 51 2 148q0 77 -2 110q0 4 -1 12t-1 11q-4 39 -13 79.5t-26.5 87.5t-49 78.5t-71.5 35.5 q-67 8 -114 -39q-46 -46 -60 -119l-32 -127q-23 -98 -13 -162zM242 1380q21 26 102 31h2q12 1 20 -8t12.5 -24.5t6.5 -29.5t3.5 -30.5t2.5 -20.5q1 -8 3.5 -26t3 -26.5t-0.5 -22.5q-7 -28 -30.5 -29.5t-38.5 18.5q-11 17 -29 52t-25 47q-2 4 -13.5 19t-18 28.5t-0.5 21.5z " />
<glyph unicode="&#xf3;" horiz-adv-x="673" d="M51 508q0 257 105 418h-2q60 88 161 88q32 0 76 -13q121 -46 176 -172q7 -17 13 -35t10 -31t7.5 -33.5t5.5 -29.5t4.5 -33.5t3 -31t3 -36.5t2.5 -36q6 -75 2 -178q-11 -91 -36 -185.5t-50 -129.5q-56 -74 -153 -74q-33 0 -94 13.5t-62 25.5q-70 31 -107.5 95.5 t-45.5 148.5q-19 144 -19 229zM143 473q2 -23 2 -70q0 -28 7 -63q5 -37 8 -55t11.5 -54.5t22.5 -62.5t33 -43q20 -19 57.5 -31t73.5 -12q55 0 82 27h-2q40 33 63 101t23 128v20q2 51 2 148q0 77 -2 110q0 4 -1 12t-1 11q-4 39 -13 79.5t-26.5 87.5t-49 78.5t-71.5 35.5 q-67 8 -114 -39q-46 -46 -60 -119l-32 -127q-23 -98 -13 -162zM291 1212q-4 33 21 109.5t42 101.5q65 8 121 0q12 -13 -30 -120t-52 -109q-66 -7 -102 18z" />
<glyph unicode="&#xf4;" horiz-adv-x="677" d="M51 508q0 257 105 418h-2q60 88 161 88q32 0 76 -13q121 -46 176 -172q7 -17 13 -35t10 -31t7.5 -33.5t5.5 -29.5t4.5 -33.5t3 -31t3 -36.5t2.5 -36q6 -75 2 -178q-11 -91 -36 -185.5t-50 -129.5q-56 -74 -153 -74q-33 0 -94 13.5t-62 25.5q-70 31 -107.5 95.5 t-45.5 148.5q-19 144 -19 229zM129 1292q-2 2 0 6v-2l76 76l160 139q126 -123 249 -213l13 -8l-76 -65l-16 14q-32 30 -60.5 58.5t-43.5 44.5t-27.5 29t-20 18.5t-14.5 7.5l-179 -168q-30 26 -61 63zM143 473q2 -23 2 -70q0 -28 7 -63q5 -37 8 -55t11.5 -54.5t22.5 -62.5 t33 -43q20 -19 57.5 -31t73.5 -12q55 0 82 27h-2q40 33 63 101t23 128v20q2 51 2 148q0 77 -2 110q0 4 -1 12t-1 11q-4 39 -13 79.5t-26.5 87.5t-49 78.5t-71.5 35.5q-67 8 -114 -39q-46 -46 -60 -119l-32 -127q-23 -98 -13 -162zM365 1511q-4 7 3 7q4 0 1 -3l-2 -2z" />
<glyph unicode="&#xf5;" horiz-adv-x="675" d="M53 508q0 257 105 418h-2q60 88 161 88q32 0 76 -13q121 -46 176 -172q7 -17 13 -35t10 -31t7.5 -33.5t5.5 -29.5t4.5 -33.5t3 -31t3 -36.5t2.5 -36q7 -83 3 -178q-11 -91 -36 -185.5t-50 -129.5q-56 -74 -154 -74q-33 0 -94 13.5t-62 25.5q-70 31 -107.5 95.5 t-45.5 148.5q-19 144 -19 229zM53 1237q-3 6 0 12l23 25l18 12q23 17 56 27q2 0 6 1t6 1q1 0 6.5 1t7.5 1q62 0 109 -27v2q43 -30 102 -47h-4q18 -5 35 -8q49 -9 88 27v-2l31 30q27 -44 36 -67l-8 -8q-22 -22 -65 -48l2 2q-27 -10 -51 -10q-47 3 -84 15q-31 14 -43 22 l-23 10q-13 6 -35 21q-52 29 -119 12v2q-27 -8 -53 -37q-7 -7 -10 -8l-12 16l-19 25v-2zM145 473q2 -23 2 -70q0 -28 7 -63q5 -37 8 -55t11.5 -54.5t22.5 -62.5t33 -43q20 -19 57.5 -31t73.5 -12q55 0 82 27h-2q40 33 63 101t23 128v20q2 51 2 148q0 77 -2 110q0 4 -1 12 t-1 11q-4 39 -13 79.5t-26 87.5t-48.5 78.5t-71.5 35.5q-68 8 -115 -39q-46 -46 -60 -119l-32 -127q-23 -98 -13 -162zM528 1300l9 -4q2 -2 4 0l4 2l-8 -6zM573 1225q0 2 1 4.5t1 3.5l5 -14z" />
<glyph unicode="&#xf6;" horiz-adv-x="673" d="M51 508q0 257 105 418h-2q60 88 161 88q32 0 76 -13q121 -46 176 -172q7 -17 13 -35t10 -31t7.5 -33.5t5.5 -29.5t4.5 -33.5t3 -31t3 -36.5t2.5 -36q6 -75 2 -178q-11 -91 -36 -185.5t-50 -129.5q-56 -74 -153 -74q-33 0 -94 13.5t-62 25.5q-70 31 -107.5 95.5 t-45.5 148.5q-19 144 -19 229zM143 473q2 -23 2 -70q0 -28 7 -63q5 -37 8 -55t11.5 -54.5t22.5 -62.5t33 -43q20 -19 57.5 -31t73.5 -12q55 0 82 27h-2q40 33 63 101t23 128v20q2 51 2 148q0 77 -2 110q0 4 -1 12t-1 11q-4 39 -13 79.5t-26.5 87.5t-49 78.5t-71.5 35.5 q-67 8 -114 -39q-46 -46 -60 -119l-32 -127q-23 -98 -13 -162zM199.5 1249q0.5 24 15.5 49t37 33q31 10 61 -16q16 -16 13 -37.5t-15 -40.5t-26 -29q-42 -11 -64 3t-21.5 38zM389 1241q-21 39 14 69q32 28 69 15q27 -9 40 -41q20 -40 -18 -63q-24 -15 -57.5 -10t-47.5 30z " />
<glyph unicode="&#xf7;" horiz-adv-x="696" d="M52 588q1 11 4 45t3 61l578 -10q0 -4 1.5 -18.5t3 -30.5t2.5 -32.5t0 -27t-5 -10.5q-173 5 -325.5 3t-180 -4.5t-80.5 5.5q-2 8 -1 19zM262 946q15 47 70 58h4h-2h2q17 3 35 -9t24 -28q11 -20 6 -44.5t-22 -39.5q-5 -7 -18 -16.5t-23 -10.5q-36 0 -61 27.5t-15 62.5z M277.5 330.5q-7.5 36.5 7.5 62.5q16 26 47 33t53 -14q13 -13 23.5 -38t9.5 -48l4 4q2 0 0 -2q0 -3 -3 -12t-5 -11q-12 -24 -46 -31.5t-57 5.5q-26 15 -33.5 51.5zM330 1004h6h-6z" />
<glyph unicode="&#xf8;" horiz-adv-x="673" d="M51 508q0 257 105 418h-2q60 88 161 88q32 0 76 -13l31 -14q80 274 88 277q12 10 39 6q59 -4 45 -47v-11q-4 -6 -4 -20l-76 -277q29 -36 53 -86q7 -17 13 -35t10 -31t7.5 -33.5t5.5 -29.5t4.5 -33.5t3 -31t3 -36.5t2.5 -36q6 -75 2 -178q-11 -91 -36 -185.5t-50 -129.5 q-56 -74 -153 -74q-48 0 -115 18q-82 -278 -84 -280q-14 -2 -46 -2.5t-50 -3.5q5 34 84 340q-88 74 -98 211q-19 144 -19 229zM143 473q2 -23 2 -70q0 -28 7 -63q16 -122 43 -172q121 456 206 739q-25 11 -39 13q-67 8 -114 -39q-46 -46 -60 -119l-32 -127q-23 -98 -13 -162 zM287 94q35 -12 71 -12q55 0 82 27h-2q40 33 63 101t23 128v20q2 51 2 148q0 77 -2 110q0 4 -1 12t-1 11q-9 97 -39 162q-164 -596 -196 -707z" />
<glyph unicode="&#xf9;" horiz-adv-x="747" d="M51 756q0 47 0.5 95t1 79.5t0.5 36.5v22q0 68 2 105q16 2 58 2q41 0 73 -11q-2 0 -0.5 -6t0.5 -8q-2 -21 -14 -295.5t-12 -310.5v-49q-4 -107 22 -166q20 -40 31 -53q17 -15 55 -30t86 -15q62 0 107 22q22 11 39.5 33.5t25.5 46.5q25 66 29 152q2 35 2 108q0 103 -2 148 q0 13 -1 39.5t-1 41.5q-4 202 -21 334q0 7 8 13t19 6q27 0 51 4q4 0 10.5 1t10.5 1q33 -4 42 -12t9 -23q0 -13 -1 -46t-1 -50q0 -605 12 -715q4 -43 4 -136v-112q-4 -4 -4 -8q2 2 4 2l-6 -8q0 4 2 6q-16 -4 -57 -4h-33q-11 -2 -20 12l-9 64q-24 -6 -107.5 -41.5 t-135.5 -30.5q-64 6 -129 41q-45 22 -80 78q-26 32 -41 98q-29 75 -29 539zM244 1380q21 26 102 31h2q12 1 20 -8t12.5 -24.5t6.5 -29.5t3.5 -30.5t2.5 -20.5q1 -8 3.5 -26t3 -26.5t-0.5 -22.5q-7 -28 -30.5 -29.5t-38.5 18.5q-11 17 -29 52t-25 47q-2 4 -13.5 19t-18 28.5 t-0.5 21.5z" />
<glyph unicode="&#xfa;" horiz-adv-x="747" d="M51 756q0 47 0.5 95t1 79.5t0.5 36.5v22q0 68 2 105q16 2 58 2q41 0 73 -11q-2 0 -0.5 -6t0.5 -8q-2 -21 -14 -295.5t-12 -310.5v-49q-4 -107 22 -166q20 -40 31 -53q17 -15 55 -30t86 -15q62 0 107 22q22 11 39.5 33.5t25.5 46.5q25 66 29 152q2 35 2 108q0 103 -2 148 q0 13 -1 39.5t-1 41.5q-4 202 -21 334q0 7 8 13t19 6q27 0 51 4q4 0 10.5 1t10.5 1q33 -4 42 -12t9 -23q0 -13 -1 -46t-1 -50q0 -605 12 -715q4 -43 4 -136v-112q-4 -4 -4 -8q2 2 4 2l-6 -8q0 4 2 6q-16 -4 -57 -4h-33q-11 -2 -20 12l-9 64q-24 -6 -107.5 -41.5 t-135.5 -30.5q-64 6 -129 41q-45 22 -80 78q-26 32 -41 98q-29 75 -29 539zM291 1202q-4 32 21.5 109t41.5 100q73 9 121 0q12 -13 -30 -119t-52 -108q-66 -7 -102 18z" />
<glyph unicode="&#xfb;" horiz-adv-x="747" d="M51 756q0 47 0.5 95t1 79.5t0.5 36.5v22q0 68 2 105q16 2 58 2q41 0 73 -11q-2 0 -0.5 -6t0.5 -8q-2 -21 -14 -295.5t-12 -310.5v-49q-4 -107 22 -166q20 -40 31 -53q17 -15 55 -30t86 -15q62 0 107 22q22 11 39.5 33.5t25.5 46.5q25 66 29 152q2 35 2 108q0 103 -2 148 q0 13 -1 39.5t-1 41.5q-4 202 -21 334q0 7 8 13t19 6q27 0 51 4q4 0 10.5 1t10.5 1q33 -4 42 -12t9 -23q0 -13 -1 -46t-1 -50q0 -605 12 -715q4 -43 4 -136v-112q-4 -4 -4 -8q2 2 4 2l-6 -8q0 4 2 6q-16 -4 -57 -4h-33q-11 -2 -20 12l-9 64q-24 -6 -107.5 -41.5 t-135.5 -30.5q-64 6 -129 41q-45 22 -80 78q-26 32 -41 98q-29 75 -29 539zM131 1292q-2 2 0 6v-2l76 76l160 139q126 -123 249 -213l13 -8l-76 -65l-16 14q-32 30 -60.5 58.5t-43.5 44.5t-27.5 29t-20 18.5t-14.5 7.5l-178 -168q-34 29 -62 63zM367 1511q-4 7 3 7q4 0 1 -3 l-2 -2z" />
<glyph unicode="&#xfc;" horiz-adv-x="747" d="M51 756q0 47 0.5 95t1 79.5t0.5 36.5v22q0 68 2 105q16 2 58 2q41 0 73 -11q-2 0 -0.5 -6t0.5 -8q-2 -21 -14 -295.5t-12 -310.5v-49q-4 -107 22 -166q20 -40 31 -53q17 -15 55 -30t86 -15q62 0 107 22q22 11 39.5 33.5t25.5 46.5q25 66 29 152q2 35 2 108q0 103 -2 148 q0 13 -1 39.5t-1 41.5q-4 202 -21 334q0 7 8 13t19 6q27 0 51 4q4 0 10.5 1t10.5 1q33 -4 42 -12t9 -23q0 -13 -1 -46t-1 -50q0 -605 12 -715q4 -43 4 -136v-112q-4 -4 -4 -8q2 2 4 2l-6 -8q0 4 2 6q-16 -4 -57 -4h-33q-11 -2 -20 12l-9 64q-24 -6 -107.5 -41.5 t-135.5 -30.5q-64 6 -129 41q-45 22 -80 78q-26 32 -41 98q-29 75 -29 539zM201.5 1249q0.5 24 15.5 49t37 33q31 10 61 -16q16 -16 13 -37.5t-15 -40.5t-26 -29q-42 -11 -64 3t-21.5 38zM391 1241q-21 39 14 69q32 28 69 15q27 -9 40 -41q20 -40 -18 -63q-24 -15 -57.5 -10 t-47.5 30z" />
<glyph unicode="&#xfd;" horiz-adv-x="684" d="M84 1061v37h43h49q10 -29 10 -88q0 -30 -4 -84q0 -6 -1 -18t-1 -17q-2 -55 8 -209.5t19 -212.5l4 -37q4 -85 33 -133q15 -33 48 -60.5t68 -27.5q34 0 60.5 14t43 33.5t28.5 53t17.5 59.5t8.5 66t3.5 59.5t0.5 52.5v10q1 78 -8.5 292.5t-15.5 244.5q0 5 5 8t14 3.5t17.5 0 t18.5 -1t14 -0.5q37 0 51 -2q17 -86 17 -186q0 -70 -4 -107q4 -64 3 -172.5t-5 -260t-4 -157.5q0 -47 -4 -121q-3 -92 -52 -211q-16 -40 -38.5 -70.5t-48 -48t-48 -28.5t-47.5 -15t-35.5 -5t-21.5 -1q-12 2 -51 20t-52 28l-14 10l-4 8l4 8q4 5 7 9.5t5 9t4 8.5q21 42 39 57 l6 -4h2q68 -49 121 -35q49 16 76 93.5t27 152.5q-86 -53 -133 -53q-81 0 -150 59q-29 25 -49.5 58.5t-33.5 80.5t-18.5 77t-13.5 87q-14 115 -14 244q0 19 1 57.5t1 59.5v28q0 17 -4 127q-2 51 -2 150zM279 1233q-4 32 21.5 109t41.5 100q75 9 121 0q12 -14 -29.5 -120 t-52.5 -108q-62 -6 -102 19z" />
<glyph unicode="&#xfe;" horiz-adv-x="636" d="M51 1464q18 7 59 7.5t58 -5.5q10 -1 15 -19.5t3 -41.5l-20 -363q115 31 145 31q153 0 219 -115q56 -92 56 -249q0 -37 -4 -91q-7 -80 -17 -145l-6 -41q-3 -47 -6 -76q-11 -108 -31 -168q-14 -51 -45 -79l-6 -7q-10 -10 -35 -30l-12 -6l4 2q-21 -7 -27 -13l-20 -2 q-3 0 -29.5 -3t-42.5 -3q-45 0 -121 35v-127v-162q0 -14 0.5 -35.5t0 -30t-0.5 -23t-2.5 -18.5t-5.5 -12.5t-9 -9.5t-13 -4.5t-19.5 -2.5t-25.5 2t-33 3q-5 4 -5 50t2.5 126.5t2.5 118.5v74q-2 23 -2 61q0 12 -1 33t-1 31l-6 166q-11 300 -11 323q-2 43 -2 131q-2 16 4 335 t-10 353zM152 764q12 -351 17.5 -430t18.5 -105q21 -34 42 -45.5t67 -21.5q65 -9 104 22t50 97q14 86 18 319q0 62 4 156q1 44 -2.5 77.5t-23 71t-54.5 56.5q-42 20 -76 20q-43 0 -83.5 -23.5t-63.5 -64.5q-18 -37 -18 -123v-6z" />
<glyph unicode="&#xff;" horiz-adv-x="653" d="M51 1061v37q6 -1 11 -1t13.5 0.5t18.5 0.5h49q11 -32 11 -88q0 -30 -4 -84q0 -6 -1.5 -18t-1.5 -17q-2 -55 8 -209.5t19 -212.5l4 -37q4 -85 33 -133q15 -33 48.5 -60.5t68.5 -27.5q33 0 59.5 14t43 33.5t28.5 52.5t17.5 58.5t8.5 65.5t3.5 59.5t0.5 52.5v12 q1 78 -8.5 292.5t-15.5 244.5q0 5 5.5 8t14.5 3.5t17.5 0t18.5 -1t14 -0.5q37 0 51 -2q16 -81 16 -186q0 -70 -4 -107q4 -64 3 -172.5t-5 -260t-4 -157.5q0 -47 -4 -121q-3 -94 -51 -211q-23 -58 -60 -96t-78 -51.5t-62 -17t-40 -3.5q-12 1 -50.5 19t-51.5 29l-15 10l-4 8 l4 8q3 3 17 27q21 42 39 57l6 -4h2q68 -49 121 -35q49 16 75.5 93t26.5 153q-86 -53 -133 -53q-81 0 -150 59q-29 25 -49.5 58t-33 81t-17.5 76.5t-14 87.5q-15 123 -15 244q0 19 1 57.5t1 59.5v28q0 17 -4 127q-2 51 -2 150zM164.5 1221q0.5 24 15.5 48t37 31q29 13 62 -16 q15 -15 11.5 -36t-15 -39.5t-25.5 -28.5q-42 -11 -64 3t-21.5 38zM354 1210q-21 39 13 70q32 29 70 16q26 -10 40 -41q19 -41 -20 -65q-23 -15 -56 -10t-47 30z" />
<glyph unicode="&#x152;" horiz-adv-x="1157" d="M52.5 613q-0.5 17 0 81.5t0.5 75.5q0 91 -0.5 170.5t16 167.5t52.5 158q55 108 180 155q62 36 176 13q92 -14 156 -76q0 31 -2 35q4 17 1.5 36t2 37t20.5 23q60 16 140 16q50 0 151 -2t152 -2q0 -28 2 -58t4 -45l2 -16q-93 -6 -154 -10l-204 12q2 -57 0 -75 q-7 -42 -10.5 -91.5t-3.5 -93.5t-0.5 -94.5t-0.5 -93.5l2 -211q105 -2 156 0t61 -8t9 -64q-1 -17 -5.5 -26.5t-13 -12.5t-19.5 -3t-25 1t-30 0l-125 -8q5 -67 5 -96q8 -145 14 -223q1 -16 3 -82t7 -101q22 -4 43.5 -5t55.5 0t42 1q16 0 64.5 -1.5t75.5 -0.5q19 1 30.5 -5 t15.5 -17t5.5 -26t0.5 -32.5t1 -35.5q-51 0 -166.5 7t-205.5 14l-89 7q0 94 -12 133q-40 -46 -68 -68t-73 -44q-118 -53 -229.5 16.5t-156.5 190.5q-13 37 -22.5 73t-15 80.5t-9 71t-5 81t-2 71.5zM165 902.5q0 -69.5 1 -111t7 -127.5t7 -109q6 -147 20 -208q12 -55 36 -99 q35 -65 98.5 -94t131.5 -9.5t109 86.5q-2 -2 -2 -4q21 34 34 69t17.5 79t6 70t0 84t-1.5 79q0 59 4.5 168.5t5.5 169.5t-6 168q0 56 -26 101t-67 68.5t-92 32t-102 -8.5q-104 -34 -147 -174q-16 -50 -25 -105.5t-9 -125zM575 231q0 2 3 5q-3 -3 -3 -5z" />
<glyph unicode="&#x153;" horiz-adv-x="1116" d="M51 498q0 70 10 155q6 80 37 221q17 68 74 166q51 67 125 84q70 17 131.5 7t114.5 -54h-2l28 -24l45 -64q2 17 37.5 48t85.5 44q18 6 51 6q69 0 127 -43q62 -42 105 -126q0 -1 4.5 -15.5t5.5 -21.5q17 -120 19 -160q5 -118 8 -168v-2q-7 2 -25 1.5t-46 -2t-30 -1.5h-256 q-49 0 -58.5 -10t-12.5 -60q0 -126 12 -237q0 -17 4 -23q8 -86 113 -100q18 -2 61 -2q51 3 86 41q32 50 35 92l4 69q0 4 9.5 5.5t24.5 0.5t30.5 -2.5t29.5 -3.5t19 -2v-2q13 -46 4 -75q-2 -9 -7.5 -28.5t-7.5 -26t-6.5 -21t-6.5 -20.5t-6 -17t-7 -17t-7 -13.5t-9 -14.5 q-30 -35 -86 -62t-115 -20q-9 1 -39 3t-43 4t-38 8.5t-39.5 15.5t-31.5 26t-28 41l-45 -45q-32 -33 -89 -52t-112 -19q-35 0 -59 8l-9 2q-103 61 -157 153q-26 55 -35 105q-27 126 -27 248zM154 498l8 -113v-8q10 -105 43 -172q27 -63 73.5 -100.5t104.5 -12.5 q30 13 53.5 34.5t38.5 45t25 57t15 60t7 65t2 62t-1 61.5t-1 53v109q4 61 2 90q0 55 -6 102q-2 12 -6 35t-6 33.5t-6.5 29t-8 26.5t-10.5 22t-14.5 20t-19 14.5t-25 12t-31 6t-39.5 2.5q-61 -18 -106 -77.5t-62 -153.5q-35 -89 -30 -303zM620.5 754q9.5 -83 4.5 -113 q24 1 109 1.5t147.5 2.5t62.5 8q0 8 -1 67t-1 71q3 97 -80 170q-34 30 -63 30q-49 5 -91 -13.5t-63 -59.5q-6 -11 -18 -48q-16 -33 -6.5 -116z" />
<glyph unicode="&#x178;" horiz-adv-x="755" d="M51 1483q0 14 54.5 20.5t64.5 -8.5l27 -78q42 -135 115 -318.5t96 -195.5q11 12 90 266.5t92 321.5q4 2 35 -2h37q35 0 43 -4q-5 -3 -52 -131q-1 -4 -5 -12.5t-5 -12.5l2 2q-7 -30 -23 -85t-20 -68q-22 -76 -56.5 -187t-53 -174t-19.5 -80l-2 -121q0 -12 1 -103.5 t1 -156.5q0 -329 -4 -333q-4 0 -8 2q-3 0 -11.5 1t-11.5 1q-6 0 -61 -11q-4 -2 -12 -2v86v107v86q0 311 -7 375q-6 52 -95 259t-111 277q-9 38 -35 99v-5l-47 129l-7 17q-8 8 -12 39zM210.5 1620q0.5 24 15 49t36.5 33q31 10 64 -16q19 -26 6 -58.5t-37 -48.5 q-42 -11 -63.5 3t-21 38zM401 1612q-21 39 13 69q32 28 70 15q26 -10 40 -41q18 -44 -20 -64q-22 -15 -56 -10t-47 31z" />
<glyph unicode="&#x2c6;" horiz-adv-x="727" d="M90 1243q-2 2 0 6v-2l76 76l162 141q120 -120 247 -213l13 -8l-76 -67l-16 14q-39 37 -72.5 70.5t-47.5 49.5t-25.5 26.5t-20.5 13.5l-178 -168q-13 13 -62 61zM328 1464z" />
<glyph unicode="&#x2dc;" horiz-adv-x="745" d="M92 1382q-3 6 0 13l23 24l18 13q21 16 55 26q2 0 6.5 1t6.5 1q1 0 6.5 2t7.5 2q67 -4 109 -28v2q43 -30 102 -47h-4q27 -8 35 -9q49 -9 88 27l30 29q28 -47 37 -66l-8 -10q-23 -23 -65 -45h2q-27 -10 -52 -10q-49 3 -83 14q-32 14 -44 22l-22 11q-18 9 -35 20 q-52 29 -119 12v3q-26 -8 -53 -35q-5 -9 -10 -11l-12 17l-19 24v-2zM567 1446l8 -4q3 -2 5 0l4 2l-9 -6zM612 1372q0 1 1 3t1 3l4 -14q-6 3 -6 8z" />
<glyph unicode="&#x2000;" horiz-adv-x="956" />
<glyph unicode="&#x2001;" horiz-adv-x="1912" />
<glyph unicode="&#x2002;" horiz-adv-x="956" />
<glyph unicode="&#x2003;" horiz-adv-x="1912" />
<glyph unicode="&#x2004;" horiz-adv-x="637" />
<glyph unicode="&#x2005;" horiz-adv-x="478" />
<glyph unicode="&#x2006;" horiz-adv-x="318" />
<glyph unicode="&#x2007;" horiz-adv-x="318" />
<glyph unicode="&#x2008;" horiz-adv-x="239" />
<glyph unicode="&#x2009;" horiz-adv-x="382" />
<glyph unicode="&#x200a;" horiz-adv-x="106" />
<glyph unicode="&#x2010;" d="M102.5 673.5q3.5 30.5 16.5 28.5l51 -8q8 0 30.5 -1t35.5 -1h397q5 -2 2.5 -64.5t-4.5 -64.5q-7 2 -30.5 2t-55 -0.5t-78.5 2.5l-129 8q-190 9 -219 7q-10 -1 -15 30t-1.5 61.5z" />
<glyph unicode="&#x2011;" d="M102.5 673.5q3.5 30.5 16.5 28.5l51 -8q8 0 30.5 -1t35.5 -1h397q5 -2 2.5 -64.5t-4.5 -64.5q-7 2 -30.5 2t-55 -0.5t-78.5 2.5l-129 8q-190 9 -219 7q-10 -1 -15 30t-1.5 61.5z" />
<glyph unicode="&#x2012;" d="M102.5 673.5q3.5 30.5 16.5 28.5l51 -8q8 0 30.5 -1t35.5 -1h397q5 -2 2.5 -64.5t-4.5 -64.5q-7 2 -30.5 2t-55 -0.5t-78.5 2.5l-129 8q-190 9 -219 7q-10 -1 -15 30t-1.5 61.5z" />
<glyph unicode="&#x2013;" d="M98.5 660q-0.5 23 3.5 30l588 -6q10 -29 10 -133q-365 24 -493 16l-101 2l-4 34q-3 34 -3.5 57z" />
<glyph unicode="&#x2014;" horiz-adv-x="1187" d="M90 588q6 3 6 80l-2 22q294 14 486 12.5t495 -14.5q0 -29 0.5 -52.5t1 -32t0 -15.5t-1.5 -13q-164 23 -476 27t-509 -14z" />
<glyph unicode="&#x2018;" horiz-adv-x="358" d="M135 1348q-12 64 29 98q2 2 14 11.5t20.5 14t12.5 1.5q5 -13 -16 -45t-23 -62q5 6 10.5 14t8 12.5t8.5 10.5t10.5 7t14 3t20.5 -2q32 -1 47.5 -24.5t13 -53.5t-19.5 -51q-46 -57 -98 -21q-41 28 -52 87z" />
<glyph unicode="&#x2019;" horiz-adv-x="45" d="M-70.5 1435q-10.5 38 9.5 66q19 29 50.5 29.5t57.5 -21.5t33 -53q7 -47 -10 -86q-7 -25 -21 -39q-1 -1 -4.5 -5.5t-5 -6l-5 -5t-6 -5t-6 -3.5t-6.5 -1.5t-6.5 1t-7.5 3.5q-3 22 22 51.5t21 54.5q-2 -2 -11 -8l-12 -8t-13 -6.5t-15.5 -3t-18.5 1.5q-35 6 -45.5 44z" />
<glyph unicode="&#x201a;" horiz-adv-x="358" d="M94 111q5 37 43.5 56t75.5 -1q47 -37 51 -84q4 -76 -43 -107q-2 -1 -14.5 -8t-24.5 -11.5t-20 -2.5q-13 21 -10 33q3 2 12.5 5t19.5 7q27 14 27 45q-38 -26 -80 -0.5t-37 68.5z" />
<glyph unicode="&#x201c;" horiz-adv-x="542" d="M93.5 1388.5q7.5 48.5 35.5 75.5q16 16 33 30t20 17q7 4 20.5 -6t18.5 -22q-6 -5 -19.5 -16.5t-18 -16t-12.5 -14t-13 -18.5t-8 -21q26 20 63 2q36 -29 31 -80q-3 -16 -15 -31q-5 -2 -16 -8t-20 -9.5t-19 -4.5q-46 -3 -67 35.5t-13.5 87zM281 1360q-4 74 41 104 q1 1 10 6.5t15.5 8.5t17 6.5t14.5 -0.5q18 -18 12 -31q-2 -2 -33 -12q-23 -12 -26 -45q38 24 80 0t39 -66q-5 -39 -44.5 -58t-76.5 1q-47 32 -49 86z" />
<glyph unicode="&#x201d;" horiz-adv-x="495" d="M96.5 1472q7.5 30 24.5 54q23 21 56.5 13t45.5 -36q29 -65 6 -129q-7 -28 -18 -43t-34 -22q-26 -8 -25 19v3q0 10 15.5 25t12.5 33q-20 -10 -44.5 -4.5t-35.5 26.5q-11 31 -3.5 61zM264 1483.5q12 46.5 39 58.5q38 16 69.5 -22t28.5 -76q-9 -76 -43 -107q-1 0 -9.5 -6.5 t-16 -12t-16.5 -10t-13 -3.5q-21 11 -18 30q1 11 12 19.5t22.5 12.5t18.5 9.5t2 12.5q-11 -1 -21.5 1.5t-17 5t-17.5 8t-16 7.5q-16 26 -4 72.5z" />
<glyph unicode="&#x201e;" horiz-adv-x="495" d="M96 84.5q7 28.5 25 52.5q23 22 56.5 15t45.5 -35q29 -68 6 -129q-6 -26 -18 -45q-11 -15 -34 -22q-26 -8 -25 19v3q0 11 15.5 25.5t12.5 31.5q-19 -9 -44 -3t-36 28q-11 31 -4 59.5zM264 97q12 46 39 59q38 14 69.5 -24.5t28.5 -76.5q-5 -41 -13.5 -63t-29.5 -39 q-4 -7 -25 -21.5t-30 -13.5q-18 11 -18 31q1 9 10.5 16t19.5 11t18 10t7 14q-16 -1 -28 -1t-23.5 6t-20.5 20q-16 26 -4 72z" />
<glyph unicode="&#x2022;" horiz-adv-x="446" d="M97.5 777.5q6.5 38.5 19.5 68.5q27 63 67 76q43 17 94.5 9.5t88.5 -36.5q60 -43 75 -121q8 -92 -55 -141q-68 -42 -160 -35q-44 1 -82.5 34t-46.5 73q-7 34 -0.5 72.5z" />
<glyph unicode="&#x2026;" horiz-adv-x="706" d="M114.5 60.5q2.5 17.5 11 33.5t22 26.5t24.5 10.5q50 0 70 -46q18 -40 -4 -70t-70 -15q-29 9 -42.5 26t-11 34.5zM321 81q15 36 46 48q30 13 63 -16q19 -26 6 -57.5t-37 -47.5q-55 -15 -74 11t-4 62zM506 39q-21 39 13 70q32 28 70 15q26 -11 40 -42q18 -44 -21 -64 q-23 -15 -55.5 -9.5t-46.5 30.5z" />
<glyph unicode="&#x202f;" horiz-adv-x="382" />
<glyph unicode="&#x2039;" horiz-adv-x="645" d="M88 541q279 412 295 433q15 19 27 30q18 18 65 -19q23 -17 25 -18l-125 -185q-165 -227 -162 -268q0 -29 103.5 -200.5t160.5 -250.5q-29 -53 -43 -61q-21 -16 -47 14q-19 23 -48.5 67t-63 97t-59.5 96.5t-54 89.5t-31 52l-10 20q-49 80 -33 103z" />
<glyph unicode="&#x203a;" horiz-adv-x="643" d="M92 993q8 9 35 19t45 10q16 0 174.5 -251t163.5 -269q3 -5 0 -8l2 2q-4 -16 -4 -19q-44 -66 -139 -222t-125 -210q-2 -1 -4 -5.5t-5 -11.5t-4 -10l-14 -26q-20 0 -45.5 10.5t-40.5 24.5l-8 4q20 51 190 321q60 102 62 109q20 19 -44 129t-146.5 237.5t-92.5 165.5z" />
<glyph unicode="&#x205f;" horiz-adv-x="478" />
<glyph unicode="&#x20ac;" horiz-adv-x="841" d="M14.5 874q-0.5 22 6 48.5t14.5 27.5q27 2 69 2h21q11 141 33 236q20 72 54.5 132.5t92 107t127.5 55.5q97 0 197.5 -69t109.5 -159l-30 -12q-4 -2 -17.5 -8.5t-19.5 -9t-17 -6t-20.5 -5t-18.5 -0.5l-10 29q-17 67 -63 98q-53 29 -90 29q-35 0 -88 -33q-69 -61 -94 -148.5 t-29 -199.5q0 -29 -2 -41h12q51 -4 158 -4q2 0 33 1.5t57 1.5t70 -5t85 -16q16 -5 17.5 -41t-4.5 -47q-25 0 -87.5 1t-97.5 1l-247 6q-5 -190 -5 -225v-15q167 0 179 2q48 0 91.5 1t78 3t54.5 4.5t19 6.5q9 -35 9 -84v-52q-254 0 -431 7q-1 -53 0.5 -88t7.5 -83.5t24 -86.5 t46 -66q32 -34 76.5 -49.5t85.5 -3.5q64 23 115 119q10 20 67 12l31 -6h10q35 -5 41 -11q4 -4 -24 -36q-53 -83 -105.5 -134t-120.5 -59q-67 -9 -137 17t-123 75q-64 60 -86 141.5t-22 192.5l-1 37q0 37 1 37q-59 3 -88 8v51q0 31 2 41q5 2 88 6q2 43 2 127v113h-101 q-5 4 -5.5 26z" />
<glyph unicode="&#x2122;" horiz-adv-x="854" d="M24 1482q1 6 4 15t3 12v2h235l13 2q10 0 10 -2q4 -54 4 -65h-25q-25 0 -61 -6l12 -463q0 -29 -2 -45v-2q-5 0 -16 -1.5t-17 -2t-14.5 0t-15.5 3.5v55q2 82 -1 180.5t-6.5 169.5t-3.5 78l-2 33q-39 8 -102 8q-9 6 -12.5 14t-2.5 14zM150 932l4 -2q-4 0 -4 2zM395 1417 q2 29 2 84h33h25l143 -282q24 21 72.5 115t68.5 149q32 9 60 6q3 -131 6 -230.5t5 -148t3 -78.5t1.5 -39.5t0.5 -13.5l-2 -51l-72 -6q-21 41 -8 202.5t6 175.5q-95 -184 -118 -260h-15q-8 17 -34.5 79.5t-50 114t-46.5 95.5q-9 -92 -11.5 -166t-0.5 -115t5.5 -68t6 -38 t2.5 -12t-1 -4.5t-1 -5.5q-65 -8 -65 6q-15 332 -15 491zM475 915v5q2 2 4 2h2q-2 -1 -4 -4z" />
<glyph unicode="&#x25fc;" horiz-adv-x="1095" d="M0 0v1096h1096v-1096h-1096z" />
<glyph unicode="&#xfb01;" horiz-adv-x="903" d="M16 1118q0 12 11 12q28 0 49 3l96 6q12 104 14 141q1 35 21 135q19 66 72 129q47 52 129 62q8 1 25 2.5t28.5 2.5t15.5 1q97 0 185 -49q19 -14 24 -23q82 -89 102 -225q-2 -26 -25 -49t-48 -17q-4 0 -8 2l-23 13v-2q-39 31 -18 75l2 17q12 37 0 67t-43 49.5t-61 31 t-64 18.5q-52 5 -106 -20.5t-68 -72.5l-19 -84q-6 -37 -14 -122v-82q104 -3 110 -4q9 -4 11 -11q5 -22 10 -77q-7 -7 -14 -7h-74h-57q0 -34 -5 -69q-3 -40 -8 -162l-8 -147q-8 -334 -8 -390q0 -70 8 -180q0 -6 1 -19.5t1 -19.5q0 -5 1 -16t1 -20t-2 -17q0 -10 -8 -10 q-18 0 -76 8q-26 3 -29 27q0 47 3 90l6 90q28 792 28 819q0 11 -1 16.5t-5.5 8.5t-9.5 3.5t-16.5 -0.5t-24 -2.5t-33.5 -2.5t-43 0q-30 6 -33 30q-2 10 -2 41zM647 90q0 13 4 53q40 830 33 949v28q3 13 12 13q3 1 20 5t26 5.5t22 2.5t19.5 -1.5t7.5 -9.5q13 -159 0 -293 q-3 -50 -3 -99q3 -35 3 -67q0 -44 -3 -96q0 -6 -1 -19t-1 -20q-2 -141 -10 -424q0 -36 -2 -54q0 -5 -1 -15.5t-1 -16.5l-8 -23h-2q-48 -6 -100 8q-13 3 -13 13q-2 20 -2 61z" />
<glyph unicode="&#xfb02;" horiz-adv-x="954" d="M20 1153q3 10 9 10h184q0 119 23 199q6 48 34 94t103 125l12 6q1 0 3.5 2.5t2.5 3.5q134 43 256 4.5t168 -133.5q36 -95 40 -113q6 -30 5 -169q-1 -184 4 -391v-779v-20h-2q-4 -2 -10 -2q-49 -4 -74 0q-18 4 -18 14q0 4 2 83.5t4 330t2 669.5q0 5 -1 15.5t-1 15.5v51 q0 9 1 28t1 28q0 91 -29 145q-64 121 -250 121q-53 -3 -92 -45q-94 -102 -86 -279q11 -6 24 -6.5t27.5 1.5t48.5 4t74 1q12 -38 11.5 -76t-13.5 -53l-121 -2l-71 -2q-2 -15 -3 -25t-2 -23t-1 -33v-42.5t1.5 -64t3 -85t4.5 -118.5t5.5 -151t7 -196t8.5 -241q2 -12 2 -30 q0 4 -4 0l-2 -1l2 -1l-47 -5q-8 1 -31 -4t-33 -1t-3 26v-2q6 26 0.5 175.5t-10.5 342.5t8 440q-4 12 -4 31q-12 4 -28.5 3.5t-44 -2t-85.5 2.5q-25 88 -15 127v-4z" />
</font>
</defs>
</svg>
