<?xml version="1.0" encoding="utf-8"?>
<!-- Generator: Adobe Illustrator 19.2.1, SVG Export Plug-In . SVG Version: 6.00 Build 0)  -->
<svg version="1.1" xmlns="http://www.w3.org/2000/svg" xmlns:xlink="http://www.w3.org/1999/xlink" x="0px" y="0px"
	 viewBox="0 0 223 308.4" style="enable-background:new 0 0 223 308.4;" xml:space="preserve">
<style type="text/css">
	.st0{fill:#082B36;}
	.st1{fill:#FFFFFF;}
	.st2{fill:#93C4DB;}
</style>
<g id="Layer_1">
	<g>
		<path class="st0" d="M217.9,182.1c-0.5-2-0.8-4.1-1.6-6c-0.7-1.8-1.1-3.7-2.4-5.3c-0.5-0.7-1.1-1.3-1.6-2.1
			c-1.6-2.4-3-4.9-4.7-7.2c-2.1-3-4.7-5.6-7.4-8.1c-1.2-1.1-2.6-2.2-4.1-3c-2.3-1.2-4.4-2.7-6.4-4.4c-2.4-2.1-4.6-4.4-7.5-6
			c-0.8-0.5-1.7-0.9-2.5-1.5c-2.3-1.8-4.5-3.5-6.8-5.3c-1.3-1-1.3-1.1-0.4-2.5c0.9-1.5,1.1-3.2,1.5-5c0.4-2.1-0.2-4.2,0.2-6.3
			c0.4-1.7,0.1-3.6-0.5-5.4c-1.2-3.4-2.7-6.5-5.1-9.1c-1-1.1-2-2.3-3.7-2.5c-3.4-0.3-6.8-0.4-10.2,0.1c-4.4,0.7-8.9,1.3-13.4,1.6
			c-2.8,0.2-5.6,0.2-8.3,0.1c-2.1-0.1-4.3-0.4-6.4-0.9c-2.1-0.5-4.1-1.1-6.2,0c-0.3,0.2-0.6,0.2-0.9,0.2c-1.1,0-2.2-0.1-3.3-0.2
			c-2-0.2-4.1,0.1-6,1.1c-0.8,0.4-0.9,0-0.8-0.5c0.2-2,0-3.9-0.1-5.8c0-0.4,0-0.7,0.6-0.7c2.9,0.2,4.4-0.8,5.5-3.4
			c0.2-0.6,0.5-0.9,1.3-1c2.1-0.4,4.1-1,4.3-3.7c0.6-1,0.2-2.1,0.3-3.1c1.2,0.9,1.9,1,3,0.2c1.5,0,1.8-1.1,2.2-2.2
			c0.3-0.4,0.5-0.9,0.4-1.5c-0.2-1.6-0.3-3.3-0.7-4.9c-0.2-0.7-0.5-1.3,0.6-1.5c0.3,0,0.4-0.5,0.5-0.8c0.6-2.2,0.7-4.3-0.3-6.4
			c-0.3-0.6-0.6-1-1.2-1.3c-0.4-0.2-0.9-0.4-1.3-0.1c-0.4,0.3-0.1,0.7-0.1,1.1c0.1,1.2,0.7,2.3,0.6,3.5c-0.4-0.1-0.4-0.4-0.5-0.7
			c-0.3-0.6-0.3-1.3-0.5-2c-0.1-0.5-0.3-1-0.8-1.1c-0.6-0.2-0.9,0.3-1.2,0.7c-0.3,0.4-0.7,0.9-1.1,1.2c-1.3,1.1-1.3,2.2-0.1,3.4
			c0.4,0.4,0.9,0.7,1.1,1.3c0.8,2.4,1.8,4.7,2.2,7.2c0.1,0.5,0.3,0.9,0,1.4c-0.1,0-0.2,0-0.2-0.1c-1.5-3-3.9-5.6-4.1-9.2
			c-0.1-1.2-0.8-1.5-1.8-0.7c-0.2,0.1-0.4,0.3-0.5,0.5c-0.3,0.3-0.7,0.7-1,1c-1,1.1-1,2-0.3,3.2c0.5,0.6,1,1.1,1.1,1.9
			c0.1,1,0.4,1.9,0.6,2.8c0.3,1.8,0.8,3.6,0.6,5.5c-0.1,0.6,0,1.4-0.7,1.5c-0.7,0.1-1-0.6-1.3-1.1c-0.1-0.2-0.2-0.4-0.2-0.6
			c-0.4-2.6-1.1-5.1-1.7-7.7c-0.1-0.7,0-1.4-0.1-2c-0.2-1.2-0.7-1.4-1.7-0.7c-0.7,0.5-1.2,1.3-1.9,1.8c-1.1,0.8-1.2,1.8-0.9,2.9
			c0.2,0.6,0.3,1.1,0.3,1.8c-0.1,2.1,0.9,3.8,2.1,5.3c0.8,1.1,1,2.1,0.7,3.4c-0.1,0.5-0.4,1-1,1.1c-0.6,0.1-0.9-0.4-1.1-0.8
			c-1-2.1-2.3-4.2-2.8-6.6c-0.6-2.2-1.2-4.4-1.2-6.7c0-1.2-0.7-1.5-1.6-0.8c-1,0.7-1.7,1.6-2.6,2.3c-0.3,0.2-0.3,0.6-0.2,1
			c1.2,2.3,1.5,4.8,2.1,7.2c0.4,1.5,0.2,3.1,0,4.7c-0.8-0.8-1.2-1.9-1.8-2.9c-0.5-1-1-2-1-3.2c0-2-0.4-4-0.9-5.9
			c-0.1-0.4-0.1-0.9-0.7-1c-0.5-0.1-0.8,0.3-1,0.7c-0.8,1-1.4,2-2.5,2.7c-0.6,0.4-0.7,1.1-0.5,1.8c0.4,2.1,1.5,4,2.4,5.9
			c0.5,1,0.6,2,0.4,3c-0.1,0.3-0.1,0.7-0.5,0.8c-0.4,0.1-0.6-0.2-0.8-0.4c-1.6-1.9-2.5-4.1-2.2-6.5c0.3-2.9-0.4-5.7-0.7-8.6
			c-0.1-0.8-0.7-1-1.4-0.5c-0.3,0.3-0.5,0.6-0.7,0.9c-0.5,0.7-1.1,1.5-1.9,2c-0.7,0.4-1,1-1.1,1.7c-0.1,2.4,0.5,4.6,1.3,6.8
			c0.3,1,0.9,1.8,1.2,2.9c-0.4,0-0.5-0.3-0.7-0.5c-1-1.4-1.8-3-2.3-4.6c-0.7-2.2-1.3-4.4-0.8-6.7c0.2-0.9,0.1-1.9,0.1-2.9
			c0-0.4,0-0.9-0.4-1.1c-0.5-0.2-0.8,0.2-1.1,0.5c-0.8,0.7-1.4,1.6-2.4,2.1c-1.3,0.8-1.8,1.8-1.5,3.3c0.2,1,0.6,1.9,0.8,2.9
			c0.3,1.2,0.8,2.4,0.6,3.6c0,0.3,0,0.7-0.4,0.8c-0.3,0-0.5-0.3-0.6-0.5c-1.1-2-1.7-4.1-1.7-6.3c0-1.8,0.5-3.6,0.7-5.5
			c0-0.4,0.1-1-0.3-1.2c-0.5-0.3-0.8,0.1-1.1,0.5c-0.8,0.8-1.7,1.5-2.8,2.1c-0.9,0.5-1.4,1.3-1.2,2.4c0.2,1,0.3,2,0.5,2.9
			c0.1,0.6,0.3,1.1,0.2,1.7c-0.3,0-0.4-0.1-0.5-0.2c-1.3-2.7-1.6-5.5-0.6-8.3c0.5-1.3,0.9-2.6,1.1-3.9c0.1-0.4,0-0.7-0.3-1
			c-0.3-0.2-0.6-0.1-0.9,0.1c-1.3,1.1-2.8,1.8-4.2,2.7c-0.4,0.2-0.6,0.6-0.5,1c0.3,1.2-0.2,2.5,0.1,3.7c0.1,0.3,0.1,0.6-0.3,0.9
			c-0.4-0.1-0.4-0.4-0.4-0.6c-0.1-0.8-0.1-1.6-0.1-2.4c0-2,0.1-4,1.1-5.8c0.6-1,0.7-2.3,1-3.4c0.1-0.4,0.1-0.8-0.3-1.1
			c-0.4-0.2-0.8,0-1.1,0.3c-1,0.8-2.1,1.4-3,2.1c-0.8,0.6-1.2,1.2-1.2,2.2c0,1-0.3,2.1-0.2,3.1c0,0.4-0.1,1-0.6,1
			c-0.5,0-0.4-0.6-0.4-1c0.1-1.1,0.3-2.2,0.7-3.3c0.8-2.4,1.9-4.5,3.4-6.5c1.4-1.8,1.8-2,4-1.3c0.8,0.3,1.5,0.5,2.3,0.6
			c0.7,0.1,1.4,0.3,2,0.7c0.9,0.6,1.9,0.9,3,0.7c0.8-0.2,1.4,0,2,0.6c1.1,1,2.4,1.3,3.8,0.7c0.9-0.4,1.5-0.4,2.3,0.1
			c1.6,1,3.9,0.9,5-0.4c0.6-0.7,1.1-0.6,1.9-0.4c1.8,0.5,3.6,0.7,5.2-0.7c0.4-0.4,0.9-0.2,1.4-0.1c1.2,0.2,2.4,0.3,3.4-0.3
			c1.1-0.7,2.1-0.8,3.3-0.7c1.3,0,2.6-0.3,3.6-1.1c0.4-0.3,0.9-0.7,0.7-1.3c-0.3-0.7-0.9-0.4-1.5-0.3c-2,0.3-4,0.4-5.3-1.8
			c-0.5-0.8-1.1-0.7-1.5,0.2c-0.3,0.6-0.7,1.3-1,1.9c-0.4,0.9-0.9,1.1-1.8,0.6c-0.9-0.4-1.4-1.1-1.8-2c-0.1-0.4-0.4-0.7-0.8-0.8
			c-0.5,0-0.7,0.4-0.8,0.7c-0.4,1-1.2,1.8-1.3,2.9c-0.1,0.7-0.4,0.5-0.8,0.3c-0.7-0.5-1.4-0.9-1.7-1.8c-0.2-0.6-0.6-1-1.3-0.7
			c-1,0.5-1.5,1.5-2.2,2.3c-0.5,0.5,0.1,1.1,0.2,1.7c-1-0.8-1.9-1.5-2.2-2.8c-0.2-0.8-0.9-1.3-1.5-0.8c-1.1,0.8-2.6,1.4-2.3,3.3
			c-0.8-0.9-0.7-1.8-0.6-2.7c0.1-0.4,0.1-0.9-0.3-1.2c-0.4-0.3-0.9-0.2-1.4,0c-1,0.7-2.2,1.2-2.7,2.6c-0.1-1.1,0.4-1.7,0.7-2.3
			c0.2-0.4,0.4-0.8,0.1-1.2c-0.3-0.4-0.8-0.4-1.2-0.2c-0.9,0.4-1.9,0.5-2.8,1.1c-0.3,0.3-0.5,0.8-0.8,1.1c0.2-0.3,0.5-0.6,0.6-1
			c0-0.2,0.1-0.3,0.1-0.5c0.1-0.2,0.1-0.3,0.2-0.5c-0.1-1-0.6-1.4-1.3-0.8c-1.1,0.9-2.5,1.1-3.8,1.6c0.7-0.6,1.6-0.7,2.2-1.2
			c0.5-0.4,0.7-0.9,0.4-1.5c-0.3-0.5-0.9-0.5-1.3-0.3c-1.1,0.7-2.3,1-3.5,1.4c-1.1,0.4-2,1-3.3,1.6c0.3-1.9,0.5-3.6,1.1-5.2
			c0.5-1.3,0.9-1.5,2.3-1.3c2.3,0.2,4.5,0.4,6.8,0c0.8-0.1,1.6-0.2,2.4-0.3c0.7-0.1,1,0.1,1.1,0.9c0.3,2.3,1.6,3.9,3.7,4.7
			c1.9,0.7,3.9,1,6,0.7c0.5-0.1,1.1-0.1,1.2-0.8c0.1-0.6-0.5-0.8-1-1c-0.2-0.1-0.4-0.1-0.6-0.2c-1.5-0.5-3-0.8-4.3-1.8
			C85,58.5,85,56.5,87,55.5c0.5-0.3,1.1-0.5,1.7-0.6c0.7-0.1,1.2-0.4,1.6-0.9c0.2-0.3,0.3-0.6,0.3-0.9c0.1-0.9,0.6-1.7,0.5-2.7
			c-0.1-1,0.5-1.4,1.5-1.5c1.6-0.1,3.3-0.2,4.9-0.3c0.8,0,1.1,0.2,1.1,1c0.1,2.4,1.4,4.2,3.4,5.5c2.7,1.6,5.7,2,8.7,2.2
			c1.9,0.1,3.7,0.2,5.6,0.5c2.1,0.3,4.3,0.6,6.4,0.3c1.8-0.2,3.6-0.4,5.2-1.3c0.7-0.4,1.4-0.9,2.3-0.4c0.4,0.2,0.9,0,1.2-0.3
			c0.9-0.7,1.5-0.4,2.1,0.3c0.2,0.3,0.5,0.5,0.8,0.7c1,0.9,1.1,1.5,0.3,2.7c-0.3,0.5-0.8,0.9-1,1.5c-0.3,0.6,0,0.9,0.6,0.7
			c0.6-0.1,1.2-0.5,1.7-0.8c1.7-1.2,2.6-1.2,4.3,0.3c-0.9,0.4-1.7,0.8-2.4,1.3c-1.3,0.9-2.5,2-3.2,3.5c-0.7,1.4-1.2,2.9-2,4.2
			c-0.2,0.3-0.2,0.6-0.2,0.9c0,0.2,0.1,0.5,0.3,0.6c0.3,0.1,0.4-0.1,0.6-0.3c1-0.9,2-1.9,2.7-3.1c0.8-1.4,1.9-2.6,2.8-3.9
			c0.3-0.4,0.7-0.8,1.1-1.1c0.5-0.3,1.1-0.4,1.6-0.2c0.6,0.2,0.4,0.8,0.4,1.3c0,1,0,1.9,0,2.9c0,0.7,0,1.5-0.4,2.1
			c-0.9,1.5-1.7,3.1-2.7,4.5c-0.6,0.9-1.4,1.4-2.5,1.3c-0.5,0-0.9,0.1-0.9,0.7c-0.1,1.4-1.2,1.7-2.2,2.1c-1,0.4-1.9,0-2.6-0.8
			c-0.4-0.4-0.7-0.9-1.1-1.2c-0.2-0.2-0.5-0.5-0.8-0.3c-0.4,0.2-0.4,0.6-0.4,0.9c0,1.2,0.8,2.2,2,2.4c2.5,1.6,4.8,0.2,7.2-0.6
			c0.3-0.1,0.3-0.2,0.5-0.4c0.6-0.7,1.4-1.1,2.3-1.4c0.2-0.1,0.4-0.1,0.5-0.4c0.6-1.3,1.4-2.5,2.4-3.6c1.2-1.3,1.9-3,2.3-4.6
			c0.9-3.1,0.6-6.3-1.4-9.1c-0.3-0.5-0.4-0.8,0.1-1.2c0.6-0.5,1.2-1.2,1-2c-0.1-0.8,0-1.4,0.2-2.1c0.9-2.5,1.8-5,2.5-7.5
			c0.9-3.6,1.7-7.2,1.4-10.9c-0.1-0.7-0.1-1.5,0-2.2c0.8-4.5-0.7-8.7-2.1-12.9c-0.6-1.9-1.9-3.4-3-5c-0.5-0.8-1.3-1.8-0.3-2.6
			c0.8-0.7,1.1-1.5,1.3-2.4c0.2-0.5,0.6-1,0-1.5c-0.5-0.4-1-0.5-1.7-0.4c-0.9,0.2-1.7,1.1-2.8,0.2c-0.2-0.2-0.4,0.2-0.5,0.4
			c-0.2,0.4-0.4,0.8-0.7,1.4c-0.6-1.2-2-1.1-2.6-2.2c-0.2-0.4-0.6-0.6-1.1-0.6c-0.6,0.1-0.3,0.6-0.4,0.9c-0.2,1.1-0.1,1.8-1.8,1.2
			c-3.9-1.2-8-2-12.1-2.8c-2.9-0.5-5.8-0.7-8.6-1.3c-4-0.9-7.9-1-12-0.5c-2.2,0.3-4.2,1.2-6.3,1.6c-2.9,0.6-5.6,1.8-8.1,3.4
			c-2.3,1.4-4.3,3.1-5.3,5.8c-0.4,1.2-1.3,2.3-2.6,2.9c0.4,0.1,0.7,0.1,1,0c0.3,0,0.6-0.2,0.8,0.1c0.2,0.4-0.2,0.5-0.4,0.7
			c-0.4,0.5-0.9,0.8-1.3,1.4c-1.3,2.3-2.7,4.5-4,6.8c-1.1,1.9-2,3.8-2.2,6.1c-0.1,1.5-0.2,3.1-0.2,4.6c0,0.6-0.1,1.1-1,1.2
			c-2.9,0.3-5.6,1.2-8.2,2.7c-1.3,0.8-2,1.6-1.8,3.2c0.1,1.3,0,2.6,0,3.8c0.1,2,0.5,4,2.3,5c1.8,1,1.8,2,1.2,3.8
			c-0.8,2.2-1,4.5,0.4,6.6c0.9,1.3,0.8,1.7-0.6,2.5c-1,0.6-1.6,1.2-2.1,2.3c-0.5,1.3,0,2.7,1.5,2.7c1.1,0,1.2,0.5,1,1.4
			c-0.2,1.5-0.7,2.9-0.6,4.5c0.1,1.3,0.6,1.9,1.9,1.8c1.3-0.1,1.4,0.5,1.5,1.5c0.1,2.3,1.6,3.7,3.9,3.5c0.7-0.1,0.9,0.1,1,0.8
			c0.3,1.6,1.1,3,2.3,4.1c0.3,0.3,0.7,0.8,1.2,0.6c1.8-0.6,2.7,0.1,3.4,1.8c1.1,2.5,3.5,3.1,5.7,1.6c0.8-0.6,1-0.3,1.5,0.3
			c0.9,1.3,2,2.5,3.6,2.9c0.9,0.2,0.9,0.6,0.9,1.3c-0.1,1.4-0.8,2.8,0.4,4.1c0.1,0.1,0.1,0.3,0,0.3c-0.8,0.8-0.4,1.7-0.2,2.5
			c0.1,0.4-0.1,0.9-0.1,1.4c-0.9-0.4-2,0.5-2.7-0.3c-0.7-0.8-1.5-0.8-2.4-0.6c-3.1,0.9-6.2,1.9-9,3.6c-2.2,1.4-3.9,3.3-6,4.8
			c-3.3,2.3-6.5,4.9-9.8,7.4c-4.9,3.6-10,7-14.5,11.2c-1.5,1.4-3.3,2.6-4.6,4.1c-3,3.6-6.9,6.2-10.3,9.2c-2.3,2-5,3.3-7.4,5.2
			c-1.9,1.4-3.9,2.7-5.9,4c-1.3,0.8-2.6,1.6-3.7,2.7c-1.8,1.9-3.5,3.7-5.3,5.5c-0.8,0.8-1.5,1.8-1.9,3c-0.6,1.8-1.3,3.6-2,5.4
			c-0.4,1.1-1,2.2-1.1,3.4c0,1.3,0.6,2.6,0.6,4.1c0,1.2,0.3,2.3,0.5,3.5c0.5,2.7,0.5,5.5,2.1,7.9c1.1,1.7,2.1,3.5,3,5.3
			c1.1,2.1,2.5,4,3.9,6c3.3,4.4,6.4,9,9.3,13.8c0.4,0.6,0.6,1.3,1,1.9c1.7,2.6,4,4.8,5.4,7.7c0.1,0.2,0.3,0.2,0.5,0.2
			c0.3,0.1,0.7,0.3,0.7,0.6c0.2,1.1,1.1,1.7,1.7,2.6c1.4,2,3.4,3.4,4.9,5.3c1.2,1.4,2.4,2.8,3.9,3.8c1.2,0.8,2.1,1.7,1.9,3.3
			c-0.1,0.8,0.3,1.7,0.5,2.6c0.4,1.4,0.5,1.4-1,1.6c-2.5,0.2-4.2,1.5-5.1,3.8c-0.2,0.5-0.6,1-1.1,1.1c-1,0.3-0.9,1.1-0.8,1.7
			c0.1,1.1,0.6,2.1,1.4,3c0.6,0.6,1.2,1.3,1.8,1.9c2.5,2.5,4.8,3,8,1.8c0.4-0.1,0.7-0.6,1.2-0.1c0.5,0.4,0.3,0.9,0.1,1.3
			c-1.4,3.8-2.3,7.8-3.1,11.8c-0.5,2.6-1,5.3-1.4,8c-0.5,3.7-0.6,7.4-0.8,11.1c-0.1,1.5-0.6,3,0.4,4.5c1.4,2,3,3.6,5.4,3.7
			c2.8,0.1,5.4,0.7,8,1.6c1.6,0.6,3.3,0.9,5,1.4c4.1,1.1,8.1,1.9,12.4,1.7c5.1-0.2,10.3-0.6,15.4-0.5c1.8,0,3.7,0,5.5,0
			c2.4,0,4.8,0.1,7.2-0.1c3.5-0.2,6.9-0.6,10.4-0.9c3.1-0.3,6.1-0.3,9.2-0.6c3.6-0.3,7.2-1.3,10.8-1.5c1.8-0.1,3.6-0.8,5.4-1
			c3.8-0.5,7.2-2.1,10.5-3.9c0.1-0.1,0.1-0.1,0.2-0.2c0.2-0.1,0.3-0.3,0.5-0.4c0.4-0.4,0.8-0.8,1.2-1.2c0.2-0.3,0.8-0.4,0.5-0.9
			c0-0.2,0-0.5,0-0.7c0.1-0.2-0.1-0.4-0.3-0.5c-0.4-2.2-0.4-4.4-0.5-6.6c-0.1-2.4-0.8-4.5-1.6-6.6c-0.6-1.5-1.2-3.1-1.4-4.7
			c-0.3-2.4,0-4.8-0.2-7.2c-0.1-0.9,0.2-1.7,0.3-2.6c0.2-1,1.6-0.5,2.3-1c0,0,0.1,0,0.1,0c2.2-0.8,4.6-1,6.6-2.4
			c1.3-0.9,2.6-1.9,3.2-3.5c0.5-1.5,0.6-3.1,2.1-4.2c0.7-0.5,1-0.7,1.8-0.5c1.5,0.4,3,1,4.6,0.6c1-0.2,2.2-0.5,1.9-2.1
			c-0.1-0.3,0.1-0.4,0.3-0.6c2.1-1.3,3.6-3.1,5.3-4.8c2.8-2.8,5.7-5.6,7.9-8.9c2.4-3.6,4.6-7.2,7.4-10.6c3.3-4,6.3-8.4,9.4-12.6
			c0.7-1,1.8-1.8,2.5-2.9c2.4-3.8,5.4-7.1,7.6-11c1.1-1.9,2.3-3.8,3-5.9c0.8-2.5,1.8-5,2.8-7.4C217.5,184.5,218.2,183.4,217.9,182.1
			z M60.2,195.5c-0.8-1.7-2.4-2.9-3.3-4.6c-1.1-2.2-2.6-4.2-3.7-6.4c-0.9-1.9-1.5-3.9-1.4-6c0.1-0.6,0.3-1,0.9-1.3
			c1.7-1,3.3-2.1,3.8-4.2c0.2-1.1,1-1.8,1.7-2.5c1.6-1.5,3.1-3,4.6-4.9C62,175.8,60.4,185.6,60.2,195.5z M171.1,186.9
			c-0.8,2-2.4,3.3-4,4.6c-2.1,1.7-3.8,3.8-5.4,5.9c-1.8,2.4-3.9,4.7-6.1,6.7c-1.4,1.2-2.7,2.5-4,3.8c-0.4,0.4-0.7,0.6-1.2,0.6
			c-1.1,0.1-1.7,0.8-2,1.8c0,0.1-0.1,0.2-0.1,0.3c-0.2,0.5-0.3,1.2-0.8,1.2c-0.6,0.1-0.4-0.7-0.7-1.1c-0.2-0.3-0.3-0.6-0.5-0.9
			c-0.4-0.7-0.6-1.3,0.5-1.7c1-0.4,1.5-1.7,0.9-3c-1-2.2-0.3-4.4-0.1-6.5c0.3-2.6,0.9-5.1,1.5-7.7c0.4-2,1.1-3.9,1.5-5.9
			c0.4-2.3,0.7-4.5,0.9-6.8c0.2-2,0.5-3.9,0-5.9c-0.1-0.4,0-0.7,0.7-0.5c0.9,0.3,1.2,1.1,2,1.5c2.4,1.1,4.1,3.1,6.3,4.4
			c2.4,1.4,4.8,2.7,7.5,3.1c0.6,0.1,1.3,0.7,1.3,1.1c0,0.1-0.1,0.1-0.1,0.2c-1,2.1-0.7,3,1.6,3.9
			C171.4,186.2,171.3,186.4,171.1,186.9z"/>
		<path class="st0" d="M115,115.1c0-0.1,0-0.2,0-0.4c0-1.1-0.3-2.2,1.5-2.1c0.5,0,0.7-0.5,1-0.9c0.3-0.3,0.4-0.9,1.1-0.7
			c0.6,0.2,1.2,0.4,1.4,1.1c1,2.8,1.2,5.7,0.9,8.6c-0.1,1.8-0.1,3.6-0.2,5.4c-0.1,3.8-0.4,7.5-1.1,11.2c-0.2,1.2-0.2,2.4-0.1,3.6
			c0.1,1.7-0.1,3.3-0.3,5c-0.4,3.2-0.4,6.4-0.5,9.5c-0.1,2-0.2,4-0.6,5.9c-0.3,1.8-1.7,2.6-3.3,3.1c-1.6-0.3-1.8-0.7-1.9-2.1
			c-0.1-4.3,0.5-8.5,0.2-12.8c-0.3-4,0.8-7.8,0.8-11.7c0-2.4,0-4.8,0-7.2c0-1.8,0.2-3.7,0.5-5.5c0.2-1.2-0.2-2.4-0.1-3.7
			C114.7,119.4,114.7,117.3,115,115.1z"/>
		<path class="st1" d="M139.3,74.4c0.7-0.9,1.3-1.8,1.7-2.8c0.3-0.8,1-1.2,1.1-1.9c0.4-2.1,0.3-4.1,0.3-6.2c0-0.3,0-0.6-0.4-0.6
			c-1,0-2-0.1-2.7,0.9c-0.5,0.6-1,1.3-1.5,1.9c-1.6,2-2.7,4.4-5,5.9c1.6-4.4,3.1-8.8,8.7-10.1c-0.8-0.5-1.3-0.7-1.7-1.1
			c-0.9-1-1.9-0.7-2.9-0.3c-1.1,0.4-1.8,1.5-3.2,1.5c0.5-0.6,0.9-1.2,1.4-1.7c0.6-0.8,0.7-2.2,0.1-2.7c-0.7-0.6-1.4-1.2-2-1.9
			c-0.4-0.4-0.8-0.6-1.3-0.1c-0.6,0.7-1.3,1.2-2.2,0.3c-0.2-0.2-0.4,0-0.5,0.1c-2,1.2-4.1,1.9-6.4,2.1c-1.4-0.1-2.8,0-4.2-0.1
			c-1.9-0.2-3.7-0.6-5.6-0.6c-2.6-0.1-5.2-0.3-7.7-0.9c-4-0.9-6.1-3.2-6.4-7.2c0-0.3,0.1-0.7-0.4-0.7c-2.3,0.2-4.6,0.2-6.9,0.5
			c-0.4,0.1-0.8,0.2-0.8,0.6c0,1.3-0.4,2.6-0.5,3.9c-0.1,0.2-0.2,0.4-0.3,0.7c0,0,0,0,0,0c0,0,0,0,0,0c-0.5,0.8-1.4,0.8-2.2,0.9
			c-1.2,0.2-2.7,1.2-2.8,2.1c0,1.3,0.3,2.6,1.6,3.4c1.5,1,3.2,1.4,4.8,1.9c0.4,0.1,1,0.2,0.9,0.7c-0.1,0.5-0.6,0.4-1,0.5
			c-1.7,0.2-3.4-0.2-5.1-0.4c-2.1-0.4-4.9-3-4.4-5.5c0.1-0.5-0.1-0.7-0.7-0.6c-3.3,0.6-6.7,1-10.1,0.4c-1.2-0.2-2.1,0.2-2.5,1.5
			c-0.6,1.9-0.9,3.9-1.2,5.9c0.6-0.3,1.4-0.2,1.7-0.7c0.6-1.1,2.2-0.4,2.8-1.4c1,0.4,1.6-0.4,2.4-0.8c0.5-0.3,1.1-0.7,1.4-0.1
			c0.4,0.7-0.2,1.1-0.8,1.4c-0.7,0.3-1.3,0.6-1.9,0.9c-0.3,0.2-0.5,0.5-0.2,0.8c0.2,0.3,0.6,0.1,0.7,0c1.1-1.1,3-0.7,4-1.9
			c0.2-0.2,0.4-0.4,0.7-0.1c0.4,0.3,0.2,0.6,0.1,0.8c-0.1,0.1-0.1,0.2-0.2,0.3c0,0.1,0,0.3,0,0.4c0,0.5-0.4,0.6-0.7,0.9
			c-0.2,0.2-0.4,0.3-0.3,0.6c0,0.1,0.2,0.2,0.3,0.3c0.3,0,0.4-0.2,0.6-0.4c0.2-0.3,0.3-0.7,0.5-1.1l0,0c0,0,0,0,0,0
			c0.9-0.5,1.9-0.5,2.8-1c0.3-0.2,0.9-0.3,1.2,0.1c0.3,0.4-0.2,0.6-0.3,0.9c-0.4,0.6-0.7,1.1-0.9,1.8c-0.1,0.4,0,0.7,0.3,1
			c0.2,0.2,0.3,0.4,0.6,0.3c0.3-0.1,0.2-0.4,0.1-0.6c-0.2-0.4-0.3-0.7,0.2-0.9c0.8-0.3,1.4-1.1,2.2-1.5c0.3-0.2,0.6-0.4,1-0.1
			c0.4,0.2,0.3,0.5,0.2,0.9c-0.3,1.2-0.3,2.3,0.8,3.2c0.2,0.2,0.4,0.5,0.7,0.2c0.2-0.2,0.1-0.4,0-0.6c-0.7-0.7-0.2-1.1,0.3-1.6
			c0.4-0.4,0.9-0.7,1.2-1.1c0.3-0.4,0.7-0.3,1.1-0.3c0.4,0,0.4,0.5,0.5,0.8c0.2,1.5,1.4,2.2,2.4,3.1c0.2,0.2,0.5,0.3,0.8,0
			c0.2-0.3,0.2-0.6-0.1-0.8c-1-0.7-0.6-1.2,0.1-1.7c0.5-0.3,0.7-0.7,0.9-1.2c0.2-0.4,0.6-0.7,1.1-0.7c0.3,0,0.4,0.2,0.4,0.5
			c0.2,1.5,1.6,1.8,2.6,2.6c0.1,0.1,0.7,0.4,0.6,0c-0.2-1.5,0.8-2.5,1.3-3.7c0.1-0.3,0.1-0.8,0.5-0.8c0.4,0,0.5,0.5,0.6,0.8
			c0.3,1.3,1.3,1.8,2.4,2.3c0.8,0.4,1.6,0,1.8-0.8c0.2-0.8,0.8-1.4,1-2.3c0.1-0.3,0.2-0.6,0.5-0.6c0.3,0,0.3,0.2,0.5,0.5
			c1,1.9,3.8,2.8,5.8,1.9c0.4-0.2,0.7-0.3,0.9,0c0.4,0.4-0.1,0.6-0.4,0.8c-1.4,1.3-3.2,1.4-4.9,1.2c-0.4,0-0.8-0.3-1.2,0.1
			c-1.5,1.5-3.3,1.2-5,0.8c-0.3-0.1-0.6-0.3-0.8,0.2c-0.2,0.7-0.9,0.9-1.5,1c-1.5,0.4-2.9,0.1-4.3-0.5c-0.5-0.2-0.8-0.3-1,0.4
			c-0.2,0.5-0.6,1-1.4,1.2c-1.6,0.4-3,0.2-4.3-0.8c-0.3-0.2-0.5-0.6-1-0.2c-1.8,1.2-3.2,1.1-4.7-0.5c-0.3-0.3-0.5-0.7-1.2-0.5
			c-1.4,0.6-2.8,0.2-4-0.8c-0.3-0.3-0.6-0.4-1.1-0.4c-0.9-0.1-1.9-0.1-2.7-0.5c-1.1-0.6-2.1-0.2-3.1-0.3c-0.3,0-0.6,0.1-0.7,0.4
			c-0.6,1.7-2.1,2.8-2.8,4.4c-1.1,2.4-2.1,4.8-2.1,7.5c0,0.5,0,1.1,0.6,1.1c0.6,0,1-0.4,1.1-1.1c0-0.3,0-0.7,0-1
			c0.4-1.8-0.5-4,1.9-5.1c1.2-0.5,2.2-1.5,3.3-2.3c0.1,0.7,0,1.2-0.1,1.7c-0.2,2-1.7,3.6-1.9,5.6c-0.1,0.8-0.2,1.7-0.2,2.5
			c0,1.2-0.1,2.6,0.3,3.8c0.1,0.3,0.3,0.7,0.8,0.6c0.3-0.1,0.5-0.4,0.5-0.8c0-0.2,0.1-0.5,0-0.7c-0.4-1.3,0.5-2.7-0.2-4
			c-0.1-0.3,0.2-0.4,0.4-0.6c1.3-0.8,2.8-1.4,3.9-2.5c0.3-0.2,0.5-0.7,0.9-0.4c0.4,0.2,0.1,0.7,0,1.1c-0.2,2.2-1.8,4-1.6,6.2
			c0.1,1.2,0.1,2.4,0.2,3.5c0.1,0.9,0.4,1.7,0.9,2.4c0.2,0.3,0.3,1,0.9,0.8c0.5-0.2,0.3-0.7,0.3-1.2c-0.2-1.5-0.7-3-0.8-4.5
			c-0.1-1,0.4-1.6,1.2-2c0.8-0.3,1.5-0.8,2-1.4c0.4-0.5,0.9-0.9,1.6-1.2c-0.1,1.3,0,2.5-0.3,3.6c-0.9,3-0.4,5.9,0.8,8.7
			c0.3,0.8,0.9,2.1,1.5,1.9c0.9-0.3,0.6-1.6,0.7-2.6c0-0.2-0.1-0.3-0.1-0.5c-0.5-1.8-1-3.7-1.5-5.5c-0.2-0.8,0.3-2,0.8-2.1
			c1.5-0.5,2.3-1.8,3.4-2.8c0.2-0.2,0.3-0.5,0.7-0.3c0.3,0.2,0.1,0.5,0.1,0.8c0.2,2.6-0.6,5.2,0.2,7.8c0.7,2.6,1.8,5,3.3,7.2
			c0.2,0.3,0.5,0.8,0.9,0.4c0.3-0.3,0.3-0.7,0-1.1c-0.8-1.4-1.4-2.9-1.8-4.5c-0.5-1.6-0.9-3.2-0.7-4.8c0.1-0.5,0-1.3,0.7-1.2
			c0.4,0,0.4-0.1,0.7-0.3c1.1-0.9,1.5-2.4,2.9-3.3c0.3,2.3,0.5,4.4,0.9,6.4c0.2,1.7-0.4,3.4,0,5.1c0.5,2,1.1,3.9,2.9,5.2
			c0.5,0.4,1,0.3,1.1-0.3c0.2-1.2,0.6-2.4,0-3.6c-0.8-1.5-1.5-3.1-2.2-4.6c-0.9-1.9-0.8-2.3,0.9-3.8c0.2-0.2,0.4-0.5,0.6-0.7
			c0.4-0.6,0.9-1.2,1.3-1.8c0.3-0.4,0.6-0.5,0.7,0.1c0.3,1.3,0.5,2.6,0.7,4c0.4,1.7,0,3.6,0.9,5.2c0.7,1.2,1.3,2.4,2,3.5
			c0.1,0.2,0.1,0.6,0.5,0.6c0.4,0,0.4-0.5,0.4-0.8c0.2-4.3-0.7-8.3-2.4-12.2c-0.1-0.3-0.2-0.6,0.1-0.7c1.2-0.4,1.5-1.7,2.6-2.2
			c0.3-0.2,0.5-0.6,0.9-0.4c0.4,0.2,0.3,0.6,0.3,1c-0.1,2.4,0.5,4.6,1.3,6.9c0.2,2,1.3,3.7,2.2,5.5c0.4,0.7,0.7,1.5,1.3,2.1
			c0.4,0.3,0.5,0.4,1,0.1c1.4-1,1.5-3.5,0.2-5.1c-1.2-1.5-2-3.1-2.1-5c0,0,0,0,0,0c0,0,0,0,0,0c0-0.6,0-1.2-0.3-1.8
			c-0.3-0.7-0.5-1.8,0.2-2.2c1.1-0.7,1.7-1.7,2.6-2.5c0.7-0.6,1-0.3,1.1,0.5c0.1,0.7,0.1,1.5,0.1,2.2c0.4,2.7,1.4,5.4,1.8,8.1
			c0.1,0.4,0.4,0.8,0.7,1.1c0.3,0.4,0.7,0.8,1.3,0.6c0.5-0.2,0.7-0.8,0.7-1.3c0-1.3,0.2-2.5-0.1-3.8c-0.4-1.6-0.7-3.3-1-4.9
			c-0.1-1-0.3-1.9-1.3-2.5c0,0,0,0,0,0c0,0,0,0,0,0c-0.7-0.9-0.5-1.7,0.1-2.5c0.4-0.4,0.7-0.8,1.1-1.2c0,0,0,0,0,0
			c0.2-0.1,0.3-0.2,0.5-0.4c0.3-0.3,0.5-0.7,0.9-0.6c0.5,0.1,0.5,0.7,0.5,1.1c-0.1,1.6,0.6,3,1.3,4.3c0.9,1.7,1.8,3.3,2.7,4.9
			c0.2,0.3,0.4,0.8,0.9,0.7c0.4-0.1,0.2-0.6,0.2-0.9c0-0.5,0-1-0.1-1.5c-0.4-2.3-1.3-4.4-2-6.6c-0.2-0.7-0.4-1.2-1.1-1.6
			c-1.4-0.8-1.3-2.2,0.1-3.1c0.5-0.3,0.7-0.8,1-1.2c0.2-0.3,0.4-0.8,0.8-0.7c0.4,0.1,0.5,0.6,0.6,1c0.2,0.9,0.2,2,0.9,2.8
			c0.2,0.2,0.2,0.7,0.6,0.6c0.5-0.1,0.3-0.6,0.3-0.9c0-1.5-0.6-2.9-0.8-4.4c1.2,0,1.9,0.6,2.3,1.7c0.7,2,0.5,4,0,6
			c-0.1,0.3-0.1,0.7-0.6,0.5c-1.4-0.6-1,0.3-0.8,0.9c0.7,2.3,1,4.6,0.9,7c1.6-1.4,2.9-3,3.8-4.9c-1.3-1.1-2.2-1.8-1.5-3.3
			c1.5,1.2,2.4,3.6,4.9,2.6c1.8-0.7,2.2-1.4,2-2.8C137.5,76.4,138.5,75.5,139.3,74.4z M126.3,66.8c-0.2,0.2-0.4,0.2-0.7,0.1
			c-1.1-0.3-2.2-0.6-3.2-1.1c-0.4-0.2-0.8-0.6-1.4-0.3c-0.9-1.1-2.2-1.4-3.6-1.8c1.1-0.7,2.1-0.6,3.2-0.3c0.5,0.1,1,0.5,1.5,0.2
			c0.2,0.4,0.6,0.5,1,0.7c1,0.6,2.1,1,2.9,1.8C126.2,66.2,126.5,66.4,126.3,66.8z M183.4,279.3c-1.7-0.4-3.3-0.8-5-1.2
			c-1-0.3-2.1,0-3.1-0.5c0.9-0.8,1.7-0.5,2.6-0.3c0.6,0.1,1.3,0.2,1.9,0.1c0.4,0,0.8-0.3,0.8-0.7c0-0.5-0.5-0.4-0.7-0.4
			c-1.2-0.2-2.4-0.3-3.5-0.6c-1.1-0.2-2,0.2-2.7,0.9c-0.5,0.4-1,1-0.8,1.6c0.2,0.6,0.9,0.7,1.5,0.9c0.4,0.1,0.8,0.2,1.2,0.2
			c1.7,0,3.4,0.3,5.1,0.7c1.9,0.5,2.1,0.4,1.8,2.4c-0.8,4.2-0.3,4.2-4.7,3.6c-3.1-0.4-6.2-0.7-9.3-1.1c-0.4,0-1.1-0.3-1.2,0.5
			c-0.1,0.6,0.6,0.7,1,0.7c1.5,0.3,3,0.6,4.6,0.8c2.8,0.4,5.5,0.7,8.3,1.1c1.1,0.1,2.1-0.2,2.5-1.4c0.6-1.9,0.8-3.8,0.9-5.7
			C184.5,279.9,184.1,279.5,183.4,279.3z M185.4,257.2c-0.8-0.1-0.8,0.6-0.9,1.1c-0.5,2.9-1.1,5.9-1.2,8.9c-0.1,1.2,0,2.4,0.7,3.5
			c0.3,0.5,0.7,1,1.3,0.9c0.6-0.1,0.7-0.8,0.8-1.4c0-0.8,0-1.5,0-2.3c-0.2-2.9,0.4-5.8,0.7-8.7c0-0.2,0-0.5,0-0.7
			C186.9,257.5,186.2,257.3,185.4,257.2z M171.3,279.2c0.8,0,0.9-0.6,0.9-1.3c0-0.6,0-1.1-0.1-1.7c-0.1-0.7-0.8-0.8-1.4-0.9
			c-0.5,0-0.6,0.7-0.7,1.1c-0.1,0.3,0,0.1,0,1.1c0,0,0,0,0,0c0,0,0,0.2,0,0.4C169.8,279.1,170.5,279.2,171.3,279.2z M121.5,85.5
			c0,1.4,0,2.6,0,3.7c1-0.7,2.5-1.6,3.4-2.9C123.7,86.7,122.5,86.5,121.5,85.5z M47.3,235.8c1.7-1.8,4-3,5.7-4.8
			c0.7-0.8,1.9-1.1,2.5-2c0.7-0.9,1.1-2.2,1.3-3.4c0.4-2.3,0.5-4.7,1.4-6.9c0.6-1.5,0.7-3.2,0.6-4.8c-0.1-3.3-0.3-6.7,0.2-10
			c0.2-1.1-0.2-2.4,0.6-3.4c0.2-0.3-0.1-0.5-0.3-0.7c-1.3-1.2-2.7-2.4-3.8-3.8c-2.5-2.9-4.4-6.2-6.3-9.6c-0.9-1.6-1.7-2.1-3.5-1.9
			c-1.4,0.1-2.7,0.3-4,0.6c-2.5,0.6-4.9,1.3-7.2,2.4c0,0,0,0,0,0c0,0,0,0,0,0c-1.1-0.1-2.1,0.5-3.1,0.6c-0.8,0-1.7,0.2-2.5-0.8
			c1.2,0.2,1.9-0.3,2.5-0.8c0.6-0.5,1.3-0.9,1.9-1.4c0.3-0.2,0.6-0.3,0.8-0.5c2.3-1.5,4.6-3,7.3-3.7c1-0.2,2-0.4,2.9,0.2
			c0.4,0.3,1,0.2,1.6,0.1c-0.3-0.5-0.6-0.6-1-0.7c-1.9-0.6-3.7-1.1-5.5-1.7c-2.3-0.8-4.5-0.9-6.9-0.8c0,0-0.1,0-0.1,0
			c-0.4,0-0.7-0.1-1.1,0.1c-1.4,0.2-2.4,1.2-3.4,2.1c-1.3,1.2-2.2,1.8-4.2,0.7c1-0.3,1.5-1.1,2.1-1.7c2.2-2.6,4.8-4.3,8.2-4.9
			c0.2,0,0.4,0.1,0.6,0.1c1.4-0.5,2.8-0.2,4.2,0.2c0.8,0.2,1.4,1,1.9,1.1c2,0.1,3.2,1.4,4.6,2.4c0.7,0.5,1.5,0.9,2.2,1.1
			c1.1,0.4,0.6-1.3,1.4-1.6c0.2-0.1,0.2-0.3,0.3-0.5c0.7-0.9,1.7-1.5,2.2-2.5c1.4-3,3.5-5.4,5.7-7.9c2.4-2.6,5-5.1,6.2-8.6
			c0.4-1.1,0.3-2.2,0.7-3.2c1.2-3.7,2.1-7.5,3.1-11.2c0,0,0,0,0,0c0.4-0.2,0.5-0.6,0.6-1c0.3-1.6,0.8-3.1,1.3-4.6
			c0.8-2.5,1.6-4.9,2.4-7.4c0,1,0.5,1.9,0.3,2.9c-0.3,2.6-0.8,5.2-1.1,7.8c-0.3,1.9-0.7,3.7-1.3,5.5c-0.3,1-0.6,2-0.9,3
			c-0.6,2.4-0.6,5-1.2,7.4c-0.7,2.7-1.2,5.5-1.2,8.3c0.1,4.2-0.7,8.3-0.9,12.5c-0.2,3.1-0.7,6.2-0.6,9.3c0.1,1.3,0.2,2.6-0.1,3.8
			c-0.6,2.7-0.5,5.5-0.8,8.3c-0.3,2.7-0.5,5.4-0.6,8.1c-0.1,2.5-0.3,5,0.1,7.5c0.2,1.5,0.4,3-0.3,4.3c-0.7,1.3-1.3,2.6-1.7,4
			c-0.7,2.5-1.9,4.8-1.9,7.5c0,1.2,0.1,2.4,0.1,3.6c0,4.3-0.6,8.5-1.1,12.7c-0.2,2.2-0.9,4-2.5,5.5c-0.6,0.5-1,1.2-1.5,1.8
			c-0.4,0.5-0.7,1,0.3,1.2c0.3,0.1,0.7,0.3,0.5,0.7c-0.4,1.2,0.5,1.1,1.1,1.1c1.7,0,3.4,0.2,5,0.7c1.5,0.5,3.2-0.1,4.7,1
			c0.3,0.2,0.7,0.2,1,0.2c1.4,0.2,2.9,0.3,4.3,0.7c1.2,0.3,2.3,0.9,3.5,1.1c1.4,0.2,2.8,0.5,4.1,0.8c3.1,0.8,3.3,0.6,2.4-2.6
			c-0.8-3.2-1.2-6.4-1.4-9.6c-0.3-4.1,1.2-8,1.3-12c0.1-2.2,0.4-4.4-0.4-6.6c-0.5-1.5-1-3.1-1-4.8c0.2-3.4,1.5-6.3,3.5-8.9
			c1.3-1.7,1.3-3.4,0.7-5.3c-0.7-2.2-1.6-4.4-1.5-6.8c0.1-3.4,0.9-6.8,1.2-10.2c0.3-3.1,0.9-6.1,1.3-9.2c0.3-2.2,0.5-4.3,0.9-6.5
			c0.6-2.9,1.1-5.8,1.2-8.7c0-1.6-0.2-3.3,0.2-4.9c0.7-3.6,1.2-7.1,1.1-10.8c-0.1-2.7,0-5.3,0.9-7.9c0.1-0.2,0.1-0.5,0-0.7
			c-0.6-1,0.1-1.8,0.6-2.5c0.3-0.4,0.4-0.6,0.4-1c0.3-3.3-0.1-6.6-0.7-9.9c-0.7-3.4-0.9-6.8-1-10.2c0.2-1.8-0.3-3.5-0.4-5.2
			c-0.1-1.7,0.2-3.4-0.2-5.3c-0.2,0.4-0.3,0.5-0.3,0.6c-0.2,5.3-2.1,10.3-3.3,15.4c-0.7,3.1-1.8,6.1-2.6,9.1c-1.4,5-2.6,10-3.8,15
			c-0.5,2-0.9,4.1-1.3,6.2c-0.3,1.5-0.5,2.9-1.2,4.2c0,0,0,0,0,0l0,0c-0.2,0-0.2,0.1-0.2,0.2l0,0c0,0,0,0,0,0
			c-0.7,0.3-1.4,0.1-2.2,0c-1.9-0.3-3.1-1.6-2.8-3.5c0.3-2.3,0.8-4.5,1-6.8c0.3-2.2,1.3-4.1,1.8-6.2c0.9-3.5,1.6-7.1,2.5-10.6
			c1-4.1,2.5-8.1,3.8-12.1c0.6-1.7,1.6-3.2,2.1-5c0.7-2.6,0.9-5.3,1.9-7.9c0.1,0,0.2-0.1,0.1-0.2c0,0-0.2,0-0.3,0
			c-1,0.2-1.8,0.8-2.5,1.4c-2.7,2.5-5.3,5.1-8.1,7.5c-3.6,3.2-7.5,6.1-11.4,8.9c-3.6,2.6-7,5.4-10.5,8.2c-1.5,1.2-2.7,2.7-3.9,4.1
			c-1.4,1.7-3.4,2.9-5.1,4.2c-2.2,1.7-4.2,3.8-6.8,5c-1.9,0.9-3.6,2-5.3,3.1c-1.6,1.1-3.2,2.3-5,3.3c-1.9,1.1-4.1,2-5.7,3.6
			c-1.6,1.5-3.1,3-5.1,4c-0.7,0.3-1,1-1.3,1.8c-0.7,1.8-1.2,3.7-2.3,5.3c-0.3,0.4-0.5,1-0.5,1.6c0.1,1.5-0.3,3-0.2,4.5
			c0,1-0.1,2.1,0.2,3c0.8,1.9,0.8,4,1.3,6c0.5,1.8,1,3.6,2.3,5c0.4,0.4,0.6,0.9,0.9,1.4c1.6,2.5,3,5.2,4.8,7.5
			c2.1,2.7,4.1,5.3,6,8.1c1.5,2.3,3.4,4.4,4.7,6.9c1.5,2.8,3.2,5.3,5.2,7.7c1.9,2.3,3.5,4.8,5.6,6.9c1.9,2,3.7,4.1,5.5,6.1
			C46.4,236.1,46.8,236.3,47.3,235.8z M214.1,179.5c-1.3-1.5-2.3-3.1-3.1-4.9c-0.5-1.2-1.1-2.4-1.9-3.5c-3.4-4.6-6.5-9.5-10.3-13.8
			c-1.4-1.6-2.7-3.5-4.6-4.4c-2.3-1.1-4.7-2.1-7-3.5c-1.4-0.9-2.7-1.9-4.2-2.7c-1.2-0.6-2.1-1.7-3.2-2.5c-2.3-1.6-4.8-3-6.9-4.9
			c-2.3-2.2-4.9-4.1-7.4-6.1c-1.7-1.3-2.9-3.1-4.8-4.1c-4.5-2.4-8.6-5.5-12.9-8.2c-4.4-2.7-8.9-5.1-13.5-7.4
			c-0.8-0.4-1.6-0.6-2.4-1.1c-4.4-2.6-9.1-4.6-14.2-5.3c-1.9-0.2-3.9-0.5-5,1.7c0.2,0.3,0.5,0.6,0.2,1.1c-0.3,0.5-0.6,0-0.9,0
			c-0.2,0-0.5,0-0.7,0.1c-1.3,0.7-1.7,2.2-2.6,3.2c0,0,0,0,0,0c0,0,0,0,0,0c-0.2,0.4-0.4,0.7-0.5,1.1c-0.6,1.8-2.2,2.9-3.2,4.6
			c-1.1,1.8-1.8,3.8-2.8,5.7c-2,4-3.9,8-5.9,11.9c-2.3,4.4-3.7,9-4,13.9c0,0.5,0.1,1,0,1.5c-0.6,3.5-0.7,7.1-1.1,10.6
			c-0.2,2-0.3,4-0.6,5.9c-0.2,1.6-0.7,3.2-0.7,4.8c0,2-0.4,3.9-0.7,5.9c-0.3,3.2-0.7,6.4-1.1,9.6c-0.2,1.7-0.2,3.4-0.4,5.1
			c-0.3,2.5-1.1,4.9-1.6,7.3c-0.4,1.9-0.9,3.7-0.5,5.6c0.6,2.6,1.4,5.1,1.9,7.7c0.3,1.8,0.5,3.6-0.9,5.2c-0.7,0.8-1.5,1.6-2.3,2.3
			c-1.1,0.9-1.7,2-1.8,3.4c-0.1,1.8,0.1,3.6,0.7,5.3c0.5,1.4,0.9,2.9,0.8,4.4c-0.2,2.9,0.5,5.9-1.1,8.6c-0.1,0.1,0,0.2,0,0.4
			c-0.4,1.9-0.2,3.8-0.2,5.6c-0.1,2.1,0,4.1,0.7,6.1c0.2,0.8,0.5,1.6,0.3,2.5c-0.3,1.2-0.2,2.4-0.3,3.6c0,0.6,0.2,0.8,0.7,0.8
			c1.9,0.1,3.7,0.5,5.6,0.3c0.4-0.1,0.8,0,1.2,0c1.9,0.1,3.7,0.4,5.6,0.4c2.6-0.1,5.2-0.2,7.9-0.2c2.9,0,5.7-0.1,8.6-0.3
			c3.1-0.3,5.9-1.1,8.9-1.8c1.9-0.4,3.8-0.9,5.5-1.7c0.4,0,0.8-0.1,1.2-0.2c1.8-0.7,3.7-1.3,5.6-1.6c0.4-0.1,0.8,0,1-0.6
			c-0.1-0.1-0.3-0.2-0.4-0.2c-2.7-0.4-4.3-2.9-4.2-5.3c0-0.2-0.1-0.4-0.1-0.6c0,0,0,0,0,0c0-1.1-0.2-2-1.5-2.3
			c-0.6-0.1-1.1-0.5-1.6-0.8c-1.7-1-2-1.9-1.4-3.8c0.5-1.5,0.4-2.7-0.9-3.8c-0.7-0.6-1.4-1.4-2-2.2c-0.9-1-1.2-3.2-0.4-3.9
			c1.9-1.5,3.4-3.5,5.8-4.3c2.7-0.1,4.4-2.4,6.8-3.2c-0.2-0.4-0.5-0.6-0.8-0.8c-2.1-1.3-4.1-2.7-6.2-4c-0.8-0.5-1.2-1.5-2.1-1.8l0,0
			c0,0,0,0,0,0c-2.5-2.8-5.2-5.4-7.8-8.1c-1.4-1.4-2.2-3.1-2.5-5c0-0.2,0-0.5,0.1-0.7c0.4-0.7,2.4-1,3.1-0.7c2.7,1.1,5,3,7.2,4.8
			c3.6,3.3,7.5,6.3,10.8,9.9c0,0,0.1,0,0.1,0.1c1.3,1.1,1.3,1,2.4-0.2c0.5-0.5,1-1,1.5-1.6c1.2-1.3,2.3-2.6,3.5-3.9
			c0.2-0.2,0.5-0.5,0.2-0.8c-1.7-1.5-1.9-3.8-2.9-5.7c-0.4-0.8-0.4-1.5,0-2c1-1.6,1.5-3.1,0.7-4.9c-0.1-0.1,0.1-0.4,0.1-0.6
			c0.7-2.5,1.4-5.1,1.9-7.7c0.4-2.4,0.7-4.8,1.4-7.1c0.5-1.7,0.9-3.4,1.3-5.1c0.7-3.6,0.4-7.3,1.5-10.8c0.1-0.5,0-1.1-0.6-1.3
			c-1.2-0.4-2-1.3-2.7-2.1c-2.6-3-5.1-6.2-8-8.9c-0.3-0.3-0.6-0.9-1.1-0.9c0,0,0.3,0,0.3,0s0,0.2,0,0.2c-1-1.1-2.1-2-3.2-3.1
			c0.6-0.3,1.2-0.8,1.9-0.6c1.7,0.4,3.1,1.2,4.5,2.2c1.4,1,2.7,2.1,4,3.2c2,1.7,4.1,3.1,6,4.9c1.5,1.4,3,2.8,4.7,4
			c2.8,1.9,5.6,3.8,8.6,5.5c1.3,0.8,2.3,1.8,3.8,2.4c3.3,1.3,6.9,1.5,10.1,3.2c0.3,0.1,0.7,0.1,0.7,0.5c0,0.3-0.4,0.4-0.6,0.5
			c-1.3,0.4-2.2,1.3-3.2,2.2c-0.7,0.7-0.6,1.3,0.5,1.6c0.3,0.1,0.7,0.1,1.1,0.2c1.5,0.4,1.8,0.7,1.7,2.2c-0.1,2-0.8,2.7-2.6,2.8
			c-0.2,0-0.4,0.1-0.5,0.3c-1.5,1.5-3,3.1-4.2,4.9c-1.7,2.6-3.9,4.9-6.1,7.1c-2,2-4.3,3.7-5.9,6c-0.7,0.9-1.3,2-2.7,2
			c-0.1,0-0.2,0.2-0.3,0.3c-1.9,2.5-4.6,4.2-6.7,6.6c-2.3,2.5-2.6,7.4-0.9,9.4c2.5,3,5.3,5.7,7.5,8.7c0,0,0,0,0,0c0,0,0,0,0,0
			c1.1,2,2.1,3.8,3.4,5.5c1.4,1.9,2.5,4.3,4.6,5.5c1.1,0.6,2,1.5,2.9,2.4c0.8,0.8,1.7,1.2,3,0.6c1.4-0.6,2.3-1.6,3.4-2.6
			c2.4-2.2,4.7-4.6,6.7-7.1c3.1-3.7,5.4-7.9,8.2-11.8c2.6-3.7,5.7-7.1,7.8-11.1c0.3-0.6,0.8-1.1,1.2-1.6c3.3-4,6-8.4,8.9-12.6
			c2.9-4.2,4.8-8.9,7.4-13.3c0.7-1.2,1.6-2.4,2.1-3.8C214.6,182.5,215.5,181,214.1,179.5z M120.2,131.2c-0.2,3-1,6-0.9,9
			c0,1,0.3,2,0.1,3.1c-0.6,4-0.8,8.1-0.8,12.2c0,1.7-0.3,3.3-0.4,5c-0.1,1.7-1,2.7-2.5,3.4c-0.2,0.1-0.3,0.1-0.5,0.2
			c-0.1,0-0.2-0.1-0.4-0.1c-1.1-0.2-1.3-1-1.3-2c-0.2-4,0.2-7.9,0.3-11.8c0-1.4-0.2-2.7-0.1-4.1c0.3-3.1,1-6.2,0.8-9.4
			c-0.3-5.3,0.4-10.6,0.5-15.9c0-1.9,0.3-3.8,0.3-5.7c0-0.1-0.1-0.2-0.2-0.3c0.2-1.4,1.1-2.1,2.3-2.6c0.2-0.1,0.3-0.3,0.4-0.4
			c0.9-0.8,1.5-0.7,2,0.4c0.6,1.5,1,3.1,1,4.8C120.7,121.9,120.5,126.6,120.2,131.2z M134.1,127.7c0,0-0.1-0.1-0.1-0.1
			c0.1,0,0.1,0,0.2-0.1C134.2,127.6,134.1,127.6,134.1,127.7z M145.7,136.9C145.7,136.9,145.7,136.9,145.7,136.9
			c0.1,0.1,0.1,0.1,0.1,0.1C145.7,137,145.7,137,145.7,136.9z M146,137C146,137,146,137,146,137C146,136.9,146,136.9,146,137
			C146,136.9,146,136.9,146,137C146,136.9,146,137,146,137C146,137,146,137,146,137z M182.1,174.3
			C182.1,174.3,182.1,174.3,182.1,174.3C182,174.3,182,174.3,182.1,174.3C182,174.3,182.1,174.3,182.1,174.3z M182.5,174.8
			C182.5,174.7,182.5,174.7,182.5,174.8c0.9,0,1.7-0.6,2.5-0.8c2.7-0.7,5.3-0.4,8-0.2c2.3,0.1,4.6,0.6,6.8,1.1
			c0.7,0.2,1.3,0.6,1.8,1.2c-0.6,0.2-1.1,0-1.5,0.1c-3,0.5-6,0.5-9,0.2c-1.8-0.2-3.7,0-5.5,0c-0.4,0-0.7,0-1,0.3c0,0,0,0,0,0
			c-1.1-0.9-2.5-0.2-3.8-0.6C181.4,175.5,182.1,175.3,182.5,174.8z M202.3,183.3c-1.9,0.2-3.7,0.4-5.6,0.2c-1.5-0.2-3,0.3-4.5,0.3
			c-1.9,0-3.8,0.1-5.7,0.1c-0.3,0-0.6,0-0.8,0.3c0,0-0.1-0.1-0.1-0.1c-2.3-0.6-4.7-0.2-7.1-1.3c1-0.7,1.9-1.1,2.9-1.3
			c1.7-0.2,3.4-0.3,5-1c0,0,0,0,0,0c0.2,0.3,0.5,0.2,0.8,0.2c2.9-0.3,5.8-0.3,8.7-0.3c2.4,0.1,4.8,0.3,7,1.4c0.7,0.3,1.4,0.7,2,1.7
			C203.8,183.2,203,183.2,202.3,183.3z M75.4,39.6c3.1-0.1,6.3-0.1,9.4,0.5c3.5,0.6,5.4,2.3,6,6.1c0.2,1.4,0.4,1.6,1.8,1.3
			c1.6-0.4,3.2-0.8,4.9-0.8c2.1-0.1,2.1-0.1,2-2.3c0,0,0-0.1,0-0.1c-0.2-1-0.5-2.1,1.1-2.3c0.2,0,0.3-0.3,0.5-0.5
			c1.2-1.2,2.6-2.1,4.4-2.3c3.2-0.2,6.3-0.1,9.5-0.2c1.1,0,2.2,0,3.2,0.1c2.1,0.2,4.3,0.3,6.4,0.4c1.6,0.4,3.1,0.8,4.7,1.2
			c2.8,0.7,4.2,2.4,4.7,5.1c0.4,1.9,0.4,3.9,0,5.8c-0.1,0.7,0,1.2,0.5,1.6c0.5,0.4,1,0.8,1.5,1.3c0.4-1.2,0.7-2.3,1.2-3.3
			c0.6-1.3,0.8-2.7,0.8-4.2c0-2.5-0.3-5.1-0.1-7.6c0.2-2.8-0.4-5.6,0.1-8.5c0.1-0.4-0.1-0.7-0.2-1c-0.5-2-1.8-3.6-2.3-5.6
			c-0.1-0.4-0.3-0.7-0.7-0.8c-1.7-0.6-3.1-1.6-4.5-2.7c-0.3-0.2-0.5-0.3-0.8-0.2c-1.8,0.6-3.5,0.4-5.1-0.7c0,0,0,0,0,0c0,0,0,0,0,0
			c-0.7-0.6-1.1-1.5-1.3-2.4c-0.1-0.4-0.3-0.7-0.6-0.7c-0.7-0.1-1-0.5-1.3-1.1c-0.3,0.4-0.7,0.7-1.1,0.9c-1.6,0.9-3.1,0.2-4.6-0.4
			c-0.7-0.3-1.2-0.6-2,0c-0.9,0.7-2.1,1.1-3.3,0.4c-1-0.7-2.1-1.2-3.2,0c-0.1,0.1-0.2,0.2-0.3,0.3c-1.9,2-4.9,0.9-5.3-1.5
			c-0.1-0.8-0.4-0.7-1-0.3c-1.2,0.7-2.5,1.3-3.7,2c-0.8,0.5-1.4,0.1-1.8-0.6c-0.2-0.3-0.3-0.6-0.4-1c-1,0.6-2,1.3-3,1.9
			c-1.2,0.8-1.8,0.8-2.8-0.2c-0.4-0.3-0.6-0.4-0.8,0.1c-1,2-3,3.2-3.7,5.4c-0.1,0.3-0.3,0.6-0.6,0.7c-1.6,0.9-2.4,2.4-3.2,3.9
			c-1,2.2-2.7,4-3.6,6.3c-0.7,1.6-1.2,3.3-2,4.9C74.4,39.4,74.5,39.6,75.4,39.6z M144.3,285.2c-0.4-2.3-0.4-4.6-0.9-6.8
			c-0.1-0.5-0.3-0.7-0.8-0.7c-2.1,0.1-4.1-0.5-6.1-1c-3.2-0.8-6.1-2.2-7.7-5.3c-0.9-1.6-1.4-3.3-1.4-5.1c0-0.5,0.3-1.3-0.8-0.9
			c-4.3,1.5-8.7,2.5-13.3,3c-4.3,0.4-8.6,0.8-13,0.6c0,0,0,0,0,0c-2.1,0-4.2,0.1-6.3-0.1c-0.3,0-0.6-0.1-0.6,0.3
			c0,1.4-0.1,2.8,0.1,4.2c0.5,3.2,0.5,6.5,0,9.7c-0.2,1.4-1.5,2.7-2.7,2.8c-1.3,0.1-3.8-1.2-4.2-2.2c-0.6-1.5-0.6-3.2-0.7-4.8
			c-0.3-3.1-0.2-6.3,0-9.4c0-0.8-0.2-0.9-0.9-1c-2.7-0.1-5.3-0.5-7.9-1c-3.4-0.6-6.6-1.8-9.9-2.6c-0.8-0.2-1.1,0.1-1.1,0.7
			c0,0.9-0.2,1.8-0.6,2.6c-0.8,1.5-1.7,3-3,3.9c-1,0.7-2.1,1.4-3.1,2.2c-2.3,1.8-4.9,3-7.7,3.8c-0.6,0.2-0.9,0.4-1,1
			c-0.4,3-0.9,6-1.4,9c-0.4,2.4-0.3,2.4,1.9,3.4c0.2,0.1,0.4,0.2,0.6,0.3c3.6,1.7,7.4,2.6,11.3,2.8c3.2,0.1,6.3,0,9.5,0
			c5.1,0,10.2-0.3,15.2,0.7c0.5,0.1,1,0.1,1.6,0c2-0.2,4-0.1,6,0c1.5,0.1,3.1,0.2,4.6-0.1c3.5-0.7,7.1,0.1,10.6,0.1
			c2.9,0,5.7-0.4,8.5-0.7c5.9,0.1,11.7-0.4,17.6-1c1.9-0.2,3.9-0.4,5.7-1.1c2-0.8,2.7-2.1,2.3-4.2
			C144.5,287.2,144.5,286.2,144.3,285.2z M117.5,273.5c0-0.1-0.1-0.1-0.1-0.2C117.5,273.3,117.5,273.4,117.5,273.5z M85.3,16.1
			c0.7,0.1,1.4,0.1,2,0.3c0.4,0.1,0.6,0,0.6-0.5c0-1,0.5-1.9,0.9-2.8c0.1-0.2,0-0.5,0.4-0.5c1.2,0.1,2.4-0.4,3.6-0.4
			c0,1.8-1.9,2.8-2.3,4.7c1.5-1,2.8-1.8,4-2.7c0.5-0.3,0.7-0.8,0.4-1.3c-0.3-0.5,0-0.6,0.4-0.7c0.9-0.1,1.9-0.1,2.8-0.4
			c0.3-0.1,0.6-0.3,0.8,0c0.3,0.4-0.1,0.6-0.4,0.8c-1,0.8-1.5,2-2.2,3.1c-0.1,0.2-0.4,0.5-0.2,0.7c0.3,0.2,0.5,0,0.7-0.1
			c1.4-0.8,2.8-1.7,4.3-2.5c0.5-0.3,0.7-0.8,0.5-1.2c-0.6-1.2,0.5-0.9,0.8-0.8c0.9,0.2,1.7-0.1,2.6-0.3c0.3-0.1,0.6-0.4,0.9-0.1
			c0.2,0.3-0.1,0.6-0.3,0.8c-0.9,1.1-1.7,2.3-1.9,3.9c-0.1,1,0.3,1.2,1,0.8c1.1-0.6,2.1-1.2,3.2-1.8c0.2-0.1,0.6-0.4,0.5-0.6
			c-0.7-1.3,0.3-1.1,1-1.2c0.3-0.1,0.6-0.3,0.8-0.4c0.4-0.2,0.8-0.7,1.1-0.3c0.4,0.4-0.1,0.7-0.3,1.1c-0.5,0.7-0.6,1.6-0.1,2.1
			c0.5,0.6,1.1-0.1,1.7-0.4c0.3-0.2,0.6-0.4,0.8-0.7c0.2-0.2,0.2-0.4,0.2-0.6c-0.3-1.1,0-1.4,1.2-1.5c0.9,0,1.8,0.4,2.7,0
			c0.4-0.2,0.8,0.1,0.6,0.7c-0.1,0.3-0.2,0.7-0.4,1c-0.3,0.6-0.3,1.1,0.2,1.5c0.5,0.4,1,0.3,1.6,0.1c0.7-0.3,1.3-0.6,0.8-1.6
			c-0.3-0.6,0.5-1.9,0.8-1.7c0.8,0.5,2,0.3,2.4,1.4c0.1,0.2,0.3,0.3,0.5,0.2c0.8-0.5,1.5-0.1,2.3,0.1c1.7,0.3,1.7,0.3,1,1.9
			c-0.5,1.1-0.4,2.5,0.4,3.2c0.3,0.3,0.5,0.6,0.7-0.1c0.4-1.2,1.2-1.8,2.5-1.6c0.5,0,0.9,0,1.4-0.2c0.4-0.2,0.8-0.1,1.1,0.2
			c0.4,0.4,0.1,0.8-0.1,1.1c-0.7,0.9-0.2,1.5,0.5,2c1.1,0.8,2.2,1.6,3.3,2.4c0.5,0.3,0.9,0.7,1,1.3c0.1,1.1,0.6,2,1.1,2.9
			c1.1,2,1.8,4.1,1,6.4c-0.2,0.5-0.1,1.1,0,1.7c0.2,0.8,0.1,1.5,0,2.2c-0.1,1.6-0.2,3.3-0.2,4.9c0,2.6,0.4,5.2-0.3,7.7
			c-0.3,1-0.7,1.9-1.2,2.9c-1,2.1-0.7,3.4,1.3,4.5c0.5,0.2,1,0.3,1.4,0.1c0.4-0.2,0.2-0.7,0-1.1c-0.2-0.5,0-1,0.2-1.4
			c0.6-1.4,0.7-2.9,1-4.3c0.4-2,1-4,1.2-6.1c0.2-1.3,0.6-2.5,1.2-3.7c0.5-0.9-0.2-1.9-0.2-2.8c0-2.2-0.1-4.4,0-6.6
			c0.3-4,0.4-8-1-11.8c-0.5-1.3-1.1-2.6-2.2-3.5c-1.8-1.4-1.9-1.4-0.4-3.3c0.1-0.1,0.2-0.3,0.4-0.6c-1.5,0.7-1.5,0.7-3.1,0.4
			c-0.4-0.1-0.5,0-0.6,0.3c-0.5,1.2-1.3,1-2.3,0.5c-2-1-4.1-2.1-6.4-2.4c-2.1-0.3-4.1-0.8-6.2-1c-3.7-0.4-7.5-0.9-11.2-1.1
			c-4-0.2-7.9-0.6-11.9,0.1c-4.6,0.8-9.1,1.6-13.2,3.9c-0.9,0.5-1.1,1.4-1.5,2.2C84.9,15.9,85,16.1,85.3,16.1z M112,54.8
			c3.3,0.1,6.5,0.5,9.9,0.3c2.4,0.2,4.8,0,7.2-0.8c1.1-0.4,1.4-1,1.5-1.9c0-1.9,0.1-3.8-0.1-5.7c-0.1-1.2-0.4-2.4-1.4-3.4
			c-1.4-1.4-3.2-1.3-4.9-1.5c-2.6-0.3-5.2-0.2-7.8-0.3c-3.5-0.2-7.1,0-10.6-0.4c-1.3-0.2-2.9,1-3,2.1c-0.1,2.4-0.2,4.8-0.2,7.1
			c0,1.2,1.4,3.2,2.5,3.5C107.3,54.5,109.7,54.8,112,54.8z M138.4,107c0.4,0.5,0.9,0.6,1.4,0.8c3,0.8,6.1,1.1,8.9,2.5
			c3.8,1.7,7.7,2.2,11.8,1.4c1.2-0.3,2.4-0.5,3.6-0.8c-0.8,1-2,1.2-3,1.6c-3.7,1.3-7.5,1.8-11.4,1.1c-2.6-0.5-5.2-1.3-7.7-2.1
			c-1.4-0.4-2.8-0.8-4.2-0.7c1.2,0.8,2.6,1.3,3.8,2c0.5,0.3,1,0.7,1.6,1c2.7,1.2,5.2,2.6,7.7,4.2c1.7,1.1,3.4,2.4,5.2,3.4
			c3.9,2.3,7.9,4.7,11.7,7.2c0.4,0.3,0.5,0.2,0.7-0.2c0.1-0.3,0.3-0.7,0.3-1c0.4-3.2,1.1-6.4,0.3-9.7c-0.5-1.8-0.9-3.6-2-5.1
			c-1.4-2-3.3-3.8-5-5.6c-0.5-0.5-1.1-1-1.8-1.1c-2.7-0.2-5.5-0.3-8.2,0c-3.2,0.3-6.4,0.8-9.7,0.8
			C141.1,106.7,139.8,106.6,138.4,107z M64.5,51.3c1.1,2.4,3.4,3,5.7,3.3c1.8,0.2,3.6,0,5.3,0.1c2.2,0.1,4.3,0,6.4,0
			c1.6,0,3.1-0.1,4.6-1c0.9-0.5,1.4-0.8,0.7-1.8c-0.2-0.2-0.1-0.6,0-0.9c0.4-1.5,0.2-2.9-0.1-4.4c-0.6-3.3-1.8-4.5-4.6-4.6
			c-2.9-0.2-5.8-0.2-8.9-0.1c-2.4-0.1-4.8,0.4-7.2,1.2c-2.1,0.7-2.4,0.9-2.6,3.1c0,0.5-0.1,1,0,1.4C64.2,48.8,64,50.2,64.5,51.3z
			 M157.8,256c-3.2,1.8-6.5,2.2-9.9,1.6c-0.3-0.1-0.9,0.1-0.8-0.4c0-0.5,0.5-0.3,0.9-0.4c2.8-0.5,5.8-0.3,8.2-2.1
			c1.6-1.1,3.5-1.7,4.7-3.4c0.4-0.6,0.6-0.8-0.1-1.4c-3.1-2.5-6.6-4.6-8.7-8.2v0c0,0,0,0,0,0c-0.5-0.9-1-1.8-1.6-2.7
			c-3-4.5-7.1-8.1-10-12.7c-0.5-0.8-1.1-0.6-1.5,0.2c-0.4,0.9-1.1,1.7-1.8,2.3c-1.8,1.5-3.6,3.1-6.1,3.6c-0.7,0.1-1.6,0.1-2.1,0.7
			c-0.7,0.9-1.4,1.8-2.1,2.7c-0.7,0.9-0.5,2,0.4,2.6c1.4,1,2.6,2.3,3.9,3.4c0.9,0.8,0.9,1.8-0.1,2.1c-1.2,0.4-0.6,1.5-1,2.2
			c-0.3,0.5,0.4,0.9,0.8,1.2c1.1,0.7,2.2,1.1,3.4,1.4c1.8,0.4,2.2,1.3,1.4,2.9c-1.1,2.3-0.4,3.5,2.1,4c1.1,0.2,2.4,0.1,3.2,1.1
			c0,0.3,0.1,0.6,0.1,0.9c0.1,1.7,0.7,2.6,2.2,2.9c5,1,9.4-0.5,13.5-3.2C157.3,257.3,157.7,256.8,157.8,256z M51.2,253.2
			c0.5-1.1,0.8-2.2,1.9-2.9c0.7-0.4,0.9-1.1,1.2-1.8c0.7-2.2,0.8-4.5,1.2-6.8c0.3-0.3,0.2-0.6,0.2-0.9c0.1-2.5-0.1-4.9,0.1-7.4
			c0-0.3,0.3-0.7,0-0.9c-0.4-0.2-0.7,0.1-1,0.4c-0.8,0.7-1.3,1.5-2.3,2.2c0,0,0,0,0,0c0,0,0,0,0,0c-1,0.7-2.9,1.1-3.5,2.8
			c-0.1,0.1-0.2,0.3-0.4,0.3c-0.8-0.1-0.8,0.5-0.8,1c-0.1,0.9,0.1,1.7,0.4,2.5c0.7,1.9,1.3,3.7,2.2,5.5c0.3,0.7,0.1,1.2-0.5,1.6
			c-1,0.7-2.3,0.4-3.2-0.9c-0.5-0.6-0.9-0.8-1.6-0.5c-0.3,0.1-0.6,0.1-0.9,0.1c-1.4,0.1-2.3,1.2-3.3,1.9c-0.2,0.1-0.3,0.5-0.3,0.6
			c0.3,1.2,0.3,2.6,1.5,3.4c1,0.6,2,1.2,2.9,1.9c1.3,0.9,3.6,0.9,4.8,0C50.5,254.8,50.9,253.9,51.2,253.2z M143.8,264.2
			c0.1-0.5,0.1-0.8-0.5-0.8c-2.8-0.3-4.9-1.7-6.5-4.1c-1.2,2-2.9,3.4-5,4.1c-0.9,0.3-0.6,1-0.6,1.6c0.2,1.8,0.7,3.5,1.7,5
			c0.9,1.4,1.6,3,3.5,3.7c1.9,0.7,3.9,0.9,5.8,1.4c0.6,0.2,0.6-0.2,0.6-0.7c-0.2-1.2-0.4-2.4-0.1-3.6
			C142.9,268.5,143.3,266.3,143.8,264.2z M107.1,109.5c-0.4-0.9-0.2-1.7-0.2-2.5c-0.1-2.8-0.7-5.6-0.5-8.5c0.1-1.4-0.2-1.5-1.4-0.8
			c-1,0.6-1.8,0.7-2.7,0c-0.7-0.6-1.3-1.1-1.8,0.1c-0.1,0.1-0.3,0.2-0.5,0.3c-1.8,1.1-4.3,0.7-5.5-1c-0.1-0.2-0.3-0.3-0.5-0.2
			c-0.2,0.1-0.1,0.3-0.1,0.5c0.5,1.5,0.7,3,0.7,4.6c0,0.2,0,0.5,0,0.7c0.2,2.9,0.3,5.8,0.5,8.8c0,0.5,0.3,0.6,0.8,0.7
			c1.6,0.4,3.2,0.2,4.7-0.2c0.2,0,0.3,0,0.3-0.2l0,0c1.8-0.2,3.5-0.4,5.2-1.1C106.7,110.4,107.4,110.1,107.1,109.5z M55.1,260.9
			c-0.7-0.2-1-0.2-1.1,0.6c-0.2,1.4-0.4,2.8-0.6,4.2c-0.5,3.1-1.4,6.2-1.7,9.7c2.4-1.9,4.9-3.2,6.6-5.5c1.5-2,1.9-4.5,3.4-6.5
			c0.2-0.3-0.1-0.4-0.4-0.5C59.2,262.2,57.2,261.6,55.1,260.9z M83.9,115.5c-0.7,2.3-1.6,4.6-2.2,6.9c-1.9,7.8-4.4,15.4-6.1,23.2
			c-0.7,3.2-1,6.4-2.1,9.5c-0.7,1.8-0.6,3.7-0.8,5.6c0,0.4,0.1,0.8,0.5,0.8c0.5,0.1,0.4-0.4,0.5-0.7c0.1-0.6,0.4-1.1,0.4-1.7
			c0.5-3.2,0.8-6.5,1.5-9.6c1.8-7.4,3.9-14.7,5.8-22c0.9-3.3,1.9-6.6,2.5-10c0.2-1.1,0.7-2.2,0.2-3.3
			C84.1,114.6,84.1,115,83.9,115.5z M89.4,283.3c0.6-0.2,0.4-0.7,0.5-1c0.4-2.8,0.2-5.6,0.5-8.4c0.2-1.4,0.1-2.8,0.3-4.2
			c0.3-1.5-0.9-1-1.5-1.1c-0.9-0.2-0.6,0.6-0.6,0.9c0,0.8,0.2,1.6,0.2,2.5C89,275.7,89,279.5,89.4,283.3z M137.2,224.9
			c0.1-0.1,0.4-0.4,0.7-0.7c0.2-0.2,0.3-0.5-0.1-0.6c-0.6-0.1-0.9-0.7-1.4-1c-1.4-0.8-2.7-1.6-3.9-2.7c-2.4-2.1-4.7-4.4-7.3-6.2
			c-1.5-1.5-3.2-3-5-4.2c1.2,1.9,3.1,3.2,4.7,4.7v0C128.8,218,132.5,221.9,137.2,224.9z M90.6,109.8c0.6,0,0.7,0.6,1.2,0.8
			c0.6-1.1-0.4-2.2,0.1-3.2c-1,0.8-2.2,1.3-3.4,1.2c-1.9-0.3-3,1.1-4.4,1.8c1.9-0.4,2.2-0.3,3.7,1.5c0.3-0.8-0.2-1.9,0.4-2.3
			C88.9,109,89.8,109.8,90.6,109.8z M110.7,108.6c0.6-0.4,1-1,1.8-1.1c0.1,0,0.3-0.2,0.3-0.3c0.1-0.3-0.2-0.3-0.4-0.3
			c-0.5-0.2-1.1,0.3-1.6,0c-1.2-0.8-1.1,0-1,1.2c0-0.2,0,0,0,0.1C109.7,108.9,109.9,109,110.7,108.6z M102.4,114
			c-1.4,0.2-2.7,0.3-4.2,0.5C99.6,115.3,101.7,115,102.4,114z M65.3,71.8c0.9-0.6,0.8-1.5,0.9-2.4C65.5,70.1,65.1,70.8,65.3,71.8z
			 M106.7,112.9c-0.3,0.1-0.5,0.2-0.6,0.5c-2.1,2.1-4.6,3.4-7.5,3.8c0,0,0,0,0,0c0,0,0,0,0,0c-0.4,0-0.7,0.1-1.1,0.1
			c-1.9,0.1-3.6-0.2-5.3-1.1c-0.2-0.1-0.2-0.5-0.5-0.4c-0.3,0.2-0.2,0.4-0.2,0.7c0.2,2.4,0.4,4.7,0.6,7.1c0.2,2.9-0.2,5.7,0,8.6
			c0,0.6,0.3,1.2,0.2,1.8c-0.3,1.7-0.3,3.4-0.4,5.1c0.6-0.5,1-1,1.3-1.6c2.3-4,4.1-8.3,6.4-12.4c0.8-1.4,1.5-2.8,2-4.4
			c1.4-2.5,3.6-4.6,4.7-7.3c0,0,0,0,0,0C106.6,113.4,106.8,113.2,106.7,112.9z M185.3,272.9c-0.3-0.1-0.7-0.2-0.9-0.1
			c-0.9,0.4-1-0.2-1.2-0.8c-0.7-2.1-0.5-4.3-0.6-6.5c-0.1-1.2-0.8-1.4-1.7-1.6c-0.9-0.1-1.1,0.6-1.4,1.2c-0.3,0.7-0.2,1.4-0.8,2.2
			c-0.3-1.5-0.4-2.9-2.1-3c-1.1-0.1-1.1,0.9-1.6,1.6c-0.1-0.3-0.2-0.5-0.3-0.7c-0.2-0.6-0.5-0.9-1.1-0.9c-0.6,0-0.7,0.5-0.8,1
			c-0.1,0.4-0.2,0.9-0.2,1.3c-0.2,1.8-0.5,3.6-1.6,5.4c-0.6-1.5-0.3-2.9-0.4-4.2c-0.1-1.3-0.5-1.7-1.8-1.4c-0.6,0.2-0.7-0.2-1-0.4
			c-2.1-1.3-3.9-1.2-4.7,1.5c-0.2,0.6-0.3,1.3-0.5,2c-0.2-0.2-0.4-0.3-0.6-0.4c-1-0.3-0.8-0.7-0.2-1.3c0.4-0.5,0.8-1,1.1-1.6
			c0.5-1,0.3-2.1-0.4-2.6c-1.9-1.3-5.9-0.6-7.3,1.3c-0.4,0.6-1,1.3,0.2,1.8c0.3,0.1,0.3,0.5,0.3,0.8c0.3,2.8,0.6,5.5,0.9,8.3
			c0.1,0.6,0.3,0.9,0.8,1.1c1.1,0.5,2,0.3,3-0.4c1.6-1.1,2.2-2.6,2.5-4.4c2.5,2,3.6,1.8,5.6-0.7c0.4,1.5,1.4,2.4,2.9,2.3
			c1.6-0.1,1.8-1.8,2.7-2.7c0.2,0.8-0.2,1.5-0.2,2.2c0,0.8,0.5,1,1.1,1.2c0.6,0.2,0.9-0.3,1-0.7c0.3-0.8,0.4-1.7,0.7-2.6
			c1.1,2.3,2.4,2.6,3.8,0.6c0.1,0.4,0.2,0.8,0.4,1.1c0.4,0.9,1.3,1.6,2.2,1.3c0.7-0.2,1.3-0.2,1.9,0c0.7,0.2,1.2-0.2,1.3-0.7
			C186.4,273,185.7,273,185.3,272.9z M159.5,274.4c-0.1,0.2-0.3,0.5-0.5,0.3c-0.1-0.1-0.2-0.3-0.2-0.5c-0.1-0.7-0.1-1.5-0.3-2.2
			c-0.2-1,0.2-1.5,1.1-1.6c1.1,0,0.5,0.9,0.7,1.3C160.5,272.8,160.1,273.6,159.5,274.4z M160.6,265.7c-0.5,1-1.3,1.6-2.1,2.2
			c-0.2,0.2-0.5,0.4-0.7-0.1c-0.7-1.6,0.3-3.2,2.1-3.2C160.8,264.6,160.9,265,160.6,265.7z M166,271.2c-0.2,0.3-0.4,0.8-0.9,0.7
			c-0.4-0.1-0.4-0.6-0.4-1c0-0.2,0-0.5,0-0.7c0-1,0.2-1.9,0.7-2.7c0.2-0.4,0.5-0.6,0.7-0.1C166.7,268.6,166.6,270,166,271.2z
			 M174,284.6c1.6,0.3,3.3,0.7,4.9,1c0.4,0,0.9,0,1.1-0.4c0.7-1.1,1.3-2.4,0.7-3.7c-0.4-1-1.5-1-2.5-1c-2.8,0-5.6-0.3-8.4-0.7
			c-0.9-0.1-1.5-0.4-1.4-1.5c0.1-0.9-0.2-1.7-0.2-2.6c0-0.8-0.4-1.2-1.1-1.2c-0.8,0-0.8,0.6-0.8,1.2c0,2-0.4,4-0.1,6
			c0.2,1.2,0.6,1.8,1.7,2C170,283.9,172,284.2,174,284.6z M169.4,281.2c0.9,0.1,1.9,0.4,2.9,0.5c1.9,0.3,3.7,0.5,5.6,0.4
			c0.5,0,0.9,0.1,0.9,0.8c-0.1,0.6-0.3,1-1,0.8c-2.8-0.6-5.5-1.1-8.3-1.4c-0.6-0.1-0.6-0.4-0.7-0.8
			C168.7,281.1,169,281.2,169.4,281.2z M117.5,116.5c-0.1,1.4-0.2,2.7-0.4,4.1c-0.6,3.8-0.7,7.7-1.5,11.4c-0.3,1.5-0.2,3-0.3,4.5
			c-0.2,2.2-0.7,4.3-0.5,6.5c0.1,1.1,0.1,2.3-0.1,3.5c-0.9,4.2-1.2,8.4-1.1,12.7c0,1.1,0.3,2.3,0.5,3.4c0.1,0.3,0.1,0.7,0.5,0.7
			c0.4,0,0.6-0.2,0.7-0.6c0.1-0.3,0.2-0.5,0.2-0.8c0.3-2.4,0.3-4.9,0.4-7.4h0c0.2-0.4,0.2-0.8,0.3-1.3c0.1-1.6,0.1-3.1,0.3-4.6
			c0.6-4.5,0.7-9.1,1.1-13.7c0.3-4,0.4-8,0.4-12.1c0-1.7,0.1-3.4-0.1-5.1C117.9,117.3,118,116.8,117.5,116.5z"/>
		<path class="st0" d="M121,65.4c-1.3-0.6-2.5-1.6-4.1-1.6c0.8-1,2.1-1.4,3.3-1c0.6,0.2,1.3,0.4,1.9,0.6c1.4,0.8,2.8,1.4,4.1,2.4
			c0.4,0.3,0.8,0.5,0.5,1.1c-0.2,0.4-0.7,0.3-1.1,0.2C124,66.8,122.5,66.1,121,65.4z"/>
		<path class="st0" d="M186.2,180.5c1,0.3,1.9-0.1,2.9-0.1c3.7-0.3,7.3-0.3,10.9,0.3c1.8,0.3,3.5,0.9,4.8,2.3
			c0.2,0.2,0.5,0.5,0.3,0.8c-0.3,0.4-0.5-0.1-0.8-0.2c-0.7-0.3-1.3-0.2-2-0.1c-2.4,0.2-4.9,0-7.3,0.2c-2.3,0.2-4.7,0.2-7,0.4
			c-0.8,0.1-1.7,0-2.5,0.1c-1.4-0.4-2.9-0.2-4.3-0.5c-1.2-0.2-2.3-0.5-3.6-0.9c1.2-0.8,2.3-1.5,3.8-1.6
			C183.1,181.2,184.7,180.7,186.2,180.5z"/>
		<path class="st0" d="M182.5,174.7c2.2-1.1,4.6-1.5,7-1.4c3.6,0.1,7.2,0.4,10.6,1.4c1,0.3,1.9,0.8,2.3,1.9c-3.1-0.3-6,0.6-8.9,0.3
			c-2.7-0.3-5.5-0.1-8.2-0.2c-0.2,0-0.5,0.1-0.7,0.1c-1.4-0.5-2.9-0.1-4.4-0.4C180.8,175.6,181.7,175.1,182.5,174.7z"/>
		<path class="st0" d="M73.2,68.3c0.5-0.5,1-0.4,1.5-0.2c2.1,0.6,4,1.9,6.3,2.3c2.3,0.4,4.7,0.5,7,1c0.9,0.2,1.8-0.1,2.7-0.2
			c2.1-0.3,4.2,0.2,6.3,0c5-0.5,10.1-0.9,14.9-2.7c1.4-0.5,2.8-0.8,4.3-1.1c0.2-0.1,0.5-0.2,0.6,0.1c0.1,0.3-0.2,0.4-0.3,0.5
			c-1,0.9-2.2,1.4-3.4,1.9c-5.2,1.9-10.4,3.4-16,3.5c-3.9,0.1-7.9,0.3-11.8-0.3C81,72.3,76.8,71,73.2,68.3z"/>
		<path class="st0" d="M120.1,49.1c0,0.5,0,1,0,1.5c-0.1,0.6-0.4,1.1-1.1,1.2c-0.6,0.1-0.9-0.4-1.1-0.9c-0.2-0.5-0.2-1.1-0.7-1.6
			c-0.1-0.1,0.1-0.8,0.4-1.1c0.5-0.5,1.2-0.9,1.8-1.3c0.6-0.4,0.8-0.1,0.8,0.4C120.1,48,120.1,48.5,120.1,49.1
			C120.1,49.1,120.1,49.1,120.1,49.1z"/>
		<path class="st0" d="M80.5,47.9c-0.4,0.5-0.1,1.1,0,1.6c0.1,0.5,0.1,1-0.5,1.2c-0.5,0.2-0.9,0.1-1.3-0.3c-0.7-0.6-1-1.5-0.8-2.2
			c0.2-0.6,0.9-1.3,1.7-1.5C80.4,46.6,80.5,47.2,80.5,47.9z"/>
	</g>
	<path class="st2" d="M126.6,84.2c0.2-2.4-0.2-4.7-0.9-7c-0.2-0.6-0.6-1.5,0.8-0.9c0.5,0.2,0.5-0.2,0.6-0.5c0.5-2,0.7-4,0-6
		c-0.4-1.1-1-1.7-2.3-1.7c0.3,1.5,0.8,2.9,0.8,4.4c0,0.3,0.2,0.8-0.3,0.9c-0.4,0.1-0.4-0.4-0.6-0.6c-0.6-0.8-0.6-1.8-0.9-2.8
		c-0.1-0.4-0.2-0.9-0.6-1c-0.5-0.1-0.6,0.4-0.8,0.7c-0.3,0.4-0.5,0.9-1,1.2c-1.4,0.9-1.4,2.3-0.1,3.1c0.7,0.4,0.9,0.9,1.1,1.6
		c0.7,2.2,1.6,4.3,2,6.6c0.1,0.5,0.2,1,0.1,1.5c0,0.3,0.2,0.8-0.2,0.9c-0.4,0.1-0.7-0.4-0.9-0.7c-0.9-1.6-1.8-3.3-2.7-4.9
		c-0.7-1.3-1.4-2.7-1.3-4.3c0-0.4,0-1-0.5-1.1c-0.4-0.1-0.7,0.3-0.9,0.6c-0.1,0.1-0.3,0.2-0.5,0.4c-0.3-0.3-0.3-0.7-0.1-1
		c1-2.8,1.8-5.6,3.4-8.2c0.6-0.3,1,0.1,1.4,0.3c1,0.5,2.1,0.8,3.2,1.1c0.2,0.1,0.5,0.1,0.7-0.1c0.2-0.3-0.1-0.5-0.3-0.7
		c-0.9-0.8-1.9-1.2-2.9-1.8c-0.4-0.2-0.8-0.3-1-0.8c0-1.4,0.6-2.7,0.9-4c0.1-0.6,0.3-1.2-0.1-1.8c2.3-0.1,4.4-0.9,6.4-2.1
		c0.2-0.1,0.4-0.3,0.5-0.1c0.9,1,1.5,0.4,2.2-0.3c0.5-0.5,0.9-0.4,1.3,0.1c0.6,0.7,1.3,1.3,2,1.9c0.6,0.5,0.6,1.9-0.1,2.7
		c-0.4,0.5-0.9,1.1-1.4,1.7c1.4,0,2.1-1.1,3.2-1.5c1-0.3,2-0.7,2.9,0.3c0.4,0.4,0.9,0.6,1.7,1.1c-5.6,1.2-7.1,5.7-8.7,10.1
		c2.2-1.5,3.3-3.9,5-5.9c0.5-0.6,1-1.2,1.5-1.9c0.7-1,1.7-0.9,2.7-0.9c0.4,0,0.4,0.3,0.4,0.6c0,2.1,0.1,4.1-0.3,6.2
		c-0.1,0.8-0.9,1.2-1.1,1.9c-0.4,1-1.1,1.9-1.7,2.8c-0.8,1.1-1.8,1.9-3.4,1.3c0.1,1.5-0.3,2.1-2,2.8c-2.6,1-3.5-1.4-4.9-2.6
		c-0.7,1.4,0.2,2.2,1.5,3.3C129.5,81.2,128.2,82.8,126.6,84.2z"/>
	<path class="st2" d="M175.3,277.5c1.1,0.6,2.1,0.2,3.1,0.5c1.6,0.5,3.3,0.8,5,1.2c0.8,0.2,1.1,0.7,1.1,1.5
		c-0.1,1.9-0.3,3.9-0.9,5.7c-0.4,1.2-1.3,1.5-2.5,1.4c-2.8-0.3-5.5-0.7-8.3-1.1c-1.5-0.2-3.1-0.5-4.6-0.8c-0.4-0.1-1.1-0.1-1-0.7
		c0.1-0.7,0.7-0.5,1.2-0.5c3.1,0.3,6.2,0.6,9.3,1.1c4.4,0.6,3.9,0.7,4.7-3.6c0.4-1.9,0.2-1.9-1.8-2.4c-1.7-0.4-3.3-0.7-5.1-0.7
		c-0.4,0-0.8-0.1-1.2-0.2c-0.6-0.2-1.3-0.3-1.5-0.9c-0.2-0.7,0.3-1.3,0.8-1.6c0.8-0.7,1.6-1.1,2.7-0.9c1.2,0.2,2.4,0.4,3.5,0.6
		c0.3,0,0.7,0,0.7,0.4c0,0.5-0.4,0.7-0.8,0.7c-0.6,0.1-1.3,0-1.9-0.1C177,277.1,176.1,276.8,175.3,277.5z"/>
	<path class="st2" d="M186.8,259.2c-0.3,2.9-0.9,5.7-0.7,8.7c0,0.8,0,1.5,0,2.3c0,0.6-0.1,1.2-0.8,1.4c-0.6,0.1-1-0.4-1.3-0.9
		c-0.7-1-0.8-2.3-0.7-3.5c0.2-3,0.7-5.9,1.2-8.9c0.1-0.5,0.1-1.2,0.9-1.1c0.7,0.1,1.4,0.3,1.4,1.3
		C186.8,258.7,186.8,259,186.8,259.2z"/>
	<path class="st2" d="M170,277.4c0-0.3,0-0.6,0-0.9c0.1-0.4,0.1-1,0.7-1c0.6,0,1.2,0.1,1.4,0.9c0.1,0.5,0.1,1.1,0.1,1.7
		c0,0.6-0.2,1.3-0.9,1.3c-0.7,0-1.4-0.3-1.3-1.3C170,277.8,170,277.6,170,277.4C170,277.4,170,277.4,170,277.4z"/>
	<path class="st2" d="M121.1,89.2c0-1.1,0-2.3,0-3.7c1,1,2.1,1.2,3.4,0.8C123.6,87.6,122.5,88.5,121.1,89.2z"/>
	<path class="st2" d="M182,174.4c2.1-1.9-2.8-2.3-2.7-2.1c-1.2-1.1,0.9-1.6-1.2-3.4c-1.3-1.1-3.1-0.6-4.6-2.5
		c-0.7-1-0.2-1.8-0.6-2.4c-0.8-1.1-1,0.3-1.5,0c-0.4-0.3-0.9-2.1-1.2-2.6c-0.3-0.4-2.2-2.1-2.7-2.7c-3.9-4.8-7.9-9.3-12.4-13.6
		c-2.9-2.8-6.1-5.8-9.3-8.2c-0.8-0.6-2.8-1.5-3.9-2.3c-1-0.8-2-1.6-3-2.4c-0.5-0.5,0.8-0.8,0.2-1.3c-0.1-0.1-2.2-0.4-3-0.8
		c-0.5-0.3-2.6-1.7-2.1-2.5c-1,0.3-3.3-3.1-4.4-3.9c-1.1-0.9-5.7-5.4-6.7-5c-0.7,0.2,0,9.6,0,10.4c-0.1,1.8,1.4,6.1,0,6.8
		c1,0.2,0.3,1.3,0.3,1.4c0.9-0.1,0.8,2.6,0.9,3c-0.2-0.4-0.5-0.7-0.8-1c0.3,2.6,1,4.8,0.9,7.7c-0.2,4.3-0.8,8.6-1.3,12.9
		c-0.2,1.6-0.1,6.4-2.1,7.1c-1.4,0.5-4.4-2.7-6.1-2.5c0.1-1.1,2.7-2.3,3.2-4c0.8-2.8,0.4-6.2,0.5-9.1c0.3-6.5,0.8-12.9,1.5-19.3
		c0.5-4.5,2.5-14.9-0.1-18.9c-1.6-2.4-2.1-1-4.2,0.2c-1.8,1-0.1,1.2-2.3,1.3c-1.4,0-3.4-1-4.6-1.5c1.7-3.5,2.9-3.4,2.9-3.4
		s1,0.1,1.3-0.2c-0.3-0.8-0.6-2.2,1.9-2.5c1.6-0.5,4.1,0.3,5.6,0.6c7.7,1.8,15.4,6.5,22.3,10.3c7.1,4,14.8,8.3,21,13.6
		c5.9,5,11.8,8.8,18.1,13.4c3,2.2,10.2,6.1,10.2,6.1s3.6,0.9,8.6,8.4c2.6,3.2,5.7,6.9,7.5,9.6c1.6,2.1,2.5,3.5,3.6,6
		c0.8,1.7,3.1,3.5,3.4,5.3c0.4,3-3.8,9.7-3.8,9.7c-1.6,3.8-3.4,7.8-5.9,11.1c-4.4,6-9,12.7-13.3,18.8c-3.9,5.5-7.1,10.6-11.3,15.9
		c-2.1,2.7-4.8,5.8-7.3,8.2c-1.4,1.4-4,5.2-6.4,4.8c-1.7-0.3-3.5-3.1-4.8-4.1c-3.4-2.9-5.6-6.9-8-10.6c3.2-0.4,5.6-12.1,9.4-8.6
		c0.1-1.1-0.4-2.2,0.1-3.2c0.2-0.3,1.6-0.9,2-1.6c0.1-0.2-0.7-0.9-0.5-1.4c0.1-0.3,0.8-0.7,0.9-0.9c0.2-0.8,0.5-0.5,0.8-0.9
		c2-3,3.7-7.5,6.3-10.7c0.8-1,1.5-2.1,2.6-2.7c0.7-0.4,2.3-0.3,2.8-0.6c0,0,1.3-2.2,1.3-2.2c-0.1-0.1-0.9,0.8-1.1,0
		c-0.2-0.7,2.1-0.9,2.3-1c-4-3.3,5.3-11.8,4.2-16.2c1-1.4,7.7-0.7,9.6-0.8c2.6-0.1,7.1-0.9,9.6,0.1c-2.1-3.3-7.8-3.1-11.2-3.1
		c-1.3,0-5.4,0.7-6.5,0.3c-1.2-0.4-0.2-0.6-1-1.5c-2.8-3.2-0.1-3,3.3-2.9c4,0.1,8.3,0.7,12.3-0.3c-1.9-2.5-7.8-2.4-10.7-2.5
		C188.5,173.5,183.9,175.2,182,174.4z"/>
	<path class="st2" d="M126.2,210.4c0.4,0,0.5-0.2,0.6-0.6c0.2-2.3,1-4.5,1.5-6.8c0.2-0.6,0-1.5,0.9-1.8c0.1,0,0.1-0.3,0.1-0.4
		c-0.2-3,0.7-5.8,0.9-8.7c0.1-1.3,0.3-2.6,0.2-3.9c-0.1-1.8,0.5-3.5,0.8-5.2c0.7-4.7,1.4-9.4,1.9-14.1c0.3-2.8,0.6-5.6,0.8-8.4
		c0.1-1.1,0.9-2,1.3-3.2c0.1-0.4,0.7-0.1,1.1-0.2c0.4,0.1,0.7,0.4,1.1,0.7c2.9,2.7,5.4,5.7,8,8.7c0.7,0.9,1.6,1.7,2.7,2.1
		c0.6,0.2,0.7,0.9,0.6,1.3c-1,3.5-0.7,7.2-1.5,10.8c-0.4,1.7-0.8,3.4-1.3,5.1c-0.7,2.3-0.9,4.7-1.4,7.1c-0.5,2.6-1.1,5.2-1.9,7.7
		c-0.1,0.2-0.2,0.4-0.1,0.6c0.9,1.8,0.4,3.3-0.7,4.9c-0.4,0.5-0.4,1.3,0,2c1,1.9,1.2,4.1,2.9,5.7c0.3,0.3,0.1,0.6-0.2,0.8
		c-1.2,1.3-2.3,2.6-3.5,3.9c-0.5,0.5-1,1-1.5,1.6c-1.1,1.3-1.1,1.3-2.4,0.2c0,0-0.1,0-0.1-0.1C133.7,216.7,129.8,213.8,126.2,210.4z
		"/>
	<path class="st2" d="M119,294.6c0.3-0.9,0.6-2.1,1.2-2.9c0.5-0.6,0.4-0.8-0.4-0.9c-0.4,0-0.4-0.1-0.2-0.4c0.1-0.1,0.2-0.2,0.1-0.4
		c-0.6-0.7-0.6-0.7,0.2-1.2c0.3-0.2,0.7-0.3,0.8-0.7c-0.9-0.4-0.9-0.4-1.2,0.3c-0.5-0.9-0.1-2.2-1.1-3c-0.1-0.1-0.1-0.4-0.2-0.7
		c-0.1-0.7,0-1.3-0.5-2c-0.4-0.5-0.6-1.3-0.6-2c0-0.3,0-0.3-0.3-0.5c-0.1-0.1-0.2-0.2-0.2-0.3c-0.2-1.8-1.4-3.3-1.8-5
		c0-0.2,0-0.4-0.1-0.6c-0.2-0.4,0-0.7,0.3-0.9c0.4-0.2,0.6,0.2,0.7,0.5c0.5,1,1,0.5,1.5,0.1c0.7-0.5-0.5-0.2-0.2-0.6
		c0.1-0.2,0.8-0.2,0.3-0.5c-0.5-0.2-1.2-0.7-1.7-0.3c-0.2,0.2-0.3,0.3-0.6,0.3c-0.7,0-1.2-0.4-1.4-1.1c-0.1-0.5-0.6-0.5-0.9-0.6
		c-2.7-0.7-5.4-0.7-8.2-0.6c-1.2,0-2.1-0.5-3-1.2c-0.3-0.3-1-0.1-1-0.8c4.3,0.2,8.7-0.2,13-0.6c4.5-0.4,9-1.4,13.3-3
		c1.1-0.4,0.8,0.4,0.8,0.9c0,1.9,0.5,3.5,1.4,5.1c1.7,3.1,4.5,4.5,7.7,5.3c2,0.5,4,1.1,6.1,1c0.5,0,0.6,0.2,0.8,0.7
		c0.5,2.3,0.6,3.6,0.9,5.8c0.2,1,0.5,3.5,0.6,4.5c0.4,2.1-0.4,3.1-2.4,3.8c-1.8,0.7-3.9,0.9-5.8,1.2
		C130.9,294.3,124.8,294.7,119,294.6z"/>
	<path class="st2" d="M58.1,218.8c-2.8-0.4-4.9-2.1-6.8-4.1c-3.1-3.4-6.2-6.8-8.8-10.6c-2.3-3.4-4.3-6.9-5.8-10.7
		c-0.8-2-1.9-3.8-2.4-5.8c2.3-1.1,4.7-1.8,7.2-2.4c1.3-0.3,2.7-0.5,4-0.6c1.8-0.1,2.6,0.4,3.5,1.9c1.8,3.4,3.8,6.7,6.3,9.6
		c1.1,1.4,2.5,2.6,3.8,3.8c0.3,0.2,0.5,0.5,0.3,0.7c-0.8,1-0.5,2.3-0.6,3.4c-0.4,3.3-0.3,6.6-0.2,10
		C58.8,215.6,58.8,217.3,58.1,218.8z"/>
	<path class="st2" d="M33.9,174.4c0-0.2-0.2-0.4-0.1-0.6c1.3-2.2,2.5-4.4,4.4-6.2c2.2-2.2,3.9-4.8,6.2-6.9c1.1-1.1,2-2.5,3.8-3
		c0.3-0.1,0.6-0.5,0.8-1c0.3-0.6,0.5-1.7,1.7-1c0.3,0.2,0.6-0.1,0.6-0.2c-0.1-0.8,1.3-0.8,0.9-1.8c-0.1-0.4,1.3-0.9,1.8-0.7
		c0.1,0,0.4,0,0.4-0.1c0.5-0.8,1.4-1.2,1.8-2.1c0.2-0.6,0.8-1,1.3-1.3c2.2-1.2,4-2.9,5.7-4.7c0.6-0.6,1.2-1.2,1.9-1.7
		c0.2-0.2,0.4-0.2,0.5,0c0.4,0.5,1.1,0.4,1.6,0.6c-1,3.7-1.8,7.5-3.1,11.2c-0.3,1-0.3,2.2-0.7,3.2c-1.3,3.5-3.9,6-6.2,8.6
		c-2.2,2.4-4.4,4.9-5.7,7.9c-0.5,1.1-1.5,1.6-2.2,2.5c-0.1,0.2-0.2,0.4-0.3,0.5c-0.8,0.3-0.3,2-1.4,1.6c-0.7-0.2-1.5-0.6-2.2-1.1
		c-1.4-1-2.7-2.3-4.6-2.4c-0.5,0-1.2-0.8-1.9-1.1c-1.4-0.5-2.8-0.7-4.2-0.2C34.3,174.5,34.1,174.4,33.9,174.4z"/>
	<path class="st2" d="M141.4,12.6c-0.2,0.4-0.3,0.5-0.4,0.6c-1.5,1.9-1.4,1.9,0.4,3.3c1.1,0.9,1.7,2.2,2.2,3.5
		c1.4,3.8,1.3,7.8,1,11.8c-0.1,2.2-0.1,4.4,0,6.6c0,0.9,0.7,1.9,0.2,2.8c-0.6,1.2-1,2.4-1.2,3.7c-0.3,2-0.9,4-1.2,6.1
		c-0.3,1.4-0.5,2.9-1,4.3c-0.2,0.4-0.4,0.9-0.2,1.4c0.1,0.4,0.4,0.8,0,1.1c-0.4,0.2-0.9,0.2-1.4-0.1c-2-1.1-2.3-2.3-1.3-4.5
		c0.5-0.9,0.9-1.9,1.2-2.9c0.7-2.5,0.4-5.1,0.3-7.7c0-1.6,0.1-3.3,0.2-4.9c0-0.8,0.1-1.5,0-2.2c-0.1-0.5-0.2-1.2,0-1.7
		c0.8-2.3,0.1-4.4-1-6.4c-0.5-0.9-1-1.8-1.1-2.9c-0.1-0.6-0.5-1-1-1.3c-1.1-0.8-2.2-1.6-3.3-2.4c-0.7-0.5-1.2-1.1-0.5-2
		c0.2-0.3,0.4-0.7,0.1-1.1c-0.3-0.3-0.7-0.4-1.1-0.2c-0.5,0.2-0.9,0.3-1.4,0.2c-1.3-0.1-2.1,0.4-2.5,1.6c-0.2,0.7-0.5,0.4-0.7,0.1
		c-0.7-0.7-0.9-2.1-0.4-3.2c0.7-1.6,0.7-1.6-1-1.9c-0.8-0.1-1.5-0.5-2.3-0.1c-0.2,0.1-0.4,0-0.5-0.2c-0.4-1.1-1.6-0.9-2.4-1.4
		c-0.3-0.2-1.1,1.1-0.8,1.7c0.5,1-0.1,1.3-0.8,1.6c-0.5,0.2-1.1,0.4-1.6-0.1c-0.5-0.4-0.5-1-0.2-1.5c0.2-0.3,0.3-0.7,0.4-1
		c0.2-0.6-0.1-0.9-0.6-0.7c-0.9,0.3-1.8-0.1-2.7,0c-1.2,0.1-1.5,0.4-1.2,1.5c0.1,0.3,0,0.5-0.2,0.6c-0.3,0.2-0.5,0.5-0.8,0.7
		c-0.5,0.3-1.2,1-1.7,0.4c-0.4-0.5-0.3-1.5,0.1-2.1c0.3-0.4,0.7-0.7,0.3-1.1c-0.4-0.4-0.8,0.1-1.1,0.3c-0.3,0.1-0.5,0.4-0.8,0.4
		c-0.7,0.1-1.6-0.1-1,1.2c0.1,0.3-0.2,0.5-0.5,0.6c-1.1,0.6-2.1,1.3-3.2,1.8c-0.7,0.4-1.1,0.2-1-0.8c0.1-1.6,1-2.7,1.9-3.9
		c0.2-0.2,0.5-0.5,0.3-0.8c-0.3-0.3-0.6,0-0.9,0.1c-0.8,0.2-1.6,0.5-2.6,0.3c-0.4-0.1-1.4-0.4-0.8,0.8c0.2,0.4,0.1,0.9-0.5,1.2
		c-1.4,0.8-2.8,1.6-4.3,2.5c-0.2,0.1-0.5,0.4-0.7,0.1c-0.3-0.3,0-0.5,0.2-0.7c0.7-1,1.2-2.3,2.2-3.1c0.2-0.2,0.6-0.4,0.4-0.8
		c-0.2-0.3-0.5-0.1-0.8,0c-0.9,0.3-1.9,0.3-2.8,0.4c-0.5,0.1-0.7,0.2-0.4,0.7c0.3,0.6,0.1,1-0.4,1.3c-1.3,0.8-2.5,1.7-4,2.7
		c0.4-2,2.2-2.9,2.3-4.7c-1.2,0.1-2.3,0.6-3.6,0.4c-0.4,0-0.3,0.3-0.4,0.5c-0.4,0.9-0.9,1.8-0.9,2.8c0,0.4-0.1,0.5-0.6,0.5
		c-0.7-0.1-1.3-0.2-2-0.3c-0.4,0-0.5-0.2-0.3-0.6c0.3-0.8,0.5-1.7,1.5-2.2c4.1-2.3,8.6-3.2,13.2-3.9c4-0.7,7.9-0.3,11.9-0.1
		c3.8,0.2,7.5,0.7,11.2,1.1c2.1,0.2,4.1,0.7,6.2,1c2.3,0.3,4.3,1.4,6.4,2.4c1,0.5,1.8,0.7,2.3-0.5c0.1-0.3,0.3-0.4,0.6-0.3
		C139.9,13.4,139.9,13.3,141.4,12.6z"/>
	<path class="st2" d="M138.4,107c1.4-0.4,2.7-0.3,4-0.3c3.2,0,6.4-0.5,9.7-0.8c2.7-0.2,5.5-0.2,8.2,0c0.7,0.1,1.3,0.6,1.8,1.1
		c1.7,1.8,3.5,3.6,5,5.6c1,1.4,1.5,3.3,2,5.1c0.9,3.3,0.1,6.5-0.3,9.7c0,0.3-0.2,0.7-0.3,1c-0.1,0.4-0.3,0.5-0.7,0.2
		c-3.8-2.6-7.7-4.9-11.7-7.2c-1.8-1.1-3.4-2.3-5.2-3.4c-2.5-1.6-5-3-7.7-4.2c-0.6-0.3-1.1-0.7-1.6-1c-1.2-0.7-2.6-1.2-3.8-2
		c1.5-0.1,2.9,0.3,4.2,0.7c2.6,0.7,5.1,1.6,7.7,2.1c3.9,0.7,7.7,0.2,11.4-1.1c1.1-0.4,2.2-0.6,3-1.6c-1.2,0.3-2.4,0.5-3.6,0.8
		c-4.1,0.9-8,0.4-11.8-1.4c-2.9-1.3-5.9-1.7-8.9-2.5C139.3,107.6,138.8,107.5,138.4,107z"/>
	<path class="st2" d="M124.6,39.5c0.2-1.9-0.2-3.8-0.2-5.7c0.1-3.6,0.1-7.3,0.2-10.9c0-1-0.1-1.9-0.2-2.9c1.6,1.1,3.3,1.3,5.1,0.7
		c0.4-0.1,0.6,0,0.8,0.2c1.4,1,2.8,2.1,4.5,2.7c0.4,0.1,0.6,0.4,0.7,0.8c0.5,2,1.8,3.6,2.3,5.6c0.1,0.3,0.3,0.7,0.2,1
		c-0.5,2.8,0.1,5.6-0.1,8.5c-0.2,2.5,0.1,5.1,0.1,7.6c0,1.4-0.2,2.8-0.8,4.2c-0.5,1-0.8,2.1-1.2,3.3c-0.6-0.5-1-0.9-1.5-1.3
		c-0.5-0.4-0.6-0.9-0.5-1.6c0.4-1.9,0.4-3.9,0-5.8c-0.5-2.7-1.9-4.4-4.7-5.1C127.7,40.3,126.2,39.8,124.6,39.5z"/>
	<path class="st2" d="M140.9,256.9c0.4-1.2,1.3-1.9,2.3-2.6c1.7-1.2,3-2.8,4.2-4.5c0.2-0.2,0.3-0.5,0.5-0.6c1.2-0.7,1.8-1.8,2.2-3.1
		c0.5-1.6,1.4-2.9,2-4.5c2.1,3.6,5.6,5.8,8.8,8.3c0.7,0.6,0.6,0.8,0.1,1.4c-1.2,1.7-3.2,2.3-4.8,3.4c-2.5,1.8-5.5,1.7-8.3,2.1
		c-0.3,0.1-0.5,0-0.6,0.5c0,0.6,0.6-0.1,0.9,0c4.2,0.2,6.1,0,9.6-1.3c-0.1,0.8-0.5,1.3-0.9,1.5c-4.1,2.8-8.6,4.3-13.7,3.2
		c-1.5-0.3-2.1-1.2-2.2-3C141,257.6,140.9,257.3,140.9,256.9z"/>
	<path class="st2" d="M88.6,122.8c-1.6,6-3.1,12.1-4.8,18.1c-1.2,4.3-2,8.7-2.9,13.1c-0.5,2.4-1.1,4.7-1.4,7.1
		c-0.2,1-0.9,1.6-1.5,2.2c-0.3,0.3-1.1-0.1-1.5-0.4c-0.4-0.2-0.6-0.2-1-0.2c0.7-1.3,0.9-2.7,1.2-4.2c0.4-2.1,0.8-4.1,1.3-6.2
		c1.2-5,2.5-10,3.8-15c0.8-3.1,1.9-6.1,2.6-9.1c1.1-5.1,3.1-10,3.3-15.4c0-0.1,0.1-0.2,0.3-0.6c0.4,1.9,0.2,3.7,0.2,5.3
		C88.3,119.3,88.8,121,88.6,122.8z"/>
	<path class="st2" d="M136.8,259.2c1.6,2.4,3.7,3.8,6.5,4.1c0.6,0.1,0.6,0.3,0.5,0.8c-0.4,2.2-0.8,4.4-1.3,6.5
		c-0.2,1.2-0.1,2.4,0.1,3.6c0.1,0.4,0.1,0.9-0.6,0.7c-1.9-0.5-3.9-0.7-5.8-1.4c-1.9-0.7-2.6-2.3-3.5-3.7c-1-1.5-1.4-3.2-1.7-5
		c-0.1-0.6-0.4-1.3,0.6-1.6C133.9,262.6,135.5,261.2,136.8,259.2z"/>
	<path class="st2" d="M94.7,101.9c0-1.6-0.2-3.1-0.7-4.6c-0.1-0.2-0.1-0.4,0.1-0.5c0.2-0.1,0.4,0.1,0.5,0.2c1.2,1.8,3.7,2.2,5.5,1
		c0.2-0.1,0.4-0.2,0.5-0.3c0.5-1.3,1.1-0.7,1.8-0.1c0.9,0.8,1.8,0.6,2.7,0c1.2-0.7,1.4-0.6,1.4,0.8c-0.2,2.8,0.4,5.6,0.5,8.5
		c0,0.8-0.2,1.7,0.2,2.5c0.3,0.7-0.4,1-1,1.2c-1.7,0.7-3.5,0.9-5.2,1.1c-1-1.6-1-3.4-1-5.2c0-1.8-0.6-2.7-2.2-3.2
		C96.6,103,95.5,102.7,94.7,101.9z"/>
	<path class="st2" d="M90.4,53.2c0.6,0,0.7-0.5,0.9-0.9c0.6-1.1,1.2-1.2,2.4-0.8c1.4,0.5,2.6,1.3,4.2,1.3c1,0,1.1,1.3,1.3,2.1
		c0.4,2.1-0.7,3.6-2,5c-0.3,0.3-0.8,0.5-1.2,0.2c-1.2-0.8-2.7-1-4-1.6c-1.1-0.5-1.9-1.3-1.9-2.6c0-0.7,0-1.4,0-2.2
		C90.2,53.6,90.3,53.4,90.4,53.2z"/>
	<path class="st2" d="M33.2,185.2c-0.3-1.1-0.7-2.2-0.9-3.3c-0.3-1.2-0.6-2.4,0.4-3.6c-0.5-0.1-1-0.1-1.4-0.1c2.7-0.2,5.4-0.2,8,0.7
		c1.8,0.6,3.7,1.2,5.5,1.7c0.4,0.1,0.7,0.2,1,0.7c-0.6,0.1-1.2,0.2-1.6-0.1c-1-0.6-2-0.4-2.9-0.2c-2.7,0.7-5,2.2-7.3,3.7
		C33.7,184.9,33.4,185,33.2,185.2z"/>
	<path class="st2" d="M128.5,229.8c-1.1-1.7-2.1-3.5-1.9-5.7c0.1-1.4-0.3-2.7-0.4-4c1,0.3,1.3,1.3,2.1,1.8c2.1,1.3,4.1,2.7,6.2,4
		c0.3,0.2,0.5,0.3,0.8,0.8C132.8,227.5,131.2,229.7,128.5,229.8z"/>
	<path class="st2" d="M114.4,81c1-0.6,1.5-1.7,2.1-2.6c1,0.6,1.2,1.5,1.3,2.5c0.2,1.6,0.6,3.3,1,4.9c0.3,1.3,0.2,2.5,0.1,3.8
		c0,0.5-0.2,1.1-0.7,1.3c-0.6,0.2-1-0.3-1.3-0.6c-0.3-0.3-0.6-0.7-0.7-1.1C115.8,86.4,114.8,83.7,114.4,81z"/>
	<path class="st2" d="M108.1,87.2c0.9-0.8,1.4-1.9,2.5-2.4c0.1,1.9,0.9,3.5,2.1,5c1.3,1.6,1.2,4.1-0.2,5.1c-0.4,0.3-0.6,0.3-1-0.1
		c-0.6-0.6-0.9-1.4-1.3-2.1C109.4,90.9,108.4,89.2,108.1,87.2z"/>
	<path class="st2" d="M127.5,259.3c0-0.9,0.1-1.8,0-2.7c-0.2-2.5,0.1-3.1,2.3-4.2c0.7-0.4,0.5-1,0.6-1.5c0.1,0.2,0.2,0.4,0.2,0.6
		c-0.1,2.4,1.5,4.9,4.2,5.3c0.1,0,0.3,0.1,0.4,0.2c-0.2,0.5-0.7,0.5-1,0.6c-1.9,0.3-3.8,0.9-5.6,1.6
		C128.3,259.3,127.9,259.3,127.5,259.3z"/>
	<path class="st2" d="M101.6,120.9c-0.5-0.1-0.9-0.2-1.4-0.4c-1.3-0.5-1.5-0.9-1.3-2.2c0.1-0.4,0.2-0.8-0.3-1
		c2.9-0.4,5.4-1.8,7.5-3.8c0.2,0,0.2,0,0.2,0.2C105.2,116.3,103.1,118.4,101.6,120.9z"/>
	<path class="st2" d="M55.5,241.7c0.1-0.9-0.3-1.4-1.2-1.6c-0.9-0.2-1.4-0.7-1.6-1.8c-0.1-1.1-0.4-2.1-0.5-3.2
		c0.8-0.8,1.6-1.5,2.4-2.2c0.3-0.3,0.7-0.6,1.1-0.4c0.3,0.2,0.1,0.6,0,0.9c-0.3,2.5,0,4.9-0.1,7.4C55.7,241.1,55.8,241.4,55.5,241.7
		z"/>
	<path class="st2" d="M125.1,213.7c2.7,1.8,4.9,4.1,7.3,6.2c1.2,1,2.6,1.9,3.9,2.7c0.5,0.3,0.8,0.9,1.4,1c0.3,0.1,0.2,0.4,0.1,0.6
		c-0.2,0.3-0.5,0.6-0.7,0.7c-4.7-3-8.4-6.9-12.3-10.6C124.9,214,124.9,213.8,125.1,213.7z"/>
	<path class="st2" d="M109.8,107.9c-0.1-1.2-0.2-1.9,1-1.2c0.5,0.3,1.1-0.2,1.6,0c0.2,0.1,0.4,0,0.4,0.3c0,0.1-0.2,0.3-0.3,0.3
		c-0.8,0.1-1.2,0.8-1.8,1.1c-0.7,0.4-1,0.4-0.9-0.5C109.8,107.9,109.7,107.7,109.8,107.9z"/>
	<path class="st2" d="M98.2,114.6c1.5-0.2,2.8-0.4,4.2-0.5C101.7,115,99.6,115.3,98.2,114.6z"/>
	<path class="st2" d="M66.2,69.4c-0.1,0.9-0.1,1.7-0.9,2.4C65.1,70.8,65.5,70.1,66.2,69.4z"/>
	<path class="st2" d="M78.2,64.2c0.1,0.1,0.3,0.2,0.4,0.3c-0.2,0.4-0.3,0.7-0.5,1.1c-0.1,0.2-0.3,0.4-0.6,0.4
		c-0.1,0-0.3-0.1-0.3-0.3c-0.1-0.3,0.1-0.4,0.3-0.6C77.7,64.8,78.2,64.7,78.2,64.2z"/>
	<path class="st2" d="M106.1,113.4c0.1-0.3,0.2-0.5,0.6-0.5c0.1,0.4-0.1,0.6-0.4,0.7C106.3,113.5,106.2,113.5,106.1,113.4z"/>
	<path class="st2" d="M75.5,162.7c-0.1,0.1-0.2,0.2-0.2,0.2C75.2,162.8,75.3,162.6,75.5,162.7z"/>
	<path class="st2" d="M100.6,111.9c0-0.1,0.1-0.2,0.3-0.2C100.9,111.9,100.7,112,100.6,111.9z"/>
	<path class="st2" d="M78.3,63.5c0,0.1,0,0.2-0.2,0.3C78.2,63.7,78.3,63.6,78.3,63.5z"/>
	<path class="st2" d="M185.3,272.9c-0.3-0.1-0.7-0.2-0.9-0.1c-0.9,0.4-1-0.2-1.2-0.8c-0.7-2.1-0.5-4.3-0.6-6.5
		c-0.1-1.2-0.8-1.4-1.7-1.6c-0.9-0.1-1.1,0.6-1.4,1.2c-0.3,0.7-0.2,1.4-0.8,2.2c-0.3-1.5-0.4-2.9-2.1-3c-1.1-0.1-1.1,0.9-1.6,1.6
		c-0.1-0.3-0.2-0.5-0.3-0.7c-0.2-0.6-0.5-0.9-1.1-0.9c-0.6,0-0.7,0.5-0.8,1c-0.1,0.4-0.2,0.9-0.2,1.3c-0.2,1.8-0.5,3.6-1.6,5.4
		c-0.6-1.5-0.3-2.9-0.4-4.2c-0.1-1.3-0.5-1.7-1.8-1.4c-0.6,0.2-0.7-0.2-1-0.4c-2.1-1.3-3.9-1.2-4.7,1.5c-0.2,0.6-0.3,1.3-0.5,2
		c-0.2-0.2-0.4-0.3-0.6-0.4c-1-0.3-0.8-0.7-0.2-1.3c0.4-0.5,0.8-1,1.1-1.6c0.5-1,0.3-2.1-0.4-2.6c-1.9-1.3-5.9-0.6-7.3,1.3
		c-0.4,0.6-1,1.3,0.2,1.8c0.3,0.1,0.3,0.5,0.3,0.8c0.3,2.8,0.6,5.5,0.9,8.3c0.1,0.6,0.3,0.9,0.8,1.1c1.1,0.5,2,0.3,3-0.4
		c1.6-1.1,2.2-2.6,2.5-4.4c2.5,2,3.6,1.8,5.6-0.7c0.4,1.5,1.4,2.4,2.9,2.3c1.6-0.1,1.8-1.8,2.7-2.7c0.2,0.8-0.2,1.5-0.2,2.2
		c0,0.8,0.5,1,1.1,1.2c0.6,0.2,0.9-0.3,1-0.7c0.3-0.8,0.4-1.7,0.7-2.6c1.1,2.3,2.4,2.6,3.8,0.6c0.1,0.4,0.2,0.8,0.4,1.1
		c0.4,0.9,1.3,1.6,2.2,1.3c0.7-0.2,1.3-0.2,1.9,0c0.7,0.2,1.2-0.2,1.3-0.7C186.4,273,185.7,273,185.3,272.9z M159.5,274.4
		c-0.1,0.2-0.3,0.5-0.5,0.3c-0.1-0.1-0.2-0.3-0.2-0.5c-0.1-0.7-0.1-1.5-0.3-2.2c-0.2-1,0.2-1.5,1.1-1.6c1.1,0,0.5,0.9,0.7,1.3
		C160.5,272.8,160.1,273.6,159.5,274.4z M160.6,265.7c-0.5,1-1.3,1.6-2.1,2.2c-0.2,0.2-0.5,0.4-0.7-0.1c-0.7-1.6,0.3-3.2,2.1-3.2
		C160.8,264.6,160.9,265,160.6,265.7z M166,271.2c-0.2,0.3-0.4,0.8-0.9,0.7c-0.4-0.1-0.4-0.6-0.4-1c0-0.2,0-0.5,0-0.7
		c0-1,0.2-1.9,0.7-2.7c0.2-0.4,0.5-0.6,0.7-0.1C166.7,268.6,166.6,270,166,271.2z"/>
	<path class="st2" d="M180.8,281.5c-0.4-1-1.5-1-2.5-1c-2.8,0-5.6-0.3-8.4-0.7c-0.9-0.1-1.5-0.4-1.4-1.5c0.1-0.9-0.2-1.7-0.2-2.6
		c0-0.8-0.4-1.2-1.1-1.2c-0.8,0-0.8,0.6-0.8,1.2c0,2-0.4,4-0.1,6c0.2,1.2,0.6,1.8,1.7,2c2,0.3,4,0.6,6,1c1.6,0.3,3.3,0.7,4.9,1
		c0.4,0,0.9,0,1.1-0.4C180.7,284,181.3,282.8,180.8,281.5z M178.6,282.9c-0.1,0.6-0.3,1-1,0.8c-2.8-0.6-5.5-1.1-8.3-1.4
		c-0.6-0.1-0.6-0.4-0.7-0.8c0-0.4,0.3-0.3,0.7-0.3c0.9,0.1,1.9,0.4,2.9,0.5c1.9,0.3,3.7,0.5,5.6,0.4
		C178.3,282.2,178.7,282.2,178.6,282.9z"/>
	<path class="st2" d="M146,136.9c0,0.1,0.1,0.3-0.2,0.3c0,0,0-0.2-0.1-0.3C145.8,136.8,145.9,136.8,146,136.9L146,136.9z"/>
	<path class="st2" d="M182,174.4c0,0,0,0.1,0,0.1c0,0,0,0-0.1,0C181.9,174.5,182,174.4,182,174.4C182,174.4,182,174.4,182,174.4z"/>
	<path class="st2" d="M115.3,136.5c0.1-1.5,0-3,0.3-4.5c0.8-3.8,0.9-7.6,1.5-11.4c0.2-1.3,0.3-2.7,0.4-4.1c0.5,0.3,0.4,0.8,0.4,1.3
		c0.1,1.7,0.1,3.4,0.1,5.1c0,4,0,8.1-0.4,12.1c-0.4,4.6-0.4,9.1-1.1,13.7c-0.2,1.5-0.2,3.1-0.3,4.6c0,0.4-0.1,0.9-0.3,1.3
		c-0.9,0.1-1-0.6-0.9-1.1c0.1-3.1-0.1-6.2,0-9.4c0-1.7,0.2-3.3,0.8-4.9c0.2-0.6-0.5-0.6-0.4-1.1C115.5,137.6,115.8,137,115.3,136.5z
		"/>
</g>
<g id="Layer_2">
</g>
</svg>
