<?xml version="1.0" encoding="utf-8"?>
<!-- Generator: Adobe Illustrator 19.2.1, SVG Export Plug-In . SVG Version: 6.00 Build 0)  -->
<svg version="1.1" id="Layer_1" xmlns="http://www.w3.org/2000/svg" xmlns:xlink="http://www.w3.org/1999/xlink" x="0px" y="0px"
	 viewBox="0 0 226.5 233.5" style="enable-background:new 0 0 226.5 233.5;" xml:space="preserve">
<style type="text/css">
	.st0{fill:#3BC6F1;}
</style>
<g>
	<path class="st0" d="M117.4,103.2c0.3-1.1,0.9-2.2,1-3.3c0.2-2.1,0.1-4.2,0.2-6.3c0.1-1.2,0.3-2.3,0.4-3.5c0-0.3,0.1-0.5-0.1-1
		c-0.6,0.8-1.3,1.5-1.9,2.3c-0.6,0.9-1.3,1-2.2,0.6c-3-1.3-3-2.4-2.5-5.8c0.1-0.6,0.2-1.2,0.3-2.3c-1.7,1.7-3,2.2-5,1
		c-2-1.2-1.8-3-2.2-4.8c-0.4,0-0.8,0-1.2,0.1c-1.7,0.6-2.9-0.4-4-1.3c-0.4-0.4-0.6-1.3-0.4-2c0.3-1.8,0.8-3.5,1.3-5.5
		c-0.8,0.7-1.5,1.3-2.2,1.8c-0.9,0.6-1.7,1.5-2.9,0.7c-0.9-0.6-1.5-2-1.2-3.3c0.2-1.3,0.6-2.6,0.9-3.9c-0.9,0.1-3.5-1.2-3.6-2.2
		c-0.2-0.8,0-1.8,0.4-2.5c0.8-1.4,1.9-2.6,2.9-3.8c0.5-0.6,0.6-1,0.3-1.8c-1.1-2.8-1.2-5.4,1.7-7.6c-1.2-0.6-2.3-1.1-3.4-1.5
		c-2.8-1-4.1-3.8-3.1-6.6c0.4-1.2,0.7-2.5,1-3.7c0.2-1,0.2-2.1,1.5-2.4c0.2-0.1,0.4-0.5,0.6-0.7c0.5-0.6,0.9-1.4,1.5-1.6
		c1.8-0.7,3.7-1.3,5.6-1.6c1.3-0.2,1.7-0.4,2.2-1.7c1.1-3.5,2.7-6.7,4.9-9.6c0.2-0.2,0.3-0.4,0.6-0.8c-0.5-0.1-0.8-0.3-1.1-0.2
		c-1.2,0.2-1.2-0.6-0.9-1.3c1.3-3.1,3.2-5.7,6.2-7.3c3.6-1.9,7.2-3.9,11.1-5c2.3-0.6,4.8-1,7.2-1.1c2.8-0.1,5.7,0.2,8.5,0.5
		c2.7,0.3,5.4,0.9,8.1,1.1c1.9,0.1,3.4,1.2,5.1,1.9c3.3,1.4,6.7,2.1,10.1,2.9c2.3,0.5,4.6,1.4,6.8,2.1c0.3,0.1,0.6,0.3,0.8,0.3
		c1.1-1,2.1-2,3-2.9c0.8-0.8,1.6-1,2.6-0.5c1,0.5,1.7,1.8,1.5,2.9c-0.1,0.4-0.2,0.9-0.3,1.3c1.3,0,2.5-0.1,3.6,0.1
		c0.6,0.1,1.3,0.8,1.4,1.4c0.2,0.5-0.1,1.4-0.5,1.8c-0.5,0.5-1.2,0.9-1.9,1.2c-1.7,0.7-1.8,1.2-1.2,2.9c0.3,1,0.4,2.1,0.4,3.1
		c0,2.6-0.2,5.3-0.3,7.9c-0.3,5.5-0.6,11.1-1.1,16.6c-0.2,1.8-0.7,3.5-1.5,5.1c-0.9,1.9-0.1,3.7-0.2,5.5c-0.2,2.1-0.4,4.2-0.8,6.3
		c-0.3,1.7-0.8,3.3-1.5,4.9c-1.1,2.7-2.1,5.5-4.4,7.4c-1.4,1.2-3,1.8-4.8,1.8c-1.6,0-2.4-1.3-3.4-2.4c-0.2-0.3-0.4-0.6-0.7-0.9
		c-0.6,0.7-1,1.6-1.7,1.9c-0.6,0.3-1.5-0.1-2.2-0.1c-0.3,1.3-0.7,2.9-1.1,4.5c-0.1,0.3-0.2,0.5-0.3,0.8c-0.4,0.9-0.9,2-2,1.9
		c-1.3,0-2-1-2.5-2.1c-0.1-0.3-0.2-0.5-0.4-1c-0.5,1.8-0.9,3.5-1.5,5c-0.5,1.4-1.2,2.7-1.9,4c-0.4,0.8-1.1,1-1.8,0.6
		c-0.9-0.5-1.8-1.1-2.7-1.8c-0.4,0.9-0.7,1.8-1.1,2.7c-0.4,0.9-0.7,2-2,2c-1.3,0-2.4-0.5-3-1.7c-0.5-0.9-0.8-1.9-1.2-2.8
		c-0.6,0.7-1.1,1.4,0.1,2.3c0.2,0.2,0.1,1,0,1.5c-0.3,1.6-0.7,3.3-0.9,4.9c-0.1,1,0,2,0,3.2c1.5-0.5,2.8-1,4.1-1.5
		c3.1-1.4,6-0.8,9,0.4c3.1,1.2,6,3,8.6,4.9c1.2,0.9,2.2,1.9,3.4,2.8c0.3,0.3,0.7,0.5,1.1,0.6c2,0.5,4.1,1,6.1,1.6
		c3.2,1,6.5,1.5,9.9,1.6c3.7,0.1,7.3,0.6,11,0.8c2.4,0.1,4.9-0.1,7.3-0.1c2.7,0,5.3,0.1,8,0.1c0.9,0,1.8-0.2,2.6-0.1
		c1.9,0.1,3.2,1.2,3.8,3c0.9,2.8,1.6,5.6,2.4,8.4c0.6,2.1,1.5,4.1,2.1,6.2c0.4,1.4,0.8,2.9,0.9,4.4c0.3,4.2-0.3,8.4-0.3,12.6
		c0,2.7-1,4.9-2,7.2c-0.3,0.7-1,1.3-0.3,2.2c0.1,0.1-0.2,0.5-0.2,0.5c2.7,2.9,5.3,5.7,7.8,8.5c4,4.3,4.8,9.3,3.6,14.9
		c-0.6,2.9-1.2,5.7-1.8,8.5c-1,4.4-3.2,8.2-5.9,11.8c-3,4-6.1,7.9-10.2,10.8c-2,1.4-4.2,2.7-6.3,3.8c-2.7,1.5-5.5,2.9-8.4,4.1
		c-4.5,1.8-9.2,3.4-14.1,4.1c-1.8,0.2-3.7,0.5-5.5,0.6c-0.6,0-1.3-0.2-1.7-0.5c-0.9-0.8-1.6-0.6-2.4,0c-2.3,1.9-4.9,2.2-7.7,2
		c-0.4,0-0.7-0.1-1.1,0.1c-5.6,2.5-11.6,3.3-17.6,3.5c-5,0.2-10-0.1-15,0c-4.7,0.1-9.3,0.2-14,0.6c-3.9,0.3-7.8,0.4-11.6,0.2
		c-3.2-0.2-6.4-0.4-9.6-0.5c-2.2,0-4.4,0.3-6.6,0.3c-4.7,0-9.1-1.4-13.5-2.8c-1.3-0.4-1.8-1.4-1.5-2.8c0-0.2,0.1-0.4,0.1-0.6
		c-0.7-2.4,0.9-4.2,1.7-6.1c1.4-3.1,2.9-6.2,3.9-9.5c0.7-2.4,0.7-5,0.9-7.6c0.5-5,1.1-10,1.6-15c-1.6,2.3-4,3.8-6.4,5.2
		c-4,2.3-8.2,2.5-12.4,0.7c-5-2.1-9.8-4.6-13.9-8.3c-4.5-4-8.6-8.3-11-14c-1.4-3.3-3.1-6.6-5.7-9.2c-0.6-0.6-1.1-1.4-1.4-2.2
		c-1.5-3.3-3.8-6-5.9-8.8c-1.5-2-2.8-4.2-4.2-6.4c-0.4-0.6-0.7-1.1-1.2-1.7c0.8-0.7,1.7-1.4,2.5-2c-1-0.2-2.1-0.4-3.2-0.7
		c-0.5-0.2-1.1-0.7-1.3-1.1c-0.5-1.1-1.4-1.3-2.4-1.7c-2.7-0.8-5.1-2.2-5.9-5.2c-0.3-1.2-0.3-2.5-0.6-3.7c-0.6-2.1-0.6-2.1,1-3.4
		c0.2-0.2,0.4-0.4,0.6-0.5c-0.1-1-0.3-1.9-0.4-2.9c0-0.2-0.1-0.4-0.2-0.5c-1.7-1.5-1.9-3.7-2.3-5.8c-0.3-1.3,0.5-2.3,1.5-3
		c0.3-0.2,0.7-0.4,0.9-0.7c2.1-2.7,4.9-3.7,8.2-4c2.8-0.2,5.6-0.4,8.3-1.5c0.3-0.1,0.8,0,1.1,0c0.3-1.3,0.6-2.5,1-3.8
		c1-3.7,3.4-5.8,7.1-6.7c1.5-0.4,2.6-0.3,3.6,0.6c1,0.9,1.7,1.9,1.7,3.4c0.1,3.4,0.5,6.8,0.4,10.1c-0.1,3.3,1.1,6.2,1.7,9.4
		c0.4,2,0.8,4,1.2,6c0.1,0.7,0.2,1.5,0.5,2.2c0.5,1.2,1.7,1,2.7,0.9c1.2,0,2.4,0,3.5,0.2c1.2,0.2,1.8,1,2.3,2.2
		c0.5,1.4,1.4,2.7,2.2,4.1c0.9,1.6,1.8,3.3,2.7,4.9c0.8,1.3,1.6,2.4,2.5,3.6c0.8,1.2,1.7,2.3,2.5,3.5c0.3-0.2,0.6-0.4,0.8-0.6
		c1.3-1.6,3.1-1.6,4.9-1.3c0.3,0.1,0.9-0.1,1-0.3c1.1-2.5,3.3-4.2,5.1-6.1c2.3-2.3,3.9-5.1,5.6-7.8c4.9-7.8,9.9-15.7,16-22.7
		c1.4-1.6,2.9-3,4.5-4.3c1.1-0.9,2.5-1.6,3.8-1.8c3.5-0.7,7.1-1.1,10.6-1.5c2.5-0.2,4.4,1.2,5.2,3.6c0.1,0.3,0.4,0.6,0.6,0.8
		C117.1,103.2,117.3,103.2,117.4,103.2z M174.1,219.8c2.5-1.1,5-2.2,7.6-3.2c1.4-0.6,2.8-1,4.2-1.6c3.9-1.7,7.6-3.6,11.5-5.2
		c3.5-1.4,6.7-3.3,9.4-5.8c1.9-1.8,3.5-3.9,5.2-6c2.3-2.9,4.5-5.9,5.6-9.5c0.8-2.5,1.6-4.9,2.4-7.4c0.4-1.1,0.8-2.3,1.2-3.4
		c0.3-1,0.2-1.9-1-2.5c-4.1-2-7.2-5.2-10.2-8.6c-2.7-3.1-5.3-6.2-8-9.2c-2.2-2.6-4.5-5.1-6.7-7.6c-1.5-1.7-3-3.3-4.5-4.9
		c-1.6-1.7-3.3-3.3-4.9-5.1c-2-2.1-3.7-4.5-5.7-6.5c-2.1-2.2-4.5-4.3-6.7-6.4c-1.7-1.6-3.5-3.2-5.3-4.8c-2.4-2.1-4.9-3.9-7.2-6.1
		c-3.7-3.6-7.4-7.1-11.9-9.8c-1.4-0.8-2.8-1.6-4.2-2.2c-3.2-1.3-6.2-0.4-9.2,0.8c-1.7,0.7-1.9,1.1-1.6,2.9c0,0.2,0,0.5-0.1,0.7
		c-0.4,1.4-0.8,2.7-1.2,4.1c-0.8,2.5-1.5,4.9-2.3,7.4c-0.6,1.9-1.2,3.7-1.8,5.6c-0.9,2.3-1.9,4.6-2.8,6.9c-0.9,2.3-1.9,4.7-2.8,7
		c-0.5,1.3-1,2.6-1.4,3.9c-0.8,2.9-1.2,6.1-2.5,8.8c-2.1,4.7-3.4,9.5-4.6,14.4c-0.4,1.8-0.5,3.7-2.1,5.1c-0.2,0.2-0.2,0.6-0.2,0.9
		c0.1,3.1,0.3,6.2,0.5,9.3c0.1,2.1,0.2,4.3-0.9,6.2c-1.4,2.5-2.1,5.1-1.9,7.9c0.1,2.2,0.4,4.3,1.2,6.4c0.8,2,1,4-0.4,5.9
		c-1,1.4-2.2,2.6-1.8,4.5c0.1,0.6,0.1,1.2,0.1,1.8c-0.2,2-0.6,4.1-0.8,6.1c-0.2,1.4-0.3,2.8-0.4,4.3c0,0,0.2,0.1,0.4,0
		c4.7-0.2,9.4-0.5,14.1-0.7c0.5,0,1-0.2,1.4-0.1c1.3,0.1,2.7,0.4,4,0.4c3.9,0.2,7.7,0.3,11.6,0.4c1.7,0,3.4-0.1,5.1-0.1
		c0-0.2,0-0.3,0-0.5c-1-0.2-2-0.4-3.3-0.7c0.1-0.8,0.1-2,0.5-2.9c1.1-2.2,3.2-2.8,5.7-3c-0.4-0.3-0.4-0.4-0.5-0.4
		c-2.9-1.1-5.8-2.3-8.8-3.4c-2-0.7-2.7-2.1-2.1-4.1c0.4-1.5,1.2-2.8,2.7-3.3c0.1,0,0.1-0.2,0.2-0.3c-1.1-0.6-2.1-1.1-3.1-1.8
		c-0.3-0.2-0.6-0.8-0.5-0.9c1.1-1.6,2.3-3.2,3.5-4.8c0.1-0.2,0.2-0.4,0.4-0.7c-1.2-0.2-2.3-0.4-3.5-0.6c0.7-0.9,1.2-1.6,1.7-2.3
		c0.7-1.1,1.2-2.2,2-3.3c0.3-0.5,1-0.9,1.6-1c1-0.1,2.1,0.1,3.2,0c2.4-0.1,4.8-0.4,7.2-0.5c0.7-3.2,0.7-3.2,2-4.5
		c1.3-1.3,1.2-1.3,0.5-3c-0.4-1-0.5-2.1-0.5-3.1c-0.1-1.3,0.1-2.7-0.1-4c-0.5-3.2-0.6-6.3,1-9.3c0.6-1.1,0.7-2.4,1-3.7
		c0.4-1.7,0.7-3.3,1.1-5c0.4-2.1,0.9-4.3,1.3-6.4c0.1-0.4-0.3-1-0.6-1.3c-1.7-1.9-3.6-3.6-5.3-5.5c-1-1.1-2.1-2.4-1.7-4.1
		c0.1-0.4,0.5-1,0.9-1.1c0.5-0.1,1.2,0,1.6,0.4c1.6,1.7,3.1,3.5,4.6,5.3c0.6,0.7,1.3,1.4,2.1,2c2,1.6,4.1,3,6,4.6
		c3.8,3,7.5,6.1,11.4,8.9c3.9,2.8,8,5.3,12.1,7.9c2,1.3,2.7,1.1,1,4.1c-0.8,1.5-0.7,3.2-0.1,4.8c0.4,1,1,1.9,1.4,2.9
		c0.1,0.2,0,0.6-0.2,0.8c-0.6,0.9-1.6,1-2.7,1c-0.6,0-1.1,0-1.3,0.7c-0.6,2.1-2.2,3.6-3.8,4.9c-2.6,2.1-5.2,4.1-7.8,6.2
		c-3.5,2.8-7.1,5.6-11.6,6.6c-0.6,0.1-0.8,0.5-0.5,1c0.5,0.9,0.9,1.8,1.4,2.6c2,3.4,4.1,6.8,6.1,10.2c0.7,1.1,1.2,2.3,1.8,3.5
		C173.1,218.4,173.6,219,174.1,219.8z M67.1,152.1c0.2,0.5,0.3,0.7,0.5,0.9c1.5,2,3,3.9,4.4,5.9c1,1.4,1.8,2.9,2.5,4.4
		c0.2,0.3,0.1,1.1-0.2,1.3c-0.4,0.2-1.1,0.4-1.5,0.1c-0.9-0.5-1.8-1.1-2.3-1.9c-2.1-2.9-4-6-6.8-8.3c-1.9-1.6-4.1-3-5.8-4.9
		c-3-3.2-5.7-6.7-7.8-10.6c-1.7-3.1-3.8-6-5.8-8.9c-0.2-0.2-0.7-0.4-1-0.3c-1.9,0.6-3.8,1.3-5.7,2.1c-3,1.3-6,2.7-9.1,4
		c-2.3,1-4.7,1.9-7,3c-1.8,0.9-1.7,1.2-0.5,2.8c0.1,0.2,0.3,0.4,0.4,0.6c1.1,1.7,2.1,3.4,3.2,5.1c1.1,1.7,2.2,3.5,3.3,5.2
		c1.1,1.6,2.4,3.2,3.5,4.9c2.2,3.2,4.3,6.5,6.4,9.7c0.9,1.3,1.9,2.5,2.7,3.8c1.3,2.1,2.7,3.9,4.8,5.2c1,0.6,1.8,1.5,2.7,2.2
		c1.6,1.2,3.1,2.6,4.9,3.6c3.2,1.8,6.6,3.2,9.9,5c3.2,1.7,6.2,1.6,9.1-0.4c0.9-0.6,1.7-1.3,2.6-1.7c3.4-1.6,4.8-4.8,5.7-7.8
		c1.6-5.2,2.4-10.6,3.5-16c0.6-3,0.7-6,1.5-8.9c1.6-6,2.3-12.2,3.4-18.3c0.4-2.4,0.9-3,2.8-2.7c1.1,0.2,1.6,1,1.3,2.1
		c-0.3,1.1-0.5,2.2-0.7,3.3c-0.4,2.1-0.6,4.2-1,6.2c-0.4,2.3-1,4.6-1.4,7c-0.4,2.3-0.6,4.6-1,6.8c-0.5,3.1-1.2,6.1-1.7,9.1
		c-0.4,2.7-0.6,5.4-1.1,8c-0.4,2.2-1.1,4.4-1.6,6.6c-0.4,2-0.6,4.1-0.9,6.2c-0.2,1-0.4,2-0.5,3.1c-0.4,2.8-0.7,5.5-1.2,8.3
		c-0.6,3.1-1.3,6.1-2,9.2c-0.3,1.4-0.2,2.8-0.6,4.1c-1.2,3.5-2.6,7-3.9,10.5c-0.5,1.3,0.2,2.8,1.4,3.1c8.3,2.3,16.6,1.8,24.9,0.2
		c1-0.2,1.2-0.7,1.2-1.5c0-1.5-0.2-2.9-0.1-4.4c0.2-2.3,0.5-4.6,0.8-6.9c0.1-0.7,0.4-1.5,0.6-2.2c0.6-1.9,1.6-3.6,1-5.8
		c-1.2-3.9-1.6-7.9-0.6-11.9c0.3-1.3,0.6-2.5,0.9-3.8c0.4-1.4,1-2.7,1.1-4.1c0.1-2.6-0.2-5.3-0.2-7.9c0-2.4,0.1-4.8,0.2-7.3
		c0-1.2,0.6-1.9,1.8-2.1c0.8-0.1,1-0.5,1-1.3c0-2.6,0-5.3,0.1-7.9c0.1-4.5,0.3-8.9,0.5-13.4c0.2-4.3,0.6-8.7,1-13
		c0.3-3.7,0.8-7.4,1.2-11c0.2-2.2,0.3-4.3,0.6-6.5c0.3-2.2,0.9-4.3,1.4-6.4c0.2-0.7,0-1-0.6-1.3c-1.2-0.8-2.3-1.7-3.5-2.4
		c-0.5-0.3-1.1-0.5-1.6-0.4c-5.5,1.1-10.3,3.6-14,7.9c-3.1,3.5-6.2,7-9,10.7c-2.6,3.4-4.8,7.1-7.1,10.6c-2.3,3.5-4.9,6.8-8.3,9.4
		c-0.9,0.7-1.7,1.4-2.6,2.2c0.5,0.3,0.8,0.6,1.2,0.7c2.2,0.4,3.9,1.6,5.3,3.1c0.3,0.3,0.3,0.7,0.4,1.1c-0.4,0-0.7,0.2-1.1,0.1
		c-1-0.1-1.9-0.3-2.9-0.5c4.7,2.2,9.5,6.3,9.6,8.5C75.8,155.4,71.6,153.8,67.1,152.1z M127.2,40.6c2.5,0.3,4.8,0.6,7.2,0.9
		c0.3-0.4,0.5-1.1,1-1.5c1.6-1.1,3.3-2.2,5.1-3.1c0.9-0.4,2.1-0.6,3.1-0.5c4.5,0.5,9,1.2,13.5,1.7c3,0.3,5.7,1.2,8.1,3.1
		c2.3,1.8,3.6,4,2.8,7c-0.1,0.3,0,0.6,0,0.9c0.4-0.7,0.5-1.6,0.8-2.3c0.9-2.2,1.2-4.4,1.3-6.8c0-1,0.2-2,0.4-3
		c0.2-1.2,0.5-2.4,0.4-3.6c0-1.2-0.3-2.4-0.7-3.5c-0.3-0.9-1-1.6-1.7-2.3c-0.9-0.9-2-1.6-3.1-2.3c-0.6-0.5-1.3-1-2-1.4
		c-0.8-0.5-1.8-0.9-2.4-1.6c-0.6-0.6-1.1-0.9-1.9-0.9c-2.2,0-4.1-0.8-5.7-2.3c-0.2-0.2-0.8-0.3-1.1-0.2c-3.1,0.8-7.7,0.9-9.5-2.4
		c-0.5,0.2-1.1,0.5-1.6,0.7c-2.2,0.8-4.3,0.7-6.4-0.5c-0.4-0.2-1-0.2-1.4-0.1c-2.1,0.8-4,0.1-5.8-0.9c-0.5-0.3-0.8-0.4-1.3,0
		c-1.4,1.2-3.1,1.9-4.9,1.1c-1.7-0.8-2.9-0.1-4.2,0.8c-0.1,0.1-0.3,0.2-0.4,0.3c-1.2,0.3-2.2,1.5-3.6,1c-3.2,4.6-6.4,10.2-6.7,12
		c0.2,0.1,0.5,0.3,0.8,0.2c2.7-0.2,5.2,0.2,7.8,1c1.9,0.6,4,0.9,5.9,1.6c0.9,0.3,1.7,1.2,2.6,1.7C125.5,36.5,127.8,37.5,127.2,40.6z
		 M107.5,60c1.9-0.4,3.3,0.3,4.7,1.1c2.2,1.3,4.3,2.8,6.6,3.7c2.3,0.9,4.9,1.3,7.4,1.8c5,0.9,10,0.6,14.9-0.5c1-0.2,2-0.6,3.1-0.9
		c-1.4-1.2-2.6-2.2-3.9-3.3c-0.3,0.4-0.7,0.9-0.9,1.4c-0.8,1.4-1.7,1.4-3.1,0.6c-1.4-0.8-2.8-1.8-2.7-3.8c-0.5,0.9-0.9,1.8-1.4,2.6
		c-0.9,1.5-2,1.7-3.3,0.5c-0.7-0.7-1.5-1.4-2.2-2.1c-0.4,0.5-0.9,1.1-1.4,1.6c-0.7,0.8-1.7,0.9-2.5,0.2c-0.9-0.8-1.6-1.8-2.6-2.8
		c-0.2,0.1-0.7,0.2-1.1,0.4c-0.1,0-0.1,0.1-0.2,0.2c-0.7,0.2-1.6,0.7-2.1,0.4c-0.8-0.4-1.3-1.3-2.1-2.1c0.1,0-0.2,0.1-0.4,0.2
		c-1.6,0.3-3.1,1.5-4.7-0.2c-0.2-0.2-0.8-0.2-1.1,0c-1.7,1.2-4,1.2-5.2,3.2c-0.8,1.3-2,2.3-2.9,3.6c-0.8,1.3-1.5,2.7-2.1,4.1
		c-0.5,1.1-0.7,2.3-1.1,3.4c0.1,0.1,0.3,0.1,0.4,0.2c2.2-1.4,4-3.2,5.2-5.5c0.5-1,2.3-2,3.3-1.6c0.2,0.1,0.4,0.6,0.4,0.9
		c-0.1,0.5-0.4,0.9-0.6,1.3c-0.8,1.6-1.8,3.2-2.4,4.9c-0.6,1.7-1.1,3.5-0.8,5.5c2.3-1.6,3.9-3.5,4.8-6c0.1-0.4,0.3-0.7,0.4-1.1
		c0.3-0.8,1-0.9,1.7-1c0.5-0.1,1,0,1.5-0.1c0.7-0.1,1.5-0.4,1.8,0.4c0.2,0.5-0.1,1.2-0.5,1.7c-1.8,2.6-2.8,5.5-3.3,8.5
		c-0.1,0.7,0,1.5,0,2.2c0.1,0.1,0.3,0.2,0.4,0.3c0.3-0.4,0.5-0.8,0.8-1.2c1.3-1.8,2.6-3.7,4-5.5c0.7-1,1.3-2.2,2.8-2.2
		c0.5,0,1.1,0,1.4,0.2c0.2,0.2,0.1,0.9-0.1,1.3c-1.6,3.7-2.6,7.6-3,11.6c-0.1,0.7,0,1.4,0,2.2c0.3-0.2,0.4-0.3,0.5-0.3
		c0.2-0.2,0.3-0.4,0.5-0.7c2-2.5,3.4-5.3,4.3-8.3c0.5-1.8,1.5-2.4,3.4-2.4c1.1,0,1.5,0.7,1,1.7c-0.3,0.6-0.7,1.3-0.9,1.9
		c-0.5,2.2-1,4.4-1.4,6.7c-0.2,1.2,0,2.4,0,3.8c0.3-0.2,0.5-0.3,0.5-0.4c1.5-3.1,3.2-6.2,4.5-9.4c0.5-1.4,1.2-2,2.5-2.3
		c0.6-0.1,1.2-0.1,1.8-0.1c0,0.6,0.1,1.3-0.1,1.8c-1.7,4-1.6,8.3-1.9,12.5c0,0.2,0.2,0.4,0.3,0.7c0.3-0.7,0.5-1.3,0.9-1.8
		c2.3-3.6,3.2-7.7,4.4-11.7c0.1-0.3,0.5-0.7,0.8-0.8c0.4-0.2,0.9-0.3,1.4-0.4c0.9-0.2,1.3,0,1.2,1c-0.2,2.1-0.4,4.3-0.5,6.4
		c0,1.5,0.2,3,0.4,4.4c3-4,3.7-8.4,3.4-13.1c1.1-0.3,2.1-0.7,3-0.9c0.3-0.1,0.9,0,1.1,0.2c0.2,0.2,0.1,0.7,0,1.1
		c-0.3,1.1-0.8,2.2-0.9,3.3c-0.2,1.6,0,3.2,0,4.8c0.2,0,0.3,0.1,0.5,0.1c1.5-4.6,3-9.2,4.6-14c0.4-0.1,1.1-0.3,1.7-0.4
		c0.4-0.1,1.1-0.2,1.3,0.1c0.2,0.2,0.1,0.9,0.1,1.3c-0.3,2.2-0.6,4.4-1,6.6c0.2,0,0.3,0.1,0.5,0.1c0.2-0.7,0.4-1.3,0.6-2
		c0.7-2.8,1.3-5.6,2-8.3c0.1-0.2,0.2-0.5,0.1-0.7c-0.5-1.3-1-2.6-1.5-4c-2.5,0.9-4.2-0.2-5.5-2c-1.2,0.7-2.2,1.4-3.3,2
		c-5.3,2.8-11,3.6-16.9,3c-5.5-0.6-10.9-2.2-15.8-4.8C110.6,63.9,108.9,62.3,107.5,60z M161.9,197.5c0,0.1-0.1,0.3-0.1,0.4
		c0.4-0.2,0.8-0.3,1.2-0.5c3.8-2.6,7.5-5.2,11.2-7.9c1.7-1.2,3.3-2.6,4.8-4.1c1.7-1.7,3.9-2.9,4.7-4.8c-0.3-1-0.7-1.7-0.6-2.4
		c0.2-1.8,0.2-3.6,1.3-5.2c0.4-0.5,0.2-0.9-0.4-1.3c-1.7-1.1-3.3-2.5-5.2-3.5c-4.5-2.4-8-6.1-12-9.2c-1.7-1.3-3.3-2.5-5-3.8
		c-0.1,0.9-0.1,1.8-0.2,2.6c-0.3,2.4-0.6,4.7-1,7.1c-0.3,1.6-0.7,3.2-1.1,4.8c-0.3,1.5-0.7,2.9-0.8,4.4c-0.1,1.7,0.3,3.4,0.1,5
		c-0.2,2.2,0.1,4.3,1.2,6.2c0.5,1,0.3,1.7-0.6,2.2c-2.1,1.1-2.5,3-2.5,4.7C158.7,194.2,160.3,195.8,161.9,197.5z M172.6,118.8
		c0,0.1-0.1,0.2-0.1,0.3c2.8,2.2,5.6,4.5,8.3,6.7c1.1,0.9,2.2,1.9,3.4,2.9c1,0.8,2.1,1.5,3,2.4c4.3,4.5,8.5,9.1,12.7,13.6
		c1.6,1.7,3.1,3.4,4.6,5.2c1.1,1.3,2.2,2.7,3.4,4.1c0.8-1.8,1.8-3.4,2.1-5.2c0.8-4.8,1.3-9.7,0.7-14.7c-0.2-1.8-0.2-3.7-0.6-5.4
		c-0.6-2.6-1.5-5.1-2.3-7.7c-0.3-1.1-0.7-2.2-1.2-3.2c-1.1-2.2-1.4-2.2-3.9-2.1c-4.6,0.2-9.2,0.5-13.8,0.4
		c-4.2-0.1-8.4-0.7-12.6-1.1c-1.1-0.1-2.2-0.2-3.3-0.2c0,0.2-0.1,0.3-0.1,0.5c3.4,1.3,6.9,2.6,10.4,3.8c1.7,0.6,3.4,1.2,5.2,1.6
		c1.5,0.4,3.1,0.5,4.7,0.7c1.2,0.1,2,0.7,2.3,1.8c-0.1,0.1-0.2,0.3-0.3,0.3c-3.7,0.7-7.3,1.7-11.1,0.4c-2.8-1-5.8-1.5-8.2-3.4
		C174.8,119.8,173.6,119.4,172.6,118.8z M157.2,67.9c0.8-0.4,1.6-0.8,2.4-1.1c0.2-0.1,0.7,0,0.8,0.2c0.6,0.8,1.1,1.7,1,2.8
		c-0.1,1-0.1,2.1-0.1,3.1c0,0.3,0.1,0.6,0.3,0.8c0.5,0.4,1,0.9,1.6,1.2c1.4,0.7,2.4,0.1,2.4-1.4c0-0.4,0.2-0.8,0.4-1.1
		c0.5-0.8,1.3-1.4,1.6-2.2c1-2.5,1.9-5.1,2.9-7.5c0.6-1.3,0.4-2.6,0.3-4.1c-1,0.1-2,0.2-2.8,0.4c-0.9,0.2-1.4,0.2-1.3-1
		c0-0.5-0.2-1-0.3-1.5c-1.8,0.5-3.5,1-5.1,1.6c-2.4,0.9-4.7,0.5-7-0.1c-3.3-0.8-6.6-1.9-9.9-2.7c-2.8-0.7-5.4-1.6-7.9-2.9
		c-1.6-0.9-2.8-2.1-3-3.9c-0.1-1.1,0-2.3,0-3.7c-1.8-0.4-3.7-0.8-5.7-1.1c-1.5-0.3-2.1,0.5-1.5,2c0.1,0.3,0.3,0.7,0.3,1
		c0,0.4-0.2,0.8-0.5,1c-0.2,0.2-0.7,0-1,0c-1.7-0.5-3.3-1.1-5-1.4c-0.9-0.2-1.9,0.1-2.3,1.1c-0.4,1.1-0.3,2.3,0.3,3.3
		c0.5,0.8,1.3,1.5,1.9,2.2c0.7,0.7,0.6,1.1-0.3,1.5c-1,0.4-2.4,0.1-2.9-0.8c-0.4-0.5-0.6-1.1-1-1.6c-0.2-0.2-0.5-0.4-0.7-0.4
		c-2-0.1-4,0-6-0.2c-2.2-0.2-4.3-0.6-6.5-0.9c-0.8-0.1-1.7-0.3-2.5-0.5c-0.4,1.5-0.8,2.9-1.2,4.3c0.9-0.3,1.6-0.8,2.4-0.9
		c0.6,0,1.2,0.4,1.8,0.7c-0.2,0.4-0.4,0.9-0.7,1.2c-0.4,0.5-1,0.9-1.5,1.3c1.5,0,2.7-0.5,3.3-1.9c0.1-0.3,0.6-0.6,1-0.6
		c0.6-0.1,1.3-0.1,1.9,0c0.3,0,0.6,0.3,0.9,0.4c-0.2,0.3-0.3,0.6-0.5,0.8c-0.3,0.3-0.7,0.5-1,0.8c-1,1-1.9,2-2.1,3.4
		c2.1-0.4,3.6-1.5,4.9-2.9c0.7-0.8,1.5-1.3,2.5-1.3c0.4,0,0.8,0.1,1.2,0.2c-0.2,0.3-0.3,0.7-0.6,0.9c-0.7,0.7-1.4,1.4-1.2,2.7
		c1.8-0.5,3.5-0.9,4.7-2.2c0.6-0.7,1.2-0.8,2-0.6c-0.4,1.2-0.8,2.3-1.1,3.4c0.1,0.1,0.3,0.2,0.4,0.3c1-0.5,1.9-1.1,2.9-1.6
		c0.7-0.4,1.4-0.7,2.2-0.9c1-0.3,1.3,0.1,1,1.1c-0.2,0.9-0.2,1.9-0.3,2.8c0.2,0.1,0.3,0.1,0.5,0.2c0.7-0.9,1.7-1.8,2-2.8
		c0.5-1.5,1.5-0.8,2.3-0.9c0.9-0.1,1.1,0.6,1.2,1.3c0.1,0.8,0.3,1.6,0.4,2.4c0.2,0.1,0.4,0.2,0.5,0.3c0.2-0.4,0.5-0.8,0.7-1.2
		c0.8-1.1,1.6-2.2,2.5-3.2c0.3-0.4,1-0.6,1.5-0.6c0.2,0,0.6,0.6,0.7,1c0.2,0.8,0.3,1.7,0.4,2.6c0.1,0.6,0.4,1.1,0.6,1.9
		c0.5-0.7,0.8-1.1,1.1-1.5c0.7-1,1.1-2.1,2.6-2.4c1.4-0.3,1.8-0.2,2.3,1.2c0.4,1.1,0.9,2.2,1.4,3.3c0.1,0,0.2,0,0.3,0
		c0.7-1.3,1.3-2.6,2.9-2.8c0.5-0.1,1.2-0.1,1.6,0.1c0.5,0.3,0.8,1,1,1.6c0.5,0.9,0.9,1.9,1.3,2.9C155.6,63.4,155.6,63.4,157.2,67.9z
		 M17.7,136c0,0.1,0,0.2,0,0.2c0.6,0.1,1.2,0.2,1.7,0.4c0.8,0.3,1.3,0,1.8-0.5c2-2,4.4-3.4,7.1-4c3.2-0.8,6.1-2.3,9-3.7
		c0.8-0.4,1-0.7,0.8-1.6c-1.2-4.9-3-9.8-3.3-14.9c-0.2-3-0.3-6-0.4-8.9c0-1,0.2-2.1,0-3.1c-0.3-1-0.9-2.2-1.7-2.7
		c-1.1-0.7-3.7,0.4-4.6,1.5c-1.3,1.7-1.7,3.5-1.4,5.6c0.2,1.3,0.4,2.7,0.4,4c0,1.2-0.7,1.6-1.7,1c-0.7-0.4-1.3-1.2-2-2
		c-0.8,0.3-2,0.5-2.8,1.1c-1.1,0.9-2.4,0.9-3.7,1.1c-0.8,0.1-1.6,0.3-2.4,0.5c-1.2,0.2-2.5,0.6-3.7,0.6c-1.2-0.1-1.8,0.3-2.4,1.2
		c-2.2,3.2,0.3,6.5,3,7c2.4,0.4,4.8,0.2,7.1-0.5c2.5-0.7,4.9-1.9,7.3-2.9c0.3-0.1,0.7-0.8,0.6-0.9c-0.2-0.4-0.7-0.7-1.1-0.8
		c-0.3-0.1-0.8,0.1-1,0c-1.8-1-3.6-0.5-5.4-0.3c-0.5,0.1-1.1,0.1-2,0.2c0.6-0.8,0.9-1.5,1.4-1.9c2.7-1.7,5.5-2.9,8.8-1.2
		c2.2,1.1,2.4,1.8,2,4.2c-0.1,0.7-0.7,1.4-1,2c0.1,0.6,0.4,1.2,0.2,1.7c-0.4,1.2-1,2.3-1.5,3.4c-0.1,0.3-0.4,0.7-0.3,0.9
		c0.6,1.1,0.4,2.1-0.4,3.1c1.1,0.7,1.6,1.6,1.1,2.9c-0.2,0.5-0.5,1.1-0.9,1.6c-1.8,2.2-3.7,4.4-6.7,5
		C18.8,135.5,18.3,135.8,17.7,136z M149.6,220.9c1.8,0.5,3.2,0.6,4.7-0.1c1.9-0.9,3.9-1.1,5.7,0.6c0.5,0.5,1.3,0.8,2,0.9
		c1.7,0.2,3.3-0.4,4.8-1.3c0.8-0.4,0.7-0.8,0.2-1.4c-0.7-0.9-1.3-1.8-1.8-2.8c-0.6-1.2-1.1-2.5-1.6-3.7c-0.5-1.3-1-2.6-1.4-3.9
		c-0.2-0.7-0.5-1.4-0.8-2c-1-2-2-4-3-6c-0.1-0.2-0.1-0.6,0-0.7c0.8-0.9,0.4-1.6-0.1-2.4c-0.3-0.5-0.6-1-0.7-1.5
		c-0.2-0.9-0.7-1.2-1.4-1.4c-0.3-0.1-0.6-0.3-0.9-0.3c-2.1-0.4-4.3-1-6.4-1.1c-1.5-0.1-3.1,0.3-4.6,0.6c-0.9,0.2-1.8,0.6-2.6,0.9
		c0,0.1,0.1,0.3,0.1,0.4c0.3,0,0.7,0.1,1,0.1c2.9,0.4,5.9,0.2,8.7,1.4c0.8,0.4,1.7,0.7,2.5,1.1c0.4,0.2,0.7,0.6,1,0.9
		c-0.4,0.3-0.8,0.7-1.3,0.9c-0.6,0.3-1.3,0.4-2,0.7c-0.6,0.2-1.1,0.5-1.7,0.5c-1.9-0.1-3.7-0.4-5.6-0.6c-2.1-0.2-3.8,0.5-5.5,1.9
		c0.8,0.4,1.3,1,2,1.1c2.8,0.5,5.7,1.1,8.6,1.2c1.9,0.1,3.6,0.5,5.3,1.1c1.1,0.4,1.2,1.1,0.2,1.7c-0.9,0.6-1.9,0.9-2.7,1.5
		c-1.3,1-2.6,1.1-4.1,0.7c-2.4-0.7-4.8-0.4-7.2,0.1c-0.3,0.1-0.6,0.2-1.1,0.5c0.6,0.4,0.9,0.7,1.3,0.8c1.3,0.5,2.7,0.8,3.9,1.4
		c3.4,1.6,6.9,2.6,10.7,2.6c0.2,0,0.5,0.2,0.6,0.3c0.1,0.1,0,0.5-0.1,0.6c-0.6,0.6-1.1,1.1-1.8,1.6
		C153,218.8,151.4,219.7,149.6,220.9z M173.4,14.9c-0.2,0.9-0.6,1.4-1.7,1.1c-0.3-0.1-0.6,0-0.8,0c-1.3,0-2.5-0.2-3.2-1.5
		c-0.2-0.4-0.9-0.7-1.4-0.8c-2.1-0.5-4.3-1.1-6.4-1.5c-3-0.6-6.1-1-9.1-1.6c-2.1-0.4-4.1-1.2-6.1-1.5c-2.9-0.5-5.9-0.6-8.8-1
		c-1.3-0.2-2.7-0.5-4-0.6c-4-0.1-8-0.4-11.8,1.7c-1.8,1-3.9,1.5-5.8,2.5c-1.5,0.8-2.7,2-3.3,3.7c1.3-0.8,2.5-1.7,3.6-2.7
		c0.2-0.2,0.4-0.5,0.6-0.6c0.6-0.2,1.2-0.3,1.9-0.4c-0.1,0.5,0,1.1-0.3,1.6c-0.6,1.2-1.3,2.4-2,3.5c-0.1,0.3-0.2,0.5-0.3,0.8
		c0.1,0.1,0.2,0.2,0.3,0.3c1.2-0.7,2.4-1.3,3.6-2c0.5-0.3,0.7-0.7,0.5-1.4c-0.3-1,0-1.7,1.2-1.9c0.3,0,0.6-0.2,0.9-0.4
		c0.8-0.3,1.6-0.7,2.4-0.9c0.3-0.1,0.8,0.3,0.9,0.5c0.1,0.2-0.1,0.6-0.3,0.9c-0.4,0.6-0.9,1.2-1.3,1.9c-0.1,0.2-0.1,0.7,0.1,1
		c0.1,0.2,0.7,0.2,0.9,0.1c1.2-0.8,2.8-1.2,3.3-2.9c0-0.2,0.3-0.4,0.5-0.5c1.2-0.4,2.5-0.8,3.7-1.1c0.3-0.1,0.8,0.1,0.9,0.3
		c0.2,0.2,0.1,0.7,0,1c-0.2,0.5-0.7,1-0.9,1.6c-0.1,0.3-0.1,0.8,0.1,1c0.6,0.6,2.5-0.2,2.5-1.1c-0.1-1.5,0.8-2,1.9-2.2
		c1.1-0.2,2.3-0.4,3.4-0.4c0.3,0,0.8,0.4,1,0.7c0.1,0.2-0.2,0.7-0.4,1c-0.4,0.6-0.8,1.1-1.1,1.8c-0.3,0.6,0,1.2,0.6,1
		c1.3-0.4,2.7-0.9,3.6-1.8c0.7-0.7,1.3-1.5,2.4-1.6c0.7-0.1,1.3-0.1,2,0c0.6,0.1,1.2,0.3,1.8,0.4c-0.2,0.6-0.3,1.2-0.6,1.7
		c-0.1,0.2-0.3,0.4-0.4,0.6c-0.5,0.8-0.2,1.5,0.5,2c1.1,0.8,3,0.4,3.8-0.7c0.4-0.6,0.9-1.2,1.9-1.1c0.9,0.1,1.8-0.3,2.7-0.4
		c0.5,0,1.3,0,1.6,0.3c0.4,0.4,0.6,1.2,0.5,1.8c-0.3,1.7,0.1,2.3,1.7,2.1c1.3-0.1,2.5-0.4,3.7-0.6c1.5-0.3,2.1,0.3,1.6,1.8
		c-0.2,0.8,0.2,1.6,0.8,1.5c1-0.1,2-0.2,2.9-0.4c0.9-0.1,1.6,0.5,1.4,1.4c-0.1,0.3-0.2,0.5-0.3,0.8c-0.1,0.8,0.6,1.9,1.3,1.9
		c0.7,0,1.8-0.3,1.9-0.7c0.5-2.1,0.8-4.3,1.2-6.4C175.5,16.8,175.8,15.2,173.4,14.9z M121.6,43.3c0.1-0.7,0.1-1.3,0.2-1.8
		c0.4-2.4,0.1-2.9-2.1-3.8c-0.6-0.2-1.3-0.4-1.9-0.6c-5.4-1.6-10.8-2.6-16.4-3.3c-2.8-0.3-5.4,1.4-6,4.1c-0.2,1.1-0.1,2.4,0.1,3.5
		c0.1,0.8,0.6,1.5,0.7,2.3c0.1,1,0.5,1.7,1.4,2c1.3,0.5,2.5,0.9,3.8,1.3c0.8,0.2,1.7,0.2,2.6,0.3c2.4,0.3,4.8,0.7,7.2,1
		c1.4,0.2,2.7,0.2,4.1,0.3C116.4,44.9,118.5,43.1,121.6,43.3z M113.9,158.1c0.8-1.8,1.9-3.8,2.6-6c0.9-2.7,1.6-5.5,2.4-8.2
		c0.9-2.9,1.9-5.7,2.9-8.6c0.8-2.3,1.7-4.6,2.4-6.9c1.3-4.1,2.5-8.1,3.7-12.2c0.1-0.5,0.2-1,0.2-1.6c-4.5,1.3-7.9-0.4-11.2-3.4
		c-0.2,2.3-0.4,4.3-0.5,6.4c-0.4,5.8-0.7,11.5-1.1,17.3c-0.3,4.2-0.7,8.4-0.9,12.7C114.1,151.1,114,154.7,113.9,158.1z M140.1,39.8
		c-1,2.7-1.1,5.4-1.3,8.1c-0.1,1,0.2,1.6,1,1.9c1.8,0.6,3.7,1.2,5.6,1.7c3.9,1,7.8,2.1,11.7,2.9c1.9,0.4,3.9,0.4,6,0.6
		c0.4-2.6,0.8-5,1.1-7.3c0.2-1.1,0.6-2.4-0.9-3c-2.4-1-4.9-2.3-7.5-2.8C150.6,40.9,145.4,40.4,140.1,39.8z M126.8,91.4
		c-0.4,0.8-0.9,1.5-1.3,2.3c-1,1.7-1.4,1.9-3.3,1.3c-0.1,0-0.1,0.1-0.3,0.1c-0.1,1-0.1,2-0.2,3c-0.3,2-0.7,4-1,6
		c-0.1,0.4-0.2,0.7-0.3,1c-0.2,0.8-0.1,1.4,0.9,1.7c0.8,0.2,1.5,0.6,2.2,1c2.1,1.1,3.9,0.7,5.8-0.7c1-0.8,1.5-1.7,1.5-3.1
		c0-2.1,0.3-4.2,0.5-6.4C127.4,97.3,126.4,94.9,126.8,91.4z M25.5,117.6c-5,2.6-10.1,4.4-15.9,3.9c0.3,0.7,0.7,1.6,1.2,1.8
		c2.4,0.8,4.8,1.3,7.4,0.7c1.8-0.4,3.7-0.1,5.1-1.6C24.6,121.2,25.9,119.9,25.5,117.6z M9.2,125.3c0.1,0.4,0.1,0.8,0.2,1.1
		c0.8,1.6,1.2,3.6,3.6,3.6c0.5,0,1,0.1,1.5,0.1c1.8,0,3.7,0.1,5.3-1c1.5-1,2.8-2.2,4.1-3.4c0.5-0.5,0.9-1.2,1.3-1.9
		C20.1,127.4,14.8,127.1,9.2,125.3z M25.4,126.5c-3.2,3.9-6.9,6.2-11.9,6.2c1.9,0.4,3.8,0.7,5.7,0.8c0.6,0,1.2-0.4,1.7-0.7
		c0.6-0.4,1.2-0.9,1.6-1.4C23.9,130.1,25.4,128.9,25.4,126.5z M120.7,110.2c1,1.4,2.2,2.6,4,2.6c1.4,0,2.3-1.1,3.5-2.2
		C125.4,111.3,123.1,111,120.7,110.2z M99.1,60.6c0.5-0.2,1.1-0.5,1.7-0.7c1.4-0.4,1.6-0.8,1.3-2C101,58.9,100,59.9,99.1,60.6z
		 M173.7,43.5c-0.1,0-0.2,0-0.4-0.1c-0.3,1.6-0.6,3.2-0.9,4.8c0.1,0,0.3,0,0.4,0.1C173.1,46.7,173.4,45.1,173.7,43.5z"/>
	<path class="st0" d="M47.7,204.3c1.4-1.3,2.5-0.4,3.8,0.3c0.1-0.3,0.2-0.7,0.4-1c2.3-0.1,1.2,2.1,2.2,3.1c0-0.4,0.1-0.8,0.1-1.2
		c0-0.4-0.1-0.9,0-1.3c0.1-0.5,0.3-1,0.5-1.5c0.5,0.3,0.9,0.5,1.2,0.7c0.3-0.3,0.7-1,1.2-1c1.3-0.2,1.3,1.1,1.7,2.1
		c0.3-0.8,0.5-1.4,0.8-1.9c0.2-0.3,0.7-0.8,0.9-0.7c0.5,0.1,1.2,0.5,1.4,0.9c0.4,1.4,0.7,2.9,0.9,4.4c0.1,0.7-0.4,1.2-1.2,0.8
		c-0.5-0.3-0.8-0.7-1.2-1.1c-0.2,0.5-0.4,1.2-0.8,1.6c-0.4,0.3-1.2,0.1-1.7,0.2c-0.4,0.4-0.7,1-1.2,1.1c-0.3,0.1-0.8-0.5-1.2-0.8
		c-1.3,1.6-2.2,1.5-3.6-0.9c-0.8,1.9-1.9,2.8-3.7,1.9c-1,1.2-1.8,2.4-2.9,3.4c-1.3,1.2-3.2,0.5-3.6-1.3c-0.4-1.6-0.6-3.2-1-4.8
		c-0.1-0.3-0.4-0.7-0.7-0.8c-0.9-0.4-1.2-1-0.6-1.7C41.6,202.4,45.5,201.6,47.7,204.3z M46,204.6c-1.4-0.7-3.1-0.3-4,0.6
		c0.4,0.4,0.9,0.7,1.5,1.2C44.2,205.9,45,205.3,46,204.6z M43.7,208.7c0.2,0.9,0.4,1.6,0.6,2.3c0.1,0,0.2,0,0.3,0
		c0.4-0.8,0.8-1.6,1.3-2.6C45,208.6,44.4,208.6,43.7,208.7z M49.8,205.4c-0.1,0-0.3,0-0.4,0c0,0.9,0,1.9,0,2.8c0.1,0,0.3,0,0.4,0
		C49.8,207.2,49.8,206.3,49.8,205.4z"/>
	<path class="st0" d="M52.2,211.8c0-0.9,0.5-1.3,1.6-1.3c0.7,0.1,1.5-0.2,2.2-0.3c0.5,0,1.1,0,1.9,0c-0.9,1.9-2.7,1.3-3.8,2.1
		c0.2,0,0.5,0.1,0.7,0.1c0.3,0,0.6-0.1,0.8-0.1c2.3-0.5,2.7-0.1,2.2,2.1c1.4,0.4,2.1,1.3,1.9,2.7c-0.1,0.5-0.7,1.2-1.1,1.2
		c-2.2,0.4-4.3,0.6-6.5,0.9c-0.5,0.1-1.1,0.3-1.6,0.5c-0.6,0.3-1.6,0-1.7-0.7c-0.4-2.4-0.6-4.8-0.9-7.2c0-0.2,0.5-0.8,0.6-0.8
		c0.4,0.1,1,0.4,1.1,0.7c0.3,1.1,0.4,2.3,0.6,3.6c1.4-0.2,2.7-0.4,3.9-0.6c-0.5-0.3-1.1-0.7-1.8-1.1c-0.4,0.8-1,0.5-1.6-0.1
		c-0.2-0.3-0.4-0.7-0.4-1.1c0-0.5,0.2-0.9,0.4-1.4C51.2,211.4,51.7,211.6,52.2,211.8z M57.7,216.7c0-0.1,0-0.2,0-0.4
		c-0.3-0.1-0.6-0.2-1-0.2c-1.7,0.2-3.5,0.4-5.2,0.6c-0.3,0-0.6,0.4-0.8,0.6c0.3,0.1,0.7,0.4,1,0.4c1.8-0.2,3.6-0.5,5.4-0.8
		C57.3,216.9,57.5,216.8,57.7,216.7z"/>
	<path class="st0" d="M64.6,206.3c0.3,0.2,0.6,0.4,0.9,0.6c-0.7,0.9-0.8,0.9-2.3,0.2c-0.1-1.3-0.4-2.7-0.3-4
		c0.1-1.9,0.4-3.8,0.8-5.7c0-0.3,0.7-0.8,0.8-0.7c0.5,0.2,1.3,0.7,1.2,1c-0.1,2.5-0.4,5-0.6,7.5C65,205.6,64.8,205.9,64.6,206.3z"/>
	<path class="st0" d="M142,121.8c-0.3,1.7-0.7,3.4-0.9,5c-0.5,4.6-0.9,9.2-1.5,13.7c-0.2,1.3-0.7,2.6-1,3.9c-0.2,1-0.3,2.1-0.3,3.2
		c-0.1,1.9,0.1,3.9-0.3,5.8c-0.4,2-0.6,4-0.1,6c0.1,0.5,0,1,0,1.5c-0.1,1.1-0.3,2.3-0.4,3.4c-0.1,1.4-0.5,2.7-1.7,3.5
		c-0.9,0.6-4,0.9-4.8,0.4c-1.1-0.7-0.8-1.8-0.7-2.7c0.2-1.6,0.7-3.1,0.9-4.7c0.3-1.9,0.4-3.7,0.6-5.6c0.3-2.7,0.4-5.5,0.8-8.2
		c0.4-2.6,1.1-5.2,1.6-7.8c0.5-3.3,0.9-6.7,1.3-10c0.2-1.5,0.4-2.9,0.5-4.4c0.1-1.2,0-2.4,0-3.7c0-0.5-0.2-1,0.5-1.1
		c0.1,0,0.3-0.3,0.3-0.4c-0.1-1,0.6-1.2,1.3-1.6c2.2-1.1,4.1,0.1,4,2.6c0,0.3,0,0.6,0,1C141.9,121.8,141.9,121.8,142,121.8z
		 M134.8,161.7c0.2,0,0.3,0,0.5,0c0.8-8.5,1.6-17,2.4-25.5c-0.1,0-0.2,0-0.3,0c-0.1,3.2-1.5,6.2-1.4,9.6c0.2,3.6-0.5,7.3-0.8,11
		C135.1,158.5,135,160.1,134.8,161.7z"/>
	<path class="st0" d="M212.2,175.9c-5.2,0.9-10.2-0.4-15-1.5C199.5,172.3,210.4,173.3,212.2,175.9z"/>
	<path class="st0" d="M197,180.2c3.5,0,7-0.1,10.5,0c1.2,0,2.5,0.6,3.9,0.9C210.1,182.3,200.7,181.7,197,180.2z"/>
	<path class="st0" d="M106.6,116.6c0.8-0.3,1.6-0.5,2.3-0.8c1.4-0.7,1.8-0.5,2.3,1c0.7,2.2,0.3,4.4,0.1,6.6
		c-0.1,0.8-0.3,1.6-0.4,2.5c-0.1,3.6-1.1,7.1-1.8,10.6c-0.2,0.9-0.3,1.9-0.5,2.8c-1.5,6.3-2.9,12.5-4.4,18.8c-0.3,1.3-0.8,2.5-1,3.8
		c-0.2,1.3-1.1,1.6-2.1,1.5c-1.3-0.2-2.6-0.6-3.4-1.8c-0.3-0.4-0.6-0.9-0.6-1.4c0-1.6,0.1-3.2,0.2-4.7c0-0.7,0.2-1.4,0.1-2
		c-0.4-2.9,0.5-5.5,1.5-8.2c1.1-2.9,1.8-5.9,2.7-8.9c1.3-4.4,2.6-8.9,3.9-13.3c0.4-1.6,0.9-3.1,1.2-4.7
		C106.9,117.7,106.7,117.1,106.6,116.6z M100.9,159.9c2.5-6.1,6.8-27.8,6.2-30.1C104.4,139.6,102.1,149.6,100.9,159.9z"/>
	<path class="st0" d="M162.7,69.7c0.2-0.3,0.3-0.6,0.5-0.8c1.7-2.5,3.3-5,5-7.5c0.2-0.3,0.6-0.4,0.9-0.7c0.1,0.4,0.4,0.7,0.4,1.1
		c0.1,2.8-1.6,4.7-3.3,6.5c-0.8,0.8-2.1,1.1-3.2,1.7C162.9,69.9,162.8,69.8,162.7,69.7z"/>
	<path class="st0" d="M112,41.6c0.4,2.2,0.4,2.2-2.3,2.5c-0.2-0.4-0.5-0.8-0.7-1.2C109.5,41.7,110.6,41.3,112,41.6z"/>
	<path class="st0" d="M155.2,46.3c-0.4,0.7-0.8,1.3-1.2,1.9c-0.5-0.3-1.5-0.7-1.5-1c0.1-0.7,0.6-1.4,1-2.1c0.1-0.1,0.6-0.2,0.7-0.1
		C154.6,45.3,154.9,45.8,155.2,46.3z"/>
</g>
</svg>
