<svg id="Layer_1" data-name="Layer 1" xmlns="http://www.w3.org/2000/svg" viewBox="0 0 220.74 226.82"><defs><style>.cls-1{fill:#082934;}.cls-2{fill:#fefefe;}.cls-3{fill:#7bbdd9;}</style></defs><title>christophe3</title><path class="cls-1" d="M221.77,167.42c-2.09-2.34-4.12-4.74-6.37-6.94-0.61-.6-2.27-0.75-1.41-2.31-0.9-.71-0.06-1.29.17-1.87,0.92-2.31,2.05-4.44,2.07-7.13,0-4.28.64-8.56,0.4-12.87a10.83,10.83,0,0,0-.91-4.29,26.68,26.68,0,0,1-2-6.33,71.34,71.34,0,0,0-2.45-8.31,4.13,4.13,0,0,0-3.26-3c-1.1-.22-2.12.16-3.2,0.1-2.62-.15-5.25-0.12-7.87-0.23-2.43-.11-4.84.35-7.27,0.16-3.36-.26-6.71-0.54-10.08-0.72a38.87,38.87,0,0,1-9.77-1.38c-2-.64-4-1.59-6-1.72s-3.27-1.51-4.5-2.63a44.76,44.76,0,0,0-5.75-4.13,25.69,25.69,0,0,0-5-2.17,11.23,11.23,0,0,0-4.85-.81c-2.35.15-4.34,1.28-6.47,2-0.5.18-.74,0.47-0.83-0.45a24.77,24.77,0,0,1,1-7.89c0.15-.65.24-1.2-0.53-1.46-0.5-.17-0.46-0.49-0.27-0.84s0.52-.9.87-1.5a9.1,9.1,0,0,0,1.11,3.32,3.46,3.46,0,0,0,3,1.65c1.22,0,1.47-1.2,1.93-2.05a14.43,14.43,0,0,0,1.11-3,10.51,10.51,0,0,0,2.89,2.08,1.12,1.12,0,0,0,1.63-.52,39.88,39.88,0,0,0,2-4.08c0.59-1.66.6-3.5,1.6-5.11a13.27,13.27,0,0,0,.47,1.34,2.7,2.7,0,0,0,2.25,1.85c1,0,1.49-.81,1.83-1.63a18.72,18.72,0,0,0,1.39-5.4c0-.48,0-0.79.65-0.31,1.21,0.94,1.54.84,2.47-.42,0.3-.4.57-0.83,0.85-1.25a4.16,4.16,0,0,1,.85.87c0.9,1.09,1.72,2.43,3.33,2.4a7.39,7.39,0,0,0,4.76-1.81c2.3-2,3.17-4.8,4.39-7.42a44.07,44.07,0,0,0,1.56-4.86,16,16,0,0,0,.7-6.2c-0.14-2.12-.55-4.21.43-6.3a14.19,14.19,0,0,0,1.23-4.21c0.69-5.54.89-11.11,1.15-16.68,0.13-2.7-.47-5.4.25-8.11a4.27,4.27,0,0,0-.38-3.33c-0.8-1.38-.63-1.65.86-2.43a13.09,13.09,0,0,0,2.21-1.33A1.77,1.77,0,0,0,184.4,16,1.68,1.68,0,0,0,183,14.61a5,5,0,0,0-2.89.05c-0.84.37-.89-0.08-0.75-0.72,0-.19.12-0.38,0.17-0.57a2.66,2.66,0,0,0-1.29-2.95,2.35,2.35,0,0,0-2.67.52A18.87,18.87,0,0,0,173,13.6c-0.18.2-.25,0.53-0.62,0.26-1.4-1-3.2-1-4.67-1.8a6.87,6.87,0,0,0-2.41-.67A38.54,38.54,0,0,1,155,8.59a17.92,17.92,0,0,0-6.83-2.12,35.51,35.51,0,0,1-4.7-.64,39.6,39.6,0,0,0-10.21-.73A30.24,30.24,0,0,0,126,6.18a77.36,77.36,0,0,0-11.17,5.08c-3,1.59-4.79,4.23-6.12,7.22-0.24.55-.59,1.49,0.8,1.14a0.88,0.88,0,0,1,1,.34,0.85,0.85,0,0,1-.43.79,31.09,31.09,0,0,0-5,10.07A1.83,1.83,0,0,1,103,32.2a3.68,3.68,0,0,0-2.62.53,3.16,3.16,0,0,1-1.87.68,2.48,2.48,0,0,0-1.92,1.06c-0.45.6-.86,1.48-1.47,1.68-1.22.39-1.3,1.29-1.39,2.21a15.13,15.13,0,0,1-1,3.76,5,5,0,0,0,3,6.65c1,0.35,2,.85,2.94,1.29,0.35,0.16.53,0.39,0.13,0.7-2.66,2-2.35,4.63-1.33,7.27a1.46,1.46,0,0,1-.32,1.77,18.77,18.77,0,0,0-3,3.89c-0.39.78-1,2-.25,2.43,1.15,0.76,1.72,2.82,3.92,1.76a14,14,0,0,0-1.12,4,3.42,3.42,0,0,0,1.09,3.43c1.35,0.89,2.16-.18,3.07-0.8A23.06,23.06,0,0,1,103,72.8a8,8,0,0,1-.63,2.17c-0.16.74-.36,1.47-0.55,2.19-0.66,2.51-.49,2.89,1.71,4.25a2.81,2.81,0,0,0,2.63.16c1.14-.46,1.15.21,1.21,1,0,0.2,0,.4,0,0.6a4.16,4.16,0,0,0,3.81,3.95,1.52,1.52,0,0,0,1.41-.41,14.76,14.76,0,0,1,1.66-1.32,17,17,0,0,1-.19,2.34c-0.47,3.15-.66,4.34,2.4,5.71a1.51,1.51,0,0,0,2.23-.57,9.79,9.79,0,0,1,2.14-2.56,3.87,3.87,0,0,1,0,1.38,9.7,9.7,0,0,0-.44,3.11,24.08,24.08,0,0,1-.69,8.75,1.46,1.46,0,0,1-.87,1.16,1.14,1.14,0,0,1-.82-1.13,3.62,3.62,0,0,0-1.59-2.27,7.83,7.83,0,0,0-5.2-1.07,60.07,60.07,0,0,0-8.72,1.42,8.93,8.93,0,0,0-4.36,2.1A62.61,62.61,0,0,0,91.35,111,210.2,210.2,0,0,0,78,130.58a38.12,38.12,0,0,1-5.72,7.89c-1.87,1.8-3.84,3.5-4.93,5.94a0.55,0.55,0,0,1-.78.29A4.63,4.63,0,0,0,61.29,146c-0.53.61-.85,0.5-1.19-0.15a11,11,0,0,0-2-2.95,11.73,11.73,0,0,1-2.44-3.62,54,54,0,0,0-2.76-5,15.39,15.39,0,0,1-2.19-4.08,2.64,2.64,0,0,0-1.84-2,6.89,6.89,0,0,0-3.76-.29c-1,.24-2.16.34-2.8-0.72a5.31,5.31,0,0,1-.61-2.16,63.07,63.07,0,0,0-1.59-7.94,38,38,0,0,1-1.3-7.36c-0.12-3.57-.06-7.16-0.34-10.73A5.38,5.38,0,0,0,35,95c-0.84-.19-1.48.43-2.28,0.5a6.77,6.77,0,0,0-3.53,1.62c-2.32,1.87-3.26,4.54-3.77,7.37-0.13.73,0.37,1.92-1.2,1.31a1.34,1.34,0,0,0-.43.19,34.31,34.31,0,0,1-3.59.91c-2.28.34-4.58,0.59-6.88,0.82a7.12,7.12,0,0,0-4.57,2.34,12.53,12.53,0,0,1-2.41,2.14A2.39,2.39,0,0,0,5,114.58c0.32,2.15.53,4.35,2.23,6a0.89,0.89,0,0,1,.33.47c0,1.68,1.15,3.7-1.43,4.6-0.41.14-.42,0.55-0.23,1,0.42,1.06.74,2.16,1.11,3.25,0.22,0.64-.32,1.17-0.08,1.93,1,3.29,3.65,4.45,6.57,5.23a1.92,1.92,0,0,1,1.35,1A3.88,3.88,0,0,0,19,140.2c0.4-.06.8,0,1.2-0.07-1.21.62-1.92,1.78-3.2,2.42a3.9,3.9,0,0,1,1.41,1.7,53.07,53.07,0,0,0,4.18,6.39,36.54,36.54,0,0,1,5.87,8.7,11.62,11.62,0,0,0,1.87,2.76,19.29,19.29,0,0,1,2.76,3.75c1.47,2.91,2.93,5.83,4.4,8.74,1.62,3.2,4.26,5.55,6.73,8.05A37.3,37.3,0,0,0,49,186.81a61,61,0,0,0,10.83,6,13.6,13.6,0,0,0,10.66.63,21.44,21.44,0,0,0,8.83-6.28c0.2-.1.13,0.12,0.2,0.17a51.07,51.07,0,0,0-1.1,8.65c-0.25,4.13-1.17,8.18-1.36,12.31a5.87,5.87,0,0,1-.56,2.79c-1.74,2.89-2.64,6.15-4.12,9.14-0.8,1.62-1.93,3.12-1.25,5.09a1.27,1.27,0,0,1-.09.58c-0.36,1.7.06,2.3,1.77,2.93,1.2,0.44,2.44.71,3.67,1a39.74,39.74,0,0,0,9.11,1.6c2.24,0.06,4.45-.28,6.67-0.3a42.35,42.35,0,0,1,8.82.46,31.84,31.84,0,0,0,5.08.12,54.12,54.12,0,0,0,7.54-.3,91.8,91.8,0,0,1,11.77-.72c4.19,0.08,8.37.36,12.55,0.39a61.49,61.49,0,0,0,12.49-1.09c3.31-.65,6.72-1,9.73-2.7a1.3,1.3,0,0,1,.81-0.06c2.85,0.22,5.58-.06,7.89-2,0.27-.23.63-0.35,0.91-0.56a0.53,0.53,0,0,1,.82,0,5.09,5.09,0,0,0,4,1.13c2.17-.08,4.19-0.93,6.31-1.23,5.19-.75,9.88-3,14.71-4.78a41.75,41.75,0,0,0,5.59-2.94,67.17,67.17,0,0,0,6.08-3.76c4-2.86,7.06-6.65,10-10.54a35.13,35.13,0,0,0,6-11.75c0.8-2.89,1.28-5.82,1.87-8.74C226.39,176.7,225.61,171.71,221.77,167.42ZM186,174.5c-1.19,1.58-.88,3.5-1.27,5.26a3.34,3.34,0,0,0,.19.79c0,0.5.93,0.62,0.64,1.14a6.59,6.59,0,0,1-1.23,1.88c-2.7,2.35-5.4,4.7-8.06,7.1a96.89,96.89,0,0,1-9.14,6.66,20,20,0,0,1-3.18,1.84c-0.45.21-.75,0.2-0.93-0.3-0.77-2.1-2.56-3.24-4.26-4.45a0.55,0.55,0,0,1-.37-0.53c0.3-1.84.39-3.73,2.38-4.79,1.32-.7,1.44-1.15.73-2.51a10.88,10.88,0,0,1-1.1-6c0.14-2.06-.14-4.14-0.18-6.21,0-1.67.88-3.12,1.19-4.72a92.36,92.36,0,0,0,1.88-13,2.06,2.06,0,0,1,.13-0.41c2.67,2.39,5.51,4.4,8.21,6.59,1.61,1.31,3.07,2.8,4.76,4,3,2.11,6.08,4.07,9.17,6C186.25,173.35,186.49,173.82,186,174.5Z" transform="translate(-5 -5)"/><path class="cls-2" d="M143.19,192.31a3.45,3.45,0,0,0-2.63,2c-0.82,1.29-1.32,2.81-2.53,3.86-0.17.14-.45,0.38-0.26,0.59a1.09,1.09,0,0,0,.8.41,3.44,3.44,0,0,1,1.51.08c0.33,0.07.81-.13,0.94,0.31a0.86,0.86,0,0,1-.53.74c-1.51,1.26-1.89,3.37-3.44,4.62-0.37.29-.09,0.71,0.32,0.8,1.13,0.25,1.81,1.31,2.95,1.53a0.43,0.43,0,0,1,.39.38,0.5,0.5,0,0,1-.45.48c-2.26.63-2.45,2.69-2.91,4.45-0.23.88,0.61,1.59,1.34,2a26.39,26.39,0,0,0,2.58,1.25c-0.05.67-.65,0.6-1,0.69-3.08.72-4.41,3.18-5.63,5.7a3.41,3.41,0,0,0,.2,2.68c0.53,1.41.52,1.41-1,1.35a1.05,1.05,0,0,1-.46-0.1,68,68,0,0,1-8-.59c-1.36-.24-2.83.32-4.28,0.33-3.7,0-7.36.84-11.09,0.52-0.83-.07-1-0.14-0.57-0.9,0.75-1.4.35-3,.53-4.46a2.42,2.42,0,0,1,0-.7c1.14-2.26.64-4.69,0.72-7.05a4.05,4.05,0,0,1,1.13-2.82,5.85,5.85,0,0,0,1.12-6.53c-1.46-3.47-1.42-7.09-1-10.73,0.15-1.41,1.09-2.55,1.65-3.83a11.37,11.37,0,0,0,.91-5.72,87.11,87.11,0,0,1-.47-9.55,2.09,2.09,0,0,1,.68-1.77,4.33,4.33,0,0,0,1-2.1c0.77-3.07,1.33-6.21,2.24-9.24a41.46,41.46,0,0,1,2.73-7c1.5-2.9,1.83-6.16,2.53-9.29a18.31,18.31,0,0,1,1.81-4.64c1.31-2.47,1.93-5.22,3-7.8a47,47,0,0,1,2.25-5.27,23.51,23.51,0,0,0,1.73-5.31c0.8-2.88,2-5.64,2.74-8.52a1.35,1.35,0,0,1,1.47.06,13.58,13.58,0,0,0,3.73.88,21.42,21.42,0,0,1,7.91,2.52,29.34,29.34,0,0,1,8.41,7.34,55,55,0,0,0,4.35,4.94c1.08,1.1,1.89,2.45,3.08,3.48,2.29,2,4.11,4.43,6.2,6.61s3.6,4.37,5.4,6.55c2.82,3.42,5.71,6.78,8.71,10a37.66,37.66,0,0,1,2.82,4c1.35,1.91,3.2,3.33,4.72,5.07a114.1,114.1,0,0,1,7.85,10.09,1.09,1.09,0,0,1,.21.68c-0.19.23-.12,0.31,0.47,0.55a2.32,2.32,0,0,1,.08,2c-0.11.27-.32,0.64-0.56,0.53-1.09-.51-0.92.53-0.86,0.83,0.17,0.84-.32,1.87.64,2.51a0.83,0.83,0,0,1,.23.24,2.32,2.32,0,0,0,.23.42c1.22,1.37,1.23,1.37.43,3-0.34.67-.42,1.22,0.45,1.52a0.71,0.71,0,0,1,.66.72c-0.13.48-.64,0.36-1,0.3a1.41,1.41,0,0,1-1-.57,1.9,1.9,0,0,1,.12,1.1,4.2,4.2,0,0,1-.13.7c-0.33.91,1.07,1.94-.06,2.7a13.2,13.2,0,0,0-2,2.2,41,41,0,0,0-3.06,2.84c-1.64,2.09-4.24,2.93-5.91,4.91a0.41,0.41,0,0,1-.16.17c-2.34.24-3.49,2.63-5.74,3.16a3.28,3.28,0,0,0-2.5,2,0.45,0.45,0,0,1-.29.35c-2.2.38-3.33,2.33-5,3.44-0.83.55-1.52,1.29-2.32,1.89a1,1,0,0,1-1.17.35c-1.47-2.25-2.4-4.83-4.06-7a18.67,18.67,0,0,1-2-3.48c-0.24-.49-0.27-0.95.42-1.09,4.73-1,8.38-3.92,12-6.84,2.51-2,5.24-3.75,7.59-6,1.56-1.48,3.15-2.91,3.79-5.06a0.77,0.77,0,0,1,.93-0.62c1.05,0,2.18.14,3-.89a0.77,0.77,0,0,0,.08-1c-0.49-1.24-1.69-2.27-1.68-3.54,0-1.48-.37-3.06.69-4.52,1.2-1.65,1-2.1-.72-3-2.14-1.16-4-2.81-6.09-4a38.89,38.89,0,0,1-6.18-4c-3.38-2.76-7.2-5-10.37-8a8,8,0,0,0-2.78-2c-1.47-.52-2.26-1.94-3.47-2.84a43.4,43.4,0,0,1-7.85-8.26,1.43,1.43,0,0,0-1.61-.35c-0.89.11-.71,0.91-0.81,1.51-0.94.55-1.11,0.55-1.86,0a2.05,2.05,0,0,1-.84,2.21,1.66,1.66,0,0,0-.57,1.26c-0.56,3.54-.93,7.09-1.22,10.66a0.54,0.54,0,0,0,0,.35c0.94,0.93.41,1.75-.17,2.58a0.84,0.84,0,0,0-.14.57c0.31,2-.52,4,0.3,5.89a1.91,1.91,0,0,1,.1.31,2.34,2.34,0,0,0,.21,1.06,1.14,1.14,0,0,1-.09.33c0,0.16-.07,0,0,0.11,0.42,1.39,0,2.85.26,4.19a8.54,8.54,0,0,1-1.09,5.74c-1.43,2.93-2.57,5.93-2.41,9.27a5.6,5.6,0,0,0,.43,2.21,3.4,3.4,0,0,1,.24,1.75C144.86,191.89,144.11,192.19,143.19,192.31Z" transform="translate(-5 -5)"/><path class="cls-2" d="M73.59,147.4a10.16,10.16,0,0,0-3.4-1.29,1.43,1.43,0,0,1-1.06-.7c-0.23-.45.31-0.67,0.6-0.89a39.77,39.77,0,0,0,9.73-10.29q2.89-4.53,5.77-9.05c1.6-2.51,3.83-4.49,5.69-6.77,1.58-1.94,3.16-3.89,4.77-5.81a25.07,25.07,0,0,1,14.38-8.31,1.45,1.45,0,0,1,1.5.42,13.12,13.12,0,0,0,3.7,2.6,0.88,0.88,0,0,1,.58,1.28,34.54,34.54,0,0,0-1.51,6.86c-0.31,2.62-.45,5.27-0.66,7.91-0.85.23-.73-0.43-0.78-0.88a22.28,22.28,0,0,0-.14-2.95c-0.09-.3-0.16-0.62-0.26-0.92-0.45-1.36-.73-1.37-2.11-0.89a2.29,2.29,0,0,0-1.75,2.29c-0.25,2.56-1.34,4.92-2.08,7.37-1.6,5.28-2.91,10.64-4.3,16-0.65,2.52-2,4.8-2.65,7.32a3.89,3.89,0,0,0-.19,1.89,11,11,0,0,1-.16,4.52,22.42,22.42,0,0,0,0,4.54c0.06,1.85,3,3.29,4.8,2.51a2.58,2.58,0,0,1,.76-0.34l0.24,0c0.5,0.07,1,.68,1.45.28a3.89,3.89,0,0,0,1.55-1.92c0.12-.59.28-1.17,0.35-1.76,0.5-3.92,1.8-7.69,2.2-11.64a23.85,23.85,0,0,1,.33-3.45,1.3,1.3,0,0,1,.56-1.11,2.38,2.38,0,0,1,.07,1.58c0,3.75-.18,7.49-0.41,11.23a20.87,20.87,0,0,0,.09,4.43c0.3,2-.35,4-0.23,6.08,0,0.6-.55.64-0.94,0.71a2.1,2.1,0,0,0-1.94,2.25,45,45,0,0,0-.18,7.38,38,38,0,0,1,.26,7.75,19.06,19.06,0,0,1-1.23,4.22c-0.83,2.37-.79,4.86-1.35,7.25a9.08,9.08,0,0,0,.25,3.53c0.31,1.72.61,3.44,1.07,5.14,0.53,1.93-.54,3.65-1.18,5.39a6.31,6.31,0,0,0-.55,2.18,24.81,24.81,0,0,1-.79,6.64,2.87,2.87,0,0,0,0,1.65,8,8,0,0,1,0,3.53,1,1,0,0,1-1,.94c-3.45.67-6.95,0.88-10.41,1.38a25.24,25.24,0,0,1-7.16-.19,44.22,44.22,0,0,1-7.51-1.37c-0.5-.16-1.33,0-1.43-0.61-0.13-.84-0.61-1.71-0.19-2.57,1.64-3.37,2.57-7,3.95-10.46a8.25,8.25,0,0,0,.28-1.89c0.43-2.79.5-5.71,1.44-8.32,1.47-4.09,1.43-8.35,2.16-12.51,0.12-.7.34-1.39,0.45-2.1,0.29-1.94.4-3.92,0.84-5.82S87,177.92,87.34,176c0.46-3,1.07-5.91,1.32-8.92a65.11,65.11,0,0,1,1-6.71c0.52-2.77,1.44-5.5,1.64-8.28a38.41,38.41,0,0,1,.87-6.3c0.53-2.2,1-4.4,1.37-6.62a26.42,26.42,0,0,1,1-5.25c0.28-.76-0.47-1.18-1-1.64-1.56-1-3.41-1.3-5.07-2.05a1.32,1.32,0,0,0-1.66.56c-1.2,1.41-1.92,3.13-3,4.6a22.48,22.48,0,0,0-2.66,4.54,7.34,7.34,0,0,1-2.34,3,27.51,27.51,0,0,0-4,4C74.55,147.24,74.24,147.76,73.59,147.4Z" transform="translate(-5 -5)"/><path class="cls-3" d="M199.43,182c-0.78.17-1-.15-1-0.93,0-1.18-.49-2.45.76-3.4,0.35,0.15-.17.66,0.2,0.71s0.28-.42.41-0.64c0.36-.58-0.09-1.13,0-1.69,0.7-.64,1.44-0.22,2.13,0a32,32,0,0,0,5.13,1.11,58.55,58.55,0,0,0,6.06-.06,27.6,27.6,0,0,0-10.2-2.2,7.25,7.25,0,0,0-2.09.45,1.86,1.86,0,0,1-1.49.18,96.12,96.12,0,0,0-6.89-9.15c-2-2.37-4.54-4.27-6.23-6.9-3.81-5.95-9.23-10.57-13.29-16.3-1.79-2.53-4.21-4.51-6-7-1.65-2.24-4-3.72-5.73-5.91-1.58-2-3.42-3.84-5-5.84a25.6,25.6,0,0,0-3.87-4.28c-3-2.35-6.06-4.68-10.07-5.23a14.59,14.59,0,0,0-3.85-.52,3.29,3.29,0,0,1-2.16-.77,3.87,3.87,0,0,0-1.54-.47,12.35,12.35,0,0,1,.69-2.53,2.69,2.69,0,0,0,.17-2.14c-0.46-1.16.62-1.79,1.41-2.15,3-1.37,6.09-2.39,9.49-1.22a25.45,25.45,0,0,1,4.54,2.39,57.39,57.39,0,0,1,11.83,9.79c2.23,2.29,5,4,7.33,6.11,1.76,1.6,3.5,3.24,5.31,4.76,2.23,1.87,4.22,3.94,6.28,6a77.51,77.51,0,0,1,6.32,7.26c2,2.53,4.72,4.4,6.82,6.86,1.78,2.09,3.44,4.3,5.34,6.29,3.66,3.85,6.93,8,10.52,11.93,1.32,1.44,2.61,2.91,3.93,4.35a25.47,25.47,0,0,0,7.37,5.65c1.31,0.66,1.46,1.56,1.05,2.87-0.81,2.58-1.93,5.06-2.65,7.67a28.18,28.18,0,0,1-2.09,5.84c-1.8,3.36-4.34,6.19-6.62,9.21a27.24,27.24,0,0,1-10.92,8.52c-5.23,2.33-10.36,4.92-15.73,7a88.19,88.19,0,0,0-8.81,3.81c-0.46.23-.73,0.23-0.83-0.37a2.53,2.53,0,0,0-.91-1.51c-1.09-.93-1.36-2.32-1.92-3.53-0.44-.95-1-1.81-1.54-2.69a13,13,0,0,0,3.39-2.59,34,34,0,0,0,3.46-2.87,1,1,0,0,1,1.26-.4c0.15,0.08.35,0.17,0.42-.17,0.36-1.64,1.89-2,3.12-2.5a8.24,8.24,0,0,0,1.73-1c1-.76,1.88-1.81,3.32-1.83a0.24,0.24,0,0,0,.17-0.09c1.21-1.68,3.45-2.18,4.63-3.62,1.67-2,4.15-3.2,5.41-5.57a1.22,1.22,0,0,1,.51-0.64c1.22-.24.88-1,0.62-1.73-0.42-1.1.28-2.12,0-3.5a2,2,0,0,0,2.15,1,1.57,1.57,0,0,0-.36-0.39c-1.64-.66-1.8-0.93-0.79-2.35a1.3,1.3,0,0,0-.39-2.14c-0.28-.2-0.63-0.43-0.27-0.86,1.67-.23,3.22.43,4.83,0.67a44.41,44.41,0,0,0,7.43,0,6.74,6.74,0,0,0-3.38-.61c-1.87,0-3.75.08-5.62-.07a1.5,1.5,0,0,1-.91-0.21c-0.41-.44-0.32-1.34-1.22-1.36a2.37,2.37,0,0,1-.3-0.21c0,0.17.18,0,.18,0.15l0.23,0.19a1.11,1.11,0,0,1,0,1.27A2.44,2.44,0,0,1,199.43,182Z" transform="translate(-5 -5)"/><path class="cls-3" d="M73.59,147.4a1.39,1.39,0,0,0,1.19-.87,16.81,16.81,0,0,1,3.27-3.36,9.26,9.26,0,0,0,3-3.62c1.5-3.23,3.71-6,5.61-9a1.51,1.51,0,0,1,2.05-.62,16.69,16.69,0,0,0,3.57,1.21,2.12,2.12,0,0,1,1.31,1.16,1,1,0,0,1-.23.06c-2.14,0-2.21,0-2.73,2.21a54.52,54.52,0,0,0-1.23,7.51,58.35,58.35,0,0,1-1.55,8.06c-0.86,3.6-1.49,7.23-2,10.89-0.42,2.91-1.1,5.77-1.55,8.68s-1.31,5.4-1.91,8.12c-0.14.64,0,1.5-1,1.68a0.65,0.65,0,0,0-.24.63c-0.43,2.62-2.2,4.3-4.22,5.7-1.14.79-2.32,1.54-3.47,2.33a6.21,6.21,0,0,1-2.74,1.06c-0.26-1.48-.4-3-0.68-4.47a41.06,41.06,0,0,0-3.33-9.22,8.87,8.87,0,0,0-2.79-2.93c-5.59-4.66-10.68-9.86-16.16-14.65a49.53,49.53,0,0,1-7.83-9.2,64.73,64.73,0,0,1-6.71-12.42c3.21-1.33,6.12-3.26,9.32-4.6a17.6,17.6,0,0,1,2.79-.63,0.62,0.62,0,0,1,.81.33c1.46,3.33,4.1,5.9,5.79,9.06A52.87,52.87,0,0,0,59.6,151a50.6,50.6,0,0,0,6,5.09c2.78,2.25,4.59,5.3,6.59,8.18a6.56,6.56,0,0,0,2.34,2A1.17,1.17,0,0,0,76,166a0.93,0.93,0,0,0,.13-1.21,27.18,27.18,0,0,0-2.46-4.35,45.33,45.33,0,0,0-4.5-6.1A5.25,5.25,0,0,1,67.79,153l13.82,5.31c-0.1-1.36-1-2-2-2.75s-1.51-1.83-2.55-2.47a17.39,17.39,0,0,0-3-1.89c-1.1-.41-2.18-0.88-3.49-1.3A1.38,1.38,0,0,1,72,149.7l3.18,0.59c0.27,0.05.55,0.21,0.75-.11a0.63,0.63,0,0,0-.25-0.84C75,148.68,74.28,148,73.59,147.4Z" transform="translate(-5 -5)"/><path class="cls-2" d="M162.35,40.16c-4-.71-7.95-1.17-12-1.48-1.64-.13-3.27-0.48-4.9-0.76a4.78,4.78,0,0,0-2.56.22,23,23,0,0,0-3.6,1.89,13.21,13.21,0,0,1-1.7,1.18,2.06,2.06,0,0,0-1.22,1.35c-0.22.63-.46,0.63-1,0.44a20.89,20.89,0,0,0-5.31-.65c-0.86,0-1.45-.3-1.21-1.34,0.4-1.76-1.09-2.73-2.08-3.28-1.72-1-3.1-2.52-5.05-3.06-1.61-.44-3.24-0.8-4.86-1.22a23,23,0,0,0-7.86-1c-0.58.05-1.29-.09-0.79-1a98,98,0,0,1,4.74-8.81c0.53-.79,1.12-1.55,1.69-2.31A0.65,0.65,0,0,1,115,20c2.46,0.52,4-1.41,5.84-2.33a0.89,0.89,0,0,1,.92-0.07c2.2,1,4.34,1,6.26-.66a1,1,0,0,1,1.4,0,6.48,6.48,0,0,0,5.44,1,2.88,2.88,0,0,1,2.3.27,6.89,6.89,0,0,0,5.74.3A9,9,0,0,0,144,18c0.55-.33.9-0.32,1.2,0.35a3.49,3.49,0,0,0,2.51,1.88,10.53,10.53,0,0,0,6.55-.16,0.75,0.75,0,0,1,1,.28,7.24,7.24,0,0,0,5.69,2.35,1.82,1.82,0,0,1,1.8.85A3.37,3.37,0,0,0,164.34,25a0.65,0.65,0,0,1,.17.44c-0.52,4.55-.26,9.17-1.2,13.68C163.2,39.66,163.25,40.39,162.35,40.16Z" transform="translate(-5 -5)"/><path class="cls-2" d="M147.07,84.48a7.88,7.88,0,0,1,1-3.18c0.48-.87.16-1.37-0.78-1.2a11.52,11.52,0,0,0-2.9.85c-0.49.23-.35,1.08-0.29,1.53,0.54,4.14-.93,7.75-2.78,11.28a0.57,0.57,0,0,1-.45.49c-0.34,0-.25-0.33-0.3-0.55a23.67,23.67,0,0,1-.18-7.25c0.08-1.12.19-2.23,0.27-3.34,0.06-.79-0.23-1.08-1.08-0.86a2.8,2.8,0,0,0-2.41,2.34,44.28,44.28,0,0,1-3.2,9.1,10.66,10.66,0,0,0-1.5,2.84,0.57,0.57,0,0,1-.41.37c-0.38,0-.35-0.41-0.33-0.66,0.1-2,.17-3.91.37-5.85a22.58,22.58,0,0,1,1.73-7.29,0.93,0.93,0,0,0,0-1.13,1.1,1.1,0,0,0-1.23-.11,16.18,16.18,0,0,1-2,.68,0.86,0.86,0,0,0-.57.8,56.06,56.06,0,0,1-4.8,10.39,0.43,0.43,0,0,1-.43.34c-0.31-.07-0.24-0.37-0.27-0.59a14.19,14.19,0,0,1,.29-5,28.51,28.51,0,0,1,1.47-6c0.29-.68,1.25-1.31.58-2.14s-1.47,0-2.2,0c-2.08-.05-1.94,1.66-2.25,2.8-0.9,3.33-2.85,6-4.94,8.69a1.25,1.25,0,0,1-.33-1.26A29.76,29.76,0,0,1,119.74,79c0.25-.54.33-1.13,0.61-1.67a0.68,0.68,0,0,0-.57-1.06,3.27,3.27,0,0,0-2.58,1c-1.83,2.22-3.21,4.76-5.11,6.91l-1.22,1.41a9,9,0,0,1,.21-4.36,20.36,20.36,0,0,1,3.36-7.44,0.93,0.93,0,0,0,.11-1.3,1.21,1.21,0,0,0-1.28-.3,7.25,7.25,0,0,1-2.07.22A1.83,1.83,0,0,0,109.46,74a11.61,11.61,0,0,1-4.29,6,0.7,0.7,0,0,1-.81.31,0.82,0.82,0,0,1-.12-0.79,18.25,18.25,0,0,1,3.18-9.37,3.94,3.94,0,0,0,.49-0.82c0.17-.46.62-0.92,0.17-1.44s-0.82.09-1.2,0c-1.65-.27-2,0.93-2.62,2a15.4,15.4,0,0,1-4.72,4.79c-0.47.32-.7,0.07-0.63-0.41a10.52,10.52,0,0,1,.43-1.74,30.67,30.67,0,0,1,3.4-6.83,15.24,15.24,0,0,1,1.75-1.94,2,2,0,0,0,.51-0.5c0.5-1.45,1.83-1.66,3-2.11a6.2,6.2,0,0,0,1.37-.73c0.85-.59,1.65-0.89,2.42.09a1.4,1.4,0,0,0,1.63.43c0.94-.33,2-0.24,2.84-0.83,0.48-.34.66-0.2,0.69,0.41a2.07,2.07,0,0,0,3.35,1.4,2.55,2.55,0,0,1,1.21-.71c0.47-.07.82-0.13,1,0.58a4.53,4.53,0,0,0,2.19,2.41,1.67,1.67,0,0,0,2.27-.45c0.46-.55.88-1.11,1.43-1.8a6.84,6.84,0,0,0,2.13,2.35c1.25,1.17,2.35,1,3.18-.45,0.27-.48.52-1,0.76-1.47a2.76,2.76,0,0,1,.64-1.36,1.61,1.61,0,0,1,.26,1.27c0.2,1.58,2.89,3.25,4.14,3.3a1.45,1.45,0,0,0,1.24-.82,7.61,7.61,0,0,0,1.2-2.18,9.83,9.83,0,0,0,3.74,3.4c0.5,0.29.12,0.67-.24,0.74-2,.41-4,1.3-6.08,1.4a57.84,57.84,0,0,1-8,.31,36,36,0,0,1-11.24-2.37,24.17,24.17,0,0,1-6.31-3.56,5,5,0,0,0-4.56-1.15c2.47,3.79,6,5.75,10.07,7,2.1,0.64,4.17,1.37,6.3,1.88a32.36,32.36,0,0,0,18.47-.82,18.41,18.41,0,0,0,5.92-3.27c0.44-.37.53,0,0.71,0.24a5.52,5.52,0,0,0,2.74,2,1.24,1.24,0,0,1,.09,1.45c-0.46,1.49-1,3-1.53,4.41-1.45,3.85-2.73,7.77-4.13,11.64a1.6,1.6,0,0,1-.9,1.26A7.73,7.73,0,0,1,147.07,84.48Z" transform="translate(-5 -5)"/><path class="cls-2" d="M33.21,136.33a0.8,0.8,0,0,1,.68.72A55.9,55.9,0,0,0,45.6,155.26c5,5.15,10.43,9.87,15.75,14.68,1.57,1.42,3.24,2.73,4.73,4.23s1.86,3.51,2.66,5.32a30,30,0,0,1,2.06,8.08,7.28,7.28,0,0,1-.08,1.64,5.84,5.84,0,0,1-4.84-.32,104.58,104.58,0,0,1-12.38-6.24A46.71,46.71,0,0,1,47.71,178c-1.06-.93-2.42-1.52-3.32-2.69a12.43,12.43,0,0,1-1.84-2.5c-0.66-1.57-2-2.59-2.87-4-1.64-2.76-3.67-5.26-5.37-8-1.42-2.28-3.12-4.41-4.49-6.69-2.08-3.48-4.84-6.51-6.56-10.21a4.36,4.36,0,0,0-.59-0.89c-1.1-1.35-1.15-1.41.25-2.44a15.58,15.58,0,0,1,6.23-2.88A32.67,32.67,0,0,0,33.21,136.33Z" transform="translate(-5 -5)"/><path class="cls-3" d="M174,120.2a8.6,8.6,0,0,1,3.41,1.67c2.46,2,5.49,2.47,8.34,3.45a14.87,14.87,0,0,0,9.05-.13c0.26-.07.56,0,0.82-0.12s1,0.13,1.17-.36a1.39,1.39,0,0,0-.79-1.24,3.93,3.93,0,0,0-2.64-.57,20,20,0,0,1-6.56-1.5c-2.13-.72-4.28-1.42-6.45-2a23.14,23.14,0,0,1-2.68-1.28c-1.24-.5-2.45-1.09-3.8-1.7a1.27,1.27,0,0,1,1.07-.24c4.12,0.39,8.24.83,12.37,1.17a69.05,69.05,0,0,0,9.2.32c3-.15,6-0.41,9-0.67a1.78,1.78,0,0,1,1.8.86,14.45,14.45,0,0,1,2.42,5.8,22.14,22.14,0,0,0,1.29,4.35,22.44,22.44,0,0,1,1.32,7.21,72.65,72.65,0,0,1-.71,15.27c-0.18,1.24-1.14,2.06-1.48,3.22-0.54,1.87-.66,1.88-1.89.48-2.7-3.09-5.3-6.27-8.12-9.26-1-1.1-2.23-2-3.23-3.19-2.68-3.09-5.47-6.07-8.2-9.12a11.64,11.64,0,0,0-2.6-2.1A46.47,46.47,0,0,1,182,127l-7.25-5.81a2.11,2.11,0,0,1-.84-0.82A0.16,0.16,0,0,1,174,120.2Z" transform="translate(-5 -5)"/><path class="cls-3" d="M147.56,167.1c-0.88-.12-0.35-0.6-0.24-1l0,0,0,0a3.46,3.46,0,0,1-.61-3.28c0.3-1.21-.33-2.36.09-3.53a1.63,1.63,0,0,1,.38-0.83c0.42-.36,1.23-0.8-0.1-1.05-0.28-.05-0.22-0.39-0.19-0.62,0.23-2.11.4-4.23,0.71-6.33,0.22-1.53.29-3.07,0.61-4.6,0.17-.82.15-1.56,1.08-1.87a0.6,0.6,0,0,0,.21-0.28c0.79-1.33.79-1.33,2.32-1.44,0.21,2.19,1.69,3.62,3.08,5.08s2.75,2.76,4.13,4.14a1.44,1.44,0,0,1,.5,1.28,24.47,24.47,0,0,1-1.34,6.53,13.46,13.46,0,0,0-1,4.4,12,12,0,0,1-1.34,4.91c-1.44,2.69-1.25,5.54-.73,8.4a9.68,9.68,0,0,1,0,4.26,4,4,0,0,0,.47,3c0.9,1.66.9,1.86-.49,3a5.08,5.08,0,0,0-1.83,4.21c0,0.61-.06.82-0.79,0.7a15.21,15.21,0,0,0-6.46.23,9.1,9.1,0,0,1-2.85-.17,2.08,2.08,0,0,0,1.32-3c-0.93-1.77-.65-3.61-0.39-5.39a22.27,22.27,0,0,1,2.47-7,6.7,6.7,0,0,0,.86-5,2.67,2.67,0,0,1,.13-2.2,0.94,0.94,0,0,0-.27-1.05,1,1,0,0,1,.24-1.63h0Z" transform="translate(-5 -5)"/><path class="cls-2" d="M154.68,65.52c-1.74.8-1.75,0.81-2.53-.79-0.31-.64-0.54-1.33-0.83-2-0.62-1.41-1.19-1.41-2.63-1.06a3.42,3.42,0,0,0-2.24,2.07c-0.54,1-.88.69-1.2-0.09-0.4-1-.77-1.92-1.12-2.89s-1-1.11-1.94-1c-1.84.29-2.26,1.91-3.19,3.06a0.8,0.8,0,0,1-.67.58,0.86,0.86,0,0,1-.53-0.73c-0.44-1.17-.08-2.47-0.63-3.62-0.17-.36,0-0.94-0.67-1a1.54,1.54,0,0,0-1.47.59q-1.3,1.79-2.69,3.51a1.21,1.21,0,0,1-1,.72c-0.41-.1-0.31-0.68-0.42-1.06a5,5,0,0,1-.16-0.94A1.94,1.94,0,0,0,128,59.18a0.45,0.45,0,0,0-.42.36c-0.05,1.42-1.39,2-2,3a0.54,0.54,0,0,1-.57.35c-0.3-.08-0.2-0.39-0.28-0.6a3.86,3.86,0,0,1,.28-2.57c0.24-.81,0-1-0.78-0.91a4.13,4.13,0,0,0-2.28.92,6.27,6.27,0,0,1-2.38,1.33c-0.3.07-.61,0.33-0.88,0a0.88,0.88,0,0,1,0-.91c0.3-.86.64-1.7,1-2.59a1.65,1.65,0,0,0-1.91.65c-1.16,1.27-2.84,1.58-4.4,2.06-0.6.18-.63-0.33-0.47-0.76a4,4,0,0,1,1.5-2.11c0.26-.17.62-0.33,0.43-0.73s-0.55-.21-0.86-0.19a5,5,0,0,0-3.59,2.17c-1,1.22-2.53,1.65-3.91,2.22-0.42.17-.46-0.32-0.29-0.72a9.5,9.5,0,0,1,3-3.66c0.27-.22.89-0.26,0.59-0.83s-0.72-.24-1.14-0.28c-1.49-.16-2.55.11-3.22,1.69-0.31.74-1.52,0.73-2.33,1a0.24,0.24,0,0,1-.34-0.21,0.51,0.51,0,0,1,.32-0.59,6.58,6.58,0,0,0,1.6-1.22c0.65-.47.46-0.77-0.13-1.13a2.57,2.57,0,0,0-2.74.19,1.82,1.82,0,0,1-1.05.5,10.75,10.75,0,0,1,.75-2.81c0.34-.59-0.14-1.57.52-1.66a7.06,7.06,0,0,1,2.55.43,53.94,53.94,0,0,0,6.17,1,20.23,20.23,0,0,0,6.46.08,0.54,0.54,0,0,1,.59.48,6.71,6.71,0,0,0,1,1.5,2.61,2.61,0,0,0,3,.85c0.81-.35.84-0.73,0.21-1.3A8.69,8.69,0,0,1,119.87,52c-0.46-.84-0.63-3-0.14-3.74a2.72,2.72,0,0,1,3-.66,1.05,1.05,0,0,1,.6,1.19,3.71,3.71,0,0,0,3,3.85,21,21,0,0,1,2.1.88,1.92,1.92,0,0,0,2.34-.61,5.53,5.53,0,0,0,1.57-4.12A1.68,1.68,0,0,0,130.81,47a7.73,7.73,0,0,1-2-.67,0.94,0.94,0,0,1-.7-1.21,0.69,0.69,0,0,1,.83-0.3,58,58,0,0,1,6,1.16,0.77,0.77,0,0,1,.67,1.09,6,6,0,0,0,.43,4.37,4.76,4.76,0,0,0,2,2,30.2,30.2,0,0,0,9,3.29c2.25,0.47,4.43,1.3,6.65,2,0.91,0.27,1.84.5,2.76,0.75,0.34,0.11.73,0.2,0.58,0.7-0.49,1.72-1.08,3.4-1.72,5.07A0.73,0.73,0,0,1,154.68,65.52Z" transform="translate(-5 -5)"/><path class="cls-3" d="M112.39,16.88a8,8,0,0,1,3.64-4c1.75-1.06,3.84-1.41,5.6-2.4,3.84-2.16,8-1.93,12.1-1.7,2.65,0.15,5.26.82,7.94,1a23.14,23.14,0,0,1,6.25.83,46.85,46.85,0,0,0,9.6,2.33c3.26,0.38,6.43,1.1,9.61,1.79,1.07,0.23,2.11.48,2.59,1.63,0.31,0.74,1.1.58,1.65,0.77a11.19,11.19,0,0,0,2.89.22c0.64,0,.65-0.84.81-1.54a3.23,3.23,0,0,0,1.63,1.16c0.54,0.11.67,0.58,0.57,1.23-0.4,2.54-1.22,5-1.41,7.58a1.66,1.66,0,0,1-2.13,1.46,1.89,1.89,0,0,1-1.39-2.08,5.28,5.28,0,0,0,.28-0.91c0-.77-0.46-1.37-1.17-1.09-1,.41-2.06,0-3.06.37-0.61.24-1.32-.91-0.92-1.58a1.28,1.28,0,0,0-.07-1.54c-0.37-.52-0.91-0.25-1.42-0.2-1.26.13-2.42,0.68-3.72,0.7-1.71,0-2.35-.68-1.83-2.28a1.77,1.77,0,0,0-.47-1.86,1.25,1.25,0,0,0-1.64-.14,6.52,6.52,0,0,1-2.44.29,2.36,2.36,0,0,0-2.13,1.53c-0.4.81-2.79,1-3.74,0.43s-1-1.44-.24-2.67a7.27,7.27,0,0,0,.59-1,0.71,0.71,0,0,0-.65-1.1,10.45,10.45,0,0,0-2.48-.08,3.46,3.46,0,0,0-2.81,1.69c-0.79,1.31-2.42,1.6-3.86,1.85-0.63.11-.8-0.61-0.64-1.14a3.19,3.19,0,0,1,1.19-1.88,0.76,0.76,0,0,0,.44-1,0.91,0.91,0,0,0-1-.57c-1.15.31-2.37,0.1-3.51,0.5s-1.92.73-1.64,2.17c0.15,0.81-.78.91-1.3,1.17a1.23,1.23,0,0,1-1.55-.18,0.84,0.84,0,0,1,0-1.1c0.31-.51.67-1,0.93-1.54s0.13-1.17-.55-1.12a4.4,4.4,0,0,0-2.2.44,2.72,2.72,0,0,1-1.42.56,0.73,0.73,0,0,0-.77.46c-0.36,1.74-2,2.07-3.16,3a0.83,0.83,0,0,1-1.19.07,1.05,1.05,0,0,1-.06-1.23,5,5,0,0,1,1.26-1.73,0.7,0.7,0,0,0,.27-1,0.91,0.91,0,0,0-1.07-.32,4.84,4.84,0,0,0-1.36.39,12.73,12.73,0,0,1-2.37,1.16,1.14,1.14,0,0,0-.32,1.6,0.81,0.81,0,0,1-.24,1.14,10.87,10.87,0,0,1-3.55,1.94c-0.24.06-.53,0.38-0.74,0a0.75,0.75,0,0,1,.2-0.77,26.06,26.06,0,0,0,2.13-3.72c0.22-.51.75-1.08,0.21-1.49a1.44,1.44,0,0,0-1.69.4,6.36,6.36,0,0,0-1.11,1.24C115,16,113.58,16.25,112.39,16.88Z" transform="translate(-5 -5)"/><path class="cls-2" d="M115.36,160.14c-0.06-1.76.46-3.44,0.43-5.2-0.08-4.64.34-9.26,0.63-13.88,0.19-3,.42-5.9.37-8.88a107,107,0,0,1,.89-11c0.2-2.22.38-4.45,0.6-6.67,0.06-.65.21-1.29,0.33-2,3.27,3.07,6.79,4.75,11.24,3.29,0.2,1.6-.78,2.92-1.18,4.39-0.88,3.21-1.79,6.42-2.78,9.61-0.73,2.35-1.77,4.61-2.38,7-0.76,2.93-2,5.69-2.85,8.56s-1.31,5.58-2.41,8.23C117.34,155.81,116.32,158,115.36,160.14Z" transform="translate(-5 -5)"/><path class="cls-2" d="M97,41.1c-0.45-1.44.55-2.62,0.69-3.95a0.92,0.92,0,0,1,.59-0.55,8.17,8.17,0,0,1,6.23-1.39,101,101,0,0,1,15,3.2c1.09,0.34,2.17.71,3.24,1.1a1.23,1.23,0,0,1,.85,1.18c0.1,1.31-.34,2.6-0.08,3.91,0.05,0.27-.11.39-0.45,0.33-1.83-.35-3.13.48-4.34,1.8a4.73,4.73,0,0,0-1.57,3.09c0,0.59-.43.64-0.85,0.51-1.73-.58-3.56-0.4-5.33-0.77-2.89-.59-5.94-0.23-8.75-1.29-1-.37-2-0.55-3-0.94a2.14,2.14,0,0,1-1.48-2.21,2.45,2.45,0,0,0-.66-2.19C96.54,42.45,97,41.71,97,41.1Z" transform="translate(-5 -5)"/><path class="cls-2" d="M140.33,48.53a30.78,30.78,0,0,1,1-6.59,0.84,0.84,0,0,1,1.11-.77c5.39,0.76,10.84,1.07,16.2,2.13A25.91,25.91,0,0,1,165,46c1.06,0.53,1.09,1.46.93,3-0.24,2.29-.88,4.49-1.13,6.77-0.07.69-.45,0.5-0.81,0.52a21.25,21.25,0,0,1-7.49-1.08c-3.14-1-6.38-1.6-9.59-2.33-1.45-.33-2.85-0.87-4.34-1.07a4.42,4.42,0,0,1-2.05-1.17C139.76,50,140.6,49.2,140.33,48.53Z" transform="translate(-5 -5)"/><path class="cls-2" d="M158.16,217.17c-0.72-.79-1.69-0.31-2.53-0.44a32.72,32.72,0,0,1-8.77-2.46c-1.49-.68-3.17-1-4.61-1.83-0.26-.16-0.68-0.21-0.62-0.62s0.49-.34.78-0.41a14.2,14.2,0,0,1,7.72-.05,3.6,3.6,0,0,0,3.64-.66c0.85-.73,2-0.8,2.9-1.61s0.92-1.12-.15-1.54a13.74,13.74,0,0,0-5.24-1.15,28.8,28.8,0,0,1-8.62-1.2c-0.81-.25-1.93-0.86-1.81-1.38,0.17-.7,1.19-1.19,2-1.52,2.28-.89,4.59-0.34,6.87-0.07,1.48,0.17,2.85.46,4.2-.54a6.9,6.9,0,0,1,2.18-.59,0.72,0.72,0,0,0,.53-0.72c0-.46-0.33-0.46-0.64-0.54a28.36,28.36,0,0,1-3.3-1.33c-2.5-1-5.14-.79-7.71-1.2a3.94,3.94,0,0,1-2-.45,5.88,5.88,0,0,1,2.2-1.12,22.24,22.24,0,0,1,10.95,0,16.14,16.14,0,0,1,2.3.94,1.25,1.25,0,0,1,.86.92,5.29,5.29,0,0,0,1,2.14c0.44,0.66.73,1.36,0,2a0.56,0.56,0,0,0-.06.83c1.09,2.08,1.93,4.29,3.21,6.28,0.58,0.9.5,2,.89,3,0.54,1.32,1.17,2.61,1.76,3.91,0.12,0.6-.39.66-0.72,0.71-2.2.3-4.39,0.6-6.57,1A0.54,0.54,0,0,1,158.16,217.17Z" transform="translate(-5 -5)"/><path class="cls-3" d="M24.67,135c1.35-1.44,2.93-2.68,3.75-4.56,0.44-1,.53-2-0.51-2.62-0.52-.33-0.54-0.54-0.19-1a1.85,1.85,0,0,0,.18-2.23,1,1,0,0,1,.23-1.28,7.7,7.7,0,0,0,1.58-3.4,0.35,0.35,0,0,0,0-.23c-0.89-1.49.54-2.38,0.91-3.55a0.6,0.6,0,0,0,.49-0.71,5.92,5.92,0,0,0-.7-3.09,9,9,0,0,1-.77-4.67c0-2.35-.25-4.68-0.21-7,0.51-1.53,3.45-2.49,5.06-2.14,0.73,0.16,1.6,1.83,1.7,3,0.22,2.42-.14,4.83,0,7.26A63.4,63.4,0,0,0,38.8,124c0.48,1.52.8,3.08,1.22,4.62a0.82,0.82,0,0,1-.49,1.14c-3,1.46-6,3.21-9.34,3.87a23.64,23.64,0,0,0-4.19,1.7A3.82,3.82,0,0,1,24.67,135Z" transform="translate(-5 -5)"/><path class="cls-3" d="M154.68,65.52c0.73-1.18.87-2.59,1.42-3.84a6.58,6.58,0,0,1,.45-1.32,0.65,0.65,0,0,0-.17-1,38.29,38.29,0,0,0,3.89.47,3.77,3.77,0,0,0,2.12-.31c1.7-1,3.8-.74,5.49-1.76,0.32-.19.52-0.07,0.56,0.31,0,0.19.12,0.38,0.16,0.57,0.37,1.7.37,1.7,2.07,1.41,0.19,0,.37-0.15.57-0.19,1.46-.28,1.67-0.09,1.69,1.41a10.73,10.73,0,0,1-.58,3,45.76,45.76,0,0,1-2.79,7.34c-0.4.86-.65,1.82-1.68,2.2-0.55.2-.41,0.71-0.41,1.14,0,1.54-1,2.2-2.43,1.51A15.62,15.62,0,0,1,163,75.07a0.53,0.53,0,0,1-.17-0.64c0.33-1.22,0-2.47.16-3.69,0.16-1-.64-1.56-1-2.32-0.1-.22-0.54-0.33-0.6-0.14-0.23.73-.88,0.42-1.28,0.64-1.34.77-1.64,0.07-1.84-1.06a5.25,5.25,0,0,0-.8-1.72C156.73,64.91,155.66,65.5,154.68,65.52Z" transform="translate(-5 -5)"/><path class="cls-3" d="M162.35,40.16a0.49,0.49,0,0,0,.58-0.44c0.28-2.4.6-4.8,0.77-7.22s-0.1-5,.64-7.45A4,4,0,0,1,167.43,27a4.64,4.64,0,0,0,2.86,2c1.11,0.3,1.36,1.58,1.7,2.5a16.12,16.12,0,0,1,.89,4.3,2.21,2.21,0,0,1,0,1.06c-1.28,2.65-.74,5.57-1.3,8.32-0.4,2-1.3,3.76-1.63,5.82a0.86,0.86,0,0,1-.4-1.18,6,6,0,0,0-2.5-7A13.89,13.89,0,0,0,162.35,40.16Z" transform="translate(-5 -5)"/><path class="cls-2" d="M29.45,100.64c0.67,0.1.34,0.56,0.36,0.92,0.19,3.35-.29,6.79.69,10a23.11,23.11,0,0,1,1,4c0.14,1.17-.31.8-0.87,0.52,0-.6,0-1.2,0-1.8a2,2,0,0,0-1-1.67c-3.19-2.06-6.31-1.55-9.38.29a3.23,3.23,0,0,0-1.53,2,18.7,18.7,0,0,0,3.74-.47,0.62,0.62,0,0,1-.07,1.05,2.15,2.15,0,0,0-.65.78,2,2,0,0,1-.17.28,9.51,9.51,0,0,0-1.83,3,0.89,0.89,0,0,1-.65.63c-2.1.23-4.19,0.79-6.32,0.26-2.87-.72-5-3.9-3-7.07,0.7-1.12,1.57-1.27,2.87-1.39a18.94,18.94,0,0,0,4.7-.89A3.75,3.75,0,0,1,19,111c1.56,0.15,2.65-.88,3.93-1.44,0.44-.19.9-0.33,1.33-0.53,0.86-.39,1.51-0.37,1.68.76a0.83,0.83,0,0,0,.25.4,2,2,0,0,0,2.14.71c0.62-.27.49-1.13,0.45-1.74-0.09-1.19-.33-2.36-0.45-3.55A6.58,6.58,0,0,1,29.45,100.64Z" transform="translate(-5 -5)"/><path class="cls-3" d="M133.32,226.14h1.63a8.17,8.17,0,0,1-.82-2.59,3.61,3.61,0,0,1,.3-1.86c1.48-2.65,3-5.23,6.47-5.63a1.09,1.09,0,0,0,.38-0.24,66,66,0,0,0,7.14,2.64c0.25,0.07.62,0.15,0.52,0.52a0.61,0.61,0,0,1-.7.34c-1.68-.2-2.86.75-4.09,1.66a1.69,1.69,0,0,0-.87,1.7c0.18,0.77-.91,1.21-0.37,2,0.12,0.18.09,0.63,0.36,0.52,1.38-.61,2.4.82,3.72,0.55a7.5,7.5,0,0,1-3.55.65h-9.08A1.42,1.42,0,0,1,133.32,226.14Z" transform="translate(-5 -5)"/><path class="cls-3" d="M111.58,145.81l-0.16-1.29a63.63,63.63,0,0,1-.88,7.06c-0.86,3.67-1.42,7.39-2.22,11.07-0.19.85-1,1.27-1.47,1.87s-1.39-.33-2.11-0.57a2.12,2.12,0,0,1,.07-1.74c1.22-4.56,2.36-9.13,3.14-13.79a21.24,21.24,0,0,1,1.41-5.07,14.6,14.6,0,0,0,.7-3.39c0.53-2.95,1.36-5.86,1.71-8.81,0.39-3.32,1.06-6.64.89-10a2.28,2.28,0,0,1,.34-1.83c0.57,1,0,2.15.23,3.22,0.06,0.34-.21.86,0.47,0.85a70.9,70.9,0,0,1-.86,8.41c-0.39,2.81-.7,5.61-0.84,8.44C111.91,142.08,111.73,143.95,111.58,145.81Z" transform="translate(-5 -5)"/><path class="cls-3" d="M158.16,217.17c2.4-.44,4.8-0.86,7.23-1.09a0.64,0.64,0,0,0,.68-0.36c0.86,1,.64,2.45,1.42,3.5A14.4,14.4,0,0,0,169,221.1c0.53,0.51.47,0.9-.23,1.28a9.6,9.6,0,0,1-4.61,1.37,3.58,3.58,0,0,1-2.5-1c-1.8-1.73-3.74-1.36-5.58-.5-2.42,1.12-2,.51-4.83,0,1.78-.64,2.71-2.48,4.54-3.07A5.46,5.46,0,0,0,158.16,217.17Z" transform="translate(-5 -5)"/><path class="cls-2" d="M132.43,103.29c0,0.56,0,1.11,0,1.67a4.85,4.85,0,0,1-7,4.45,13.31,13.31,0,0,0-2.94-1.2,0.72,0.72,0,0,1-.55-0.68,2.65,2.65,0,0,1,.15-1.64,12.92,12.92,0,0,0,1-4.74,1.33,1.33,0,0,1,1.23.23c1.43,0.6,2.84,1.26,4.32,1.76a2.51,2.51,0,0,0,2.3-.08A1.06,1.06,0,0,1,132.43,103.29Z" transform="translate(-5 -5)"/><path class="cls-3" d="M132.43,103.29a1.68,1.68,0,0,0-1.66.25,2.14,2.14,0,0,1-2.07,0,57.13,57.13,0,0,1-5.62-2.37c0.14-1.45.33-2.9,0.42-4.36,0-.65.16-0.75,0.77-0.49,1.28,0.56,1.73.41,2.55-.87,0.61-1,1.14-1.95,1.79-3.07a2.75,2.75,0,0,1,.18,1.55c-0.17,3.6.86,4.28,3.69,5,0.33,0.08.76-.08,0.65,0.53C132.89,100.71,132.66,102,132.43,103.29Z" transform="translate(-5 -5)"/><path class="cls-3" d="M147.07,84.48v2.38l0.17,0.05c0.46-1.28.92-2.55,1.37-3.83l4.73-13.46a1.73,1.73,0,0,0,.16-1.16c0.73-.11,1.49.21,2.22-0.22,0.36-.21.52,0.24,0.64,0.52,0.49,1.08.53,2.32,1.23,3.33a1.21,1.21,0,0,1-.12.92c-1.18,2.65-1.41,5.53-2,8.31a11.63,11.63,0,0,1-.78,2.35h-0.31c0.07-1.26.06-2.52,0.22-3.77a18,18,0,0,1,.74-3.85c0.24-.67-0.13-1.08-0.89-0.93-0.35.07-.68,0.21-1,0.29-0.74.17-1.35,0.12-1.47,1.34-0.15,1.49-1,2.9-1.53,4.37-0.67,2-1.25,4.11-1.86,6.17a6.27,6.27,0,0,1-1.41,2.58A12,12,0,0,1,147.07,84.48Z" transform="translate(-5 -5)"/><path class="cls-3" d="M128.07,45.07c0.48,1.19,1.63,1.32,2.64,1.51,1.46,0.27,1.86.69,2,2.16a6,6,0,0,1-2.18,4.94,1.66,1.66,0,0,1-1.9.24A38.61,38.61,0,0,1,125,52.44a3.67,3.67,0,0,1-1.91-3.37,1.9,1.9,0,0,0-.28-1.48,8.54,8.54,0,0,1,4,1.18A1,1,0,0,0,128,49a1.06,1.06,0,0,0,.25-1.4A2.9,2.9,0,0,1,128.07,45.07Z" transform="translate(-5 -5)"/><path class="cls-2" d="M20,131.27a12,12,0,0,1-6.56,0c-1.68-.48-2-2.3-2.61-3.75a1,1,0,0,1,0-1,15.68,15.68,0,0,0,5,1.35c1,0,2-.49,3-0.12a1.25,1.25,0,0,1,.8.44c0.06,0.4.37,0,.51,0.14A2.78,2.78,0,0,1,20,131.27Z" transform="translate(-5 -5)"/><path class="cls-3" d="M19.83,122c1.56-.78,3.36-0.89,4.86-1.85,0.63-.41,1.36-0.66,2-1,0.49-.27.75,0,0.71,0.38a4.52,4.52,0,0,1-.42,2.18c-1.48,2.27-3.28,4-6.25,3.86a19.31,19.31,0,0,0-2.61.25,3.49,3.49,0,0,0,.55-2.1c-0.11-.77.54-1.06,0.95-1.5l0,0C19.59,122,20,122.3,19.83,122Z" transform="translate(-5 -5)"/><path class="cls-3" d="M21.55,116.46a1,1,0,0,1,.63-1.11c0.57-.16.25-0.53,0.29-0.82,1.13,0.14,2.3-.23,3.38.59,0.4,0.31,1.2-.16,1.77.35s0.67,1.3-.08,1.62c-2.76,1.19-5.41,2.67-8.43,3.16a15.53,15.53,0,0,1,2-3.51,0.87,0.87,0,0,1,.47-0.29Z" transform="translate(-5 -5)"/><path class="cls-2" d="M19.63,122.17a3.67,3.67,0,0,0-.75,2.68c0.06,0.64-.46.65-0.75,0.91-1.24.49-2.41,0-3.58-.28-0.61-.15-1.22-0.36-1.84-0.47-1.12-.19-1.26-1.09-1.43-1.93-0.11-.54.35-0.36,0.64-0.36a24,24,0,0,0,5.53-.25c0.46-.34,1,0,1.52-0.24C19.19,122.21,19.38,121.86,19.63,122.17Z" transform="translate(-5 -5)"/><path class="cls-3" d="M19.64,128.45a2.57,2.57,0,0,0-.78-0.7,10,10,0,0,0,7.33-2.59c0.19-.18.42-0.46,0.7-0.17a0.5,0.5,0,0,1-.11.65A14.43,14.43,0,0,1,20,131.27c0.22-.8-0.12-1.62.17-2.43,0.21-.58-0.38-0.27-0.59-0.4h0Z" transform="translate(-5 -5)"/><path class="cls-2" d="M129.83,112c-1.07,1.08-2,2.52-3.76,2.3a5.07,5.07,0,0,1-3.9-2.91A13.21,13.21,0,0,0,129.83,112Z" transform="translate(-5 -5)"/><path class="cls-3" d="M21.26,133c0.42-.87,1.41-1,2.08-1.53a48.09,48.09,0,0,0,3.79-3.43c-0.16,3-2.44,4.48-4.44,6.16A1.47,1.47,0,0,1,21.26,133Z" transform="translate(-5 -5)"/><path class="cls-2" d="M21.26,133a4.19,4.19,0,0,0,1.43,1.19,3.11,3.11,0,0,1-3,.65c-1.7-.27-3.44-0.35-5.15-0.58a0.43,0.43,0,0,1-.4-0.18,1,1,0,0,1,.06-0.2C16.64,134.11,18.92,133.34,21.26,133Z" transform="translate(-5 -5)"/><path class="cls-2" d="M24.67,135c0.43,0.16,1-.37,1.33.35a20,20,0,0,0-2.94,2.31c-0.64.7-3.19,0.74-3.75,0.07-0.38-.45.13-0.45,0.4-0.54C21.43,136.6,23.22,136.19,24.67,135Z" transform="translate(-5 -5)"/><path class="cls-3" d="M100,62.39a6,6,0,0,1,2.39-1.69c0.85-.2.24-2,1.76-1.7,0.17,0.7-.58,1.67.55,2.32a7.89,7.89,0,0,0-2.4.18C101.33,61.5,101.12,62.82,100,62.39Z" transform="translate(-5 -5)"/><path class="cls-3" d="M174.12,50.22a18,18,0,0,1,1-5.61C175.57,45.76,175.06,48.82,174.12,50.22Z" transform="translate(-5 -5)"/><path class="cls-3" d="M19,122.23c-0.44.46-1,.19-1.52,0.24A2.59,2.59,0,0,1,19,122.23Z" transform="translate(-5 -5)"/><path class="cls-2" d="M19.83,122l0.28,0.15-0.51.08C19.51,122,19.69,122,19.83,122Z" transform="translate(-5 -5)"/><path class="cls-3" d="M173.89,120.35l-0.11-.23L174,120.2Z" transform="translate(-5 -5)"/><path class="cls-2" d="M79.35,187.2l0.21-.13q0,0.15,0,.3Z" transform="translate(-5 -5)"/><path class="cls-3" d="M67.32,199.34c0.17-.9-0.65-1-1.23-1.17s-0.71.44-.84,0.86a26.66,26.66,0,0,0-.73,7.45,0.84,0.84,0,0,0,.25.77c0.23,0.17.49,0.32,0.24,0.65a0.57,0.57,0,0,1-.36.24c-0.39,0-.34-0.36-0.39-0.63-0.22-1.13-.45-2.26-0.65-3.39a1.39,1.39,0,0,0-1.36-1c-0.55-.15-0.72.38-0.89,0.78-0.29.69-.54,1.39-0.83,2.13-0.56-.85-0.22-2.46-1.85-2.36-1,.06-0.68,1-1,1.64-0.33-.53-0.37-1.37-1.16-1.22s-0.55.94-.61,1.5a10.62,10.62,0,0,1-.22,2.82,8,8,0,0,1-.79-2.7,0.76,0.76,0,0,0-.74-0.65,0.49,0.49,0,0,0-.7.42c-0.12.78-.48,0.47-0.9,0.21-0.9-.54-1.84-1.08-2.84-0.17-0.27.25-.45,0.14-0.7-0.08a5.3,5.3,0,0,0-7.59.47c-0.71.84-.53,1.53,0.53,1.67a0.68,0.68,0,0,1,.72.83,16.91,16.91,0,0,0,.88,4.77c0.48,1.93,2.11,2.43,3.74,1.24a5.89,5.89,0,0,0,2-2.62c0.26-.64.51-0.87,1.22-0.54a1.91,1.91,0,0,0,2.56-.88,2.75,2.75,0,0,1,.78-1.23,2.31,2.31,0,0,0,2.12,2c0.94,0.06,1-.93,1.53-1.5a1.12,1.12,0,0,0,.93,1.3c0.82,0.1.71-.54,0.86-1s0.51-.28.78-0.17c1.09,0.43,1.55-.14,1.78-1.09,0.08-.35.18-0.69,0.34-1.32a10,10,0,0,0,.46,1.26c0.27,0.5,1,.91,1.25.62,0.74-.85,1.43-0.52,2.21-0.24a0.67,0.67,0,0,0,.82-0.35c0.33-.53-0.23-0.46-0.45-0.59a0.47,0.47,0,0,1-.18-0.69C67.35,204.78,66.82,202,67.32,199.34Zm-22.74,8.27a2.55,2.55,0,0,0-1.43-.87,4.74,4.74,0,0,1,3.68-1.26,0.53,0.53,0,0,1,.59.31,0.62,0.62,0,0,1-.24.74c-0.62.43-1.25,0.84-1.89,1.24A0.45,0.45,0,0,1,44.58,207.61Zm2.55,3.57a2.56,2.56,0,0,1-1.2,1.51,13.28,13.28,0,0,0-.44-1.73c-0.27-.66-0.06-1,0.59-1.08a1.37,1.37,0,0,1,1.25.1A1.07,1.07,0,0,1,47.13,211.18Zm1.69-2.45c-1.32-.5-0.57-0.91,0-1.47v1.47Zm2.34,0.93c-0.64,0-.2-0.92-0.31-1.25s0-.57,0-0.76c0-.38-0.09-1,0.32-1,0.57,0,.58.63,0.62,1.1a2.4,2.4,0,0,1,0,.47C51.74,208.77,51.77,209.69,51.16,209.66Z" transform="translate(-5 -5)"/><path class="cls-3" d="M59.36,216c0.28-.71.63-1.48,0.14-2.06s-1.27-.29-1.94-0.2c-0.43.06-.86,0.16-1.3,0.21s-0.59,0-.56-0.43,0.3-.32.54-0.33a5,5,0,0,0,2.23-.35c0.38-.2,1-0.33.83-0.81a1,1,0,0,0-1.34-.36,5.46,5.46,0,0,1-2,.38,2.39,2.39,0,0,0-1.62.17c-0.51.39-.26,1-0.51,1.65-0.34-.69-0.57-1.38-1.39-1.15-0.54.15-.35,0.64-0.36,1a1.69,1.69,0,0,0,1.12,1.79c0.63,0.25.67-.4,0.91-1,0.38,1.34,1.34,1.44,2.4,1.61-1.26.22-2.35,0.4-3.45,0.61-0.77.14-1.24,0.08-1.37-.91-0.11-.83-0.1-1.67-0.25-2.49a1.08,1.08,0,0,0-1.26-.82c-0.52,0-.51.51-0.52,0.91a22.71,22.71,0,0,0,.87,7,1.06,1.06,0,0,0,1.82.54,1.39,1.39,0,0,1,1.06-.38,53.7,53.7,0,0,0,7.1-.91,0.94,0.94,0,0,0,.87-0.69A2.39,2.39,0,0,0,59.36,216Zm-1.54,2.65a42.36,42.36,0,0,1-4.36.69c-0.41.05-1,.34-1.18-0.38s0.42-.87.95-0.93c1.5-.2,3-0.37,4.53-0.55,0.55,0.2,1.53-.4,1.63.42S58.37,218.52,57.82,218.64Z" transform="translate(-5 -5)"/><path class="cls-2" d="M48.82,208.73v-1.47C48.25,207.82,47.49,208.23,48.82,208.73Z" transform="translate(-5 -5)"/><path class="cls-1" d="M138.13,168.75c-1.43,1.6-3.31,1.31-5.1,1.13-1-.1-1.32-1.21-1-2.92,0.73-4,1.33-8,1.76-12a43.91,43.91,0,0,0,.27-4.76c0-2.05,1.12-3.8,1.35-5.8,0.48-4.11,1.18-8.19,1.7-12.29,0.29-2.31.42-4.63,0.61-7a8.68,8.68,0,0,0-.18-2.24c-0.08-.45-0.51-1.17.54-1.17a0.38,0.38,0,0,0,.29-0.46c-0.18-1,.53-1.24,1.24-1.56s1.54-1,2.32-.34,1.76,1.57,1.5,2.92a2,2,0,0,0,0,1.06c0.36,1.61-.17,3.14-0.34,4.71-0.31,2.9-.52,5.8-1,8.68a24.93,24.93,0,0,0-.26,3.22,18.25,18.25,0,0,1-1.31,5.94,6,6,0,0,0-.28,3.07,14.51,14.51,0,0,1-.37,6.29,10.24,10.24,0,0,0-.16,5.33,4.18,4.18,0,0,1,0,2.14,37.29,37.29,0,0,0-.53,4.15A2,2,0,0,1,138.13,168.75Z" transform="translate(-5 -5)"/><path class="cls-3" d="M138.13,168.75a4.69,4.69,0,0,0,.83-3.5,0.52,0.52,0,0,1,0-.24c1.11-2.6.15-5.26,0.25-7.89a27.39,27.39,0,0,1,.71-3.39,13.38,13.38,0,0,0,0-4.63,8,8,0,0,1,.62-4.19,17.26,17.26,0,0,0,1-5.74,21.26,21.26,0,0,1,.47-3.78c0.43-2.35.48-4.73,0.74-7.09,0.18-1.65.5-3.29,0.75-4.94a11.74,11.74,0,0,1,.71,3.84c0,4.53.19,9.07-.06,13.59s0,8.85-.22,13.26c-0.17,3.7-.37,7.4-0.55,11.1a17,17,0,0,1-.25,4.25,8.35,8.35,0,0,1-.52,1.45,1,1,0,0,1-1.59.56,4.58,4.58,0,0,0-1-.36c-0.94-.33-1.81-0.7-1.58-2A0.83,0.83,0,0,0,138.13,168.75Z" transform="translate(-5 -5)"/><path class="cls-1" d="M199.34,175.49c1.5-.37,2.92-1.16,4.51-1a27.81,27.81,0,0,1,10,2.72,33.63,33.63,0,0,1-9.93-.31c-1.38-.3-2.65-1.18-4.15-0.9l-0.89-.16Z" transform="translate(-5 -5)"/><path class="cls-1" d="M113,119.29a73,73,0,0,1-1.35,14c-0.52,2.88-1.19,5.74-1.54,8.65-0.22,1.77-1.24,3.35-1.51,5.14-0.69,4.57-2,9-2.9,13.54-0.23,1.12-.78,2.17-0.95,3.32a1.74,1.74,0,0,1-1.58.77c-1.88,0-4.16-1.35-4.21-3a16.66,16.66,0,0,1,0-4.36,11.1,11.1,0,0,0,.23-4,7.83,7.83,0,0,1,.74-4.62c1.73-3.5,2.4-7.3,3.47-11,1.27-4.42,2.16-8.94,3.82-13.26a40.31,40.31,0,0,0,1.32-4.83,1.94,1.94,0,0,0-.37-1.77,3.14,3.14,0,0,0,2.54-.59c1.14-.67,1.59-0.46,2,0.84C112.81,118.51,112.9,118.9,113,119.29Z" transform="translate(-5 -5)"/><path class="cls-1" d="M201.71,181.5a10.4,10.4,0,0,0,3.12.24c1.43,0,2.87-.13,4.29,0a8.66,8.66,0,0,1,3.64,1.07,35.24,35.24,0,0,1-13.34-.82h0a4.26,4.26,0,0,1,1.22-.27A0.62,0.62,0,0,1,201.71,181.5Z" transform="translate(-5 -5)"/><path class="cls-2" d="M199.4,181c0,0.17,0,.42-0.27.42a0.2,0.2,0,0,1-.15-0.13,0.31,0.31,0,0,1,.38-0.32Z" transform="translate(-5 -5)"/><path class="cls-2" d="M200.36,180.28h-0.24l0.08-.22,0.15,0.22h0Z" transform="translate(-5 -5)"/><polygon class="cls-2" points="195.11 175.28 195.07 175.34 195.12 175.29 195.11 175.28"/><path class="cls-2" d="M148.38,157.81a0.94,0.94,0,0,1-.14.09,2,2,0,0,1-.16-0.22,0.33,0.33,0,0,1,.17,0A0.55,0.55,0,0,1,148.38,157.81Z" transform="translate(-5 -5)"/><path class="cls-2" d="M147.31,166.13l0.06-.59c0.18,0.28.24,0.47-.05,0.6h0Z" transform="translate(-5 -5)"/><path class="cls-2" d="M147.56,167.1l0-.1-0.05.09h0Z" transform="translate(-5 -5)"/><path class="cls-1" d="M112.09,45.34c-1,.59-1-0.62-1.35-1s1.07-1.25,2.08-1.35c0.8-.08.84,0.32,0.93,1C113.93,45.28,113.14,45.37,112.09,45.34Z" transform="translate(-5 -5)"/><path class="cls-1" d="M156.6,47.73a6.56,6.56,0,0,0-.25.78c-0.08.42-.06,1-0.62,1a1.41,1.41,0,0,1-1.39-.73,0.82,0.82,0,0,1,.3-1.29,0.88,0.88,0,0,0,.28-0.38c0.22-.42.41-1,1-0.69A1.35,1.35,0,0,1,156.6,47.73Z" transform="translate(-5 -5)"/><path class="cls-1" d="M171.16,63.66c-0.85,2.64-1.67,5.29-4.56,6.58a13.6,13.6,0,0,0-1.42.88c-0.16.1-.34,0.28-0.53,0.12s-0.08-.43.07-0.63c0.5-.67,1-1.35,1.5-2a49.31,49.31,0,0,0,3.44-5.38c0.24-.39.43-1.13,1-1S171,63.11,171.16,63.66Z" transform="translate(-5 -5)"/><path class="cls-3" d="M19.63,128.44l-0.07.12a0.12,0.12,0,0,1,0-.06l0.08,0h0Z" transform="translate(-5 -5)"/><path class="cls-2" d="M21.55,116.46l0.18,0.1c-0.18.14-.15,0-0.16-0.12h0Z" transform="translate(-5 -5)"/><path class="cls-2" d="M139.46,137.06c-0.81,9.08-1.37,17.87-2.76,26.59a10.76,10.76,0,0,1-.07-3.22,24.16,24.16,0,0,0,.26-3.32c0.06-3.15.88-6.29,0.72-9.36-0.19-3.57,1.15-6.76,1.43-10.16A2.27,2.27,0,0,1,139.46,137.06Z" transform="translate(-5 -5)"/><path class="cls-2" d="M104.36,155.58c-0.08,2.17-1,4.1-1.77,6.08a10.4,10.4,0,0,1,.32-3.69c0.5-3.09.84-6.22,1.48-9.28,0.78-3.79,1.79-7.54,2.71-11.31a0.58,0.58,0,0,1,.35-0.56,1.7,1.7,0,0,1,.22,1.7c-0.41,2.6-.88,5.19-1.39,7.77s-0.9,5.4-1.45,8.08h0C104.57,154.73,104.89,155.32,104.36,155.58Z" transform="translate(-5 -5)"/><path class="cls-3" d="M104.83,154.37a28.25,28.25,0,0,1,.81-6c0.58-3.54,1.23-7.08,1.83-10.62a5,5,0,0,0,0-1v0a0.86,0.86,0,0,0,.07-0.92l1.23-5.72a4.31,4.31,0,0,1,.25,2.66c-0.71,4.48-1.35,9-2.45,13.38-0.64,2.58-.72,5.28-1.52,7.84A1.11,1.11,0,0,1,104.83,154.37Z" transform="translate(-5 -5)"/><path class="cls-3" d="M104.36,155.58a2.28,2.28,0,0,1,.47-1.22A1.06,1.06,0,0,1,104.36,155.58Z" transform="translate(-5 -5)"/><path class="cls-2" d="M107.51,135.93a0.6,0.6,0,0,1-.07.92A1.53,1.53,0,0,1,107.51,135.93Z" transform="translate(-5 -5)"/></svg>