<?xml version="1.0" encoding="utf-8"?>
<!-- Generator: Adobe Illustrator 19.2.1, SVG Export Plug-In . SVG Version: 6.00 Build 0)  -->
<svg version="1.1" id="Layer_1" xmlns="http://www.w3.org/2000/svg" xmlns:xlink="http://www.w3.org/1999/xlink" x="0px" y="0px"
	 viewBox="0 0 230.7 237.1" style="enable-background:new 0 0 230.7 237.1;" xml:space="preserve">
<style type="text/css">
	.st0{fill:#082934;}
	.st1{fill:#7BBDD9;}
	.st2{fill:#FEFEFE;}
</style>
<g>
	<path class="st0" d="M79.3,187.3c-2.4,2.8-5.4,5-8.8,6.3c-3.6,1.4-7.2,0.9-10.7-0.6c-3.8-1.7-7.4-3.6-10.8-6
		c-1.7-1.2-3.3-2.7-4.8-4.2c-2.5-2.5-5.1-4.8-6.7-8.1c-1.5-2.9-2.9-5.8-4.4-8.7c-0.7-1.4-1.7-2.6-2.8-3.8c-0.7-0.9-1.4-1.8-1.9-2.8
		c-1.5-3.2-3.6-6-5.9-8.7c-1.7-2-2.8-4.2-4.2-6.4c-0.4-0.6-0.6-1.3-1.4-1.7c1.3-0.6,2-1.8,3.2-2.4c-0.4,0-0.8,0-1.2,0.1
		c-1.9,0.3-3.3-0.6-4.2-2.2c-0.3-0.6-0.7-0.8-1.3-1c-2.9-0.8-5.5-1.9-6.6-5.2c-0.2-0.8,0.3-1.3,0.1-1.9c-0.4-1.1-0.7-2.2-1.1-3.2
		c-0.2-0.5-0.2-0.9,0.2-1c2.6-0.9,1.4-2.9,1.4-4.6c0-0.2-0.2-0.3-0.3-0.5c-1.7-1.6-1.9-3.8-2.2-6c-0.2-1.1,0.5-1.9,1.3-2.4
		c0.9-0.6,1.7-1.4,2.4-2.1c1.3-1.3,2.7-2.2,4.6-2.3c2.3-0.2,4.6-0.5,6.9-0.8c1.2-0.2,2.4-0.6,3.6-0.9c0.2,0,0.3-0.2,0.4-0.2
		c1.6,0.6,1.1-0.6,1.2-1.3c0.5-2.8,1.5-5.5,3.8-7.4c1-0.8,2.2-1.5,3.5-1.6c0.8-0.1,1.4-0.7,2.3-0.5c1.3,0.3,3.3,2.2,3.4,4
		c0.3,3.6,0.2,7.2,0.3,10.7c0.1,2.6,0.7,4.9,1.3,7.4c0.6,2.6,1.3,5.2,1.6,7.9c0.1,0.7,0.2,1.5,0.6,2.2c0.6,1.1,1.8,1,2.8,0.7
		c1.3-0.3,2.6-0.1,3.8,0.3c0.9,0.3,1.6,0.9,1.8,2c0.4,1.5,1.4,2.8,2.2,4.1c1,1.6,2,3.3,2.8,5c0.6,1.3,1.4,2.6,2.4,3.6
		c0.9,0.8,1.5,1.9,2,2.9c0.3,0.7,0.7,0.8,1.2,0.2c1.4-1.7,3.3-1.9,5.3-1.3c0.4,0.1,0.6,0.1,0.8-0.3c1.1-2.4,3.1-4.1,4.9-5.9
		c2.4-2.3,4-5.1,5.7-7.9c4.1-6.8,8.5-13.4,13.4-19.6c2-2.6,4.3-5,6.7-7.2c1.2-1.2,2.8-1.8,4.4-2.1c2.9-0.6,5.8-1.2,8.7-1.4
		c1.8-0.1,3.6,0,5.2,1.1c0.8,0.6,1.4,1.3,1.6,2.3c0.1,0.6,0.4,1.2,0.8,1.1c0.4,0,0.8-0.7,0.9-1.2c0.6-2.9,1.1-5.8,0.7-8.7
		c-0.1-1,0.2-2.1,0.4-3.1c0.1-0.4,0.1-0.8,0-1.4c-1,0.8-1.6,1.7-2.1,2.6c-0.6,1-1.3,1-2.2,0.6c-3.1-1.4-2.9-2.6-2.4-5.7
		c0.1-0.7,0.2-1.5,0.2-2.3c-0.6,0.5-1.2,0.8-1.7,1.3c-0.4,0.4-0.9,0.5-1.4,0.4c-2.1-0.2-3.7-1.8-3.8-3.9c0-0.2,0-0.4,0-0.6
		c-0.1-0.7-0.1-1.4-1.2-1c-0.8,0.3-1.8,0.4-2.6-0.2c-2.2-1.4-2.4-1.7-1.7-4.2c0.2-0.7,0.4-1.5,0.6-2.2c0.2-0.7,0.6-1.3,0.6-2.2
		c-0.9,0.5-1.4,1.2-2.1,1.7c-0.9,0.6-1.7,1.7-3.1,0.8c-0.9-0.6-1.4-2.1-1.1-3.4c0.3-1.3,0.4-2.6,1.1-4c-2.2,1.1-2.8-1-3.9-1.8
		c-0.7-0.5-0.1-1.6,0.2-2.4c0.7-1.5,1.9-2.7,3-3.9c0.5-0.6,0.6-1,0.3-1.8c-1-2.6-1.3-5.3,1.3-7.3c0.4-0.3,0.2-0.5-0.1-0.7
		c-1-0.4-1.9-0.9-2.9-1.3c-2.8-1-4-3.9-3-6.7c0.4-1.2,0.9-2.4,1-3.8c0.1-0.9,0.2-1.8,1.4-2.2c0.6-0.2,1-1.1,1.5-1.7
		c0.5-0.6,1.1-1,1.9-1.1c0.7,0,1.3-0.2,1.9-0.7c0.8-0.6,1.7-0.6,2.6-0.5c1,0,1.8-0.3,2.1-1.4c1-3.7,2.8-7,5-10.1
		c0.2-0.2,0.6-0.4,0.4-0.8c-0.2-0.4-0.8-0.4-1-0.3c-1.4,0.4-1-0.6-0.8-1.1c1.3-3,3.1-5.6,6.1-7.2c3.6-1.9,7.3-3.8,11.2-5.1
		c2.4-0.8,4.8-0.9,7.3-1.1c3.4-0.3,6.8,0.1,10.2,0.7c1.6,0.3,3.1,0.6,4.7,0.6c2.5,0.1,4.7,1.1,6.8,2.1c3.3,1.5,6.8,2.3,10.3,2.8
		c0.8,0.1,1.7,0.3,2.4,0.7c1.5,0.9,3.3,0.8,4.7,1.8c0.4,0.3,0.4-0.1,0.6-0.3c0.8-0.9,1.5-1.9,2.5-2.7c0.9-0.7,1.7-1,2.7-0.5
		c1.1,0.5,1.6,1.8,1.3,2.9c0,0.2-0.1,0.4-0.2,0.6c-0.1,0.6-0.1,1.1,0.7,0.7c1-0.4,1.9-0.2,2.9-0.1c0.9,0.1,1.3,0.8,1.4,1.4
		c0.1,0.6,0.1,1.3-0.6,1.8c-0.7,0.5-1.4,0.9-2.2,1.3c-1.5,0.8-1.7,1.1-0.9,2.4c0.7,1.1,0.7,2.3,0.4,3.3c-0.7,2.7-0.1,5.4-0.3,8.1
		c-0.3,5.6-0.5,11.1-1.2,16.7c-0.2,1.4-0.6,2.9-1.2,4.2c-1,2.1-0.6,4.2-0.4,6.3c0.1,2.1,0,4.2-0.7,6.2c-0.5,1.6-0.8,3.3-1.6,4.9
		c-1.2,2.6-2.1,5.4-4.4,7.4c-1.4,1.2-3,1.8-4.8,1.8c-1.6,0-2.4-1.3-3.3-2.4c-0.3-0.3-0.5-0.6-0.9-0.9c-0.3,0.4-0.6,0.8-0.9,1.3
		c-0.9,1.3-1.3,1.4-2.5,0.4c-0.6-0.5-0.6-0.2-0.7,0.3c-0.2,1.9-0.7,3.7-1.4,5.4c-0.3,0.8-0.8,1.7-1.8,1.6c-1.1,0-1.8-0.9-2.2-1.8
		c-0.2-0.4-0.3-0.9-0.5-1.3c-1,1.6-1,3.4-1.6,5.1c-0.5,1.4-1.3,2.7-2,4.1c-0.3,0.7-1.1,0.9-1.6,0.5c-0.9-0.6-2-1-2.9-2.1
		c-0.3,1.1-0.6,2.1-1.1,3c-0.5,0.9-0.7,2-1.9,2.1c-1.2,0-2.2-0.6-3-1.6c-0.7-1-0.8-2-1.1-3.3c-0.4,0.6-0.6,1-0.9,1.5
		c-0.2,0.4-0.2,0.7,0.3,0.8c0.8,0.3,0.7,0.8,0.5,1.5c-0.6,2.6-1.2,5.2-1,7.9c0.1,0.9,0.3,0.6,0.8,0.5c2.1-0.8,4.1-1.9,6.5-2
		c1.7-0.1,3.3,0.2,4.9,0.8c1.7,0.7,3.5,1.2,5,2.2c2,1.3,4,2.5,5.8,4.1c1.2,1.1,2.4,2.5,4.5,2.6c2.1,0.1,4,1.1,6,1.7
		c3.2,1,6.5,1.2,9.8,1.4c3.4,0.2,6.7,0.5,10.1,0.7c2.4,0.2,4.8-0.3,7.3-0.2c2.6,0.1,5.2,0.1,7.9,0.2c1.1,0.1,2.1-0.3,3.2-0.1
		c1.7,0.3,2.7,1.4,3.3,3c0.9,2.7,1.8,5.5,2.5,8.3c0.5,2.1,1,4.3,2,6.3c0.7,1.3,0.8,2.8,0.9,4.3c0.2,4.3-0.4,8.6-0.4,12.9
		c0,2.7-1.2,4.8-2.1,7.1c-0.2,0.6-1.1,1.2-0.2,1.9c-0.9,1.6,0.8,1.7,1.4,2.3c2.3,2.2,4.3,4.6,6.4,6.9c3.8,4.3,4.6,9.3,3.5,14.7
		c-0.6,2.9-1.1,5.9-1.9,8.7c-1.2,4.4-3.3,8.2-6,11.7c-2.9,3.9-6,7.7-10,10.5c-1.9,1.4-4,2.6-6.1,3.8c-1.8,1-3.6,2.2-5.6,2.9
		c-4.8,1.8-9.5,4-14.7,4.8c-2.1,0.3-4.1,1.2-6.3,1.2c-1.5,0.1-2.9,0-4-1.1c-0.3-0.3-0.5-0.2-0.8,0c-0.3,0.2-0.6,0.3-0.9,0.6
		c-2.3,1.9-5,2.2-7.9,2c-0.3,0-0.6-0.1-0.8,0.1c-3,1.7-6.4,2-9.7,2.7c-4.1,0.8-8.3,1.1-12.5,1.1c-4.2,0-8.4-0.3-12.6-0.4
		c-3.9-0.1-7.9,0.3-11.8,0.7c-2.5,0.3-5,0.4-7.5,0.3c-1.7,0-3.5,0.2-5.1-0.1c-3-0.6-5.9-0.5-8.8-0.5c-2.2,0-4.4,0.4-6.7,0.3
		c-3.1-0.1-6.1-0.8-9.1-1.6c-1.2-0.3-2.5-0.6-3.7-1c-1.7-0.6-2.1-1.2-1.8-2.9c0-0.2,0.1-0.4,0.1-0.6c-0.7-2,0.5-3.5,1.3-5.1
		c1.5-3,2.4-6.3,4.1-9.1c0.5-0.8,0.5-1.8,0.6-2.8c0.2-4.1,1.1-8.2,1.4-12.3c0.2-2.9,0.4-5.8,1.1-8.6c0-0.1,0-0.2,0-0.3
		C79.5,187.2,79.4,187.3,79.3,187.3z M22.7,134.3c2-1.7,4.3-3.2,4.4-6.2c-1.2,1.3-2.5,2.3-3.8,3.4c-0.7,0.6-1.7,0.7-2.1,1.5
		c-2.3,0.3-4.6,1.1-7,0.9c0,0,0,0.1-0.1,0.2c0.1,0.2,0.2,0.2,0.4,0.2c1.7,0.2,3.5,0.3,5.2,0.6C20.9,135.2,21.8,135.2,22.7,134.3z
		 M19.6,122.3L19.6,122.3c-0.2-0.3-0.4,0-0.6,0c-0.5,0-1.1-0.1-1.5,0.2c-1.8,0.4-3.7,0.3-5.5,0.3c-0.3,0-0.7-0.2-0.6,0.4
		c0.2,0.8,0.3,1.7,1.4,1.9c0.6,0.1,1.2,0.3,1.8,0.5c1.2,0.3,2.3,0.8,3.6,0.3c0.9-0.1,1.7-0.3,2.6-0.2c3,0.1,4.8-1.6,6.3-3.9
		c0.4-0.7,0.3-1.4,0.4-2.2c0-0.4-0.2-0.7-0.7-0.4c-0.7,0.4-1.4,0.6-2,1c-1.5,1-3.3,1.1-4.9,1.9C19.7,122.1,19.5,122.1,19.6,122.3z
		 M18.9,127.9c-1-0.4-2,0.1-3,0.1c-1.8-0.1-3.4-0.7-5-1.4c-0.2,0.4-0.1,0.7,0,1c0.6,1.4,0.9,3.3,2.6,3.7c2.1,0.6,4.4,0.6,6.6,0
		c2.8-1.2,5.1-3.1,6.7-5.6c0.1-0.2,0.3-0.4,0.1-0.7c-0.3-0.3-0.5,0-0.7,0.2C24.1,127.3,21.6,127.9,18.9,127.9z M132.4,103.4
		c0.2-1.3,0.5-2.6,0.7-3.9c0.1-0.6-0.3-0.4-0.6-0.5c-2.8-0.7-3.9-1.4-3.7-5c0-0.5,0.1-0.9-0.2-1.5c-0.6,1.1-1.2,2.1-1.8,3.1
		c-0.8,1.3-1.3,1.4-2.5,0.9c-0.6-0.3-0.7-0.2-0.8,0.5c-0.1,1.5-0.3,2.9-0.4,4.4c0,1.7-0.4,3.2-1,4.7c-0.2,0.5-0.3,1.1-0.2,1.6
		c0.1,0.3,0.1,0.6,0.6,0.7c1,0.2,2,0.8,2.9,1.2c3.3,1.6,7.1-0.8,7-4.4C132.4,104.5,132.4,104,132.4,103.4z M19.1,120.4
		c3-0.5,5.7-2,8.4-3.2c0.7-0.3,0.7-1.1,0.1-1.6c-0.6-0.5-1.4,0-1.8-0.3c-1.1-0.8-2.2-0.4-3.4-0.6c-1.2,0.4-2.4,0.3-3.7,0.5
		c0.3-1,0.8-1.6,1.5-2c3.1-1.8,6.2-2.4,9.4-0.3c0.6,0.4,1,0.9,1,1.7c0,0.6,0,1.2,0,1.8c-0.4,1.2-1.8,2.1-0.9,3.5c0,0.1,0,0.2,0,0.2
		c-0.4,1.2-0.6,2.5-1.6,3.4c-0.4,0.4-0.5,0.8-0.2,1.3c0.4,0.8,0.4,1.5-0.2,2.2c-0.4,0.4-0.3,0.7,0.2,1c1,0.7,0.9,1.6,0.5,2.6
		c-0.8,1.9-2.4,3.1-3.7,4.6c-1.4,1.2-3.2,1.6-5,2.2c-0.3,0.1-0.8,0.1-0.4,0.5c0.6,0.7,3.1,0.6,3.8-0.1c0.9-0.9,1.9-1.6,2.9-2.3
		c1.4-0.6,2.7-1.4,4.2-1.7c3.4-0.7,6.3-2.4,9.3-3.9c0.6-0.3,0.6-0.6,0.5-1.1c-0.4-1.5-0.7-3.1-1.2-4.6c-1.6-5-2.2-10.1-2.6-15.3
		c-0.2-2.4,0.2-4.8,0-7.3c-0.1-1.2-1-2.8-1.7-3c-1.6-0.3-4.6,0.6-5.1,2.1c-1.2,1.5-1.3,3.2-1.2,5c0.1,1.2,0.4,2.4,0.4,3.6
		c0,0.6,0.2,1.5-0.4,1.7c-0.8,0.3-1.5-0.1-2.1-0.7c-0.1-0.1-0.2-0.3-0.3-0.4c-0.2-1.1-0.8-1.2-1.7-0.8c-0.4,0.2-0.9,0.3-1.3,0.5
		c-1.3,0.6-2.4,1.6-3.9,1.4c-0.5,0-1.1-0.1-1.7,0.1c-1.5,0.5-3.2,0.7-4.7,0.9c-1.3,0.1-2.2,0.3-2.9,1.4c-2,3.2,0.2,6.3,3,7.1
		C14.9,121.2,17,120.6,19.1,120.4z M158.2,217.3c-0.7,0.8-1.3,1.7-2.4,2.1c-1.8,0.6-2.8,2.4-4.5,3.1c2.9,0.5,2.4,1.1,4.8,0
		c1.8-0.9,3.8-1.2,5.6,0.5c0.6,0.6,1.5,1,2.5,1c1.7,0,3.2-0.6,4.6-1.4c0.7-0.4,0.8-0.8,0.2-1.3c-0.6-0.6-1-1.2-1.5-1.9
		c-0.8-1.1-0.6-2.5-1.4-3.5c-0.6-1.3-1.2-2.6-1.8-3.9c-0.4-1-0.3-2.1-0.9-3c-1.3-2-2.1-4.2-3.2-6.3c-0.2-0.3-0.3-0.5,0.1-0.8
		c0.7-0.7,0.5-1.4,0-2c-0.4-0.7-0.9-1.3-1-2.1c-0.1-0.5-0.5-0.7-0.9-0.9c-0.7-0.3-1.5-0.7-2.3-0.9c-3.6-1.1-7.3-0.7-10.9,0
		c-0.8,0.2-1.5,0.6-2.2,1.1c0.7,0.5,1.4,0.3,2,0.5c2.6,0.4,5.2,0.2,7.7,1.2c1.1,0.4,2.1,1,3.3,1.3c0.3,0.1,0.7,0.1,0.6,0.5
		c0,0.4-0.2,0.6-0.5,0.7c-0.7,0.2-1.6,0.2-2.2,0.6c-1.4,1-2.7,0.7-4.2,0.5c-2.3-0.3-4.6-0.8-6.9,0.1c-0.8,0.3-1.9,0.8-2,1.5
		c-0.1,0.5,1,1.1,1.8,1.4c2.8,0.9,5.7,1.2,8.6,1.2c1.9,0,3.6,0.5,5.2,1.1c1.1,0.4,1,0.7,0.1,1.5c-0.9,0.8-2,0.9-2.9,1.6
		c-1.1,0.9-2.3,1.1-3.6,0.7c-2.6-0.8-5.2-0.6-7.7,0.1c-0.3,0.1-0.7,0-0.8,0.4c-0.1,0.4,0.4,0.5,0.6,0.6c1.4,0.9,3.1,1.2,4.6,1.8
		c2.8,1.3,5.7,2,8.8,2.5C156.5,217,157.4,216.5,158.2,217.3z M156.4,59.5c-0.9-0.2-1.8-0.5-2.8-0.8c-2.2-0.7-4.4-1.5-6.7-2
		c-3.2-0.7-6.2-1.7-9-3.3c-0.8-0.5-1.5-1-2-2c-0.7-1.4-0.8-2.9-0.4-4.4c0.2-0.6,0-0.9-0.7-1.1c-2-0.6-4-0.8-6-1.2
		c-0.3-0.1-0.6-0.1-0.8,0.3c-0.4,0.9-0.2,1.7,0.2,2.5c0.2,0.5,0.2,1-0.2,1.4c-0.4,0.3-0.8,0-1.2-0.2c-1.3-0.7-2.6-1.2-4-1.2
		c-1.3-0.4-2.5-0.1-3,0.7c-0.5,0.7-0.3,2.9,0.1,3.7c0.5,0.9,1.3,1.5,2.1,2.2c0.6,0.6,0.6,1-0.2,1.3c-1,0.4-2.4,0.1-3-0.9
		c-0.3-0.5-0.7-0.9-1-1.5c-0.1-0.2-0.2-0.6-0.6-0.5c-2.2,0.4-4.3,0.2-6.5-0.1c-2.1-0.3-4.1-0.5-6.2-1c-0.8-0.2-1.7-0.5-2.5-0.4
		c-0.7,0.1-0.2,1.1-0.5,1.7c-0.5,0.8-0.5,1.8-0.7,2.8c0.6,0,0.7-0.3,1.1-0.5c0.9-0.4,1.8-0.8,2.7-0.2c0.6,0.4,0.8,0.7,0.1,1.1
		c-0.5,0.4-0.9,1-1.6,1.2c-0.2,0.1-0.3,0.3-0.3,0.6c0,0.2,0.2,0.3,0.3,0.2c0.8-0.3,2-0.3,2.3-1c0.7-1.6,1.7-1.8,3.2-1.7
		c0.4,0,0.9-0.2,1.1,0.3c0.3,0.6-0.3,0.6-0.6,0.8c-1.3,1-2.3,2.1-3,3.7c-0.2,0.4-0.1,0.9,0.3,0.7c1.4-0.6,2.9-1,3.9-2.2
		c0.9-1.1,2-2.1,3.6-2.2c0.3,0,0.7-0.2,0.9,0.2c0.2,0.4-0.2,0.6-0.4,0.7c-0.8,0.5-1.2,1.3-1.5,2.1c-0.2,0.4-0.1,0.9,0.5,0.8
		c1.6-0.5,3.2-0.8,4.4-2.1c0.6-0.6,1.1-0.9,1.9-0.6c-0.3,0.9-0.7,1.7-1,2.6c-0.1,0.3-0.2,0.6,0,0.9c0.3,0.3,0.6,0,0.9,0
		c0.9-0.2,1.7-0.8,2.4-1.3c0.7-0.5,1.4-0.9,2.3-0.9c0.8-0.1,1,0.1,0.8,0.9c-0.2,0.8-0.6,1.7-0.3,2.6c0.1,0.2,0,0.5,0.3,0.6
		c0.3,0.1,0.5-0.2,0.6-0.3c0.6-1,2-1.6,2-3c0-0.2,0.2-0.3,0.4-0.4c1.5-0.4,2.6,0.3,2.7,1.8c0,0.3,0.1,0.6,0.2,0.9
		c0.1,0.4,0,1,0.4,1.1c0.4,0.1,0.8-0.4,1-0.7c0.9-1.1,1.8-2.3,2.7-3.5c0.4-0.5,0.9-0.6,1.5-0.6c0.7,0,0.5,0.6,0.7,1
		c0.5,1.2,0.2,2.5,0.6,3.6c0.1,0.3,0.2,0.7,0.5,0.7c0.4,0.1,0.5-0.3,0.7-0.6c0.9-1.2,1.3-2.8,3.2-3.1c1-0.2,1.6,0,1.9,1
		c0.4,1,0.7,1.9,1.1,2.9c0.3,0.8,0.7,1,1.2,0.1c0.5-0.9,1-1.8,2.2-2.1c1.4-0.4,2-0.4,2.6,1.1c0.3,0.7,0.5,1.3,0.8,2
		c0.8,1.6,0.8,1.6,2.5,0.8c1,0,2.1-0.6,2.8,0.6c0.3,0.6,0.7,1.1,0.8,1.7c0.2,1.1,0.5,1.8,1.8,1.1c0.4-0.2,1,0.1,1.3-0.6
		c0.1-0.2,0.5-0.1,0.6,0.1c0.4,0.8,1.2,1.3,1,2.3c-0.2,1.2,0.2,2.5-0.2,3.7c-0.1,0.3,0,0.5,0.2,0.6c0.7,0.5,1.3,1,2.1,1.4
		c1.4,0.7,2.4,0,2.4-1.5c0-0.4-0.1-0.9,0.4-1.1c1-0.4,1.3-1.3,1.7-2.2c1.1-2.4,2.1-4.8,2.8-7.3c0.3-1,0.6-2,0.6-3
		c0-1.5-0.2-1.7-1.7-1.4c-0.2,0-0.4,0.2-0.6,0.2c-1.7,0.3-1.7,0.3-2.1-1.4c0-0.2-0.1-0.4-0.2-0.6c0-0.4-0.2-0.5-0.6-0.3
		c-1.7,1-3.8,0.7-5.5,1.8c-0.6,0.4-1.4,0.3-2.1,0.3C159,59.9,157.7,59.7,156.4,59.5z M174,120.3c-0.1,0-0.2-0.1-0.3-0.1
		c0,0.1,0.1,0.2,0.1,0.2c0.2,0.4,0.5,0.6,0.8,0.8c2.4,1.9,4.8,3.9,7.3,5.8c1.4,1.1,2.6,2.6,4.2,3.5c1,0.6,1.8,1.3,2.6,2.1
		c2.7,3,5.5,6,8.2,9.1c1,1.2,2.2,2.1,3.2,3.2c2.8,3,5.4,6.2,8.1,9.3c1.2,1.4,1.3,1.4,1.9-0.5c0.3-1.2,1.3-2,1.5-3.2
		c0.8-5.1,1-10.1,0.7-15.3c-0.2-2.5-0.4-4.9-1.3-7.2c-0.6-1.4-1-2.9-1.3-4.3c-0.4-2.1-1.2-4-2.4-5.8c-0.5-0.7-1-0.9-1.8-0.9
		c-3,0.3-6,0.5-9,0.7c-3.1,0.2-6.1-0.1-9.2-0.3c-4.1-0.3-8.2-0.8-12.4-1.2c-0.3,0-0.7-0.1-1.1,0.2c1.3,0.6,2.6,1.2,3.8,1.7
		c0.9,0.4,1.7,1,2.7,1.3c2.2,0.6,4.3,1.3,6.5,2c2.1,0.7,4.2,1.5,6.6,1.5c0.9,0,1.9-0.1,2.6,0.6c0.4,0.3,0.9,0.7,0.8,1.2
		c-0.1,0.5-0.8,0.2-1.2,0.4c-0.3,0.1-0.6,0-0.8,0.1c-3,0.8-6,1.2-9.1,0.1c-2.8-1-5.9-1.5-8.3-3.4C176.5,121.2,175.3,120.6,174,120.3
		z M153.5,68.6c-1.1-0.3-2-1-2.7-2c-0.2-0.2-0.3-0.6-0.7-0.2c-1.8,1.5-3.8,2.5-5.9,3.3c-6.1,2.1-12.2,2.3-18.5,0.8
		c-2.1-0.5-4.2-1.2-6.3-1.9c-4-1.2-7.6-3.2-10.1-7c1.8-0.4,3.3,0.1,4.6,1.1c1.9,1.6,4.1,2.6,6.3,3.6c3.5,1.5,7.4,2,11.2,2.4
		c2.7,0.2,5.3-0.2,8-0.3c2.1-0.1,4-1,6.1-1.4c0.4-0.1,0.7-0.5,0.2-0.7c-1.4-0.8-2.8-1.8-3.7-3.4c-0.3,1-0.8,1.5-1.2,2.2
		c-0.3,0.5-0.7,0.8-1.2,0.8c-1.3-0.1-3.9-1.7-4.1-3.3c-0.1-0.4,0.2-0.9-0.3-1.3c-0.5,0.3-0.4,0.9-0.6,1.4c-0.2,0.5-0.5,1-0.8,1.5
		c-0.8,1.5-1.9,1.6-3.2,0.4c-0.8-0.7-1.7-1.3-2.1-2.4c-0.5,0.7-1,1.3-1.4,1.8c-0.6,0.8-1.5,0.9-2.3,0.4c-0.9-0.6-1.9-1.3-2.2-2.4
		c-0.2-0.7-0.5-0.7-1-0.6c-0.5,0.1-0.8,0.4-1.2,0.7c-1.3,1-3.3,0.2-3.4-1.4c0-0.6-0.2-0.7-0.7-0.4c-0.9,0.6-1.9,0.5-2.8,0.8
		c-0.6,0.2-1.2,0.1-1.6-0.4c-0.8-1-1.6-0.7-2.4-0.1c-0.4,0.3-0.9,0.6-1.4,0.7c-1.2,0.4-2.5,0.7-3,2.1c-0.1,0.2-0.3,0.3-0.5,0.5
		c-0.6,0.6-1.3,1.2-1.8,1.9c-1.4,2.1-2.6,4.4-3.4,6.8c-0.2,0.6-0.3,1.1-0.4,1.7c-0.1,0.5,0.2,0.7,0.6,0.4c1.9-1.3,3.6-2.8,4.7-4.8
		c0.7-1.1,1-2.3,2.6-2c0.4,0.1,0.8-0.5,1.2,0c0.4,0.5,0,1-0.2,1.4c-0.1,0.3-0.3,0.6-0.5,0.8c-2,2.8-3,6-3.2,9.4
		c0,0.3-0.1,0.6,0.1,0.8c0.3,0.2,0.6-0.1,0.8-0.3c2-1.6,3.6-3.5,4.3-6c0.3-0.9,0.9-1.7,1.7-1.6c0.8,0.1,1.4-0.1,2.1-0.2
		c0.5-0.1,0.9-0.1,1.3,0.3c0.4,0.5,0.2,0.9-0.1,1.3c-1.7,2.2-2.6,4.8-3.4,7.4c-0.4,1.3-0.5,2.6-0.2,4.4c0.6-0.6,0.9-1,1.2-1.4
		c1.9-2.2,3.3-4.7,5.1-6.9c0.7-0.9,1.7-0.9,2.6-1c0.5,0,0.8,0.6,0.6,1.1c-0.3,0.5-0.4,1.1-0.6,1.7c-1.7,3.7-2.5,7.5-2.7,11.5
		c0,0.4-0.2,0.9,0.3,1.3c2.1-2.7,4-5.4,4.9-8.7c0.3-1.1,0.2-2.9,2.3-2.8c0.7,0,1.6-0.7,2.2,0c0.7,0.8-0.3,1.5-0.6,2.1
		c-0.8,1.9-1.1,4-1.5,6c-0.3,1.6-0.6,3.3-0.3,5c0,0.2,0,0.5,0.3,0.6c0.2,0.1,0.3-0.2,0.4-0.3c1.9-3.3,3.7-6.7,4.8-10.4
		c0.1-0.4,0.1-0.7,0.6-0.8c0.7-0.2,1.4-0.4,2-0.7c0.5-0.2,0.9-0.2,1.2,0.1c0.4,0.3,0.1,0.8,0,1.1c-1.1,2.3-1.5,4.8-1.7,7.3
		c-0.2,1.9-0.3,3.9-0.4,5.9c0,0.2,0,0.6,0.3,0.7c0.1,0,0.4-0.2,0.4-0.4c0.2-1.1,1-1.9,1.5-2.8c1.5-2.9,2.4-6,3.2-9.1
		c0.4-1.6,1.1-2,2.4-2.3c0.8-0.2,1.1,0.1,1.1,0.9c-0.1,1.1-0.2,2.2-0.3,3.3c-0.2,2.4-0.4,4.8,0.2,7.3c0.1,0.2,0,0.5,0.3,0.6
		c0.3,0,0.3-0.3,0.4-0.5c1.8-3.5,3.3-7.1,2.8-11.3c-0.1-0.5-0.2-1.3,0.3-1.5c0.9-0.4,1.9-0.7,2.9-0.9c0.9-0.2,1.3,0.3,0.8,1.2
		c-0.5,1-0.9,2.1-1,3.2c-0.5,1.8-0.2,3.5,0.1,5.4c0.8-0.8,1.1-1.7,1.4-2.6c0.6-2.1,1.2-4.1,1.9-6.2c0.5-1.5,1.4-2.9,1.5-4.4
		c0.1-1.2,0.7-1.2,1.5-1.3c0.3-0.1,0.7-0.2,1-0.3c0.8-0.2,1.1,0.3,0.9,0.9c-0.4,1.3-0.6,2.6-0.7,3.9c-0.2,1.2-0.2,2.5-0.2,3.8
		c0.1,0,0.2,0,0.3,0c0.3-0.8,0.6-1.5,0.8-2.4c0.6-2.8,0.8-5.7,2-8.3c0.1-0.3,0.3-0.7,0.1-0.9c-0.7-1-0.7-2.3-1.2-3.3
		c-0.1-0.3-0.3-0.7-0.6-0.5C155,68.8,154.2,68.5,153.5,68.6z M164.3,25.2c-0.8-0.3-1.2-0.9-1.6-1.5c-0.5-0.7-1-0.9-1.8-0.9
		c-2.2,0-4.2-0.7-5.7-2.4c-0.3-0.3-0.5-0.5-1-0.3c-2.2,0.9-4.4,0.7-6.6,0.2c-1.1-0.3-2-0.8-2.5-1.9c-0.3-0.7-0.7-0.7-1.2-0.3
		c-0.3,0.2-0.7,0.3-1.1,0.5c-2,0.8-3.9,0.5-5.7-0.3c-0.8-0.4-1.5-0.5-2.3-0.3c-2,0.6-3.8,0-5.4-1c-0.6-0.4-0.9-0.4-1.4,0
		c-1.9,1.7-4.1,1.6-6.3,0.7c-0.4-0.2-0.6-0.1-0.9,0.1c-1.9,0.9-3.4,2.8-5.8,2.3c-0.1,0-0.2,0.2-0.3,0.3c-0.6,0.8-1.2,1.5-1.7,2.3
		c-1.9,2.8-3.2,5.9-4.7,8.8c-0.5,0.9,0.2,1.1,0.8,1c2.7-0.2,5.3,0.3,7.9,1c1.6,0.4,3.3,0.8,4.9,1.2c2,0.5,3.3,2.1,5.1,3.1
		c1,0.6,2.5,1.5,2.1,3.3c-0.2,1,0.3,1.3,1.2,1.3c1.8,0.1,3.6,0.1,5.3,0.6c0.6,0.2,0.8,0.2,1-0.4c0.2-0.6,0.5-1.1,1.2-1.3
		c0.6-0.2,1.1-0.8,1.7-1.2c1.2-0.7,2.3-1.4,3.6-1.9c0.8-0.3,1.7-0.4,2.6-0.2c1.6,0.3,3.3,0.6,4.9,0.8c4,0.3,8,0.8,12,1.5
		c1.8,0.4,3.2,1.6,4.7,2.6c2.4,1.7,3.3,4,2.5,7c-0.1,0.4-0.3,0.8,0.4,1.2c0.3-2.1,1.2-3.9,1.6-5.8c0.6-2.8,0-5.7,1.3-8.3
		c0.1-0.3,0.1-0.7,0-1.1c-0.1-1.5-0.4-2.9-0.9-4.3c-0.3-0.9-0.6-2.2-1.7-2.5c-1.3-0.3-2.2-1-2.9-2C166.7,25.9,165.6,25.4,164.3,25.2
		z M70.7,189.4c1-0.1,1.9-0.5,2.7-1.1c1.1-0.8,2.3-1.5,3.5-2.3c2-1.4,3.8-3.1,4.2-5.7c0-0.2,0-0.6,0.2-0.6c1-0.2,0.9-1,1-1.7
		c0.6-2.7,1.5-5.4,1.9-8.1c0.5-2.9,1.1-5.8,1.6-8.7c0.5-3.7,1.2-7.3,2-10.9c0.6-2.7,1.3-5.3,1.6-8.1c0.2-2.5,0.6-5,1.2-7.5
		c0.5-2.2,0.6-2.2,2.7-2.2c0.1,0,0.2,0,0.2-0.1c0.5,0.5,1.2,0.9,1,1.6c-0.6,1.7-0.7,3.5-1,5.2c-0.3,2.2-0.8,4.4-1.4,6.6
		c-0.5,2-0.7,4.2-0.9,6.3c-0.2,2.8-1.1,5.5-1.6,8.3c-0.4,2.2-0.9,4.5-1,6.7c-0.2,3-0.9,5.9-1.3,8.9c-0.3,1.9-0.9,3.8-1.4,5.6
		c-0.4,1.9-0.6,3.9-0.8,5.8c-0.1,0.7-0.3,1.4-0.4,2.1c-0.7,4.2-0.7,8.4-2.2,12.5c-0.9,2.6-1,5.5-1.4,8.3c-0.1,0.6,0,1.3-0.3,1.9
		c-1.4,3.5-2.3,7.1-3.9,10.5c-0.4,0.9,0.1,1.7,0.2,2.6c0.1,0.6,0.9,0.4,1.4,0.6c2.4,0.8,5,1,7.5,1.4c2.4,0.3,4.8,0.5,7.2,0.2
		c3.5-0.5,7-0.7,10.4-1.4c0.7-0.1,0.9-0.4,1-0.9c0.1-1.2,0.4-2.4,0-3.5c-0.2-0.6-0.2-1.1,0-1.7c0.6-2.2,0.8-4.4,0.8-6.6
		c0-0.8,0.3-1.5,0.5-2.2c0.6-1.7,1.7-3.5,1.2-5.4c-0.5-1.7-0.8-3.4-1.1-5.1c-0.2-1.2-0.5-2.4-0.3-3.5c0.6-2.4,0.5-4.9,1.4-7.3
		c0.5-1.4,1.1-2.8,1.2-4.2c0.3-2.6,0-5.2-0.3-7.7c-0.2-2.5,0-4.9,0.2-7.4c0.1-1.3,0.6-2,1.9-2.2c0.4-0.1,1-0.1,0.9-0.7
		c-0.1-2,0.5-4,0.2-6.1c-0.2-1.5-0.2-3-0.1-4.4c0.2-3.7,0.4-7.5,0.4-11.2c0.1-1.9,0.3-3.7,0.4-5.6c0.1-2.8,0.4-5.6,0.8-8.4
		c0.4-2.8,0.8-5.6,0.9-8.4c0.2-2.6,0.3-5.3,0.7-7.9c0.3-2.3,0.8-4.6,1.5-6.9c0.2-0.7,0-1-0.6-1.3c-1.4-0.7-2.6-1.5-3.7-2.6
		c-0.4-0.4-0.9-0.6-1.5-0.4c-5.7,1.2-10.6,3.8-14.4,8.3c-1.6,1.9-3.2,3.9-4.8,5.8c-1.9,2.3-4.1,4.3-5.7,6.8c-1.9,3-3.8,6-5.8,9.1
		c-2.6,4.1-5.9,7.4-9.7,10.3c-0.3,0.2-0.8,0.4-0.6,0.9c0.2,0.4,0.6,0.6,1.1,0.7c1.2,0.2,2.3,0.7,3.4,1.3c0.7,0.6,1.4,1.3,2.1,1.9
		c0.2,0.2,0.5,0.5,0.2,0.8c-0.2,0.3-0.5,0.2-0.8,0.1c-1.1-0.2-2.1-0.4-3.2-0.6c-0.4-0.1-0.8-0.3-1.4,0.2c1.3,0.4,2.4,0.9,3.5,1.3
		c1.2,0.4,2,1.3,3,1.9c1,0.6,1.6,1.7,2.6,2.5c0.9,0.7,1.9,1.4,2,2.8c-4.6-1.8-9.2-3.5-13.8-5.3c0.3,0.7,0.9,0.9,1.3,1.4
		c1.8,1.9,3.1,4,4.5,6.1c0.9,1.4,1.8,2.8,2.5,4.3c0.2,0.4,0.3,0.9-0.1,1.2c-0.4,0.3-0.8,0.5-1.4,0.2c-0.9-0.5-1.7-1.1-2.3-2
		c-2-2.9-3.8-5.9-6.6-8.2c-2-1.7-4.3-3.1-6-5.1c-2.9-3.2-5.6-6.6-7.7-10.5c-1.7-3.2-4.3-5.7-5.8-9.1c-0.2-0.4-0.5-0.4-0.8-0.3
		c-0.9,0.2-1.9,0.2-2.8,0.6c-3.2,1.3-6.1,3.3-9.3,4.6c-1.3,0.5-2.7,1.1-4,1.4c-2.3,0.5-4.4,1.5-6.2,2.9c-1.4,1-1.4,1.1-0.3,2.4
		c0.2,0.3,0.4,0.6,0.6,0.9c1.7,3.7,4.5,6.7,6.6,10.2c1.4,2.3,3.1,4.4,4.5,6.7c1.7,2.7,3.7,5.2,5.4,8c0.8,1.4,2.2,2.5,2.9,4
		c0.4,1,1.2,1.7,1.8,2.5c0.9,1.2,2.3,1.8,3.3,2.7c1.9,1.6,3.7,3.3,5.8,4.7c3.9,2.5,8.2,4.3,12.4,6.2C67.3,189.7,69,190.1,70.7,189.4
		z M141.3,216c-0.9-0.4-1.8-0.8-2.6-1.3c-0.7-0.5-1.6-1.2-1.3-2c0.5-1.8,0.6-3.8,2.9-4.5c0.2-0.1,0.5-0.2,0.5-0.5
		c0-0.2-0.2-0.3-0.4-0.4c-1.1-0.2-1.8-1.3-2.9-1.5c-0.4-0.1-0.7-0.5-0.3-0.8c1.6-1.3,1.9-3.4,3.4-4.6c0.2-0.2,0.6-0.4,0.5-0.7
		c-0.1-0.4-0.6-0.2-0.9-0.3c-0.5-0.1-1-0.2-1.5-0.1c-0.2,0.1-0.6-0.2-0.8-0.4c-0.2-0.2,0.1-0.4,0.3-0.6c1.2-1,1.7-2.6,2.5-3.9
		c0.7-1.1,1.4-1.8,2.6-2c1,0,1.9,0.4,2.8,0.2c2.1-0.6,4.3-0.6,6.5-0.2c0.7,0.1,0.8-0.1,0.8-0.7c0-1.7,0.5-3.1,1.8-4.2
		c1.4-1.2,1.4-1.4,0.5-3c-0.5-1-0.7-2-0.5-3c0.4-1.4,0.2-2.8,0-4.3c-0.5-2.9-0.7-5.7,0.7-8.4c0.8-1.5,1.2-3.2,1.3-4.9
		c0.1-1.5,0.4-3,1-4.4c0.9-2.1,1-4.3,1.3-6.5c0.1-0.5-0.2-0.9-0.5-1.3c-1.4-1.4-2.8-2.7-4.1-4.1c-1.4-1.5-2.9-2.9-3.1-5.1
		c0.1-0.6-0.1-1.4,0.8-1.5c0.5-0.1,1.1-0.3,1.6,0.4c2.4,3,4.8,6,7.8,8.3c1.2,0.9,2,2.3,3.5,2.8c1.1,0.4,2,1.2,2.8,2
		c3.2,3,7,5.2,10.4,8c1.9,1.6,4,2.8,6.2,4c2.1,1.2,4,2.8,6.1,4c1.7,1,1.9,1.4,0.7,3c-1.1,1.5-0.7,3-0.7,4.5c0,1.3,1.2,2.3,1.7,3.5
		c0.2,0.5,0.2,0.6-0.1,1c-0.8,1-1.9,0.9-3,0.9c-0.5,0-0.8,0.1-0.9,0.6c-0.6,2.2-2.2,3.6-3.8,5.1c-2.4,2.2-5.1,4-7.6,6
		c-3.7,2.9-7.3,5.8-12,6.8c-0.7,0.1-0.7,0.6-0.4,1.1c0.6,1.2,1.2,2.4,2,3.5c1.7,2.1,2.6,4.7,4.1,7c0.5,0.9,1.1,1.7,1.5,2.7
		c0.6,1.2,0.8,2.6,1.9,3.5c0.5,0.4,0.8,0.9,0.9,1.5c0.1,0.6,0.4,0.6,0.8,0.4c2.9-1.5,5.8-2.7,8.8-3.8c5.4-2,10.5-4.6,15.7-7
		c4.3-1.9,8-4.6,10.9-8.5c2.3-3,4.8-5.9,6.6-9.2c1-1.8,1.5-3.8,2.1-5.8c0.7-2.6,1.8-5.1,2.7-7.7c0.4-1.3,0.3-2.2-1.1-2.9
		c-2.8-1.4-5.2-3.3-7.4-5.6c-1.3-1.4-2.6-2.9-3.9-4.4c-3.6-3.9-6.9-8.1-10.5-11.9c-1.9-2-3.6-4.2-5.3-6.3c-2.1-2.5-4.8-4.3-6.8-6.9
		c-2-2.5-4-5-6.3-7.3c-2.1-2-4.1-4.1-6.3-6c-1.8-1.5-3.6-3.2-5.3-4.8c-2.4-2.1-5.1-3.8-7.3-6.1c-3.6-3.7-7.4-7.2-11.8-9.8
		c-1.5-0.9-2.9-1.8-4.5-2.4c-3.4-1.2-6.5-0.1-9.5,1.2c-0.8,0.4-1.9,1-1.4,2.1c0.3,0.8,0.1,1.5-0.2,2.1c-0.3,0.8-0.6,1.7-0.7,2.5
		c-0.8,2.9-1.9,5.6-2.7,8.5c-0.5,1.8-0.8,3.7-1.7,5.3c-0.9,1.7-1.5,3.5-2.3,5.3c-1.1,2.6-1.7,5.3-3,7.8c-0.8,1.5-1.4,3-1.8,4.6
		c-0.7,3.1-1,6.4-2.5,9.3c-1.2,2.3-2,4.6-2.7,7c-0.9,3-1.5,6.2-2.2,9.2c-0.2,0.7-0.5,1.6-1,2.1c-0.6,0.6-0.7,1.1-0.7,1.8
		c-0.1,3.2,0.2,6.4,0.5,9.5c0.2,2-0.1,3.9-0.9,5.7c-0.6,1.3-1.5,2.4-1.6,3.8c-0.4,3.6-0.4,7.3,1,10.7c1,2.4,0.6,4.7-1.1,6.5
		c-0.8,0.9-1.1,1.7-1.1,2.8c-0.1,2.4,0.4,4.8-0.7,7.1c-0.1,0.2,0,0.5,0,0.7c-0.2,1.5,0.2,3.1-0.5,4.5c-0.4,0.8-0.3,0.8,0.6,0.9
		c3.7,0.3,7.4-0.5,11.1-0.5c1.4,0,2.9-0.6,4.3-0.3c2.7,0.5,5.3,0.4,8,0.6c0.3,0.3,0.7,0.3,1,0.3c3,0,6.1,0,9.1,0
		c1.2,0,2.4-0.1,3.6-0.6c-1.3,0.3-2.3-1.2-3.7-0.5c-0.3,0.1-0.2-0.3-0.4-0.5c-0.5-0.8,0.6-1.2,0.4-2c-0.2-0.7,0.3-1.3,0.9-1.7
		c1.2-0.9,2.4-1.9,4.1-1.7c0.2,0,0.6,0,0.7-0.3c0.1-0.4-0.3-0.5-0.5-0.5C145.9,217.9,143.6,216.9,141.3,216z M163.4,156.4
		c-0.1,0.2-0.1,0.3-0.1,0.4c-0.2,4.4-1,8.7-1.9,13c-0.3,1.6-1.2,3.1-1.2,4.7c0,2.1,0.3,4.2,0.2,6.2c-0.2,2.1,0.1,4.1,1.1,6
		c0.7,1.4,0.6,1.8-0.7,2.5c-2,1.1-2.1,3-2.4,4.8c0,0.3,0.2,0.4,0.4,0.5c1.7,1.2,3.5,2.3,4.3,4.4c0.2,0.5,0.5,0.5,0.9,0.3
		c1.1-0.5,2.2-1.1,3.2-1.8c3.1-2.2,6.3-4.1,9.1-6.7c2.7-2.4,5.4-4.7,8.1-7.1c0.6-0.5,0.9-1.2,1.2-1.9c0.3-0.5-0.6-0.6-0.6-1.1
		c0-0.3-0.2-0.6-0.2-0.8c0.4-1.8,0.1-3.7,1.3-5.3c0.5-0.7,0.3-1.2-0.5-1.6c-3.1-2-6.2-3.9-9.2-6c-1.7-1.2-3.1-2.7-4.8-4
		C168.9,160.8,166.1,158.8,163.4,156.4z M112.4,17c1.2-0.6,2.6-0.9,3.4-2c0.3-0.4,0.7-0.9,1.1-1.2c0.5-0.4,1.2-0.8,1.7-0.4
		c0.5,0.4,0,1-0.2,1.5c-0.6,1.3-1.4,2.5-2.1,3.7c-0.2,0.2-0.4,0.5-0.2,0.8c0.2,0.4,0.5,0,0.7,0c1.3-0.4,2.4-1.1,3.6-1.9
		c0.4-0.3,0.4-0.7,0.2-1.1c-0.3-0.6-0.3-1.4,0.3-1.6c0.8-0.3,1.6-0.7,2.4-1.2c0.4-0.2,0.9-0.3,1.4-0.4c0.4-0.1,0.8,0,1.1,0.3
		c0.3,0.4,0,0.7-0.3,1c-0.5,0.5-1,1.1-1.3,1.7c-0.2,0.4-0.3,0.9,0.1,1.2c0.4,0.4,0.9,0.2,1.2-0.1c1.1-0.9,2.8-1.2,3.2-3
		c0.1-0.3,0.4-0.5,0.8-0.5c0.5,0,1-0.3,1.4-0.6c0.6-0.4,1.5-0.4,2.2-0.4c0.7,0,0.8,0.5,0.5,1.1c-0.3,0.5-0.6,1-0.9,1.5
		c-0.2,0.4-0.4,0.7,0,1.1c0.5,0.5,1.1,0.4,1.6,0.2c0.5-0.3,1.5-0.4,1.3-1.2c-0.3-1.4,0.6-1.8,1.6-2.2c1.1-0.4,2.4-0.2,3.5-0.5
		c0.4-0.1,0.8,0.2,1,0.6c0.2,0.4-0.1,0.7-0.4,1c-0.7,0.4-1,1.2-1.2,1.9c-0.2,0.5,0,1.3,0.6,1.1c1.4-0.2,3.1-0.5,3.9-1.9
		c0.7-1.2,1.7-1.5,2.8-1.7c0.8-0.1,1.7,0,2.5,0.1c0.6,0.1,0.9,0.5,0.7,1.1c-0.2,0.4-0.4,0.7-0.6,1c-0.8,1.2-0.7,2.1,0.2,2.7
		c0.9,0.6,3.3,0.4,3.7-0.4c0.5-0.9,1-1.4,2.1-1.5c0.8-0.1,1.6,0.1,2.4-0.3c0.5-0.3,1.1-0.4,1.6,0.1c0.5,0.5,0.7,1.1,0.5,1.9
		c-0.5,1.6,0.1,2.3,1.8,2.3c1.3,0,2.5-0.6,3.7-0.7c0.5-0.1,1-0.3,1.4,0.2c0.3,0.5,0.4,0.9,0.1,1.5c-0.4,0.7,0.3,1.8,0.9,1.6
		c1-0.4,2,0,3.1-0.4c0.7-0.3,1.2,0.3,1.2,1.1c0,0.3-0.2,0.6-0.3,0.9c-0.2,0.9,0.5,1.9,1.4,2.1c1.2,0.2,2.1-0.4,2.1-1.5
		c0.2-2.6,1-5,1.4-7.6c0.1-0.6,0-1.1-0.6-1.2c-0.7-0.1-1.1-0.6-1.6-1.2c-0.2,0.7-0.2,1.6-0.8,1.5c-1-0.1-2,0.1-2.9-0.2
		c-0.6-0.2-1.3,0-1.6-0.8c-0.5-1.2-1.5-1.4-2.6-1.6c-3.2-0.7-6.4-1.4-9.6-1.8c-3.3-0.4-6.5-1.3-9.6-2.3c-2-0.7-4.2-0.7-6.2-0.8
		c-2.7-0.1-5.3-0.8-7.9-1c-4.1-0.2-8.3-0.5-12.1,1.7c-1.8,1-3.9,1.3-5.6,2.4C114.4,13.9,113.1,15.2,112.4,17z M115.4,160.3
		c1-2.2,2-4.3,2.9-6.5c1.1-2.7,1.6-5.5,2.4-8.2c0.9-2.9,2.1-5.6,2.9-8.6c0.6-2.4,1.7-4.6,2.4-7c1-3.2,1.9-6.4,2.8-9.6
		c0.4-1.5,1.4-2.8,1.2-4.4c-4.4,1.5-8-0.2-11.2-3.3c-0.1,0.7-0.3,1.3-0.3,2c-0.2,2.2-0.4,4.4-0.6,6.7c-0.3,3.7-0.9,7.3-0.9,11
		c0,3-0.2,5.9-0.4,8.9c-0.3,4.6-0.7,9.2-0.6,13.9C115.8,156.8,115.3,158.5,115.4,160.3z M97,41.2c0.1,0.6-0.4,1.3,0.1,1.8
		c0.7,0.6,0.7,1.4,0.7,2.2c0,1.1,0.5,1.8,1.5,2.2c1,0.4,2,0.6,3,0.9c2.8,1.1,5.9,0.7,8.8,1.3c1.8,0.4,3.6,0.2,5.3,0.8
		c0.4,0.1,0.8,0.1,0.8-0.5c0-1.3,0.7-2.2,1.6-3.1c1.2-1.3,2.5-2.1,4.3-1.8c0.3,0.1,0.5-0.1,0.4-0.3c-0.3-1.3,0.2-2.6,0.1-3.9
		c0-0.6-0.3-1-0.8-1.2c-1.1-0.4-2.2-0.8-3.2-1.1c-4.9-1.6-10-2.4-15-3.2c-2.3-0.4-4.3,0.1-6.2,1.4c-0.2,0.2-0.6,0.2-0.6,0.5
		C97.5,38.6,96.5,39.8,97,41.2z M140.3,48.7c0.3,0.7-0.6,1.5,0.2,2.1c0.6,0.5,1.3,1.1,2.1,1.2c1.5,0.2,2.9,0.7,4.3,1.1
		c3.2,0.7,6.4,1.3,9.6,2.3c2.5,0.8,4.9,1.2,7.5,1.1c0.4,0,0.7,0.2,0.8-0.5c0.2-2.3,0.9-4.5,1.1-6.8c0.2-1.6,0.1-2.5-0.9-3
		c-2.1-1-4.1-2.2-6.4-2.7c-5.4-1.1-10.8-1.4-16.2-2.1c-0.8-0.1-0.9,0.2-1.1,0.8C140.7,44.2,140.5,46.4,140.3,48.7z M129.8,112.1
		c-2.6,0.7-5.1,0.2-7.7-0.6c0.8,1.6,2.1,2.7,3.9,2.9C127.8,114.7,128.8,113.2,129.8,112.1z M100,62.5c1.1,0.4,1.3-0.9,2.3-0.9
		c0.7,0,1.5-0.4,2.4-0.2c-1.1-0.6-0.4-1.6-0.6-2.3c-1.5-0.3-0.9,1.5-1.8,1.7C101.4,61.1,100.8,61.8,100,62.5z M173.9,50.2
		c0.1,0,0.3,0.1,0.4,0.1c0.9-1.7,0.9-3.6,1-5.5c-0.1,0-0.2,0-0.4-0.1C174.6,46.5,174.3,48.3,173.9,50.2z"/>
	<path class="st1" d="M62.2,207.5c-0.2,0.6-0.3,1-0.3,1.3c-0.2,1-0.7,1.5-1.8,1.1c-0.3-0.1-0.6-0.3-0.8,0.2c-0.1,0.5,0,1.1-0.9,1
		c-0.7-0.1-0.9-0.6-0.9-1.3c-0.6,0.6-0.6,1.6-1.5,1.5c-1.2-0.1-1.8-0.9-2.1-2c-0.5,0.3-0.5,0.8-0.8,1.2c-0.7,1-1.5,1.4-2.6,0.9
		c-0.7-0.3-1-0.1-1.2,0.5c-0.4,1-1.1,1.9-2,2.6c-1.6,1.2-3.3,0.7-3.7-1.2c-0.4-1.6-0.9-3.1-0.9-4.8c0-0.5-0.1-0.8-0.7-0.8
		c-1.1-0.1-1.2-0.8-0.5-1.7c1.9-2.3,5.3-2.5,7.6-0.5c0.3,0.2,0.4,0.3,0.7,0.1c1-0.9,1.9-0.4,2.8,0.2c0.4,0.3,0.8,0.6,0.9-0.2
		c0.1-0.4,0.4-0.5,0.7-0.4c0.4,0.1,0.7,0.2,0.7,0.6c0.1,0.9,0.3,1.7,0.8,2.7c0.4-1.1,0.1-2,0.2-2.8c0.1-0.6-0.2-1.3,0.6-1.5
		c0.8-0.1,0.8,0.7,1.2,1.2c0.3-0.6,0-1.6,1-1.6c1.6-0.1,1.3,1.5,1.9,2.4c0.3-0.7,0.5-1.4,0.8-2.1c0.2-0.4,0.3-0.9,0.9-0.8
		c0.5,0.1,1.2,0.2,1.4,1c0.2,1.1,0.4,2.3,0.6,3.4c0.1,0.3,0,0.6,0.4,0.6c0.1,0,0.3-0.1,0.4-0.2c0.3-0.3,0-0.5-0.2-0.6
		c-0.3-0.2-0.3-0.5-0.3-0.8c0.1-2.5,0-5,0.7-7.5c0.1-0.4,0.1-1.1,0.8-0.9c0.6,0.2,1.4,0.3,1.2,1.2c-0.5,2.7,0,5.4-1,8
		c-0.1,0.3-0.1,0.5,0.2,0.7c0.2,0.1,0.8,0.1,0.4,0.6c-0.2,0.3-0.5,0.5-0.8,0.3c-0.8-0.3-1.5-0.6-2.2,0.2c-0.3,0.3-1-0.1-1.3-0.6
		C62.5,208.4,62.4,208.1,62.2,207.5z M43.1,206.9c0.6,0.3,1.2,0.3,1.4,0.9c0.2,0.3,0.4,0.3,0.7,0.2c0.6-0.4,1.3-0.8,1.9-1.2
		c0.2-0.2,0.3-0.4,0.2-0.7c-0.1-0.3-0.3-0.3-0.6-0.3C45.5,205.6,44.2,205.8,43.1,206.9z M45.9,212.8c0.7-0.3,0.9-0.9,1.2-1.5
		c0.2-0.4,0.5-0.8,0.2-1.2c-0.3-0.3-0.8-0.2-1.3-0.1c-0.7,0.1-0.9,0.4-0.6,1.1C45.7,211.6,45.8,212.2,45.9,212.8z M50.8,208.5
		c0.1,0.3-0.3,1.2,0.3,1.2c0.6,0,0.6-0.9,0.6-1.5c0-0.2,0-0.3,0-0.5c0-0.5,0-1.1-0.6-1.1c-0.4,0-0.3,0.6-0.3,1
		C50.8,208,50.8,208.2,50.8,208.5z M48.8,207.4c-0.6,0.6-1.3,1,0,1.5C48.8,208.4,48.8,208,48.8,207.4z"/>
	<path class="st1" d="M59.4,216.1c1.5,0.2,2.4,1.6,2,3c-0.1,0.5-0.4,0.6-0.9,0.7c-2.3,0.4-4.7,0.8-7.1,0.9c-0.4,0-0.7,0-1.1,0.4
		c-0.6,0.6-1.6,0.4-1.8-0.5c-0.6-2.3-0.9-4.6-0.9-7c0-0.4,0-0.9,0.5-0.9c0.5,0,1.1,0.1,1.3,0.8c0.2,0.8,0.1,1.7,0.3,2.5
		c0.1,1,0.6,1.1,1.4,0.9c1.1-0.2,2.2-0.4,3.4-0.6c-1.1-0.2-2-0.3-2.4-1.6c-0.2,0.6-0.3,1.2-0.9,1c-0.8-0.3-1.2-0.9-1.1-1.8
		c0-0.4-0.2-0.9,0.4-1c0.8-0.2,1.1,0.5,1.4,1.1c0.2-0.6,0-1.3,0.5-1.7c0.5-0.4,1.1-0.2,1.6-0.2c0.7,0,1.3-0.1,2-0.4
		c0.6-0.2,1.2-0.1,1.3,0.4c0.2,0.5-0.4,0.6-0.8,0.8c-0.7,0.4-1.5,0.3-2.2,0.3c-0.2,0-0.5,0-0.5,0.3c0,0.4,0.3,0.5,0.6,0.4
		c0.4,0,0.9-0.1,1.3-0.2c0.7-0.1,1.5-0.4,1.9,0.2C60,214.6,59.6,215.4,59.4,216.1z M57.8,217.6c-1.5,0.2-3,0.3-4.5,0.5
		c-0.5,0.1-1.1,0.2-0.9,0.9c0.2,0.7,0.8,0.4,1.2,0.4c1.5-0.2,2.9-0.4,4.4-0.7c0.6-0.1,1.7,0.2,1.6-0.8
		C59.3,217.2,58.3,217.8,57.8,217.6z"/>
	<path class="st2" d="M143.2,192.4c-1.3,0.1-2,0.9-2.6,2c-0.8,1.3-1.3,2.8-2.5,3.9c-0.2,0.1-0.4,0.4-0.3,0.6
		c0.2,0.2,0.6,0.5,0.8,0.4c0.5-0.1,1,0,1.5,0.1c0.3,0.1,0.8-0.1,0.9,0.3c0.1,0.3-0.3,0.5-0.5,0.7c-1.5,1.3-1.9,3.4-3.4,4.6
		c-0.4,0.3-0.1,0.7,0.3,0.8c1.1,0.2,1.8,1.3,2.9,1.5c0.2,0,0.4,0.2,0.4,0.4c0,0.3-0.2,0.4-0.5,0.5c-2.3,0.6-2.5,2.7-2.9,4.5
		c-0.2,0.9,0.6,1.6,1.3,2c0.8,0.5,1.7,0.8,2.6,1.3c-0.1,0.1-0.2,0.2-0.4,0.2c-3.4,0.4-5,3-6.5,5.6c-0.3,0.6-0.3,1.2-0.3,1.9
		c0,0.9,0.5,1.7,0.8,2.6c-0.6,0-1.1,0-1.6,0c-2.7-0.2-5.4-0.1-8-0.6c-1.4-0.2-2.8,0.3-4.3,0.3c-3.7,0-7.4,0.8-11.1,0.5
		c-0.8-0.1-1-0.1-0.6-0.9c0.8-1.4,0.3-3,0.5-4.5c0-0.2-0.1-0.5,0-0.7c1.1-2.3,0.6-4.7,0.7-7.1c0-1.1,0.3-1.9,1.1-2.8
		c1.7-1.9,2.1-4.1,1.1-6.5c-1.5-3.5-1.4-7.1-1-10.7c0.1-1.4,1.1-2.6,1.6-3.8c0.8-1.9,1.1-3.8,0.9-5.7c-0.3-3.2-0.5-6.4-0.5-9.5
		c0-0.7,0.1-1.2,0.7-1.8c0.5-0.5,0.8-1.4,1-2.1c0.8-3.1,1.3-6.2,2.2-9.2c0.7-2.4,1.6-4.8,2.7-7c1.5-2.9,1.8-6.2,2.5-9.3
		c0.4-1.7,1-3.1,1.8-4.6c1.3-2.5,1.9-5.2,3-7.8c0.7-1.8,1.3-3.6,2.3-5.3c0.9-1.6,1.2-3.5,1.7-5.3c0.8-2.9,2-5.6,2.7-8.5
		c0.5,0.1,1.2,0.1,1.5,0.5c0.6,0.6,1.7,0.8,2.2,0.8c1.4-0.2,2.6,0.3,3.8,0.5c4,0.6,7.1,2.9,10.1,5.2c1.5,1.2,2.7,2.8,3.9,4.3
		c1.6,2,3.5,3.8,5,5.8c1.7,2.2,4.1,3.7,5.7,5.9c1.8,2.5,4.2,4.5,6,7c4.1,5.7,9.5,10.4,13.3,16.3c1.7,2.6,4.2,4.5,6.2,6.9
		c2.5,2.9,4.8,6,6.9,9.1c-0.1,0.1-0.3,0.2-0.4,0.4c0.3,0.1,0.6,0.1,0.9,0.2c-0.1,0.6,0.4,1.1,0,1.7c-0.1,0.2,0.1,0.7-0.4,0.6
		c-0.4-0.1,0.2-0.6-0.2-0.7c-1.3,0.9-0.7,2.2-0.8,3.4c0,0.8,0.2,1.1,1,0.9c0,0,0,0,0,0c-0.4,0.4,0,0.7,0.3,0.9
		c0.8,0.6,1.1,1.2,0.4,2.1c-1,1.4-0.8,1.7,0.8,2.3c0.1,0,0.2,0.2,0.4,0.4c-0.8,0-1.6,0-2.2-1c0.2,1.4-0.5,2.4,0,3.5
		c0.3,0.7,0.6,1.5-0.6,1.7c-0.2,0-0.4,0.4-0.5,0.6c-1.3,2.4-3.7,3.5-5.4,5.6c-1.2,1.4-3.4,1.9-4.6,3.6c0,0-0.1,0.1-0.2,0.1
		c-1.4,0-2.3,1.1-3.3,1.8c-0.5,0.4-1.1,0.7-1.7,1c-1.2,0.5-2.8,0.9-3.1,2.5c-0.1,0.3-0.3,0.2-0.4,0.2c-0.6-0.3-1,0.1-1.3,0.4
		c-1,1.1-2.3,1.9-3.5,2.9c-1.1,0.9-2,2-3.4,2.6c-1.5-2.3-2.4-4.8-4.1-7c-0.8-1.1-1.5-2.3-2-3.5c-0.2-0.5-0.3-0.9,0.4-1.1
		c4.7-1,8.4-3.9,12-6.8c2.5-2,5.2-3.7,7.6-6c1.6-1.5,3.2-2.9,3.8-5.1c0.2-0.5,0.4-0.6,0.9-0.6c1.1,0,2.2,0.1,3-0.9
		c0.3-0.3,0.3-0.5,0.1-1c-0.5-1.2-1.7-2.3-1.7-3.5c0-1.5-0.4-3.1,0.7-4.5c1.2-1.7,1-2.1-0.7-3c-2.1-1.2-4-2.8-6.1-4
		c-2.2-1.2-4.3-2.5-6.2-4c-3.4-2.8-7.2-5-10.4-8c-0.8-0.8-1.6-1.6-2.8-2c-1.5-0.5-2.3-1.9-3.5-2.8c-3.1-2.3-5.5-5.3-7.8-8.3
		c-0.5-0.6-1.1-0.4-1.6-0.4c-0.9,0.1-0.7,0.9-0.8,1.5c-1.5,0.1-1.5,0.1-2.3,1.4c-0.1,0.1-0.1,0.2-0.2,0.3c-0.9,0.3-0.9,1.1-1.1,1.9
		c-0.3,1.5-0.4,3.1-0.6,4.6c-0.3,2.1-0.5,4.2-0.7,6.3c0,0.2-0.1,0.6,0.2,0.6c1.3,0.3,0.5,0.7,0.1,1.1c-0.3,0.2-0.3,0.5-0.4,0.8
		c-0.4,1.2,0.2,2.3-0.1,3.5c-0.3,1.1-0.3,2.3,0.6,3.3l0,0c-0.1,0.4-0.6,0.8,0.2,1l0,0c-0.7,0.4-0.6,1-0.2,1.6
		c0.2,0.3,0.5,0.7,0.3,1.1c-0.4,0.7-0.3,1.5-0.1,2.2c0.5,1.8-0.1,3.5-0.9,5c-1.1,2.2-2.1,4.5-2.5,7c-0.3,1.8-0.5,3.6,0.4,5.4
		C145.1,190.7,144.5,191.9,143.2,192.4z M143.5,123.5c-0.1-0.4-0.1-0.7,0-1.1c0.3-1.4-0.6-2.2-1.5-2.9c-0.8-0.6-1.6,0-2.3,0.3
		c-0.7,0.3-1.4,0.5-1.2,1.6c0,0.2-0.1,0.5-0.3,0.5c-1.1,0-0.6,0.7-0.5,1.2c0.1,0.7,0.2,1.5,0.2,2.2c-0.2,2.3-0.3,4.6-0.6,7
		c-0.5,4.1-1.2,8.2-1.7,12.3c-0.2,2-1.4,3.7-1.4,5.8c0,1.6-0.1,3.2-0.3,4.8c-0.4,4-1,8-1.8,12c-0.3,1.7,0,2.8,1,2.9
		c1.8,0.2,3.7,0.5,5.1-1.1c0.1,0.1,0.3,0.2,0.3,0.3c-0.2,1.3,0.6,1.6,1.6,2c0.3,0.1,0.7,0.2,1,0.4c0.8,0.5,1.3,0,1.6-0.6
		c0.2-0.4,0.4-1,0.5-1.4c0.4-1.4,0.2-2.9,0.2-4.2c0.2-3.7,0.4-7.4,0.5-11.1c0.2-4.4,0-8.8,0.2-13.3c0.3-4.5,0.1-9.1,0.1-13.6
		C144.2,126,143.9,124.8,143.5,123.5z"/>
	<path class="st2" d="M73.6,147.5c-1.1-0.6-2.2-1.1-3.4-1.3c-0.5-0.1-0.9-0.4-1.1-0.7c-0.2-0.4,0.3-0.7,0.6-0.9
		c3.8-2.9,7.1-6.2,9.7-10.3c1.9-3,3.9-6,5.8-9.1c1.6-2.5,3.8-4.5,5.7-6.8c1.6-1.9,3.2-3.9,4.8-5.8c3.8-4.5,8.7-7.1,14.4-8.3
		c0.6-0.1,1.1,0,1.5,0.4c1.1,1.1,2.3,1.9,3.7,2.6c0.6,0.3,0.8,0.6,0.6,1.3c-0.7,2.2-1.2,4.5-1.5,6.9c-0.3,2.6-0.4,5.3-0.7,7.9
		c-0.7,0-0.4-0.5-0.5-0.9c-0.2-1.1,0.3-2.2-0.2-3.2c-0.1-0.4-0.2-0.8-0.3-1.2c-0.4-1.3-0.8-1.5-2-0.8c-0.8,0.5-1.5,0.9-2.5,0.6
		c0.5,0.6,0.5,1.2,0.4,1.8c-0.4,1.6-0.7,3.3-1.3,4.8c-1.7,4.3-2.5,8.8-3.8,13.3c-1.1,3.7-1.7,7.5-3.5,11c-0.7,1.4-1,3-0.7,4.6
		c0.2,1.3,0.1,2.7-0.2,4c-0.3,1.4-0.1,2.9,0,4.4c0,1.6,2.3,3,4.2,3c0.7,0,1.2-0.2,1.6-0.8c0.7,0.2,1.6,1.2,2.1,0.6
		c0.5-0.6,1.3-1,1.5-1.9c0.8-3.7,1.4-7.4,2.2-11.1c0.5-2.3,0.6-4.6,0.9-7.1c0.1,0.5,0.1,0.9,0.2,1.3c0,3.7-0.2,7.5-0.4,11.2
		c-0.1,1.5-0.1,2.9,0.1,4.4c0.3,2-0.4,4-0.2,6.1c0,0.6-0.5,0.6-0.9,0.7c-1.3,0.2-1.9,0.9-1.9,2.2c-0.2,2.5-0.4,4.9-0.2,7.4
		c0.3,2.6,0.5,5.2,0.3,7.7c-0.2,1.5-0.7,2.9-1.2,4.2c-0.8,2.4-0.8,4.9-1.4,7.3c-0.3,1.1,0,2.4,0.3,3.5c0.3,1.7,0.6,3.4,1.1,5.1
		c0.5,1.9-0.5,3.6-1.2,5.4c-0.3,0.7-0.5,1.4-0.5,2.2c0,2.2-0.2,4.5-0.8,6.6c-0.1,0.5-0.1,1.1,0,1.7c0.4,1.2,0.2,2.4,0,3.5
		c-0.1,0.5-0.3,0.8-1,0.9c-3.4,0.7-6.9,0.9-10.4,1.4c-2.4,0.3-4.8,0.2-7.2-0.2c-2.5-0.4-5.1-0.6-7.5-1.4c-0.5-0.2-1.3,0-1.4-0.6
		c-0.1-0.8-0.6-1.7-0.2-2.6c1.6-3.4,2.6-7,3.9-10.5c0.2-0.6,0.2-1.3,0.3-1.9c0.4-2.8,0.5-5.7,1.4-8.3c1.5-4.1,1.4-8.3,2.2-12.5
		c0.1-0.7,0.3-1.4,0.4-2.1c0.3-1.9,0.4-3.9,0.8-5.8c0.4-1.9,1.1-3.7,1.4-5.6c0.5-3,1.1-5.9,1.3-8.9c0.2-2.2,0.6-4.5,1-6.7
		c0.5-2.8,1.4-5.5,1.6-8.3c0.2-2.1,0.4-4.3,0.9-6.3c0.5-2.2,1-4.4,1.4-6.6c0.3-1.8,0.4-3.5,1-5.2c0.3-0.8-0.5-1.2-1-1.6
		c-0.3-0.6-0.8-1.1-1.3-1.2c-1.3-0.2-2.4-0.7-3.6-1.2c-0.8-0.3-1.5-0.2-2.1,0.6c-1.9,3-4.1,5.8-5.6,9c-0.7,1.5-1.7,2.7-3,3.6
		c-1.3,0.9-2.3,2.1-3.3,3.4C74.5,147.1,74.2,147.6,73.6,147.5z"/>
	<path class="st1" d="M199.4,182.1c-0.8,0.2-1-0.1-1-0.9c0-1.2-0.5-2.5,0.8-3.4c0.4,0.2-0.2,0.7,0.2,0.7c0.5,0.1,0.3-0.4,0.4-0.6
		c0.4-0.6-0.1-1.1,0-1.7c1.5-0.3,2.8,0.6,4.2,0.9c3.3,0.7,6.6,0.6,9.9,0.3c-3.2-1.6-6.6-2.3-10-2.7c-1.6-0.2-3,0.6-4.5,1
		c-2.1-3.2-4.4-6.2-6.9-9.1c-2-2.4-4.5-4.3-6.2-6.9c-3.8-5.9-9.2-10.6-13.3-16.3c-1.8-2.5-4.2-4.5-6-7c-1.7-2.2-4-3.7-5.7-5.9
		c-1.6-2-3.4-3.8-5-5.8c-1.2-1.5-2.4-3.1-3.9-4.3c-3-2.4-6.1-4.7-10.1-5.2c-1.3-0.2-2.5-0.7-3.8-0.5c-0.4,0-1.5-0.2-2.2-0.8
		c-0.4-0.3-1-0.3-1.5-0.5c0.1-0.9,0.4-1.7,0.7-2.5c0.3-0.7,0.5-1.3,0.2-2.1c-0.5-1.2,0.6-1.8,1.4-2.1c3-1.4,6.1-2.4,9.5-1.2
		c1.7,0.6,3.1,1.5,4.5,2.4c4.5,2.6,8.2,6.1,11.8,9.8c2.2,2.3,5,4,7.3,6.1c1.8,1.6,3.5,3.2,5.3,4.8c2.2,1.9,4.2,3.9,6.3,6
		c2.3,2.3,4.3,4.7,6.3,7.3c2,2.5,4.7,4.4,6.8,6.9c1.8,2.1,3.4,4.3,5.3,6.3c3.7,3.8,6.9,8,10.5,11.9c1.3,1.4,2.6,2.9,3.9,4.4
		c2.1,2.3,4.6,4.2,7.4,5.6c1.3,0.7,1.5,1.6,1.1,2.9c-0.8,2.6-1.9,5.1-2.7,7.7c-0.6,2-1.1,4-2.1,5.8c-1.8,3.4-4.3,6.2-6.6,9.2
		c-2.9,3.9-6.6,6.6-10.9,8.5c-5.2,2.3-10.4,4.9-15.7,7c-3,1.1-6,2.4-8.8,3.8c-0.5,0.2-0.7,0.2-0.8-0.4c-0.1-0.6-0.4-1.1-0.9-1.5
		c-1.1-0.9-1.4-2.3-1.9-3.5c-0.4-0.9-1-1.8-1.5-2.7c1.4-0.5,2.3-1.7,3.4-2.6c1.1-1,2.4-1.8,3.5-2.9c0.3-0.3,0.7-0.7,1.3-0.4
		c0.2,0.1,0.4,0.2,0.4-0.2c0.4-1.6,1.9-2,3.1-2.5c0.6-0.3,1.2-0.6,1.7-1c1-0.8,1.9-1.8,3.3-1.8c0.1,0,0.1,0,0.2-0.1
		c1.2-1.7,3.4-2.2,4.6-3.6c1.7-2,4.2-3.2,5.4-5.6c0.1-0.2,0.3-0.6,0.5-0.6c1.2-0.2,0.9-1,0.6-1.7c-0.4-1.1,0.3-2.1,0-3.5
		c0.6,1,1.3,0.9,2.2,1c-0.2-0.2-0.2-0.3-0.4-0.4c-1.6-0.7-1.8-0.9-0.8-2.3c0.7-1,0.4-1.5-0.4-2.1
		C199.4,182.7,199.1,182.5,199.4,182.1c4.4,1.3,8.8,1.2,13.3,0.8c-1.1-0.6-2.4-1-3.6-1.1c-1.4-0.1-2.9,0.1-4.3,0
		c-1,0-2.1,0.1-3.1-0.2c0-1-0.5-1.4-1.4-1.2c0-0.1-0.1-0.1-0.1-0.2c0,0.1-0.1,0.1-0.1,0.2c0,0-0.1,0-0.1,0l0-0.1c0.1,0,0.2,0,0.3,0
		c0.3,0.4,0.3,0.9,0.3,1.4C200.3,182,199.8,181.8,199.4,182.1z M199.4,181.2c0.3,0,0.5,0.1,0.8-0.1
		C199.9,180.9,199.6,180.8,199.4,181.2c-0.3,0-0.4,0-0.4,0.3c0,0,0.1,0.1,0.1,0.1C199.4,181.6,199.4,181.3,199.4,181.2z"/>
	<path class="st1" d="M73.6,147.5c0.6,0,0.9-0.5,1.2-0.9c1-1.2,2-2.4,3.3-3.4c1.3-1,2.3-2.1,3-3.6c1.5-3.2,3.7-6,5.6-9
		c0.5-0.8,1.2-0.9,2.1-0.6c1.2,0.5,2.3,1,3.6,1.2c0.5,0.1,1,0.6,1.3,1.2c-0.1,0-0.2,0.1-0.2,0.1c-2.1,0-2.2,0-2.7,2.2
		c-0.6,2.5-1,5-1.2,7.5c-0.3,2.7-0.9,5.4-1.6,8.1c-0.9,3.6-1.5,7.2-2,10.9c-0.4,2.9-1.1,5.8-1.6,8.7c-0.4,2.8-1.3,5.4-1.9,8.1
		c-0.1,0.6,0,1.5-1,1.7c-0.2,0-0.2,0.4-0.2,0.6c-0.4,2.6-2.2,4.3-4.2,5.7c-1.1,0.8-2.3,1.5-3.5,2.3c-0.8,0.6-1.7,0.9-2.7,1.1
		c0-0.5,0.2-1.1,0.1-1.6c-0.4-2.8-0.9-5.5-2.1-8.1c-0.8-1.8-1.2-3.9-2.7-5.3c-1.5-1.5-3.2-2.8-4.7-4.2c-5.3-4.8-10.8-9.5-15.8-14.7
		c-5.1-5.3-9-11.4-11.7-18.2c-0.1-0.3-0.2-0.7-0.7-0.7c3.2-1.3,6.1-3.3,9.3-4.6c0.9-0.4,1.9-0.4,2.8-0.6c0.3-0.1,0.6,0,0.8,0.3
		c1.5,3.3,4.1,5.9,5.8,9.1c2.1,3.9,4.8,7.3,7.7,10.5c1.8,2,4,3.4,6,5.1c2.8,2.3,4.6,5.3,6.6,8.2c0.6,0.9,1.4,1.4,2.3,2
		c0.6,0.3,1,0.1,1.4-0.2c0.4-0.3,0.3-0.8,0.1-1.2c-0.7-1.5-1.5-3-2.5-4.3c-1.4-2.1-2.7-4.2-4.5-6.1c-0.4-0.5-1-0.7-1.3-1.4
		c4.6,1.8,9.2,3.5,13.8,5.3c-0.1-1.4-1-2-2-2.8c-0.9-0.7-1.5-1.8-2.6-2.5c-1-0.6-1.8-1.5-3-1.9c-1.1-0.4-2.2-0.9-3.5-1.3
		c0.6-0.5,1-0.3,1.4-0.2c1.1,0.2,2.1,0.4,3.2,0.6c0.3,0.1,0.5,0.2,0.8-0.1c0.2-0.4,0-0.6-0.2-0.8C75,148.8,74.3,148.2,73.6,147.5z"
		/>
	<path class="st2" d="M162.3,40.3c-4-0.7-7.9-1.2-12-1.5c-1.6-0.1-3.3-0.5-4.9-0.8c-0.9-0.1-1.8-0.1-2.6,0.2
		c-1.3,0.5-2.4,1.2-3.6,1.9c-0.6,0.4-1.1,0.9-1.7,1.2c-0.7,0.3-1,0.8-1.2,1.3c-0.2,0.6-0.5,0.6-1,0.4c-1.7-0.6-3.5-0.5-5.3-0.6
		c-0.9,0-1.4-0.3-1.2-1.3c0.4-1.8-1.1-2.7-2.1-3.3c-1.7-1-3.1-2.5-5.1-3.1c-1.6-0.4-3.2-0.8-4.9-1.2c-2.6-0.7-5.2-1.2-7.9-1
		c-0.6,0.1-1.3-0.1-0.8-1c1.6-2.9,2.9-6,4.7-8.8c0.5-0.8,1.1-1.5,1.7-2.3c0.1-0.1,0.2-0.3,0.3-0.3c2.5,0.5,4-1.4,5.8-2.3
		c0.4-0.2,0.5-0.2,0.9-0.1c2.2,1,4.3,1,6.3-0.7c0.5-0.4,0.8-0.4,1.4,0c1.7,1,3.5,1.6,5.4,1c0.8-0.3,1.5-0.1,2.3,0.3
		c1.8,0.8,3.8,1.1,5.7,0.3c0.4-0.2,0.8-0.3,1.1-0.5c0.6-0.3,0.9-0.3,1.2,0.3c0.5,1.1,1.5,1.6,2.5,1.9c2.2,0.5,4.4,0.7,6.6-0.2
		c0.5-0.2,0.7-0.1,1,0.3c1.5,1.7,3.5,2.4,5.7,2.4c0.8,0,1.3,0.1,1.8,0.9c0.4,0.6,0.9,1.2,1.6,1.5c-0.7,2.4-0.5,5-0.6,7.5
		c-0.2,2.4-0.5,4.8-0.8,7.2C162.9,40.2,162.6,40.3,162.3,40.3z"/>
	<path class="st2" d="M147.1,84.6c0.1-1.1,0.4-2.2,1-3.2c0.5-0.9,0.2-1.4-0.8-1.2c-1,0.2-2,0.4-2.9,0.9c-0.5,0.2-0.4,1.1-0.3,1.5
		c0.5,4.1-0.9,7.7-2.8,11.3c-0.1,0.2-0.2,0.5-0.4,0.5c-0.3,0-0.3-0.3-0.3-0.6c-0.6-2.4-0.4-4.8-0.2-7.3c0.1-1.1,0.2-2.2,0.3-3.3
		c0.1-0.8-0.2-1.1-1.1-0.9c-1.3,0.3-2,0.7-2.4,2.3c-0.9,3.1-1.7,6.2-3.2,9.1c-0.5,0.9-1.3,1.7-1.5,2.8c0,0.2-0.3,0.4-0.4,0.4
		c-0.4,0-0.3-0.4-0.3-0.7c0.1-2,0.2-3.9,0.4-5.9c0.3-2.5,0.7-5,1.7-7.3c0.2-0.3,0.4-0.8,0-1.1c-0.3-0.3-0.8-0.3-1.2-0.1
		c-0.7,0.3-1.3,0.5-2,0.7c-0.4,0.1-0.5,0.4-0.6,0.8c-1.1,3.7-2.9,7-4.8,10.4c-0.1,0.2-0.2,0.4-0.4,0.3c-0.3-0.1-0.2-0.4-0.3-0.6
		c-0.3-1.7,0-3.3,0.3-5c0.4-2,0.6-4.1,1.5-6c0.3-0.7,1.3-1.3,0.6-2.1c-0.6-0.8-1.5,0-2.2,0c-2.1-0.1-1.9,1.7-2.3,2.8
		c-0.9,3.3-2.8,6-4.9,8.7c-0.5-0.4-0.3-0.9-0.3-1.3c0.2-4,1-7.9,2.7-11.5c0.3-0.5,0.3-1.1,0.6-1.7c0.3-0.5,0-1.1-0.6-1.1
		c-0.9,0.1-1.9,0.1-2.6,1c-1.8,2.2-3.2,4.8-5.1,6.9c-0.3,0.4-0.7,0.8-1.2,1.4c-0.3-1.7-0.1-3.1,0.2-4.4c0.7-2.6,1.6-5.2,3.4-7.4
		c0.3-0.4,0.5-0.8,0.1-1.3c-0.4-0.4-0.7-0.4-1.3-0.3c-0.7,0.1-1.3,0.3-2.1,0.2c-0.8-0.1-1.5,0.7-1.7,1.6c-0.7,2.5-2.3,4.4-4.3,6
		c-0.2,0.2-0.5,0.5-0.8,0.3c-0.2-0.2-0.1-0.5-0.1-0.8c0.2-3.4,1.2-6.5,3.2-9.4c0.2-0.3,0.4-0.5,0.5-0.8c0.2-0.5,0.6-0.9,0.2-1.4
		c-0.4-0.5-0.8,0.1-1.2,0c-1.6-0.3-2,0.9-2.6,2c-1.2,2-2.8,3.5-4.7,4.8c-0.5,0.3-0.7,0.1-0.6-0.4c0.1-0.6,0.2-1.2,0.4-1.7
		c0.8-2.4,2-4.7,3.4-6.8c0.5-0.7,1.2-1.3,1.8-1.9c0.2-0.2,0.4-0.3,0.5-0.5c0.5-1.4,1.8-1.7,3-2.1c0.5-0.2,0.9-0.4,1.4-0.7
		c0.8-0.6,1.6-0.9,2.4,0.1c0.4,0.6,1.1,0.6,1.6,0.4c0.9-0.3,2-0.2,2.8-0.8c0.5-0.3,0.7-0.2,0.7,0.4c0.1,1.6,2.1,2.4,3.4,1.4
		c0.4-0.3,0.7-0.6,1.2-0.7c0.5-0.1,0.8-0.1,1,0.6c0.3,1.1,1.3,1.8,2.2,2.4c0.7,0.5,1.6,0.3,2.3-0.4c0.5-0.5,0.9-1.1,1.4-1.8
		c0.4,1.1,1.4,1.6,2.1,2.4c1.2,1.2,2.4,1,3.2-0.4c0.3-0.5,0.5-1,0.8-1.5c0.2-0.4,0.2-1,0.6-1.4c0.4,0.4,0.2,0.9,0.3,1.3
		c0.2,1.6,2.9,3.2,4.1,3.3c0.5,0,1-0.4,1.2-0.8c0.4-0.6,0.9-1.2,1.2-2.2c1,1.6,2.3,2.6,3.7,3.4c0.5,0.3,0.1,0.7-0.2,0.7
		c-2,0.4-4,1.3-6.1,1.4c-2.7,0.1-5.3,0.6-8,0.3c-3.8-0.3-7.7-0.8-11.2-2.4c-2.2-1-4.4-1.9-6.3-3.6c-1.2-1-2.8-1.6-4.6-1.1
		c2.5,3.8,6,5.7,10.1,7c2.1,0.6,4.2,1.4,6.3,1.9c6.2,1.5,12.4,1.3,18.5-0.8c2.2-0.7,4.2-1.8,5.9-3.3c0.4-0.4,0.5,0,0.7,0.2
		c0.7,0.9,1.6,1.6,2.7,2c0.1,0.4,0,0.8-0.2,1.2c-1.6,4.5-3.2,9-4.7,13.5c-0.5,1.3-0.9,2.6-1.4,3.8c-0.1,0-0.1,0-0.2-0.1
		C147.1,86.2,147.1,85.4,147.1,84.6z"/>
	<path class="st2" d="M33.2,136.5c0.5,0,0.5,0.4,0.7,0.7c2.7,6.8,6.6,13,11.7,18.2c5,5.2,10.4,9.9,15.8,14.7
		c1.6,1.4,3.2,2.7,4.7,4.2c1.4,1.5,1.9,3.5,2.7,5.3c1.1,2.6,1.7,5.3,2.1,8.1c0.1,0.6,0,1.1-0.1,1.6c-1.7,0.7-3.4,0.4-4.8-0.3
		c-4.2-1.9-8.5-3.8-12.4-6.2c-2.1-1.3-3.9-3-5.8-4.7c-1.1-0.9-2.4-1.5-3.3-2.7c-0.6-0.8-1.4-1.5-1.8-2.5c-0.7-1.6-2-2.6-2.9-4
		c-1.6-2.8-3.7-5.3-5.4-8c-1.4-2.3-3.1-4.4-4.5-6.7c-2.1-3.5-4.8-6.5-6.6-10.2c-0.1-0.3-0.4-0.6-0.6-0.9c-1.1-1.3-1.2-1.4,0.3-2.4
		c1.9-1.4,3.9-2.4,6.2-2.9C30.5,137.5,31.9,136.9,33.2,136.5z"/>
	<path class="st1" d="M174,120.3c1.3,0.3,2.4,0.9,3.4,1.7c2.5,2,5.5,2.5,8.3,3.4c3,1,6,0.7,9.1-0.1c0.3-0.1,0.6,0,0.8-0.1
		c0.4-0.1,1,0.1,1.2-0.4c0.1-0.5-0.4-0.9-0.8-1.2c-0.8-0.6-1.8-0.6-2.6-0.6c-2.3,0-4.4-0.8-6.6-1.5c-2.1-0.7-4.3-1.4-6.5-2
		c-1-0.3-1.8-0.9-2.7-1.3c-1.2-0.5-2.5-1.1-3.8-1.7c0.4-0.3,0.8-0.3,1.1-0.2c4.1,0.4,8.2,0.8,12.4,1.2c3.1,0.3,6.1,0.5,9.2,0.3
		c3-0.2,6-0.4,9-0.7c0.8-0.1,1.3,0.2,1.8,0.9c1.2,1.8,2,3.7,2.4,5.8c0.3,1.5,0.7,2.9,1.3,4.3c0.9,2.3,1.2,4.7,1.3,7.2
		c0.3,5.1,0,10.2-0.7,15.3c-0.2,1.2-1.1,2.1-1.5,3.2c-0.5,1.9-0.7,1.9-1.9,0.5c-2.7-3.1-5.3-6.3-8.1-9.3c-1-1.1-2.2-2-3.2-3.2
		c-2.7-3.1-5.5-6.1-8.2-9.1c-0.8-0.8-1.6-1.5-2.6-2.1c-1.6-1-2.8-2.4-4.2-3.5c-2.4-1.9-4.8-3.9-7.3-5.8c-0.3-0.2-0.7-0.4-0.8-0.8
		C173.9,120.4,174,120.4,174,120.3z"/>
	<path class="st1" d="M147.6,167.2c-0.9-0.1-0.4-0.6-0.2-1c0.3-0.1,0.2-0.3,0.1-0.6c0,0.2,0,0.4-0.1,0.6c-0.9-1-0.9-2.2-0.6-3.3
		c0.3-1.2-0.3-2.4,0.1-3.5c0.1-0.3,0.1-0.6,0.4-0.8c0.4-0.4,1.2-0.8-0.1-1.1c-0.3-0.1-0.2-0.4-0.2-0.6c0.2-2.1,0.4-4.2,0.7-6.3
		c0.2-1.5,0.3-3.1,0.6-4.6c0.2-0.8,0.2-1.6,1.1-1.9c0.1,0,0.2-0.2,0.2-0.3c0.8-1.3,0.8-1.3,2.3-1.4c0.2,2.2,1.7,3.6,3.1,5.1
		c1.3,1.4,2.8,2.8,4.1,4.1c0.3,0.3,0.6,0.7,0.5,1.3c-0.3,2.2-0.4,4.4-1.3,6.5c-0.6,1.4-0.9,2.9-1,4.4c-0.1,1.7-0.5,3.4-1.3,4.9
		c-1.4,2.7-1.3,5.5-0.7,8.4c0.3,1.4,0.4,2.8,0,4.3c-0.3,1-0.1,2,0.5,3c0.9,1.7,0.9,1.9-0.5,3c-1.3,1.1-1.9,2.5-1.8,4.2
		c0,0.6-0.1,0.8-0.8,0.7c-2.2-0.3-4.3-0.4-6.5,0.2c-0.9,0.3-1.9-0.1-2.8-0.2c1.3-0.5,1.9-1.8,1.3-3c-0.9-1.8-0.6-3.6-0.4-5.4
		c0.4-2.5,1.3-4.7,2.5-7c0.8-1.6,1.4-3.2,0.9-5c-0.2-0.7-0.3-1.5,0.1-2.2c0.2-0.4,0-0.7-0.3-1.1
		C146.9,168.3,146.8,167.7,147.6,167.2c0,0,0-0.1,0-0.1C147.6,167.2,147.6,167.2,147.6,167.2z M148.4,157.9c0-0.1-0.1-0.1-0.1-0.2
		c0,0-0.1,0-0.2,0c0.1,0.1,0.1,0.2,0.2,0.2C148.2,158,148.3,158,148.4,157.9z"/>
	<path class="st2" d="M154.7,65.7c-1.7,0.8-1.7,0.8-2.5-0.8c-0.3-0.6-0.5-1.3-0.8-2c-0.6-1.4-1.2-1.4-2.6-1.1
		c-1.3,0.3-1.7,1.2-2.2,2.1c-0.5,1-0.9,0.7-1.2-0.1c-0.4-1-0.8-1.9-1.1-2.9c-0.4-1-1-1.1-1.9-1c-1.8,0.3-2.3,1.9-3.2,3.1
		c-0.2,0.2-0.3,0.6-0.7,0.6c-0.4-0.1-0.4-0.4-0.5-0.7c-0.4-1.2-0.1-2.5-0.6-3.6c-0.2-0.4,0-0.9-0.7-1c-0.6,0-1.1,0.1-1.5,0.6
		c-0.9,1.2-1.8,2.4-2.7,3.5c-0.3,0.3-0.6,0.8-1,0.7c-0.4-0.1-0.3-0.7-0.4-1.1c-0.1-0.3-0.1-0.6-0.2-0.9c-0.2-1.5-1.2-2.2-2.7-1.8
		c-0.2,0.1-0.4,0.1-0.4,0.4c-0.1,1.4-1.4,2-2,3c-0.1,0.2-0.3,0.4-0.6,0.3c-0.3-0.1-0.2-0.4-0.3-0.6c-0.3-0.9,0-1.7,0.3-2.6
		c0.2-0.8,0-1-0.8-0.9c-0.9,0.1-1.6,0.4-2.3,0.9c-0.7,0.6-1.5,1.1-2.4,1.3c-0.3,0.1-0.6,0.3-0.9,0c-0.2-0.3-0.1-0.6,0-0.9
		c0.3-0.9,0.6-1.7,1-2.6c-0.8-0.3-1.3,0-1.9,0.6c-1.2,1.3-2.8,1.6-4.4,2.1c-0.6,0.2-0.6-0.3-0.5-0.8c0.3-0.8,0.7-1.6,1.5-2.1
		c0.3-0.2,0.6-0.3,0.4-0.7c-0.2-0.4-0.6-0.2-0.9-0.2c-1.6,0.1-2.6,1.1-3.6,2.2c-1,1.2-2.5,1.7-3.9,2.2c-0.4,0.2-0.5-0.3-0.3-0.7
		c0.6-1.5,1.7-2.6,3-3.7c0.3-0.2,0.9-0.3,0.6-0.8c-0.3-0.5-0.7-0.2-1.1-0.3c-1.5-0.2-2.6,0.1-3.2,1.7c-0.3,0.7-1.5,0.7-2.3,1
		c-0.2,0.1-0.3,0-0.3-0.2c0-0.3,0.1-0.5,0.3-0.6c0.7-0.2,1.1-0.8,1.6-1.2c0.7-0.5,0.5-0.8-0.1-1.1c-1-0.6-1.9-0.2-2.7,0.2
		c-0.3,0.2-0.5,0.5-1.1,0.5c0.2-1,0.3-2,0.7-2.8c0.3-0.6-0.1-1.6,0.5-1.7c0.8-0.1,1.7,0.2,2.5,0.4c2,0.5,4.1,0.7,6.2,1
		c2.2,0.3,4.3,0.5,6.5,0.1c0.4-0.1,0.5,0.2,0.6,0.5c0.2,0.6,0.6,1,1,1.5c0.6,0.9,2,1.3,3,0.9c0.8-0.4,0.8-0.7,0.2-1.3
		c-0.7-0.7-1.6-1.3-2.1-2.2c-0.5-0.8-0.6-3-0.1-3.7c0.5-0.8,1.8-1.1,3-0.7c0.4,0.4,0.2,1,0.3,1.5c0.1,1.4,0.5,2.7,1.9,3.4
		c1.2,0.6,2.4,1,3.6,1.5c0.6,0.2,1.3,0.3,1.9-0.2c1.4-1.4,2.4-2.9,2.2-4.9c-0.1-1.5-0.5-1.9-2-2.2c-1-0.2-2.2-0.3-2.6-1.5
		c0.2-0.4,0.5-0.4,0.8-0.3c2,0.4,4,0.6,6,1.2c0.7,0.2,0.8,0.5,0.7,1.1c-0.4,1.5-0.3,2.9,0.4,4.4c0.5,0.9,1.2,1.5,2,2
		c2.8,1.6,5.8,2.6,9,3.3c2.3,0.5,4.4,1.3,6.7,2c0.9,0.3,1.8,0.5,2.8,0.8c0.4,0.3,0.4,0.7,0.2,1c-0.3,0.4-0.3,0.9-0.4,1.3
		C155.6,63.1,155.4,64.5,154.7,65.7z"/>
	<path class="st1" d="M112.4,17c0.7-1.8,2.1-3.1,3.6-4c1.7-1.1,3.8-1.4,5.6-2.4c3.8-2.2,8-1.9,12.1-1.7c2.7,0.2,5.3,0.8,7.9,1
		c2.1,0.1,4.2,0.1,6.2,0.8c3.1,1.1,6.3,2,9.6,2.3c3.3,0.4,6.4,1.1,9.6,1.8c1.1,0.2,2.1,0.5,2.6,1.6c0.3,0.7,1.1,0.6,1.6,0.8
		c0.9,0.3,1.9,0.1,2.9,0.2c0.6,0,0.7-0.8,0.8-1.5c0.6,0.6,1,1,1.6,1.2c0.5,0.1,0.7,0.6,0.6,1.2c-0.4,2.5-1.2,5-1.4,7.6
		c-0.1,1.1-1,1.7-2.1,1.5c-0.8-0.1-1.6-1.2-1.4-2.1c0.1-0.3,0.3-0.6,0.3-0.9c0-0.8-0.5-1.4-1.2-1.1c-1,0.4-2.1,0-3.1,0.4
		c-0.6,0.2-1.3-0.9-0.9-1.6c0.3-0.6,0.3-1.1-0.1-1.5c-0.4-0.5-0.9-0.3-1.4-0.2c-1.3,0.1-2.4,0.7-3.7,0.7c-1.7,0-2.4-0.7-1.8-2.3
		c0.2-0.7,0-1.3-0.5-1.9c-0.5-0.6-1.1-0.4-1.6-0.1c-0.8,0.4-1.6,0.2-2.4,0.3c-1.1,0.1-1.7,0.6-2.1,1.5c-0.4,0.8-2.8,1-3.7,0.4
		c-1-0.6-1-1.4-0.2-2.7c0.2-0.3,0.4-0.7,0.6-1c0.3-0.6,0-1-0.7-1.1c-0.8-0.1-1.7-0.2-2.5-0.1c-1.1,0.2-2.1,0.5-2.8,1.7
		c-0.8,1.3-2.4,1.6-3.9,1.9c-0.6,0.1-0.8-0.6-0.6-1.1c0.2-0.7,0.5-1.4,1.2-1.9c0.4-0.2,0.6-0.5,0.4-1c-0.2-0.4-0.6-0.7-1-0.6
		c-1.2,0.3-2.4,0.1-3.5,0.5c-1,0.4-1.9,0.7-1.6,2.2c0.2,0.8-0.8,0.9-1.3,1.2c-0.5,0.2-1.1,0.3-1.6-0.2c-0.3-0.4-0.2-0.7,0-1.1
		c0.3-0.5,0.7-1,0.9-1.5c0.3-0.6,0.1-1.2-0.5-1.1c-0.7,0.1-1.6,0-2.2,0.4c-0.4,0.3-0.9,0.5-1.4,0.6c-0.3,0-0.7,0.1-0.8,0.5
		c-0.4,1.7-2,2.1-3.2,3c-0.3,0.2-0.8,0.5-1.2,0.1c-0.3-0.4-0.2-0.8-0.1-1.2c0.3-0.7,0.7-1.2,1.3-1.7c0.3-0.3,0.6-0.6,0.3-1
		c-0.3-0.4-0.6-0.4-1.1-0.3c-0.5,0.1-1,0.1-1.4,0.4c-0.7,0.5-1.5,0.8-2.4,1.2c-0.6,0.2-0.6,1-0.3,1.6c0.2,0.5,0.2,0.8-0.2,1.1
		c-1.1,0.8-2.2,1.6-3.6,1.9c-0.2,0.1-0.5,0.4-0.7,0c-0.2-0.3,0-0.5,0.2-0.8c0.8-1.2,1.6-2.4,2.1-3.7c0.2-0.5,0.7-1.1,0.2-1.5
		c-0.5-0.4-1.2,0-1.7,0.4c-0.4,0.3-0.8,0.8-1.1,1.2C115,16.1,113.6,16.4,112.4,17z"/>
	<path class="st2" d="M115.4,160.3c-0.1-1.8,0.5-3.4,0.4-5.2c-0.1-4.6,0.3-9.3,0.6-13.9c0.2-3,0.4-5.9,0.4-8.9
		c-0.1-3.6,0.6-7.3,0.9-11c0.2-2.2,0.4-4.4,0.6-6.7c0.1-0.7,0.2-1.3,0.3-2c3.3,3.1,6.8,4.7,11.2,3.3c0.2,1.6-0.8,2.9-1.2,4.4
		c-0.9,3.2-1.8,6.4-2.8,9.6c-0.7,2.3-1.8,4.6-2.4,7c-0.8,2.9-2,5.7-2.9,8.6c-0.8,2.7-1.3,5.6-2.4,8.2
		C117.3,155.9,116.3,158.1,115.4,160.3z"/>
	<path class="st2" d="M97,41.2c-0.5-1.4,0.5-2.6,0.7-3.9c0-0.3,0.4-0.4,0.6-0.5c1.9-1.3,3.9-1.7,6.2-1.4c5.1,0.8,10.1,1.6,15,3.2
		c1.1,0.3,2.2,0.7,3.2,1.1c0.5,0.2,0.8,0.6,0.8,1.2c0.1,1.3-0.3,2.6-0.1,3.9c0.1,0.3-0.1,0.4-0.4,0.3c-1.8-0.4-3.1,0.5-4.3,1.8
		c-0.9,0.9-1.5,1.8-1.6,3.1c0,0.6-0.4,0.6-0.8,0.5c-1.7-0.6-3.6-0.4-5.3-0.8c-2.9-0.6-5.9-0.2-8.8-1.3c-1-0.4-2-0.6-3-0.9
		c-1-0.4-1.5-1.1-1.5-2.2c0-0.8,0.1-1.6-0.7-2.2C96.5,42.6,97,41.8,97,41.2z M112.1,45.5c1,0,1.8-0.1,1.7-1.4c-0.1-0.6-0.1-1-0.9-1
		c-1,0.1-2.4,1-2.1,1.3C111.1,44.9,111,46.1,112.1,45.5z"/>
	<path class="st2" d="M140.3,48.7c0.2-2.3,0.4-4.5,1-6.6c0.2-0.6,0.3-0.9,1.1-0.8c5.4,0.8,10.8,1.1,16.2,2.1
		c2.3,0.5,4.3,1.6,6.4,2.7c1.1,0.5,1.1,1.5,0.9,3c-0.2,2.3-0.9,4.5-1.1,6.8c-0.1,0.7-0.5,0.5-0.8,0.5c-2.6,0.1-5-0.3-7.5-1.1
		c-3.1-1-6.4-1.6-9.6-2.3c-1.4-0.3-2.8-0.9-4.3-1.1c-0.8-0.1-1.4-0.7-2.1-1.2C139.8,50.1,140.6,49.3,140.3,48.7z M156.6,47.9
		c0-0.6-0.2-1.1-0.7-1.3c-0.6-0.3-0.8,0.3-1,0.7c-0.1,0.1-0.2,0.3-0.3,0.4c-0.6,0.3-0.6,0.8-0.3,1.3c0.3,0.6,0.8,0.8,1.4,0.7
		c0.6,0,0.5-0.6,0.6-1C156.4,48.4,156.5,48.1,156.6,47.9z"/>
	<path class="st2" d="M158.2,217.3c-0.7-0.8-1.7-0.3-2.5-0.4c-3-0.5-5.9-1.2-8.8-2.5c-1.5-0.7-3.2-1-4.6-1.8
		c-0.3-0.2-0.7-0.2-0.6-0.6c0.1-0.4,0.5-0.3,0.8-0.4c2.6-0.7,5.2-0.8,7.7-0.1c1.3,0.4,2.5,0.3,3.6-0.7c0.9-0.7,2-0.8,2.9-1.6
		c0.8-0.8,0.9-1.1-0.1-1.5c-1.7-0.7-3.4-1.2-5.2-1.1c-2.9,0-5.8-0.3-8.6-1.2c-0.8-0.2-1.9-0.9-1.8-1.4c0.2-0.7,1.2-1.2,2-1.5
		c2.3-0.9,4.6-0.3,6.9-0.1c1.5,0.2,2.8,0.5,4.2-0.5c0.6-0.4,1.4-0.4,2.2-0.6c0.3-0.1,0.5-0.4,0.5-0.7c0-0.5-0.3-0.5-0.6-0.5
		c-1.2-0.3-2.2-0.9-3.3-1.3c-2.5-1-5.1-0.8-7.7-1.2c-0.7-0.1-1.3,0-2-0.5c0.7-0.5,1.4-0.9,2.2-1.1c3.7-0.8,7.3-1.1,10.9,0
		c0.8,0.2,1.5,0.6,2.3,0.9c0.4,0.2,0.8,0.4,0.9,0.9c0.1,0.8,0.5,1.5,1,2.1c0.4,0.7,0.7,1.4,0,2c-0.3,0.3-0.2,0.5-0.1,0.8
		c1.1,2.1,1.9,4.3,3.2,6.3c0.6,0.9,0.5,2,0.9,3c0.5,1.3,1.2,2.6,1.8,3.9c-0.1,0.3-0.4,0.3-0.7,0.4
		C163,216.4,160.6,216.9,158.2,217.3z"/>
	<path class="st1" d="M24.7,135.1c1.3-1.4,2.9-2.7,3.7-4.6c0.4-1,0.5-2-0.5-2.6c-0.5-0.3-0.5-0.5-0.2-1c0.6-0.7,0.6-1.4,0.2-2.2
		c-0.3-0.5-0.2-0.9,0.2-1.3c0.9-0.9,1.2-2.2,1.6-3.4c0-0.1,0.1-0.2,0-0.2c-0.9-1.5,0.5-2.4,0.9-3.5c0.6,0.3,1,0.6,0.9-0.5
		c-0.2-1.4-0.6-2.7-1-4c-1-3.3-0.5-6.7-0.7-10c0-0.4,0.3-0.8-0.4-0.9c0.5-1.5,3.4-2.5,5.1-2.1c0.7,0.2,1.6,1.8,1.7,3
		c0.2,2.4-0.1,4.8,0,7.3c0.3,5.2,1,10.3,2.6,15.3c0.5,1.5,0.8,3.1,1.2,4.6c0.2,0.5,0.1,0.9-0.5,1.1c-3,1.5-6,3.2-9.3,3.9
		c-1.5,0.3-2.8,1.1-4.2,1.7C25.7,134.8,25.1,135.3,24.7,135.1z"/>
	<path class="st1" d="M154.7,65.7c0.7-1.2,0.9-2.6,1.4-3.8c0.2-0.4,0.2-0.9,0.4-1.3c0.2-0.3,0.3-0.7-0.2-1c1.3,0.2,2.6,0.4,3.9,0.5
		c0.7,0,1.5,0,2.1-0.3c1.7-1,3.8-0.7,5.5-1.8c0.3-0.2,0.5-0.1,0.6,0.3c0,0.2,0.1,0.4,0.2,0.6c0.4,1.7,0.4,1.7,2.1,1.4
		c0.2,0,0.4-0.2,0.6-0.2c1.5-0.3,1.7-0.1,1.7,1.4c0,1.1-0.3,2-0.6,3c-0.7,2.5-1.7,5-2.8,7.3c-0.4,0.9-0.6,1.8-1.7,2.2
		c-0.6,0.2-0.4,0.7-0.4,1.1c0,1.5-1,2.2-2.4,1.5c-0.7-0.4-1.4-0.9-2.1-1.4c-0.2-0.2-0.2-0.4-0.2-0.6c0.3-1.2,0-2.5,0.2-3.7
		c0.2-1-0.6-1.6-1-2.3c-0.1-0.2-0.5-0.3-0.6-0.1c-0.2,0.7-0.9,0.4-1.3,0.6c-1.3,0.8-1.6,0.1-1.8-1.1c-0.1-0.6-0.5-1.2-0.8-1.7
		C156.7,65,155.7,65.6,154.7,65.7z M171.2,63.8c-0.2-0.6,0.3-1.2-0.5-1.4c-0.6-0.1-0.8,0.6-1,1c-1.1,1.8-2.1,3.7-3.4,5.4
		c-0.5,0.7-1,1.3-1.5,2c-0.1,0.2-0.3,0.4-0.1,0.6c0.2,0.2,0.4,0,0.5-0.1c0.5-0.3,0.9-0.7,1.4-0.9C169.5,69.1,170.3,66.4,171.2,63.8z
		"/>
	<path class="st1" d="M162.3,40.3c0.3,0,0.5-0.1,0.6-0.4c0.3-2.4,0.6-4.8,0.8-7.2c0.2-2.5-0.1-5,0.6-7.5c1.3,0.2,2.3,0.7,3.1,1.9
		c0.6,1,1.6,1.7,2.9,2c1.1,0.3,1.4,1.6,1.7,2.5c0.5,1.4,0.8,2.8,0.9,4.3c0,0.4,0.1,0.8,0,1.1c-1.3,2.6-0.7,5.6-1.3,8.3
		c-0.4,2-1.3,3.8-1.6,5.8c-0.7-0.4-0.5-0.8-0.4-1.2c0.8-2.9-0.1-5.2-2.5-7C165.6,41.9,164.1,40.7,162.3,40.3z"/>
	<path class="st2" d="M29.5,100.8c0.7,0.1,0.3,0.6,0.4,0.9c0.2,3.4-0.3,6.8,0.7,10c0.4,1.3,0.8,2.6,1,4c0.1,1.2-0.3,0.8-0.9,0.5
		c0-0.6,0-1.2,0-1.8c0-0.7-0.4-1.3-1-1.7c-3.2-2.1-6.3-1.6-9.4,0.3c-0.7,0.4-1.3,1.1-1.5,2c1.3-0.1,2.5-0.1,3.7-0.5
		c0,0.3,0.3,0.7-0.3,0.8c-0.5,0.1-0.6,0.6-0.6,1.1l0,0c-0.2,0-0.3,0.1-0.5,0.3c-0.9,1-1.4,2.3-2,3.5c-2.1,0.2-4.2,0.8-6.3,0.3
		c-2.9-0.7-5-3.9-3-7.1c0.7-1.1,1.6-1.3,2.9-1.4c1.5-0.1,3.2-0.3,4.7-0.9c0.6-0.2,1.1-0.2,1.7-0.1c1.6,0.1,2.6-0.9,3.9-1.4
		c0.4-0.2,0.9-0.3,1.3-0.5c0.9-0.4,1.5-0.4,1.7,0.8c0,0.1,0.1,0.3,0.3,0.4c0.6,0.6,1.4,1,2.1,0.7c0.6-0.3,0.5-1.1,0.4-1.7
		c-0.1-1.2-0.3-2.4-0.4-3.6C28.1,104,28.3,102.3,29.5,100.8z"/>
	<path class="st1" d="M133.3,226.3c0.5,0,1,0,1.6,0c-0.3-0.9-0.8-1.7-0.8-2.6c0-0.6,0-1.3,0.3-1.9c1.5-2.7,3-5.2,6.5-5.6
		c0.1,0,0.3-0.2,0.4-0.2c2.4,0.9,4.7,2,7.1,2.6c0.2,0.1,0.6,0.1,0.5,0.5c-0.1,0.3-0.5,0.4-0.7,0.3c-1.7-0.2-2.9,0.7-4.1,1.7
		c-0.6,0.4-1,1-0.9,1.7c0.2,0.8-0.9,1.2-0.4,2c0.1,0.2,0.1,0.6,0.4,0.5c1.4-0.6,2.4,0.8,3.7,0.5c-1.1,0.6-2.3,0.7-3.6,0.6
		c-3,0-6.1,0-9.1,0C134,226.5,133.6,226.5,133.3,226.3z"/>
	<path class="st1" d="M111.6,145.9c0-0.4-0.1-0.8-0.2-1.3c-0.3,2.4-0.3,4.8-0.9,7.1c-0.9,3.7-1.4,7.4-2.2,11.1
		c-0.2,0.9-1,1.3-1.5,1.9c-0.5,0.7-1.4-0.3-2.1-0.6c0.2-1.2,0.7-2.2,0.9-3.3c0.9-4.5,2.2-9,2.9-13.5c0.3-1.8,1.3-3.4,1.5-5.1
		c0.4-2.9,1-5.8,1.5-8.7c0.8-4.6,1.4-9.3,1.4-14c0.6,1,0,2.2,0.2,3.2c0.1,0.3-0.2,0.9,0.5,0.9c-0.1,2.8-0.5,5.6-0.9,8.4
		c-0.4,2.8-0.7,5.6-0.8,8.4C111.9,142.2,111.7,144.1,111.6,145.9z"/>
	<path class="st1" d="M158.2,217.3c2.4-0.4,4.8-0.9,7.2-1.1c0.3,0,0.6,0,0.7-0.4c0.9,1,0.6,2.4,1.4,3.5c0.5,0.6,0.9,1.3,1.5,1.9
		c0.5,0.5,0.5,0.9-0.2,1.3c-1.4,0.8-2.9,1.4-4.6,1.4c-1,0-1.9-0.4-2.5-1c-1.8-1.7-3.7-1.4-5.6-0.5c-2.4,1.1-2,0.5-4.8,0
		c1.8-0.6,2.7-2.5,4.5-3.1C156.8,219,157.5,218.1,158.2,217.3z"/>
	<path class="st2" d="M132.4,103.4c0,0.6,0,1.1,0,1.7c0.1,3.6-3.7,6-7,4.4c-1-0.5-1.9-1-2.9-1.2c-0.4-0.1-0.5-0.4-0.6-0.7
		c-0.1-0.6,0-1.1,0.2-1.6c0.6-1.5,1-3.1,1-4.7c1.8,0.9,3.7,1.7,5.6,2.4c0.7,0.2,1.5,0.5,2.1,0C131.3,103.2,131.8,103.3,132.4,103.4z
		"/>
	<path class="st1" d="M132.4,103.4c-0.6-0.1-1.1-0.2-1.7,0.2c-0.6,0.5-1.4,0.2-2.1,0c-1.9-0.7-3.8-1.5-5.6-2.4
		c0.1-1.5,0.3-2.9,0.4-4.4c0-0.6,0.2-0.8,0.8-0.5c1.3,0.6,1.7,0.4,2.5-0.9c0.6-1,1.1-1.9,1.8-3.1c0.3,0.6,0.2,1.1,0.2,1.5
		c-0.2,3.6,0.9,4.3,3.7,5c0.3,0.1,0.8-0.1,0.6,0.5C132.9,100.8,132.7,102.1,132.4,103.4z"/>
	<path class="st1" d="M147.1,84.6c0,0.8,0,1.6,0,2.4c0.1,0,0.1,0,0.2,0.1c0.5-1.3,0.9-2.5,1.4-3.8c1.6-4.5,3.2-9,4.7-13.5
		c0.1-0.4,0.3-0.7,0.2-1.2c0.7-0.1,1.5,0.2,2.2-0.2c0.4-0.2,0.5,0.2,0.6,0.5c0.5,1.1,0.5,2.3,1.2,3.3c0.1,0.2,0,0.6-0.1,0.9
		c-1.2,2.6-1.4,5.5-2,8.3c-0.2,0.8-0.4,1.6-0.8,2.4c-0.1,0-0.2,0-0.3,0c0.1-1.3,0.1-2.5,0.2-3.8c0.2-1.3,0.3-2.6,0.7-3.9
		c0.2-0.7-0.1-1.1-0.9-0.9c-0.3,0.1-0.7,0.2-1,0.3c-0.7,0.2-1.4,0.1-1.5,1.3c-0.1,1.5-1,2.9-1.5,4.4c-0.7,2-1.3,4.1-1.9,6.2
		c-0.3,0.9-0.7,1.7-1.4,2.6C146.8,88.1,146.6,86.4,147.1,84.6z"/>
	<path class="st1" d="M128.1,45.2c0.5,1.2,1.6,1.3,2.6,1.5c1.5,0.3,1.9,0.7,2,2.2c0.2,2.1-0.8,3.6-2.2,4.9c-0.6,0.6-1.3,0.5-1.9,0.2
		c-1.2-0.4-2.5-0.9-3.6-1.5c-1.4-0.7-1.8-1.9-1.9-3.4c0-0.5,0.2-1.1-0.3-1.5c1.5,0,2.8,0.5,4,1.2c0.4,0.2,0.8,0.5,1.2,0.2
		c0.5-0.4,0.5-0.9,0.2-1.4C127.8,46.9,127.7,46.1,128.1,45.2z"/>
	<path class="st2" d="M20,131.4c-2.2,0.6-4.4,0.6-6.6,0c-1.7-0.5-2-2.3-2.6-3.7c-0.1-0.3-0.2-0.6,0-1c1.6,0.6,3.2,1.3,5,1.4
		c1,0,2-0.5,3-0.1c0.2,0.3,0.7,0.3,0.8,0.7c0,0-0.1,0-0.1,0c0,0,0,0,0,0.1c0,0,0-0.1,0.1-0.1c0.2,0.1,0.8-0.2,0.6,0.4
		C19.9,129.8,20.3,130.6,20,131.4z"/>
	<path class="st1" d="M19.8,122.1c1.6-0.8,3.4-0.9,4.9-1.9c0.6-0.4,1.4-0.7,2-1c0.5-0.3,0.8,0,0.7,0.4c-0.1,0.7,0,1.5-0.4,2.2
		c-1.5,2.3-3.3,4-6.3,3.9c-0.9,0-1.7,0.2-2.6,0.2c0.3-0.3,0.8-0.3,0.7-0.9c-0.1-1,0.1-1.9,0.7-2.7c0,0,0,0,0,0
		c0.2,0,0.3-0.1,0.5-0.1C20,122.2,19.9,122.2,19.8,122.1z"/>
	<path class="st1" d="M21.5,116.6c0-0.5,0.1-1,0.6-1.1c0.6-0.2,0.2-0.5,0.3-0.8c1.1,0.1,2.3-0.2,3.4,0.6c0.4,0.3,1.2-0.2,1.8,0.3
		c0.6,0.6,0.7,1.3-0.1,1.6c-2.8,1.2-5.4,2.7-8.4,3.2c0.6-1.2,1.1-2.5,2-3.5C21.2,116.7,21.4,116.6,21.5,116.6c0,0.1,0,0.2,0.2,0.1
		C21.7,116.7,21.6,116.6,21.5,116.6z"/>
	<path class="st2" d="M19.6,122.3c-0.6,0.8-0.8,1.7-0.7,2.7c0.1,0.6-0.5,0.6-0.7,0.9c-1.2,0.5-2.4,0-3.6-0.3
		c-0.6-0.1-1.2-0.4-1.8-0.5c-1.1-0.2-1.3-1.1-1.4-1.9c-0.1-0.5,0.3-0.4,0.6-0.4c1.8,0,3.7,0.2,5.5-0.3c0.5-0.1,1.1,0.2,1.5-0.2
		C19.2,122.3,19.4,122,19.6,122.3z"/>
	<path class="st1" d="M19.6,128.6c-0.1-0.4-0.6-0.4-0.8-0.7c2.7,0,5.3-0.6,7.3-2.6c0.2-0.2,0.4-0.5,0.7-0.2c0.2,0.2,0,0.5-0.1,0.7
		c-1.7,2.6-3.9,4.5-6.7,5.6c0.2-0.8-0.1-1.6,0.2-2.4C20.4,128.4,19.8,128.7,19.6,128.6L19.6,128.6z"/>
	<path class="st2" d="M129.8,112.1c-1.1,1.1-2,2.5-3.8,2.3c-1.8-0.2-3.1-1.3-3.9-2.9C124.7,112.4,127.2,112.8,129.8,112.1z"/>
	<path class="st1" d="M21.3,133.2c0.4-0.9,1.4-1,2.1-1.5c1.3-1.1,2.6-2.2,3.8-3.4c-0.2,3-2.4,4.5-4.4,6.2
		C22.2,134,21.6,133.7,21.3,133.2z"/>
	<path class="st2" d="M21.3,133.2c0.3,0.6,0.9,0.8,1.4,1.2c-0.9,0.8-1.8,0.8-3,0.6c-1.7-0.3-3.4-0.4-5.2-0.6c-0.2,0-0.3,0-0.4-0.2
		c0-0.1,0-0.2,0.1-0.2C16.6,134.2,18.9,133.5,21.3,133.2z"/>
	<path class="st2" d="M24.7,135.1c0.4,0.2,1-0.4,1.3,0.4c-1,0.7-2.1,1.4-2.9,2.3c-0.6,0.7-3.2,0.7-3.8,0.1c-0.4-0.4,0.1-0.5,0.4-0.5
		C21.4,136.7,23.2,136.3,24.7,135.1z"/>
	<path class="st1" d="M100,62.5c0.8-0.7,1.4-1.4,2.4-1.7c0.8-0.2,0.2-2,1.8-1.7c0.2,0.7-0.6,1.7,0.6,2.3c-0.9-0.2-1.7,0.2-2.4,0.2
		C101.3,61.6,101.1,63,100,62.5z"/>
	<path class="st1" d="M173.9,50.2c0.3-1.8,0.7-3.6,1-5.4c0.1,0,0.2,0,0.4,0.1c-0.1,1.9-0.1,3.7-1,5.5
		C174.2,50.2,174.1,50.2,173.9,50.2z"/>
	<path class="st1" d="M19,122.4c-0.4,0.5-1,0.2-1.5,0.2C17.9,122.3,18.5,122.4,19,122.4z"/>
	<path class="st2" d="M19.8,122.1c0.1,0,0.2,0.1,0.3,0.1c-0.2,0-0.3,0.1-0.5,0.1C19.5,122.1,19.7,122.1,19.8,122.1z"/>
	<path class="st1" d="M173.9,120.5c0-0.1-0.1-0.2-0.1-0.2c0.1,0,0.2,0.1,0.3,0.1C174,120.4,173.9,120.4,173.9,120.5z"/>
	<path class="st2" d="M79.3,187.3c0.1,0,0.1-0.1,0.2-0.1c0,0.1,0,0.2,0,0.3C79.5,187.4,79.4,187.4,79.3,187.3z"/>
	<path class="st2" d="M43.1,206.9c1.1-1.1,2.4-1.3,3.7-1.3c0.2,0,0.5,0,0.6,0.3c0.1,0.3,0,0.6-0.2,0.7c-0.6,0.4-1.3,0.8-1.9,1.2
		c-0.3,0.2-0.6,0.2-0.7-0.2C44.3,207.2,43.8,207.2,43.1,206.9z"/>
	<path class="st2" d="M45.9,212.8c-0.2-0.7-0.2-1.2-0.4-1.7c-0.3-0.7-0.1-1,0.6-1.1c0.4-0.1,0.9-0.2,1.3,0.1c0.3,0.4,0,0.8-0.2,1.2
		C46.9,211.9,46.6,212.5,45.9,212.8z"/>
	<path class="st2" d="M50.8,208.5c0-0.4,0-0.6,0-0.8c0-0.4-0.1-1,0.3-1c0.6,0,0.6,0.6,0.6,1.1c0,0.2,0,0.3,0,0.5
		c-0.1,0.6,0,1.5-0.6,1.5C50.5,209.8,51,208.9,50.8,208.5z"/>
	<path class="st2" d="M48.8,207.4c0,0.6,0,1,0,1.5C47.5,208.4,48.3,208,48.8,207.4z"/>
	<path class="st2" d="M57.8,217.6c0.5,0.2,1.5-0.4,1.6,0.4c0.1,1-1,0.6-1.6,0.8c-1.4,0.3-2.9,0.5-4.4,0.7c-0.4,0.1-1,0.3-1.2-0.4
		c-0.2-0.7,0.4-0.9,0.9-0.9C54.7,217.9,56.2,217.8,57.8,217.6z"/>
	<path class="st0" d="M138.1,168.9c-1.4,1.6-3.3,1.3-5.1,1.1c-1-0.1-1.3-1.2-1-2.9c0.7-4,1.3-8,1.8-12c0.2-1.6,0.3-3.2,0.3-4.8
		c0-2.1,1.1-3.8,1.4-5.8c0.5-4.1,1.2-8.2,1.7-12.3c0.3-2.3,0.4-4.6,0.6-7c0.1-0.8,0-1.5-0.2-2.2c-0.1-0.5-0.5-1.2,0.5-1.2
		c0.2,0,0.3-0.3,0.3-0.5c-0.2-1,0.5-1.2,1.2-1.6c0.8-0.3,1.5-1,2.3-0.3c0.9,0.7,1.8,1.6,1.5,2.9c-0.1,0.4-0.1,0.7,0,1.1
		c-0.3,1.6-0.6,3.3-0.8,4.9c-0.3,2.4-0.3,4.7-0.7,7.1c-0.2,1.2-0.5,2.5-0.5,3.8c0,2-0.3,3.9-1,5.7c-0.5,1.4-0.9,2.7-0.6,4.2
		c0.3,1.5,0.3,3.1,0,4.6c-0.2,1.1-0.7,2.2-0.7,3.4c-0.1,2.6,0.9,5.3-0.3,7.9c0,0.1,0,0.2,0,0.2C139.1,166.7,138.9,167.8,138.1,168.9
		z M139.5,137.2c-0.3,0.4-0.4,0.4-0.4,0.5c-0.3,3.4-1.6,6.6-1.4,10.2c0.2,3.1-0.7,6.2-0.7,9.4c0,1.1-0.1,2.2-0.3,3.3
		c-0.2,1.1-0.1,2.1,0.1,3.2C138.1,155.1,138.7,146.3,139.5,137.2z"/>
	<path class="st1" d="M138.1,168.9c0.8-1.1,1-2.2,0.8-3.5c0-0.1,0-0.2,0-0.2c1.1-2.6,0.2-5.3,0.3-7.9c0-1.2,0.5-2.2,0.7-3.4
		c0.3-1.6,0.3-3.1,0-4.6c-0.3-1.5,0.1-2.8,0.6-4.2c0.6-1.9,1-3.8,1-5.7c0-1.3,0.2-2.5,0.5-3.8c0.4-2.3,0.5-4.7,0.7-7.1
		c0.2-1.7,0.5-3.3,0.8-4.9c0.4,1.2,0.7,2.5,0.7,3.8c0,4.5,0.2,9.1-0.1,13.6c-0.2,4.4,0,8.8-0.2,13.3c-0.2,3.7-0.4,7.4-0.5,11.1
		c-0.1,1.4,0.2,2.8-0.2,4.2c-0.1,0.5-0.3,1-0.5,1.4c-0.3,0.6-0.8,1.1-1.6,0.6c-0.3-0.2-0.7-0.2-1-0.4c-0.9-0.3-1.8-0.7-1.6-2
		C138.4,169.1,138.2,169,138.1,168.9z"/>
	<path class="st0" d="M199.3,175.6c1.5-0.4,2.9-1.2,4.5-1c3.5,0.4,6.9,1.1,10,2.7c-3.3,0.3-6.6,0.4-9.9-0.3
		c-1.4-0.3-2.6-1.2-4.2-0.9c-0.3-0.1-0.6-0.1-0.9-0.2C199.1,175.9,199.2,175.7,199.3,175.6z"/>
	<path class="st0" d="M113,119.4c0.1,4.7-0.5,9.4-1.4,14c-0.5,2.9-1.2,5.7-1.5,8.7c-0.2,1.8-1.2,3.3-1.5,5.1c-0.7,4.6-2,9-2.9,13.5
		c-0.2,1.1-0.8,2.2-0.9,3.3c-0.4,0.6-0.9,0.8-1.6,0.8c-1.9,0-4.2-1.3-4.2-3c0-1.4-0.3-2.9,0-4.4c0.3-1.3,0.4-2.7,0.2-4
		c-0.2-1.7,0-3.2,0.7-4.6c1.7-3.5,2.4-7.3,3.5-11c1.3-4.4,2.2-8.9,3.8-13.3c0.6-1.6,0.9-3.2,1.3-4.8c0.1-0.6,0.1-1.2-0.4-1.8
		c1,0.3,1.8-0.1,2.5-0.6c1.1-0.7,1.6-0.5,2,0.8C112.8,118.6,112.9,119,113,119.4z M107.4,137L107.4,137c-0.3,0-0.3,0.3-0.3,0.5
		c-0.9,3.8-1.9,7.5-2.7,11.3c-0.6,3.1-1,6.2-1.5,9.3c-0.2,1.2-0.6,2.4-0.3,3.7c0.8-2,1.7-3.9,1.8-6.1c0.5-0.3,0.5-0.7,0.5-1.2l0,0
		c0.1-0.1,0.2-0.2,0.2-0.3c0.8-2.6,0.9-5.3,1.5-7.8c1.1-4.4,1.7-8.9,2.5-13.4c0.1-0.9,0.2-1.8-0.2-2.7c-0.4,1.9-0.8,3.8-1.2,5.7
		C107.5,136.4,107.2,136.7,107.4,137z"/>
	<path class="st0" d="M201.7,181.6c1,0.3,2.1,0.2,3.1,0.2c1.4,0,2.9-0.1,4.3,0c1.3,0.1,2.5,0.4,3.6,1.1c-4.5,0.4-9,0.5-13.3-0.8
		c0,0,0,0,0,0c0.4-0.3,0.8-0.1,1.2-0.3C201,181.8,201.4,181.7,201.7,181.6z"/>
	<path class="st2" d="M201.7,181.6c-0.4,0.1-0.7,0.1-1.1,0.2c0-0.5,0-1-0.3-1.4l0,0C201.2,180.2,201.7,180.6,201.7,181.6z"/>
	<path class="st2" d="M199.4,181.1c0.2-0.3,0.5-0.2,0.8-0.1C199.9,181.2,199.7,181.1,199.4,181.1L199.4,181.1z"/>
	<path class="st2" d="M199.4,181.2c0,0.2,0,0.4-0.3,0.4c-0.1,0-0.1-0.1-0.1-0.1C199,181.2,199.2,181.1,199.4,181.2
		C199.4,181.1,199.4,181.2,199.4,181.2z"/>
	<path class="st2" d="M200.4,180.4c-0.1,0-0.2,0-0.3,0c0,0,0,0,0,0c0-0.1,0.1-0.1,0.1-0.2C200.2,180.3,200.3,180.4,200.4,180.4
		C200.3,180.4,200.4,180.4,200.4,180.4z"/>
	<polygon class="st2" points="200.1,180.4 200.1,180.5 200.1,180.4 	"/>
	<path class="st2" d="M148.4,157.9c-0.1,0-0.1,0.1-0.1,0.1c-0.1-0.1-0.1-0.1-0.2-0.2c0.1,0,0.1-0.1,0.2,0
		C148.3,157.8,148.3,157.9,148.4,157.9z"/>
	<path class="st2" d="M147.3,166.3c0-0.2,0-0.3,0.1-0.6C147.6,166,147.6,166.1,147.3,166.3C147.3,166.3,147.3,166.3,147.3,166.3z"/>
	<path class="st2" d="M147.6,167.2c0,0,0-0.1,0-0.1C147.6,167.2,147.6,167.2,147.6,167.2C147.5,167.2,147.6,167.2,147.6,167.2z"/>
	<path class="st0" d="M112.1,45.5c-1,0.6-1-0.6-1.4-1c-0.3-0.4,1.1-1.2,2.1-1.3c0.8-0.1,0.8,0.3,0.9,1
		C113.9,45.4,113.1,45.5,112.1,45.5z"/>
	<path class="st0" d="M156.6,47.9c-0.1,0.3-0.2,0.5-0.2,0.8c-0.1,0.4-0.1,1-0.6,1c-0.6,0-1.1-0.2-1.4-0.7c-0.3-0.5-0.3-1,0.3-1.3
		c0.1-0.1,0.2-0.2,0.3-0.4c0.2-0.4,0.4-1,1-0.7C156.4,46.8,156.6,47.3,156.6,47.9z"/>
	<path class="st0" d="M171.2,63.8c-0.9,2.6-1.7,5.3-4.6,6.6c-0.5,0.2-0.9,0.6-1.4,0.9c-0.2,0.1-0.3,0.3-0.5,0.1
		c-0.2-0.2-0.1-0.4,0.1-0.6c0.5-0.7,1-1.4,1.5-2c1.3-1.7,2.3-3.6,3.4-5.4c0.2-0.4,0.4-1.1,1-1C171.4,62.6,171,63.2,171.2,63.8z"/>
	<path class="st1" d="M19.6,128.6c0,0,0,0.1-0.1,0.1C19.6,128.7,19.6,128.6,19.6,128.6C19.6,128.6,19.6,128.6,19.6,128.6
		C19.6,128.6,19.6,128.6,19.6,128.6z"/>
	<path class="st2" d="M21.5,116.6c0.1,0,0.1,0.1,0.2,0.1C21.5,116.8,21.6,116.7,21.5,116.6C21.6,116.6,21.5,116.6,21.5,116.6z"/>
	<path class="st2" d="M139.5,137.2c-0.8,9.1-1.4,17.9-2.8,26.6c-0.2-1.1-0.2-2.1-0.1-3.2c0.2-1.1,0.2-2.2,0.3-3.3
		c0.1-3.1,0.9-6.3,0.7-9.4c-0.2-3.6,1.1-6.8,1.4-10.2C139,137.6,139.2,137.6,139.5,137.2z"/>
	<path class="st2" d="M104.4,155.7c-0.1,2.2-1,4.1-1.8,6.1c-0.2-1.3,0.1-2.5,0.3-3.7c0.5-3.1,0.8-6.2,1.5-9.3
		c0.8-3.8,1.8-7.5,2.7-11.3c0-0.2,0.1-0.5,0.4-0.6c0,0.3,0.1,0.6,0,1c-0.6,3.5-1.2,7.1-1.8,10.6c-0.3,2-0.9,3.9-0.8,6c0,0,0,0,0,0
		C104.4,154.8,104.5,155.3,104.4,155.7z"/>
	<path class="st1" d="M104.8,154.5c-0.1-2,0.5-4,0.8-6c0.6-3.5,1.2-7.1,1.8-10.6c0.1-0.3,0-0.6,0-1c0,0,0,0,0,0
		c0.3-0.3,0.3-0.6,0.1-0.9c0.4-1.9,0.8-3.8,1.2-5.7c0.4,0.9,0.4,1.8,0.2,2.7c-0.7,4.5-1.4,9-2.5,13.4c-0.6,2.6-0.7,5.3-1.5,7.8
		C105,154.3,104.9,154.4,104.8,154.5z"/>
	<path class="st1" d="M104.4,155.7c0.2-0.4,0.1-0.9,0.5-1.2C104.8,155,104.9,155.5,104.4,155.7z"/>
	<path class="st2" d="M107.5,136.1c0.2,0.3,0.3,0.6-0.1,0.9C107.2,136.7,107.5,136.4,107.5,136.1z"/>
</g>
</svg>
