<?xml version="1.0" standalone="no"?>
<!DOCTYPE svg PUBLIC "-//W3C//DTD SVG 1.1//EN" "http://www.w3.org/Graphics/SVG/1.1/DTD/svg11.dtd" >
<svg xmlns="http://www.w3.org/2000/svg">
<metadata></metadata>
<defs>
<font id="lunchboxregular" horiz-adv-x="768" >
<font-face units-per-em="2048" ascent="1536" descent="-512" />
<missing-glyph horiz-adv-x="526" />
<glyph horiz-adv-x="0" />
<glyph horiz-adv-x="682" />
<glyph horiz-adv-x="0" />
<glyph horiz-adv-x="0" />
<glyph unicode="&#xd;" horiz-adv-x="729" />
<glyph unicode=" "  horiz-adv-x="526" />
<glyph unicode="&#x09;" horiz-adv-x="526" />
<glyph unicode="&#xa0;" horiz-adv-x="526" />
<glyph unicode="!" horiz-adv-x="380" d="M94 1321q0 4 0.5 17.5t1 19t1.5 18.5t2 20t2.5 18t4 18.5t6 16t7.5 15.5q29 9 62 7t55 -11q12 -80 26 -479.5t14 -511.5q0 -8 2.5 -45.5t0 -61t-12.5 -40.5q-5 -7 -12.5 -12.5t-17 -8.5t-18.5 -5t-20 -2.5t-17.5 -1t-15 0t-9.5 0.5h-14t-10 1.5t-10 4t-5 8.5t-4 15 q-2 26 4 75t6 68q0 60 -15 444.5t-14 411.5zM133.5 74q-2.5 20 12.5 42t47 38q51 17 77 -20.5t17 -74.5q-5 -24 -33 -39.5t-57 -19.5q-12 -1 -26.5 9t-24.5 27.5t-12.5 37.5z" />
<glyph unicode="&#x22;" horiz-adv-x="460" d="M93.5 1470q0.5 10 2.5 13q9 12 47 10t47 -10q7 -7 10.5 -21t4 -34.5t-0.5 -39t-3 -43.5t-2 -38q-4 -10 -41 -5.5t-47 9.5q0 7 -5 10q-2 20 -4.5 45.5t-4 43t-3 34t-1 26.5zM248 1317q5 42 3.5 80t-0.5 65t9 29q12 3 56.5 1.5t48.5 -5.5q1 -1 1 -4t3 -4q-13 -27 -11 -94 t0 -70q-14 -9 -62 -8t-48 10z" />
<glyph unicode="#" horiz-adv-x="1216" d="M92.5 905.5q0.5 8.5 1 19.5t0.5 13q1 12 -0.5 42t0.5 42l2 -4q2 7 0 6q10 8 33.5 10t24.5 2l49 4q19 0 55 1t53 1q4 62 4 88q4 126 4 193q0 114 -4 145q10 6 25 8.5t24.5 3t30.5 0t25 -0.5t28.5 3t39.5 0t22 -14q0 -154 -23 -424q35 -2 99 -2q25 0 72 -1t69 -1l-6 197 q-3 52 0 104q0 5 -2 26t-2.5 36.5t4 30.5t14.5 18q29 12 94 12h14.5h16.5t14.5 -1t15 -3.5t10.5 -6.5t8.5 -10.5t2.5 -15.5q0 -30 -4.5 -88.5t-5.5 -81.5v-180q0 -31 -2 -45l113 -4q8 0 24.5 -0.5t26.5 -0.5t24.5 1t26.5 4q5 -13 6 -30.5t0 -40t0 -33.5q0 -5 2 -28.5 t0.5 -39t-8.5 -22.5q-117 0 -223 14q-4 -94 -4 -137q0 -15 1 -46t1 -46l61 6q51 0 74 -2q3 0 13.5 1.5t19.5 2t19 0t17 -4.5t9 -12q8 -31 8 -96v-11v-13v-12.5t-1 -12t-2 -11t-3 -10t-4.5 -7.5t-6 -5.5t-8.5 -1.5q-21 1 -60 6t-58 6h-72q0 -69 -2 -104q-3 -70 0 -147 q0 -10 1 -46.5t0 -62t-5 -47.5q1 9 -2 9q-5 -1 -9 -15q-1 -6 3 -6q-39 -23 -138 -23q-7 5 -12.5 12t-8.5 16.5t-5 17.5t-2.5 20.5t-1 19.5t1 21t2 20t2.5 20t2 17q8 93 12 285q-94 8 -143 8q-2 0 -131 -6q0 -4 6 -262q4 -70 4 -103q0 -7 2 -25t2 -32t-4 -23q-6 -17 -59 -8 q-10 0 -38.5 -3t-43.5 -1q4 -1 4 1q-2 4 -10 7q-7 12 -9 44.5t-2 35.5l-4 70q-4 122 -4 184v115q-37 3 -74 0q-7 0 -26.5 -1.5t-29 -2t-25 0.5t-27.5 5q3 -1 4 0q5 2 -7 11q-5 4 -6 2q-1 -1 1 -5q-5 11 -8 24.5t-4.5 30t-2 27.5t-1.5 31t-1 26q6 10 15 17t16.5 10t22 3h20.5 t22.5 -2.5t18.5 -2.5q18 -3 92 -13v93q0 60 4 178q-54 -4 -80 -4q-50 -4 -71 -4q-44 -6 -56 -2q-4 3 -6 11.5t-1.5 17zM322 4v2v-2zM459 612h41q106 -3 235 4q2 83 -2 254q-123 14 -209 19q-33 0 -49 2q-15 -224 -16 -273v-6zM887 29q0 2 2 2zM889 35v4v-4z" />
<glyph unicode="$" horiz-adv-x="921" d="M94 258q-4 24 3 38t21 18t31.5 5.5t36.5 -0.5q5 0 18 -0.5t18 -1l15 -1.5t15 -4t11.5 -8t11 -12.5t8.5 -17.5q16 -53 52.5 -92t84.5 -43q6 209 6 443q-31 35 -92 96q-88 84 -154 208.5t-69 235.5q-2 56 13.5 106.5t41.5 86.5t57.5 66t63.5 49t59 31t43.5 16.5t16.5 1.5 l-3 114q130 7 134 9q5 -7 8.5 -39t4.5 -60l1 -28q36 -9 65 -17q138 -41 185 -192q11 -41 12 -77t-22.5 -59.5t-69.5 -19.5q-43 3 -59 14.5t-15 46.5q3 57 -21 95t-65 37q5 -81 -1 -250t-3 -238v-78q33 -39 83.5 -92.5t75.5 -85t44 -70.5q33 -66 49.5 -112.5t17.5 -106.5 t-26 -114q-46 -90 -129 -131q-16 -9 -37.5 -15t-34.5 -8l-14 -2q-2 -51 -2 -86q3 -102 -84 -102q-31 0 -44 1.5t-25.5 8t-15 21.5t0.5 42q3 17 4.5 39.5t1.5 36.5v14q-29 1 -60 9q-98 25 -178 114q-82 82 -90 160zM269 1087.5q6 -42.5 28 -92.5q4 -8 30 -48t57 -78.5 t38 -30.5q-5 65 -1.5 227.5t-6.5 224.5q-8 -1 -20 -4.5t-32.5 -13.5t-38 -23.5t-32.5 -37t-21.5 -52.5t-0.5 -71.5zM559 131q74 26 94 53q31 34 33.5 79t-15.5 85t-40 73.5t-41 53.5t-19 17q0 -83 -12 -361z" />
<glyph unicode="%" horiz-adv-x="1591" d="M98 1016q-14 105 10 203.5t82 163.5t136 69q16 2 49 2q113 7 202 -121q83 -122 101 -292q18 -182 -56 -292q-91 -133 -288 -90q-58 12 -102.5 48.5t-71 89.5t-41 106.5t-21.5 112.5zM233 1018q0 -3 1.5 -10t1.5 -9v11q3 -28 9 -55t18.5 -59.5t36 -55.5t54.5 -29 q50 -11 87.5 9t56.5 59.5t26.5 83.5t3.5 86q-20 230 -153 241q-44 3 -74.5 -23.5t-44.5 -72t-19 -87.5t-4 -85q0 -1 1.5 -5.5t1.5 -6.5q0 2 -1.5 4.5t-1.5 3.5zM463 -10q-2 34 7 64t27.5 68t26.5 60q50 130 235 657.5t189 575.5q5 86 53 90q131 13 158 -16q0 -1 -46.5 -147 t-115.5 -360.5t-137 -425.5t-121.5 -377.5t-58.5 -182.5q-11 -36 -111 -35q-78 1 -103 19q-6 5 -3 10zM952 612q34 177 151 223q95 37 234 -24q45 -25 77.5 -60t49 -80t25.5 -87.5t8 -98.5t-4 -96t-10 -96q-7 -76 -46 -137t-94.5 -93t-126 -29t-135.5 48q-73 50 -114 204 q-45 170 -15 326zM1085 475q-2 -44 1 -85t14.5 -89.5t40 -81t71.5 -39.5q76 -14 111 110q8 19 18 93q0 3 1 8.5t1 7.5q3 19 3.5 48.5t-4 75t-16.5 83t-40 64.5t-69 28q-36 1 -62.5 -22.5t-40.5 -61.5t-20.5 -72t-8.5 -67zM1341 393l2 6v33q-4 -42 -2 -39z" />
<glyph unicode="&#x26;" horiz-adv-x="1157" d="M109 266q-75 257 194 629q-11 28 -29 64t-31.5 61.5t-29.5 61.5t-22.5 63.5t-10.5 67t6 73.5q19 97 110 162t189 53q104 -14 150.5 -91.5t37 -173.5t-52 -191t-104.5 -148l244 -436q19 65 11.5 214t-21.5 187q1 0 13 1.5t18.5 2.5t20 2t22 1t21.5 0.5t21.5 -1t17.5 -4 t15.5 -6.5t9.5 -10q18 -29 28 -133t-0.5 -239t-47.5 -220q16 -23 66 -112t75 -121q3 -4 10 -12t9.5 -11t7 -10t5.5 -9.5t2.5 -8t0 -8t-4 -7t-8 -8t-13 -7.5t-17.5 -8q-58 -25 -77 -24q-30 0 -58 37q-8 10 -25.5 31.5t-25.5 32.5t-20.5 28.5t-20.5 34.5t-15 37 q-23 -10 -60.5 -34.5t-55.5 -33.5q-75 -43 -158 -43q-147 0 -249 72t-148 194zM279 293q20 -75 92 -114t149 -21q41 10 84.5 40t69.5 64q-4 9 -11.5 25t-30.5 63t-44 90t-49 96.5t-50.5 93.5t-43 70.5t-31.5 36.5q-31 -39 -93.5 -202.5t-41.5 -241.5zM344 1241 q-9 -58 15 -114t71 -85q10 4 39 45.5t52 100.5t9 96q-12 33 -53.5 52t-81.5 -5q-42 -32 -51 -90z" />
<glyph unicode="'" horiz-adv-x="30" d="M-78 1462q1 4 2.5 7t3 5t3.5 4l3.5 3.5t4 3t4 2t4.5 2t4 2.5q11 -4 52 0t60 -6v-76q0 -37 17 -131q2 -9 -26.5 -17.5t-57 -10t-41.5 2.5h-2q-6 7 -15.5 102.5t-15.5 106.5z" />
<glyph unicode="(" horiz-adv-x="559" d="M96 893q8 245 94 530q6 20 17 84t24 95q10 21 54 21.5t83 -6.5t40 -5q3 3 -4.5 -34t-20 -88.5t-23.5 -82.5q-34 -108 -57 -244q-51 -325 -18 -551q13 -108 22 -169t31 -150.5t53 -161.5q4 -10 29 -51t39 -76t2 -51q-5 -9 -18 -15t-32 -7.5t-34 -2t-34.5 0.5t-23.5 1 q-20 1 -39.5 24.5t-30 49t-23 61.5t-15.5 44q-55 133 -78 241q-48 216 -37 543z" />
<glyph unicode=")" horiz-adv-x="546" d="M94 1610q53 18 178 14q14 -44 49.5 -120t45.5 -103q34 -83 57 -238q44 -303 22 -561q-27 -294 -116 -506q-1 -3 -10.5 -30.5t-15 -38t-17 -30t-25.5 -29t-31 -11.5q-39 -3 -92 4q-14 1 -20.5 20.5t-1.5 32.5q51 169 94 328q44 162 63 438q4 51 -1.5 113t-12.5 104 t-21.5 117.5t-19.5 106.5q-14 104 -55 206q-6 17 -26.5 55t-33 70.5t-10.5 57.5z" />
<glyph unicode="*" horiz-adv-x="690" d="M96 1382q-12 22 10 41l66 41l12 13q-13 5 -24 8l-37 16q-20 13 -17 33q11 63 31 100q6 17 27 13l41 -15l22 -4q2 2 4 2q11 33 11 56q-4 22 6 36q1 0 5.5 1t6.5 1l109 13q8 2 18 2q21 -3 25 -25q0 -18 -2 -26q-4 -21 8 -62q6 -2 8 -2t6 2.5t6 3.5l49 37q20 15 37 -2 q52 -52 68 -76q13 -23 0 -39q-6 -7 -17.5 -17.5t-13.5 -12.5l-31 -21q-3 -2 -7.5 -8t-6.5 -8q15 -20 45 -27q12 -4 21 -10q19 -13 10 -37q-3 -6 -10.5 -23.5t-14 -30t-14.5 -22.5q-17 -23 -41 -12q-26 11 -55 31l-27 12q-8 -3 -8 -14q-4 -50 -4 -70q0 -32 -27 -35 q-17 -1 -49 -4t-49 -4q-21 0 -21 20q-2 23 -2 64q-8 0 -10 -2q-28 -20 -45 -37q-20 -18 -28 -16t-21 22q-10 16 -31 42t-29 38z" />
<glyph unicode="+" horiz-adv-x="796" d="M94 713q1 14 10 23.5t26.5 13.5t30 5.5t33.5 2t25 0.5l98 6q-1 4 -1.5 11t-3 27.5t-4 40t-2.5 43.5t0.5 42t5 32.5t10.5 18.5q39 22 68 20.5t45 -13.5l16 -13q1 -17 3 -43.5t4.5 -79t0.5 -68.5q-1 -8 19.5 -12t53 -4.5t62.5 0t60.5 1.5t35.5 1q11 -22 12 -88.5t-20 -75.5 q-92 -14 -213 -10q6 -33 6.5 -96t1.5 -80q1 -21 -0.5 -33.5t-10 -18t-13.5 -6.5t-23 -1t-27 -1q-7 -1 -22 -3.5t-21 -2.5t-15 3t-12.5 12.5t-4.5 25.5q-1 30 -2 106t-2 95q-35 -4 -114.5 -3t-109.5 -3q-8 85 -6 125z" />
<glyph unicode="," horiz-adv-x="358" d="M94 111q5 37 43.5 56t75.5 -1q47 -37 51 -84q4 -76 -43 -107q-2 -1 -14.5 -8t-24.5 -11.5t-20 -2.5q-13 21 -10 33q3 2 12.5 5t19.5 7q27 14 27 45q-38 -26 -80 -0.5t-37 68.5z" />
<glyph unicode="-" horiz-adv-x="796" d="M92 584q1 16 1 34.5t-0.5 41.5t-0.5 36q0 24 8 29q2 2 11 2l127 -4h387q16 -2 53 -10q4 0 16 -6q6 -3 6 -21q5 -102 5 -121q0 -35 -15 -35q-27 0 -39 2q-3 1 -70 5.5t-146 9t-99 6.5q-27 2 -93.5 2.5t-90.5 -0.5q-17 0 -25 -4q-4 -2 -27 4q-8 0 -8 29z" />
<glyph unicode="." horiz-adv-x="335" d="M97.5 72q-13.5 37 4.5 71t58 39q-2 -2 -6 -2h4q56 8 77 -43q19 -45 -4 -85q-26 -46 -81 -29q-39 12 -52.5 49z" />
<glyph unicode="/" horiz-adv-x="890" d="M94 -10q-3 42 266 772.5t285 738.5q23 10 64 6q50 -4 75 -21t4 -59q1 -2 -2 -12t-2 -12q-10 -43 -266.5 -728.5t-269.5 -688.5q-4 -1 -34.5 -2t-61 -4t-43.5 -7q0 2 -3 4.5t-6.5 6.5t-5.5 6z" />
<glyph unicode="0" horiz-adv-x="954" d="M93 1058q1 86 11 165q1 11 3 20.5t5 19.5t5 17t7.5 17.5t7.5 15t9 16t9 15t11 17.5t11 17q28 46 80.5 64t124.5 24q46 8 111 7t108 -25q9 -5 30.5 -16.5t37.5 -21t28 -19.5q112 -96 131 -291q13 -90 17 -252q1 -11 18 -262q8 -94 -4 -283q-6 -68 -25.5 -114.5 t-64.5 -92.5q-35 -38 -101 -61.5t-131 -30.5q-76 -10 -153 8.5t-139.5 69.5t-83.5 125q-8 34 -13 72.5t-9 85t-7 73.5q-1 10 -12.5 105.5t-12.5 146.5q-1 46 -5.5 164t-3.5 204zM268 969q-1 -73 7.5 -206t9.5 -173q1 -22 2 -73.5t2 -85t4 -74.5t8.5 -69t13.5 -42 q10 -7 26.5 -20t25 -19.5t24 -13t33.5 -9.5q101 -24 158 -2q30 12 50 32t29.5 47.5t13 54t3.5 61.5q0 205 -10 307q-8 61 -9.5 175t-5.5 163q-1 32 -10 92.5t-10 73.5q-5 29 -22 51.5t-31 30.5l-15 8q-131 3 -237 -33q-60 -62 -60 -276z" />
<glyph unicode="1" horiz-adv-x="430" d="M45 1221q-2 12 27.5 60.5t65.5 104.5t44 78q12 11 44.5 12t61 -4.5t46.5 -11.5q3 -5 3 -33.5t-1 -61t0 -62.5q-11 -235 -12 -431.5t3.5 -444t4.5 -411.5q-25 -12 -67 -13t-70 9q-5 210 -6 393.5t0.5 409.5t0.5 391l-2 -6q-3 -5 -7.5 -14t-11 -16.5t-14.5 -10.5t-18 2 q-35 15 -92 60z" />
<glyph unicode="2" horiz-adv-x="858" d="M100 1090q-23 107 33.5 211t132.5 135q29 11 57.5 19t76.5 11t92 -6.5t96.5 -40t97.5 -82.5q46 -53 63 -127.5t7.5 -147t-29 -134.5t-45.5 -107q-30 -74 -88 -151t-122.5 -155t-98.5 -140q-3 -6 -11 -18.5t-11.5 -19.5t-11.5 -20.5t-11.5 -21t-10 -22t-8 -22t-5.5 -21.5 t-2.5 -21t1.5 -21q66 -17 152.5 -15t147 8.5t142.5 -5.5q12 -11 16 -44t2.5 -63t0.5 -53q13 -10 -151 -21q-279 -18 -411 6q-61 10 -65 30q-10 82 -2 145q9 84 30.5 156t60.5 139t70 111.5t89 118.5t88 116q109 143 109 258q2 103 -56.5 178t-132.5 59.5t-110 -141.5 q-2 -8 -4.5 -28t-5 -33.5t-11.5 -25.5t-24 -13q-134 -10 -138 19z" />
<glyph unicode="3" horiz-adv-x="917" d="M93 1413q0 19 16 33q15 7 69.5 2t69.5 -4q27 1 84 -1t86 -1q42 1 155 7t175 5q12 -17 -17 -68q-5 -10 -59 -88l-66 -102q-11 -15 -28.5 -47.5t-26.5 -46.5q-7 -11 -21 -37.5t-24 -40.5q4 -4 10 -7.5t14 -6.5t13 -6q48 -16 51 -19q1 -4 6.5 -7t15 -6t13.5 -5q15 -8 41 -31 q1 -1 7.5 -5.5t9 -6.5t8 -6.5t8 -8t5.5 -8t3 -8.5h4q69 -105 88 -168q5 -19 4.5 -50.5t1.5 -49.5q16 -86 16 -125q-2 -83 -43 -207q-23 -62 -32 -76q-2 -2 -10 -12t-11 -14t-9.5 -13t-9.5 -14.5t-6.5 -14t-5.5 -16.5q-12 -10 -18 -24q-28 -24 -41 -37q-27 -35 -61 -52 q-15 -8 -32.5 -12.5t-30 -6.5t-33.5 -1t-30.5 1.5t-34.5 4t-32 4.5q-28 5 -66 29.5t-45 48.5q-36 22 -47 45q-3 5 -20 21t-19 24l5 10q-2 2 -4 -1.5t-5 -2.5q0 9 -10 21t-12 18q-3 15 -17 43q-13 19 -22.5 55.5t-3.5 57.5q19 7 76 14.5t75 12.5q0 -19 6 -25q4 -4 5 -7t1 -10 t1 -12q1 -12 7.5 -37t6.5 -39q29 -72 96 -96q66 -7 106.5 28t78.5 105q54 98 38 277q-12 93 -28 135q-11 25 -29 46t-32 32t-44 31q-60 36 -137 49q-15 2 -44 2.5t-38 1.5l-49 4q-4 18 7.5 40.5t27.5 35.5q4 9 80 129q38 54 69 125q7 13 32 45.5t32 54.5q-74 -8 -111 -10 q-9 -1 -29.5 -5t-36.5 -6t-30 0q-16 3 -51 -3.5t-63 -5t-44 23.5q5 22 0 50.5t-5 47.5z" />
<glyph unicode="4" horiz-adv-x="960" d="M94 500q3 25 25.5 69t53 93t38.5 65q4 9 73.5 147.5t137 276t78.5 170.5q8 25 29 62t38 44q11 7 55.5 4t63.5 -14q0 6 4 2q0 -1 1 -4.5t1 -5.5q4 0 4 -8h-2q6 -38 10.5 -127.5t8 -210.5t4.5 -135q2 -57 2 -242q-1 -6 -3.5 -19.5t-3 -20t0.5 -19.5q12 -1 42.5 2.5t56.5 3 t40 -11.5q10 -8 12 -18.5t0.5 -24t-0.5 -21.5l1 -8q1 -8 1.5 -11t0.5 -10.5t-1 -11t-3 -8.5t-5.5 -6.5t-9.5 -1.5q-128 11 -137 -11q-7 -19 -12 -202t-3 -234q1 -26 -7 -34t-36 -13q-33 -6 -98 -6q-4 2 -6.5 8t-5.5 8q0 55 5.5 228.5t10.5 249.5q-90 -4 -283.5 -4t-181.5 10 zM328 616q175 0 235 5q14 59 14 272.5t-10 247.5q-4 -12 -14 -29t-12 -20q0 -1 -1 -2.5t-1 -2.5l-2 -4q-16 -29 -68.5 -144.5t-97.5 -218.5t-43 -104z" />
<glyph unicode="5" horiz-adv-x="864" d="M94 342q1 23 116 36t124 -3q-2 -27 2 -84q3 -54 31 -83t77 -20q29 2 51.5 15.5t36 34t24 47.5t14.5 56t7.5 58.5t2.5 56t0 48.5v6.5v5.5v6q0 84 -24 181t-69 145q-46 50 -127.5 62.5t-138.5 -9.5q-4 -1 -11.5 -4t-12 -4.5t-11 -3t-11 -1t-9 1.5t-7 5.5t-3.5 11.5 q-5 22 -29 430q-2 33 -2 58t16 38t52 11q32 -3 157.5 -5.5t235.5 -3.5l110 -1q21 -97 -4 -142q-27 -8 -153.5 -3.5t-155.5 3.5q-44 0 -64 -4q-11 -1 -16.5 -5t-6.5 -11t0 -13t3.5 -17t3.5 -17l19 -144q132 -5 175 -14q114 -23 186 -125q21 -30 40 -68q16 -33 26 -76.5 t12 -66.5t7 -82q1 -46 2.5 -102t-6 -118t-18.5 -123t-36 -116.5t-56.5 -97.5t-80 -67t-108.5 -25q-154 0 -237 76.5t-124 226.5q-12 30 -10 39z" />
<glyph unicode="6" horiz-adv-x="858" d="M125 289q-86 792 65 1050q41 70 117.5 96t157.5 5q71 -19 134.5 -62t90.5 -102q21 -47 29 -121q6 -36 -12 -41q-13 -4 -52.5 -8.5t-82.5 -0.5t-42 23q3 113 -92 146q-45 15 -77 -18t-46 -93t-19.5 -110.5t-4.5 -87.5q23 18 41.5 29t47.5 20.5t67 7.5t83 -16 q48 -14 105 -64.5t76 -95.5q42 -97 52 -214.5t-11 -228.5t-75.5 -211.5t-135.5 -162.5q-26 -19 -76 -27t-112 4.5t-105 48.5q-104 86 -123 234zM282 436q0 -14 0.5 -41.5t2.5 -44t5.5 -41t9.5 -39t14.5 -32.5t21 -27t27.5 -16t36 -6.5t45 8.5q47 16 80.5 76t44 130.5 t13 141.5t-10.5 108q-38 143 -114 158q-59 12 -112 -59q-63 -84 -62 -213v-19v-45q-1 -25 -1 -39z" />
<glyph unicode="7" horiz-adv-x="946" d="M94 1458.5q-1 9.5 4 19.5t19 13q16 4 34.5 5.5t34 0.5t35.5 0q78 7 141 4q29 0 84.5 -1.5t101 -1.5t85.5 3q53 3 106 0q3 0 25 1t35 -0.5t22 -6.5q14 -8 20.5 -36.5t8.5 -31.5q6 -17 -1.5 -32.5t-16.5 -22.5t-27 -18q-34 -25 -83.5 -84.5t-74.5 -81.5q-9 -17 -38 -60.5 t-40 -68.5q-34 -84 -55 -150q-30 -94 -55 -295q-28 -235 -29 -303q-4 -99 -2 -149q1 -11 5 -32.5t7 -38.5t2 -36t-10 -30q-11 -6 -37.5 -8.5t-36.5 -8.5q-22 -13 -73 -4q-10 9 -16.5 29.5t-4.5 34.5q3 19 -2 32q-5 1 -4.5 18t0.5 21q-4 6 -1 43.5t3 44.5q0 25 -8 33 q5 5 6.5 12t2.5 17.5t1 13.5q14 213 39 369l12 92q10 78 15 92q15 34 34 97.5t29 88.5q14 39 37 76q3 5 18 40t27 50q18 25 41 74q6 12 26 34t25 38h-217q-73 0 -110 2q-82 0 -107 6q-6 2 -10.5 5.5t-7 6t-5 8.5t-3 9t-2 10.5t-1.5 9.5q0 7 -3.5 22.5t-4.5 25z" />
<glyph unicode="8" horiz-adv-x="935" d="M95 427q-1 59 6.5 107.5t23.5 114.5q4 15 12 48.5t13 54t16 51t22 50.5t28.5 41t39.5 34q-47 36 -68.5 97t-18.5 122.5t24 120.5q29 90 110 138t176 36q100 -11 162 -45q16 -8 28.5 -18.5t24 -27t17.5 -26t18 -33t16 -30.5q31 -58 3 -189q-18 -102 -78 -147 q51 -27 86.5 -67.5t53.5 -90.5t26.5 -100t6 -111.5t-8 -109.5t-15.5 -107q-10 -64 -53 -145q-44 -90 -74 -115q-60 -55 -92 -70q-12 -6 -26.5 -8.5t-24 -2t-28 2.5t-27.5 2q-48 0 -142 23q-7 2 -21 8t-32 14.5t-30 17.5t-9 15q-10 1 -21 7.5t-20.5 18.5t-16.5 22t-16 25 t-12 19q-35 52 -37 55l-26 82q-15 57 -16 116zM260 362q8 -129 76 -182q46 -34 107.5 -33t107.5 35q23 17 39.5 39.5t26.5 58.5t13.5 51t10.5 58l25 103q-3 1 2.5 28.5t-4.5 34.5q9 7 -5 94q-11 70 -43 107q-41 52 -100.5 66.5t-120.5 -13.5q-30 -14 -51 -37t-34.5 -58 t-19.5 -58.5t-14 -65.5q-23 -141 -16 -228zM320.5 1174.5q-1.5 -42.5 22 -77.5t56.5 -59t74.5 -21.5t73.5 36.5q40 45 45 109t-35 112q-40 40 -96 37q-45 0 -66 -15q-8 -8 -22 -24t-21 -23q-30 -32 -31.5 -74.5z" />
<glyph unicode="9" horiz-adv-x="839" d="M102 872q-23 237 17 385q18 73 78.5 133.5t132.5 73.5q205 44 305 -61q57 -60 85 -215.5t26.5 -337t-15.5 -348t-35 -275.5q-13 -67 -55 -120t-99.5 -80.5t-125.5 -30.5t-133 31q-77 51 -109 108q-65 102 -65 178q4 4 34.5 11.5t69.5 15t45 8.5q13 -11 31 -68.5t35 -78.5 q30 -35 72 -43.5t81 16.5q50 36 74.5 179t3.5 200q-19 -4 -46 -13t-44.5 -15t-45.5 -10t-50 3q-174 38 -232 172q-24 62 -35 182zM252.5 1002q0.5 -80 21.5 -152t54 -111q26 -29 65 -40t76 1q35 11 59 45q41 56 41 304q0 41 -1.5 71t-9.5 70t-22 66t-41 45.5t-65 21.5 q-62 0 -104.5 -47.5t-58 -120.5t-15 -153z" />
<glyph unicode=":" horiz-adv-x="350" d="M96 662q14 45 70 59q1 0 2 -1t2 -1l-2 2h2q17 3 35 -9t24 -28q10 -22 5.5 -46.5t-21.5 -39.5q-5 -6 -18 -15t-21 -10q-36 -2 -62 26.5t-16 62.5zM111.5 46q-7.5 37 7.5 63q16 26 47 32.5t53 -14.5q13 -13 23.5 -37.5t9.5 -46.5q2 2 4 2q0 -3 -3 -11.5t-5 -10.5 q-12 -24 -46 -33t-57 4q-26 15 -33.5 52zM164 721h6h-6z" />
<glyph unicode=";" horiz-adv-x="342" d="M96 629q-4 15 3.5 38.5t19.5 34.5q13 9 37 11.5t37 -2.5q27 -7 39 -35t1 -53q-3 -12 -13.5 -24.5t-22.5 -18.5q-13 -7 -29.5 -10.5t-30.5 1.5q-12 4 -24.5 18.5t-12.5 20.5v2q0 2 -0.5 4.5t-1.5 6t-2 6.5zM97 52.5q-11 39.5 9 66.5q19 29 51 29.5t58 -21.5t33 -53 q7 -48 -10 -88q-8 -24 -21 -37q-27 -37 -47 -23q-3 21 21.5 50.5t19.5 56.5q-1 -1 -10 -8t-11.5 -8.5t-13 -7t-15.5 -4t-18 0.5q-35 7 -46 46.5z" />
<glyph unicode="&#x3c;" horiz-adv-x="690" d="M92.5 795.5q1.5 16.5 11.5 29.5q129 178 250 363q4 6 13.5 21.5t14.5 23.5t14 21.5t16.5 22.5t17 20t19.5 20q17 16 37 16t35.5 -9.5t38.5 -25.5t38 -22q4 -15 -153 -243.5t-156 -252.5q1 -33 126 -235.5t160 -239.5q-3 -10 -28 -46t-37 -48q-15 -16 -32.5 -13.5 t-28.5 10.5t-27 25q-67 77 -272 431q-3 4 -17.5 27.5t-20.5 35.5t-13.5 32t-6 36.5z" />
<glyph unicode="=" horiz-adv-x="1222" d="M95 463.5q-7 51.5 5 91.5q6 12 15 19t24.5 8.5t23.5 1.5t28 -3t22 -3q52 -3 248.5 -0.5t418 -0.5t224.5 -16q8 -27 8 -92v-12v-12.5v-12.5t-1 -12.5t-2 -11t-3 -10t-4.5 -7t-6 -5t-8.5 -1.5q-717 0 -968 25q-17 2 -24 53.5zM96.5 843q-0.5 38 8.5 82.5t22 45.5 q119 5 273 -1.5t327 -7t385 20.5q12 1 15 -45t-2 -95t-13 -57q-74 0 -394.5 6.5t-611.5 6.5q-9 6 -9.5 44z" />
<glyph unicode="&#x3e;" horiz-adv-x="671" d="M92 1262q3 16 46.5 38.5t66.5 22.5q17 -1 188.5 -264.5t181.5 -286.5q4 -7 1.5 -21.5t-1.5 -21.5q-45 -63 -151 -238.5t-123 -209.5q-2 -2 -15 -29.5t-22 -32.5q-17 -5 -28.5 -6t-29.5 7t-29.5 15t-27 17t-22.5 14q-7 14 54.5 123t129.5 220.5t70 117.5 q10 31 -81.5 191.5t-152.5 224.5q-3 7 -26.5 49.5t-28.5 69.5z" />
<glyph unicode="?" horiz-adv-x="851" d="M93 1105q4 58 22 112t35 81q50 91 134 134t180.5 26.5t178.5 -92.5q50 -44 81 -109t34 -131q3 -104 -15.5 -191t-48.5 -142.5t-68.5 -105t-73.5 -80t-66.5 -65t-43.5 -63.5q-14 -31 2 -172q2 -15 -1 -25.5t-10.5 -16.5t-15 -10t-21.5 -5t-23 -1t-25.5 0.5t-23.5 0.5 q-35 0 -54 25t-20.5 63t3 72.5t13.5 64.5q49 154 217 311q32 32 47.5 49t35 48t26.5 63q22 98 -21 207q-13 35 -23.5 57.5t-33 45.5t-49.5 30q-39 12 -82 0.5t-68 -43.5q-12 -15 -19.5 -30t-9.5 -34t-2.5 -30.5t1.5 -36t2 -33.5q4 -32 -64 -46t-96 -3q-38 17 -34 75z M293 93.5q11 30.5 35 43.5q21 15 47.5 14.5t42.5 -20.5q33 -40 12.5 -83t-61 -47t-72.5 36q-15 26 -4 56.5z" />
<glyph unicode="@" horiz-adv-x="1304" d="M92 351q-1 73 8.5 155t24.5 152.5t35 144.5q32 114 109 217.5t177 155.5q100 53 227 56t228 -44q104 -53 181 -159t104 -224q55 -222 2 -518q-7 -49 -28.5 -101t-57 -100t-84 -66t-109.5 0q-14 4 -43 24t-51.5 37.5t-23.5 16.5q-113 -82 -234 2q-87 60 -127 199.5 t-32.5 282.5t48.5 245q27 67 90 115t130 45q36 -2 69.5 -24.5t36.5 -22.5q7 11 12 22t6 15t7.5 8t16 4.5t30.5 1.5q38 0 57 -13t23 -48q1 -6 -1 -178.5t1.5 -332t17.5 -155.5q-11 -19 4.5 -45t38.5 -28.5t43 32.5q23 52 37.5 200.5t9.5 209.5q-8 69 -20.5 124.5t-36 116.5 t-65 107t-97.5 72q-65 31 -143.5 36.5t-155.5 -19.5t-127 -79q-40 -44 -71 -100.5t-53 -128.5t-33.5 -120.5t-26.5 -127.5q-13 -79 -13.5 -158.5t27.5 -161t82 -135.5q99 -99 215 -108q39 -3 57.5 -6t40 -13.5t30.5 -31.5t11 -56q1 -14 -1.5 -23.5t-5 -14.5t-12 -7.5 t-14.5 -3t-21 -0.5h-24q-36 -2 -91 14t-81 27t-88 39q-71 31 -123.5 82t-82 111.5t-44.5 135t-16 147.5zM594 547q-15 -163 29 -242q22 -42 59 -45q29 24 48 57t28.5 63.5t13.5 74.5t3.5 73t-2 77t-1.5 69q-1 -1 -4 14.5t-7.5 35t-10.5 26.5q-50 83 -97 13q-46 -68 -59 -216 z" />
<glyph unicode="A" horiz-adv-x="765" d="M18 10q-1 15 -1 31q-1 43 9 91q14 65 39.5 144.5t34.5 118.5q27 133 101 520q63 292 84 375q20 94 37 144q8 26 30 32q10 3 22 3q15 1 34 -3q35 -6 49 -6q10 -14 20 -66.5t16 -104.5t12 -109.5t7 -65.5q16 -136 49 -309q29 -169 70 -342q11 -46 49 -227q3 -18 11.5 -58 t13 -71.5t4.5 -59.5q0 -24 -19 -43q-21 2 -44 0.5t-48.5 0t-38.5 9.5q-10 37 -43.5 195t-36.5 182q-70 6 -126.5 6.5t-100.5 -6.5q-10 -23 -17.5 -52t-15 -69t-10.5 -53q-6 -21 -25 -98q-2 -9 -5 -37.5t-9 -46.5t-18 -31q-18 -3 -46 -3q-10 1 -22 1q-44 2 -66 8zM285 543 q12 -3 34 -2q21 -1 49 1q42 3 66 4q11 0 19 -1q-2 43 -38 241q-35 196 -48 195l-1 -2q-1 -1 -1 -2q0 -2 -6.5 -34.5t-16 -81.5t-20 -104.5t-21 -114t-16.5 -99.5z" />
<glyph unicode="B" d="M92 330q0 250 2 377v94.5v133.5v117v156q2 120 8 230q25 4 71 14t56 12q38 5 80 4q32 0 66 -2q63 -3 141 -26q48 -15 96 -88q44 -73 45 -164q0 -36 -8 -76q-25 -136 -112 -215q2 -2 11 -8.5t25.5 -19t32.5 -23.5q18 -23 43 -64q7 -15 11.5 -32t6.5 -27.5t3.5 -33t1.5 -28 v-34.5v-31q0 -18 1.5 -63.5t1.5 -70t-0.5 -62.5t-3.5 -70.5t-9 -63.5q-30 -172 -175 -217q-31 -8 -87.5 -18t-77.5 -15q-62 -16 -93 -16q-12 0 -34.5 1t-41.5 1t-36 -2q-10 12 -15 30.5t-5.5 37t-0.5 38.5v35zM259 480.5q0 -49.5 4.5 -128t15.5 -153.5q16 2 55.5 5.5t57 6.5 t41 12.5t36.5 24.5q6 6 19 47.5t25.5 107.5t12.5 121v26v31t-0.5 31t-2.5 34.5t-4.5 31.5t-7 32.5t-10 27t-14 26t-18.5 18.5q-53 20 -112 20q-44 0 -93 -11q0 -55 -2.5 -158t-2.5 -152.5zM262 1317q1 -33 4 -151t6 -165q13 -7 36 -7q18 0 42 4q5 1 8 1l4 1q5 1 12.5 3t18 6 t21.5 9t21.5 11.5t20 14.5t15.5 17q28 42 28 105q0 19 -3 40q-6 40 -22 63t-50 42q-20 11 -42 15q-18 3 -30 2h-6q-14 -1 -44 -5.5t-40 -5.5zM358 999q2 2 4 2z" />
<glyph unicode="C" horiz-adv-x="841" d="M92 427v49.5t2 53.5t2 50q2 55 2 105q0 49 -2 95q-1 24 -1 49q1 71 7 151q8 108 31 196q77 290 287 307h14q62 -1 130 -31q76 -34 129 -99t52 -136q-15 -5 -47.5 -20t-59.5 -23t-52 -5q-3 5 -23 56t-47 69q-38 25 -72 25q-35 0 -67 -27q-64 -52 -85.5 -128.5 t-25.5 -184.5q-6 -229 -6 -367v-63v-55v-38v-26q0 -18 3 -58t10 -63.5t20.5 -51.5t32.5 -48q26 -29 61 -41q19 -7 38 -6q15 0 28 4q53 16 92 100q7 15 17.5 22.5t24.5 8.5t25.5 0t30.5 -5t29 -5q51 -6 63 -19q6 -5 7 -12t-2.5 -15.5t-6 -14t-9 -15t-7.5 -10.5 q-26 -41 -46.5 -68.5t-50.5 -58.5t-66 -49t-77 -23q-18 -2 -37 -2l-107 20q-72 26 -126 78q-20 19 -36 41t-28 40.5t-20.5 48t-14.5 45.5t-9.5 52t-5 48t-1.5 54z" />
<glyph unicode="D" horiz-adv-x="817" d="M92 88v12q0 14 1 33q1 29 1 41q0 27 2 96q2 49 2 83v24q-1 21 -1 51q1 52 3 131q2 67 1 116q0 43 -1 73q-1 27 -1 63q1 54 3 129q3 87 3 141q0 24 -1 43v15q0 29 2.5 75.5t2.5 74.5v14q-3 34 -3 77v14q0 52 13 89q43 18 143 18q114 -4 168 -12q180 -19 232 -100 q11 -17 19.5 -36t14.5 -41.5t9.5 -39t6.5 -44.5t4 -41t2.5 -44.5t2.5 -40.5q1 -24 1 -54q0 -56 -4 -136q-6 -124 -5 -167q0 -24 1.5 -82.5t1.5 -90.5v-36v-45q0 -48 -3 -88q-1 -16 -2 -51.5t-3.5 -61.5t-9.5 -50q-22 -64 -77 -129q-28 -36 -71.5 -58.5t-78.5 -29.5t-92 -13 q-198 -11 -255 -11q-13 0 -18 1q-7 22 -10.5 47t-3.5 41zM252 274v-17q0 -38 2 -101q12 -2 27 -2q60 0 170 26q46 10 65.5 42t30.5 89q14 74 14 228q12 449 14 483v25q0 95 -20 176q-12 41 -43.5 65.5t-73.5 31.5q-37 6 -73 6h-9q-40 -1 -82 -9q-9 -298 -16 -412 q-4 -26 -4 -89q0 -44 2 -108q4 -128 4 -180v-18q-1 -39 -4.5 -117.5t-3.5 -118.5z" />
<glyph unicode="E" d="M92 1092q0 43 3 179q2 82 2 141q0 40 -1 69q15 14 36 18.5t58 4t41 -0.5l123 6q86 4 133 4q20 2 45 2q16 -1 34 -1q48 -2 77 -17q2 -16 4 -60t8 -67q5 -10 2.5 -17.5t-3 -12.5t-7.5 -8.5t-10.5 -5.5t-13 -3t-14.5 -1t-15 -0.5t-14 -0.5q-212 -4 -316 -12q1 -12 1 -28 q-1 -75 -13 -226q-9 -108 -8 -184q0 -52 4 -89q35 0 142 11q65 7 112 7q30 0 53 -3q4 -15 8 -46t8 -46q0 -3 3.5 -15.5t6 -22.5t1 -20.5t-8.5 -13.5q-9 -5 -23 -7t-33 -2.5t-25 -0.5q-58 -4 -240 -9q-1 -52 -1 -64.5t4 -63t5 -64.5q8 -152 19 -217q65 -13 180 -17 q35 -2 106 -2q6 0 28.5 1t38 0t27.5 -5q11 -20 15 -55q2 -22 3 -43q0 -12 -1 -22q-2 -30 0 -58q-50 -6 -196 -6h-101q-231 2 -242 8q-20 50 -24 141q-11 162 -11 179q2 65 2 142q0 107 -4 234q-1 64 -4 194t-4 196z" />
<glyph unicode="F" horiz-adv-x="675" d="M92 594q0 148 4 438v215q0 14 -0.5 51.5t-0.5 57.5t2.5 50.5t8.5 55.5q47 4 135 6t126 5l112 6q3 -1 30 3q24 3 40 4h4q17 0 27 -7q0 -62 2 -93q0 -3 1 -16t1 -21.5t-2.5 -19t-8.5 -14.5q-6 -5 -18 -7t-21.5 -2t-24.5 0.5t-20 0.5q-21 0 -72 2q-34 1 -62 1h-27 q-38 -1 -74 -7v-107v-182v-52q0 -175 6 -231q11 -1 23 0q23 -1 51 1q44 4 70 5h5q25 0 60 -8q-1 -20 1.5 -48.5t2.5 -49.5t-6 -39q-27 -5 -78 -5q-13 1 -27 1h-23q-52 0 -79 -6q1 -42 1 -89t-0.5 -105t-0.5 -89q0 -100 -2 -149q-2 -27 -2 -76q1 -7 3.5 -23t2.5 -22t-2 -21 q-65 -8 -107 -8q-29 0 -47 4q-4 27 -5.5 58.5t-1.5 53t0.5 60.5t0.5 55q-8 242 -8 363z" />
<glyph unicode="G" horiz-adv-x="860" d="M92 994q1 63 10 122q1 3 4 23t4 26t5 22.5t7 25.5t8 21t11 21q50 74 127 113q86 43 169 43q88 0 173 -47q77 -45 109 -84q27 -41 29 -55q2 -11 -2 -20.5t-7.5 -13.5t-16 -12.5t-13.5 -9.5q-32 -28 -56 -36q-6 -3 -13.5 0t-17 10t-10.5 8q-11 6 -62 44.5t-87 47.5 q-17 4 -34 4q-21 0 -42 -5q-39 -10 -68 -34q-53 -38 -53 -139v-14q0 -56 -4 -185q-4 -105 -4 -169v-27q0 -30 10 -205q2 -25 5.5 -88t7.5 -96q8 -86 59 -117q30 -19 67 -23q8 -1 15 -1q29 0 55 12q33 17 53.5 52t27 63.5t13.5 74.5q2 14 8.5 44t9.5 48.5t5 49t-4 44.5 q0 3 -4 7q-13 4 -35 4q-20 0 -47 -3q-37 -4 -60 -4q-13 0 -22 1q-16 2 -25 16.5t-10 30t-1.5 38t-2.5 31.5q-2 14 9.5 22.5t34.5 11.5t39.5 4t43 0t27.5 -1q71 0 108 4q25 3 46 3q36 0 57 -9q16 -52 16 -182q1 -48 1 -86q0 -76 -5 -115q-32 -213 -158 -276q-65 -29 -145 -29 h-8q-85 2 -152 33q-125 58 -176 289q-9 47 -14 100.5t-5 101v102v101.5q-1 37 -6 121q-4 75 -4 133v13z" />
<glyph unicode="H" horiz-adv-x="856" d="M92 14q16 118 16 300v12q0 38 -1 73q0 140 2 236q1 32 5 105q2 72 4 125q1 32 1 63v41q0 53 3 157t3 154q0 8 -1.5 29t-2 36.5t1.5 33.5t10.5 29.5t22.5 14.5q25 4 80 4q18 0 25 -1t13.5 -8.5t8.5 -24.5v-10q0 -31 -4 -123l-5 -179q-2 -118 -2 -206.5t2 -147.5 q13 -1 96 -5q74 -4 94 -3q2 -1 4 -1q16 0 103 1q7 225 25 391q2 30 5 88t5 88q0 2 -1 43v13q0 32 4 52q5 24 20 27q11 1 21 1q42 0 74 -16q40 -20 40 -71q0 -43 -4 -129q-6 -149 -20 -426.5t-17 -341.5q-4 -71 -9 -213t-9 -213q-74 -11 -110 -11q-12 0 -20 1 q-12 29 -16.5 67t-4.5 64t2.5 74.5t2.5 64.5q6 294 6 297h-9q-40 0 -132 7q-59 5 -102 5q-32 0 -56 -3l-10 -330q0 -3 -2 -42.5t-4 -60.5q0 -3 -1 -20t-2 -33t-3 -34t-7.5 -30.5t-11.5 -15.5q-62 -9 -95 -9q-37 0 -38 11z" />
<glyph unicode="I" horiz-adv-x="382" d="M74 82v19q0 42 6 69q12 114 16 418q2 18 2 58t-2 104q-3 126 -3.5 163t-6 163.5t-6.5 162.5q0 69 2 104q0 2 -3.5 35t-0.5 52.5t16 23.5q29 10 96 10h20q6 0 11 1q9 0 13 -1q6 -1 17.5 -3.5t16 -10.5t4.5 -20q-1 -29 -5 -85t-5 -83v-181q-1 -54 -7.5 -176.5t-6.5 -187.5 q0 -41 4 -171q3 -78 3 -134q0 -38 -1 -66q-3 -41 -3 -88q0 -28 1 -59q0 -9 2 -39.5t2 -46t-2 -39t-6 -41.5q-30 -22 -146 -27q-26 21 -28 76z" />
<glyph unicode="J" horiz-adv-x="872" d="M195 711q37 0 47 -2h6v-4q6 -53 6 -162q0 -59 1.5 -91t7.5 -81t22.5 -88.5t42.5 -73.5q30 -37 73 -37q64 0 113 55q35 35 47 105q3 6 8 26q18 68 23 111q3 42 3 92q0 80 -7 182q0 7 -1 21t-1 20l-2 23q-5 134 -5 223q0 45 1 78v125q-3 51 -3 94q0 56 5 98q3 23 9.5 33 t26.5 17q21 8 54 8h12q61 0 90 -27l2 -2l2 -4v-23q0 -74 -10 -204q-2 -16 -3 -35.5t-1.5 -42.5t-1.5 -35l-4 -131q0 -141 -8 -211q-7 -72 -11 -180q-4 -100 -8 -144q0 -17 -4 -49q-4 -177 -51 -262q-31 -57 -98.5 -95t-135.5 -38q-72 0 -148.5 36t-111.5 95q-22 37 -35.5 85 t-18 81t-9.5 92l-2 14l-6 77q-6 77 -12 153q-5 65 -5 74q0 4 101 4z" />
<glyph unicode="K" horiz-adv-x="849" d="M93 340v110q0 101 1 166q1 73 1 221t1 222q0 65 4 201q0 14 -1.5 46.5t-2 53.5t4 47.5t14.5 44.5q16 -1 45 2q25 3 46 3q2 -1 6 -1q24 0 42 -8q3 -57 3 -120q-1 -32 -1 -64q-2 -100 -4 -194q-2 -67 -2 -91v-12q25 19 169.5 205.5t164.5 216.5q5 5 17 23t22.5 27t25.5 11 q30 5 52 5q55 0 55 -34q0 -30 -29 -67q-37 -53 -116 -156t-142.5 -184t-69.5 -92q22 -40 47 -103q8 -19 99.5 -238.5t116.5 -283.5q39 -103 51 -137q4 -10 13.5 -31.5t15 -36t10.5 -33.5q4 -16 4 -29v-5q-6 -15 -82 -17h-21q-57 0 -65 10q-20 21 -128.5 322t-152.5 442 q-8 -7 -23 -25.5t-26 -27.5q0 -76 -2 -113l-8 -196q-8 -180 -8 -410q-32 -10 -136 -10q-4 13 -5.5 29.5t-1.5 38.5t-1 32q-2 62 -3 240z" />
<glyph unicode="L" horiz-adv-x="700" d="M94 1090q1 28 6 55q13 50 13 107q0 22 -2 46q-1 17 -1 32q0 50 13 73q4 7 16 9q5 1 12 1q8 1 18 -1q18 -2 32 -5t33 -8t22 -6q12 -53 12 -86q0 -29 -6 -95q-4 -50 -4 -81v-11q6 -106 6 -204q0 -59 -2 -115q-5 -129 -5 -236q0 -46 1 -88q0 -56 8 -162q1 -15 0 -47.5 t0.5 -57.5t7.5 -46q43 -16 157.5 -21t162.5 -18q12 -39 12 -76v-14q-1 -10 -7 -16.5t-20 -8t-18.5 -2t-19.5 -0.5q-19 0 -58 -3t-59 -3l-66 2h-29q-37 0 -38 -2q-15 -1 -45 -1t-45 -1h-14q-25 0 -39 6q-18 8 -25 37q-5 17 -6.5 33t-2.5 43t-1 33q-4 40 -4 59q-1 6 -1.5 19.5 t-1.5 17.5q-4 38 -6 86t-2 77v37v54v80q-1 64 -1 193t-1 194q0 15 -2 54q-1 23 0 43v24z" />
<glyph unicode="M" horiz-adv-x="952" d="M94 319q2 156 2 239v54q-1 48 -1 117q0 139 4 364q6 337 22 353q7 0 45 10q23 6 38 6q9 0 15 -2q9 -5 15.5 -15t14 -29.5t7.5 -20.5q10 -26 60.5 -178.5t98 -293t56.5 -153.5q3 4 14 34.5t13 37.5q1 2 95.5 284t106.5 301q12 6 36 6t30 1q3 1 14.5 4t17 4t14.5 2t15.5 -1 t12.5 -7q0 -69 5 -305.5t9.5 -450t5.5 -428.5v-41q0 -177 -8 -201q-16 -4 -42 -7q-22 -3 -47 -3h-9q-30 0 -50.5 11t-19.5 32q1 61 1 117q0 94 -3 176q0 494 -8 512q-7 -30 -27.5 -106.5t-53 -185t-44.5 -124.5q-17 -24 -35.5 -28t-46 1t-43.5 3q-9 15 -39 96t-58.5 161 t-29.5 83q-3 4 -5.5 21t-10.5 22q-1 -490 -11 -562q-2 -21 -3 -99.5t-13 -121.5q-21 -6 -48 -6q-16 0 -33 2q-47 6 -77 23q-2 45 -2 145q-1 63 0 147zM276 793h9q0 6 -2 8h-7v-8z" />
<glyph unicode="N" horiz-adv-x="901" d="M92 29q8 16 8 69q0 2 6 107q7 127 7 187v24v30q0 78 4 206q5 154 6 202q1 64 7.5 211t6.5 225v82q0 3 1 16t2 21.5t4 18.5t8 16q11 11 30.5 16t34.5 5.5t41.5 -0.5t32.5 -1q10 -10 16 -25.5t11 -38t8 -30.5l39 -125q4 -13 32 -110.5t49 -147.5q16 -38 43.5 -112 t42.5 -109q19 -48 48 -104q7 -44 45 -107q5 35 5 71q0 5 1 11q0 33 -3 83q-3 58 -3 71v9q0 63 12 226q6 72 14 234q2 37 2 112q0 12 -3 39t-3 48t6 36q16 -3 79.5 -4t86.5 -10q19 -7 23 -19q3 -8 3 -20q0 -7 -1 -15q-6 -41 -6 -129q-7 -86 -27 -516q-4 -71 -9.5 -270.5 t-13.5 -298.5q-1 -13 -1 -40q1 -21 1 -49v-28q0 -43 -4 -61q-4 -27 -38 -37q-26 -8 -54 -7q-9 1 -18 1q-37 4 -56 14q-3 7 -8 22t-8 21q-48 118 -211 623q-5 19 -16 62.5t-18.5 70.5t-21.5 62.5t-30 60.5q5 -2 1.5 -15t-3.5 -14v-61q2 -26 1.5 -53t-1.5 -54 q-1 -43 -7.5 -119.5t-8.5 -105.5l-11 -236q-1 -15 -3.5 -59t-3.5 -66.5t0 -57.5t5 -62q-3 -9 -16 -14.5t-26 -6.5t-30.5 -1.5t-21.5 -0.5q-21 -5 -50.5 -0.5t-37.5 27.5z" />
<glyph unicode="O" horiz-adv-x="851" d="M94 870q2 37 2 70q0 28 -2 54q-1 14 0 28q0 45 6 97q8 68 29 122q43 93 117 156q78 67 213 67h6q98 0 184 -92q7 -7 22.5 -21.5t25.5 -26.5t16 -26q15 -33 37 -127q8 -57 8 -123v-22q0 -56 -2 -122q-2 -56 -2 -96v-28q1 -40 1 -92q0 -106 -3 -264q0 -33 -0.5 -79 t-1.5 -89t-15 -85.5t-41 -66.5q-31 -28 -44 -39t-40.5 -29t-52.5 -24q-55 -13 -104 -13q-41 0 -78 9q-49 9 -72 29q-10 8 -31.5 19.5t-31.5 19.5q-19 14 -35.5 39t-23 38.5t-21.5 49.5q-19 46 -31 106t-14.5 88.5t-8.5 108.5q-3 31 -8 194q-4 118 -4 158v12zM276 738 q1 -44 1.5 -69.5t3.5 -82t4 -72.5q1 -57 2.5 -84t9 -79.5t25.5 -89.5t47 -62q22 -19 63 -27q19 -4 38 -4q21 0 42 4q39 10 51 39q7 19 11 42.5t7.5 55.5t4.5 43q12 62 12 94q0 10 10 78q8 63 8 160q0 83 -6 190v15q0 30 2 86q1 28 2 54q0 40 -4 72q-6 53 -26 99 q-22 57 -97 76q-15 3 -30 3q-58 0 -117 -46q-3 -8 -15.5 -44.5t-19 -60t-10.5 -47.5q-4 -27 -6.5 -57t-4.5 -72t-3 -59q-3 -37 -4 -74q-1 -22 -1 -47v-34z" />
<glyph unicode="P" horiz-adv-x="815" d="M94 44q0 13 3 34.5t3 27.5q0 35 1 104.5t1 104.5q1 22 3.5 168t7.5 222q11 175 11 333q0 37 -1 72q0 30 -2 92t-2 92q0 102 4 131q2 8 8.5 14t18 9.5t19.5 5.5t23 4t17 2q122 10 149 10h14q196 0 273 -108q56 -81 72 -256q3 -30 4 -61q1 -21 0 -43q1 -12 1 -24 q0 -36 -1 -59.5t-3 -66.5t-3 -61q-2 -81 -32.5 -144t-98.5 -86q-80 -26 -141 -26h-13q-12 0 -74 5q-44 4 -73 4q-12 0 -21 -1q-12 -111 -12 -159v-7q3 -26 3 -57t-1.5 -69t-1.5 -58q0 -103 -4 -154q0 -35 -31 -35q-54 4 -82 4q-21 -1 -30 11t-9 25zM254 1300q4 -94 4 -192 v-69q0 -74 -1 -166q-1 -137 -1 -193q19 -9 71 -9q17 0 38 1q85 0 120 18q39 20 64 96q28 82 28 186q0 29 -2 60q-1 10 -6 38.5t-7 47.5t-1 37q0 32 -0.5 45t-9 33.5t-25.5 34.5q-44 38 -130 46q-23 2 -44 2q-57 0 -98 -16z" />
<glyph unicode="Q" horiz-adv-x="903" d="M92 502v9q0 27 3 66q3 45 3 60q3 224 25 405q2 14 8.5 46t7.5 49q5 72 8 88q13 69 84 149q55 62 143 92q59 21 117 21q26 0 52 -4q63 -11 105 -54t79 -112q17 -33 31 -139q12 -102 12 -158v-62.5v-87.5v-87v-62q-1 -41 -5 -88t-10.5 -103t-9.5 -88q-1 -10 -4.5 -41.5 t-5.5 -45.5t-6 -41.5t-8.5 -45t-11.5 -39.5t-15 -41q47 -48 70 -71q2 -2 10 -8.5t11.5 -10t10 -10.5t9 -12.5t3.5 -12.5q1 -4 1 -8v-6q-19 -10 -47.5 -43.5t-48.5 -42.5q-8 -4 -17 -5h-1l-15 4q-9 5 -15 8.5t-14.5 13t-12 13t-12.5 15.5t-10 13q-7 9 -12 12t-8 2.5t-11.5 -5 t-15.5 -7.5q-45 -17 -77 -19q-33 -5 -64 -5q-65 0 -121 24q-70 30 -122 99.5t-66 143.5q-4 28 -10.5 86t-10.5 86q-5 30 -6 60zM258 514v-26q0 -162 47 -248q30 -50 94 -56q11 -1 33.5 -7t33.5 -7q2 -1 4 -1q10 0 28 7q-16 7 -34 36t-28 36q-28 28 -26 41q2 10 6.5 15t12 9 t11.5 9q5 5 18.5 22.5t26.5 29t25 11.5q8 0 24.5 -17.5t30 -34t15.5 -14.5q-1 3 3.5 33.5t10.5 69.5t8 51q12 133 14 197q2 60 2 149t-2 209q0 56 -3 92t-22 83t-54 73q-17 11 -38.5 20t-46.5 12q-5 1 -10 1q-19 0 -32 -11q-35 -26 -60.5 -62t-39 -69t-22.5 -77t-11.5 -72.5 t-5 -69.5t-3.5 -55q-7 -72 -7.5 -203t-2.5 -176z" />
<glyph unicode="R" horiz-adv-x="825" d="M94 430q0 37 -1 75q0 278 10 598q11 364 30 380q8 7 16.5 9.5t22.5 3t21 1.5q58 8 118 8q30 0 60 -2q190 -6 264 -80q38 -35 62 -157t30 -212.5t6 -144.5q0 -64 -8.5 -116t-17.5 -80.5t-29 -56t-26.5 -34.5t-26.5 -24q8 -15 31.5 -51t33.5 -58q16 -30 26.5 -141.5 t10.5 -175.5q0 -14 -0.5 -33.5t0.5 -45.5t0.5 -45.5t-0.5 -31.5q-24 -16 -62 -16q-14 0 -30 2q-13 1 -29 0h-9q-13 0 -27 2q-20 2 -27 8q-4 25 -4.5 52t1 63t1.5 53q1 37 1 70q0 180 -32 256q-36 36 -114 36q-55 0 -130 -18q0 -138 -9.5 -311.5t-33.5 -185.5q-20 0 -26 6 q-1 -1 0 -3t0 -3h-14h-17.5t-17 0.5t-18 3t-14 5.5t-12 8.5t-6.5 12.5q-2 64 -4 373zM258 897q0 -106 8 -201q11 1 54 0h42h40q39 1 82 7t69.5 23.5t28.5 45.5h1q3 0 3 45q0 65 -7 224q-5 119 -10 161q-6 54 -29 79.5t-87 45.5q-53 16 -109 16q-40 0 -80 -8q0 -67 -4 -199 q-3 -116 -3 -212q1 -14 1 -27z" />
<glyph unicode="S" horiz-adv-x="884" d="M111 1140q1 111 45 183q51 83 140 127q74 37 155 37q17 0 34 -2q66 -6 125 -35q32 -19 63 -46t42 -52q3 -8 11.5 -26.5t17 -36t17.5 -39t14 -39t4.5 -33t-7.5 -23.5q-21 -19 -85 -28q-21 -3 -37 -3q-35 0 -52 13q-8 8 -11.5 37.5t-6.5 35.5q-26 49 -52 70 q-21 16 -53 27.5t-57 11.5q-53 -3 -92 -49q-34 -42 -50 -94q-10 -32 -10 -63q0 -19 4 -38q3 -14 9.5 -28t12 -23.5t18 -25t17.5 -21t22 -23t20 -20.5q42 -44 137.5 -125t136.5 -123q136 -136 158 -252q8 -32 8 -67t-8 -74q-8 -59 -19.5 -98.5t-40.5 -75.5q-31 -36 -82 -67.5 t-98 -43.5q-60 -14 -112.5 -14t-98.5 14q-43 13 -90 48t-76 73q-26 37 -46 92q-14 40 -15 71q0 11 2 21t4.5 17.5t8.5 13t9 8.5t13 5t13 2.5t17.5 1.5t18.5 1q14 1 26 1q49 0 72 -13v-8q1 -83 61 -140q41 -39 93 -39q28 0 59 11q48 18 75 52.5t31 75.5q1 13 2 27q0 28 -6 57 q-10 43 -32 83q-70 122 -250 279q-12 10 -42.5 36t-45.5 40t-38 36.5t-39 45.5t-28 48q-36 73 -36 180v6z" />
<glyph unicode="T" d="M96 1380q6 18 0 58q-2 15 -2 26q0 19 6 29l2 7q3 7 6.5 10t10.5 6q22 10 61 6q15 -2 66 -6q42 -4 67 -3h11q26 0 90 3q48 2 80 2h18h24q59 0 115 12h4q7 0 11 -5q6 -7 8 -21q1 -10 1 -20q-1 -2 -1 -6q0 -12 -1 -27t-1 -17q3 -35 -8.5 -50.5t-45.5 -19.5q-20 -3 -60.5 -6 t-61.5 -6q-3 -56 -5.5 -168.5t-5.5 -169.5q-3 -64 -4.5 -181t-3.5 -163q-1 -33 -4 -112.5t-2.5 -112.5t2.5 -113q1 -13 1 -31q0 -26 -2 -62q-3 -60 -3 -79q-2 -26 -2 -79t-2 -79q-32 -3 -50 -3q-3 1 -5 1q-18 0 -54.5 3.5t-52.5 4.5q-3 21 -3 51q0 39 5 93q5 62 5 102 q0 20 -1 35q-1 14 -1 41q0 44 3 123l4 82v4v7v9t0.5 9t0.5 9t0.5 7.5t1 5t1.5 0.5q-1 -1 -2 43.5t-1.5 89t-0.5 55.5v30q0 65 -6 173q-2 48 -2.5 146.5t2.5 246.5q-36 1 -62.5 1t-45.5 -1q-3 0 -19.5 -3t-24.5 -3h-21.5t-23 4t-16.5 12z" />
<glyph unicode="U" horiz-adv-x="911" d="M90 725v45q0 116 8 270q1 35 4 112.5t4 117.5v92q0 7 -3 24.5t-4 29t2.5 25.5t13.5 23q34 6 65 6q47 0 86 -14q2 -27 2 -61q0 -67 -8 -159q-12 -142 -12 -187q-4 -100 -4 -197q0 -118 6 -231q2 -40 9.5 -116.5t8.5 -88.5q0 -4 2 -23t3 -26t3.5 -23.5t4.5 -26t5 -23 t7.5 -24.5t9.5 -22q23 -44 67 -65q38 -18 79 -18q7 1 15 1q50 4 91 27q83 51 92 225q1 32 1 67q0 82 -5 179q-12 364 -20 538q-1 21 -3.5 66.5t-3.5 66.5q-1 10 -5.5 40t-5 44.5t4.5 36.5q23 14 90 19q16 4 25 4h4q4 0 23.5 -10.5t19.5 -12.5q6 -20 9 -43.5t5 -56.5t2 -45 q20 -242 23 -437q3 -83 3 -189v-36q0 -128 -11 -225q-28 -269 -176 -365q-87 -59 -230 -59q-58 0 -122 45.5t-107 104.5q-6 9 -11.5 20.5t-9 20t-7 23.5t-5 21.5t-4.5 24t-4 21.5q-29 157 -37 444z" />
<glyph unicode="V" horiz-adv-x="882" d="M94 1438q0 10 10 45q26 1 76 9q45 8 70 7h6q8 -9 12.5 -48.5t7.5 -89.5t5 -63q3 -17 19.5 -119t27.5 -155q10 -46 26.5 -139.5t26.5 -139.5q6 -26 16 -83t21 -100.5t28 -80.5q7 15 10.5 33t6 42t4.5 34l18 119q3 23 15.5 121t23.5 149q6 32 26.5 124.5t29.5 143.5l20 127 q2 8 6 38.5t10 50t17 34.5q9 -1 23 -1q20 0 54 2q23 2 41 2q22 0 33 -3q3 -21 3 -35q1 -10 -1 -18q-4 -18 -16.5 -52t-15.5 -49q-9 -48 -111.5 -635.5t-105.5 -609.5q-1 -9 -0.5 -49.5t-6.5 -48.5h-7q-15 0 -48 2q-43 4 -53 6q-1 1 -90 391q-15 65 -51 185t-50 176 q-21 86 -79 387q-5 28 -12.5 83.5t-12.5 82.5q-2 14 -9.5 42t-15.5 53q-8 29 -8 30z" />
<glyph unicode="W" horiz-adv-x="1394" d="M92 1446q13 5 55 5q18 0 42 -1q79 -3 116 -8q4 -26 5 -94.5t5 -104.5q3 -24 20 -114.5t38.5 -201t43 -217.5t35.5 -177.5t13 -67.5q16 16 40.5 147.5t47.5 288.5t27 176q2 10 9 57.5t15 85.5t17 48q15 14 50 14q11 0 23 -2q52 -6 70 -23q22 -23 89.5 -403.5t88.5 -413.5 q9 7 83 529.5t81 527.5q25 -4 51 0q17 3 42 3q12 0 27 -1q43 -2 77 -16q-2 0 -65 -360.5t-127 -723.5t-67 -368q-14 -25 -78 -31q-19 -2 -35 -1q-37 0 -54 9q-7 12 -47 216t-78.5 401.5t-42.5 199.5q-8 -10 -19.5 -65t-23.5 -125t-15 -86q-17 -80 -54.5 -284.5t-37.5 -219.5 q-3 -25 -35 -35q-14 -3 -53 -3t-51 3q-22 9 -103.5 313t-111.5 445q-17 82 -65 373.5t-48 304.5z" />
<glyph unicode="X" horiz-adv-x="890" d="M94 1468q30 12 47 18q12 4 28 3q7 -1 15 -1q26 -2 37 -24q12 -26 51 -151q15 -46 64 -177t70 -204q11 -38 18 -45q3 -3 6.5 0t7 11t5 12t3.5 10q7 15 83.5 242t109.5 298q22 11 64 11q38 0 92 -9q1 -19 1 -26v-6q-1 -4 -12 -27q-12 -31 -112 -317t-129 -375 q-1 -3 -11 -22.5t-14 -33.5t0 -24q1 -6 111 -303t108 -316q-16 -11 -45 -11q-8 0 -18 1q-10 0 -28 -1.5t-33 -1.5t-29 3q-16 35 -81 211t-73 197q-11 -11 -73 -188.5t-85 -213.5q-5 -5 -47 -4.5t-49 0.5q-12 0 -24 -1t-20.5 6t-6.5 22q2 18 16 50t15 36q3 8 50 128 q46 119 90 237q52 139 52 150q0 23 -126 415q-130 404 -128 421z" />
<glyph unicode="Y" horiz-adv-x="862" d="M94 1448q0 14 38 27q41 14 79.5 15t52.5 -13q13 -46 91.5 -294t86.5 -253q11 16 92.5 266.5t81.5 278.5q9 16 30 17h7q17 0 31 -5q4 0 41 1t39 -5q4 -2 4 -12.5t-4 -30.5q-9 -39 -25.5 -87.5t-17.5 -54.5q-5 -21 -53.5 -184t-91 -312t-44.5 -171q0 -1 0.5 -38t1 -88 t0.5 -115.5v-126.5t-1 -115.5t-3.5 -88.5t-5.5 -39q-4 -5 -13.5 -5.5t-21 1t-16.5 0.5q-3 0 -25 -4q-18 -4 -29 -4h-5q-7 8 -8 68v41q0 43 1 93.5t1 74.5v18q-7 180 -17 315q-9 64 -37 125q-15 32 -75.5 196t-85.5 239q-7 26 -25.5 73.5t-22.5 57.5q-4 11 -12 33.5t-12 33.5 q-3 11 -13 34q-14 30 -14 38z" />
<glyph unicode="Z" horiz-adv-x="858" d="M94 37q5 48 56 156q16 40 90.5 272.5t159 473t137.5 339.5q-50 6 -86 6h-21q-42 -2 -111.5 -9t-107.5 -7q-37 0 -50 7.5t-20 37.5q-5 16 -1.5 53.5t16.5 46.5q23 16 259 25q69 3 125 3q136 0 195 -16h2q0 -2 2 -2l6 -2q1 -3 3.5 -7.5t4 -8t3.5 -6.5q-26 -115 -109 -314 q-23 -56 -56 -163t-48 -148q-2 -6 -59.5 -151.5t-111.5 -289t-67 -192.5q38 -9 101 -9q36 0 81 3h24q23 -1 67 -1h36q42 0 56 3q34 4 54 4q14 0 20 -2q21 -7 21 -33q0 -5 -1 -12q-2 -21 0 -39q1 -4 0 -8q0 -13 -6 -25q-8 -14 -33 -18q-55 -10 -184 -12q-74 -1 -146 -1 q-55 1 -109 1q-76 1 -113 0h-34q-27 -2 -37 8q-9 9 -8 29v8z" />
<glyph unicode="[" horiz-adv-x="671" d="M92.5 1541.5q0.5 19.5 9.5 29.5q4 4 25 5.5t52.5 1.5t71 -1.5t79.5 -3t79 -4t68.5 -4.5t48.5 -3l19 -1q6 -18 7.5 -54.5t6.5 -52.5q9 -45 -22 -47q-8 -5 -63.5 -1.5t-61.5 3.5q-94 -4 -136 -4q14 -29 21 -556t2 -699q46 -9 121 -9q8 0 29 2.5t34 3t30.5 -1.5t29.5 -8 q29 -14 34.5 -65t-22.5 -66q-67 9 -164 5t-185.5 0.5t-90.5 25.5q-4 18 -2.5 84t0.5 84q-13 320 -13 1259q0 8 -4 33t-3.5 44.5z" />
<glyph unicode="\" horiz-adv-x="921" d="M93 1210q-2 12 1.5 20t11.5 15q12 0 33.5 9t32.5 10q12 2 26 2t31 6q7 -2 20 -23t27 -50.5t28.5 -64.5t26 -64t19.5 -50l8 -21l112 -278q111 -278 228.5 -578t130.5 -346q-57 -2 -157 8q-34 64 -290 679.5t-267 656.5q-3 7 -9 23.5t-8.5 25t-4.5 20.5z" />
<glyph unicode="]" horiz-adv-x="679" d="M92 1460q0 97 29 103q35 3 86 1.5t130 -5t99 -3.5q2 0 28 2.5t39.5 2t34.5 -2.5t32 -10t12 -22q3 -32 4.5 -371.5t-2.5 -404.5q-4 -45 -2 -128.5t0.5 -189t-5 -198.5t-18 -158t-39.5 -68q-27 -4 -79 -1.5t-79 -0.5q-14 -2 -29 -2.5t-26.5 -1t-30 0.5t-26 1.5t-29 3t-26 3 t-29.5 4t-27 3.5q-9 19 -9 69.5t22 55.5q40 7 63 6.5t66.5 -4.5t64.5 -4q9 1 18.5 0t18.5 -0.5t16 2t11.5 7.5t5.5 16q3 1 1.5 54t-1.5 54q0 11 12.5 256t7.5 314q-1 11 -5.5 247t-6.5 257q0 7 -1 21.5t-1 21.5q-1 11 -3 16.5t-6 6.5t-8 0.5t-12 -2t-16 -1.5q-17 0 -94 -2 t-125.5 -1t-55.5 7q-10 12 -10 45z" />
<glyph unicode="^" horiz-adv-x="765" d="M92 1354q244 185 283 205q11 3 37 -15.5t54.5 -44.5t33.5 -29q36 -24 140 -100l32 -22q-4 -11 -28 -50t-40 -55q-7 -6 -54.5 27t-101.5 74.5t-63 46.5q-9 4 -24 -2.5t-26.5 -16.5t-26.5 -24t-19 -17q-26 -22 -115 -88q-12 -8 -29 16t-33.5 58t-19.5 37z" />
<glyph unicode="_" horiz-adv-x="1101" d="M93 21q0 22 7 36q5 10 20 14t28.5 3t25.5 0q102 8 307 12q32 1 104 4t104 3t104 -3q14 -1 66 -3.5t92.5 -5.5t45.5 -7q1 -10 6 -46t5 -50t-2 -52q-23 -11 -406 -14.5t-424 0.5q-44 0 -67 8q-6 2 -8 4.5t-1 4t2 3.5q2 2 -2 2q0 10 -3.5 37.5t-3.5 49.5z" />
<glyph unicode="`" horiz-adv-x="344" d="M96 1447q-6 13 0 21q23 27 105 33q12 0 20 -9.5t12.5 -25t6.5 -29.5t3.5 -30.5t2.5 -20.5q1 -7 3.5 -25.5t2.5 -25.5t-2 -24q-6 -28 -29.5 -29.5t-38.5 18.5q-13 18 -30.5 54t-22.5 45q-1 3 -14 19t-19 29z" />
<glyph unicode="a" horiz-adv-x="757" d="M86 432q7 99 49 177t125 112q58 25 109 25q17 0 32 -3q2 0 23.5 -5t41 -9.5t19.5 -3.5q17 29 17 67q0 20 -5 42q-14 64 -65 86q-29 8 -44 5t-26 -22t-16 -37.5t-13.5 -41t-19.5 -33.5q-27 -3 -48 -3q-55 0 -72 19q-5 22 -5 44q0 35 13 71q22 58 65 100t102 63 q35 13 69 13q22 0 44 -6q124 -34 154 -185q22 -112 22 -197q0 -56 -10 -100q2 0 2 2q1 -31 1 -52v-18q0 -24 -3 -71t-4 -70v-233q0 -6 1.5 -30.5t1.5 -42t-3.5 -38.5t-14 -32.5t-28.5 -10.5q-9 0 -41 -10q-20 -6 -33 -6q-8 0 -14 2q-7 3 -11.5 9t-6 9.5t-4 16t-3.5 16.5 q-9 -7 -25 -17q-16 -8 -55 -22q-30 -10 -54 -11q-7 0 -13 1q-38 6 -76.5 27.5t-64.5 50.5q-24 24 -56 65q-8 12 -14 28.5t-11.5 37t-8.5 29.5q-23 91 -23 173v19zM254 395q-1 -16 0 -31q0 -111 38 -167q25 -36 60 -37q18 0 39 10q55 24 81 85.5t26 133.5q0 35 -2 61t-9.5 61 t-26 59.5t-46.5 35.5q-60 0 -101 -26q-2 0 -2 -2h-2l-4 -5q0 -1 -1 -2t-1 -2l-4 -4q-39 -50 -45 -170zM299 565q2 1 5 4t5.5 6.5t3.5 4.5l-2 -2h-2l-4 -5z" />
<glyph unicode="b" horiz-adv-x="737" d="M94 635q-2 67 -2 131q0 155 12 293q13 137 13 188q1 17 -3 53q-3 32 -4 58v8q0 28 9 53q19 15 55 19q10 1 19 0q24 0 40 -6q34 -12 34 -88q0 -35 -7 -82q-2 -10 -2 -63v-100.5t-2 -47.5q59 12 114 11h13q61 -2 118 -32t89 -88q54 -93 54 -253q0 -38 -3 -81 q-5 -69 -20 -178q-2 -16 -7.5 -72.5t-12 -93t-17.5 -69.5q-16 -51 -47 -84q-28 -28 -48 -39q-3 -3 -14 -7.5t-16 -11.5l-36 -4.5t-41 -4t-36 -0.5t-41 4.5t-35 12.5q-1 -6 0.5 -17t1 -20t-5.5 -14q-6 -1 -31.5 -4.5t-40.5 -5.5q-8 -1 -16.5 -0.5t-18.5 0.5q-20 2 -32 8 q-5 3 -7.5 7t-3.5 9.5t-1.5 9.5t0 11.5t0.5 9.5l-4 119q-15 387 -17 461zM236 801v-20q0 -19 2 -36q2 -47 2 -139q1 -42 5 -125t5 -125q4 -73 18 -98q16 -26 33 -35t49 -14q12 -2 22 -2q73 0 91 90q15 86 18 256.5t4 185.5v30q-1 20 -1 35q-2 25 -16.5 56.5t-43.5 46.5 q-27 14 -56 14q-20 -1 -40 -7q-50 -16 -78 -60q-12 -22 -14 -53z" />
<glyph unicode="c" horiz-adv-x="698" d="M92 552.5q0 45.5 2 81.5t6 71q7 59 24 114.5t45.5 110.5t76.5 91t108 42q13 2 26 2q52 0 109 -25q27 -13 48.5 -24.5t45.5 -35.5q21 -21 21 -39q0 -17 -19 -39q-16 -18 -40.5 -37t-30.5 -25q-10 -10 -29 1.5t-40 31t-29 22.5q-20 12 -38 8.5t-32.5 -10t-27 -24.5t-22 -35 t-18 -42.5t-14 -45t-10.5 -44t-7.5 -39.5t-4.5 -30q-2 -11 -7 -46t-7 -50.5l-6 -46.5t-4 -50.5t-0.5 -46t2.5 -49.5t9 -45q25 -103 99 -139q24 -11 45 -11q51 0 90 62q13 21 31 21t31 -10t30 -29q28 -31 28 -61q0 -33 -34 -66q-61 -56 -149 -64l-30 -2q-70 0 -130 33 q-79 42 -109.5 118.5t-32.5 180.5q0 12 -2.5 71t-3 81.5t-0.5 68z" />
<glyph unicode="d" horiz-adv-x="710" d="M66 467q0 170 6 227q5 55 7.5 80.5t14 70.5t29.5 73q57 92 141 116q23 7 51 7t45.5 -3.5t52.5 -12t48 -11.5q-1 29 -1 74q0 55 2 134q1 65 1 117q0 63 -2 107q6 1 16 6t17 6q17 0 41 4q26 4 48.5 4t41.5 -4q8 -11 7 -34t1 -37q2 -15 2 -279q-5 -352 -8 -397 q-10 -169 -10 -301q0 -47 1 -90q7 -118 7 -218q0 -50 -2 -96q-87 -6 -88 -6q-5 0 -23 -2q-12 -1 -22 -1h-9q-13 1 -20 7q0 1 -3 7t-5.5 14t-1.5 16q-5 0 -10.5 -3t-11.5 -8t-9 -7q-14 -9 -43 -9q-38 0 -92 15q-87 28 -111 63q-104 140 -108 371zM209 416q5 -151 61 -201 q46 -40 87 -40q34 0 65 28q14 11 29 30q4 4 5.5 10t1 11t-2.5 13t-2 12q-2 37 -2 110q1 19 5 105q3 68 3 113v20q0 21 -2 62t-2 61q0 23 4 63q-11 17 -35 25q-28 15 -44 22q-16 6 -37 10q-6 1 -11 1q-15 -1 -28 -7q-18 -10 -36 -30q-15 -18 -25 -46.5t-13.5 -45.5t-7.5 -59 t-5 -48q-8 -108 -8 -188v-31z" />
<glyph unicode="e" horiz-adv-x="776" d="M92 582q0 65 9 128.5t32 130.5t58.5 117.5t93 82.5t129.5 32q42 0 76 -11.5t56.5 -27.5t40 -45.5t26.5 -51t16.5 -60.5t9.5 -58.5l6 -58.5q10 -92 10 -170q0 -37 -2 -55q0 -17 -106 -17h-47q-29 -2 -96.5 -11t-102.5 -9h-18q-25 0 -25 -11q0 -1 -0.5 -24t-0.5 -42 t2 -50.5t6 -56.5t13.5 -53t23 -47t35 -31.5t48.5 -12.5t48 9.5t32.5 21t21.5 34t13 36.5t8.5 42t7.5 37h19q40 0 92.5 -24.5t52.5 -53.5q0 -80 -46 -144t-114.5 -96t-142.5 -32q-55 0 -99 22.5t-73 58.5t-51 88t-33.5 102t-18 111.5t-8.5 106t-2 93.5zM262 672q41 -8 100 -8 q62 0 152 12q4 20 4 31q0 23 -12 73q-27 131 -96 131q-34 0 -61 -18t-41.5 -42t-25 -61.5t-14 -61t-6.5 -56.5z" />
<glyph unicode="f" horiz-adv-x="788" d="M100 918q-8 15 -8 42q0 36 14 91q9 1 62 2.5t72 3.5q4 241 135 344q88 66 172 66q18 0 37 -3q23 -2 53 -13.5t49 -33.5q11 -12 11 -24q0 -11 -7 -21q-52 -75 -84 -92q-7 -4 -15.5 3.5t-17 18.5t-12.5 13q-15 5 -32 5q-23 0 -50 -9q-25 -11 -42.5 -31.5t-27 -51t-14 -54.5 t-9.5 -61.5t-7 -51.5q15 -4 53.5 -6t71 -3.5t35.5 -4.5q7 -31 7 -71t-11 -63q-6 -12 -37 -14q-11 -1 -23 -1q-23 0 -52 3q-43 4 -46 4q-2 -23 -2 -47q0 -28 3 -58q4 -56 13 -124t12 -105q7 -91 7 -231q0 -45 18 -156q12 -80 12 -132q0 -21 -2 -38q-89 -14 -131 -14 q-32 0 -37 8q-4 9 -6 19t-2.5 23.5t-0.5 20.5t1.5 24t1.5 20v28v44q-2 37 -5.5 87.5t-4.5 73.5q-8 189 -14 273q-2 25 -2 65q0 34 2 78v68q0 48 -2 75q-14 -2 -31 -2q-46 0 -107 13z" />
<glyph unicode="g" horiz-adv-x="741" d="M94 668q0 46 6 86q9 50 16.5 81.5t24.5 74t41 71.5q67 80 166 86h6q36 0 95 -20q6 -3 20.5 -11.5t27 -14t23.5 -3.5q5 11 0 24t-4.5 26t14.5 17q18 7 50 6.5t53 0.5q6 -6 9 -14.5t3.5 -13.5t0 -16t-0.5 -14q-1 -15 -1 -48t-1 -48q-1 -32 -5 -93.5t-5 -92.5 q-4 -61 -4 -152.5t4 -214.5q1 -35 6 -103t7 -114q1 -22 1 -48t-1 -56q-2 -59 -15 -110t-37 -95q-35 -64 -94 -104.5t-127 -41.5h-10q-21 0 -47 3q-34 4 -72.5 14.5t-51 30.5t4.5 51q9 12 20 24t25 26.5t22 22.5q10 12 23 12.5t23.5 -5.5t25.5 -16.5t22 -14.5q13 -8 27 -8 q37 0 78 59q31 43 31 99q0 22 -5 46q1 -4 -8 -8.5t-24.5 -7t-29.5 -5t-28 -4t-16 -1.5h-16q-102 0 -168 71q-62 67 -81.5 160t-19.5 213q0 29 -2 88q-3 49 -3 89q0 8 1 16zM231 473q8 -146 37 -211q25 -50 76 -71q20 -8 40 -8q29 0 58 18q10 8 17.5 18t12 23.5t7.5 24 t4.5 27.5t2 25.5t1 27.5t0.5 24q1 41 6 144.5t5 158.5q-1 20 0 44v15q0 16 -1 33q-2 24 -4.5 47.5t-11.5 43t-22 34t-35 21.5q-15 4 -33 4q-9 0 -18 -1q-86 -7 -117 -143q-27 -131 -27 -245q0 -27 2 -54z" />
<glyph unicode="h" horiz-adv-x="727" d="M96 737q1 46 3 138.5t3 138.5q1 45 2 133.5t3.5 159t7.5 133.5q10 1 35 5.5t39 6.5q7 1 16 0.5t19 -0.5q21 -2 38 -8q2 -6 2 -83t1.5 -180t4.5 -157h50h36q30 -1 74.5 -13t75.5 -38q48 -40 80 -117q20 -47 31 -112t13 -107.5t3 -118.5q1 -61 1 -117q0 -139 -7 -243 q-3 -48 -9 -95q0 -20 -12 -38q-10 -22 -57 -25h-15q-35 0 -49 12q-9 19 -11 47q-1 12 -1 27q-1 18 1 40q2 40 3 48v287q0 16 0.5 55t0.5 60.5t-1.5 53.5t-5.5 58q-7 94 -63 156q-25 31 -69 38q-9 1 -17 1q-33 0 -56 -23q0 -86 -2 -182.5t-5.5 -214.5t-4.5 -182 q0 -69 -4 -205q0 -37 -4 -45q-15 -22 -37 -25t-56.5 5t-46.5 9q-12 289 -12 521q0 104 2 196z" />
<glyph unicode="i" horiz-adv-x="380" d="M108 74q-1 12 -1 26q-1 22 1 50q2 44 3 57q0 225 2 336q4 186 4 247v19l-6 139q0 10 -1.5 34.5t-1 43t4.5 33.5q5 0 27 3.5t44 6t46 4t39.5 -1.5t17.5 -12q3 -14 3.5 -32.5t0 -31t-2 -35t-1.5 -30.5q-1 -61 -9.5 -178t-9.5 -134q-4 -82 -4 -235v-188q-1 -24 -1 -46 q0 -37 3 -69q5 -13 4.5 -40.5t-20.5 -31.5h-76q-9 0 -28.5 6t-22.5 6q-2 0 -3.5 -1t-2.5 -1q-7 24 -9 56zM108 1242q20 56 72 66q11 2 21 3q41 0 78 -33l2 -2l4 -4q12 -32 12 -37q0 -2 -1 -1t-3 5q1 -7 1 -15q0 -54 -49 -86q-28 -18 -55 -18t-53 17q-35 36 -35 74q0 15 6 31 z" />
<glyph unicode="j" horiz-adv-x="339" d="M-184 -193q-3 4 -3 9q0 16 25 45q2 3 16 27t29 28q12 0 31.5 -8.5t30.5 -9.5q9 -1 18 -1q29 0 51 15q30 19 46 56.5t26 87t11.5 102t2.5 102.5q1 19 1 36q0 29 -1 53q-3 39 0 61q0 436 11 690q51 11 100 11q11 0 22 -1q21 -1 31 -16t10 -34l-1 -40q-1 -5 -1 -8 q-2 -93 -2 -299t-2 -330.5t-16 -265.5t-41 -211q-34 -70 -114 -125q-72 -50 -138 -50q-7 0 -14 1q-38 5 -74 24.5t-55 50.5zM110 1273q2 40 31 58q20 11 40 11q24 0 49 -14q37 -21 37 -54q0 -10 -3 -21q-3 -36 -28 -55q-24 -22 -51 -22h-6q-31 3 -52 32q-18 22 -18 56 q0 5 1 9z" />
<glyph unicode="k" horiz-adv-x="802" d="M94 100q2 38 2 41q-1 27 -1 63q0 72 3 177q1 63 2 188t2 187v438q0 123 -2 182l-2 45q-1 8 4.5 13t16 6.5t22.5 2.5h10q7 -1 17 -1q16 -2 26 -2.5t22 -2t13 -1.5q5 0 16 -1t17 -1q-7 -184 -10 -454q0 -60 1 -110q0 -173 5 -217q20 15 37 37.5t35 53.5t28 44 q66 93 103 140q53 69 74 94q5 6 17 8t22.5 1.5t19.5 0.5q30 2 55 2q36 0 58 -4q4 -11 4 -22t-4 -22t-8 -19.5t-12.5 -19.5t-14 -17t-15.5 -17.5t-14 -15.5q-41 -46 -100 -119q-60 -68 -90 -106q-1 -2 -6.5 -10.5t-4.5 -9.5t2 -11l23 -53l104 -262q32 -83 62 -142l43 -102 q1 -3 7 -14.5t8 -17.5t4 -15.5t-1.5 -16.5t-11.5 -12q-12 -1 -37 0t-37 0q-7 0 -22 -4q-10 -2 -19 -2h-6q-10 2 -16 12q-28 51 -60 144q-70 182 -155 342q-46 -31 -72 -78q-4 -8 -5.5 -21.5t-0.5 -24t3.5 -27t2.5 -21.5q6 -75 6 -303q-12 -18 -36 -22q-13 -2 -31 -2 q-15 -1 -33 1q-39 4 -58 2q-10 15 -12 38q-1 13 -1 30q0 13 1 30z" />
<glyph unicode="l" horiz-adv-x="372" d="M92 54q-1 14 -1 24q0 23 3 37q4 69 8 207q1 45 1 121v83v82q0 75 1 119l9 100q0 10 -1.5 27t-1.5 30.5t3 26.5q5 7 0.5 41t-4.5 43q0 64 2 97q0 58 4 172q2 22 2 40q0 27 -4 44q-2 19 2 54.5t4 47.5q23 7 71 11t64 7q13 -16 19 -70q4 -36 4 -66q0 -15 -1 -29 q-1 -34 -8.5 -99t-9.5 -92q-3 -1 -3 -44q0 -21 1 -53q2 -96 2 -97q-3 -75 -3 -126q0 -25 1 -44q1 -20 1.5 -87t2.5 -102v-10q0 -31 -5 -85t-5 -84v-9q1 -18 -0.5 -50t-1.5 -42q0 -15 4 -46t4 -47q0 -67 -2 -100q0 -55 -10 -72q-79 -7 -131 -14q-19 14 -21 54z" />
<glyph unicode="m" horiz-adv-x="1189" d="M94 1028q2 24 15 29q1 3 26 0.5t27 -2.5q24 2 40 2.5t25 -2.5q8 -8 8.5 -32t2.5 -32q13 6 34 22.5t35 22.5q61 23 117 23q57 0 111 -41q7 -6 21.5 -17.5t21.5 -17.5q0 -1 4.5 -8.5t8 -12t7.5 -4.5q11 5 25 22t20 21q44 35 84 48q38 16 76 16q44 0 90 -21q58 -25 70 -36 q11 -12 45 -68q37 -57 51 -147q4 -28 7 -60.5t6 -72t5 -60.5q7 -43 14 -181t7 -190l-2 -110v-31.5t-2.5 -39t-8.5 -28.5q-22 1 -62.5 -6.5t-59.5 -7.5q-25 -1 -34 9.5t-16 39.5q-11 57 -11 137v23q0 66 3 117q2 57 2 106q0 106 -10 178q-1 10 -2.5 41t-4.5 51.5t-9 39.5 q-2 7 -6.5 25t-7 26t-7.5 22t-10 25t-12 22q-16 26 -51 32q-6 1 -12 0q-27 0 -46 -21q-16 -22 -48.5 -76t-35.5 -70q-5 -37 -5 -84q0 -20 1 -43q3 -72 14 -271t13 -308l-166 -9q1 26 2.5 64t3.5 137q1 33 1 58q0 50 -3 69q-11 104 -11 230q0 29 1 59q0 3 0.5 34t0 42 t-2.5 38.5t-6.5 42.5t-12.5 34t-20 32q-36 43 -87 43q-8 -1 -14 -1q-60 -6 -90 -62q-16 -31 -16 -117v-143q1 -49 9 -146.5t9 -146.5q0 -43 4 -129q0 -8 3.5 -44t3 -60.5t-6.5 -43.5q-42 -8 -87 -8q-24 0 -50 2q-11 10 -14 32t-0.5 57t2.5 36l-4 158q-3 159 -15 315 q-5 99 -5 223q0 53 1 111q0 2 -3 36q-2 19 -2 34q0 13 1 24z" />
<glyph unicode="n" horiz-adv-x="743" d="M92 137q1 24 4 67t4 62q4 39 9 236q1 88 10 264t10 264q9 12 27 18t42 9.5t31 5.5q10 3 19 3q20 0 30 -16q14 -22 13 -57q63 37 129 37q1 0 1 1q65 0 124 -42q50 -39 59 -108q3 -17 10.5 -51.5t12 -62t6.5 -52.5q4 -65 8 -187.5t6 -169.5q3 -40 3 -78q0 -51 -5 -98 q-3 -22 -3 -78.5t-5 -85.5q-6 -3 -15 -3.5t-15 0t-17 2t-15 1.5q-8 2 -28 2t-29 3q-8 3 -12 9t-5 14.5t-0.5 14.5t2 16.5t1.5 14.5q6 119 6 121q6 81 10 238q0 172 -12 239q-1 10 -3 39t-5 47.5t-10 41t-21 37t-35 19.5q-15 5 -29 5t-26 -4.5t-21.5 -10.5t-20 -17t-17 -19 t-17 -21.5t-16.5 -20.5q-4 -5 -7.5 -11.5t-6 -11.5t-4 -14t-2.5 -14t-2 -15.5t-1.5 -14t-1 -15.5t-0.5 -14l-10 -131q-1 -27 -7 -118t-7 -142q0 -21 0.5 -69t0.5 -75t-2 -67t-6 -74q-24 2 -46 0q-9 -1 -19 0q-13 0 -27 1q-24 2 -39 11q-6 30 -8 66q-1 21 0 38v21z" />
<glyph unicode="o" horiz-adv-x="792" d="M109 289q-15 116 -15 216q0 256 99 410q45 66 115 88q31 10 62 9q40 0 81 -15q67 -24 109.5 -66.5t70.5 -109.5q52 -118 63 -297q5 -69 5 -115q0 -23 -1 -40q-1 -13 -7 -35t-7 -27q-3 -9 -4.5 -29t-9.5 -30q-24 -99 -74 -166q-23 -33 -57 -55q-4 -1 -19 -7.5t-22.5 -9 t-10.5 3.5q-19 -14 -55 -14q-2 0 -4 -1q-34 0 -53 9l-53 8q-8 1 -15.5 4t-17 8.5t-15.5 8.5q-144 61 -165 252zM233 479q4 -23 5 -64.5t4 -60.5q16 -143 61 -184q29 -24 81 -32q12 -2 24 -3q36 0 59 19q14 12 23 29.5t13.5 46t6 41.5t2 49.5t0.5 37.5q2 78 2 138t-2 100 q-10 94 -16 119q-3 10 -8 43.5t-15 52.5q-1 1 -5 9t-5 9.5t-5 8t-6 8t-6 6.5t-7 6.5l-8 4t-10 3.5t-11 2q-8 1 -16 1q-38 0 -70 -31q-33 -33 -48 -97q-29 -113 -30 -120q-15 -64 -15 -111q0 -17 2 -31z" />
<glyph unicode="p" horiz-adv-x="780" d="M93 43.5q0 103.5 1 163t4 187t4 167.5q0 58 1.5 128t7.5 188.5t21 195.5t38 78h72q18 0 39 -12q2 -8 3 -24t3 -23q79 20 134 20q35 0 60 -8q79 -26 133 -111q51 -87 63 -192q8 -66 8 -145q0 -45 -3 -95q-1 -11 -1.5 -99t-8.5 -134q-25 -117 -80 -185q-42 -52 -102 -83 q-55 -29 -114 -29h-11q-20 1 -53 14t-48 16q-4 -251 -10 -378q-44 -4 -80 -4t-65 4q-8 85 -12 171t-4 189.5zM258 340q0 -13 3.5 -35.5t10.5 -38.5q65 -69 125 -69q21 0 41 8q64 45 84 166q17 107 17 232q0 78 -7 163q-6 77 -59 154q-26 40 -68 40q-28 0 -63 -18 q-19 -10 -32 -25t-20.5 -36.5t-10.5 -37t-7 -42.5q-8 -57 -10.5 -120t-2.5 -141.5t-1 -117.5v-38q-1 -15 -1 -26.5t1 -17.5z" />
<glyph unicode="q" horiz-adv-x="831" d="M92 457q0 293 74 454q39 91 137 123q25 8 51 8q72 0 158 -55q-2 11 -4 36.5t-2 29.5q34 17 84 17q1 1 3 1q47 0 79 -12q7 -44 7 -93t-3.5 -109t-3.5 -93v-324q-1 -49 -6.5 -146.5t-6.5 -146.5v-28q0 -54 5 -129q1 -12 2.5 -38t3 -42t4.5 -38t8 -40q10 -3 18 -1t16.5 0.5 t12.5 -9.5q6 -21 10 -64q0 -75 -22 -75q-16 8 -37 8q-58 0 -98 37q-53 46 -75 126q-17 61 -17 121q0 20 2 39q-70 -20 -109 -20q-15 1 -40.5 6.5t-37.5 7.5q-17 3 -63.5 40.5t-48.5 45.5q-13 13 -41 57t-33 68q-27 117 -27 238zM254 561q-3 -53 -3 -100q0 -125 23 -209 q18 -74 74 -88q17 -5 32 -6h3q13 0 23 4q12 5 22 10t17.5 14t13 15.5t10 15.5t5.5 11.5l3 7.5q7 21 11 290q2 115 2 183q0 91 -3 98q-21 32 -48 55q-26 23 -59 23l-1 -1q-33 0 -55 -40q-6 -12 -11.5 -27t-8.5 -26t-8 -30t-7 -28q-29 -113 -35 -172z" />
<glyph unicode="r" horiz-adv-x="653" d="M93 1099q-1 5 1 11q2 8 6 16q7 6 16.5 8.5t17 2.5t20 -1t18.5 -1q8 0 24 2.5t29.5 2.5t24.5 -5q2 -39 6 -68q14 2 39.5 16.5t40.5 16.5q37 10 78 9q17 0 35 -1q28 -4 52 -16.5t45.5 -34.5t34.5 -38.5t33 -45.5q9 -14 9 -27q0 -21 -23 -41q-3 -2 -11 -10t-13 -12.5 t-14.5 -12t-15.5 -10t-15.5 -5.5t-14.5 1q-12 5 -32.5 27t-34.5 28q-40 19 -80 19h-11q-39 -8 -63 -48t-29 -85q-9 -66 -9 -247q0 -109 3 -259q1 -18 1 -45q0 -80 -7 -238q-14 -6 -61 -6q-6 1 -38 -1q-9 -1 -16 -1q-17 0 -20 4q-14 4 -17.5 22.5t-0.5 51t3 33.5q0 40 4 149 q3 75 4 127q0 23 -1 41q-2 60 -2 152t2 215q0 46 -9 174q-1 16 -2 48t-2 48q0 5 -2 15q-3 14 -3 19z" />
<glyph unicode="s" horiz-adv-x="757" d="M90 158q1 8 27 34.5t59 45.5t49 6q20 -17 35 -29t40 -28t44 -24t41.5 -11t39 5.5t31 31t21.5 59.5q3 16 3 31q0 35 -14 68q-20 48 -61 87.5t-84 73.5t-90 71.5t-69 65.5q-53 65 -53 174q0 49 23.5 105t60.5 90q56 50 131 66q36 8 67 8q32 0 58 -9q37 -9 69 -23.5 t51.5 -29t33.5 -28t19.5 -22.5t4.5 -11q-21 -31 -67 -69q-35 -30 -50 -30q-4 0 -6 2q-20 22 -51 36.5t-62 17.5t-57.5 -13t-36.5 -51q-6 -23 -6 -44.5t4.5 -39t16 -36.5t21.5 -31.5t29.5 -30t31.5 -27.5t34.5 -27t32.5 -26q77 -63 127 -125t67 -135q6 -24 6 -53 q-1 -30 -7 -64q-12 -67 -42 -108q-16 -25 -32.5 -41.5t-57.5 -40.5q-55 -31 -134.5 -31t-123.5 20q-60 23 -104 58q-18 10 -46 40q-24 26 -24 38v4z" />
<glyph unicode="t" horiz-adv-x="688" d="M94 1003q0 13 6 25q66 4 93 4q5 19 5.5 41.5t-1 48.5t-0.5 41q2 22 1 59t1 54q15 10 41 12q13 1 30 2q16 0 38 -2q42 -2 52 -2q13 -164 18 -250q28 -7 86 -8.5t83 -7.5q1 -2 4 -14.5t4.5 -18t3.5 -17.5t2 -19t-1.5 -16.5t-5.5 -16t-11 -11.5q-6 -5 -16 -7t-17.5 -2 t-20 0.5t-16.5 0.5q-8 0 -24 0.5t-25.5 0.5t-23 -1t-25.5 -4q-5 -59 -5 -125q0 -13 -1 -26q0 -56 2 -124q2 -85 2 -126v-10q0 -50 8 -181q8 -147 57 -151q10 0 25.5 11t25.5 11q13 0 60 -32t47 -42q0 -26 -29 -55q-22 -27 -64 -39q-26 -7 -50 -7q-14 0 -27 3q-17 3 -33 8.5 t-39 16.5t-30 14q-26 13 -44.5 39.5t-27.5 55.5t-14 69t-6 70t-1.5 70t-1.5 58q-3 55 -4 151t-4.5 176.5t-13.5 150.5q-37 11 -70 11q-11 0 -22 -1q-10 5 -13.5 14.5t-2.5 24t1 18.5q0 10 -3 26t-3 29z" />
<glyph unicode="u" horiz-adv-x="856" d="M90 752q0 136 2 182q0 102 6 137q29 12 77 12h7q54 -1 88 -12q5 -3 5.5 -23t-1.5 -26q-2 -16 -14 -271.5t-12 -287.5q0 -11 -1 -56v-17q0 -33 3 -56q4 -28 16 -55q14 -32 25 -48q11 -11 37 -21t72 -14q6 0 13 -1q40 0 81 20q32 17 47 59q21 55 24 136q3 86 3 104v8 q0 24 -2 98q-2 88 -3 105q-4 188 -20 309q-3 46 55 49q11 0 35 3t31 4q64 0 71 -3q5 -3 5 -59v-28q0 -42 -2 -88q-1 -26 0 -48q0 -30 1 -55v-19q0 -59 -4 -245v-14q0 -89 11 -243q12 -166 14 -235q-4 -1 -5 -2.5t-2 -4.5t-3 -5q-12 -9 -31.5 -12t-36.5 -2t-35 0 q-15 -1 -25 4t-13 9t-9 18.5t-8 19.5q1 -3 -11 -15t-16 -14q-26 -22 -45 -29q-9 -4 -21 -7t-28.5 -5.5t-21.5 -3.5q-26 -7 -54 -7q-9 0 -18 1q-69 6 -131 43q-43 21 -84 80q-9 12 -16.5 28.5t-10 24t-10.5 32.5t-8 27q-16 43 -22 213q-6 157 -6 285q1 11 1 21z" />
<glyph unicode="v" horiz-adv-x="681" d="M94 1077q62 5 102 5q53 0 66 -9q0 -3 -1 -7q0 -38 32 -212q35 -194 47 -233q17 65 38.5 176t35.5 192t14 88q7 7 16.5 11.5t25.5 5.5q16 2 26 2h14h19h30q26 -8 30 -30q1 -7 1 -14q0 -15 -6 -32q-6 -30 -65 -452t-73 -531q-7 -37 -32 -37q-100 0 -109 6q-17 40 -118 522 q-94 446 -94 537q0 7 1 12z" />
<glyph unicode="w" horiz-adv-x="1128" d="M94 1002l4.5 12t10.5 7t15 4l18 3t20 4q27 8 54 8h13q33 -2 45 -34q7 -17 21 -145.5t29.5 -286.5t23.5 -212q6 16 32.5 187t56.5 323t50 152l53 -2q46 -2 56 -4q17 -5 29 -60q2 -6 34.5 -131.5t65.5 -247t49 -169.5q18 28 57 315t37 313q37 2 66 2q73 0 98 -14 q3 -2 3 -19q-1 -37 -17 -145q-24 -156 -60.5 -337.5t-69 -340.5t-32.5 -161q-19 -5 -42.5 -6.5t-38 -0.5t-46 3.5t-41.5 3.5q-2 9 -64.5 288.5t-80.5 343.5q-26 -50 -51.5 -207.5t-42.5 -295.5t-23 -146q-18 -4 -55 -3t-54 -3q-9 4 -98.5 414.5t-122.5 570.5q-3 6 -3 12 q0 2 1 5z" />
<glyph unicode="x" horiz-adv-x="837" d="M93 1002q0 6 5 10t11 6.5t15 3.5t15 1.5t13 0.5q38 0 63 10q13 4 23.5 0.5t16 -5t10.5 -10t7 -14t6 -18t7 -20.5q12 -30 30.5 -91t38 -108.5t45.5 -83.5q16 21 69 175t77 167q24 16 82 20t71 7q12 2 20 2q16 0 22 -9q3 -6 3 -14q0 -12 -6 -28q-11 -32 -184 -433 q-10 -23 -23.5 -56t-19 -44t-8.5 -6q6 -14 26 -59t56.5 -116.5t62.5 -109.5q3 -4 17.5 -24t21.5 -32t17 -30.5t12.5 -34.5t-0.5 -30q-3 -13 -45 -19t-82 -6h-41q-113 182 -154 258q-19 -27 -32 -51t-19.5 -39.5t-18 -46t-20.5 -53.5q-12 -33 -30 -50.5t-44 -20.5 q-10 -1 -21 -1q-14 0 -30 2q-26 4 -63 16q-3 3 -3 11q0 29 40 118q50 113 105 217l56 105q-68 205 -88 262q-60 159 -125 254q-7 10 -7 17z" />
<glyph unicode="y" horiz-adv-x="761" d="M94 1014q-1 3 -1 7q0 47 7 69q30 -2 62 -2t67 2q17 -45 18 -112v-19q0 -55 -5 -95v-11q0 -53 8 -184q8 -146 16 -196q1 -11 3.5 -37.5t4.5 -41t8 -35.5t15 -37q12 -26 36.5 -48t47.5 -22q22 0 51 21.5t37 35.5q9 14 15.5 31.5t9 30.5t5.5 34t5 31q3 16 3 102q0 61 -1 156 q-4 231 -10 275q-5 40 -2 53q1 6 -2 30.5t2 26.5q31 16 96 16q26 0 59 -3q15 -64 17 -138q2 -33 2 -70q0 -45 -2 -96q-2 -70 -2 -113v-26l4 -131q1 -14 1 -31q0 -47 -5 -117q-5 -96 -5 -134q0 -39 -4 -117q-2 -86 -49 -203q-20 -52 -53.5 -89t-62 -53.5t-65.5 -25.5 t-48.5 -9.5t-26.5 -0.5q-12 2 -53.5 20.5t-54.5 28.5q-4 3 -11.5 8t-10.5 7.5t-5.5 8t-3.5 13.5q0 13 12 31q2 3 13 21t20 31t20 26.5t17 15.5q8 -5 22.5 -14.5t22 -14t22 -11.5t24 -6.5t26.5 1.5q38 9 57.5 58t19.5 97q-49 -27 -100 -27q-16 0 -33 2q-68 12 -125 60 q-56 50 -79 123t-35 178q-4 29 -7 62.5t-4.5 57.5t-2.5 65.5t-1 58v66v59.5v13q0 28 -2 97q-4 88 -4 140z" />
<glyph unicode="z" horiz-adv-x="727" d="M96 61q4 14 13.5 39t11.5 31q4 12 85.5 229t137.5 386q42 128 41 162q0 11 -4 12q-13 4 -48 4q-20 0 -46 -1q-73 -4 -103 -12q-30 -4 -56 3.5t-26 33.5v20v18.5t0.5 16t1.5 18t3.5 17t5.5 19.5q57 9 180 12q82 2 152 2q35 -1 67 -1q96 -2 98 -3q1 -2 1 -7q1 -38 -69 -228 q-76 -210 -158.5 -431t-84.5 -264q20 -6 60.5 -3t90.5 4q33 1 64 1q16 -1 30 -1q44 0 69 -12q20 -9 19 -24q0 -5 -1 -10q3 -21 3 -40q0 -36 -11 -60q-23 1 -119 1q-48 -1 -114 -1q-198 0 -253 -2q-23 0 -35 10q-11 9 -10 25q-1 18 4 36z" />
<glyph unicode="{" horiz-adv-x="657" d="M94 799q3 50 41 94q12 18 41 43q56 46 72 100q14 41 10 129q-7 51 -4 123.5t31 120.5q13 27 42 51t58 33q22 8 66 12q2 0 11.5 0.5l19 1t19.5 0.5t17 -1.5t8 -4.5q8 -12 11 -47.5t1 -65.5l-1 -30q-51 14 -88 -4q-17 -11 -27.5 -31t-14 -37t-2 -48.5t3 -41.5t5.5 -41 q8 -80 -13 -159.5t-67 -139.5q-2 -3 -18.5 -19.5t-29.5 -30.5t-12 -18q3 -9 7.5 -16.5t12 -16.5t9.5 -12q20 -9 56.5 -68t46.5 -83q24 -56 32 -170q2 -11 2 -47v-66t2 -33q11 -36 26 -57t46 -26h15.5t15.5 -0.5t12 -6t6 -16.5q2 -20 -2 -58t-10 -44q-1 0 -32 -4t-64.5 -5 t-72.5 17t-60 57q-44 81 -54 201q-2 24 0.5 79t-2 97.5t-22.5 73.5q-5 8 -11.5 15.5t-11.5 12.5t-14 12.5t-13.5 10.5t-15.5 10.5t-14 9.5q-29 24 -50 65.5t-20 78.5z" />
<glyph unicode="|" horiz-adv-x="382" d="M93 30q-2 54 5 89q13 125 17 416q6 330 -17 835q0 70 2 105q0 1 -3 34t0 52.5t16 23.5q29 10 96 10q2 0 20 0.5t24 -0.5t17.5 -3.5t16 -10.5t4.5 -20q-1 -29 -5 -86t-5 -84v-363q-1 -55 -8 -176.5t-7 -185.5q0 -42 4.5 -172.5t1.5 -200.5q-5 -66 -2 -148q0 -9 2 -39 t2 -45t-1.5 -38.5t-6.5 -40.5q-37 -29 -145 -29q-26 23 -28 77z" />
<glyph unicode="}" horiz-adv-x="649" d="M93.5 1397.5q-1.5 31.5 6.5 50.5q3 10 7.5 17.5t8.5 11t12 5t12.5 2t16.5 0t17 -0.5q127 -4 174 -86q26 -44 37 -102.5t12 -105.5t15.5 -103.5t46.5 -98.5q7 -10 31.5 -38t35.5 -43.5t21 -42.5t8 -54q-3 -37 -23.5 -70t-52 -68t-45.5 -59q-21 -39 -26 -89.5t0 -98.5 t9 -96.5t-5 -97t-37 -85.5q-45 -61 -133 -86q-46 -12 -66 -12q-9 -2 -24 8v-2q-9 -8 -14 0t-3 15q-11 45 0 135q99 13 121 65q8 46 8.5 116t-1 123.5t11.5 116t44 107.5q8 11 26 30.5t25.5 30.5t6 27.5t-20.5 32.5q-85 63 -98 201q-4 28 -6 106.5t-12 118.5q-6 24 -19.5 38 t-27 18.5t-37.5 10.5t-37 11q-24 10 -25.5 41.5z" />
<glyph unicode="~" horiz-adv-x="966" d="M96 707q4 10 16.5 22t24 19.5t30 19t23.5 14.5q152 93 269 11q83 -54 119 -67q91 -32 131 38q22 32 71.5 28t75.5 -30q16 -12 18 -27t-9 -32.5t-21 -30t-28 -29.5t-21 -20q-49 -51 -125.5 -60t-144.5 12t-124 58q-37 26 -71.5 31t-64.5 -6.5t-66 -39.5q-35 -32 -45 -14 q-22 22 -32 33t-21 33t-5 37z" />
<glyph unicode="&#xa1;" horiz-adv-x="380" d="M94 930q5 25 32.5 40t57.5 19q12 1 26.5 -9t24.5 -27t12.5 -37t-12.5 -41t-47 -37q-51 -18 -77.5 19.5t-16.5 72.5zM101 598q0 16 3.5 36.5t12.5 33.5q5 8 14.5 14t19 9t23 4.5t21.5 1.5t19 -1h11h6q14 0 19.5 -1t11 -7t6.5 -20q2 -26 -4 -75.5t-6 -68.5q0 -60 15 -444.5 t14 -411.5q0 -4 -0.5 -17.5t-1 -19t-1.5 -18.5t-2 -20t-2.5 -18t-4 -18.5t-6 -16t-7.5 -15.5q-28 -9 -60.5 -7t-56.5 11q-12 80 -26.5 480.5t-14.5 510.5q0 10 -1.5 36t-1.5 42z" />
<glyph unicode="&#xa2;" horiz-adv-x="765" d="M98 430q-11 204 8 440q13 90 31 134q10 24 40 63.5t40 56.5q18 4 55 22t64 21q7 31 3.5 64t-0.5 71.5t19 57.5q6 0 17.5 -1t22 -1t20.5 2q7 1 24 7t27.5 5.5t17.5 -10.5q7 -14 7 -43q1 -14 -0.5 -45.5t-1.5 -42.5q0 -12 -1.5 -32t-1.5 -28q80 -27 97 -38q25 -17 39.5 -38 t31.5 -55q2 -4 9 -16t6.5 -15.5t-0.5 -19.5q-53 -41 -78 -43q-2 -5 -12 -10.5t-17 -5.5q-1 0 -21 20t-39.5 36.5t-21.5 10.5q-4 -12 -5 -25.5t-1.5 -33t-1.5 -27.5q-1 -4 -3.5 -17t-2.5 -20q0 -11 2 -32.5t2 -34.5q-10 -291 14 -510q12 4 37 43q20 -3 64.5 -19t64.5 -20 q11 -12 11.5 -27t-5.5 -27t-14.5 -29.5t-11.5 -29.5q-43 -58 -78 -77q-9 -4 -35.5 -16t-44.5 -17q-2 -11 -3.5 -38t-5.5 -45.5t-13 -29.5q-16 1 -156 -4q-4 16 -5.5 39t-0.5 43t0 47q-24 24 -88 57q-9 7 -17.5 17t-13.5 16.5t-13.5 19.5t-11.5 17q-23 37 -30 57 q-15 40 -19 156zM253.5 700q-1.5 -35 0.5 -73q1 -20 1 -58t1 -55q0 -7 2 -36t3.5 -44.5t4.5 -39t9 -41t14 -29.5q1 0 5.5 -6t8.5 -5q19 164 14 305q-3 57 5 180t4 193q0 4 -2 2q-9 -2 -22.5 -12t-16.5 -12q-19 -37 -19 -105q-2 -24 -6.5 -76.5t-6 -87.5z" />
<glyph unicode="&#xa3;" horiz-adv-x="993" d="M92 647q0 43 45 43q30 0 88 4q9 13 4 33l-6 168q-1 1 -0.5 41t0.5 41v82q0 15 -2 42t-2 40q3 158 113 256q37 37 74 59q88 51 182 39q44 -6 88 -22q39 -15 76 -52q26 -27 2 -51q-39 -42 -74 -72q-23 -26 -55 -10l-29 15q-25 17 -59 20q-24 6 -50 -10q-42 -26 -55 -78 q-11 -28 -24 -96q-3 -15 -7 -70q-1 -5 -1.5 -15t-1.5 -18.5t-3 -15.5q-5 -65 -2 -143q1 -15 1.5 -43.5t1.5 -52.5t3 -44q0 -5 1 -17.5t1 -17.5q10 -6 41 -6l166 6h35q17 -1 24 -8.5t9 -23.5q4 -28 2 -43q-1 -9 -3 -28t-3 -28q-3 -17 -11.5 -22.5t-27.5 -5.5q-2 0 -5.5 1 t-4.5 1q-24 -3 -50 -3t-58 1.5t-50 1.5l-25.5 -1.5t-15.5 -2.5t-8.5 -5.5t-3 -9.5t0 -14t-0.5 -20q-3 -34 0 -68q2 -53 -19 -176q-2 -12 -10 -45q18 -13 43 -13q90 -8 135 -8q38 -2 115 23q44 12 53 59l10 33q7 13 23 16q52 3 117 -14q13 -3 18.5 -15.5t-0.5 -25.5 q-29 -88 -80 -156q-25 -32 -78 -57q-74 -38 -141 -35q-13 2 -27 2t-32 -1t-29 -1q-116 0 -207 13l-135 10q-2 0 -7 1t-7 1q-7 33 -11 121q19 19 29 24q49 40 64 101q11 35 8 81l-4 140q0 1 -1 9.5t-3 13.5t-7 10q-9 1 -26 -1t-23 -2q-9 0 -29 -1t-30 -1q-20 0 -23 23 q-4 8 -4 27q-2 23 -2 67z" />
<glyph unicode="&#xa4;" horiz-adv-x="837" d="M94 -1.5q3 12.5 5 20.5t10 22.5t12.5 22t12 19.5t9.5 15q3 4 16.5 22.5t24 34.5t11.5 25q1 14 -9.5 39t-11.5 35q-4 16 -5 35.5t-0.5 44.5t-0.5 39q-6 99 2 188q2 30 18.5 86t20.5 80q2 21 -1 33t-15 33q-2 5 -21 36.5t-35.5 61t-15.5 33.5q9 19 46.5 45t43.5 32 q26 -18 59 -67.5t41 -59.5q-1 2 16 10.5t36 17t24 9.5q21 3 94 -2q5 0 39 -8l35 -8q12 9 16 31q1 2 11 12.5t12 13.5q2 6 11.5 22t10.5 25q14 10 34 6t32.5 -11t31.5 -17t31 -14q6 -2 -12 -59t-39.5 -120t-21.5 -73q-2 -27 2 -80q2 -38 10.5 -125t9.5 -133q0 -68 -8 -123 q-1 -6 -12 -39t-10 -51q2 -23 31 -64t32 -47q2 -4 6 -11t5.5 -10.5t3.5 -10t1 -12.5t-4 -13q-2 -1 -6.5 -4.5t-9 -5t-10.5 -0.5q-42 -42 -95 -39q-1 -3 2.5 -4t2.5 -3q-6 0 -9 5t-8 6q-4 8 4 8q-5 6 -21.5 34.5t-27.5 39.5q-24 -17 -60.5 -26t-68.5 -7q-21 2 -72.5 17 t-52.5 24q-1 5 -4 8.5t-8 7t-8 6.5q-20 -87 -66 -133q-17 -1 -22 0t-13 9t-12 10q-4 3 -19 10.5t-20 11.5q-15 9 -20 8q0 1 -4.5 2t-9 2.5t-5.5 4.5q-5 4 -2 16.5zM316.5 599.5q0.5 -28.5 0.5 -58.5q3 -118 21 -201q19 -100 63 -135q32 -21 59 -8t42 47q11 25 17.5 53t12 65 t9.5 54q-3 26 -4 75.5t-5 89.5t-16 74q-16 46 -59 70t-86 -2l-17 -14q-19 -20 -28.5 -50.5t-9 -59z" />
<glyph unicode="&#xa5;" horiz-adv-x="868" d="M94 1411q-1 6 1.5 20.5t0.5 20.5q-1 2 2 5.5t6.5 8.5t4.5 7q20 5 56 18t54 18t70.5 -172.5t77.5 -281.5l16 -66q23 -65 25 -71q1 -3 8 -19.5t12 -30.5t4 -18q16 47 34.5 137t22.5 107q10 38 40 114t40 117q0 1 4.5 22.5t7 30t8 30t11 33.5t13.5 27t17.5 24t20.5 13 q8 1 10 1t9.5 -4t9.5 -5q11 -2 31.5 -3t36.5 -3.5t26 -9.5q1 -27 -2 -54.5t-13.5 -61.5t-16.5 -51.5t-22.5 -60t-19.5 -51.5q-65 -184 -79 -252q-9 -41 -30.5 -115t-29.5 -108q38 12 146 2q5 -2 5.5 -7t-0.5 -15.5t-1 -14.5q0 -11 3 -37.5t3 -45t-6 -27.5q-3 -6 -14 -10 t-15 -9q-94 7 -172 0q-8 -8 -16 -39q31 -6 143 0q8 -5 28.5 -8t33.5 -9.5t12 -21.5q0 -82 -6 -92q0 -4 -3 -4l-2 -2q-2 -2 -5.5 -2.5t-6 -1t-2.5 -2.5q-35 3 -95.5 0.5t-98.5 -0.5q-3 -34 -3 -77.5t0.5 -68.5t3 -82t3.5 -71q0 -9 2.5 -29t2.5 -31.5t-6.5 -23t-21.5 -14.5 h-27q-10 -1 -31 -3.5t-28.5 -2.5t-21.5 2q-10 13 -12 32t1 45.5t2 38.5q-4 42 0.5 140t-0.5 139q-42 -3 -55 -8q-23 4 -70 -8.5t-77 -6.5q-14 36 -19 160q163 10 215 8q9 12 6.5 33t-14.5 27h-45q-12 -1 -46 -0.5t-57 -1.5t-38 -7q-4 9 -15 9q-8 16 -10 39t-1 43.5t-1 46.5 q6 4 13.5 4.5t18 -1t15.5 -1.5q25 -1 72 4.5t67 5.5q4 0 -36.5 126.5t-49.5 147.5q-3 8 -19 49.5t-20 53.5t-18 49t-19.5 54t-16 50t-16.5 55t-13.5 50.5t-12.5 54.5z" />
<glyph unicode="&#xa6;" horiz-adv-x="378" d="M94 1081q-2 14 8 43q2 7 15 11q4 4 18 4l96 6h5q21 0 24 -23q0 -31 2 -47q4 -62 8 -190q2 -12 2 -43l4 -256v-37q-3 -24 -26 -27q-15 -4 -49 -8h-47q-17 1 -24 8.5t-9 22.5v35l-23 297v67q4 92 -4 137zM117 420q0 39 2 47l35 6q33 2 98 2h12q17 -3 19 -18v-51 q0 -4 -1 -11.5t-1 -11.5q5 -32 5.5 -64.5t-0.5 -80t-1 -64.5v-250v-41q-3 -24 -27 -30l-94 -11q-15 0 -23 2q-18 9 -18 25q-2 16 -2 51q-2 139 -2 418q0 14 -1 41t-1 41z" />
<glyph unicode="&#xa7;" horiz-adv-x="1132" d="M102 -260q8 2 20.5 10.5t18.5 11.5q9 3 54 9q6 1 15.5 5.5t14.5 4.5q18 -2 30 -28.5t19 -31.5q21 -58 73 -87.5t122 -16.5q50 9 78 46t30.5 84t-10 95.5t-37.5 81.5q-26 35 -62 66.5t-82.5 66.5t-70.5 56q-118 96 -172 219q-39 83 -30.5 176.5t65.5 165.5q20 23 53 45 q51 34 113 59l51 10q-3 1 -13.5 39t-10.5 45q-18 81 7.5 162t79 138.5t132 85.5t160.5 10q131 -26 206 -115q43 -50 58 -96l26 -123q-18 0 -18 -12q-6 2 -12 1t-28 -6.5t-34 -7.5q-35 -12 -39 -8q-24 7 -37 29q-14 15 -26 52t-19 48q-30 53 -88 68.5t-110 -11.5 q-49 -25 -71 -77.5t-13 -110.5q20 -116 155 -227q51 -41 91 -76.5t85.5 -86.5t74.5 -99.5t46.5 -109t12.5 -120.5q-11 -126 -88 -190q-44 -31 -95 -49q-16 -5 -65 -13t-53 -2q29 -51 39 -110.5t-3 -116.5q-14 -56 -35.5 -94.5t-60.5 -75.5q-62 -55 -139.5 -84.5 t-160.5 -19.5t-140 69q-59 59 -90 129q-45 111 -17 117zM205 283q2 -7 10 -15q0 15 -10 15zM301 432q5 -83 94 -176q2 -3 31.5 -39t53 -56.5t42.5 -23.5q18 -2 66 -12t74 -10q47 0 86.5 26.5t54.5 69.5q32 84 -64 211q-23 31 -53 61.5t-71.5 66.5t-59.5 54l-23 21 q-20 25 -30 30q-18 16 -62 -4q-61 -27 -103 -91.5t-36 -127.5z" />
<glyph unicode="&#xa8;" horiz-adv-x="503" d="M91.5 1360q0.5 24 15 49t36.5 33q32 11 64 -17q19 -26 6 -58t-37 -48q-42 -11 -63.5 3t-21 38zM283 1352q-21 39 13 69q32 28 70 15q26 -10 40 -41q18 -44 -21 -64q-23 -15 -55.5 -9.5t-46.5 30.5z" />
<glyph unicode="&#xa9;" horiz-adv-x="1243" d="M93 879q-1 32 1 106v23q4 33 11.5 108t15 131t18.5 107q13 56 35 96q4 6 39 51q7 7 27.5 28.5t35 35.5t31.5 26q94 69 178 92q7 2 42.5 12.5t54.5 12.5q1 0 71 8q30 0 76 -4q52 -2 123 -35q76 -41 100 -75q6 -8 21 -23q35 -22 57 -74q24 -55 29 -71q5 -10 16 -37.5 t19 -42.5q6 -15 20 -78q20 -130 23 -152q4 -46 4 -65q0 -57 6 -88q5 -69 2 -156q-9 -129 -35 -240q-12 -78 -51 -151q-57 -118 -141 -170q-57 -35 -102 -55t-95 -25q-102 -13 -143 -8q-74 12 -76 12q-72 10 -160 66q-23 13 -61 51q-68 74 -129 182q-19 40 -33 103 q-2 9 -12 59l-7 29q-1 32 -5.5 105.5t-5.5 105.5zM248 915q2 -55 2 -167l6 -37q3 -23 16.5 -62t16.5 -49q5 -16 13 -33.5t18.5 -38.5t15.5 -32q38 -73 102 -105l21 -14q52 -28 69 -35t72 -20q18 -3 35 0q13 2 26.5 6.5t31 11.5t26.5 10q84 32 139 92q56 56 76 121 q29 85 35 180q4 78 4 113q2 29 2 88h-2v66q0 78 -8 141l-11 76q-11 78 -30 116q-23 48 -41 68l-39 45q-43 52 -142 78q-74 19 -186 -14q-24 -6 -47 -19q-7 -5 -22.5 -16.5t-24.5 -18t-21.5 -16.5t-23 -19.5t-19.5 -19.5q-34 -37 -45 -68q-2 -4 -5 -15t-5 -15 q-27 -88 -35 -168q-3 -31 -8 -92.5t-8 -91.5q-4 -28 -4 -46zM324 909q-1 11 0.5 33t1.5 29q0 132 14 211q29 150 141 227q107 79 240 37q12 -3 51 -27q65 -45 100 -98q-5 -15 -6 -16q-47 -55 -78 -78q-19 -11 -32 8q-4 4 -12.5 15.5t-14.5 15.5q-34 43 -85 40.5t-83 -46.5 q-1 -1 -6.5 -11t-7.5 -16q-39 -81 -45 -154l-6 -37q-7 -44 -11 -163q-3 -66 17 -125q22 -68 55 -101q29 -32 70.5 -33.5t70.5 29.5l11 13q19 19 39 4l67 -60q1 -1 12 -10.5t15 -15.5q18 -20 2 -39q-52 -68 -123 -97q-14 -5 -29 -8t-38 -5t-29 -3q-14 -2 -45 2q-28 0 -48 14 q-26 13 -47 25q-11 6 -20 14.5t-21 23.5t-16 19q-9 11 -17 24.5t-18 30.5t-16 27l-4 13q-40 63 -43 157q-6 129 -6 131z" />
<glyph unicode="&#xaa;" horiz-adv-x="616" d="M92 954q2 47 10 117q11 61 72 109l25 14q53 34 123 10l38 -16q13 17 0 43q-6 18 -14.5 26t-30.5 17q-11 -2 -28 -23q-12 -23 -41 -20l-49 6q-16 5 -23 10q-16 10 -10 29q33 107 110 135q72 28 121 16q54 -15 82 -63q25 -44 39 -115q14 -65 4 -149q-13 -115 -10 -217 q0 -15 1 -44t1 -44q0 -4 -1 -11.5t-1 -11.5q-3 -10 -7.5 -14t-15.5 -4q-29 -2 -86 -2q-18 0 -24 12l-12 24l-13 -6q-26 -21 -65.5 -26t-81.5 9t-68 46q-34 45 -39 90q-6 24 -6 53zM203 985q3 -46 28 -78q13 -20 34 -24t40 8q44 21 53 67v33q7 22 -14 70q-12 34 -51 37 q-8 0 -12 -2q-36 -12 -58 -43t-20 -68z" />
<glyph unicode="&#xab;" horiz-adv-x="811" d="M92 664q3 11 8.5 23t9.5 18t14.5 21.5t12.5 18.5q102 137 156 238q19 33 26 43q15 21 41 10q10 -6 32 -17.5t32 -17.5q16 -11 8 -28q-2 -4 -7 -12.5t-7 -12.5l-41 -69q-19 -27 -54.5 -83t-54.5 -83q-2 -3 -7.5 -11t-6.5 -9.5t-4.5 -7.5t-3 -7.5t0 -7t1.5 -8.5t4 -9t6 -12 t10 -14q93 -124 105 -142l35 -36q40 -43 61 -89q-23 -42 -76 -73q-10 -5 -24 2q-4 3 -10.5 10t-10.5 10q-89 111 -141 187q-15 22 -45.5 65t-46.5 66zM352 666q-12 21 6 36q20 16 50 53t43 50q18 23 45 61l59 84l43 64q12 16 25 20q23 -9 84 -45q20 -13 6 -31 q-65 -109 -133 -213q-2 -4 -48 -61q-9 -13 -10 -19t6 -20q25 -48 84 -129q34 -47 88 -131q21 -30 -14 -45q-14 -7 -40.5 -17.5t-37.5 -15.5q-17 -8 -30 8l-17 21q-52 81 -121 184q-13 22 -53 82q-18 30 -35 64z" />
<glyph unicode="&#xac;" horiz-adv-x="1150" d="M92 776q0 21 12 31q50 4 74 4q17 0 47 -1t45 -1q28 0 51 -1t50 -1h98l94 4h8q26 -3 109 2q12 0 32.5 2t30.5 2l88 2h23l137 -8q39 0 68 -10v-19q0 -20 -2 -61.5t-2 -63.5q0 -65 2 -77q1 -24 -4 -146q0 -4 -9 -18q-17 -13 -32 -13l-84 7q-24 3 -29 22q0 3 -1 10t-1 9 q-1 19 -3.5 65.5t-2.5 65.5t2 67q0 6 -2 8q-9 11 -35 11q-64 2 -108 -2q-16 -1 -61 -0.5t-62 -1.5q-11 -1 -20.5 -2.5t-12 -2t-9 -1t-12 -0.5t-20.5 1q-10 1 -194 1t-207 2q-30 0 -50 10q0 1 -2 3t-2 3q-4 66 -4 98z" />
<glyph unicode="&#xad;" horiz-adv-x="704" d="M45 584v112q0 24 8 29q4 2 10 2l130 -4h387q16 -2 53 -10q2 0 8 -2.5t8 -3.5q4 -2 4 -21q4 -82 4 -121q0 -35 -12 -35q-29 0 -41 2q-3 1 -69.5 5.5t-146 9t-99.5 6.5q-25 2 -92.5 2.5t-92.5 -0.5q-16 0 -22 -4q-7 -1 -9.5 -1t-9.5 2t-10 3q-8 0 -8 29z" />
<glyph unicode="&#xae;" horiz-adv-x="1077" d="M92 1030.5q0 27.5 4 68.5t13 75q2 8 6.5 30t6.5 31.5t7.5 27.5t11 29.5t14 26t19.5 27.5q10 12 21 23t20.5 19.5t24.5 17t23 14t26.5 13t25 10.5t28 10t26 8.5t29.5 9t28 8.5q141 39 305 -15q165 -49 213 -239q8 -36 12 -78t6 -92.5t5 -79.5q24 -256 16 -449 q-1 -12 -2 -42t-2 -46.5t-4.5 -41.5t-10 -45.5t-16.5 -39.5q-41 -74 -62 -95q-25 -27 -63 -44q-24 -12 -59 -19t-63 -9t-70 -4t-58 -3q-14 0 -48 1.5t-87.5 6.5t-77.5 13q-77 29 -116 63q-142 116 -146 387q-4 180 -4 271q0 22 -1 73t-1 78.5zM243 872q5 -138 5 -159 q4 -74 4 -111q0 -56 6 -102q3 -16 7 -49.5t7 -49.5q25 -94 105 -108q23 -4 52.5 -4t48.5 1t54.5 3.5t47.5 3.5q9 1 37 2t47.5 2.5t48 6t48.5 13.5t40 22.5t31.5 36.5t13.5 52q9 103 -8.5 329.5t-18.5 256.5q-7 138 -43 211q-40 83 -96 106q-69 35 -223 4q-125 -24 -170 -100 q-14 -24 -23.5 -60.5t-12.5 -63.5t-7 -77q-6 -28 -1 -166zM365 911q5 184 8 228q1 27 3 40t11 25t27 19q36 6 45 6q118 14 188 -35q52 -37 81 -101t26 -128q-2 -52 -7.5 -94.5t-12 -68t-14 -42t-13.5 -22t-9 -3.5q21 -12 35.5 -33.5t21 -54t9.5 -54t5 -61t3 -47.5 q1 -18 -3.5 -48.5t-4.5 -37.5q-18 2 -49 -2.5t-54 -3t-36 16.5q5 -1 1.5 2.5t-3.5 5.5q0 28 -5.5 92t-13.5 88q-22 75 -84 59q-4 -22 -8 -80.5t-6 -107t-4 -51.5l-125 -15q-5 23 -10 214.5t-2 293.5zM522 811q14 0 51 14q19 13 26.5 65t-4 108t-40.5 77q-6 0 -14.5 2 t-14.5 2q2 -60 2 -85t-2.5 -88t-3.5 -95z" />
<glyph unicode="&#xaf;" horiz-adv-x="757" d="M59 1473v102q0 20 7 27q6 2 14 2l135 -5h420q27 -3 57 -6q7 0 19 -8q6 -3 6 -18q4 -74 4 -111q0 -33 -14 -33q-31 0 -43 2q-7 1 -152.5 9t-189.5 10q-35 2 -199 2q-19 0 -25 -4q-4 -1 -32 4q-1 0 -2.5 4t-3 10.5t-1.5 12.5z" />
<glyph unicode="&#xb0;" horiz-adv-x="575" d="M94 1286q-10 74 25 133q24 39 70.5 61.5t95.5 24.5q25 1 59.5 -13t58.5 -32q28 -21 53.5 -67.5t24.5 -87.5q-4 -55 -24 -84q-32 -49 -94 -77.5t-117 -13.5q-37 6 -72 31q-24 17 -39 41q-36 51 -41 84zM233 1300q13 -18 48 -18q19 0 42.5 11.5t18.5 29.5q-5 37 -57 33 q-28 -2 -46.5 -18.5t-5.5 -37.5z" />
<glyph unicode="&#xb1;" horiz-adv-x="796" d="M92 131q1 16 1 35t-0.5 42t-0.5 36q0 21 8 26q2 2 11 2l127 -4h387q34 -4 53 -8q8 0 16 -8q6 -3 6 -21q5 -98 5 -118q0 -35 -15 -35q-27 0 -39 2q-3 1 -70 5t-146 8.5t-99 6.5q-8 0 -52.5 0.5t-81.5 0.5t-50 -1q-17 0 -25 -2q-2 -3 -13.5 -0.5t-13.5 2.5q-8 0 -8 31z M94 713q1 14 10 23.5t26.5 13.5t30 5.5t33.5 2t25 0.5l98 6q-1 4 -1.5 11t-3 27.5t-4 40t-2.5 43.5t0.5 42t5 32.5t10.5 18.5q39 22 68 20.5t45 -13.5l16 -13q1 -17 3 -43.5t4.5 -79t0.5 -68.5q-1 -8 19.5 -12t53 -4.5t62.5 0t60.5 1.5t35.5 1q11 -22 12 -88.5t-20 -75.5 q-92 -14 -213 -10q6 -33 6.5 -96t1.5 -80q1 -21 -0.5 -33.5t-10 -18t-13.5 -6.5t-23 -1t-27 -1q-7 -1 -22 -3.5t-21 -2.5t-15 3t-12.5 12.5t-4.5 25.5q-1 30 -2 106t-2 95q-35 -4 -114.5 -3t-109.5 -3q-8 85 -6 125z" />
<glyph unicode="&#xb2;" horiz-adv-x="458" d="M30.5 715q2.5 44 6.5 61q5 26 59.5 112t93.5 140q1 2 11 14.5t12 15.5t10.5 15t11 16t10 15t10.5 16.5t8 15.5t7.5 17.5l5.5 16.5t5 18q10 83 -2 111q-13 33 -54 28q-29 -13 -42.5 -35t-13.5 -41t-2 -34.5t-11 -16.5q-14 -4 -59 4t-50 29q-9 44 16 100q27 56 62 76 q61 36 111 33q76 -3 126 -56q36 -45 48 -86q16 -66 16 -100q-3 -100 -61 -186q-17 -27 -53 -71.5t-61.5 -84t-39.5 -82.5q34 -5 65.5 -2t64.5 -1t48 -19q3 -8 0.5 -60t-2.5 -53q-8 -5 -180 5t-176 16q-3 9 -0.5 53z" />
<glyph unicode="&#xb3;" horiz-adv-x="466" d="M18 1126q0 5 35.5 42t74 80t44.5 59q-18 5 -69 -7.5t-62 -7.5q-4 85 -14 138q0 2 19.5 5.5t50 6.5t59 6t54 5.5t28.5 2.5l90 4q3 0 16.5 1t23 0t15.5 -5q6 -43 -25 -78q-9 -14 -31 -39t-32 -39q-13 -14 -36.5 -51t-29.5 -45q9 3 45 -12t45 -21q33 -29 58 -84 q37 -78 37 -186q1 -37 -4 -76.5t-20 -85t-38 -80t-62.5 -57t-90.5 -20.5q-27 1 -59 20t-54 43q-35 40 -45 107l-12 67q0 1 -3 16.5t-2.5 18t3.5 16.5q10 7 26 10t40 4t38 3q12 -9 17.5 -25.5t9.5 -45t8 -42.5q1 -3 2.5 -9.5t2.5 -10t2.5 -8.5t3 -8t4 -6t5.5 -5t7 -2 q8 -1 31 9.5t26 15.5q22 28 29 69q10 46 -17 129q-1 3 -5.5 19t-6.5 23t-7 22t-9.5 22.5t-11 16t-13.5 12.5q-17 11 -92.5 18.5t-77.5 8.5q-8 5 -14.5 16t-6.5 20z" />
<glyph unicode="&#xb4;" horiz-adv-x="374" d="M94 1233q-4 32 21.5 109t42.5 102q86 5 121 0q12 -14 -29.5 -121t-52.5 -109q-63 -6 -103 19z" />
<glyph unicode="&#xb5;" horiz-adv-x="776" d="M93.5 -227.5q-0.5 6.5 1 19.5t1.5 20q1 15 3 40t3 33q2 26 1.5 88t2.5 88q6 76 6.5 154.5t-2.5 189.5t-4 154q-4 93 9 309q0 22 4 72q2 24 0 43t3 38t21 32q17 -8 58 -13.5t59 -17.5q4 -2 5 -19t-1 -43.5t-4 -50.5t-5 -48t-3 -27q-4 -131 -2 -197q0 -71 4 -207 q3 -54 0 -108q0 -8 -2 -27t-2.5 -29t2 -24.5t8.5 -26.5q37 -60 116.5 -73.5t133.5 32.5q7 6 10.5 17.5t4 18.5t0 23.5t-0.5 18.5l4 123q2 51 3.5 153t3.5 152q1 26 -1.5 72t-1.5 67q3 38 3 178q5 45 12 62q17 2 49 -2t45 -2q5 0 15.5 2.5t15.5 1.5q4 0 5.5 -4t6.5 -2v-17 q0 -18 -6 -24q5 -210 -12 -744q-4 -98 -4 -149q0 -6 2 -40t0 -55.5t-11 -35.5q-4 4 -5.5 0t-2.5 -4q-8 -4 -27 -4q-6 -1 -14.5 -1t-12.5 -0.5t-7 -3.5q-6 2 -21.5 -1.5t-15.5 1.5q-2 -2 -9 -2.5t-8 -1.5q0 8 -4 0q-3 2 -9 12.5t-7 20.5q-12 -4 -25 -9t-25 -8.5t-30 -6.5 q3 4 0 3q-7 -1 -12 -6q-7 5 -32 1.5t-34 -1.5q-14 2 -73 21q-6 2 -17.5 12.5t-17.5 12.5q-1 -27 3 -131.5t-3 -124.5q-3 1 -6.5 -1t-5.5 -4.5t-1 -3.5q-39 -8 -104 -8q6 0 6 2q-12 -2 -20 -2q-10 3 -14.5 9.5t-5 13z" />
<glyph unicode="&#xb6;" horiz-adv-x="1085" d="M94 958q-4 228 58 345l18 26q35 61 93 89t140 38q113 16 166 14q33 -2 96.5 -2t96.5 -2q34 -1 97 -12.5t79 -13.5q6 -1 14.5 -2t13 -1.5t10 -2t8.5 -4t5 -5.5q2 -9 2.5 -11.5t-1.5 -11.5t-3 -13q-5 -46 -1.5 -164t1.5 -166l-16 -348q-4 -126 -4 -193q0 -135 2 -203 q4 -148 2 -225q0 -6 -0.5 -18.5t-1 -19t-1 -16.5t-2.5 -16t-5 -12.5t-8 -10.5t-11 -7q-21 -6 -73.5 2t-59.5 20q-5 19 -5.5 27t3.5 30t4 27q2 17 2 105q-1 37 -6 112t-6 113q-1 28 3.5 83.5t4.5 80.5q1 21 -0.5 95t2.5 97q14 185 -8 475q-1 0 -31 9t-47 10q-4 0 0.5 -330.5 t7.5 -402.5q0 -21 -1.5 -60.5t-1.5 -72t3 -60.5q5 -78 2 -176q-2 -30 0 -54.5t0.5 -55t-8.5 -52.5q-7 -5 -17 -6t-27.5 -1t-25.5 -1q-6 0 -22 -2.5t-26 -3t-21 1.5t-17 8q-12 12 -12 117q-1 37 -4 126.5t-3 127t3 119.5q-10 1 -34 -1.5t-36 -0.5q-15 2 -44 12.5t-44 13.5 q-4 1 -24 5t-26.5 5.5t-23.5 5.5t-26 8t-22 9t-23.5 12t-20.5 15q-67 61 -101 166.5t-36 209.5z" />
<glyph unicode="&#xb7;" horiz-adv-x="528" d="M82 -193q-3 18 5.5 29t25.5 10l53 -4h37q25 7 30 25q10 20 -10 31l-33 12l-28 8q-5 18 -5.5 55t-6.5 56q-11 3 6 6q54 12 140 11q47 -1 37 -9q-1 -1 -3 -2q0 -13 -2 -21q-3 -40 30 -57q6 -4 37 -35q13 -13 21 -33q25 -46 -4 -86q-25 -36 -54 -53q-45 -27 -69 -35 q-64 -23 -144 -26h-18q-19 5 -21 16q-6 12 -6 27q-2 25 -18 75z" />
<glyph unicode="&#xb8;" horiz-adv-x="499" d="M82 -193q-3 18 5.5 29t25.5 10l53 -4h37q25 7 30 25q10 20 -10 31l-33 12l-28 8q-5 18 -5.5 55t-6.5 56q-11 3 6 6q54 12 140 11q47 -1 37 -9q-1 -1 -3 -2q0 -13 -2 -21q-3 -40 30 -57q6 -4 37 -35q13 -13 21 -33q25 -46 -4 -86q-25 -36 -54 -53q-45 -27 -69 -35 q-64 -23 -144 -26h-18q-19 5 -21 16q-6 12 -6 27q-2 25 -18 75z" />
<glyph unicode="&#xb9;" horiz-adv-x="1536" d="M18 1391q0 11 44 55.5t44 46.5q36 31 160 8q1 -79 1 -172.5t-0.5 -208.5t-0.5 -176q0 -22 -2.5 -116t0.5 -113q-5 -4 -35 -6t-58 -1t-28 5q0 11 0.5 88t1 168.5t0.5 185t-0.5 155.5t-1.5 62q-2 0 -27 -22t-32 -21q-2 0 -35 27q-1 1 -10.5 9t-15 14.5t-5.5 11.5z" />
<glyph unicode="&#xba;" horiz-adv-x="575" d="M94 1286q-10 74 25 133q24 39 70.5 61.5t95.5 24.5q25 1 59.5 -13t58.5 -32q28 -21 53.5 -67.5t24.5 -87.5q-4 -55 -24 -84q-32 -49 -94 -77.5t-117 -13.5q-37 6 -72 31q-24 17 -39 41q-36 51 -41 84zM233 1300q13 -18 48 -18q19 0 42.5 11.5t18.5 29.5q-5 37 -57 33 q-28 -2 -46.5 -18.5t-5.5 -37.5z" />
<glyph unicode="&#xbb;" horiz-adv-x="815" d="M94 344.5q-3 8.5 6 26.5l88 139l84 137l13 21q-13 17 -34 55.5t-36 58.5q-44 56 -65 88q-21 30 -50 78q-13 15 2 37q2 1 7 5.5t8 6.5l63 45q17 12 28 10.5t25 -16.5q51 -61 146 -198l49 -64q3 -5 17.5 -25t21.5 -32q3 -7 10 -23t8 -20q-23 -39 -69 -113l-54 -96 l-104 -168l-4 -6q-7 -12 -21 -15t-24 3q-27 10 -90 43l-4 2q-18 12 -21 20.5zM373 977q-13 16 4 29q8 11 22 18q28 25 54 39q20 10 34 -6l33 -47q16 -20 46.5 -60t45.5 -61q13 -18 43 -62t47 -67q36 -55 5 -115q-12 -21 -47.5 -82.5t-55.5 -93.5q-10 -20 -31.5 -58.5 t-31.5 -58.5q-4 -7 -29 -47q-12 -16 -29 -6q-46 18 -88 41q-6 3 -9 11t1 16q24 65 47 106q80 140 111 207q0 4 2 10l-27 39l-24 41q-7 11 -31.5 54.5t-40.5 66.5q-5 9 -22.5 35t-24.5 41q0 2 -2 5t-2 5z" />
<glyph unicode="&#xbc;" horiz-adv-x="1536" d="M55 1391q0 11 44 55.5t44 46.5q36 31 160 8q1 -79 1 -172.5t-0.5 -208.5t-0.5 -176q0 -22 -2.5 -116t0.5 -113q-5 -4 -35 -6t-58 -1t-28 5q0 11 0.5 88t1 168.5t0.5 185t-0.5 155.5t-1.5 62q-2 0 -27 -22t-32 -21q-2 0 -35 27q-1 1 -10.5 9t-15 14.5t-5.5 11.5zM92 0 q13 46 130.5 346t229.5 578l111 278l8 21q8 21 19.5 50t26 64t28.5 64.5t27 50.5t20 23q17 -6 31.5 -6.5t26.5 -2.5q11 -1 32 -9.5t33 -8.5q10 -8 12 -21.5t-0.5 -23.5t-10 -31t-9.5 -29q-11 -41 -267 -656t-290 -679q-100 -10 -158 -8zM451 244q4 4 6 4q-1 1 31.5 70 t41.5 85q10 17 59 127t94 206.5t54 99.5q6 5 54 4.5t49 -17.5q1 -11 3.5 -182.5t2.5 -245.5q11 -6 38 -3.5t34 -4.5q-1 -6 3.5 -31.5t8.5 -51t3 -48t-11 -25.5q-1 0 -29 -1t-45 -5q-2 -21 -1 -61t3.5 -79.5t3.5 -39.5t-3.5 -11t-6.5 -16q-3 -5 -38.5 -12t-70 -6.5 t-33.5 14.5v2q-1 2 -1 18.5t1.5 46.5t2.5 59t2 55t0 34q0 5 -62 6.5t-126.5 3t-67.5 5.5zM674 377q12 -10 45 -2q1 16 3 48.5t3 58.5t0 48q-13 -26 -30 -83.5t-21 -69.5z" />
<glyph unicode="&#xbd;" horiz-adv-x="1536" d="M55 1391q0 11 44 55.5t44 46.5q36 31 160 8q1 -79 1 -172.5t-0.5 -208.5t-0.5 -176q0 -22 -2.5 -116t0.5 -113q-5 -4 -35 -6t-58 -1t-28 5q0 11 0.5 88t1 168.5t0.5 185t-0.5 155.5t-1.5 62q-2 0 -27 -22t-32 -21q-2 0 -35 27q-1 1 -10.5 9t-15 14.5t-5.5 11.5zM92 0 q13 46 130.5 346t229.5 578l111 278l8 21q8 21 19.5 50t26 64t28.5 64.5t27 50.5t20 23q17 -6 31.5 -6.5t26.5 -2.5q11 -1 32 -9.5t33 -8.5q10 -8 12 -21.5t-0.5 -23.5t-10 -31t-9.5 -29q-11 -41 -267 -656t-290 -679q-100 -10 -158 -8zM564.5 73.5q2.5 44.5 6.5 61.5 q5 26 59.5 111.5t94.5 140.5q28 36 39.5 52.5t28 48.5t22.5 59q9 81 0 108q-12 36 -55 31q-29 -13 -43 -35t-14 -41.5t-2 -34.5t-11 -16q-14 -4 -58.5 4t-49.5 29q-4 19 1 48.5t15 49.5q26 58 61 78q57 33 111 33q77 -3 127 -56q34 -43 47 -86q17 -70 17 -100 q-3 -98 -62 -186q-17 -27 -52.5 -72t-61.5 -84.5t-40 -81.5q34 -5 66 -2t65 -1t48 -19q3 -8 0.5 -60t-2.5 -53q-8 -5 -180.5 4t-176.5 16q-3 9 -0.5 53.5z" />
<glyph unicode="&#xbe;" horiz-adv-x="1536" d="M18 1126q0 5 35.5 42t74 80t44.5 59q-18 5 -69 -7.5t-62 -7.5q-4 85 -14 138q0 2 19.5 5.5t50 6.5t59 6t54 5.5t28.5 2.5l90 4q3 0 16.5 1t23 0t15.5 -5q6 -43 -25 -78q-9 -14 -31 -39t-32 -39q-13 -14 -36.5 -51t-29.5 -45q9 3 45 -12t45 -21q33 -29 58 -84 q37 -78 37 -186q1 -37 -4 -76.5t-20 -85t-38 -80t-62.5 -57t-90.5 -20.5q-27 1 -59 20t-54 43q-35 40 -45 107l-12 67q0 1 -3 16.5t-2.5 18t3.5 16.5q10 7 26 10t40 4t38 3q12 -9 17.5 -25.5t9.5 -45t8 -42.5q1 -3 2.5 -9.5t2.5 -10t2.5 -8.5t3 -8t4 -6t5.5 -5t7 -2 q8 -1 31 9.5t26 15.5q22 28 29 69q10 46 -17 129q-1 3 -5.5 19t-6.5 23t-7 22t-9.5 22.5t-11 16t-13.5 12.5q-17 11 -92.5 18.5t-77.5 8.5q-8 5 -14.5 16t-6.5 20zM168 0q13 46 130.5 346t229.5 578l111 278l8 21q8 21 19.5 50t26 64t28.5 64.5t27 50.5t20 23q17 -6 31 -6.5 t26 -2.5q11 -1 32.5 -9.5t33.5 -8.5q10 -8 12 -21.5t-0.5 -23.5t-10 -31t-9.5 -29q-11 -41 -267 -656t-290 -679q-100 -10 -158 -8zM473 244q4 4 6 4q-1 1 32 70t42 85q10 17 59 127t94 206.5t54 99.5q6 5 52.5 4.5t49.5 -17.5q1 -11 3.5 -182.5t2.5 -245.5q11 -6 38 -3.5 t34 -4.5q-1 -6 3.5 -31.5t8.5 -51t3 -48t-11 -25.5q-1 0 -29 -1t-45 -5q-2 -21 -1 -61t3 -80l2 -39q1 0 -2.5 -11.5t-5.5 -15.5q-3 -5 -38.5 -12t-69.5 -6.5t-33 14.5v2q-2 -1 -0.5 47.5t3 96t-0.5 69.5q0 5 -61.5 6.5t-125.5 3t-67 5.5zM696 377q12 -10 45 -2q5 126 4 155 q-11 -25 -26.5 -79.5t-22.5 -73.5z" />
<glyph unicode="&#xbf;" horiz-adv-x="851" d="M94 -190q-3 104 15.5 191t48.5 142.5t68.5 105t73.5 80t66.5 65t43.5 63.5q14 31 -2 172q-2 15 0.5 25.5t10 16.5t15 10t21 5t22.5 1t25.5 -0.5t23.5 -0.5q36 0 55 -25t21 -63t-2.5 -72.5t-13.5 -64.5q-49 -154 -217 -311q-32 -32 -47.5 -49t-35 -48t-26.5 -63 q-22 -98 21 -207q10 -27 17 -43.5t20 -37.5t30 -34t39 -18q39 -12 82 -0.5t68 43.5q28 33 30.5 79t-4.5 85q-3 32 65 46t97 3q26 -11 31.5 -49t-5.5 -82t-24.5 -81t-24.5 -56q-52 -91 -135.5 -134t-179.5 -26.5t-178 92.5q-50 44 -81 109t-34 131zM421 888.5 q21 42.5 61.5 46.5t72.5 -36q15 -26 4 -56.5t-35 -43.5q-59 -32 -92 6q-32 41 -11 83.5z" />
<glyph unicode="&#xc0;" horiz-adv-x="794" d="M53 10q-5 57 8.5 122t39 144.5t34.5 118.5q27 133 101 520q69 319 83 375q20 94 37 144q8 27 29.5 32.5t57 -1t49.5 -5.5q10 -14 20 -66.5t16 -104.5t12 -109.5t7 -65.5q16 -136 49 -309q29 -169 70 -342q11 -46 49 -227q3 -17 11 -58t12.5 -72t4.5 -59q0 -25 -18 -43 q-21 2 -44 0.5t-48.5 0t-38.5 9.5q-10 37 -43.5 195t-36.5 182q-140 13 -227 0q-10 -23 -17.5 -52t-15 -69t-10.5 -53q-6 -21 -25 -98q-2 -8 -5.5 -37.5t-9.5 -47t-18 -30.5q-25 -4 -68 -2.5t-65 8.5zM319 543q22 -5 82.5 -0.5t85.5 2.5q-2 42 -38 240.5t-48 195.5 q0 -1 -1 -2t-1 -2v-2q-53 -238 -80 -432zM381 1741q23 28 102 33h2q12 1 20 -8t12.5 -25t6.5 -29.5t3.5 -31t2.5 -21.5q0 -3 4.5 -32.5t2.5 -43.5q-7 -28 -31 -29t-39 21q-11 17 -29 51.5t-24 44.5q-2 4 -14 19t-18.5 29t-0.5 22z" />
<glyph unicode="&#xc1;" horiz-adv-x="794" d="M53 10q-5 57 8.5 122t39 144.5t34.5 118.5q27 133 101 520q69 319 83 375q20 94 37 144q8 27 29.5 32.5t57 -1t49.5 -5.5q10 -14 20 -66.5t16 -104.5t12 -109.5t7 -65.5q16 -136 49 -309q29 -169 70 -342q11 -46 49 -227q3 -17 11 -58t12.5 -72t4.5 -59q0 -25 -18 -43 q-21 2 -44 0.5t-48.5 0t-38.5 9.5q-10 37 -43.5 195t-36.5 182q-140 13 -227 0q-10 -23 -17.5 -52t-15 -69t-10.5 -53q-6 -21 -25 -98q-2 -8 -5.5 -37.5t-9.5 -47t-18 -30.5q-25 -4 -68 -2.5t-65 8.5zM319 543q22 -5 82.5 -0.5t85.5 2.5q-2 42 -38 240.5t-48 195.5 q0 -1 -1 -2t-1 -2v-2q-53 -238 -80 -432zM451 1575q-3 32 23 109.5t42 99.5q73 9 119 0q12 -13 -29.5 -120.5t-50.5 -107.5q-68 -7 -104 19z" />
<glyph unicode="&#xc2;" horiz-adv-x="823" d="M53 10q-5 57 8.5 122t39 144.5t34.5 118.5q27 133 101 520q69 319 83 375q20 94 37 144q8 27 29.5 32.5t57 -1t49.5 -5.5q10 -14 20 -66.5t16 -104.5t12 -109.5t7 -65.5q16 -136 49 -309q29 -169 70 -342q11 -46 49 -227q3 -17 11 -58t12.5 -72t4.5 -59q0 -25 -18 -43 q-21 2 -44 0.5t-48.5 0t-38.5 9.5q-10 37 -43.5 195t-36.5 182q-140 13 -227 0q-10 -23 -17.5 -52t-15 -69t-10.5 -53q-6 -21 -25 -98q-2 -8 -5.5 -37.5t-9.5 -47t-18 -30.5q-25 -4 -68 -2.5t-65 8.5zM230 1607.5q0 8.5 10 22.5q12 11 35.5 36t37.5 38l107 98q1 1 43 31 l18 12q17 10 29 -8q125 -125 233 -201q18 -13 21 -20q8 -6 8 -14t-8 -13q-55 -51 -82 -71q-16 -13 -29 0l-20 16l-107 96q-2 2 -4.5 5t-5 5t-5.5 4.5t-6.5 4t-8.5 2.5q-13 -9 -37.5 -26.5t-43 -31.5t-34.5 -28l-29 -27q-2 -3 -7 -8t-7 -8q-13 -9 -21 -8.5t-18 10.5 q-45 45 -59 63q-10 12 -10 20.5zM319 543q22 -5 82.5 -0.5t85.5 2.5q-2 42 -38 240.5t-48 195.5q0 -1 -1 -2t-1 -2q0 -2 -6.5 -34.5t-16 -81.5t-20 -104.5t-21 -114t-16.5 -99.5z" />
<glyph unicode="&#xc3;" horiz-adv-x="839" d="M53 10q-5 57 8.5 122t39 144.5t34.5 118.5q27 133 101 520q69 319 83 375q20 94 37 144q8 27 29.5 32.5t57 -1t49.5 -5.5q10 -14 20 -66.5t16 -104.5t12 -109.5t7 -65.5q16 -136 49 -309q29 -169 70 -342q11 -46 49 -227q3 -17 11 -58t12.5 -72t4.5 -59q0 -25 -18 -43 q-21 2 -44 0.5t-48.5 0t-38.5 9.5q-10 37 -43.5 195t-36.5 182q-140 13 -227 0q-10 -23 -17.5 -52t-15 -69t-10.5 -53q-6 -21 -25 -98q-2 -8 -5.5 -37.5t-9.5 -47t-18 -30.5q-25 -4 -68 -2.5t-65 8.5zM229.5 1634q1.5 17 8.5 23q15 18 28 29q6 4 18 11t19.5 11.5t18.5 9 t20 6.5q4 1 16.5 4t18.5 3q75 -4 119 -31q43 -29 90 -41q12 -5 28 -8q39 -4 58 18l37 35q13 8 26 0q4 0 4 -2q35 -39 49 -86q-3 -19 -18 -31q-26 -26 -70 -47q-28 -14 -63 -14q-51 3 -88 16q-23 9 -66 35q-7 2 -19 9t-15 9q-40 25 -93 9q-23 -6 -37 -23q-3 -6 -12 -12 q-16 -16 -37 -2l-37 45q-5 7 -3.5 24zM319 543q22 -5 82.5 -0.5t85.5 2.5q-2 42 -38 240.5t-48 195.5q0 -1 -1 -2t-1 -2v-2q-53 -238 -80 -432z" />
<glyph unicode="&#xc4;" horiz-adv-x="794" d="M53 10q-5 57 8.5 122t39 144.5t34.5 118.5q27 133 101 520q69 319 83 375q20 94 37 144q8 27 29.5 32.5t57 -1t49.5 -5.5q10 -14 20 -66.5t16 -104.5t12 -109.5t7 -65.5q16 -136 49 -309q29 -169 70 -342q11 -46 49 -227q3 -17 11 -58t12.5 -72t4.5 -59q0 -25 -18 -43 q-21 2 -44 0.5t-48.5 0t-38.5 9.5q-10 37 -43.5 195t-36.5 182q-140 13 -227 0q-10 -23 -17.5 -52t-15 -69t-10.5 -53q-6 -21 -25 -98q-2 -8 -5.5 -37.5t-9.5 -47t-18 -30.5q-25 -4 -68 -2.5t-65 8.5zM319 543q22 -5 82.5 -0.5t85.5 2.5q-2 42 -38 240.5t-48 195.5 q0 -1 -1 -2t-1 -2v-2q-53 -238 -80 -432zM349.5 1604q0.5 24 15 49t36.5 33q30 10 64 -19q19 -24 6 -56t-37 -48q-42 -11 -63.5 3t-21 38zM541 1593q-18 34 5.5 63t61.5 26.5t56 -44.5q18 -43 -21 -63q-22 -15 -55.5 -11t-46.5 29z" />
<glyph unicode="&#xc5;" horiz-adv-x="794" d="M53 10q-5 57 8.5 122t39 144.5t34.5 118.5q27 133 101 520q69 319 83 375q19 89 37 142q-7 8 -26 51q-11 32 -8 69l10 54q11 85 106 116q60 21 119.5 -0.5t93.5 -81.5q19 -37 19 -84q3 -72 -43 -137q-40 -59 -109 -65q8 -54 18 -145t11 -95q16 -136 49 -309 q29 -169 70 -342q11 -46 49 -227q3 -17 11 -58t12.5 -72t4.5 -59q0 -25 -18 -43q-21 2 -44 0.5t-48.5 0t-38.5 9.5q-10 37 -43.5 195t-36.5 182q-140 13 -227 0q-10 -23 -17.5 -52t-15 -69t-10.5 -53q-6 -21 -25 -98q-2 -8 -5.5 -37.5t-9.5 -47t-18 -30.5q-25 -4 -68 -2.5 t-65 8.5zM319 543q22 -5 82.5 -0.5t85.5 2.5q-2 42 -38 240.5t-48 195.5q0 -1 -1 -2t-1 -2v-2q-53 -238 -80 -432zM444 1540q1 -3 3.5 -10t3.5 -10q11 -26 43 -23q25 8 28 10q28 15 21 43q-2 11 -20.5 27t-28.5 16q-7 0 -9 -2q-20 -10 -26 -16q-18 -12 -15 -35z" />
<glyph unicode="&#xc6;" horiz-adv-x="1210" d="M53 6l10 41l68 180q2 8 7 24.5t7 24.5q24 93 80 222q17 30 19 45q50 138 143 348q7 15 19.5 46.5t19.5 47.5q78 180 115 268q16 36 53 140l10 34q0 7 4 19q4 25 13 32t34 9l140 4q205 4 309 -4h14q16 0 23 -17l6 -32q1 -12 3 -35.5t3 -36.5q3 -20 -3.5 -29t-25.5 -12 q-21 -6 -39 -6q-22 -1 -105.5 -5t-127.5 -3q-36 0 -45 -4q-10 -33 -10 -101v-268l2 -190q14 -19 41 -19l176 -4q3 0 10 -1t10 -1q13 -18 13 -47l4 -66q0 -20 -8 -28.5t-27 -8.5h-166q-17 0 -45 -4q-12 -22 -12 -51q2 -25 2 -76q0 -69 -4 -106q-4 -77 4 -131q5 -31 39 -31 h145l98 -4q8 0 24.5 1t24.5 1q17 0 27 -20q0 -2 1 -5t1 -4q0 -20 1 -59t1 -57q-3 -24 -29 -27h-16q-114 -4 -170 -4q-18 0 -58 1t-61 1q-35 0 -51 -2q-37 -2 -45 -2.5t-45.5 2t-46.5 2.5q-1 2 -2.5 5.5t-2.5 6.5t-1 6v66q0 166 -2 246q0 17 -3 48.5t-3 37.5q-5 0 -13 2 t-12 2q-59 -6 -182 -2h-27q-4 -11 -23 -59t-26 -74l-51 -189q-12 -42 -39 -80q-16 -4 -35.5 -7t-44 -6t-37.5 -5q-30 -6 -61 -6q-10 0 -15 4t-4 12zM449 571q3 -1 11.5 -3.5t14.5 -2.5q8 -1 17.5 -1t21.5 0.5t18 0.5h62q31 0 31 31v37q-7 49 2 182q1 10 6 205v14 q-11 -7 -19 -24l-65 -164q-4 -10 -12 -37.5t-15 -42.5l-57 -141q-14 -39 -16 -54z" />
<glyph unicode="&#xc7;" horiz-adv-x="759" d="M53 427v49.5t2 53.5t2 50q3 110 0 200.5t5.5 199t31.5 196.5q77 290 287 307q69 4 145 -30.5t129 -99.5t52 -136q-15 -5 -47.5 -20t-60 -23t-52.5 -5q-3 5 -23 56t-47 69q-77 51 -139 -2q-64 -52 -85.5 -128.5t-25.5 -184.5q-8 -286 -6 -430q0 -9 -0.5 -54.5t0 -64 t3.5 -58.5t10 -63.5t20.5 -51.5t32.5 -48q26 -28 61 -40.5t66 -2.5q53 16 92 100q7 15 17.5 22.5t24.5 8.5t25.5 0t30.5 -5t29 -5q51 -6 63 -19q6 -5 7 -12t-2.5 -15.5t-6 -14t-9 -15t-7.5 -10.5q-26 -41 -46.5 -68.5t-50.5 -58.5t-66 -49t-77 -23q-10 -2 -32 -2 q4 -28 28 -43q15 -9 37 -35q6 -5 23 -33q24 -44 -7 -86q-22 -37 -53 -53q-47 -29 -67 -35q-67 -23 -144 -26h-18q-19 4 -21 16q-6 12 -6 27q-6 38 -18 75q-5 17 4 28.5t26 10.5l54 -4h37q22 6 30 25q10 20 -10 31l-35 12l-26 8q-6 19 -6.5 56t-6.5 55q-12 2 5 6l18 4 q-47 21 -82 59q-20 19 -36 41t-28 40.5t-20.5 48t-14.5 45.5t-9.5 52t-5 48t-1.5 54z" />
<glyph unicode="&#xc8;" horiz-adv-x="688" d="M51 1092q0 43 3 179t1 210q15 14 36 18.5t58 4t41 -0.5l123 6q86 4 133 4q32 4 79.5 1.5t76.5 -17.5q2 -16 4 -60t8 -67q5 -10 2.5 -17.5t-3 -12.5t-7.5 -8.5t-10.5 -5.5t-13 -3t-14.5 -1t-15 -0.5t-14 -0.5q-212 -4 -316 -12q3 -72 -11.5 -254t-4.5 -273q35 0 142 11 t165 4q4 -15 8 -46t8 -46q0 -3 3.5 -15.5t6 -22.5t1 -20.5t-8.5 -13.5q-9 -5 -23 -7t-33 -2.5t-25 -0.5q-58 -4 -240 -9q-1 -52 -1 -64.5t4 -63t5 -64.5q8 -152 19 -217q65 -13 180 -17q35 -2 106 -2q6 0 28.5 1t38 0t27.5 -5q12 -20 15.5 -55t1.5 -65t0 -58 q-66 -8 -297 -5.5t-242 7.5q-20 50 -24 141q-11 162 -11 179q5 157 -2 376q-1 64 -4 194t-4 196zM305 1741q22 28 103 33h2q12 1 20 -8t12.5 -25t6.5 -29.5t3.5 -31t2.5 -21.5q1 -8 3.5 -25.5t3 -26t-0.5 -24.5q-7 -28 -31 -29t-39 21q-11 17 -29 51.5t-24 44.5q-2 4 -14 19 t-18.5 29t-0.5 22z" />
<glyph unicode="&#xc9;" horiz-adv-x="688" d="M51 1092q0 43 3 179t1 210q15 14 36 18.5t58 4t41 -0.5l123 6q86 4 133 4q32 4 79.5 1.5t76.5 -17.5q2 -16 4 -60t8 -67q5 -10 2.5 -17.5t-3 -12.5t-7.5 -8.5t-10.5 -5.5t-13 -3t-14.5 -1t-15 -0.5t-14 -0.5q-212 -4 -316 -12q3 -72 -11.5 -254t-4.5 -273q35 0 142 11 t165 4q4 -15 8 -46t8 -46q0 -3 3.5 -15.5t6 -22.5t1 -20.5t-8.5 -13.5q-9 -5 -23 -7t-33 -2.5t-25 -0.5q-58 -4 -240 -9q-1 -52 -1 -64.5t4 -63t5 -64.5q8 -152 19 -217q65 -13 180 -17q35 -2 106 -2q6 0 28.5 1t38 0t27.5 -5q12 -20 15.5 -55t1.5 -65t0 -58 q-66 -8 -297 -5.5t-242 7.5q-20 50 -24 141q-11 162 -11 179q5 157 -2 376q-1 64 -4 194t-4 196zM258 1589q-4 32 22 109t42 100q73 9 120 0q12 -14 -29.5 -119.5t-52.5 -107.5q-66 -7 -102 18z" />
<glyph unicode="&#xca;" horiz-adv-x="688" d="M51 1092q0 43 3 179t1 210q15 14 36 18.5t58 4t41 -0.5l123 6q86 4 133 4q32 4 79.5 1.5t76.5 -17.5q2 -16 4 -60t8 -67q5 -10 2.5 -17.5t-3 -12.5t-7.5 -8.5t-10.5 -5.5t-13 -3t-14.5 -1t-15 -0.5t-14 -0.5q-212 -4 -316 -12q3 -72 -11.5 -254t-4.5 -273q35 0 142 11 t165 4q4 -15 8 -46t8 -46q0 -3 3.5 -15.5t6 -22.5t1 -20.5t-8.5 -13.5q-9 -5 -23 -7t-33 -2.5t-25 -0.5q-58 -4 -240 -9q-1 -52 -1 -64.5t4 -63t5 -64.5q8 -152 19 -217q65 -13 180 -17q35 -2 106 -2q6 0 28.5 1t38 0t27.5 -5q12 -20 15.5 -55t1.5 -65t0 -58 q-66 -8 -297 -5.5t-242 7.5q-20 50 -24 141q-11 162 -11 179q5 157 -2 376q-1 64 -4 194t-4 196zM82 1667.5q0 8.5 10 20.5q42 46 74 73l106 101q15 12 43 30l19 13q16 6 28 -9q118 -118 232 -200q16 -10 22 -21q8 -6 8 -13.5t-8 -12.5q-67 -63 -81 -74q-17 -10 -29 0 l-23 18l-104 97q-16 16 -31 20q-13 -9 -37.5 -26.5t-43 -31.5t-34.5 -28l-28 -29q-2 -2 -8 -6.5t-9 -7.5q-13 -9 -19.5 -8.5t-16.5 10.5q-46 46 -60 64q-10 12 -10 20.5z" />
<glyph unicode="&#xcb;" horiz-adv-x="688" d="M51 1092q0 43 3 179t1 210q15 14 36 18.5t58 4t41 -0.5l123 6q86 4 133 4q32 4 79.5 1.5t76.5 -17.5q2 -16 4 -60t8 -67q5 -10 2.5 -17.5t-3 -12.5t-7.5 -8.5t-10.5 -5.5t-13 -3t-14.5 -1t-15 -0.5t-14 -0.5q-212 -4 -316 -12q3 -72 -11.5 -254t-4.5 -273q35 0 142 11 t165 4q4 -15 8 -46t8 -46q0 -3 3.5 -15.5t6 -22.5t1 -20.5t-8.5 -13.5q-9 -5 -23 -7t-33 -2.5t-25 -0.5q-58 -4 -240 -9q-1 -52 -1 -64.5t4 -63t5 -64.5q8 -152 19 -217q65 -13 180 -17q35 -2 106 -2q6 0 28.5 1t38 0t27.5 -5q12 -20 15.5 -55t1.5 -65t0 -58 q-66 -8 -297 -5.5t-242 7.5q-20 50 -24 141q-11 162 -11 179q5 157 -2 376q-1 64 -4 194t-4 196zM172.5 1626q0.5 24 15.5 48.5t37 31.5q29 13 62 -16q19 -25 6.5 -56.5t-35.5 -48.5q-42 -11 -64 3t-21.5 38zM362 1616q-21 39 13 70q32 29 70 16q26 -10 40 -41 q19 -42 -20 -66q-23 -15 -56 -9.5t-47 30.5z" />
<glyph unicode="&#xcc;" horiz-adv-x="315" d="M55 1709.5q-6 13.5 0 21.5q4 4 8.5 8t11 6.5t11.5 4.5t13 4t12.5 3t13.5 1.5t12.5 1t12 1t10.5 0.5q12 1 20 -8t12.5 -24.5t6.5 -29t3.5 -30t2.5 -20.5q1 -7 3.5 -26.5t2.5 -26.5t-2 -23q-6 -28 -29.5 -29t-38.5 19q-13 18 -30.5 53.5t-22.5 44.5q-1 2 -14 18.5t-19 30z M66.5 82.5q-0.5 19.5 0 29.5t3 32t2.5 26q12 114 16 418q3 36 0 162.5t-3.5 163t-6 163t-6.5 162.5q0 69 2 104q0 1 -3 34.5t0 53t15 23.5q29 10 96 10q2 0 20 0.5t24 -0.5t17.5 -3.5t16 -10.5t4.5 -20q-1 -29 -5 -85t-5 -83v-181q-1 -54 -7.5 -176.5t-6.5 -187.5 q0 -41 4.5 -171t1.5 -200q-2 -49 -2 -147q0 -11 2 -40t2.5 -45t-1 -39.5t-5.5 -41.5q-31 -22 -146 -27q-10 8 -16.5 21t-9.5 24.5t-3.5 31z" />
<glyph unicode="&#xcd;" horiz-adv-x="335" d="M52 82q-2 55 5 88q13 125 17 418q3 48 0.5 162.5t-4.5 163t-6.5 163t-6.5 162.5q0 69 2 104q0 1 -3 34.5t0 53t16 23.5q29 10 96 10q2 0 20 0.5t24 -0.5t17.5 -3.5t16 -10.5t4.5 -20q-1 -29 -5 -85t-5 -83v-181q-1 -54 -8 -176.5t-7 -187.5q0 -41 4.5 -171t1.5 -200 q-5 -65 -2 -147q0 -9 2 -39.5t2 -46t-1.5 -39t-6.5 -41.5q-30 -22 -145 -27q-26 21 -28 76zM96 1581q-3 33 23 109.5t43 101.5q65 8 119 0q12 -13 -29 -120t-51 -109q-66 -7 -105 18z" />
<glyph unicode="&#xce;" horiz-adv-x="647" d="M52 1634.5q0 8.5 11 20.5l74 74l109 100q14 12 41 31l18 10q17 8 31 -6q124 -124 231 -201q5 -3 23 -21q12 -16 0 -28q-14 -12 -42 -36.5t-42 -35.5q-15 -12 -27 0l-22 17l-105 98q-22 18 -33 20q-9 -7 -50.5 -37.5t-61.5 -48.5l-31 -28q-2 -3 -14 -15q-13 -9 -21 -8.5 t-18 10.5q-42 42 -60 62q-11 14 -11 22.5zM169.5 99.5q0.5 14.5 2.5 38.5t2 32q16 137 16 418q4 217 -16 651q0 69 2 104q0 5 -2 26t-2.5 36.5t4 30.5t14.5 18q29 10 95 10q5 0 18 0.5t19.5 0.5t17 -2t16 -5.5t9.5 -10.5t4 -17q-1 -29 -6.5 -85t-6.5 -83v-181q0 -61 -7 -182 t-7 -182q0 -45 5.5 -173t2.5 -198q-5 -65 -2 -147q0 -8 1.5 -31.5t1.5 -36v-32t-2 -35.5t-5 -31q-30 -22 -145 -27q-12 9 -19 24t-9 35t-1.5 34.5z" />
<glyph unicode="&#xcf;" horiz-adv-x="423" d="M52.5 1616q0.5 24 15 49t36.5 33q32 11 64 -17q19 -26 6 -58t-37 -48q-42 -11 -63.5 3t-21 38zM76.5 80q-0.5 16 2.5 50.5t3 39.5q16 137 16 418q4 217 -16 651q0 69 2 104q0 5 -2 26t-2.5 36.5t4 30.5t14.5 18q29 10 95 10q3 0 21 0.5t24 -0.5t17.5 -3.5t16 -10.5 t4.5 -20q-1 -29 -6 -85t-6 -83v-181q0 -61 -7 -182t-7 -182q0 -45 5.5 -173t2.5 -198q-5 -65 -2 -147q0 -8 1.5 -31.5t1.5 -36v-32t-2 -35.5t-5 -31q-30 -22 -146 -27q-15 12 -22 35t-7.5 39zM244 1608q-21 39 13 69q32 28 70 15q26 -10 40 -41q18 -44 -21 -64 q-23 -15 -55.5 -9.5t-46.5 30.5z" />
<glyph unicode="&#xd0;" horiz-adv-x="831" d="M51 717v102q0 17 6 23q4 2 11 2l86 -4q1 31 3 89t3 105.5t0 89.5q0 25 2.5 85.5t1.5 93.5q-3 40 -1.5 91.5t11.5 88.5q43 18 143 18q114 -4 168 -12q180 -18 232 -100q11 -17 19.5 -36t14.5 -41.5t9.5 -39t6.5 -44.5t4 -41t2.5 -44.5t2.5 -40.5q5 -68 -1.5 -192.5 t-6.5 -164.5q0 -24 1.5 -82.5t2 -91t0 -80.5t-3.5 -88q0 -12 -0.5 -40t-1 -43.5t-3.5 -38t-9 -41.5q-21 -62 -78 -129q-40 -52 -96.5 -71.5t-143.5 -29.5q-250 -12 -274 -10q-7 22 -10 47t-3.5 41t0.5 45t1 41q0 27 2.5 96t1.5 107q-2 55 1.5 160.5t2.5 152.5h-62 q-12 0 -18 -2q-1 -3 -9.5 -0.5t-11.5 2.5q-6 0 -6 27zM307.5 274.5q-0.5 -39.5 1.5 -118.5q9 -1 19.5 -1.5t19 -0.5t21 1t19.5 1.5t21 3t19 3.5t21.5 4.5t19.5 4t20.5 4.5t18.5 4q45 10 64 42t30 89q6 26 9 59.5t4 51t2 63.5t1 54q12 470 13 483q3 105 -21 201 q-12 41 -43.5 65.5t-74 31.5t-81.5 6t-81 -9q-8 -262 -17 -412l-4 -65h140q37 -5 40 -6q2 0 11 -9q6 -3 6 -18q0 -17 1 -53t1 -54q0 -30 -10 -30q-21 0 -29 2q-2 0 -25.5 1.5t-63 4t-69.5 4.5q4 -114 4 -172q-1 -39 -4 -117.5t-3.5 -118z" />
<glyph unicode="&#xd1;" horiz-adv-x="856" d="M51 29q8 16 8 69q0 22 3.5 60.5t3.5 46.5q8 143 6 211q-1 83 4 236.5t6 201.5q1 64 7.5 211t6.5 225v82q0 3 1 16t2 21.5t4 18.5t8 16q11 11 30.5 16t34.5 5.5t41.5 -0.5t32.5 -1q10 -10 16 -25.5t11 -38t8 -30.5l39 -125q2 -7 31.5 -107.5t50.5 -150.5q16 -38 43.5 -112 t42.5 -109q23 -57 47 -104q7 -44 45 -107q5 36 5.5 71.5t-2.5 93t-3 71.5q-1 60 12 235q6 72 14 234q2 37 2 112q0 12 -3 39t-3 48t6 36q16 -3 79.5 -4t86.5 -10q19 -7 23 -18.5t2 -35.5q-6 -41 -6 -129q-7 -86 -27 -516q-4 -73 -9 -272t-13 -297q-2 -22 -1 -88t-4 -90 q-4 -26 -38 -36.5t-71 -7t-56 14.5q-3 7 -9 22t-8 21q-48 118 -211 623q-5 19 -16 62.5t-18.5 70.5t-21.5 62.5t-30 60.5q4 -2 1 -15t-3 -14v-61q3 -52 0 -107q-1 -43 -7.5 -119.5t-8.5 -105.5l-10 -236q-1 -18 -4 -59.5t-4 -65.5t0 -58.5t5 -61.5q-3 -9 -16 -14.5t-26 -6.5 t-30.5 -1.5t-21.5 -0.5q-21 -5 -50.5 -0.5t-37.5 27.5zM129 1646q1 17 8 23q16 19 31 29q60 37 76 41q20 4 35 4q76 -4 116 -31q40 -25 90 -41q1 0 29 -6q37 -6 59 18l37 33q10 8 25 2l4 -4q34 -38 49 -84q-2 -18 -18 -33q-29 -29 -70 -47q-24 -12 -61 -12q-51 0 -90 16 q-8 3 -66 33q-27 16 -33 21q-42 22 -94 6q-21 -3 -35 -21q-1 -1 -3.5 -4t-5 -5.5t-5.5 -4.5q-16 -16 -37 -2l-37 45q-5 7 -4 24z" />
<glyph unicode="&#xd2;" d="M53 870q3 67 0.5 124t5.5 125t29 122q43 93 117 156q78 67 213 67q102 3 190 -92q7 -7 22.5 -21.5t25.5 -26.5t16 -26q15 -33 37 -127q7 -57 7.5 -122.5t-2 -144.5t-1.5 -124q2 -119 -2 -356q0 -33 -0.5 -79t-1.5 -89t-15 -85.5t-41 -66.5q-31 -28 -44 -39t-40.5 -29 t-52.5 -24q-101 -24 -182 -4q-49 9 -72 29q-10 8 -31.5 19.5t-31.5 19.5q-19 14 -35.5 39t-23 38.5t-21.5 49.5q-8 18 -14 38.5t-10.5 35.5t-8.5 39.5t-6 35.5t-4.5 40t-3.5 36t-3.5 40.5t-2.5 37.5q-4 48 -9 194q-5 142 -4 170zM235 737.5q1 -44.5 1.5 -69.5t3.5 -81.5 t4 -72.5q1 -57 2.5 -84t9 -79.5t25.5 -89.5t47 -62q22 -19 63 -27.5t80 1t51 38.5q7 19 11 42.5t7.5 55.5t4.5 43q12 62 12 94q0 10 10 78q14 117 2 350q-1 28 2.5 101t-2 126t-26.5 99q-22 57 -97 76q-73 15 -147 -43q-3 -8 -15.5 -44.5t-19 -60t-10.5 -47.5 q-4 -27 -6.5 -57t-4.5 -72t-3 -59q-3 -37 -4.5 -74t-0.5 -81.5zM305 1741q22 28 103 33h2q12 1 20 -8t12.5 -25t6.5 -29.5t3.5 -31t2.5 -21.5q1 -8 3.5 -25.5t3 -26t-0.5 -24.5q-7 -28 -31 -29t-39 21q-11 17 -29 51.5t-24 44.5q-2 4 -14 19t-18.5 29t-0.5 22z" />
<glyph unicode="&#xd3;" d="M53 870q3 67 0.5 124t5.5 125t29 122q43 93 117 156q78 67 213 67q102 3 190 -92q7 -7 22.5 -21.5t25.5 -26.5t16 -26q15 -33 37 -127q7 -57 7.5 -122.5t-2 -144.5t-1.5 -124q2 -119 -2 -356q0 -33 -0.5 -79t-1.5 -89t-15 -85.5t-41 -66.5q-31 -28 -44 -39t-40.5 -29 t-52.5 -24q-101 -24 -182 -4q-49 9 -72 29q-10 8 -31.5 19.5t-31.5 19.5q-19 14 -35.5 39t-23 38.5t-21.5 49.5q-8 18 -14 38.5t-10.5 35.5t-8.5 39.5t-6 35.5t-4.5 40t-3.5 36t-3.5 40.5t-2.5 37.5q-4 48 -9 194q-5 142 -4 170zM235 737.5q1 -44.5 1.5 -69.5t3.5 -81.5 t4 -72.5q1 -57 2.5 -84t9 -79.5t25.5 -89.5t47 -62q22 -19 63 -27.5t80 1t51 38.5q7 19 11 42.5t7.5 55.5t4.5 43q12 62 12 94q0 10 10 78q14 117 2 350q-1 28 2.5 101t-2 126t-26.5 99q-22 57 -97 76q-73 15 -147 -43q-3 -8 -15.5 -44.5t-19 -60t-10.5 -47.5 q-4 -27 -6.5 -57t-4.5 -72t-3 -59q-3 -37 -4.5 -74t-0.5 -81.5zM375 1575q-3 32 23 109.5t42 99.5q73 9 119 0q12 -13 -29.5 -120.5t-50.5 -107.5q-68 -7 -104 19z" />
<glyph unicode="&#xd4;" d="M53 870q3 67 0.5 124t5.5 125t29 122q43 93 117 156q78 67 213 67q102 3 190 -92q7 -7 22.5 -21.5t25.5 -26.5t16 -26q15 -33 37 -127q7 -57 7.5 -122.5t-2 -144.5t-1.5 -124q2 -119 -2 -356q0 -33 -0.5 -79t-1.5 -89t-15 -85.5t-41 -66.5q-31 -28 -44 -39t-40.5 -29 t-52.5 -24q-101 -24 -182 -4q-49 9 -72 29q-10 8 -31.5 19.5t-31.5 19.5q-19 14 -35.5 39t-23 38.5t-21.5 49.5q-8 18 -14 38.5t-10.5 35.5t-8.5 39.5t-6 35.5t-4.5 40t-3.5 36t-3.5 40.5t-2.5 37.5q-4 48 -9 194q-5 142 -4 170zM143 1581q-19 21 0 43q8 8 22.5 23t27 27.5 t24.5 23.5l107 98q7 7 22 17.5t21 15.5l18 10q16 10 29 -6q121 -124 233 -203q13 -7 21 -18q16 -16 0 -29q-29 -27 -82 -72q-16 -13 -29 0l-20 17l-107 98q-2 1 -7.5 6.5t-11 9t-12.5 5.5q-10 -8 -52 -38.5t-62 -49.5l-29 -27l-14 -14q-13 -11 -21 -10.5t-18 12.5 q-41 37 -60 61zM235 737.5q1 -44.5 1.5 -69.5t3.5 -81.5t4 -72.5q1 -57 2.5 -84t9 -79.5t25.5 -89.5t47 -62q22 -19 63 -27.5t80 1t51 38.5q7 19 11 42.5t7.5 55.5t4.5 43q12 62 12 94q0 10 10 78q14 117 2 350q-1 28 2.5 101t-2 126t-26.5 99q-22 57 -97 76 q-73 15 -147 -43q-3 -8 -15.5 -44.5t-19 -60t-10.5 -47.5q-4 -27 -6.5 -57t-4.5 -72t-3 -59q-3 -37 -4.5 -74t-0.5 -81.5z" />
<glyph unicode="&#xd5;" d="M53 870q3 67 0.5 124t5.5 125t29 122q43 93 117 156q78 67 213 67q102 3 190 -92q7 -7 22.5 -21.5t25.5 -26.5t16 -26q15 -33 37 -127q7 -57 7.5 -122.5t-2 -144.5t-1.5 -124q2 -119 -2 -356q0 -33 -0.5 -79t-1.5 -89t-15 -85.5t-41 -66.5q-31 -28 -44 -39t-40.5 -29 t-52.5 -24q-101 -24 -182 -4q-49 9 -72 29q-10 8 -31.5 19.5t-31.5 19.5q-19 14 -35.5 39t-23 38.5t-21.5 49.5q-8 18 -14 38.5t-10.5 35.5t-8.5 39.5t-6 35.5t-4.5 40t-3.5 36t-3.5 40.5t-2.5 37.5q-4 48 -9 194q-5 142 -4 170zM117.5 1655.5q0.5 16.5 9.5 23.5 q15 18 29 27q5 3 18 11.5t19.5 13t17.5 9.5t20 7q4 1 11.5 2.5t13.5 2.5t10 1q75 -4 119 -31q43 -29 90 -41q5 -3 27 -8q36 -6 59 19l37 32q12 10 27 2l4 -4q28 -28 49 -84q-2 -13 -19 -30q-24 -24 -69 -49q-32 -13 -64 -13q-51 3 -88 17q-5 2 -65 32q-6 3 -17.5 10.5 t-17.5 10.5q-38 21 -94 8q-18 -5 -35 -22q-4 -8 -12 -13q-7 -9 -18.5 -9.5t-18.5 7.5l-37 43q-6 9 -5.5 25.5zM235 737.5q1 -44.5 1.5 -69.5t3.5 -81.5t4 -72.5q1 -57 2.5 -84t9 -79.5t25.5 -89.5t47 -62q22 -19 63 -27.5t80 1t51 38.5q7 19 11 42.5t7.5 55.5t4.5 43 q12 62 12 94q0 10 10 78q14 117 2 350q-1 28 2.5 101t-2 126t-26.5 99q-22 57 -97 76q-73 15 -147 -43q-3 -8 -15.5 -44.5t-19 -60t-10.5 -47.5q-4 -27 -6.5 -57t-4.5 -72t-3 -59q-3 -37 -4.5 -74t-0.5 -81.5z" />
<glyph unicode="&#xd6;" d="M53 870q3 67 0.5 124t5.5 125t29 122q43 93 117 156q78 67 213 67q102 3 190 -92q7 -7 22.5 -21.5t25.5 -26.5t16 -26q15 -33 37 -127q7 -57 7.5 -122.5t-2 -144.5t-1.5 -124q2 -119 -2 -356q0 -33 -0.5 -79t-1.5 -89t-15 -85.5t-41 -66.5q-31 -28 -44 -39t-40.5 -29 t-52.5 -24q-101 -24 -182 -4q-49 9 -72 29q-10 8 -31.5 19.5t-31.5 19.5q-19 14 -35.5 39t-23 38.5t-21.5 49.5q-8 18 -14 38.5t-10.5 35.5t-8.5 39.5t-6 35.5t-4.5 40t-3.5 36t-3.5 40.5t-2.5 37.5q-4 48 -9 194q-5 142 -4 170zM235 737.5q1 -44.5 1.5 -69.5t3.5 -81.5 t4 -72.5q1 -57 2.5 -84t9 -79.5t25.5 -89.5t47 -62q22 -19 63 -27.5t80 1t51 38.5q7 19 11 42.5t7.5 55.5t4.5 43q12 62 12 94q0 10 10 78q14 117 2 350q-1 28 2.5 101t-2 126t-26.5 99q-22 57 -97 76q-73 15 -147 -43q-3 -8 -15.5 -44.5t-19 -60t-10.5 -47.5 q-4 -27 -6.5 -57t-4.5 -72t-3 -59q-3 -37 -4.5 -74t-0.5 -81.5zM237.5 1601.5q0.5 23.5 15 48.5t36.5 33q30 10 63 -16q19 -26 6.5 -58t-36.5 -48q-42 -11 -63.5 3t-21 37.5zM428 1593q-21 39 13 69q32 28 70 15q26 -11 40 -41q18 -43 -21 -63q-22 -15 -55.5 -10.5 t-46.5 30.5z" />
<glyph unicode="&#xd7;" horiz-adv-x="647" d="M51 829q56 68 84 93q8 7 17 8.5t19 -2t19 -8t19.5 -13.5t17.5 -15.5t16.5 -15.5t12.5 -12q18 -17 36.5 -33t27.5 -23l10 -7q5 6 13 16.5t30 37t40.5 46t39 34.5t30.5 13q26 -5 44.5 -16.5t27 -24.5t13 -25t4.5 -20l1 -8q-102 -116 -131 -143q-9 -7 24 -43.5t79.5 -80 t50.5 -48.5q-8 -24 -55.5 -72.5t-65.5 -36.5q-81 57 -158 141q-20 -27 -62 -70t-56 -59q-12 -13 -21 -19.5t-15.5 -9t-14.5 1t-12.5 7.5t-15.5 13.5t-18 15.5q-5 5 -17 13.5t-16.5 13t-9 12.5t0 17t16.5 21q26 29 80.5 86.5t56.5 59.5q-25 21 -80 77.5t-82 77.5z" />
<glyph unicode="&#xd8;" horiz-adv-x="847" d="M59 709l21 180q2 22 8 68t8 69q11 121 82 234q61 88 166 118q50 13 94 13q20 -1 60.5 -1t62.5 -1q13 15 17 55q4 21 12 29q15 18 37 8l88 -45l57 -25v-25l-16 -49q-9 -18 -15 -39q-14 -61 0 -102q30 -124 45 -248q11 -120 11 -325q0 -9 -1 -28t-1 -28q1 -35 -13 -190 q-7 -73 -26 -129q-21 -66 -84 -129q-8 -10 -25 -19q-72 -47 -127 -67q-74 -28 -137 -33q-17 0 -27 -2l-30 -100l-19 -50q-12 -18 -28 -16l-19 6l-74 17q-3 0 -8 1t-8 1q-13 4 -17.5 6t-11.5 8t-4.5 14t4.5 23q2 8 13 61q1 3 5 17t7 22q7 13 13.5 41.5t8.5 34.5q3 15 -6 27 l-28 30q-50 52 -74 144q-17 92 -17 94q-18 199 -4 330zM227 598q2 -19 3 -40.5t1.5 -48t1.5 -40.5q4 -48 13 -74q0 -4 10 -14q5 12 8 25q29 105 53 172q8 22 21.5 67.5t19.5 63.5l35 108q12 30 31 94q45 135 84 283l6 27q-6 4 -10 4h-117q-16 0 -25 -15q-15 -15 -38.5 -45 t-28.5 -35q-26 -36 -29 -81l-10 -74q-18 -79 -18 -162q0 -6 -1 -20.5t-1 -20.5q-10 -147 -9 -174zM401 193q-3 -17 15 -21q7 -5 20 -8q62 -6 117 37q36 27 49 84q7 23 25 102q14 70 12 119q0 65 -2 98l-12 201l-4 41q-5 29 -15 43q-4 -20 -4 -21q-17 -88 -61 -211l-35 -104 q-31 -97 -84 -279q-1 -2 -19 -63q-2 -6 -2 -18z" />
<glyph unicode="&#xd9;" horiz-adv-x="829" d="M53 725q-2 130 8 315q1 36 4.5 113t4.5 117v92q0 5 -5 31.5t-2.5 43t15.5 27.5q86 15 151 -8q6 -78 -5.5 -219.5t-12.5 -187.5q-9 -223 2 -428q2 -40 9.5 -116.5t8.5 -88.5q0 -4 2 -23t3 -26t3.5 -23.5t4.5 -26t5 -23t7.5 -24.5t9.5 -22q22 -44 66.5 -65t94 -17.5 t91.5 27.5q83 51 92 225q3 107 -4 246q-12 364 -20 538q-1 22 -3 66.5t-3 66.5q-1 10 -5.5 39.5t-5.5 44.5t4 37q23 14 91 19q22 5 28 4q4 0 23.5 -10.5t19.5 -12.5q6 -20 9 -43t5 -58t3 -44q19 -228 22 -437q3 -97 2.5 -225t-10.5 -225q-28 -269 -176 -365 q-87 -59 -230 -59q-58 0 -122 45.5t-107 104.5q-6 9 -11.5 20.5t-9 20t-7 23.5t-5 21.5t-4.5 24t-4 21.5q-29 157 -37 444zM313 1704q23 26 101 31h4q12 1 20 -8t12.5 -25t6.5 -29.5t3.5 -31t2.5 -21.5q1 -8 3.5 -25.5t3 -26t-0.5 -24.5q-7 -28 -31 -29t-39 21 q-13 17 -31 53t-22 43q-2 5 -14 20.5t-18.5 29.5t-0.5 22z" />
<glyph unicode="&#xda;" horiz-adv-x="829" d="M53 725q-2 130 8 315q1 36 4.5 113t4.5 117v92q0 5 -5 31.5t-2.5 43t15.5 27.5q86 15 151 -8q6 -78 -5.5 -219.5t-12.5 -187.5q-9 -223 2 -428q2 -40 9.5 -116.5t8.5 -88.5q0 -4 2 -23t3 -26t3.5 -23.5t4.5 -26t5 -23t7.5 -24.5t9.5 -22q22 -44 66.5 -65t94 -17.5 t91.5 27.5q83 51 92 225q3 107 -4 246q-12 364 -20 538q-1 22 -3 66.5t-3 66.5q-1 10 -5.5 39.5t-5.5 44.5t4 37q23 14 91 19q22 5 28 4q4 0 23.5 -10.5t19.5 -12.5q6 -20 9 -43t5 -58t3 -44q19 -228 22 -437q3 -97 2.5 -225t-10.5 -225q-28 -269 -176 -365 q-87 -59 -230 -59q-58 0 -122 45.5t-107 104.5q-6 9 -11.5 20.5t-9 20t-7 23.5t-5 21.5t-4.5 24t-4 21.5q-29 157 -37 444zM346 1550q-4 32 22.5 109t43.5 100q71 9 118 0q12 -12 -28.5 -118.5t-50.5 -108.5q-66 -7 -105 18z" />
<glyph unicode="&#xdb;" horiz-adv-x="829" d="M53 725q-2 130 8 315q1 36 4.5 113t4.5 117v92q0 5 -5 31.5t-2.5 43t15.5 27.5q86 15 151 -8q6 -78 -5.5 -219.5t-12.5 -187.5q-9 -223 2 -428q2 -40 9.5 -116.5t8.5 -88.5q0 -4 2 -23t3 -26t3.5 -23.5t4.5 -26t5 -23t7.5 -24.5t9.5 -22q22 -44 66.5 -65t94 -17.5 t91.5 27.5q83 51 92 225q3 107 -4 246q-12 364 -20 538q-1 22 -3 66.5t-3 66.5q-1 10 -5.5 39.5t-5.5 44.5t4 37q23 14 91 19q22 5 28 4q4 0 23.5 -10.5t19.5 -12.5q6 -20 9 -43t5 -58t3 -44q19 -228 22 -437q3 -97 2.5 -225t-10.5 -225q-28 -269 -176 -365 q-87 -59 -230 -59q-58 0 -122 45.5t-107 104.5q-6 9 -11.5 20.5t-9 20t-7 23.5t-5 21.5t-4.5 24t-4 21.5q-29 157 -37 444zM150 1650.5q0 8.5 10 20.5q7 7 32.5 34t40.5 40l107 100q7 5 21.5 15.5t21.5 15.5l18 12q17 6 31 -8q128 -128 232 -201q16 -12 22 -20q13 -16 0 -29 q-14 -11 -42 -35l-42 -36q-15 -12 -27 0l-22 16l-104 98q-23 19 -33 21q-99 -74 -113 -86l-31 -29l-14 -14q-13 -9 -21 -8.5t-18 10.5q-45 45 -59 63q-10 12 -10 20.5z" />
<glyph unicode="&#xdc;" horiz-adv-x="780" d="M53 1446q-3 15 38 29t79.5 15t52.5 -13q13 -46 91.5 -294t86.5 -253q11 16 92.5 266.5t81.5 278.5q9 16 30.5 17t37.5 -5q4 0 41 1t39 -5q9 -4 0 -43t-25.5 -87.5t-17.5 -54.5q-5 -20 -53.5 -183.5t-90.5 -312.5t-44 -171q0 -1 0.5 -38t0.5 -87.5t0.5 -115.5t0 -127 t-1.5 -116t-3.5 -88.5t-5.5 -38.5q-4 -5 -13.5 -5.5t-21 1t-16.5 0.5q-3 0 -25 -4.5t-34 -3.5q-7 8 -8 67.5t1 135t1 92.5q-7 180 -17 315q-9 64 -37 125q-15 32 -75.5 196t-85.5 239q-7 26 -25.5 73.5t-22.5 57.5q-4 11 -12 33.5t-12 33.5q-3 11 -13.5 34t-13.5 36z M264.5 1589q0.5 24 15.5 48.5t37 31.5q29 13 62 -16q19 -25 6.5 -56.5t-35.5 -48.5q-42 -11 -64 3t-21.5 38zM455 1579q-21 39 13 70q32 29 70 16q26 -11 40 -41q18 -41 -21 -65q-23 -15 -55.5 -10t-46.5 30z" />
<glyph unicode="&#xdd;" horiz-adv-x="780" d="M53 1446q-3 15 38 29t79.5 15t52.5 -13q13 -46 91.5 -294t86.5 -253q11 16 92.5 266.5t81.5 278.5q9 16 30.5 17t37.5 -5q4 0 41 1t39 -5q9 -4 0 -43t-25.5 -87.5t-17.5 -54.5q-5 -20 -53.5 -183.5t-90.5 -312.5t-44 -171q0 -1 0.5 -38t0.5 -87.5t0.5 -115.5t0 -127 t-1.5 -116t-3.5 -88.5t-5.5 -38.5q-4 -5 -13.5 -5.5t-21 1t-16.5 0.5q-3 0 -25 -4.5t-34 -3.5q-7 8 -8 67.5t1 135t1 92.5q-7 180 -17 315q-9 64 -37 125q-15 32 -75.5 196t-85.5 239q-7 26 -25.5 73.5t-22.5 57.5q-4 11 -12 33.5t-12 33.5q-3 11 -13.5 34t-13.5 36z M332 1554q-4 32 21.5 109t41.5 100q73 9 121 0q12 -14 -29.5 -119.5t-52.5 -107.5q-66 -7 -102 18z" />
<glyph unicode="&#xde;" horiz-adv-x="696" d="M52 368q0 104 1 163t4 187.5t4 166.5q0 58 1.5 128t7.5 188.5t21 195.5t38 78q10 1 22 1t27 -0.5t23 -0.5q13 0 39 -11q2 -9 3 -25.5t3 -23.5q129 33 194 12q83 -27 133 -110q51 -87 63 -191.5t5 -238.5q-1 -11 -1.5 -100t-8.5 -134q-24 -114 -80 -184 q-42 -54 -102 -85.5t-125 -27.5q-20 1 -53 13.5t-48 15.5q-4 -250 -10 -377q-87 -8 -145 0q-8 84 -12 170t-4 190zM216.5 663q0.5 -13 4 -35t10.5 -38q87 -92 166 -62q64 45 84 166q28 180 11 398q-6 76 -60 151q-22 35 -58.5 40t-72.5 -17q-19 -10 -32 -24.5t-20.5 -36 t-10.5 -37t-7 -42.5q-8 -57 -10.5 -120t-2.5 -142.5t-1 -118.5q0 -6 -0.5 -37.5t0 -44.5z" />
<glyph unicode="&#xdf;" horiz-adv-x="890" d="M53 649l4 193l4 198q0 125 5 215q7 99 22 168q15 68 59.5 111.5t114.5 58.5q93 24 195 2q85 -15 145 -84q83 -99 103 -213q1 -5 12 -51q11 -55 8 -114q-3 -79 -43 -140q-6 -8 -20 -22t-21 -23l47 -49q49 -46 80 -113q44 -93 55 -176q15 -108 15 -127q3 -180 -99 -290 q-54 -54 -96 -84q-33 -26 -61 -33q-77 -27 -105 -31q-66 -16 -143 0q-19 0 -27 23q-7 17 -4 32q2 33 10 113q3 19 9 24.5t24 2.5q34 -7 90 -7q20 0 70 13q56 15 90 61q31 42 39 86q20 80 2 168q-3 18 -8 54t-8 53q-13 107 -119 192q-14 10 -45 19q-55 17 -103 14 q-29 0 -38.5 9t-12.5 40q-1 21 8 90q11 54 64 43q51 -14 104 12q47 24 60 80q4 14 8 54q6 40 -25 104q-3 15 -12 27q-1 2 -7 12t-11 14q-26 28 -64.5 35t-73.5 -8q-39 -16 -63 -51q-28 -40 -37 -66.5t-10 -81.5q-1 -25 -6 -77.5t-6 -77.5t1 -78v-152v-35q0 -68 9 -98 q1 -7 2 -20t2 -19q12 -303 12 -305q3 -39 -2 -186q0 -33 2 -49q0 -23 -12 -35q-2 -5 -15 -11l-129 -6q-4 0 -9 2.5l-7 3.5q-8 14 -8 50l-12 135q-5 45 -5 61q-1 18 -1.5 51t-1.5 61t-3 52q-5 78 -2 176z" />
<glyph unicode="&#xe0;" horiz-adv-x="675" d="M53 432q7 99 49 177t125 112q78 33 142 22q2 0 23.5 -5t41 -9.5t19.5 -3.5q26 45 11.5 109.5t-65.5 85.5q-22 10 -38 6t-24.5 -13.5t-15.5 -27t-11.5 -33.5t-12 -33.5t-16.5 -27.5q-97 -10 -121 16q-14 56 8 114.5t65 100.5t102.5 63t113.5 7q123 -33 153 -185 q36 -187 12 -297q2 0 2 2q1 -47 0.5 -70.5t-3 -70.5t-3.5 -70v-233q0 -6 1.5 -30.5t1.5 -42t-3.5 -38.5t-14 -32.5t-28.5 -10.5q-9 0 -41 -10t-47 -4q-7 3 -11.5 8.5t-6 10t-3.5 16t-3 16.5q-10 -7 -25.5 -16.5t-55 -23t-67.5 -9.5q-38 6 -76.5 27.5t-64.5 50.5 q-19 19 -55 65q-8 12 -14 28t-12 37.5t-9 29.5q-26 101 -23 192zM221 395q-6 -134 38 -198q37 -55 99 -27q55 24 81 85.5t26 133.5q0 35 -2 61t-9.5 61t-26 59.5t-46.5 35.5q-59 0 -100 -26q-2 0 -2 -2h-3l-4 -5q0 -1 -1 -2t-1 -2l-4 -4q-39 -50 -45 -170zM266 565l15 15 l-2 -2h-3l-4 -5l-2 -4zM276 1380q21 26 103 31h2q12 1 20 -8t12.5 -24.5t6.5 -29.5t3.5 -30.5t2.5 -20.5q1 -8 3.5 -26t3 -26.5t-0.5 -22.5q-7 -28 -31 -29.5t-39 18.5q-11 17 -28.5 52t-24.5 47q-2 4 -14 19t-18.5 28.5t-0.5 21.5z" />
<glyph unicode="&#xe1;" horiz-adv-x="675" d="M53 432q7 99 49 177t125 112q78 33 142 22q2 0 23.5 -5t41 -9.5t19.5 -3.5q26 45 11.5 109.5t-65.5 85.5q-22 10 -38 6t-24.5 -13.5t-15.5 -27t-11.5 -33.5t-12 -33.5t-16.5 -27.5q-97 -10 -121 16q-14 56 8 114.5t65 100.5t102.5 63t113.5 7q123 -33 153 -185 q36 -187 12 -297q2 0 2 2q1 -47 0.5 -70.5t-3 -70.5t-3.5 -70v-233q0 -6 1.5 -30.5t1.5 -42t-3.5 -38.5t-14 -32.5t-28.5 -10.5q-9 0 -41 -10t-47 -4q-7 3 -11.5 8.5t-6 10t-3.5 16t-3 16.5q-10 -7 -25.5 -16.5t-55 -23t-67.5 -9.5q-38 6 -76.5 27.5t-64.5 50.5 q-19 19 -55 65q-8 12 -14 28t-12 37.5t-9 29.5q-26 101 -23 192zM221 395q-6 -134 38 -198q37 -55 99 -27q55 24 81 85.5t26 133.5q0 35 -2 61t-9.5 61t-26 59.5t-46.5 35.5q-59 0 -100 -26q-2 0 -2 -2l-7 -5q0 -1 -1 -2t-1 -2l-4 -4q-39 -50 -45 -170zM266 565l15 15l-2 -2 q-2 0 -7 -5l-2 -4zM326 1212q-4 33 21 109.5t42 101.5q65 8 121 0q12 -13 -30 -120t-52 -109q-66 -7 -102 18z" />
<glyph unicode="&#xe2;" horiz-adv-x="729" d="M53 432q7 99 49 177t125 112q78 33 142 22q2 0 23.5 -5t41 -9.5t19.5 -3.5q26 45 11.5 109.5t-65.5 85.5q-22 10 -38 6t-24.5 -13.5t-15.5 -27t-11.5 -33.5t-12 -33.5t-16.5 -27.5q-97 -10 -121 16q-14 56 8 114.5t65 100.5t102.5 63t113.5 7q123 -33 153 -185 q36 -187 12 -297q2 0 2 2q1 -47 0.5 -70.5t-3 -70.5t-3.5 -70v-233q0 -6 1.5 -30.5t1.5 -42t-3.5 -38.5t-14 -32.5t-28.5 -10.5q-9 0 -41 -10t-47 -4q-7 3 -11.5 8.5t-6 10t-3.5 16t-3 16.5q-10 -7 -25.5 -16.5t-55 -23t-67.5 -9.5q-38 6 -76.5 27.5t-64.5 50.5 q-19 19 -55 65q-8 12 -14 28t-12 37.5t-9 29.5q-26 101 -23 192zM145 1253q-19 21 0 43q11 10 23.5 22.5t27.5 28t23 23.5l107 98q7 6 21.5 16.5t21.5 16.5l18 10q17 9 31 -8q127 -127 231 -200q12 -6 23 -21q6 -6 6 -14t-6 -13q-64 -55 -84 -71q-15 -15 -27 0l-22 16 l-105 98q-3 2 -9 7t-11.5 8t-12.5 4q-93 -69 -112 -86l-31 -27q-4 -6 -14 -16q-13 -9 -21 -8.5t-18 10.5q-49 49 -60 63zM221 395q-6 -134 38 -198q37 -55 99 -27q55 24 81 85.5t26 133.5q0 35 -2 61t-9.5 61t-26 59.5t-46.5 35.5q-59 0 -100 -26q-2 0 -2 -2l-7 -5 q0 -1 -1 -2t-1 -2l-4 -4q-39 -50 -45 -170zM266 565l15 15l-2 -2q-2 0 -7 -5l-2 -4z" />
<glyph unicode="&#xe3;" horiz-adv-x="735" d="M53 432q7 99 49 177t125 112q78 33 142 22q2 0 23.5 -5t41 -9.5t19.5 -3.5q26 45 11.5 109.5t-65.5 85.5q-22 10 -38 6t-24.5 -13.5t-15.5 -27t-11.5 -33.5t-12 -33.5t-16.5 -27.5q-97 -10 -121 16q-14 56 8 114.5t65 100.5t102.5 63t113.5 7q123 -33 153 -185 q36 -187 12 -297q2 0 2 2q1 -47 0.5 -70.5t-3 -70.5t-3.5 -70v-233q0 -6 1.5 -30.5t1.5 -42t-3.5 -38.5t-14 -32.5t-28.5 -10.5q-9 0 -41 -10t-47 -4q-7 3 -11.5 8.5t-6 10t-3.5 16t-3 16.5q-10 -7 -25.5 -16.5t-55 -23t-67.5 -9.5q-38 6 -76.5 27.5t-64.5 50.5 q-19 19 -55 65q-8 12 -14 28t-12 37.5t-9 29.5q-26 101 -23 192zM125 1256.5q1 16.5 8 23.5q8 11 29 27q7 4 23 14t28.5 16.5t24.5 10.5q2 0 15 3t19 3q76 -4 119 -33q35 -23 90 -41q5 -1 14.5 -3t14.5 -3q35 -7 57 18l37 33q13 10 27 2l4 -4q34 -38 49 -84q-2 -17 -18 -33 q-32 -29 -70 -47q-30 -12 -64 -12q-58 4 -88 16q-15 5 -39.5 19t-25.5 14q-14 7 -35 21q-38 21 -92 8q-19 -5 -37 -23q-5 -9 -12 -14q-17 -17 -37 0l-37 43q-5 9 -4 25.5zM221 395q-6 -134 38 -198q37 -55 99 -27q55 24 81 85.5t26 133.5q0 35 -2 61t-9.5 61t-26 59.5 t-46.5 35.5q-59 0 -100 -26q-2 0 -2 -2h-3l-4 -5q0 -1 -1 -2t-1 -2l-4 -4q-39 -50 -45 -170zM266 565l15 15l-2 -2h-3l-4 -5l-2 -4z" />
<glyph unicode="&#xe4;" horiz-adv-x="675" d="M53 432q7 99 49 177t125 112q78 33 142 22q2 0 23.5 -5t41 -9.5t19.5 -3.5q26 45 11.5 109.5t-65.5 85.5q-22 10 -38 6t-24.5 -13.5t-15.5 -27t-11.5 -33.5t-12 -33.5t-16.5 -27.5q-97 -10 -121 16q-14 56 8 114.5t65 100.5t102.5 63t113.5 7q123 -33 153 -185 q36 -187 12 -297q2 0 2 2q1 -47 0.5 -70.5t-3 -70.5t-3.5 -70v-233q0 -6 1.5 -30.5t1.5 -42t-3.5 -38.5t-14 -32.5t-28.5 -10.5q-9 0 -41 -10t-47 -4q-7 3 -11.5 8.5t-6 10t-3.5 16t-3 16.5q-10 -7 -25.5 -16.5t-55 -23t-67.5 -9.5q-38 6 -76.5 27.5t-64.5 50.5 q-19 19 -55 65q-8 12 -14 28t-12 37.5t-9 29.5q-26 101 -23 192zM221 395q-6 -134 38 -198q37 -55 99 -27q55 24 81 85.5t26 133.5q0 35 -2 61t-9.5 61t-26 59.5t-46.5 35.5q-59 0 -100 -26q-2 0 -2 -2l-7 -5q0 -1 -1 -2t-1 -2l-4 -4q-39 -50 -45 -170zM238.5 1251 q0.5 24 14.5 49t36 33q30 10 63 -16q19 -26 7 -58t-35 -49q-42 -11 -64 3t-21.5 38zM266 565l15 15l-2 -2q-2 0 -7 -5l-2 -4zM428 1243q-21 39 13 69q32 28 70 15q26 -11 40 -41q20 -42 -21 -63q-22 -15 -55 -10.5t-47 30.5z" />
<glyph unicode="&#xe5;" horiz-adv-x="675" d="M53 432q7 99 49 177t125 112q78 33 142 22q2 0 23.5 -5t41 -9.5t19.5 -3.5q26 45 11.5 109.5t-65.5 85.5q-22 10 -38 6t-24.5 -13.5t-15.5 -27t-11.5 -33.5t-12 -33.5t-16.5 -27.5q-97 -10 -121 16q-14 56 8 114.5t65 100.5t102.5 63t113.5 7q123 -33 153 -185 q36 -187 12 -297q2 0 2 2q1 -47 0.5 -70.5t-3 -70.5t-3.5 -70v-233q0 -6 1.5 -30.5t1.5 -42t-3.5 -38.5t-14 -32.5t-28.5 -10.5q-9 0 -41 -10t-47 -4q-7 3 -11.5 8.5t-6 10t-3.5 16t-3 16.5q-10 -7 -25.5 -16.5t-55 -23t-67.5 -9.5q-38 6 -76.5 27.5t-64.5 50.5 q-19 19 -55 65q-8 12 -14 28t-12 37.5t-9 29.5q-26 101 -23 192zM221 395q-6 -134 38 -198q37 -55 99 -27q55 24 81 85.5t26 133.5q0 35 -2 61t-9.5 61t-26 59.5t-46.5 35.5q-59 0 -100 -26q-2 0 -2 -2h-3l-4 -5q0 -1 -1 -2t-1 -2l-4 -4q-39 -50 -45 -170zM225 1348l8 53 q14 88 109 119q59 19 118.5 -2.5t92.5 -81.5q20 -39 20 -84q3 -74 -45 -138q-25 -37 -68.5 -55t-88.5 -8q-53 12 -85.5 43.5t-52.5 85.5q-13 34 -8 68zM266 565l15 15l-2 -2h-3l-4 -5l-2 -4zM346 1335q5 -16 8 -20q13 -26 43 -23q2 1 7 3t11.5 4t10.5 4q27 17 20 43 q-3 11 -21 27t-28 16q-5 0 -8 -3q-26 -13 -27 -14q-19 -14 -16 -37z" />
<glyph unicode="&#xe6;" horiz-adv-x="1114" d="M57 428q2 47 25 129q7 19 25.5 51t23.5 43q11 28 49 62q62 60 168 73q9 1 20 0t24.5 -3t19.5 -3t15.5 -5t14.5 -5q7 5 7 16l-5 97q0 14 -16 26q-23 13 -43 13q-28 0 -58 -23.5t-36 -50.5q-2 -4 -2 -10q-11 -41 -56 -35q-34 10 -77 26q-15 6 -15 27q3 35 17 62 q10 23 30 63q4 4 12.5 13.5t12.5 13.5l53 51q47 37 127 37q108 -3 178 -68l60 33q3 1 11 7t13 7q128 34 222 -12q38 -18 61 -51q50 -62 78 -172q6 -39 22 -117q0 -10 4 -14q18 -56 0 -146q-4 -24 -14.5 -31.5t-36.5 -9.5q-7 0 -21.5 1t-21.5 1l-96 8q-50 5 -68 5 q-3 0 -7.5 1t-6.5 1l-113 -13q-8 -16 -8 -65l6 -86q0 -49 13 -103q3 -25 18 -43q21 -33 64 -55q40 -15 77 -4q46 9 62 59q17 43 20 99l4 30q3 24 29 21q24 -3 94 -21q16 -2 21 -26q12 -42 0 -84l-21 -86l-8 -25q-33 -87 -129 -125q-49 -17 -111 -20q-36 -2 -96 35 q-5 4 -14.5 13.5t-15.5 14.5q-3 -32 -9 -57q-2 -13 -5.5 -18t-16.5 -5q-34 -3 -74 0q-7 0 -20.5 2.5t-20.5 2.5q-31 -3 -37 28l-6 6q-8 3 -27 -6q-123 -55 -235 19q-99 65 -139 198q-28 92 -15 203zM213 475q-30 -106 12 -203q31 -66 94 -94q72 -28 130 15q20 17 20 49 l-4 127h2q-2 20 -2 63q0 55 -2 82q-3 49 -45 66q-50 20 -60 22q-30 10 -71 -10q-39 -17 -54 -62q-7 -15 -20 -55zM641 829q2 -27 2 -75l4 -27q2 0 7.5 -1t7.5 -1h227v16q-6 49 -41 131q-12 20 -35 37q-53 30 -108 9q-70 -25 -64 -89z" />
<glyph unicode="&#xe7;" horiz-adv-x="616" d="M51 552.5q0 45.5 2 81.5t6 71q7 59 24 114.5t45.5 110.5t76.5 91t108 42q64 9 136 -23q19 -9 34.5 -17t37 -22.5t33 -31.5t9.5 -33q-3 -16 -19 -33.5t-40.5 -37t-30.5 -25.5q-10 -10 -29 1.5t-40 31t-29 22.5q-20 12 -38 8.5t-32.5 -10t-27 -24.5t-22 -35t-18 -42.5 t-14 -45t-10.5 -44t-7.5 -39.5t-4.5 -30q-2 -11 -7 -46t-7 -50.5l-6 -46.5t-4.5 -50.5t-0.5 -46t3 -49.5t9 -45q25 -103 99 -139q79 -38 135 51q13 21 31 21t31 -10t30 -29q59 -65 -6 -127q-72 -66 -166 -66q3 -26 31 -43q6 -4 37 -35q11 -11 20 -33q25 -46 -4 -86 q-26 -37 -53 -53q-44 -27 -70 -35q-64 -23 -143 -26h-19q-18 4 -20 16q-6 12 -6 27q-2 21 -19 75q-3 18 5.5 29t25.5 10l53 -4h37q26 7 31 25q10 20 -10 31l-33 12l-29 8q-5 18 -5.5 55t-6.5 56q-11 2 5 6q7 2 19 4q-127 73 -131 293q0 12 -2.5 71t-3 81.5t-0.5 68z" />
<glyph unicode="&#xe8;" horiz-adv-x="690" d="M51 582q0 65 9 128.5t32 130.5t58.5 117.5t93 82.5t129.5 32q42 0 76 -11.5t56.5 -27.5t40 -45.5t26.5 -51t16.5 -60.5t9.5 -58.5l6 -58.5q10 -92 10 -170q0 -37 -2 -55q0 -17 -106 -17h-47q-29 -2 -96.5 -11t-102.5 -9h-18q-25 0 -25 -11q0 -1 -0.5 -24t-0.5 -42 t2 -50.5t6 -56.5t13.5 -53t23 -47t35 -31.5t48.5 -12.5t48 9.5t32.5 21t21.5 34t13 36.5t8.5 42t7.5 37h19q40 0 92.5 -24.5t52.5 -53.5q0 -80 -46 -144t-114.5 -96t-142.5 -32q-55 0 -99 22.5t-73 58.5t-51 88t-33.5 102t-18 111.5t-8.5 106t-2 93.5zM221 672q41 -8 101 -8 q61 0 151 12q4 20 4 31q0 23 -12 73q-27 131 -96 131q-34 0 -61 -18t-41.5 -42t-25 -61.5t-14 -61t-6.5 -56.5zM268 1380q21 26 103 31h2q12 1 20 -8t12.5 -24.5t6.5 -29.5t3.5 -30.5t2.5 -20.5q1 -8 3.5 -26t3 -26.5t-0.5 -22.5q-7 -28 -31 -29.5t-39 18.5q-11 17 -28.5 52 t-24.5 47q-2 4 -14 19t-18.5 28.5t-0.5 21.5z" />
<glyph unicode="&#xe9;" horiz-adv-x="690" d="M51 582q0 65 9 128.5t32 130.5t58.5 117.5t93 82.5t129.5 32q42 0 76 -11.5t56.5 -27.5t40 -45.5t26.5 -51t16.5 -60.5t9.5 -58.5l6 -58.5q10 -92 10 -170q0 -37 -2 -55q0 -17 -106 -17h-47q-29 -2 -96.5 -11t-102.5 -9h-18q-25 0 -25 -11q0 -1 -0.5 -24t-0.5 -42 t2 -50.5t6 -56.5t13.5 -53t23 -47t35 -31.5t48.5 -12.5t48 9.5t32.5 21t21.5 34t13 36.5t8.5 42t7.5 37h19q40 0 92.5 -24.5t52.5 -53.5q0 -80 -46 -144t-114.5 -96t-142.5 -32q-55 0 -99 22.5t-73 58.5t-51 88t-33.5 102t-18 111.5t-8.5 106t-2 93.5zM221 672q41 -8 101 -8 q61 0 151 12q4 20 4 31q0 23 -12 73q-27 131 -96 131q-34 0 -61 -18t-41.5 -42t-25 -61.5t-14 -61t-6.5 -56.5zM317 1212q-4 33 21.5 109.5t42.5 101.5q65 8 121 0q12 -13 -30 -120t-52 -109q-67 -7 -103 18z" />
<glyph unicode="&#xea;" horiz-adv-x="720" d="M51 582q0 65 9 128.5t32 130.5t58.5 117.5t93 82.5t129.5 32q42 0 76 -11.5t56.5 -27.5t40 -45.5t26.5 -51t16.5 -60.5t9.5 -58.5l6 -58.5q10 -92 10 -170q0 -37 -2 -55q0 -17 -106 -17h-47q-29 -2 -96.5 -11t-102.5 -9h-18q-25 0 -25 -11q0 -1 -0.5 -24t-0.5 -42 t2 -50.5t6 -56.5t13.5 -53t23 -47t35 -31.5t48.5 -12.5t48 9.5t32.5 21t21.5 34t13 36.5t8.5 42t7.5 37h19q40 0 92.5 -24.5t52.5 -53.5q0 -80 -46 -144t-114.5 -96t-142.5 -32q-55 0 -99 22.5t-73 58.5t-51 88t-33.5 102t-18 111.5t-8.5 106t-2 93.5zM137 1253q-19 21 0 43 l74 74l106 98q7 6 21.5 16.5t21.5 16.5l19 10q17 9 31 -8q127 -127 231 -200q12 -6 23 -21q6 -6 6 -14t-6 -13q-63 -55 -84 -71q-15 -15 -27 0l-23 16l-104 98q-3 2 -9 7t-11.5 8t-12.5 4q-93 -69 -112 -86l-31 -27q-4 -6 -14 -16q-13 -9 -21 -8.5t-18 10.5q-49 49 -60 63z M221 672q41 -8 101 -8q61 0 151 12q4 20 4 31q0 23 -12 73q-27 131 -96 131q-34 0 -61 -18t-41.5 -42t-25 -61.5t-14 -61t-6.5 -56.5z" />
<glyph unicode="&#xeb;" horiz-adv-x="690" d="M51 582q0 65 9 128.5t32 130.5t58.5 117.5t93 82.5t129.5 32q42 0 76 -11.5t56.5 -27.5t40 -45.5t26.5 -51t16.5 -60.5t9.5 -58.5l6 -58.5q10 -92 10 -170q0 -37 -2 -55q0 -17 -106 -17h-47q-29 -2 -96.5 -11t-102.5 -9h-18q-25 0 -25 -11q0 -1 -0.5 -24t-0.5 -42 t2 -50.5t6 -56.5t13.5 -53t23 -47t35 -31.5t48.5 -12.5t48 9.5t32.5 21t21.5 34t13 36.5t8.5 42t7.5 37h19q40 0 92.5 -24.5t52.5 -53.5q0 -80 -46 -144t-114.5 -96t-142.5 -32q-55 0 -99 22.5t-73 58.5t-51 88t-33.5 102t-18 111.5t-8.5 106t-2 93.5zM221 672q41 -8 101 -8 q61 0 151 12q4 20 4 31q0 23 -12 73q-27 131 -96 131q-34 0 -61 -18t-41.5 -42t-25 -61.5t-14 -61t-6.5 -56.5zM232.5 1282.5q15.5 36.5 46.5 48.5q31 10 61 -16q16 -16 12.5 -37.5t-15.5 -40.5t-26 -29q-56 -14 -75 12t-3.5 62.5zM416 1241q-21 39 14 69q32 28 69 15 q27 -9 40 -41q19 -40 -19 -63q-24 -15 -57 -10t-47 30z" />
<glyph unicode="&#xec;" horiz-adv-x="305" d="M52.5 1333.5q-4.5 11.5 2.5 16.5q19 25 101 30h4q8 0 15 -4.5t11 -13.5t7 -18t5 -22.5t3 -21.5t1.5 -20t0.5 -14q1 -7 4 -24.5t3.5 -26.5t-1.5 -25q-6 -28 -29.5 -29t-38.5 21q-10 13 -19 29.5t-18.5 37t-15.5 31.5q-2 3 -11 14t-14.5 19.5t-10 20zM67 67q-1 32 2 74 t3 58q0 225 2 338q0 29 1.5 121.5t0.5 142.5l-4 139q0 10 -1.5 35t-1 44t4.5 34q4 0 26 3.5t43.5 5.5t45.5 3.5t40.5 -2t18.5 -12.5q3 -14 3.5 -32t0 -30t-2 -34.5t-1.5 -30.5q-2 -61 -10 -177.5t-9 -134.5q-4 -64 -5 -135t-0.5 -157t-0.5 -132q-3 -68 4 -116 q5 -13 3.5 -39.5t-19.5 -30.5q-26 -4 -78 0q-8 0 -27 5t-22 5q-2 0 -4.5 -1t-3.5 -1q-8 25 -9 57z" />
<glyph unicode="&#xed;" horiz-adv-x="321" d="M52 67q-1 32 2 74t3 58q0 225 2 338q0 29 1.5 121.5t0.5 142.5l-4 139q0 10 -1.5 35t-1 44t4.5 34q4 0 26 3.5t43.5 5.5t45.5 3.5t40.5 -2t18.5 -12.5q3 -14 3.5 -32t0 -30t-2 -34.5t-1.5 -30.5q-1 -17 -18 -312q-4 -64 -5 -135t-0.5 -157t-0.5 -132q-3 -68 4 -116 q5 -13 3.5 -39.5t-19.5 -30.5q-26 -4 -78 0q-8 0 -27 5t-22 5q-2 0 -5 -1t-4 -1q-8 25 -9 57zM82 1194q-3 33 23 109.5t42 101.5q65 8 119 0q12 -13 -29 -120t-51 -109q-65 -7 -104 18z" />
<glyph unicode="&#xee;" horiz-adv-x="647" d="M63 1217q-19 21 0 43q12 11 36 35.5t38 37.5l107 99q6 6 21.5 16.5t21.5 15.5l18 11q16 10 29 -9q122 -122 233 -200q14 -7 21 -21q8 -6 8 -13.5t-8 -12.5q-29 -27 -82 -72q-16 -13 -29 0l-20 16l-107 99q-1 1 -7 6.5t-11.5 8t-12.5 3.5q-12 -9 -37 -26.5t-43 -31.5 t-34 -28l-29 -27q-2 -3 -7 -8t-7 -8q-13 -9 -21 -8.5t-18 10.5q-46 46 -60 64zM212 67q-1 32 2 74t3 58q0 225 2 338q0 29 1.5 121.5t0.5 142.5l-4 139q0 10 -1.5 35t-1 44t4.5 34q4 0 26 3.5t43.5 5.5t45.5 3.5t40.5 -2t18.5 -12.5q3 -14 3.5 -32t0 -30t-2 -34.5 t-1.5 -30.5q-1 -17 -18 -312q-4 -64 -5 -135t-0.5 -157t-0.5 -132q-3 -68 4 -116q5 -13 3.5 -39.5t-20.5 -30.5q-26 -4 -77 0q-8 0 -27.5 5t-22.5 5q-2 0 -4.5 -1t-3.5 -1q-8 25 -9 57z" />
<glyph unicode="&#xef;" horiz-adv-x="423" d="M52.5 1203q0.5 24 15 48.5t36.5 32.5q30 13 64 -16q19 -24 6 -56.5t-37 -48.5q-42 -11 -63.5 2.5t-21 37.5zM126 67q-1 32 2 74t3 58q0 225 2 338q0 29 1.5 121.5t0.5 142.5l-4 139q0 10 -1.5 35t-1 44t4.5 34q4 0 26 3.5t43.5 5.5t45.5 3.5t40.5 -2t18.5 -12.5 q3 -14 3.5 -32t0 -30t-2 -34.5t-1.5 -30.5q-1 -17 -18 -312q-4 -64 -5 -135t-0.5 -157t-0.5 -132q-3 -68 4 -116q5 -13 3.5 -39.5t-20.5 -30.5q-26 -4 -77 0q-8 0 -27.5 5t-22.5 5q-2 0 -4.5 -1t-3.5 -1q-8 25 -9 57zM244 1194q-21 39 13 70q32 29 70 16q26 -10 40 -41 q16 -42 -21 -65q-23 -15 -56 -10t-46 30z" />
<glyph unicode="&#xf0;" horiz-adv-x="724" d="M51 469q0 320 133 436q29 25 60 39q151 49 245 12q14 110 -20 232q-8 27 -18 37q-1 -17 2 -49.5t1 -55.5t-12 -41q-64 -28 -163 -2q-2 21 4.5 77t-2.5 71q-3 -2 -9.5 -5t-9.5 -5t-7 -5t-6.5 -7t-4.5 -9q-6 -14 -5.5 -43t-2.5 -37q-7 -13 -18 -15t-30 1q-50 4 -73 4 q-6 0 -18.5 -2t-18 -2.5t-13 3t-12.5 11.5q8 126 64.5 210.5t161.5 113.5q-14 76 8 161q8 5 16.5 5t18.5 -2.5t16 -2.5q10 0 21.5 6t17.5 7q14 0 31 -11t22 -22q11 -19 9 -65.5t3 -67.5q2 -7 52 -19q18 -9 41 -32q61 -58 77 -111q50 -179 56 -283q6 -283 4 -327 q-1 -17 -3.5 -95.5t-4.5 -111t-10.5 -101.5t-21 -109.5t-36.5 -90t-57 -84.5q-53 -63 -119 -82q-73 -24 -146.5 1.5t-121.5 88.5q-101 125 -101 379zM199 492q3 -86 24 -166q24 -99 74 -146q20 -19 42 -20t41.5 14t35 33t28.5 41q42 80 58 235q14 145 -29 244 q-8 19 -30.5 35.5t-41.5 21.5q-39 16 -92 1t-69 -54q-17 -33 -25 -74q-19 -79 -16 -165z" />
<glyph unicode="&#xf1;" horiz-adv-x="665" d="M53 137q1 24 4 67t4 62q4 39 9 236q1 88 10 264t10 264q9 12 27 18t42 9.5t31 5.5q35 9 48.5 -12.5t13.5 -57.5q63 37 128.5 37.5t125.5 -41.5q50 -39 59 -108q3 -17 10.5 -51.5t12 -62t6.5 -52.5q4 -65 8 -187.5t6 -169.5q6 -93 -2 -176q-2 -22 -2 -78.5t-6 -85.5 q-6 -3 -14.5 -3.5t-14.5 0t-17 2t-15 1.5q-8 2 -28.5 2t-29.5 3q-8 3 -12 9t-5 14.5t-0.5 14.5t2 16.5t1.5 14.5q6 119 6 121q6 81 10 238q0 172 -12 239q-1 10 -3 39t-5 47.5t-10 41t-21 37t-35 19.5q-15 5 -29 5t-26 -4.5t-21.5 -10.5t-20 -17t-17 -19t-17 -21.5 t-16.5 -20.5q-4 -5 -7.5 -11.5t-6 -11.5t-4 -14t-2.5 -14t-2 -15.5t-1.5 -14t-1 -15.5t-0.5 -14l-10 -131q-1 -27 -7 -118t-7 -142q0 -23 0.5 -69t1 -74.5t-1.5 -68t-6 -73.5q-24 2 -46 0.5t-46.5 0.5t-39.5 11q-6 30 -7.5 65.5t-0.5 59.5zM53.5 1220q0.5 17 7.5 23 q16 19 31 29q8 4 23 14t27.5 16.5t25.5 10.5q20 4 35 4q70 0 116 -31q40 -25 93 -41q4 -1 13 -3t13 -3q38 -7 60 18l37 33q10 10 24 2l4 -4q31 -35 51 -84q-2 -13 -18 -33q-27 -27 -72 -47q-24 -12 -61 -12q-60 4 -88 16q-14 5 -37 17.5t-31 15.5q-27 16 -33 21 q-40 22 -94 6q-21 -3 -35 -21q-2 -2 -6 -7t-6 -7q-19 -16 -37 -2l-37 45q-6 7 -5.5 24z" />
<glyph unicode="&#xf2;" horiz-adv-x="710" d="M68 289q-54 411 84 626q44 66 114.5 88t143.5 -6q67 -24 109.5 -66.5t70.5 -109.5q52 -118 63 -297q8 -103 4 -155q-1 -13 -7 -35t-7 -27q-3 -9 -4.5 -29t-9.5 -30q-24 -99 -74 -166q-23 -33 -57 -55q-4 -1 -19 -7.5t-22.5 -9t-10.5 3.5q-19 -14 -55.5 -14.5t-56.5 8.5 l-53 8q-8 1 -15.5 4t-17 8.5t-15.5 8.5q-144 61 -165 252zM193 479q4 -23 4.5 -64.5t3.5 -60.5q16 -143 61 -184q29 -25 81.5 -32.5t82.5 16.5q14 12 23 29.5t13.5 46t6 41.5t2 49.5t0.5 37.5q4 157 0 238q-10 94 -16 119q-3 10 -8 43.5t-15 52.5q-1 1 -5 9t-5 9.5t-5 8 t-6 8t-6 6.5t-7 6.5l-8 4t-10 3.5t-11 2q-48 8 -86 -30q-32 -32 -47 -97q0 -1 -13.5 -49t-17.5 -71q-20 -85 -12 -142zM268 1380q21 26 103 31h2q12 1 20 -8t12.5 -24.5t6.5 -29.5t3.5 -30.5t2.5 -20.5q1 -8 3.5 -26t3 -26.5t-0.5 -22.5q-7 -28 -31 -29.5t-39 18.5 q-11 17 -28.5 52t-24.5 47q-2 4 -14 19t-18.5 28.5t-0.5 21.5z" />
<glyph unicode="&#xf3;" horiz-adv-x="710" d="M68 289q-54 411 84 626q44 66 114.5 88t143.5 -6q67 -24 109.5 -66.5t70.5 -109.5q52 -118 63 -297q8 -103 4 -155q-1 -13 -7 -35t-7 -27q-3 -9 -4.5 -29t-9.5 -30q-24 -99 -74 -166q-23 -33 -57 -55q-4 -1 -19 -7.5t-22.5 -9t-10.5 3.5q-19 -14 -55.5 -14.5t-56.5 8.5 l-53 8q-8 1 -15.5 4t-17 8.5t-15.5 8.5q-144 61 -165 252zM193 479q4 -23 4.5 -64.5t3.5 -60.5q16 -143 61 -184q29 -25 81.5 -32.5t82.5 16.5q14 12 23 29.5t13.5 46t6 41.5t2 49.5t0.5 37.5q4 157 0 238q-10 94 -16 119q-3 10 -8 43.5t-15 52.5q-1 1 -5 9t-5 9.5t-5 8 t-6 8t-6 6.5t-7 6.5l-8 4t-10 3.5t-11 2q-48 8 -86 -30q-32 -32 -47 -97q0 -1 -13.5 -49t-17.5 -71q-20 -85 -12 -142zM317 1212q-4 33 21.5 109.5t42.5 101.5q65 8 121 0q12 -13 -30 -120t-52 -109q-67 -7 -103 18z" />
<glyph unicode="&#xf4;" horiz-adv-x="720" d="M68 289q-54 411 84 626q44 66 114.5 88t143.5 -6q67 -24 109.5 -66.5t70.5 -109.5q52 -118 63 -297q8 -103 4 -155q-1 -13 -7 -35t-7 -27q-3 -9 -4.5 -29t-9.5 -30q-24 -99 -74 -166q-23 -33 -57 -55q-4 -1 -19 -7.5t-22.5 -9t-10.5 3.5q-19 -14 -55.5 -14.5t-56.5 8.5 l-53 8q-8 1 -15.5 4t-17 8.5t-15.5 8.5q-144 61 -165 252zM137 1253q-19 21 0 43l74 74l106 98q7 6 21.5 16.5t21.5 16.5l19 10q17 9 31 -8q127 -127 231 -200q12 -6 23 -21q6 -6 6 -14t-6 -13q-63 -55 -84 -71q-15 -15 -27 0l-23 16l-104 98q-3 2 -9 7t-11.5 8t-12.5 4 q-93 -69 -112 -86l-31 -27q-4 -6 -14 -16q-13 -9 -21 -8.5t-18 10.5q-49 49 -60 63zM193 479q4 -23 4.5 -64.5t3.5 -60.5q16 -143 61 -184q29 -25 81.5 -32.5t82.5 16.5q14 12 23 29.5t13.5 46t6 41.5t2 49.5t0.5 37.5q4 157 0 238q-10 94 -16 119q-3 10 -8 43.5t-15 52.5 q-1 1 -5 9t-5 9.5t-5 8t-6 8t-6 6.5t-7 6.5l-8 4t-10 3.5t-11 2q-48 8 -86 -30q-32 -32 -47 -97q0 -1 -13.5 -49t-17.5 -71q-20 -85 -12 -142z" />
<glyph unicode="&#xf5;" horiz-adv-x="710" d="M51.5 1220q0.5 17 7.5 23q16 19 31 29q8 4 23 14t27.5 16.5t25.5 10.5q20 4 35 4q70 0 116 -31q40 -25 93 -41q4 -1 13 -3t13 -3q38 -7 60 18l36 33q11 11 25 2l4 -4q31 -35 51 -84q-2 -13 -18 -33q-27 -27 -72 -47q-24 -12 -61 -12q-60 4 -88 16q-14 5 -37 17.5 t-31 15.5q-27 16 -33 21q-40 22 -94 6q-21 -3 -35 -21q-2 -2 -6 -7t-6 -7q-19 -16 -37 -2l-37 45q-6 7 -5.5 24zM68 289q-54 411 84 626q44 66 114.5 88t143.5 -6q67 -24 109.5 -66.5t70.5 -109.5q52 -118 63 -297q8 -103 4 -155q-1 -13 -7 -35t-7 -27q-3 -9 -4.5 -29 t-9.5 -30q-24 -99 -74 -166q-23 -33 -57 -55q-4 -1 -19 -7.5t-22.5 -9t-10.5 3.5q-19 -14 -55.5 -14.5t-56.5 8.5l-53 8q-8 1 -15.5 4t-17 8.5t-15.5 8.5q-144 61 -165 252zM193 479q4 -23 4.5 -64.5t3.5 -60.5q16 -143 61 -184q29 -25 81.5 -32.5t82.5 16.5q14 12 23 29.5 t13.5 46t6 41.5t2 49.5t0.5 37.5q4 157 0 238q-10 94 -16 119q-3 10 -8 43.5t-15 52.5q-1 1 -5 9t-5 9.5t-5 8t-6 8t-6 6.5t-7 6.5l-8 4t-10 3.5t-11 2q-48 8 -86 -30q-32 -32 -47 -97q0 -1 -13.5 -49t-17.5 -71q-20 -85 -12 -142z" />
<glyph unicode="&#xf6;" horiz-adv-x="710" d="M68 289q-54 411 84 626q44 66 114.5 88t143.5 -6q67 -24 109.5 -66.5t70.5 -109.5q52 -118 63 -297q8 -103 4 -155q-1 -13 -7 -35t-7 -27q-3 -9 -4.5 -29t-9.5 -30q-24 -99 -74 -166q-23 -33 -57 -55q-4 -1 -19 -7.5t-22.5 -9t-10.5 3.5q-19 -14 -55.5 -14.5t-56.5 8.5 l-53 8q-8 1 -15.5 4t-17 8.5t-15.5 8.5q-144 61 -165 252zM193 479q4 -23 4.5 -64.5t3.5 -60.5q16 -143 61 -184q29 -25 81.5 -32.5t82.5 16.5q14 12 23 29.5t13.5 46t6 41.5t2 49.5t0.5 37.5q4 157 0 238q-10 94 -16 119q-3 10 -8 43.5t-15 52.5q-1 1 -5 9t-5 9.5t-5 8 t-6 8t-6 6.5t-7 6.5l-8 4t-10 3.5t-11 2q-48 8 -86 -30q-32 -32 -47 -97q0 -1 -13.5 -49t-17.5 -71q-20 -85 -12 -142zM232.5 1282.5q15.5 36.5 46.5 48.5q31 10 61 -16q16 -16 12.5 -37.5t-15.5 -40.5t-26 -29q-56 -14 -75 12t-3.5 62.5zM416 1241q-21 39 14 69 q32 28 69 15q27 -9 40 -41q19 -40 -19 -63q-24 -15 -57 -10t-47 30z" />
<glyph unicode="&#xf7;" horiz-adv-x="714" d="M51 584v112q0 24 8 29q2 2 11 2l127 -4h387q16 -2 53 -10q4 0 16 -6q6 -3 6 -21q5 -102 5 -121q0 -35 -15 -35q-27 0 -39 2q-3 1 -70 5.5t-146 9t-99 6.5q-27 2 -93.5 2.5t-90.5 -0.5q-17 0 -25 -4q-4 -2 -27 4q-8 0 -8 29zM279 946q14 44 71 58h2q17 3 35.5 -9t24.5 -28 q10 -20 5 -44.5t-22 -39.5q-5 -7 -18 -16.5t-23 -10.5q-35 0 -60 27.5t-15 62.5zM294 330.5q-8 36.5 7 62.5q16 26 47 33t53 -14q13 -13 23.5 -38t9.5 -48l4 4q2 0 0 -2q0 -3 -3 -12t-5 -11q-12 -24 -45.5 -31.5t-56.5 5.5q-26 15 -34 51.5zM346 1004h6h-6zM348 1004h2h-2z " />
<glyph unicode="&#xf8;" horiz-adv-x="790" d="M60 589q18 142 75 265q31 68 94 128.5t127 59.5q19 -1 46.5 -4.5t45.5 -6.5l17 -3q61 115 65 127q18 3 38 -0.5t44.5 -11.5t36.5 -10l2 -5q2 -4 4 -4q-3 -32 -17.5 -76t-27.5 -72l-14 -28q-1 -1 19 -23t43 -46.5t26 -28.5q35 -58 43 -111q28 -157 -12 -336q0 -6 -4 -26 q-1 -3 -7.5 -31.5t-8.5 -35t-8.5 -32t-10.5 -35.5t-11 -32t-14 -34t-16 -29.5t-19 -31t-22 -26.5q-54 -51 -111 -74q-59 -23 -139 -6q-33 -118 -49 -149q-10 -4 -92 31t-92 42q6 28 22 78.5t29 87.5l12 37q-41 43 -57 66q-35 50 -47 112q-28 132 -10 274zM207 413.5 q1 -48.5 7 -61.5l5 -14q20 46 66.5 200t70.5 203q4 20 15.5 53.5t21.5 56.5l10 23l-12 -2q-1 1 0 3q2 4 -2 4q-23 5 -39 -1t-22 -14t-17 -26q-28 -51 -58.5 -138t-37.5 -143q-9 -95 -8 -143.5zM385 178q9 -4 37 10q43 23 77 60t44 76q25 89 37 174.5t6 126.5 q-5 35 -15.5 69.5t-16.5 51.5l-7 16q-14 -63 -96 -332q-7 -25 -23.5 -78t-27 -94t-15.5 -80z" />
<glyph unicode="&#xf9;" horiz-adv-x="774" d="M52.5 752.5q0.5 136.5 2.5 181.5q0 102 6 137q31 13 84.5 12t87.5 -12q5 -3 6 -23t-1 -26q-2 -16 -14.5 -271.5t-12.5 -287.5q0 -11 -1 -56t3 -73t16 -55q14 -32 25 -48q11 -11 37.5 -21.5t72 -14t93.5 19.5q32 17 47 59q21 55 24 136q2 87 2.5 104.5t-2 105t-2.5 105.5 q-4 188 -20 309q-3 46 55 49q11 0 35 3t31 4q63 0 71 -3q4 -4 4.5 -59.5t-1 -115t0.5 -103.5q1 -41 -4 -264q-1 -91 11 -257.5t14 -234.5q-4 -1 -5 -2.5t-2 -4.5t-3 -5q-12 -9 -31.5 -12t-36.5 -2t-35 0q-15 -1 -25 4t-13 9t-9 18.5t-8 19.5q1 -3 -11 -15t-16 -14 q-26 -22 -45 -29q-9 -4 -21 -7t-28.5 -5.5t-21.5 -3.5q-34 -9 -72 -6q-69 6 -131 43q-43 21 -84 80q-9 12 -16.5 28.5t-10 24t-10.5 32.5t-8 27q-16 42 -22 212.5t-5.5 307zM272 1380q22 25 105 31q12 1 20 -8t12.5 -24.5t6.5 -29.5t3.5 -30.5t2.5 -20.5q1 -8 3.5 -26 t3 -26.5t-0.5 -22.5q-7 -28 -31 -29.5t-39 18.5q-11 17 -28.5 52t-24.5 47q-2 4 -14 19t-18.5 28.5t-0.5 21.5z" />
<glyph unicode="&#xfa;" horiz-adv-x="774" d="M52.5 752.5q0.5 136.5 2.5 181.5q0 102 6 137q31 13 84.5 12t87.5 -12q5 -3 6 -23t-1 -26q-2 -16 -14.5 -271.5t-12.5 -287.5q0 -11 -1 -56t3 -73t16 -55q14 -32 25 -48q11 -11 37.5 -21.5t72 -14t93.5 19.5q32 17 47 59q21 55 24 136q2 87 2.5 104.5t-2 105t-2.5 105.5 q-4 188 -20 309q-3 46 55 49q11 0 35 3t31 4q63 0 71 -3q4 -4 4.5 -59.5t-1 -115t0.5 -103.5q1 -41 -4 -264q-1 -91 11 -257.5t14 -234.5q-4 -1 -5 -2.5t-2 -4.5t-3 -5q-12 -9 -31.5 -12t-36.5 -2t-35 0q-15 -1 -25 4t-13 9t-9 18.5t-8 19.5q1 -3 -11 -15t-16 -14 q-26 -22 -45 -29q-9 -4 -21 -7t-28.5 -5.5t-21.5 -3.5q-34 -9 -72 -6q-69 6 -131 43q-43 21 -84 80q-9 12 -16.5 28.5t-10 24t-10.5 32.5t-8 27q-16 42 -22 212.5t-5.5 307zM319 1202q-4 32 22 109t42 100q73 9 121 0q12 -13 -30 -119t-52 -108q-67 -7 -103 18z" />
<glyph unicode="&#xfb;" horiz-adv-x="774" d="M52.5 752.5q0.5 136.5 2.5 181.5q0 102 6 137q31 13 84.5 12t87.5 -12q5 -3 6 -23t-1 -26q-2 -16 -14.5 -271.5t-12.5 -287.5q0 -11 -1 -56t3 -73t16 -55q14 -32 25 -48q11 -11 37.5 -21.5t72 -14t93.5 19.5q32 17 47 59q21 55 24 136q2 87 2.5 104.5t-2 105t-2.5 105.5 q-4 188 -20 309q-3 46 55 49q11 0 35 3t31 4q63 0 71 -3q4 -4 4.5 -59.5t-1 -115t0.5 -103.5q1 -41 -4 -264q-1 -91 11 -257.5t14 -234.5q-4 -1 -5 -2.5t-2 -4.5t-3 -5q-12 -9 -31.5 -12t-36.5 -2t-35 0q-15 -1 -25 4t-13 9t-9 18.5t-8 19.5q1 -3 -11 -15t-16 -14 q-26 -22 -45 -29q-9 -4 -21 -7t-28.5 -5.5t-21.5 -3.5q-34 -9 -72 -6q-69 6 -131 43q-43 21 -84 80q-9 12 -16.5 28.5t-10 24t-10.5 32.5t-8 27q-16 42 -22 212.5t-5.5 307zM141 1253q-19 21 0 43l74 74l107 98q7 6 21.5 16.5t21.5 16.5l18 10q17 9 31 -8q127 -127 231 -200 q12 -6 23 -21q6 -6 6 -14t-6 -13q-64 -55 -84 -71q-15 -15 -27 0l-22 16l-105 98q-3 2 -9 7t-11.5 8t-12.5 4q-93 -69 -112 -86l-31 -27q-4 -6 -14 -16q-13 -9 -21 -8.5t-18 10.5q-49 49 -60 63z" />
<glyph unicode="&#xfc;" horiz-adv-x="774" d="M52.5 752.5q0.5 136.5 2.5 181.5q0 102 6 137q31 13 84.5 12t87.5 -12q5 -3 6 -23t-1 -26q-2 -16 -14.5 -271.5t-12.5 -287.5q0 -11 -1 -56t3 -73t16 -55q14 -32 25 -48q11 -11 37.5 -21.5t72 -14t93.5 19.5q32 17 47 59q21 55 24 136q2 87 2.5 104.5t-2 105t-2.5 105.5 q-4 188 -20 309q-3 46 55 49q11 0 35 3t31 4q63 0 71 -3q4 -4 4.5 -59.5t-1 -115t0.5 -103.5q1 -41 -4 -264q-1 -91 11 -257.5t14 -234.5q-4 -1 -5 -2.5t-2 -4.5t-3 -5q-12 -9 -31.5 -12t-36.5 -2t-35 0q-15 -1 -25 4t-13 9t-9 18.5t-8 19.5q1 -3 -11 -15t-16 -14 q-26 -22 -45 -29q-9 -4 -21 -7t-28.5 -5.5t-21.5 -3.5q-34 -9 -72 -6q-69 6 -131 43q-43 21 -84 80q-9 12 -16.5 28.5t-10 24t-10.5 32.5t-8 27q-16 42 -22 212.5t-5.5 307zM236.5 1282.5q15.5 36.5 46.5 48.5q31 10 61 -16q16 -16 12.5 -37.5t-15.5 -40.5t-26 -29 q-56 -14 -75 12t-3.5 62.5zM420 1241q-21 39 14 69q32 28 69 15q27 -9 40 -41q19 -40 -19 -63q-24 -15 -57 -10t-47 30z" />
<glyph unicode="&#xfd;" horiz-adv-x="763" d="M93.5 1014q-0.5 52 6.5 76q60 -4 129 0q17 -45 18 -112t-5 -114q-1 -49 7.5 -195t16.5 -196q1 -11 3.5 -37.5t4.5 -41t8 -35.5t15 -37q12 -26 36.5 -48t47.5 -22q22 0 51 21.5t37 35.5q9 14 15.5 31.5t9 30.5t5.5 34t5 31q5 27 1.5 258t-9.5 275q-5 40 -2 53q1 6 -2 30.5 t2 26.5q43 22 155 13q15 -64 17.5 -137.5t-0.5 -166.5t-2 -139l4 -131q2 -52 -3.5 -148t-5.5 -134q0 -39 -4 -117q-2 -86 -49 -203q-20 -52 -53.5 -89t-62 -53.5t-65.5 -25.5t-48.5 -9.5t-26.5 -0.5q-12 2 -53.5 20.5t-54.5 28.5q-4 3 -11.5 8t-10.5 7.5t-5.5 8t-3.5 13.5 q0 13 12 31q2 3 13 21t20 31t20 26.5t17 15.5q8 -5 22.5 -14.5t22 -14t22 -11.5t24 -6.5t26.5 1.5q38 9 57.5 58t19.5 97q-64 -36 -132.5 -24.5t-125.5 59.5q-56 50 -79 123t-35 178q-4 29 -7 62.5t-4.5 57.5t-2.5 65.5t-1 58v66v59.5q1 21 -2.5 109.5t-4 140.5zM317 1196 q-4 32 22 109t42 100q75 9 121 0q12 -14 -29.5 -119.5t-52.5 -107.5q-65 -7 -103 18z" />
<glyph unicode="&#xfe;" horiz-adv-x="655" d="M53 635q-7 230 10 424q13 137 13 188q0 17 -3.5 53.5t-3 65t8.5 53.5q18 15 55 18.5t60 -5.5q49 -17 26 -170q-2 -10 -2 -63v-100.5t-2 -47.5q66 13 127 11.5t118 -32t89 -88.5q67 -115 51 -334q-5 -69 -20 -178q-2 -16 -7.5 -72.5t-12 -93t-17.5 -69.5q-16 -51 -47 -84 q-29 -29 -47 -39q-3 -3 -14.5 -7.5t-16.5 -11.5l-36 -4.5t-41 -4t-36 -0.5t-41 4.5t-35 12.5q-1 -5 0.5 -97t1 -180.5t-5.5 -92.5q-110 -18 -139 -2q-12 6 -12 366l-4 119q-15 387 -17 461zM195.5 801q-1.5 -31 1.5 -56q2 -47 2 -139q1 -42 5 -125t5 -125q4 -73 18 -98 q16 -26 33 -35t49 -14q93 -15 113 88q15 86 18 256.5t4 185.5q1 40 -0.5 65t-16.5 56.5t-44 46.5q-46 24 -96.5 7.5t-77.5 -60.5q-12 -22 -13.5 -53z" />
<glyph unicode="&#xff;" horiz-adv-x="679" d="M52.5 1014q-0.5 52 6.5 76q60 -4 129 0q17 -45 18 -112t-5 -114q-1 -49 7.5 -195t16.5 -196q1 -11 3.5 -37.5t4.5 -41t8 -35.5t15 -37q12 -26 36.5 -48t47.5 -22q22 0 51 21.5t37 35.5q9 14 15.5 31.5t9 30.5t5.5 34t5 31q5 27 1.5 258t-9.5 275q-5 40 -2 53q1 6 -2 30.5 t2 26.5q43 22 155 13q15 -64 17.5 -137.5t-0.5 -166.5t-2 -139l4 -131q2 -52 -3.5 -148t-5.5 -134q0 -39 -4 -117q-2 -86 -49 -203q-20 -52 -53.5 -89t-62 -53.5t-65.5 -25.5t-48.5 -9.5t-26.5 -0.5q-12 2 -53.5 20.5t-54.5 28.5q-4 3 -11.5 8t-10.5 7.5t-5.5 8t-3.5 13.5 q0 13 12 31q2 3 13 21t20 31t20 26.5t17 15.5q8 -5 22.5 -14.5t22 -14t22 -11.5t24 -6.5t26.5 1.5q38 9 57.5 58t19.5 97q-64 -36 -132.5 -24.5t-125.5 59.5q-56 50 -79 123t-35 178q-4 29 -7 62.5t-4.5 57.5t-2.5 65.5t-1 58v66v59.5q1 21 -2.5 109.5t-4 140.5zM197.5 1254 q15.5 36 46.5 46q28 13 61 -16q15 -15 11.5 -36t-15 -39.5t-25.5 -28.5q-56 -14 -75 12t-3.5 62zM381 1210q-21 39 13 70q32 29 70 16q26 -10 40 -41q18 -41 -21 -65q-23 -15 -55.5 -10t-46.5 30z" />
<glyph unicode="&#x152;" horiz-adv-x="1257" d="M94 831q-3 90 8 220q0 5 3.5 15t3.5 11q2 9 8.5 38.5t12 48.5t13.5 36l45 84q6 12 15 21q69 65 121 86q8 4 23 10.5t23.5 10.5t21 8t24.5 5q8 2 22 2q58 0 99 -8q49 -8 94 -47q1 -1 3.5 -4t4 -4.5t5.5 -3t9 -0.5v16v41q0 27 9 37.5t32 15.5q63 17 109 17h153 q57 -4 172 -4q28 0 25 -27q0 -4 -1 -11t-1 -11q-6 -25 -6 -80q1 -21 -5.5 -29t-27.5 -10q-40 -6 -115 -10l-149 -7q-17 -1 -22 -7t-7 -23q-2 -18 -2 -56q-8 -123 -10 -182q0 -53 -2 -82q0 -49 -4 -147q0 -35 10 -58q14 -10 49 -10q36 0 98 4q36 4 52 -6q12 -22 12 -61v-60 q0 -20 -8 -26.5t-29 -8.5q-35 0 -113 -4q-31 0 -51 -10q-2 -6 -2 -18q5 -172 8 -207q4 -34 5.5 -100.5t5.5 -100.5q18 -4 51 -4q83 3 151 -2q13 -1 84 4q15 2 21 -2.5t6 -17.5q9 -58 12 -121q3 -27 -28 -27q-36 0 -52 4q-47 7 -122 0q-90 -13 -173 2h-34q-9 0 -28 -1t-28 -1 q-15 0 -21 5t-7 20q-4 12 -4 37q0 41 -2 61q0 11 -2 21l-19 -11l-43 -39q-62 -55 -121 -55q-46 -10 -90.5 -1t-101.5 32q-22 8 -39 29q-59 62 -98 161q-37 92 -46 201l-8 152v88q0 108 -2 161zM266 705l13 -275q3 -102 61 -192q24 -33 61 -54q25 -19 60 -16q100 10 141 82 l25 37q21 35 24 71v150q0 26 -1 81t-1 81q0 24 2 72.5t2 74.5q0 29 -0.5 83t-0.5 98.5t1 84.5q0 62 -51 123q-15 15 -43 29q-82 36 -178 -6q-21 -8 -39 -33l-29 -51q-31 -44 -34 -109q-7 -72 -7 -123q-6 -108 -6 -208z" />
<glyph unicode="&#x153;" horiz-adv-x="1191" d="M100 647q11 94 37 209q15 75 74 164q47 71 133 92q66 12 102 12q81 3 154 -63l51 -45q3 3 10.5 7t10.5 7q51 34 88 43q102 23 188 -41q57 -38 107 -129q8 -16 12 -43q15 -73 18 -151q3 -69 9 -148v-18q-4 -17 -21 -21q-4 -2 -12 -2q-58 -4 -90 -4h-242q-28 0 -33.5 -5.5 t-5.5 -33.5q0 -111 12 -219q0 -3 5 -18q5 -60 79 -74q18 -2 56 -2q37 3 57 29q22 32 29 73q1 13 3 36.5t3 35.5q2 20 24 20l109 -4q22 -3 27 -22q10 -49 2 -86q-5 -15 -15 -50t-19.5 -60t-21.5 -46q-33 -59 -93.5 -92.5t-127.5 -26.5q-101 14 -176 56q-24 14 -45 32 q-43 -47 -127 -66t-139 -3q-16 3 -25 10q-101 59 -153 152q-28 52 -37 106q-39 185 -17 389zM243.5 529q0.5 -16 2.5 -31l6 -115q6 -78 37 -154q19 -41 54 -60t79 1q6 0 8 2q41 11 57 57q28 80 37 158q2 24 5.5 71.5t5.5 69.5q2 33 2 103q4 53 2 80q0 24 -9 94q-3 28 -20 47 q-50 76 -148 70q-36 -6 -55 -33q-19 -29 -22 -66l-13 -53q-3 -6 -8 -31q-1 -8 -5 -35.5t-5.5 -38t-4 -33.5t-3.5 -36t-2 -32t-0.5 -35zM684 719q0 -7 6 -19q18 2 58 2l153 -8q14 -2 20 3t7 18q2 18 2 55q3 82 -66 141q-25 21 -45 21q-81 10 -117 -55q-11 -16 -14 -39 q-14 -51 -4 -119z" />
<glyph unicode="&#x178;" horiz-adv-x="862" d="M94 1446q-3 15 38 29t79.5 15t52.5 -13q13 -46 91.5 -294t86.5 -253q11 16 92.5 266.5t81.5 278.5q9 16 30.5 17t37.5 -5q4 0 41 1t39 -5q9 -4 0 -43t-25.5 -87.5t-17.5 -54.5q-5 -21 -53.5 -184t-91 -312t-44.5 -171q0 -1 0.5 -38t1 -88t0.5 -115.5v-126.5t-1 -115.5 t-3.5 -88.5t-5.5 -39q-4 -5 -13.5 -5.5t-21 1t-16.5 0.5q-3 0 -25 -4.5t-34 -3.5q-7 8 -8 67.5t1 135t1 92.5q-7 180 -17 315q-9 64 -37 125q-15 32 -75.5 196t-85.5 239q-7 26 -25.5 73.5t-22.5 57.5q-4 11 -12 33.5t-12 33.5q-3 11 -13.5 34t-13.5 36zM284 1653.5 q15 36.5 46 48.5q30 10 63 -16q19 -26 6 -58.5t-37 -48.5q-55 -14 -74 12t-4 62.5zM469 1612q-21 39 13 69q32 28 70 15q26 -11 40 -41q18 -44 -21 -64q-22 -15 -55.5 -10t-46.5 31z" />
<glyph unicode="&#x2c6;" horiz-adv-x="727" d="M92 1226.5q0 8.5 10 20.5q8 8 23 23.5t27.5 28t23.5 22.5l109 100q14 12 41 31l18 12q17 6 31 -8q124 -124 231 -201q15 -9 23 -20q13 -16 0 -29q-14 -11 -42 -35l-42 -36q-15 -12 -27 0l-22 16l-105 98q-2 1 -8 7t-11.5 9t-13.5 5q-9 -7 -50.5 -37.5t-61.5 -48.5 l-31 -29l-14 -14q-13 -9 -21 -8.5t-18 10.5q-49 49 -60 63q-10 12 -10 20.5z" />
<glyph unicode="&#x2dc;" horiz-adv-x="745" d="M92.5 1367q0.5 17 7.5 24q16 16 31 26q8 4 23 14t27.5 16.5t25.5 10.5q30 6 35 6q74 -4 116 -32q40 -25 93 -41q4 -1 13 -3.5t13 -3.5q37 -6 60 19l36 33q11 11 25 2l4 -4q31 -35 51 -84q-2 -13 -18 -33q-33 -30 -72 -47q-32 -13 -61 -13q-58 3 -88 17q-14 5 -37 17.5 t-31 15.5q-32 19 -33 20q-39 21 -94 8q-23 -6 -35 -22q-2 -2 -6 -7.5t-6 -7.5q-20 -17 -37 0l-37 43q-6 9 -5.5 26z" />
<glyph unicode="&#x2000;" horiz-adv-x="953" />
<glyph unicode="&#x2001;" horiz-adv-x="1906" />
<glyph unicode="&#x2002;" horiz-adv-x="953" />
<glyph unicode="&#x2003;" horiz-adv-x="1906" />
<glyph unicode="&#x2004;" horiz-adv-x="635" />
<glyph unicode="&#x2005;" horiz-adv-x="476" />
<glyph unicode="&#x2006;" horiz-adv-x="317" />
<glyph unicode="&#x2007;" horiz-adv-x="317" />
<glyph unicode="&#x2008;" horiz-adv-x="238" />
<glyph unicode="&#x2009;" horiz-adv-x="381" />
<glyph unicode="&#x200a;" horiz-adv-x="105" />
<glyph unicode="&#x2010;" horiz-adv-x="796" d="M92 584q1 16 1 34.5t-0.5 41.5t-0.5 36q0 24 8 29q2 2 11 2l127 -4h387q16 -2 53 -10q4 0 16 -6q6 -3 6 -21q5 -102 5 -121q0 -35 -15 -35q-27 0 -39 2q-3 1 -70 5.5t-146 9t-99 6.5q-27 2 -93.5 2.5t-90.5 -0.5q-17 0 -25 -4q-4 -2 -27 4q-8 0 -8 29z" />
<glyph unicode="&#x2011;" horiz-adv-x="796" d="M92 584q1 16 1 34.5t-0.5 41.5t-0.5 36q0 24 8 29q2 2 11 2l127 -4h387q16 -2 53 -10q4 0 16 -6q6 -3 6 -21q5 -102 5 -121q0 -35 -15 -35q-27 0 -39 2q-3 1 -70 5.5t-146 9t-99 6.5q-27 2 -93.5 2.5t-90.5 -0.5q-17 0 -25 -4q-4 -2 -27 4q-8 0 -8 29z" />
<glyph unicode="&#x2012;" horiz-adv-x="796" d="M92 584q1 16 1 34.5t-0.5 41.5t-0.5 36q0 24 8 29q2 2 11 2l127 -4h387q16 -2 53 -10q4 0 16 -6q6 -3 6 -21q5 -102 5 -121q0 -35 -15 -35q-27 0 -39 2q-3 1 -70 5.5t-146 9t-99 6.5q-27 2 -93.5 2.5t-90.5 -0.5q-17 0 -25 -4q-4 -2 -27 4q-8 0 -8 29z" />
<glyph unicode="&#x2013;" horiz-adv-x="796" d="M92 584q1 16 1 34.5t-0.5 41.5t-0.5 36q0 24 8 29q2 2 11 2l127 -4h387q16 -2 53 -10q4 0 16 -6q6 -3 6 -21q5 -102 5 -121q0 -35 -15 -35q-27 0 -39 2q-3 1 -70 5.5t-146 9t-99 6.5q-27 2 -93.5 2.5t-90.5 -0.5q-17 0 -25 -4q-4 -2 -27 4q-8 0 -8 29z" />
<glyph unicode="&#x2014;" horiz-adv-x="1187" d="M94.5 596.5q0.5 8.5 1 20t0.5 14.5q1 10 -1.5 41t1.5 41q5 6 13 9t14.5 3.5t16.5 1t14 0.5q8 0 23.5 1t23.5 1q24 2 71.5 4t51.5 2q165 0 251 -2q51 0 281 -10q43 -2 131 -2q10 0 31 -1.5t37 -1t30 4.5q7 -22 7 -105q0 -3 2 -27.5t0 -40.5t-9 -24q-104 0 -296 25t-275 29 q-133 3 -289 -7l-69 -4q-4 0 -15.5 -2t-21.5 -2t-17 4q-4 2 -6 10.5t-1.5 17z" />
<glyph unicode="&#x2018;" horiz-adv-x="358" d="M96 1391q3 3 9.5 24t19.5 31q4 13 17 23.5t30 3.5q7 -8 4.5 -16.5t-5 -11.5t-9.5 -8.5t-10 -9.5q-16 -18 -19 -61q11 4 18 19.5t13 19.5q17 10 41 6q32 -1 47.5 -24.5t13 -53.5t-19.5 -51q-27 -33 -58 -34.5t-53 19.5t-34 56t-5 68z" />
<glyph unicode="&#x2019;" horiz-adv-x="45" d="M-70.5 1435q-10.5 38 9.5 66q19 29 50.5 29.5t57.5 -21.5t33 -53q7 -47 -10 -86q-7 -25 -21 -39q-1 -1 -4.5 -5.5t-5 -6l-5 -5t-6 -5t-6 -3.5t-6.5 -1.5t-6.5 1t-7.5 3.5q-3 22 22 51.5t21 54.5q-2 -2 -11 -8l-12 -8t-13 -6.5t-15.5 -3t-18.5 1.5q-35 6 -45.5 44z" />
<glyph unicode="&#x201a;" horiz-adv-x="358" d="M94 111q5 37 43.5 56t75.5 -1q47 -37 51 -84q4 -76 -43 -107q-2 -1 -14.5 -8t-24.5 -11.5t-20 -2.5q-13 21 -10 33q3 2 12.5 5t19.5 7q27 14 27 45q-38 -26 -80 -0.5t-37 68.5z" />
<glyph unicode="&#x201c;" horiz-adv-x="542" d="M93.5 1388.5q7.5 48.5 35.5 75.5q16 16 33 30t20 17q7 4 20.5 -6t18.5 -22q-6 -5 -19.5 -16.5t-18 -16t-12.5 -14t-13 -18.5t-8 -21q26 20 63 2q36 -29 31 -80q-3 -16 -15 -31q-5 -2 -16 -8t-20 -9.5t-19 -4.5q-46 -3 -67 35.5t-13.5 87zM281 1360q-4 74 41 104 q1 1 10 6.5t15.5 8.5t17 6.5t14.5 -0.5q18 -18 12 -31q-2 -2 -33 -12q-23 -12 -26 -45q38 24 80 0t39 -66q-5 -39 -44.5 -58t-76.5 1q-47 32 -49 86z" />
<glyph unicode="&#x201d;" horiz-adv-x="495" d="M96.5 1472q7.5 30 24.5 54q23 21 56.5 13t45.5 -36q29 -65 6 -129q-7 -28 -18 -43t-34 -22q-26 -8 -25 19v3q0 10 15.5 25t12.5 33q-20 -10 -44.5 -4.5t-35.5 26.5q-11 31 -3.5 61zM264 1483.5q12 46.5 39 58.5q38 16 69.5 -22t28.5 -76q-4 -32 -7 -49t-12.5 -39 t-23.5 -35q-7 -7 -26.5 -20.5t-28.5 -12.5q-18 11 -18 29q2 12 17 22.5t28 22t10 27.5q-11 -1 -21.5 1.5t-17 5t-17.5 8t-16 7.5q-16 26 -4 72.5z" />
<glyph unicode="&#x201e;" horiz-adv-x="495" d="M96 84.5q7 28.5 25 52.5q23 22 56.5 15t45.5 -35q29 -68 6 -129q-6 -26 -18 -45q-11 -15 -34 -22q-26 -8 -25 19v3q0 11 15.5 25.5t12.5 31.5q-19 -9 -44 -3t-36 28q-11 31 -4 59.5zM264 97q12 46 39 59q38 14 69.5 -24.5t28.5 -76.5q-4 -32 -7 -48.5t-12.5 -38.5 t-23.5 -34q-4 -6 -25 -20.5t-30 -13.5q-18 11 -18 30q2 11 17 21t28 21.5t10 27.5q-11 -1 -22 1.5t-16.5 5t-18 9.5t-15.5 9q-16 26 -4 72z" />
<glyph unicode="&#x2022;" horiz-adv-x="446" d="M95 757q5 26 14 44q20 38 51 49q32 11 71 6.5t66 -22.5q20 -13 35.5 -34.5t19.5 -45.5q8 -61 -41 -92q-57 -29 -118 -23q-25 0 -37 5t-29 22q-10 8 -19 19t-12 24q-6 22 -1 48z" />
<glyph unicode="&#x2026;" horiz-adv-x="706" d="M96.5 43q-11.5 30 8 57t59.5 33q-2 -2 -8 -2h6q57 8 76 -37q17 -39 -7 -72q-28 -39 -84 -22q-39 13 -50.5 43zM297 67q4 20 17.5 37.5t31.5 24.5q30 13 64 -16q19 -26 6 -57.5t-37 -47.5q-35 -9 -55 -2.5t-25.5 24t-1.5 37.5zM485 39q-21 39 13 70q32 28 70 15 q26 -11 40 -42q18 -44 -20 -64q-23 -15 -56 -9.5t-47 30.5z" />
<glyph unicode="&#x202f;" horiz-adv-x="381" />
<glyph unicode="&#x2039;" horiz-adv-x="645" d="M93 522.5q-2 11.5 0.5 22t8.5 18.5q117 163 228 330q7 10 23.5 38.5t30 47t30.5 33.5q16 15 35.5 14.5t33 -9t35 -23.5t33.5 -21q5 -12 -138.5 -220t-142.5 -229q1 -30 114.5 -214t145.5 -218q-3 -10 -25.5 -43t-33.5 -41q-38 -35 -78 19q-18 20 -46 61t-61.5 94 t-58 93.5t-53.5 89t-31 51.5q-3 4 -11 18t-12.5 21.5t-11.5 21.5t-10 24t-5 21.5z" />
<glyph unicode="&#x203a;" horiz-adv-x="643" d="M92 983q3 14 44.5 35.5t62.5 21.5q17 -1 179.5 -251.5t168.5 -268.5q5 -7 2 -21t-2 -20q-45 -68 -146 -235t-112 -191q-3 -4 -9 -17.5t-13 -24.5t-13 -15q-10 -5 -22.5 -5t-23 3.5t-23.5 10t-22 12.5t-20.5 13.5t-17.5 10.5q-7 13 51.5 116t122.5 207.5t66 112.5 q10 30 -77 181t-145 210q-3 8 -24.5 48.5t-26.5 66.5z" />
<glyph unicode="&#x205f;" horiz-adv-x="476" />
<glyph unicode="&#x20ac;" horiz-adv-x="995" d="M94 605q3 22 23 26q12 2 38.5 -6.5t43.5 -1.5q9 109 -13 161q-10 2 -30.5 2t-30.5 2q-1 3 -7.5 10.5t-6.5 14.5q3 60 0 113q7 7 18.5 9t30 1t26.5 0q2 24 10.5 86.5t10.5 95.5q8 79 24 119q56 127 190.5 190t258.5 9q106 -47 162 -131q32 -46 52.5 -109.5t-1.5 -101.5 q-8 -4 -17.5 -5t-22.5 -2t-22 -2l-20 -5t-19 -4t-16 1q-8 0 -25.5 11t-21.5 18t-21 52t-36 67q-34 38 -88 53.5t-103 -4.5q-84 -41 -108 -178q-2 -11 -4.5 -32t-7 -56.5t-5.5 -53.5t0 -24q35 3 112 -0.5t130 0.5q13 0 42.5 5t45.5 5q77 5 96 -12q3 -12 5 -23.5t2 -27 t-0.5 -23t-2 -29t-2.5 -28.5q-1 -3 -6.5 -9t-7.5 -8q-19 -1 -79 -8t-99 -6q-4 1 -16 4.5t-19 3.5q-22 2 -65.5 0t-63.5 0q-11 1 -36 4.5t-38 3.5q5 -70 2 -166h125q24 0 117 5q2 0 7.5 -2.5t8.5 -2.5q22 0 150 5q13 -9 18 -9q4 0 2 -27.5t-2 -31.5q-9 -6 -13.5 -38.5 t-14.5 -39.5q-4 -3 -15 -3.5t-27.5 0.5t-19.5 1q-26 0 -88.5 -3.5t-95.5 -2.5q-140 0 -143 10q4 -20 5.5 -61.5t6.5 -63.5q7 -30 12.5 -50.5t17 -46.5t26 -42.5t37 -28.5t50.5 -14q93 -11 162 35q19 11 25 25t8 40q0 1 0.5 8t1 9t1 8.5t2 9t3 7.5t4 7.5t6 5.5t8 4t9.5 1 q16 1 62 -6t60 -5q6 -6 9.5 -19.5t5.5 -16.5q-1 -3 -3.5 -8.5t-3.5 -9t-1 -7.5t2 -8q-6 -24 -16.5 -47t-25 -50t-20.5 -40q-20 -26 -76 -64q-18 -2 -53.5 -15.5t-54.5 -17.5q-89 -18 -174 4.5t-148 84.5t-84 151q-1 6 -4.5 66t-7.5 113.5t-6 53.5q-6 1 -21.5 2t-20.5 2 t-17.5 3t-16.5 4.5t-12.5 7.5t-12 11.5t-7 16t-5.5 21.5q-7 26 -4 48z" />
<glyph unicode="&#x2122;" horiz-adv-x="1003" d="M96 1413q-6 35 4 72q3 24 35 24q15 0 43 -1t41 -1q22 0 63 1t60 1h35q13 -1 17.5 -6.5t6.5 -19.5q5 -50 5 -64q3 -28 -25 -28h-25h-30q-4 -24 -4 -29v-53q1 -25 1 -71.5t1 -84.5t4 -72q4 -40 8 -112q0 -33 -2 -47q0 -21 -19 -27q-67 -9 -96 8l-6 8q2 18 2 64v98 q-4 82 -4 117q5 20 0.5 99.5t-4.5 99.5q0 1 -1 2.5t-1 3.5q-17 4 -72 4h-18q-15 0 -19 14zM450.5 1384.5q1.5 73.5 0.5 102.5q0 1 1 3t1 3l16 8q13 0 41 -1t43 -1l111 -244q22 21 65.5 101.5t56.5 120.5q43 13 82 10q25 0 25 -25q0 -18 1 -55t1 -55q-4 -74 -4 -113 q0 -59 2 -88q0 -17 10 -125l8 -108q0 -12 -6.5 -19.5t-15.5 -7.5q-62 -4 -86 -4h-19q-11 4 -14 14q-4 16 -4 25q0 18 1 51t1 51t-2 56.5t-2 60.5q-8 -11 -12.5 -23t-8.5 -27t-6 -22q-6 -14 -22 -67q-9 -5 -18 -5.5t-19.5 1.5t-15.5 2q-10 21 -32.5 77t-39.5 88 q-2 -14 -2 -24v-74q0 -8 -1 -26t-1 -27v-70q0 -7 -6 -43q0 -8 -6 -13t-13 -5l-92 -4q-1 0 -4 2.5t-6 3.5q0 1 -1 9t-1 13q-4 55 -5.5 123t-0.5 123t0 123q-2 31 -0.5 104.5z" />
<glyph unicode="&#x25fc;" horiz-adv-x="1054" d="M0 0v1055h1055v-1055h-1055z" />
<glyph unicode="&#xfb01;" horiz-adv-x="903" d="M16 1067q2 24 12.5 35t34.5 12q14 0 44.5 2t46.5 2q1 0 2 0.5t3.5 1.5t4.5 2q8 60 10 95q2 48 21 133q20 74 73 133q51 57 144 67q149 17 254 -45q19 -9 32 -26q80 -89 103 -228q8 -41 -28.5 -76.5t-78.5 -23.5q-34 8 -47 18q-59 44 -33 107l4 16q9 27 -4 49 q-12 17 -47.5 34.5t-70.5 21.5q-37 5 -75 -11.5t-46 -46.5q-15 -56 -17 -71q-2 -18 -7 -56t-7 -57v-33h25l47 -4q35 -6 41 -41q6 -23 10 -73q0 -43 -45 -46q-9 -1 -20 -1t-24 0.5t-20 0.5q-2 0 -11 -1t-15 -1q0 -14 -4 -38l-15 -277q-8 -82 -8 -119q-1 -23 0.5 -66t1.5 -57 v-43q-4 -90 8 -266q4 -36 2 -55q-3 -45 -47 -45q-26 0 -80 8q-26 5 -39 19t-14 42q0 55 2 84l6 84q6 85 9 174q4 82 2 123q0 88 10 193l8 121v24l-2 76q0 24 -25 27h-61q-59 3 -68 57q-2 16 -2 45zM598 119q0 19 4 59l16 217q4 77 7 97q8 89 8 331q4 50 4 74q-4 94 -4 139 q-3 17 0 37q3 37 39 43q43 12 84 6q29 -1 40 -13.5t13 -41.5q1 -10 1 -29.5t1 -29.5q3 -83 -8 -199q-2 -29 -2 -84q2 -28 2 -59.5t-1 -70.5t-1 -60q-2 -129 -10 -392q0 -16 -3 -45.5t-4 -38.5l-4 -20q-7 -31 -35 -31q-57 -7 -98 4q-44 9 -47 51q-2 18 -2 56z" />
<glyph unicode="&#xfb02;" horiz-adv-x="954" d="M23 1126q10 33 40 33h134l6 27l14 112q16 94 76 160q2 2 13 14t14.5 16t12.5 12.5t16.5 13.5t15.5 10l22 14q30 9 47.5 13.5t43.5 9t49.5 3t45.5 -7.5q11 -3 39.5 -10.5t43 -12t40.5 -15.5t44.5 -23.5t41.5 -33t43 -46.5q31 -39 31 -98q0 -17 10 -94q9 -58 6 -115 q-2 -8 -2 -23v-321q0 -23 -1 -70.5t-1 -72.5v-551q0 -7 1 -20.5t1 -20.5q0 -25 -28 -35q-8 -4 -17 -4h-77q-46 3 -46 51q0 17 5 100q0 59 2 88v113l-4 182v185q0 20 1 58.5t1 57.5q2 70 2 213q0 9 -1 28t-1 28q4 41 0.5 95.5t-21.5 90.5q-47 92 -199 92q-32 -3 -55 -29 q-33 -36 -39 -63l-35 -111q0 -10 -2 -18q7 -4 15 -5t16.5 -0.5t13.5 -0.5q51 0 78 -2h8q29 0 35 -31v-12l-4 -96q-2 -19 -10.5 -27.5t-28.5 -9.5q-18 -1 -51 -3t-51 -3l-37 -7q-2 -17 -2 -96l14 -258q4 -56 4 -162.5v-130.5q1 -35 4.5 -105.5t4.5 -105.5q2 -14 2 -37 q0 -26 -25 -32q-7 -7 -16 -7q-12 -1 -35 -4t-41.5 -5t-34.5 -3q-33 0 -33 35q0 23 2 35q7 36 -2 129q-12 172 -6 346v141q0 19 2 57t2 58q2 47 2 139q-2 2 -4 6q-14 7 -20 7l-41 12q-29 0 -56 6q-31 3 -34 31q-18 60 -4 116z" />
</font>
</defs>
</svg>
