<?xml version="1.0" encoding="utf-8"?>
<!-- Generator: Adobe Illustrator 19.2.1, SVG Export Plug-In . SVG Version: 6.00 Build 0)  -->
<svg version="1.1" id="Layer_1" xmlns="http://www.w3.org/2000/svg" xmlns:xlink="http://www.w3.org/1999/xlink" x="0px" y="0px"
	 viewBox="0 0 261.1 171.7" style="enable-background:new 0 0 261.1 171.7;" xml:space="preserve">
<style type="text/css">
	.st0{fill:#3BC6F1;}
</style>
<g>
	<path class="st0" d="M210.7,164c-3.4,0-6.9,0.1-10.3,0c-4.7-0.2-9.3-0.5-13.9-0.9c-2.2-0.2-4.4-0.8-6.7-1.2c-0.2,0-0.5-0.1-0.7,0
		c-2.8,1.8-6.2,1.7-9.3,2.4c-2.9,0.6-6,0.9-9,1.1c-3,0.2-6,0.1-9,0.1c-3.5,0.1-6.9,0.2-10.4,0.2c-4.6,0-9.2-0.2-13.7-0.1
		c-2.3,0.1-4.5,0.8-6.8,1c-2.3,0.2-4.6,0.2-6.9,0.2c-1.7,0-3.4-0.2-5.1-0.5c-3.8-0.6-7.5,0.2-11.2,0c-3.1-0.1-6.1-0.3-9.2-0.3
		c-4.5,0.1-9,0.3-13.5,0.4c-1.1,0-2.3-0.1-3.3-0.3c-4.4-1-8.7,0-13.1,0c-3.7,0.1-7.5-0.2-11.2-0.6c-5.4-0.6-10.7-1.5-16.1-2.4
		c-1.5-0.2-2.9-0.7-4.4-1c-1.2-0.3-2-0.9-2.6-2c-0.5-0.8-1.8-1.3-1-2.7c0.2-0.3-0.4-1.1-0.6-1.7c-1.2-4.6-2.6-9.2-3.5-13.9
		c-0.5-2.5-1.7-4.7-2.5-7c-0.8-2.2-1.2-4.6-1.8-6.9c-1-3.5-2-7-3-10.5c-1.3-4.6-2.7-9.1-3.1-13.9c-0.4-4.3-1-8.6-1.3-12.9
		c-0.1-1.4,0.7-2.9,1.2-4.3c0.4-1.2,1.1-2.3,1.6-3.4c1.8-3.7,4.4-6.7,7.9-9c2.3-1.5,4.9-2.3,7.4-3.2c0.4-0.1,0.8-0.2,1.2-0.2
		c2.3-0.1,4.6-0.1,6.9-0.2c3.2-0.1,6.4-0.3,9.7-0.4c1.8,0,3.7,0.1,5.5,0.3c1.8,0.2,3.6,0.6,5.4,0.8c4.2,0.5,8.4,0.9,12.6,1.4
		c1.1,0.1,2.2,0.6,3.4,0.7c5.2,0.2,10.4,0.4,15.6,0.5c1.6,0,3.3-0.4,4.9-0.2c2.6,0.4,5.2,1.2,7.7,1.8c1.5,0.4,3,1,4.5,1.4
		c1.2,0.3,2,1.2,2.4,2.2c0.5,1.3,1.6,2,2.7,2.6c1.5,0.8,2,2.2,2.6,3.5c1.5,3.1,2.3,6.5,2.9,9.9c0.3,1.8,0.5,3.6,0.7,5.4
		c0,0.3,0.2,0.5,0.3,0.7c0.2-0.2,0.4-0.4,0.5-0.6c1.8-2,3.6-3.8,6.4-4.5c1.8-0.5,3.6-1.3,5.3-2c1.1-0.5,2.2-1.1,3.3-1.7
		c0.2-0.1,0.4-0.5,0.3-0.6c-0.2-0.3-0.5-0.6-0.8-0.6c-0.7,0-1.4,0.2-2.1,0.4c-0.8,0.3-1.5,0.2-1.8-0.6c-0.6-1.5-1.2-2.9-1.5-4.5
		c-0.2-1-0.6-1.2-1.5-1c-1.6,0.4-2.2,0-2.5-1.6c-0.2-1.2-0.2-2.4-0.3-3.6c0-0.3-0.1-0.6-0.3-0.7c-0.2-0.1-0.6,0-0.8,0.1
		c-1.6,0.9-2.5,0.5-2.6-1.3c-0.1-1,0.3-2,0.6-3c0.2-0.7,0.6-1.3-0.1-1.9c-2.4-2.1-3.2-4.8-2.8-7.8c0.1-0.8,0-1.1-0.9-1.3
		c-2.5-0.5-4.9-1.4-6.3-3.9c-0.7-1.3-1-2.5-0.6-4c0.4-1.2,0.5-2.5,0.5-3.8c0-1.1,0.5-1.7,1.3-2.2c1-0.6,1.9-1.3,2.8-2
		c0.2-0.1,0.3-0.5,0.3-0.8c0.1-2,0.1-4,0.1-6c0-1,0.1-2.1,0.2-3.1c0.1-2.4,0.2-4.8,0.3-7.2c0-0.4,0.1-0.9,0.3-1.3
		c0.4-1,0.9-2,1.3-3.1c0.1-0.2,0.9-1.3-0.5-0.9c0,0-0.3-0.4-0.3-0.6c0.2-1.2,0.5-2.4,0.8-3.5c0.1-0.4,0.5-0.7,0.7-1.1
		c2-3.5,5-6.1,8.1-8.5c3.1-2.3,6.6-3.9,10.3-4.9c4.5-1.3,9.1-1.9,13.8-1.9c4.1,0,8.2-0.5,12.3-0.5c3.5,0,7.1,0.2,10.6,0.7
		c2.3,0.3,4.5,1.3,6.7,2.1c1.3,0.4,2.5,1.1,3.7,1.6c0.2,0.1,0.5-0.2,0.7-0.4c0.7-1,1.3-2,2.1-3c0.7-0.9,1.7-1.4,2.9-0.8
		c1.1,0.5,1.9,2,1.7,3.2c-0.1,0.6-0.2,1.2-0.3,1.8c0.6-0.2,1.1-0.4,1.7-0.6c1.4-0.5,2.8-0.8,4.1,0.1c1,0.6,1.1,1.6,0.5,2.4
		c-1.1,1.4-2.3,2.7-3.6,3.9c-0.5,0.5-1,0.9-0.7,1.6c1.7,3.3,1.6,7,2.5,10.4c0.9,3.4,1,6.9,1.2,10.3c0.1,2.1,0,4.3-0.3,6.4
		c-0.3,2.1,0.1,3.9,0.9,5.8c0.9,2,1.6,4.2,2.3,6.3c0.5,1.6,0.3,3.2-0.4,4.8c-1,2.6-2,5.2-4,7.2c-1.6,1.6-3,3.4-5.1,4.4
		c-0.4,0.2-1,0.2-1.4,0.2c-0.7,0-1.4,0-2-0.1c-0.5-0.1-1-0.5-1.5-0.7c-0.2-0.1-0.5-0.2-0.7-0.3c-0.1,0.3-0.2,0.5-0.2,0.8
		c0,1.7,0,3.4-0.1,5.1c0,1.2-1.3,1.8-2.6,1.2c-1.1-0.5-1.1,0.2-0.8,0.8c0.6,1.4,0.5,2.7-0.5,3.9c0,0,0.2,0.4,0.3,0.4
		c1.3,0.1,2.6,0.1,3.9,0.3c3.3,0.4,6.7,0.8,9.9,1.5c1.7,0.4,3.3,1.3,5,2c1.7,0.7,3.3,1.6,5,2.3c0.6,0.2,1.3,0.2,2,0.3
		c2.3,0.4,4.7,0.8,7,1c2.2,0.2,4.4,0.2,6.6,0.2c3.4-0.1,6.8-0.4,10.2-0.4c3.1,0,5.4,1.5,6.7,4.4c2.1,4.8,3.3,9.8,3.2,15.2
		c0,1.5,0.1,3.1,0.2,4.6c0.3,6.7-1.4,12.9-4.7,18.5c-1.9,3.3-4.7,5.7-8.7,6.4c-1,0.2-1,0.6-0.6,1.4c0.8,1.8,1.6,3.6,2.2,5.4
		c0.7,2.1,1.3,4.2,1.7,6.4c0.2,1.3,0,2.7-0.1,4c0,0.2-0.2,0.5-0.4,0.7c-2,1.8-3.9,3.9-6.8,4.5c-1.8,0.4-3.7,0.5-5.5,0.7
		c-0.8,0.1-1.7,0-2.5,0C210.7,163.8,210.7,163.9,210.7,164z M13.2,100.4C13.2,100.4,13.2,100.4,13.2,100.4c-0.1,0.8-0.2,1.5,0,2.3
		c1.1,5.5,2.2,11.1,3.4,16.6c0.4,1.9,1.2,3.7,1.8,5.6c0.9,3.1,1.7,6.3,2.7,9.4c0.4,1.3,1,2.5,1.4,3.8c1,3.1,1.7,6.3,2.8,9.4
		c0.9,2.7,2,5.3,3.2,7.9c0.9,2.2,2.8,3.3,5,3.7c2.1,0.3,4.3,0.5,6.4,0.8c4.7,0.6,9.4,1.4,14.1,1.9c2.4,0.2,4.9,0.2,7.3,0
		c3-0.3,6.2,0.2,9.1-0.8c0.2-0.1,0.6,0,0.8,0c1.9,0.2,3.9,0.5,5.8,0.5c3.1,0,6.1-0.2,9.2-0.2c4,0,8,0.2,12,0.1
		c4.6,0,9.1-0.2,13.7-0.2c3.5,0,6.9,0.3,10.4,0.2c0.8,0,1.7-0.6,2.4-1.1c0.2-0.2,0.1-1,0-1.4c-0.8-2.7-1.7-5.5-2.6-8.2
		c-0.4-1.2-0.9-2.3-1.1-3.5c-0.9-5.1-1.6-10.3-3.4-15.3c-1.2-3.3-1.9-6.9-2.8-10.3c-1.3-4.6-2.8-9.2-3.9-13.8
		c-0.8-3.5-1.8-7-3.2-10.4c-1.3-2.9-2.5-5.8-3.5-8.8c-1-2.9-2.3-5.6-4.4-7.8c-0.2-0.2-0.6-0.5-0.9-0.6c-3-0.5-6-1.2-9.1-1.5
		c-2.6-0.3-5.3-0.3-8-0.5c-3.1-0.2-6.3-0.6-9.4-0.9c-2.3-0.2-4.5-0.1-6.8-0.2c-4-0.2-7.9-0.6-11.9-0.9c-1.6-0.1-3.1-0.1-4.7-0.2
		c-3.5-0.2-7.1-0.5-10.6-0.5c-3.5,0-7,0.4-10.5,0.7c-1.6,0.1-3.3,0.1-4.8,0.7c-4.4,1.7-7.6,4.7-9.7,8.9c-0.2,0.4-0.2,1-0.2,1.5
		c-0.1,1.2,0,2.4-0.1,3.6c-0.1,0.9-0.4,1.8-0.4,2.7C12.8,96,13.1,98.2,13.2,100.4z M164.8,113.8
		C164.8,113.8,164.8,113.8,164.8,113.8c0.1-0.3,0.1-0.6,0.1-0.8c0.1-0.5,0.2-1.2,0.4-1.3c0.8-0.4,1.7-0.4,2.2,0.6
		c0.8,1.4,1.6,2.8,1.3,4.6c-0.1,0.6,0.1,1.4,0.2,2c1,3.6,2,7.1,3.1,10.7c0.1,0.4,0.4,0.9,0.8,1.1c2.5,1.4,5,2.8,7.6,4.1
		c0.1,0.1,0.3,0.1,0.5,0.1c0-0.2,0-0.3-0.1-0.5c-0.4-1.1-1-2.1-1.3-3.2c-1.3-3.6-2.6-7.3-3.8-10.9c-0.1-0.5,0.5-1.2,0.8-1.8
		c0.5,0.3,1.1,0.5,1.3,0.9c0.5,0.8,0.8,1.8,1.2,2.7c1.6,4.1,3.1,8.3,4.8,12.4c0.5,1.2,0.9,2.5,2.4,3.2c4.2,2.1,8.3,4.5,12.1,7.2
		c0.7,0.5,1.1,1,0.9,1.8c-0.2,0.8-0.7,1.5-1.7,1.6c-2.4,0.4-4.5-0.5-6.4-1.8c-1.3-0.9-2.5-1.8-3.9-2.6c-3.9-2.3-8-4.4-11.9-6.7
		c-2.5-1.5-4.9-3.2-7.3-4.8c-0.9-0.6-1.7-0.8-2.6-0.1c-0.7,0.5-1.6,0.8-2.4,1.2c-0.2,0.1-0.4,0.3-0.6,0.5c-1.7,2.6-3.5,3.4-6.7,2.9
		c-0.3-0.1-0.9,0.2-1.1,0.5c-1.1,1.4-2.4,2.4-4.1,2.9c-0.2,0.1-0.4,0.2-0.6,0.3c0.1,0.2,0.2,0.5,0.4,0.7c1,1,2,2.1,3,3.1
		c1.3,1.3,2.8,2.5,4,3.9c1.6,1.8,3.5,0.5,5.2,0.9c0,0,0.1,0,0.1,0c4.9-0.2,9.8-0.7,14.6,0.5c1,0.3,2.4,0.6,2.9,1.4
		c0.7,1,1,2.5,1.2,3.8c0.2,1.2-0.3,2.5,1.7,2.6c1.4,0,2.8,0.9,4.3,1c3.2,0.3,6.3,0.4,9.5,0.5c2.4,0.1,4.7,0.3,7.1,0.3
		c4.3-0.1,8.6-0.2,12.9-0.5c1.2-0.1,2.4-0.5,3.6-0.8c0.2,0,0.4-0.3,0.4-0.4c0.1-0.7,0.2-1.5,0.1-2.1c-0.8-3-1.3-6.2-2.6-9.1
		c-2-4.5-4.5-8.7-6.7-13.1c-1.1-2.2-2.1-4.4-3.1-6.6c-1.4-3.3-2.7-6.7-4.2-10c-1.3-2.8-2.8-5.5-4.1-8.2c-2.2-4.4-5-8.2-9.6-10.5
		c-4.2-2.1-8.4-3.5-13.3-3.3c-4.9,0.2-8.1,3-11.1,6.2c-0.3,0.3-0.4,0.7-0.5,1.1c-0.7,1.6-1.4,3.3-2.1,4.9c-0.9,2.2-1.8,4.3-2.8,6.5
		c-0.5,1.2-1.3,2.2-2,3.4c0,0.1,0,0.4,0.1,0.4c2.7,1.3,4.5,3.6,6.3,5.8c0.1,0.1,0.2,0.2,0.3,0.3c0-0.1,0.1-0.3,0.1-0.4
		C165.4,119.9,165.1,116.8,164.8,113.8z M180.8,45.4c-0.1-2.1-0.2-4.4-0.3-6.6c-0.1-1.5-0.2-2.9-0.5-4.3c-0.5-2.1-1.2-4.2-1.8-6.3
		c-0.2-0.8-0.6-1.4-1.4-1.8c-0.6-0.3-1.4-0.9-1.5-1.4c-0.1-0.8-0.4-0.9-1-1c-1.3-0.3-2.3-1-2.7-2.3c-0.2-0.8-0.6-0.9-1.3-0.7
		c-1.6,0.4-3.2-0.1-4.3-1.2c-0.9-1-1.5-0.8-2.6-0.5c-1.5,0.4-3.3,0.9-4.6-0.2c-1.2-1-2.1-0.5-3.2-0.1c-2,0.7-4,1-6-0.2
		c-0.3-0.2-0.9-0.2-1.2-0.1c-2.6,1.2-5.2,2.5-8.2,1.3c-0.3-0.1-0.7,0.1-1,0.3c-1.7,0.7-3.3,1.6-5.1,2.1c-1,0.3-2.2-0.1-3.4-0.2
		c-0.3,0-0.6,0-0.9,0.1c-2,1-4,1.5-6.2,0.6c-0.1-0.1-0.3,0-0.4,0.1c-1.3,1-2.7,2-4,3c-0.1,0.1-0.3,0.3-0.3,0.5c-0.3,1-0.5,2-0.7,3
		c-0.3,1.1-0.6,2.3-0.8,3.4c-0.2,1.2-0.2,2.4-0.4,3.5c-0.2,1.9-0.5,3.7-0.7,5.6c-0.2,1.5-0.3,3-0.6,4.5c-0.2,1.1,0.1,1.3,1,1.3
		c1.6,0,3.1,0,4.7,0.1c4.2,0.2,8.4,0.4,12.5,0.7c1.4,0.1,3.2,1.8,3.5,2.9c0.3,1.2,0.7,1.4,1.8,1c1.6-0.6,3.2-0.8,4.9-0.5
		c0.8,0.1,1.7,0,2.6,0.1c1.3,0.1,1.6-0.5,1.6-1.7c0.1-2.1,0.5-3.3,2.8-3.6c0.4-0.1,0.8-0.3,1.2-0.5c1.8-1,3.7-1.3,5.6-1.3
		c3.1-0.1,6.2-0.1,9.3,0c2.8,0,5.6,0.2,8.3,0.2c1.3,0,2.5,0.4,3.5,1.3c0.5,0.4,0.9,0.8,1.4,1.2C180.7,46.8,180.7,46.2,180.8,45.4z
		 M122.8,64.1c0-0.1,0-0.3-0.1-0.4c-1.3,0.2-2.6,0.4-3.9,0.5c-1,0-1.1,0.5-0.9,1.3c0.2,1,0.4,1.9,0.5,2.9c0.1,0.7,0.2,1.3,0.3,2
		c0.1,0.6,0.2,1.1,0.3,1.7c0.4-0.5,0.7-1,1.1-1.3c0.6-0.4,1.4-0.9,1.9-0.7c0.8,0.3,0.8,1.1,0.3,1.8c0.1,0.1,0.3,0.2,0.3,0.2
		c0.9-0.8,1.9-1.5,2.8-2.4c0.5-0.5,0.9-1.2,1.5-1.6c0.3-0.3,0.9-0.3,1.4-0.5c0.1,0.5,0.4,1,0.3,1.5c-0.1,0.9-0.5,1.8-0.7,2.7
		c0,0.2,0,0.4,0.1,0.6c0.2-0.1,0.4,0,0.5-0.2c0.5-0.4,0.9-0.9,1.3-1.3c1-1.1,2-2.3,3.2-3.2c0.9-0.7,1.8,0.1,1.7,1.3
		c-0.1,0.7-0.5,1.3-0.7,2c-0.1,0.3-0.1,0.6-0.2,0.8c0.3-0.2,0.6-0.3,0.8-0.5c1-1,2-2.1,3-3c0.3-0.3,1-0.5,1.3-0.3
		c0.4,0.2,0.6,0.8,0.7,1.3c0.1,0.4-0.2,0.8-0.3,1.3c0,0.3,0,0.5,0.1,0.8c0.3-0.1,0.7,0,0.9-0.2c0.8-0.8,1.5-1.7,2.3-2.4
		c0.4-0.4,1-0.9,1.3-0.7c0.4,0.2,0.7,0.8,0.9,1.3c0.1,0.2,0.1,0.4,0.1,0.7c0.1-0.2,0.2-0.4,0.3-0.6c0.7-0.6,1.3-1.7,2-1.8
		c1-0.1,1.2,1.2,1.4,2c0.1,0.3,0.3,0.5,0.5,0.7c0-0.2-0.1-0.4-0.1-0.7c0-0.2,0.1-0.4,0.3-0.6c0.5-0.6,1-1.1,1.5-1.7
		c0.5-0.6,1-0.9,1.8-0.4c0.2,0.1,0.6,0,0.8-0.2c2.4-2.9,7.7-2.6,9.7,0.6c0.3,0.4,0.4,0.9,0.7,1.2c0.6,0.5,1.3,0.8,1.9,1.1
		c-0.1-0.3-0.1-0.6-0.2-1c0-0.1,0.1-0.1,0.1-0.2c0.3-0.5,0.6-1.1,0.9-1.6c0.8-1.5,1.7-1.6,2.9-0.4c0.6,0.7,1.2,1.4,1.9,2
		c0.6,0.5,1,1.1,0.5,1.9c-0.4,0.8-1.1,0.6-1.8,0.4c-0.8-0.2-1.6-0.4-2.3-0.3c-0.7,0.1-1.4,0.7-2.2,0.8c-1.1,0-1.3,0.6-1.3,1.4
		c0,0.3,0,0.6-0.1,0.8c-0.3,1.1-0.9,1.5-2,1.4c-1.2-0.1-2.4-0.2-3.5,0.1c-3,0.6-5.9,0.7-9,0.7c-1.4,0-2.9,0.2-4.3,0.3
		c-4.5,0.2-8.9,0.3-13.4,0.4c-0.3,0-0.5-0.2-0.8-0.2c0.2-0.2,0.3-0.4,0.6-0.5c0.4-0.2,0.9-0.5,1.3-0.5c1.9-0.3,3.8-0.6,5.6-0.9
		c1.6-0.3,3.3-0.6,4.9-0.8c2.2-0.2,4.4-0.2,6.5-0.3c1.9-0.1,1.9-0.1,1.8-2c0-0.2-0.1-0.4-0.1-0.5c-0.2,0.1-0.4,0.2-0.5,0.4
		c-0.8,1.6-3.2,2.6-4.6,1.6c-1.2-0.9-2.3-0.2-3.5-0.3c-0.8-0.1-1.8-0.1-2.4,0.3c-1.5,0.9-3,0.8-4.6,0.6c-0.7-0.1-1.4,0-2,0.1
		c-1,0.2-2,0.6-3,0.6c-1.2,0-2.3-0.7-3.5,0.2c-0.3,0.2-0.9,0.1-1.4,0c-0.8-0.1-1.3,0.3-1.5,0.9c-0.3,0.7-0.4,1.5-0.7,2.1
		c-1.1,1.7-1.4,3.6-1.1,5.5c0,0.3,0.1,0.6,0.2,0.9c0.2-0.3,0.5-0.6,0.6-0.9c0.1-0.3-0.1-0.7-0.1-1c0-0.5-0.1-1.1,0.2-1.5
		c0.8-1.1,1.7-2.1,2.7-3c0.4-0.4,1.2-0.4,1.8-0.6c0.1,0.6,0.3,1.2,0.3,1.7c-0.2,2.8-0.5,5.5-0.7,8.3c0,0.5,0.2,1,0.4,1.5
		c0,0.1,0.7,0,0.7,0c0-0.8,0-1.5,0-2.3c0-0.5,0-1,0.3-1.4c0.9-1.2,1.9-2.3,2.8-3.5c0.4-0.6,1-1.1,1.5-0.7c0.5,0.4,0.7,1.3,0.7,1.9
		c0,0.5-0.5,0.9-0.6,1.4c-0.3,3.2,0.3,6.3,1.9,9.1c0.2,0.4,0.7,0.6,1.1,1c0.2-0.5,0.6-1,0.7-1.5c0.1-0.3-0.1-0.8-0.3-1.1
		c-0.4-1-0.8-2-1.1-3c-0.1-0.3,0.1-0.7,0.3-1c0.8-1.1,1.7-2.2,2.6-3.3c0.4-0.4,1-1,1.4-0.9c0.7,0.1,0.9,0.8,0.7,1.6
		c-0.9,3.4,0.3,6.4,2.1,9.2c0.1,0.1,0.5,0.1,0.7,0.1c0.1-1.6,0.3-3.3,0.4-4.9c0-0.6-0.1-1.2,0.1-1.7c0.5-1,1-1.9,1.7-2.7
		c0.4-0.4,1-0.9,1.5-0.9c0.4,0,0.8,0.8,1,1.3c0.2,0.9,0.1,1.8,0.2,2.7c0.2,2.5,0.8,5,2.4,7c0.3,0.3,0.7,0.5,1.1,0.8
		c0.2-0.4,0.5-0.8,0.7-1.2c0.4-1.1,0.1-2.2-0.4-3.2c-0.5-1-1-2.1-0.5-3.2c0.9-1.7,2-3.3,3-4.9c0.5-0.8,1.1-0.7,1.3,0.2
		c0.3,1.3,0.5,2.7,0.6,4.1c0,2,0.8,3.5,2.1,4.9c0.2,0.3,0.8,0.5,1.1,0.4c0.3-0.1,0.6-0.7,0.6-1c0.1-0.8,0-1.7,0.2-2.5
		c0.2-1,0-1.6-1-2c-0.2-0.1-0.5-0.5-0.4-0.7c0.6-2,1.4-3.9,3-5.3c0.2-0.2,0.9-0.1,1,0.1c0.4,0.7,0.9,1.4,0.9,2.2
		c0,2.7,1.8,4.3,3.3,6.2c0.5,0.7,1,0.4,1.1-0.4c0.1-1.1,0.2-2.2,0.1-3.2c-0.1-0.7-0.4-1.5-0.8-2.1c-0.9-1.2-1.8-2.3-1.4-3.9
		c0.2-0.7,0.6-1.3,0.9-1.9c0.5-0.9,1-1.8,1.7-2.6c0.7-0.8,1.1-0.6,1.4,0.4c0.7,2,1.4,3.9,2.2,5.9c0.1,0.2,0.4,0.4,0.7,0.5
		c0.1-0.3,0.4-0.6,0.3-0.8c-0.8-2.5-0.5-5.2-2.3-7.4c-0.1-0.1-0.1-0.4-0.1-0.6c0.1-0.5,0.2-1,0.4-1.5c0.4-0.7,0.9-1.4,1.3-2
		c0.5,0.7,1,1.3,1.6,2c0,0,0,0.1,0,0.1c0.9,1.8,1.8,3.6,2.7,5.4c0.1,0.1,0.3,0.2,0.5,0.3c0.1-0.2,0.3-0.3,0.3-0.5
		c-0.1-1.4-0.2-2.9-0.5-4.2c-0.4-1.6-1.2-3.1-1.8-4.7c-0.1-0.3,0.2-0.8,0.4-1.3c0.3,0.2,0.7,0.3,0.9,0.5c0.4,0.4,0.6,0.9,1,1.3
		c0.2,0.2,0.6,0.4,0.9,0.4c0.9,0,1.7,0,2.6-0.1c1.5-0.2,3.2,0.9,4.3-1c0.1-0.2,0.5-0.2,0.8-0.3c0.3-0.2,0.8-0.3,0.9-0.6
		c0.9-2.2,2.1-4.5,2.5-6.8c0.6-3.3-0.7-6.3-2.4-9.1c-0.4-0.7-1-0.7-1.6,0.1c-0.7,1-1.3,1.9-2.5,2.3c-0.2,0.1-0.4,0.1-0.6,0.2
		c0-0.2,0-0.4,0-0.7c0-0.3,0-0.7-0.1-0.7c-1-0.5-2.4,0.4-2.5,1.5c-0.3,2.2-0.9,4.2-3.5,4.9c-0.5,0.1-1,0.3-1.4,0.6
		c-2.5,1.4-5.3,1.5-8,1.8c-1.7,0.2-3.4,0-5.1-0.1c-1.4-0.1-2.8-0.2-4.3-0.2c-1.6,0-3.2,0.2-4.8,0.1c-3.4-0.3-5.5-2.5-5.9-5.9
		c-0.1-0.7-0.3-0.8-0.9-0.7c-1.1,0.1-2.2,0.1-3.3,0.2c-1.9,0.1-3.8,0.2-5.7,0.3c-0.3,0-0.5,0.4-0.7,0.5c0.3,0.1,0.5,0.2,0.8,0.2
		c0.2,0,0.4-0.1,0.6-0.1c2.5-0.5,4.8,0.2,7,1.5c1,0.6,0.3,1.4,0.2,2c-0.1,0.3-0.8,0.6-1.2,0.5c-1-0.2-1.9-0.7-2.9-0.9
		c-1.3-0.3-2.7-0.5-4-0.5c-0.5,0-1.4,0.7-1.5,1.2c-0.4,1.3-0.7,2.6,0.7,3.7c0.4,0.3,0.8,0.8,0.9,1.2c0.2,0.4,0.2,1,0,1.4
		c-0.1,0.2-0.9,0.3-1.2,0.2c-0.9-0.6-2.1-1.1-2.5-2c-0.7-1.5-1.8-1.3-3-1.2C128.4,63.4,125.6,63.8,122.8,64.1z M216.9,96
		c0-0.1,0-0.1,0-0.2c-1.8,0-3.6,0-5.4,0c-0.2,0-0.3,0.1-0.5,0.2c0.1,0.1,0.3,0.2,0.4,0.2c0.8,0.4,1.7,0.9,2.5,1.3
		c1.1,0.6,2.2,1.4,3.5,1.6c3.1,0.6,6.3,0.9,9.4,1.4c0.3,0,0.6,0.2,0.7,0.3c0.1,0.2-0.1,0.7-0.2,0.8c-0.7,0.3-1.4,0.5-2.1,0.7
		c-4.8,1.7-9.5,0.7-14-1c-1.8-0.7-3.5-1.7-5.3-2.5c-1.8-0.8-3.8-1.4-5.5-2.4c-5.2-3.2-10.9-5.1-16.5-7.3c-0.5-0.2-1-0.4-1.5-0.4
		c-3-0.5-6.1-0.9-9.1-1.4c-1-0.2-1.3,0.2-1.4,1.1c-0.1,1.2-0.2,2.7-1.4,3.4c-2.2,1.3-3.7,1.6-5.8,0.2c-0.7-0.5-1-0.3-1.1,0.4
		c-0.3,1-0.7,1.9-1.7,2.5c-0.2,0.1-0.3,0.5-0.3,0.8c0.2,1.1,0.3,2.1,0.6,3.2c0.2,0.9,0.8,1.1,1.5,0.4c1.1-1,2.1-2.1,3.1-3.2
		c1.9-2.1,4.3-3.6,6.9-4.4c2.7-0.8,5.5-1.2,8.4-0.8c1.9,0.3,3.9,0.2,5.7,0.8c5,1.9,9.5,4.6,13.2,8.5c3.3,3.5,5.5,7.7,7.7,11.9
		c1.9,3.8,3.4,7.8,5.2,11.7c1.9,4.2,3.8,8.4,5.6,12.7c0.2,0.5,0.3,0.8,1,0.5c0.8-0.3,1.7-0.5,2.6-0.5c2.8-0.3,4.8-1.7,6.1-4.3
		c0.3-0.7,0.6-1.5,0.9-2.2c2-4.1,2.9-8.5,3-13c0-1.4-0.1-2.8,0.1-4.2c0.6-4.3-0.5-8.3-1.9-12.2c-0.7-1.8-1.6-3.3-3.8-3.4
		c-0.3,0-0.6-0.3-1-0.4c-0.9-0.3-1.7-0.7-2.6-0.7C221.6,95.9,219.2,96,216.9,96z M128.3,112.4c-0.1,0-0.2,0-0.3,0
		c0.2-1.6,0.4-3.2,0.7-4.8c0.2-0.8,0.5-1.6,0.9-2.3c0.3-0.5,0.7-0.9,1-1.4c0.5,0.4,1.1,0.8,1.5,1.3c0.3,0.3,0.4,0.9,0.4,1.3
		c-0.1,1.7-0.2,3.4-0.4,5c-0.4,4.2-0.8,8.3-1.2,12.5c-0.3,2.3-0.6,4.6-1,6.9c-0.2,1.2-0.4,2.4-0.6,3.6c-0.2,1.2-0.4,2.3-0.7,3.5
		c-0.5,2.1-0.4,4.5-2,6.3c-0.2,0.2-0.2,0.7-0.2,1c0.2,1.2,0.5,2.4,0.8,3.6c0.1,0.3,0.4,0.6,0.6,0.6c1,0.1,2.1,0.3,2.9,0
		c2.1-0.8,4-0.4,5.9,0.3c0.3,0.1,0.7,0.1,1.1,0.1c2.7-0.2,5.5-0.4,8.2-0.5c1.6-0.1,3.3,0.1,4.9,0.1c0.2,0,0.4-0.1,0.7-0.2
		c-0.1-0.2-0.1-0.4-0.3-0.5c-1.1-1.2-2.2-2.3-3.3-3.5c-1.7-1.9-3.5-3.8-5.2-5.8c-0.6-0.7-1.4-0.6-1.9,0.2c-0.4,0.7-0.9,1.6-1.4,2.2
		c-1.6,1.8-3.9,2.2-6.2,2.5c-1.9,0.2-4.4-1.4-4.4-3c-0.1-2,0-4,0.6-5.9c1-3.2,2.4-6.3,3.5-9.5c0.7-2.1,1.5-4.2,1.7-6.5
		c0.3-3.2,1-6.3,1.6-9.4c0.1-0.6,0.5-1.3,0.9-1.8c0.2-0.3,0.8-0.5,1.1-0.4c0.6,0.1,1.1,0.4,1.7,0.5c1.2,0.4,1.6,1,1.5,2.3
		c-0.1,0.9-0.2,1.8-0.2,2.7c-0.1,1.6-0.1,1.6,1.4,1c0.2-0.1,0.6-0.5,0.6-0.6c-0.8-1.7-0.9-3.5-1-5.3c-0.3-4.1,0.1-8,2.1-11.7
		c0.1-0.1,0.3-0.2,0.5-0.2c0.2,0,0.3,0.2,0.4,0.3c-0.1-0.2-0.1-0.4-0.2-0.6c-0.1-0.7-0.5-0.7-1-0.5c-1.7,0.6-3.3,0.7-4.5-1
		c-0.5-0.7-0.9-0.9-1.7-0.2c-1.6,1.4-3.6,1.6-4.7,0.5c-0.9-1-1.8-0.9-2.8-0.4c-2.6,1.4-5.1,2.8-7.6,4.3c-1,0.6-1.8,1.4-2.2,2.9
		c-0.5,1.9-1.7,3.6-2.8,5.3c-0.7,1.2-1.4,2.2-0.9,3.9c1.1,3.5,1.8,7,2.7,10.5c1,3.8,2.2,7.6,3.3,11.5c0.1,0.2,0.2,0.4,0.3,0.6
		c0.1-0.2,0.2-0.5,0.3-0.7c0.9-3.5,1.7-7,2.6-10.4c0.3-1.2,0.9-2.3,1.1-3.5C127.9,117,128.1,114.7,128.3,112.4z M140.1,9.9
		C140.1,9.9,140.1,9.9,140.1,9.9c-0.5,0.1-1,0-1.4,0.1c-4.6,0.7-9.2,1.8-13.3,4.1c-1.9,1.1-3.6,2.6-5.3,4c-0.2,0.2-0.9,0.6,0,0.8
		c0.9,0.2,0.9,0.8,0.8,1.4c-0.2,0.6-0.6,1.2-0.8,1.9c-0.1,0.4,0,0.9,0.1,1.4c0.4-0.1,0.7-0.2,1-0.4c0.6-0.4,1.3-0.8,1.8-1.4
		c0.3-0.3,0.5-0.7,0.5-1.1c0.1-1.4,0.5-2.6,2.2-3c0.9-0.2,1.4,0,1.4,0.9c0,0.7-0.1,1.4-0.2,2.1c0,0.6,0.2,1,0.9,0.6
		c0.8-0.4,1.5-1,2.2-1.5c1-0.8,1.9-1.8,2.9-2.6c0.6-0.5,1.3,0.1,1.2,0.8c-0.1,0.4-0.4,0.7-0.5,1.1c-0.1,0.4-0.1,0.9-0.2,1.3
		c0.4,0,0.9,0.2,1.3,0.1c2.2-0.6,4.3-1.5,5.8-3.4c0.4-0.6,0.9-1.1,1.5-1.5c0.5-0.3,1.1-0.2,1.7-0.3c0,0.5,0.1,1,0.1,1.5
		c0,0.3-0.2,0.5-0.3,0.8c-0.2,0.7,0.1,1.1,0.7,0.8c1.6-0.8,3.2-1.7,4.7-2.7c1-0.7,1.8-1.9,2.8-2.7c0.4-0.3,1.2-0.6,1.6-0.4
		c0.4,0.2,0.7,1,0.7,1.5c0,0.9-0.3,1.7-0.6,2.6c-0.3,0.9,0.2,1.2,0.9,1c0.9-0.3,1.7-0.6,2.5-1.1c1.1-0.6,2-1.5,3.1-2
		c0.4-0.2,1.3-0.2,1.7,0.1c0.4,0.2,0.5,1,0.5,1.5c-0.1,1.4,0,1.5,1.3,1.2c0.4-0.1,0.8-0.4,1.2-0.5c1.4-0.4,2.2-1.8,3.7-1.9
		c1.4-0.2,2,0.4,1.8,1.8c-0.1,0.6,0.2,1.4,0.6,1.8c0.7,0.6,1.4,0.2,2.1-0.3c0.8-0.6,1.6-1.1,2.5-1.5c0.5-0.2,1.4-0.1,1.7,0.2
		c0.3,0.4,0.1,1.2,0,1.7c-0.1,0.6-0.6,1.1-0.6,1.6c-0.2,1.1,0.1,1.2,1.1,0.8c0.4-0.2,0.8-0.3,1.2-0.3c0.5,0,1.3-0.1,1.5,0.2
		c0.3,0.4,0.3,1.2,0.1,1.7c-0.2,0.7-0.1,1.2,0.5,1.3c1.3,0.3,1.5,1.3,1.7,2.4c0.8,3.7,1.6,7.4,2.4,11.1c0.1,0.4,0.1,0.8,0.1,1.2
		c0,0.9-0.1,1.7,0,2.6c0.2,2.1,0.4,4.3,0.5,6.4c0,0.5-0.2,1-0.3,1.5c0.5-0.5,1.1-0.9,1.4-1.5c1.2-3,1.8-6.1,1.8-9.3
		c0-1.6-0.5-3.1-0.7-4.7c-0.4-2.7-0.7-5.4-1.2-8.1c-0.4-2.3-1.1-4.5-1.6-6.7c-0.3-1.1-0.1-2,0.8-2.9c0.9-0.9,1.5-2,2.1-3
		c0.2-0.3,0.2-0.7,0.2-1.1c-0.3,0.1-0.7,0.2-1,0.3c-0.4,0.2-0.7,0.5-1,0.8c-0.6,0.6-1.2,1-2.1,0.4c-0.2-0.1-0.6,0-0.9,0.1
		c-1.5,0.7-3.1,1-4.6,0.5c-2.8-1-5.6-2.2-8.3-3.2c-2.4-0.9-4.8-1.6-7.5-1.4c-1.3,0.1-2.7-0.1-4.1-0.1c-1.9-0.1-3.8-0.2-5.7-0.2
		C148.6,9.3,144.3,9.6,140.1,9.9z M144.6,118.7c-0.2,0-0.4,0-0.6-0.1c-2-0.4-3.5,0.5-4.9,1.9c-1,1-0.9,2.4-1.5,3.5
		c-0.4,0.9-0.9,1.8-1.2,2.7c-0.6,1.9-1.1,3.9-1.6,5.9c-0.5,2.1-1.1,4.3-1.1,6.4c-0.1,2.8,0.9,3.3,3.4,2c0.5-0.2,0.9-0.8,1-1.3
		c0.5-2.2,0.9-4.4,1.2-6.6c0.1-0.9-0.1-1.8-0.2-2.6c0-0.4-0.3-0.9-0.1-1.1c0.8-1,1.7-2,2.7-2.9c0.3-0.3,1.1-0.4,1.5-0.2
		c0.4,0.2,0.5,0.9,0.6,1.4c0.1,0.5-0.3,1.2-0.1,1.6c0.3,1.2,0.8,2.3,1.4,3.3c0.1,0.3,0.9,0.2,1.4,0.2c0-0.4,0.1-0.8,0-1.1
		c-0.1-0.8-0.3-1.6-0.3-2.4c0-0.6,2-2.8,2.6-2.8c0.2,0,0.4,0.1,0.5,0.2c1,0.5,1.1,1.4,1.1,2.4c0,2,0.6,3.7,2.2,4.9
		c0.1,0.1,0.4,0.1,0.5,0.2c0-0.1,0-0.3,0-0.4c-0.6-1.8-0.4-3.6,0.3-5.4c0.2-0.5,0.7-1.1,1.1-1.1c0.8,0,1.2,0.6,1.3,1.4
		c0,1.2,0.1,2.3,0.2,3.5c0.1,1,0.3,1.9,1.4,2.3c1.1,0.4,2-0.1,2.8-0.9c0.5-0.5,0.5-0.7-0.1-1.1c-0.3-0.2-0.7-0.7-0.7-0.8
		c0.3-0.4,0.6-0.8,1-0.9c0.8-0.1,1.6,0,2.4,0c0.5,0,1,0,1.5-0.1c0.1,0,0.3-0.5,0.3-0.6c-1.1-2-2.1-4.1-3.4-6c-1.3-1.9-3.2-3.4-5.3-4
		C152.4,119.3,148.6,118.5,144.6,118.7z M156.6,48.8c0-0.1,0-0.2,0-0.3c-1,0-2-0.1-3,0c-0.4,0-0.9,0.6-1,0.9c-0.1,1.5-0.2,3-0.1,4.5
		c0.1,1.5,0.2,3.4,1.8,4c1.6,0.6,3.6,1,5.2,0.6c2.8-0.6,5.6,0,8.4-0.5c2.8-0.4,5.7-0.5,8.5-0.8c0.4,0,0.9-0.5,1-0.8
		c0.5-1.6,0.5-3.2-0.2-4.8c-0.3-0.7-0.6-1.4-0.7-2.1c-0.2-1-0.9-1.4-1.7-1.4c-1.7-0.1-3.5,0-5.2,0.1c-2,0.1-4,0.4-6.1,0.5
		C161.4,48.8,159,48.8,156.6,48.8z M114.6,50.6c0-0.1,0-0.2,0-0.3c-0.9,0.2-1.9,0.3-2.8,0.5c-0.8,0.2-1.1,0.6-0.9,1.5
		c0.3,1.6,0.5,3.3,0.8,4.9c0.4,2.4,1.8,4.2,4.3,4.5c2.3,0.2,4.7,0.7,7.1-0.3c0.9-0.4,2.1-0.1,3.1-0.2c1.2-0.1,2.4-0.3,3.6-0.5
		c0.8-0.1,1.6,0,2.4-0.1c0.5,0,1.3,0.1,1.5-0.2c0.5-0.7,0.9-1.6,0.9-2.5c0-0.9-0.5-1.9-0.6-2.9c-0.2-2.5-1.8-4.3-4.3-4.5
		c-1.2-0.1-2.5,0-3.7,0C122.2,50.6,118.4,50.6,114.6,50.6z M175,159.6c2.8,0,3.5-0.5,4.3-2.4c0.4-0.8,0.3-1.4-0.3-2
		c-0.4-0.3-0.7-0.8-1-1.2c-0.8-1-1-0.9-2-0.1c-1.3,1.1-2.8,2.2-4.4,2.7c-2.6,0.9-5.4,1.2-8.1,0.4c-0.4-0.1-1,0-1.4,0
		c-1.5,0-3,0.2-4.5,0.1c-3.3-0.1-6.6-0.2-9.9,0.2c-3.5,0.4-7.1,0.4-10.7,0.3c-2.5-0.1-5-0.7-7.4-1c-0.8-0.1-1.3-0.1-1.4,0.9
		c-0.1,1.7-0.3,3.5-1.3,5c-0.4,0.6-0.2,0.8,0.5,0.7c1.9-0.2,3.7-0.5,5.6-0.6c3.9-0.3,7.7-0.6,11.6-0.7c2.3-0.1,4.5,0.2,6.8,0.1
		c2.2-0.1,4.3-0.8,6.5-0.8c3.9,0,7.9-0.2,11.8-0.8C171.5,159.9,173.5,159.7,175,159.6z M147.5,112.5c0,2.1,0,2.2,1.8,2.5
		c1.6,0.3,3.3,0.6,4.9,0.9c2.4,0.4,2.5,0.4,3.6-2c0.1-0.3,0.2-0.6,0.4-0.9c0.9-2,1.8-3.9,2.7-5.9c0.1-0.2,0.2-0.5,0.3-0.7
		c-0.3,0.1-0.6,0.2-0.8,0.3c-4.6,2.7-9,1.9-12.7-0.8c-0.3-0.2-0.7-0.5-1-0.7c0,0.4,0,0.9,0,1.3c0,0.1,0.1,0.2,0.1,0.3
		C147,108.8,147.3,110.8,147.5,112.5z M156.7,103.3c1.1-0.3,2-0.6,2.8-0.9c0.2-0.1,0.4-0.6,0.3-0.7c-1.3-1.4-1-3.3-1.6-4.9
		c-0.1-0.3-0.3-0.6-0.6-0.7c-0.6-0.3-1.2-0.4-1.8-0.7c-0.6-0.3-0.8,0-1.3,0.4c-0.7,0.7-1.5,1.3-2.4,1.6c-2,0.6-3.3-0.7-4.3-2.2
		c-0.1-0.1-0.2-0.2-0.3-0.2c0,0.1,0,0.2,0.1,0.3c0.7,1.8,1.3,3.6,2,5.4c0.2,0.5,0.7,1,1.2,1.2C152.7,102.4,154.7,102.8,156.7,103.3z
		 M145.8,152.2C145.8,152.2,145.8,152.2,145.8,152.2c-0.5,0-1.1-0.1-1.4,0.2c-0.4,0.4-0.6,1-0.7,1.6c0,0.2,0.6,0.6,0.9,0.6
		c1.8,0.1,3.6,0.1,5.4,0.1c1.2,0,0.7-1,0.8-1.6c0-0.2-0.5-0.6-0.8-0.6C148.6,152.3,147.2,152.3,145.8,152.2z M139.3,152.7
		C139.3,152.7,139.3,152.7,139.3,152.7c-0.8,0-1.5,0-2.3,0.1c-0.4,0.1-0.7,0.4-1,0.6c0.4,0.6-0.1,1.9,1.2,1.7
		c1.5-0.2,2.9-0.3,4.3-0.7c0.4-0.1,0.5-1,0.7-1.6c-0.3-0.1-0.7-0.3-1-0.3C140.7,152.5,140,152.6,139.3,152.7z M132.1,154.3
		c0,0.1,0,0.1,0,0.2c0.2,0,0.5,0,0.7,0c0.6,0.1,1.1,0.1,1.1-0.7c0-0.7,0-1.1-0.9-1.1c-1.1,0-2.2-0.3-3.3-0.5
		c-1.6-0.2-1.6-0.2-1.4,1.4c0,0.3,0.1,0.6,0,0.8c-0.3,1,0.2,0.8,0.8,0.6C130.1,154.8,131.1,154.6,132.1,154.3z M155.9,72.9
		c0.9,0.3,1.1-0.1,1-0.9c-0.1-0.9-0.3-1.9-0.2-2.8c0-0.5,0.4-1.1,0.6-1.6c0.1-0.1,0.2-0.2,0.3-0.4c-0.2,0-0.4-0.1-0.6-0.1
		c-1.7,0-3,1.8-2.5,3.4c0.1,0.4,0.3,0.9,0.3,1.4C154.6,72.9,154.9,73.3,155.9,72.9z M158.7,154.1c0.1,0.1,0.2,0.2,0.2,0.3
		c0.3-0.3,0.8-0.5,0.9-0.9c0.2-0.9-0.5-0.9-1.1-0.9c-1.6,0-3.2,0-4.9-0.1c-0.7,0-0.8,0.3-0.8,0.8c-0.1,0.7,0.3,0.7,0.9,0.7
		C155.5,154,157.1,154.1,158.7,154.1z M150.1,136.9c0-0.1,0-0.1,0.1-0.2c0.4,0,0.8,0,1.2,0c0.1,0,0.2-0.1,0.3-0.1
		c-0.1-0.1-0.2-0.2-0.3-0.3c-2-0.7-3.9-2.3-6.3-1.1c-0.2,0.1-0.4,0.1-0.6,0.1c-0.4,0-0.7,0.1-1.1,0.1c0.4,0.2,0.8,0.5,1.2,0.6
		c0.4,0.1,0.9,0,1.4,0c0.3,0,0.6-0.1,0.9,0C148,136.3,149,136.6,150.1,136.9z M161.4,71.6c-0.2-1.8-1.7-2.8-2.5-4.2
		c0-0.1-0.2,0-0.3-0.1c0,0.1,0,0.2,0,0.3c0.7,1.3,0.7,2.6,0.5,3.9c-0.1,0.9,0.3,1.1,1.1,1.1C160.9,72.7,161.5,72.6,161.4,71.6z
		 M154.3,105.7c3.4,0,5.8-1,8-2.6c0.2-0.1,0.2-0.4,0.3-0.5c-0.2,0-0.4,0-0.6,0.1c-1.3,0.7-2.6,1.6-3.9,2.1c-2.4,0.8-4.8,0.4-7.1-0.5
		c-0.2-0.1-0.4-0.1-0.6-0.1c0.1,0.1,0.2,0.3,0.4,0.4C152.2,105.1,153.6,105.5,154.3,105.7z"/>
	<path class="st0" d="M231.8,140.9c2.5,0,3.2,0.9,2.6,2.6c-0.1,0.2,0,0.5,0.2,0.7c0.9,1.1,0.9,2.4-0.4,3.1c-1.2,0.6-2.6,0.9-3.9,1.1
		c-0.3,0-0.9-0.7-1.1-1.2c-0.4-1.2-0.6-2.5-0.8-3.7c-0.1-0.4,0.1-1,0.4-1.1C230,141.8,231.2,141.2,231.8,140.9z"/>
	<path class="st0" d="M236.3,149.9c0-0.5-0.1-1,0-1.6c0-0.3,0.3-0.6,0.5-0.8c0.3,0.2,0.7,0.4,0.8,0.7c0.2,0.5,0.3,1.2,0.3,1.8
		c0.1,1.2,0.7,1.6,1.8,1.5c1.7-0.1,3.3-0.2,5-0.3c1.2,0,2,0.5,2.4,1.7c0.2,0.7,0,1-0.6,1.1c-1.9,0.1-3.8,0.2-5.7,0.3
		c-0.8,0-1.7,0.1-2.5,0.2c-1.4,0-1.7-0.3-1.8-1.6C236.4,151.9,236.3,150.9,236.3,149.9C236.2,149.9,236.3,149.9,236.3,149.9z
		 M242.9,152.4C242.9,152.4,242.9,152.3,242.9,152.4c-1.3,0-2.5,0.1-3.8,0.2c-0.2,0-0.4,0.2-0.7,0.4c0.2,0.1,0.4,0.4,0.6,0.4
		c2-0.1,4-0.2,6-0.3c0.1,0,0.2-0.2,0.4-0.3c-0.1-0.1-0.2-0.3-0.4-0.3C244.2,152.4,243.6,152.4,242.9,152.4z"/>
	<path class="st0" d="M243.5,142.9c-0.1,0.8-0.2,1.5-0.3,2.3c-0.1,0.8-0.4,1.5-1.3,1.6c-0.9,0.1-1.5-0.4-1.8-1.3
		c-0.1-0.3-0.3-0.6-0.5-0.9c-0.2,0.3-0.3,0.5-0.5,0.8c-0.6,0.9-1.5,0.9-2.4,0.7c-0.9-0.2-1.8-1.7-1.4-2.6c0.3-0.7,1-1.4,1.7-1.7
		c0.4-0.2,1.3,0.1,1.8,0.4c0.5,0.5,0.7,1.4,1.7,0.6c0.2,0.2,0.4,0.4,0.5,0.7c0.1,0.2,0,0.6,0.1,0.8c0.1,0.3,0.3,0.5,0.4,0.8
		c0.1-0.3,0.2-0.6,0.3-0.9c0.1-0.8,0-1.5,0.2-2.3c0.1-0.4,0.5-0.7,0.7-1.1c0.2,0.4,0.5,0.8,0.6,1.2
		C243.5,142.3,243.4,142.6,243.5,142.9C243.5,142.9,243.5,142.9,243.5,142.9z"/>
	<path class="st0" d="M243.7,145.9c0.4-1.6,0.7-3,1.1-4.5c0.1-0.2,0.5-0.5,0.6-0.4c0.4,0.2,0.8,0.4,1,0.7c0.3,0.5,0.3,1.1,0.5,1.7
		c0.3-0.5,0.5-1.1,0.9-1.6c0.2-0.3,0.7-0.6,0.9-0.5c0.4,0.1,0.8,0.5,1,0.9c0.4,1.1,0.6,2.2,0.8,3.4c0.1,0.3-0.2,0.7-0.3,1
		c-0.4-0.1-0.8-0.2-1.1-0.4c-0.1-0.1-0.2-0.3-0.2-0.4c-0.1-0.4-0.3-0.8-0.4-1.2c-0.2,0.4-0.3,0.8-0.5,1.2c-0.2,0.4-0.5,0.7-0.7,1
		c-0.4-0.3-0.8-0.5-1.2-0.9c-0.2-0.2-0.3-0.6-0.5-0.9c-0.2,0.3-0.4,0.6-0.6,0.9c-0.2,0.3-0.4,0.5-0.7,0.7
		C244,146.3,243.8,146.1,243.7,145.9z"/>
	<path class="st0" d="M253.5,137.8c-0.4,2.4-0.8,4.5-1.2,6.6c-0.1,0.3-0.7,0.8-1,0.7c-0.3-0.1-0.8-0.7-0.8-1
		c0.4-2.2,0.8-4.4,1.3-6.6c0-0.2,0.7-0.5,0.9-0.4C253.1,137.2,253.4,137.6,253.5,137.8z"/>
	<path class="st0" d="M243,149.3c0.4-0.1,0.6-0.2,0.8-0.1c0.4,0.1,0.8,0.3,1.2,0.4c-0.3,0.3-0.6,0.6-0.9,0.8
		c-0.4,0.2-0.9,0.2-1.4,0.3c-1.3,0.2-2.2-0.8-2-2.1c0-0.2,0.1-0.3,0.2-0.4c0.4-0.6,3.2-0.9,3.7-0.5c0.1,0.1,0,0.5,0,0.6
		c-0.5,0.1-0.9,0.2-1.4,0.3c-0.3,0.1-0.6,0.3-1,0.4C242.5,149.1,242.9,149.2,243,149.3z"/>
	<path class="st0" d="M104.5,106.2c-0.3-1.3-0.7-2.7-1-4c-0.7-2.9-1.4-5.9-2.3-8.8c-0.4-1.5-1.2-2.9-1.8-4.3
		c-0.4-0.9-0.9-1.8-1.2-2.7c-0.1-0.2,0.1-0.6,0.2-0.9c0.3,0.1,0.6,0.1,0.7,0.3c0.9,1.3,2,2.5,2.7,3.9c0.8,1.6,1.4,3.4,1.6,5.2
		c0.4,3.5,1.1,6.9,2.3,10.2c1.3,3.8,2.5,7.7,3.7,11.6c1.7,5.5,3.2,11,4.9,16.5c0.8,2.5,1.6,5,2.4,7.5c1,3.3,2,6.7,2.9,10.1
		c0.1,0.3,0.1,0.6,0.1,0.8c-0.1,0.3-0.2,0.6-0.4,0.9c-0.2-0.2-0.5-0.3-0.7-0.5c-3-4.7-5.7-9.6-7-15.1c-0.5-2.3-0.9-4.6-1.5-6.9
		c-0.3-1.2-0.9-2.3-1.5-3.4c-1.4-2.9-2-6.1-2.4-9.3c-0.5-3.4-1.3-6.9-1.9-10.3c-0.1-0.3,0-0.5-0.1-0.8
		C104.4,106.2,104.5,106.2,104.5,106.2z"/>
	<path class="st0" d="M83.5,81c-1.4-0.2-2.7-0.5-4.1-0.6c-1.9-0.2-3.8-0.1-5.7-0.3c-3.3-0.3-6.7-0.7-10-1.1c-0.3,0-0.5-0.3-0.7-0.4
		c0.3,0,0.5,0,0.8,0c3.4,0.2,6.8,0.4,10.1,0.5c2.7,0,5.5-0.3,8.2-0.4c1.9,0,3.8,0,5.6,0.3c2,0.3,4,0.8,5.9,1.6
		c1.2,0.5,2,1.7,2.9,2.7c0.2,0.2,0,0.6,0,0.9c-0.3-0.1-0.6-0.1-0.8-0.2C91.6,81.8,88,80.8,83.5,81z"/>
	<path class="st0" d="M54.4,83.3c-2.3,0-4.6,0-6.9,0c-1.6,0-2.8-0.9-2.9-2.3c-0.1-0.5,0.3-1.3,0.6-1.4c3.8-1.4,7.6-1.2,11.5-0.3
		c1,0.2,1.7,0.7,2,1.9c0.3,1.1-0.1,1.7-1,1.9c-1.1,0.3-2.2,0.3-3.3,0.5C54.4,83.5,54.4,83.4,54.4,83.3z M49.5,80.2
		c-0.4,0-0.7,0-1,0.1c-0.3,0.1-0.7,0.2-0.7,0.3c0,0.3,0.1,0.7,0.3,0.8c0.2,0.2,0.6,0.3,1,0.3c1.6,0.1,3.2,0.1,4.7,0.1
		c0.4,0,0.9-0.3,1.3-0.5c-0.4-0.3-0.7-0.7-1.1-0.8C52.6,80.5,51,80.4,49.5,80.2z"/>
	<path class="st0" d="M27.5,79c-1.5,0-3,0-4.5,0c-0.2,0-0.4-0.2-0.7-0.4c0.2-0.1,0.3-0.3,0.5-0.4c2.7-1.6,5.6-0.8,8.5-0.5
		c0.3,0,0.6,0.5,0.9,0.8c-0.3,0.2-0.7,0.5-1,0.5c-1.2,0.1-2.4,0.2-3.7,0.3C27.5,79.2,27.5,79.1,27.5,79z"/>
	<path class="st0" d="M182.4,63.9c0-0.4,0-0.6,0.1-0.7c1.4-2.2,1-5.1,3-7c0.5-0.4,1.1-0.7,1.7-0.8c0.3-0.1,0.8,0.3,1,0.6
		c0.1,0.2,0,0.8-0.2,1c-1.2,1.5-1.8,3.2-2.3,5.1c-0.2,0.9-0.9,1.7-1.5,2.5c-0.2,0.3-0.9,0.5-1.2,0.4
		C182.8,64.7,182.6,64.2,182.4,63.9z"/>
	<path class="st0" d="M164.7,53.5c0.1-0.7,0.2-1,0.3-1.4c0.3-0.9,1.3-1.1,1.8-0.4c0.4,0.6,0.8,1.2,1,1.9c0.1,0.4-0.3,1.1-0.7,1.4
		c-0.1,0.1-0.8-0.1-1.1-0.3C165.4,54.3,165,53.8,164.7,53.5z"/>
	<path class="st0" d="M124.6,55c0.9,0,1.9,1.3,2,2.2c0.1,0.7-1,1.7-1.8,1.6c-1.1-0.1-1.2-1.1-1.2-1.9
		C123.6,56.1,123.6,55.2,124.6,55z"/>
</g>
</svg>
